<svg xmlns="http://www.w3.org/2000/svg" xmlns:xlink="http://www.w3.org/1999/xlink" version="1.2" width="301.01mm" height="54.89mm" viewBox="10.6254 -0.7182 171.2925 31.2361">
<defs><link href="../../assets/fonts.css" type="text/css" rel="stylesheet" xmlns="http://www.w3.org/1999/xhtml" /></defs>
<rect transform="translate(144.4377, 9.5838)" x="0.0000" y="-2.0000" width="0.1900" height="4.0500" ry="0.0000" fill="currentColor"/>
<rect transform="translate(144.4377, 23.5159)" x="0.0000" y="-2.0500" width="0.1900" height="4.0500" ry="0.0000" fill="currentColor"/>
<rect transform="translate(144.4377, -0.0000)" x="0.0000" y="11.6338" width="0.1900" height="9.8821" ry="0.0000" fill="currentColor"/>
<rect transform="translate(87.1391, 9.5838)" x="0.0000" y="-2.0000" width="0.1900" height="4.0500" ry="0.0000" fill="currentColor"/>
<rect transform="translate(87.1391, 23.5159)" x="0.0000" y="-2.0500" width="0.1900" height="4.0500" ry="0.0000" fill="currentColor"/>
<rect transform="translate(56.6974, -0.0000)" x="0.0000" y="11.6338" width="0.1900" height="9.8821" ry="0.0000" fill="currentColor"/>
<rect transform="translate(87.1391, -0.0000)" x="0.0000" y="11.6338" width="0.1900" height="9.8821" ry="0.0000" fill="currentColor"/>
<rect transform="translate(56.6974, 23.5159)" x="0.0000" y="-2.0500" width="0.1900" height="4.0500" ry="0.0000" fill="currentColor"/>
<rect transform="translate(56.6974, 9.5838)" x="0.0000" y="-2.0000" width="0.1900" height="4.0500" ry="0.0000" fill="currentColor"/>
<rect transform="translate(117.0650, -0.0000)" x="0.0000" y="11.6338" width="0.1900" height="9.8821" ry="0.0000" fill="currentColor"/>
<rect transform="translate(117.0650, 23.5159)" x="0.0000" y="-2.0500" width="0.1900" height="4.0500" ry="0.0000" fill="currentColor"/>
<rect transform="translate(117.0650, 9.5838)" x="0.0000" y="-2.0000" width="0.1900" height="4.0500" ry="0.0000" fill="currentColor"/>
<rect transform="translate(172.6697, 9.5838)" x="0.0000" y="-2.0000" width="0.1900" height="4.0500" ry="0.0000" fill="currentColor"/>
<rect transform="translate(172.6697, 23.5159)" x="0.0000" y="-2.0500" width="0.1900" height="4.0500" ry="0.0000" fill="currentColor"/>
<rect transform="translate(172.6697, -0.0000)" x="0.0000" y="11.6338" width="0.1900" height="9.8821" ry="0.0000" fill="currentColor"/>
<rect transform="translate(179.0597, 9.5838)" x="0.0000" y="-2.0000" width="0.1900" height="4.0500" ry="0.0000" fill="currentColor"/>
<rect transform="translate(0.0000, 12.5838)" x="30.2585" y="-0.1000" width="1.8321" height="0.2000" ry="0.1000" fill="currentColor"/>
<rect transform="translate(0.0000, 6.5838)" x="66.7570" y="-0.1000" width="1.9243" height="0.2000" ry="0.1000" fill="currentColor"/>
<rect transform="translate(0.0000, 6.5838)" x="68.7812" y="-0.1000" width="1.9243" height="0.2000" ry="0.1000" fill="currentColor"/>
<rect transform="translate(0.0000, 12.5838)" x="76.3800" y="-0.1000" width="1.9243" height="0.2000" ry="0.1000" fill="currentColor"/>
<rect transform="translate(0.0000, 13.5838)" x="76.5222" y="-0.1000" width="1.7821" height="0.2000" ry="0.1000" fill="currentColor"/>
<rect transform="translate(0.0000, 12.5838)" x="78.4043" y="-0.1000" width="1.9243" height="0.2000" ry="0.1000" fill="currentColor"/>
<rect transform="translate(0.0000, 6.5838)" x="124.7421" y="-0.1000" width="1.3164" height="0.2000" ry="0.1000" fill="currentColor"/>
<rect transform="translate(0.0000, 6.5838)" x="126.1585" y="-0.1000" width="1.3284" height="0.2000" ry="0.1000" fill="currentColor"/>
<rect transform="translate(0.0000, 6.5838)" x="127.5869" y="-0.1000" width="1.3324" height="0.2000" ry="0.1000" fill="currentColor"/>
<rect transform="translate(0.0000, 5.5838)" x="127.5869" y="-0.1000" width="1.3324" height="0.2000" ry="0.1000" fill="currentColor"/>
<rect transform="translate(0.0000, 6.5838)" x="129.0193" y="-0.1000" width="1.8493" height="0.2000" ry="0.1000" fill="currentColor"/>
<rect transform="translate(0.0000, 5.5838)" x="129.0193" y="-0.1000" width="1.8493" height="0.2000" ry="0.1000" fill="currentColor"/>
<rect transform="translate(0.0000, 6.5838)" x="152.5025" y="-0.1000" width="1.3164" height="0.2000" ry="0.1000" fill="currentColor"/>
<rect transform="translate(0.0000, 6.5838)" x="153.9189" y="-0.1000" width="1.3284" height="0.2000" ry="0.1000" fill="currentColor"/>
<rect transform="translate(0.0000, 6.5838)" x="155.3472" y="-0.1000" width="1.3324" height="0.2000" ry="0.1000" fill="currentColor"/>
<rect transform="translate(0.0000, 5.5838)" x="155.3472" y="-0.1000" width="1.3324" height="0.2000" ry="0.1000" fill="currentColor"/>
<rect transform="translate(0.0000, 6.5838)" x="156.7796" y="-0.1000" width="1.8493" height="0.2000" ry="0.1000" fill="currentColor"/>
<rect transform="translate(0.0000, 5.5838)" x="156.7796" y="-0.1000" width="1.8493" height="0.2000" ry="0.1000" fill="currentColor"/>
<rect transform="translate(0.0000, 6.5838)" x="163.3320" y="-0.1000" width="1.3926" height="0.2000" ry="0.1000" fill="currentColor"/>
<rect transform="translate(0.0000, 6.5838)" x="164.9903" y="-0.1000" width="1.3926" height="0.2000" ry="0.1000" fill="currentColor"/>
<rect transform="translate(0.0000, 5.5838)" x="164.9903" y="-0.1000" width="1.3926" height="0.2000" ry="0.1000" fill="currentColor"/>
<rect transform="translate(0.0000, 6.5838)" x="167.2147" y="-0.1000" width="1.3605" height="0.2000" ry="0.1000" fill="currentColor"/>
<rect transform="translate(0.0000, 5.5838)" x="167.2147" y="-0.1000" width="1.3605" height="0.2000" ry="0.1000" fill="currentColor"/>
<rect transform="translate(0.0000, 4.5838)" x="167.2588" y="-0.1000" width="1.3164" height="0.2000" ry="0.1000" fill="currentColor"/>
<rect transform="translate(0.0000, 6.5838)" x="168.6752" y="-0.1000" width="1.3324" height="0.2000" ry="0.1000" fill="currentColor"/>
<rect transform="translate(0.0000, 5.5838)" x="168.6752" y="-0.1000" width="1.3324" height="0.2000" ry="0.1000" fill="currentColor"/>
<rect transform="translate(0.0000, 4.5838)" x="168.6752" y="-0.1000" width="1.3324" height="0.2000" ry="0.1000" fill="currentColor"/>
<rect transform="translate(0.0000, 6.5838)" x="170.1076" y="-0.1000" width="1.8493" height="0.2000" ry="0.1000" fill="currentColor"/>
<rect transform="translate(0.0000, 5.5838)" x="170.1076" y="-0.1000" width="1.8493" height="0.2000" ry="0.1000" fill="currentColor"/>
<rect transform="translate(0.0000, 4.5838)" x="170.1076" y="-0.1000" width="1.8493" height="0.2000" ry="0.1000" fill="currentColor"/>
<rect transform="translate(0.0000, 3.5838)" x="170.1076" y="-0.1000" width="1.8493" height="0.2000" ry="0.1000" fill="currentColor"/>
<rect transform="translate(0.0000, 26.5159)" x="27.2759" y="-0.1000" width="1.9743" height="0.2000" ry="0.1000" fill="currentColor"/>
<rect transform="translate(0.0000, 26.5159)" x="38.2214" y="-0.1000" width="1.9743" height="0.2000" ry="0.1000" fill="currentColor"/>
<rect transform="translate(0.0000, 26.5159)" x="57.4583" y="-0.1000" width="1.9743" height="0.2000" ry="0.1000" fill="currentColor"/>
<rect transform="translate(0.0000, 26.5159)" x="68.7312" y="-0.1000" width="1.9743" height="0.2000" ry="0.1000" fill="currentColor"/>
<rect transform="translate(0.0000, 20.5159)" x="104.1764" y="-0.1000" width="1.9743" height="0.2000" ry="0.1000" fill="currentColor"/>
<rect transform="translate(0.0000, 19.5159)" x="104.3157" y="-0.1000" width="1.8349" height="0.2000" ry="0.1000" fill="currentColor"/>
<rect transform="translate(0.0000, 20.5159)" x="148.1804" y="-0.1000" width="1.8349" height="0.2000" ry="0.1000" fill="currentColor"/>
<rect transform="translate(0.0000, 20.5159)" x="158.5116" y="-0.1000" width="1.3926" height="0.2000" ry="0.1000" fill="currentColor"/>
<rect transform="translate(0.0000, 20.5159)" x="161.4750" y="-0.1000" width="1.9743" height="0.2000" ry="0.1000" fill="currentColor"/>
<rect transform="translate(0.0000, 19.5159)" x="161.4750" y="-0.1000" width="1.9743" height="0.2000" ry="0.1000" fill="currentColor"/>
<rect transform="translate(0.0000, 18.5159)" x="161.6144" y="-0.1000" width="1.8349" height="0.2000" ry="0.1000" fill="currentColor"/>
<rect transform="translate(179.0597, -0.0000)" x="0.0000" y="11.6338" width="0.1900" height="9.8821" ry="0.0000" fill="currentColor"/>
<line transform="translate(11.9502, 25.5159)" stroke-linejoin="round" stroke-linecap="round" stroke-width="0.1000" stroke="currentColor" x1="0.0500" y1="-0.0000" x2="169.9677" y2="-0.0000"/>
<line transform="translate(11.9502, 24.5159)" stroke-linejoin="round" stroke-linecap="round" stroke-width="0.1000" stroke="currentColor" x1="0.0500" y1="-0.0000" x2="169.9677" y2="-0.0000"/>
<line transform="translate(11.9502, 23.5159)" stroke-linejoin="round" stroke-linecap="round" stroke-width="0.1000" stroke="currentColor" x1="0.0500" y1="-0.0000" x2="169.9677" y2="-0.0000"/>
<line transform="translate(11.9502, 22.5159)" stroke-linejoin="round" stroke-linecap="round" stroke-width="0.1000" stroke="currentColor" x1="0.0500" y1="-0.0000" x2="169.9677" y2="-0.0000"/>
<line transform="translate(11.9502, 21.5159)" stroke-linejoin="round" stroke-linecap="round" stroke-width="0.1000" stroke="currentColor" x1="0.0500" y1="-0.0000" x2="169.9677" y2="-0.0000"/>
<rect transform="translate(179.0597, 23.5159)" x="0.0000" y="-2.0500" width="0.1900" height="4.0500" ry="0.0000" fill="currentColor"/>
<line transform="translate(11.9502, 11.5838)" stroke-linejoin="round" stroke-linecap="round" stroke-width="0.1000" stroke="currentColor" x1="0.0500" y1="-0.0000" x2="169.9677" y2="-0.0000"/>
<line transform="translate(11.9502, 10.5838)" stroke-linejoin="round" stroke-linecap="round" stroke-width="0.1000" stroke="currentColor" x1="0.0500" y1="-0.0000" x2="169.9677" y2="-0.0000"/>
<line transform="translate(11.9502, 9.5838)" stroke-linejoin="round" stroke-linecap="round" stroke-width="0.1000" stroke="currentColor" x1="0.0500" y1="-0.0000" x2="169.9677" y2="-0.0000"/>
<line transform="translate(11.9502, 8.5838)" stroke-linejoin="round" stroke-linecap="round" stroke-width="0.1000" stroke="currentColor" x1="0.0500" y1="-0.0000" x2="169.9677" y2="-0.0000"/>
<line transform="translate(11.9502, 7.5838)" stroke-linejoin="round" stroke-linecap="round" stroke-width="0.1000" stroke="currentColor" x1="0.0500" y1="-0.0000" x2="169.9677" y2="-0.0000"/>
<rect transform="translate(31.6965, 9.5838)" x="-0.0650" y="-2.8209" width="0.1300" height="5.6331" ry="0.0400" fill="currentColor"/>
<path transform="translate(60.6334, 9.0838) scale(0.0040, -0.0040)" d="M220 138c56 0 109 -29 109 -91c0 -72 -56 -121 -103 -149c-36 -21 -76 -36 -117 -36c-56 0 -109 29 -109 91c0 72 56 121 103 149c36 21 76 36 117 36z" fill="currentColor"/>
<rect transform="translate(60.6984, 9.5838)" x="-0.0650" y="-0.3122" width="0.1300" height="3.1122" ry="0.0400" fill="currentColor"/>
<path transform="translate(59.5874, 9.0838) scale(0.0040, -0.0040)" d="M-8 375c8 4 17 7 26 7s17 -3 25 -7l-3 -183l106 20h3c10 0 18 -7 18 -17l7 -570c-8 -4 -16 -7 -25 -7s-17 3 -25 7l3 183l-106 -20h-3c-10 0 -18 7 -18 17zM131 112l-92 -17l-3 -207l92 17z" fill="currentColor"/>
<path transform="translate(63.4956, 7.5838) scale(0.0040, -0.0040)" d="M220 138c56 0 109 -29 109 -91c0 -72 -56 -121 -103 -149c-36 -21 -76 -36 -117 -36c-56 0 -109 29 -109 91c0 72 56 121 103 149c36 21 76 36 117 36z" fill="currentColor"/>
<path transform="translate(54.4839, 23.0159) scale(0.0040, -0.0040)" d="M220 138c56 0 109 -29 109 -91c0 -72 -56 -121 -103 -149c-36 -21 -76 -36 -117 -36c-56 0 -109 29 -109 91c0 72 56 121 103 149c36 21 76 36 117 36z" fill="currentColor"/>
<rect transform="translate(55.7351, 23.5159)" x="-0.0650" y="-2.8100" width="0.1300" height="2.1222" ry="0.0400" fill="currentColor"/>
<path transform="translate(57.7874, 9.5838) scale(0.0040, -0.0040)" d="M54 -500l86 327c-35 -13 -71 -23 -108 -23c-46 0 -87 33 -87 79c0 40 32 72 72 72c25 0 49 -15 57 -39c10 -28 5 -59 34 -59c17 0 54 54 59 71l39 149c-34 -12 -70 -23 -106 -23c-46 0 -87 33 -87 79c0 40 33 72 73 72c25 0 48 -15 56 -39c10 -28 5 -59 34 -59
c16 0 52 51 56 68l40 151c-33 -12 -68 -22 -103 -22c-46 0 -87 33 -87 79c0 40 32 72 72 72c25 0 49 -15 57 -39c10 -28 5 -59 34 -59c15 0 46 49 52 63c6 12 23 12 28 0l-216 -920c-8 -7 -18 -10 -28 -10s-19 3 -27 10z" fill="currentColor"/>
<path transform="translate(57.7874, 27.0159) scale(0.0040, -0.0040)" d="M220 138c56 0 109 -29 109 -91c0 -72 -56 -121 -103 -149c-36 -21 -76 -36 -117 -36c-56 0 -109 29 -109 91c0 72 56 121 103 149c36 21 76 36 117 36z" fill="currentColor"/>
<text transform="translate(57.7874, 30.4389)" font-family="Lyon Text" font-style="italic" font-size="2.2001" text-anchor="start" fill="currentColor">
<tspan>
tre corde</tspan>
</text>
<rect transform="translate(59.0386, 23.5159)" x="-0.0650" y="-1.8100" width="0.1300" height="5.1222" ry="0.0400" fill="currentColor"/>
<path transform="translate(69.0603, 6.0838) scale(0.0040, -0.0040)" d="M220 138c56 0 109 -29 109 -91c0 -72 -56 -121 -103 -149c-36 -21 -76 -36 -117 -36c-56 0 -109 29 -109 91c0 72 56 121 103 149c36 21 76 36 117 36z" fill="currentColor"/>
<path transform="translate(69.7184, 5.3338) scale(0.0040, -0.0040)" d="M-112 0c-7 0 -13 5 -13 12c0 2 0 4 1 6l113 250c2 4 6 7 11 7s9 -3 11 -7l113 -250c1 -2 1 -4 1 -6c0 -7 -6 -12 -13 -12h-66c-5 0 -10 3 -12 7l-68 150l-67 -150c-2 -4 -6 -7 -11 -7z" fill="currentColor"/>
<path transform="translate(69.0603, 27.0159) scale(0.0040, -0.0040)" d="M220 138c56 0 109 -29 109 -91c0 -72 -56 -121 -103 -149c-36 -21 -76 -36 -117 -36c-56 0 -109 29 -109 91c0 72 56 121 103 149c36 21 76 36 117 36z" fill="currentColor"/>
<rect transform="translate(69.1253, 9.5838)" x="-0.0650" y="-3.3122" width="0.1300" height="4.8221" ry="0.0400" fill="currentColor"/>
<rect transform="translate(70.3115, 23.5159)" x="-0.0650" y="-1.8100" width="0.1300" height="5.1222" ry="0.0400" fill="currentColor"/>
<path transform="translate(71.2265, 25.0159) scale(0.0040, -0.0040)" d="M220 138c56 0 109 -29 109 -91c0 -72 -56 -121 -103 -149c-36 -21 -76 -36 -117 -36c-56 0 -109 29 -109 91c0 72 56 121 103 149c36 21 76 36 117 36z" fill="currentColor"/>
<rect transform="translate(72.4776, 23.5159)" x="-0.0650" y="-1.8100" width="0.1300" height="3.1222" ry="0.0400" fill="currentColor"/>
<path transform="translate(74.0886, 9.5838) scale(0.0040, -0.0040)" d="M54 -500l86 327c-35 -13 -71 -23 -108 -23c-46 0 -87 33 -87 79c0 40 32 72 72 72c25 0 49 -15 57 -39c10 -28 5 -59 34 -59c17 0 54 54 59 71l39 149c-34 -12 -70 -23 -106 -23c-46 0 -87 33 -87 79c0 40 33 72 73 72c25 0 48 -15 56 -39c10 -28 5 -59 34 -59
c16 0 52 51 56 68l40 151c-33 -12 -68 -22 -103 -22c-46 0 -87 33 -87 79c0 40 32 72 72 72c25 0 49 -15 57 -39c10 -28 5 -59 34 -59c15 0 46 49 52 63c6 12 23 12 28 0l-216 -920c-8 -7 -18 -10 -28 -10s-19 3 -27 10z" fill="currentColor"/>
<path transform="translate(71.3366, 10.5838) scale(0.0040, -0.0040)" d="M518 1c0 -82 -56 -168 -141 -197c2 -27 3 -54 3 -81c0 -16 0 -33 -1 -49c-6 -99 -75 -186 -173 -186c-87 0 -159 72 -159 160c0 46 42 83 90 83c43 0 76 -38 76 -83c0 -42 -34 -76 -76 -76c-4 0 -6 0 -10 1c19 -26 47 -42 81 -42c75 0 124 72 129 149c1 15 1 30 1 45
c0 23 -1 46 -3 69c-22 -4 -44 -6 -67 -6c-151 0 -266 139 -266 302c0 144 101 254 191 367c-16 53 -31 105 -37 160c-5 42 -5 85 -5 128c0 93 42 181 115 239c3 2 6 3 9 3c4 0 8 -1 11 -4c57 -69 107 -202 107 -295c0 -115 -63 -207 -135 -297c17 -59 33 -119 47 -179h1
c2 0 4 1 6 1c126 0 206 -105 206 -212zM373 -155c50 20 81 75 81 125c0 68 -48 136 -127 147c19 -89 35 -178 46 -272zM63 19c0 -104 102 -188 208 -188c21 0 40 1 60 4c-11 98 -28 191 -48 283c-59 -7 -93 -48 -93 -92c0 -34 21 -70 64 -95c5 -5 6 -10 6 -15
c0 -11 -9 -22 -21 -22c-3 0 -6 1 -9 2c-65 35 -95 93 -95 150c0 71 46 141 128 161c-11 48 -24 95 -38 143c-82 -101 -162 -202 -162 -331zM319 860c-76 -44 -123 -124 -123 -211c0 -56 15 -104 29 -151c59 79 107 162 107 261c0 43 -2 61 -13 101z" fill="currentColor"/>
<path transform="translate(74.0886, 23.0159) scale(0.0040, -0.0040)" d="M220 138c56 0 109 -29 109 -91c0 -72 -56 -121 -103 -149c-36 -21 -76 -36 -117 -36c-56 0 -109 29 -109 91c0 72 56 121 103 149c36 21 76 36 117 36z" fill="currentColor"/>
<rect transform="translate(63.5606, 9.5838)" x="-0.0650" y="-1.8122" width="0.1300" height="4.1741" ry="0.0400" fill="currentColor"/>
<path transform="translate(62.4496, 7.5838) scale(0.0040, -0.0040)" d="M-8 375c8 4 17 7 26 7s17 -3 25 -7l-3 -183l106 20h3c10 0 18 -7 18 -17l7 -570c-8 -4 -16 -7 -25 -7s-17 3 -25 7l3 183l-106 -20h-3c-10 0 -18 7 -18 17zM131 112l-92 -17l-3 -207l92 17z" fill="currentColor"/>
<path transform="translate(64.3037, 25.0159) scale(0.0040, -0.0040)" d="M220 138c56 0 109 -29 109 -91c0 -72 -56 -121 -103 -149c-36 -21 -76 -36 -117 -36c-56 0 -109 29 -109 91c0 72 56 121 103 149c36 21 76 36 117 36z" fill="currentColor"/>
<rect transform="translate(65.5548, 23.5159)" x="-0.0650" y="-1.8100" width="0.1300" height="3.1222" ry="0.0400" fill="currentColor"/>
<path transform="translate(30.4453, 12.5838) scale(0.0040, -0.0040)" d="M220 138c56 0 109 -29 109 -91c0 -72 -56 -121 -103 -149c-36 -21 -76 -36 -117 -36c-56 0 -109 29 -109 91c0 72 56 121 103 149c36 21 76 36 117 36z" fill="currentColor"/>
<path transform="translate(63.2633, 25.0159) scale(0.0040, -0.0040)" d="M-8 375c8 4 17 7 26 7s17 -3 25 -7l-3 -183l106 20h3c10 0 18 -7 18 -17l7 -570c-8 -4 -16 -7 -25 -7s-17 3 -25 7l3 183l-106 -20h-3c-10 0 -18 7 -18 17zM131 112l-92 -17l-3 -207l92 17z" fill="currentColor"/>
<path transform="translate(65.1118, 7.0838) scale(0.0040, -0.0040)" d="M220 138c56 0 109 -29 109 -91c0 -72 -56 -121 -103 -149c-36 -21 -76 -36 -117 -36c-56 0 -109 29 -109 91c0 72 56 121 103 149c36 21 76 36 117 36z" fill="currentColor"/>
<rect transform="translate(65.1768, 9.5838)" x="-0.0650" y="-2.3122" width="0.1300" height="4.4266" ry="0.0400" fill="currentColor"/>
<path transform="translate(67.0860, 6.5838) scale(0.0040, -0.0040)" d="M220 138c56 0 109 -29 109 -91c0 -72 -56 -121 -103 -149c-36 -21 -76 -36 -117 -36c-56 0 -109 29 -109 91c0 72 56 121 103 149c36 21 76 36 117 36z" fill="currentColor"/>
<rect transform="translate(67.1510, 9.5838)" x="-0.0650" y="-2.8122" width="0.1300" height="4.6244" ry="0.0400" fill="currentColor"/>
<path transform="translate(38.5504, 9.5838) scale(0.0040, -0.0040)" d="M220 138c56 0 109 -29 109 -91c0 -72 -56 -121 -103 -149c-36 -21 -76 -36 -117 -36c-56 0 -109 29 -109 91c0 72 56 121 103 149c36 21 76 36 117 36z" fill="currentColor"/>
<path transform="translate(39.2085, 11.0838) scale(0.0040, -0.0040)" d="M112 0c7 0 13 -5 13 -12c0 -2 0 -4 -1 -6l-113 -250c-2 -4 -6 -7 -11 -7s-9 3 -11 7l-113 250c-1 2 -1 4 -1 6c0 7 6 12 13 12h66c5 0 10 -3 12 -7l68 -150l67 150c2 4 6 7 11 7z" fill="currentColor"/>
<path transform="translate(38.5504, 27.0159) scale(0.0040, -0.0040)" d="M220 138c56 0 109 -29 109 -91c0 -72 -56 -121 -103 -149c-36 -21 -76 -36 -117 -36c-56 0 -109 29 -109 91c0 72 56 121 103 149c36 21 76 36 117 36z" fill="currentColor"/>
<rect transform="translate(39.8016, 9.5838)" x="-0.0650" y="-4.1791" width="0.1300" height="3.9913" ry="0.0400" fill="currentColor"/>
<rect transform="translate(39.8016, 23.5159)" x="-0.0650" y="-1.8100" width="0.1300" height="5.1222" ry="0.0400" fill="currentColor"/>
<path transform="translate(40.7166, 25.0159) scale(0.0040, -0.0040)" d="M220 138c56 0 109 -29 109 -91c0 -72 -56 -121 -103 -149c-36 -21 -76 -36 -117 -36c-56 0 -109 29 -109 91c0 72 56 121 103 149c36 21 76 36 117 36z" fill="currentColor"/>
<rect transform="translate(41.9678, 23.5159)" x="-0.0650" y="-1.8100" width="0.1300" height="3.1222" ry="0.0400" fill="currentColor"/>
<path transform="translate(43.5732, 9.5838) scale(0.0040, -0.0040)" d="M54 -500l86 327c-35 -13 -71 -23 -108 -23c-46 0 -87 33 -87 79c0 40 32 72 72 72c25 0 49 -15 57 -39c10 -28 5 -59 34 -59c17 0 54 54 59 71l39 149c-34 -12 -70 -23 -106 -23c-46 0 -87 33 -87 79c0 40 33 72 73 72c25 0 48 -15 56 -39c10 -28 5 -59 34 -59
c16 0 52 51 56 68l40 151c-33 -12 -68 -22 -103 -22c-46 0 -87 33 -87 79c0 40 32 72 72 72c25 0 49 -15 57 -39c10 -28 5 -59 34 -59c15 0 46 49 52 63c6 12 23 12 28 0l-216 -920c-8 -7 -18 -10 -28 -10s-19 3 -27 10z" fill="currentColor"/>
<path transform="translate(43.5732, 23.0159) scale(0.0040, -0.0040)" d="M220 138c56 0 109 -29 109 -91c0 -72 -56 -121 -103 -149c-36 -21 -76 -36 -117 -36c-56 0 -109 29 -109 91c0 72 56 121 103 149c36 21 76 36 117 36z" fill="currentColor"/>
<rect transform="translate(34.5531, 9.5838)" x="-0.0650" y="-3.2996" width="0.1300" height="4.6118" ry="0.0400" fill="currentColor"/>
<path transform="translate(32.2615, 11.0838) scale(0.0040, -0.0040)" d="M-8 375c8 4 17 7 26 7s17 -3 25 -7l-3 -183l106 20h3c10 0 18 -7 18 -17l7 -570c-8 -4 -16 -7 -25 -7s-17 3 -25 7l3 183l-106 -20h-3c-10 0 -18 7 -18 17zM131 112l-92 -17l-3 -207l92 17z" fill="currentColor"/>
<path transform="translate(34.1100, 25.0159) scale(0.0040, -0.0040)" d="M220 138c56 0 109 -29 109 -91c0 -72 -56 -121 -103 -149c-36 -21 -76 -36 -117 -36c-56 0 -109 29 -109 91c0 72 56 121 103 149c36 21 76 36 117 36z" fill="currentColor"/>
<rect transform="translate(35.3612, 23.5159)" x="-0.0650" y="-1.8100" width="0.1300" height="3.1222" ry="0.0400" fill="currentColor"/>
<path transform="translate(33.0696, 25.0159) scale(0.0040, -0.0040)" d="M-8 375c8 4 17 7 26 7s17 -3 25 -7l-3 -183l106 20h3c10 0 18 -7 18 -17l7 -570c-8 -4 -16 -7 -25 -7s-17 3 -25 7l3 183l-106 -20h-3c-10 0 -18 7 -18 17zM131 112l-92 -17l-3 -207l92 17z" fill="currentColor"/>
<path transform="translate(34.9181, 10.5838) scale(0.0040, -0.0040)" d="M220 138c56 0 109 -29 109 -91c0 -72 -56 -121 -103 -149c-36 -21 -76 -36 -117 -36c-56 0 -109 29 -109 91c0 72 56 121 103 149c36 21 76 36 117 36z" fill="currentColor"/>
<path transform="translate(33.3019, 11.0838) scale(0.0040, -0.0040)" d="M220 138c56 0 109 -29 109 -91c0 -72 -56 -121 -103 -149c-36 -21 -76 -36 -117 -36c-56 0 -109 29 -109 91c0 72 56 121 103 149c36 21 76 36 117 36z" fill="currentColor"/>
<rect transform="translate(36.1693, 9.5838)" x="-0.0650" y="-3.5704" width="0.1300" height="4.3826" ry="0.0400" fill="currentColor"/>
<path transform="translate(36.7343, 10.0838) scale(0.0040, -0.0040)" d="M220 138c56 0 109 -29 109 -91c0 -72 -56 -121 -103 -149c-36 -21 -76 -36 -117 -36c-56 0 -109 29 -109 91c0 72 56 121 103 149c36 21 76 36 117 36z" fill="currentColor"/>
<rect transform="translate(37.9854, 9.5838)" x="-0.0650" y="-3.8748" width="0.1300" height="4.1869" ry="0.0400" fill="currentColor"/>
<path transform="translate(49.0056, 9.0838) scale(0.0040, -0.0040)" d="M-8 375c8 4 17 7 26 7s17 -3 25 -7l-3 -183l106 20h3c10 0 18 -7 18 -17l7 -570c-8 -4 -16 -7 -25 -7s-17 3 -25 7l3 183l-106 -20h-3c-10 0 -18 7 -18 17zM131 112l-92 -17l-3 -207l92 17z" fill="currentColor"/>
<path transform="translate(50.5903, 25.0159) scale(0.0040, -0.0040)" d="M220 138c56 0 109 -29 109 -91c0 -72 -56 -121 -103 -149c-36 -21 -76 -36 -117 -36c-56 0 -109 29 -109 91c0 72 56 121 103 149c36 21 76 36 117 36z" fill="currentColor"/>
<path transform="translate(29.4049, 12.5838) scale(0.0040, -0.0040)" d="M-8 375c8 4 17 7 26 7s17 -3 25 -7l-3 -183l106 20h3c10 0 18 -7 18 -17l7 -570c-8 -4 -16 -7 -25 -7s-17 3 -25 7l3 183l-106 -20h-3c-10 0 -18 7 -18 17zM131 112l-92 -17l-3 -207l92 17z" fill="currentColor"/>
<rect transform="translate(51.8415, 23.5159)" x="-0.0650" y="-2.8100" width="0.1300" height="4.1222" ry="0.0400" fill="currentColor"/>
<path transform="translate(51.6677, 8.5838) scale(0.0040, -0.0040)" d="M220 138c56 0 109 -29 109 -91c0 -72 -56 -121 -103 -149c-36 -21 -76 -36 -117 -36c-56 0 -109 29 -109 91c0 72 56 121 103 149c36 21 76 36 117 36z" fill="currentColor"/>
<rect transform="translate(51.7327, 9.5838)" x="-0.0650" y="-0.8122" width="0.1300" height="4.2254" ry="0.0400" fill="currentColor"/>
<path transform="translate(53.4839, 8.0838) scale(0.0040, -0.0040)" d="M220 138c56 0 109 -29 109 -91c0 -72 -56 -121 -103 -149c-36 -21 -76 -36 -117 -36c-56 0 -109 29 -109 91c0 72 56 121 103 149c36 21 76 36 117 36z" fill="currentColor"/>
<path transform="translate(54.1420, 7.0838) scale(0.0040, -0.0040)" d="M-112 0c-7 0 -13 5 -13 12c0 2 0 4 1 6l113 250c2 4 6 7 11 7s9 -3 11 -7l113 -250c1 -2 1 -4 1 -6c0 -7 -6 -12 -13 -12h-66c-5 0 -10 3 -12 7l-68 150l-67 -150c-2 -4 -6 -7 -11 -7z" fill="currentColor"/>
<rect transform="translate(53.5489, 9.5838)" x="-0.0650" y="-1.3122" width="0.1300" height="4.3265" ry="0.0400" fill="currentColor"/>
<rect transform="translate(44.8244, 23.5159)" x="-0.0650" y="-2.8100" width="0.1300" height="2.1222" ry="0.0400" fill="currentColor"/>
<path transform="translate(42.5328, 23.0159) scale(0.0040, -0.0040)" d="M-8 375c8 4 17 7 26 7s17 -3 25 -7l-3 -183l106 20h3c10 0 18 -7 18 -17l7 -570c-8 -4 -16 -7 -25 -7s-17 3 -25 7l3 183l-106 -20h-3c-10 0 -18 7 -18 17zM131 112l-92 -17l-3 -207l92 17z" fill="currentColor"/>
<path transform="translate(45.3732, 11.0838) scale(0.0040, -0.0040)" d="M220 138c56 0 109 -29 109 -91c0 -72 -56 -121 -103 -149c-36 -21 -76 -36 -117 -36c-56 0 -109 29 -109 91c0 72 56 121 103 149c36 21 76 36 117 36z" fill="currentColor"/>
<text transform="translate(45.3732, 5.1901)" font-family="Lyon Text" font-size="2.2001" text-anchor="start" fill="currentColor">
<tspan>
accel.</tspan>
</text>
<rect transform="translate(45.4382, 9.5838)" x="-0.0650" y="1.6878" width="0.1300" height="3.1079" ry="0.0400" fill="currentColor"/>
<path transform="translate(47.1894, 10.0838) scale(0.0040, -0.0040)" d="M220 138c56 0 109 -29 109 -91c0 -72 -56 -121 -103 -149c-36 -21 -76 -36 -117 -36c-56 0 -109 29 -109 91c0 72 56 121 103 149c36 21 76 36 117 36z" fill="currentColor"/>
<rect transform="translate(47.2544, 9.5838)" x="-0.0650" y="0.6878" width="0.1300" height="3.7090" ry="0.0400" fill="currentColor"/>
<path transform="translate(50.0516, 9.0838) scale(0.0040, -0.0040)" d="M220 138c56 0 109 -29 109 -91c0 -72 -56 -121 -103 -149c-36 -21 -76 -36 -117 -36c-56 0 -109 29 -109 91c0 72 56 121 103 149c36 21 76 36 117 36z" fill="currentColor"/>
<rect transform="translate(50.1166, 9.5838)" x="-0.0650" y="-0.3122" width="0.1300" height="4.0803" ry="0.0400" fill="currentColor"/>
<path transform="translate(102.3734, 19.1559) scale(0.0028, -0.0028)" d="M-150 -571c-18 0 -32 14 -32 32c0 9 5 17 12 23l360 290c5 4 12 7 19 7c18 0 32 -14 32 -32c0 -9 -5 -17 -12 -23l-360 -290c-5 -4 -12 -7 -19 -7z" fill="currentColor"/>
<path transform="translate(102.3734, 19.1559) scale(0.0028, -0.0028)" d="M0 0c0 -197 209 -333 209 -530c0 -71 -15 -140 -41 -206c-5 -10 -14 -13 -23 -13c-14 0 -28 10 -28 26v5c27 59 43 123 43 188c0 102 -91 205 -160 280h-21v250h21z" fill="currentColor"/>
<path transform="translate(104.5054, 9.5838) scale(0.0040, -0.0040)" d="M72 -250l117 326c-34 -12 -69 -22 -105 -22c-46 0 -87 33 -87 79c0 40 33 72 73 72c25 0 48 -15 56 -39c10 -28 6 -59 35 -59c16 0 54 48 61 63c6 12 23 12 28 0l-123 -420c-8 -7 -17 -10 -27 -10s-20 3 -28 10z" fill="currentColor"/>
<path transform="translate(104.5054, 19.5159) scale(0.0040, -0.0040)" d="M220 138c56 0 109 -29 109 -91c0 -72 -56 -121 -103 -149c-36 -21 -76 -36 -117 -36c-56 0 -109 29 -109 91c0 72 56 121 103 149c36 21 76 36 117 36z" fill="currentColor"/>
<polygon transform="translate(164.3624, 2.0838)" stroke-linejoin="round" stroke-linecap="round" stroke-width="0.0800" fill="currentColor" stroke="currentColor" points="5.4011 -1.5100 5.4011 -1.2060 0.0400 0.1520 0.0400 -0.1520"/>
<polygon transform="translate(164.3624, 2.7702)" stroke-linejoin="round" stroke-linecap="round" stroke-width="0.0800" fill="currentColor" stroke="currentColor" points="5.4011 -1.5100 5.4011 -1.2060 0.0400 0.1520 0.0400 -0.1520"/>
<polygon transform="translate(164.3624, 3.4566)" stroke-linejoin="round" stroke-linecap="round" stroke-width="0.0800" fill="currentColor" stroke="currentColor" points="5.4011 -1.5100 5.4011 -1.2060 0.0400 0.1520 0.0400 -0.1520"/>
<path transform="translate(163.5641, 9.5838)" stroke-width="0.0800" stroke-linejoin="round" stroke-linecap="round" stroke="currentColor" fill="currentColor" d="M0.597203386180752 -2.10146181619002C2.36655791444227 -1.28172218776143 5.74148098794211 -2.92497114590703 6.44755061755583 -4.949994C5.68894905655054 -3.03286181364188 2.3140259830507 -1.38961285549627 0.597203386180752 -2.10146181619002z"/>
<path transform="translate(158.7437, 23.5159)" stroke-width="0.0800" stroke-linejoin="round" stroke-linecap="round" stroke="currentColor" fill="currentColor" d="M0.658239689441274 -2.10146181619002C1.67363610774826 -2.0623561804169 2.66933695015352 -2.93793182599831 2.76038250476668 -3.949994C2.59009430715203 -3.02804621735807 1.59439346474678 -2.15247057177666 0.658239689441274 -2.10146181619002z"/>
<polygon transform="translate(151.2645, 3.7258)" stroke-linejoin="round" stroke-linecap="round" stroke-width="0.0800" fill="currentColor" stroke="currentColor" points="5.1711 -1.4360 5.1711 -1.1320 0.0400 0.1520 0.0400 -0.1520"/>
<polygon transform="translate(151.2645, 4.4122)" stroke-linejoin="round" stroke-linecap="round" stroke-width="0.0800" fill="currentColor" stroke="currentColor" points="5.1711 -1.4360 5.1711 -1.1320 0.0400 0.1520 0.0400 -0.1520"/>
<polygon transform="translate(151.2645, 5.0986)" stroke-linejoin="round" stroke-linecap="round" stroke-width="0.0800" fill="currentColor" stroke="currentColor" points="5.1711 -1.4360 5.1711 -1.1320 0.0400 0.1520 0.0400 -0.1520"/>
<path transform="translate(150.4661, 9.5838)" stroke-width="0.0800" stroke-linejoin="round" stroke-linecap="round" stroke="currentColor" fill="currentColor" d="M0.601490430543777 -0.601461816190024C2.3431280942255 -0.145908308550667 5.55623119123862 -1.77563222121602 6.21755061755584 -3.449994C5.50194899508859 -1.88265298173065 2.28884589807547 -0.252929069065298 0.601490430543777 -0.601461816190024z"/>
<path transform="translate(145.3097, 23.5159)" stroke-width="0.0800" stroke-linejoin="round" stroke-linecap="round" stroke="currentColor" fill="currentColor" d="M0.648216038288524 -0.101461816190024C1.63517128871465 0.381232626031978 2.6290792265877 -0.418034215391035 2.76038250476668 -1.799994C2.55387852099505 -0.511548138837583 1.559970583122 0.28771870258543 0.648216038288524 -0.101461816190024z"/>
<polygon transform="translate(136.6021, 5.4418)" stroke-linejoin="round" stroke-linecap="round" stroke-width="0.0800" fill="currentColor" stroke="currentColor" points="5.4011 -1.5100 5.4011 -1.2060 0.0400 0.1520 0.0400 -0.1520"/>
<polygon transform="translate(136.6021, 6.1282)" stroke-linejoin="round" stroke-linecap="round" stroke-width="0.0800" fill="currentColor" stroke="currentColor" points="5.4011 -1.5100 5.4011 -1.2060 0.0400 0.1520 0.0400 -0.1520"/>
<polygon transform="translate(136.6021, 6.8146)" stroke-linejoin="round" stroke-linecap="round" stroke-width="0.0800" fill="currentColor" stroke="currentColor" points="5.4011 -1.5100 5.4011 -1.2060 0.0400 0.1520 0.0400 -0.1520"/>
<path transform="translate(135.8037, 9.5838)" stroke-width="0.0800" stroke-linejoin="round" stroke-linecap="round" stroke="currentColor" fill="currentColor" d="M0.597203386180752 1.39853818380998C2.36655791444227 1.88778977448848 5.74148098794214 0.244540816342867 6.44755061755586 -1.449994C5.68894905655057 0.136650148608019 2.3140259830507 1.77989910675363 0.597203386180752 1.39853818380998z"/>
<text transform="translate(134.0437, 0.7841)" font-family="Lyon Text" font-style="italic" font-size="2.2001" text-anchor="start" fill="currentColor">
<tspan>
8</tspan>
</text>
<line transform="translate(135.4704, 0.0500)" stroke-linejoin="round" stroke-linecap="round" stroke-width="0.1000" stroke="currentColor" x1="0" y1="0" x2="36.7573" y2="-0.0000" stroke-dasharray="0.403811241500046,0.608892896833441"/>
<line transform="translate(172.2278, 0.0500)" stroke-linejoin="round" stroke-linecap="round" stroke-width="0.1000" stroke="currentColor" x1="0" y1="0" x2="0.0000" y2="1.2000" stroke-dasharray="0.37,0.53"/>
<line transform="translate(135.4704, 0.0500)" stroke-linejoin="round" stroke-linecap="round" stroke-width="0.1000" stroke="currentColor" x1="0" y1="0" x2="0.0000" y2="-0.0000" stroke-dasharray="0.4,0.6"/>
<path transform="translate(96.8202, 9.5838) scale(0.0028, -0.0028)" d="M211 141c61 0 117 -33 117 -100c0 -71 -52 -121 -99 -149c-34 -20 -73 -33 -112 -33c-61 0 -117 33 -117 100c0 71 52 121 99 149c34 20 73 33 112 33z" fill="currentColor"/>
<rect transform="translate(97.6836, 9.5838)" x="-0.0650" y="-3.1108" width="0.1300" height="2.9951" ry="0.0400" fill="currentColor"/>
<path transform="translate(98.2486, 9.0838) scale(0.0028, -0.0028)" d="M211 141c61 0 117 -33 117 -100c0 -71 -52 -121 -99 -149c-34 -20 -73 -33 -112 -33c-61 0 -117 33 -117 100c0 71 52 121 99 149c34 20 73 33 112 33z" fill="currentColor"/>
<rect transform="translate(99.1120, 9.5838)" x="-0.0650" y="-3.4831" width="0.1300" height="2.8673" ry="0.0400" fill="currentColor"/>
<path transform="translate(99.6850, 8.5838) scale(0.0040, -0.0040)" d="M220 138c56 0 109 -29 109 -91c0 -72 -56 -121 -103 -149c-36 -21 -76 -36 -117 -36c-56 0 -109 29 -109 91c0 72 56 121 103 149c36 21 76 36 117 36z" fill="currentColor"/>
<path transform="translate(100.3431, 7.0838) scale(0.0040, -0.0040)" d="M-112 0c-7 0 -13 5 -13 12c0 2 0 4 1 6l113 250c2 4 6 7 11 7s9 -3 11 -7l113 -250c1 -2 1 -4 1 -6c0 -7 -6 -12 -13 -12h-66c-5 0 -10 3 -12 7l-68 150l-67 -150c-2 -4 -6 -7 -11 -7z" fill="currentColor"/>
<path transform="translate(99.6850, 23.5159) scale(0.0040, -0.0040)" d="M72 -250l117 326c-34 -12 -69 -22 -105 -22c-46 0 -87 33 -87 79c0 40 33 72 73 72c25 0 48 -15 56 -39c10 -28 6 -59 35 -59c16 0 54 48 61 63c6 12 23 12 28 0l-123 -420c-8 -7 -17 -10 -27 -10s-20 3 -28 10z" fill="currentColor"/>
<rect transform="translate(99.7500, 9.5838)" x="-0.0650" y="-0.8122" width="0.1300" height="3.3122" ry="0.0400" fill="currentColor"/>
<path transform="translate(99.8150, 12.0438) scale(0.0040, -0.0040)" d="M0 0h-16v250h16c98 58 227 148 227 259c0 57 -16 112 -41 163c-3 16 10 27 23 27c7 0 15 -3 20 -11c25 -56 40 -117 40 -179c0 -204 -269 -305 -269 -509z" fill="currentColor"/>
<path transform="translate(101.4450, 21.5159) scale(0.0028, -0.0028)" d="M211 141c61 0 117 -33 117 -100c0 -71 -52 -121 -99 -149c-34 -20 -73 -33 -112 -33c-61 0 -117 33 -117 100c0 71 52 121 99 149c34 20 73 33 112 33z" fill="currentColor"/>
<rect transform="translate(102.3084, 23.5159)" x="-0.0650" y="-4.4000" width="0.1300" height="2.2843" ry="0.0400" fill="currentColor"/>
<path transform="translate(60.6334, 9.5838)" stroke-width="0.0800" stroke-linejoin="round" stroke-linecap="round" stroke="currentColor" fill="currentColor" d="M0.489807351179891 -2.550006C1.51425938287522 -4.5042577178107 6.80917908882676 -6.70343427889438 8.91669735117988 -6.050006C6.855207356717 -6.59261280735107 1.56028765076545 -4.39343624626739 0.489807351179891 -2.550006z"/>
<line transform="translate(60.6334, 13.2828)" stroke-linejoin="round" stroke-linecap="round" stroke-width="0.1000" stroke="currentColor" x1="0.0000" y1="0.0000" x2="9.7431" y2="0.6666"/>
<line transform="translate(60.6334, 13.2828)" stroke-linejoin="round" stroke-linecap="round" stroke-width="0.1000" stroke="currentColor" x1="0.0000" y1="-0.0000" x2="9.7431" y2="-0.6666"/>
<polygon transform="translate(44.7594, 20.7059)" stroke-linejoin="round" stroke-linecap="round" stroke-width="0.0800" fill="currentColor" stroke="currentColor" points="11.0007 -0.2000 11.0007 0.2000 0.0400 0.2000 0.0400 -0.2000"/>
<polygon transform="translate(45.3732, 12.7738)" stroke-linejoin="round" stroke-linecap="round" stroke-width="0.0800" fill="currentColor" stroke="currentColor" points="6.3845 -1.6111 6.3845 -1.2111 0.0400 0.2000 0.0400 -0.2000"/>
<polygon transform="translate(45.3732, 13.5838)" stroke-linejoin="round" stroke-linecap="round" stroke-width="0.0800" fill="currentColor" stroke="currentColor" points="6.3845 -1.6111 6.3845 -1.2111 0.0400 0.2000 0.0400 -0.2000"/>
<polygon transform="translate(45.3732, 14.3938)" stroke-linejoin="round" stroke-linecap="round" stroke-width="0.0800" fill="currentColor" stroke="currentColor" points="8.2007 -2.0100 8.2007 -1.6100 0.0400 0.2000 0.0400 -0.2000"/>
<path transform="translate(45.3732, 9.5838)" stroke-width="0.0800" stroke-linejoin="round" stroke-linecap="round" stroke="currentColor" fill="currentColor" d="M0.48426070973143 -0.550006C1.45979589877351 -2.48934926784992 6.51471447090831 -4.67068858830314 8.59497270973144 -4.050006C6.56225985192568 -4.56050947619966 1.50734127979089 -2.37917015574644 0.48426070973143 -0.550006z"/>
<line transform="translate(45.3732, 16.5917)" stroke-linejoin="round" stroke-linecap="round" stroke-width="0.1000" stroke="currentColor" x1="0.0000" y1="0.0000" x2="9.4269" y2="0.6666"/>
<line transform="translate(45.3732, 16.5917)" stroke-linejoin="round" stroke-linecap="round" stroke-width="0.1000" stroke="currentColor" x1="0.0000" y1="-0.0000" x2="9.4269" y2="-0.6666"/>
<polygon transform="translate(28.7911, 21.7059)" stroke-linejoin="round" stroke-linecap="round" stroke-width="0.0800" fill="currentColor" stroke="currentColor" points="13.2017 -0.2000 13.2017 0.2000 0.0400 0.2000 0.0400 -0.2000"/>
<polygon transform="translate(28.7911, 22.5159)" stroke-linejoin="round" stroke-linecap="round" stroke-width="0.0800" fill="currentColor" stroke="currentColor" points="13.2017 -0.2000 13.2017 0.2000 0.0400 0.2000 0.0400 -0.2000"/>
<polygon transform="translate(31.6315, 6.7738)" stroke-linejoin="round" stroke-linecap="round" stroke-width="0.0800" fill="currentColor" stroke="currentColor" points="8.1951 -1.5800 8.1951 -1.1800 0.0400 0.2000 0.0400 -0.2000"/>
<polygon transform="translate(31.6315, 7.5838)" stroke-linejoin="round" stroke-linecap="round" stroke-width="0.0800" fill="currentColor" stroke="currentColor" points="6.3789 -1.2757 6.3789 -0.8757 0.0400 0.2000 0.0400 -0.2000"/>
<polygon transform="translate(31.6315, 8.3938)" stroke-linejoin="round" stroke-linecap="round" stroke-width="0.0800" fill="currentColor" stroke="currentColor" points="6.3789 -1.2757 6.3789 -0.8757 0.0400 0.2000 0.0400 -0.2000"/>
<text transform="translate(49.9212, 19.6049)" font-family="Lyon Text" font-style="italic" font-size="1.7461" text-anchor="start" fill="currentColor">
<tspan>
3</tspan>
</text>
<text transform="translate(47.6520, 15.4601)" font-family="Lyon Text" font-style="italic" font-size="1.7461" text-anchor="start" fill="currentColor">
<tspan>
5</tspan>
</text>
<line transform="translate(44.2232, 15.9294)" stroke-linejoin="round" stroke-linecap="round" stroke-width="0.1600" stroke="currentColor" x1="7.7713" y1="-1.4185" x2="7.7713" y2="-2.1185"/>
<line transform="translate(44.2232, 15.9294)" stroke-linejoin="round" stroke-linecap="round" stroke-width="0.1600" stroke="currentColor" x1="7.7713" y1="-1.4185" x2="4.7302" y2="-0.8634"/>
<line transform="translate(44.2232, 15.9294)" stroke-linejoin="round" stroke-linecap="round" stroke-width="0.1600" stroke="currentColor" x1="-0.1967" y1="0.0359" x2="-0.1967" y2="-0.6641"/>
<line transform="translate(44.2232, 15.9294)" stroke-linejoin="round" stroke-linecap="round" stroke-width="0.1600" stroke="currentColor" x1="-0.1967" y1="0.0359" x2="3.0411" y2="-0.5551"/>
<path transform="translate(30.4453, 9.5838)" stroke-width="0.0800" stroke-linejoin="round" stroke-linecap="round" stroke="currentColor" fill="currentColor" d="M0.703848165569539 4.050006C2.42220208990957 5.22602304386244 7.37197190198402 4.70693036010147 8.80896016556953 3.200006C7.35945589001221 4.58758485560163 2.40968607793776 5.1066775393626 0.703848165569539 4.050006z"/>
<line transform="translate(30.4453, 15.0924)" stroke-linejoin="round" stroke-linecap="round" stroke-width="0.1000" stroke="currentColor" x1="0.0000" y1="0.0000" x2="9.4213" y2="0.6666"/>
<line transform="translate(30.4453, 15.0924)" stroke-linejoin="round" stroke-linecap="round" stroke-width="0.1000" stroke="currentColor" x1="0.0000" y1="-0.0000" x2="9.4213" y2="-0.6666"/>
<text transform="translate(23.6049, 28.8000)" font-family="Lyon Text" font-style="italic" font-size="2.2001" text-anchor="start" fill="currentColor">
<tspan>
8</tspan>
</text>
<line transform="translate(25.0317, 28.0659)" stroke-linejoin="round" stroke-linecap="round" stroke-width="0.1000" stroke="currentColor" x1="0" y1="0" x2="31.1684" y2="-0.0000" stroke-dasharray="0.398726808382017,0.597029219558039"/>
<line transform="translate(56.2001, 28.0659)" stroke-linejoin="round" stroke-linecap="round" stroke-width="0.1000" stroke="currentColor" x1="0" y1="0" x2="0.0000" y2="-1.2000" stroke-dasharray="0.37,0.53"/>
<line transform="translate(25.0317, 28.0659)" stroke-linejoin="round" stroke-linecap="round" stroke-width="0.1000" stroke="currentColor" x1="0" y1="0" x2="0.0000" y2="-0.0000" stroke-dasharray="0.4,0.6"/>
<path transform="translate(27.6049, 23.5159)" stroke-width="0.0800" stroke-linejoin="round" stroke-linecap="round" stroke="currentColor" fill="currentColor" d="M1.24639809979525 -3.55C4.374431801439 -5.5034753147197 43.9671694671819 -5.93486202949882 47.1370240997952 -4.050006C43.9684768618304 -5.81486915171338 4.37573919608753 -5.38348243693425 1.24639809979525 -3.55z"/>
<text transform="translate(32.4692, 4.9851)" font-family="Lyon Text" font-style="italic" font-size="1.7461" text-anchor="start" fill="currentColor">
<tspan>
5</tspan>
</text>
<line transform="translate(27.6049, 5.2901)" stroke-linejoin="round" stroke-linecap="round" stroke-width="0.1600" stroke="currentColor" x1="10.6445" y1="-1.0739" x2="10.6445" y2="-0.3739"/>
<line transform="translate(27.6049, 5.2901)" stroke-linejoin="round" stroke-linecap="round" stroke-width="0.1600" stroke="currentColor" x1="10.6445" y1="-1.0739" x2="6.1764" y2="-0.6232"/>
<line transform="translate(27.6049, 5.2901)" stroke-linejoin="round" stroke-linecap="round" stroke-width="0.1600" stroke="currentColor" x1="-0.1990" y1="0.0201" x2="-0.1990" y2="0.7201"/>
<line transform="translate(27.6049, 5.2901)" stroke-linejoin="round" stroke-linecap="round" stroke-width="0.1600" stroke="currentColor" x1="-0.1990" y1="0.0201" x2="4.4681" y2="-0.4508"/>
<path transform="translate(130.9833, 23.5159)" stroke-width="0.0800" stroke-linejoin="round" stroke-linecap="round" stroke="currentColor" fill="currentColor" d="M0.658239689441274 1.39853818380998C1.67363610774826 1.4376438195831 2.66933695015352 0.562068174001693 2.76038250476668 -0.449994C2.59009430715203 0.471953782641934 1.59439346474678 1.34752942822334 0.658239689441274 1.39853818380998z"/>
<polygon transform="translate(123.5041, 3.7258)" stroke-linejoin="round" stroke-linecap="round" stroke-width="0.0800" fill="currentColor" stroke="currentColor" points="5.1711 -1.4360 5.1711 -1.1320 0.0400 0.1520 0.0400 -0.1520"/>
<polygon transform="translate(123.5041, 4.4122)" stroke-linejoin="round" stroke-linecap="round" stroke-width="0.0800" fill="currentColor" stroke="currentColor" points="5.1711 -1.4360 5.1711 -1.1320 0.0400 0.1520 0.0400 -0.1520"/>
<polygon transform="translate(123.5041, 5.0986)" stroke-linejoin="round" stroke-linecap="round" stroke-width="0.0800" fill="currentColor" stroke="currentColor" points="5.1711 -1.4360 5.1711 -1.1320 0.0400 0.1520 0.0400 -0.1520"/>
<path transform="translate(122.7058, 9.5838)" stroke-width="0.0800" stroke-linejoin="round" stroke-linecap="round" stroke="currentColor" fill="currentColor" d="M0.601490430543791 -0.601461816190024C2.3431280942255 -0.145908308550667 5.55623119123863 -1.77563222121602 6.21755061755586 -3.449994C5.5019489950886 -1.88265298173065 2.28884589807547 -0.252929069065298 0.601490430543791 -0.601461816190024z"/>
<path transform="translate(117.5550, 23.5159)" stroke-width="0.0800" stroke-linejoin="round" stroke-linecap="round" stroke="currentColor" fill="currentColor" d="M0.617226448382993 3.39853818380998C1.86192609383315 3.70611852287342 3.53802507959054 2.77080913284662 3.92984465949176 1.550006C3.47955008911814 2.66602041451658 1.80345110336075 3.60132980454338 0.617226448382993 3.39853818380998z"/>
<polygon transform="translate(107.0638, 5.4418)" stroke-linejoin="round" stroke-linecap="round" stroke-width="0.0800" fill="currentColor" stroke="currentColor" points="5.4011 -1.5100 5.4011 -1.2060 0.0400 0.1520 0.0400 -0.1520"/>
<polygon transform="translate(107.0638, 6.1282)" stroke-linejoin="round" stroke-linecap="round" stroke-width="0.0800" fill="currentColor" stroke="currentColor" points="5.4011 -1.5100 5.4011 -1.2060 0.0400 0.1520 0.0400 -0.1520"/>
<polygon transform="translate(107.0638, 6.8146)" stroke-linejoin="round" stroke-linecap="round" stroke-width="0.0800" fill="currentColor" stroke="currentColor" points="5.4011 -1.5100 5.4011 -1.2060 0.0400 0.1520 0.0400 -0.1520"/>
<text transform="translate(113.0130, 15.8063)" font-family="Lyon Text" font-style="italic" font-size="2.4696" text-anchor="start" fill="currentColor">
<tspan>
cresc.</tspan>
</text>
<path transform="translate(106.2654, 9.5838)" stroke-width="0.0800" stroke-linejoin="round" stroke-linecap="round" stroke="currentColor" fill="currentColor" d="M0.597203386180752 1.39853818380998C2.36655791444228 1.88778977448848 5.74148098794213 0.244540816342867 6.44755061755586 -1.449994C5.68894905655056 0.136650148608019 2.31402598305071 1.77989910675363 0.597203386180752 1.39853818380998z"/>
<path transform="translate(101.4450, 23.5159)" stroke-width="0.0800" stroke-linejoin="round" stroke-linecap="round" stroke="currentColor" fill="currentColor" d="M0.658239689441274 -1.10146181619002C1.67363610774825 -1.06235618041689 2.66933695015354 -1.9379318259983 2.7603825047667 -2.949994C2.59009430715206 -2.02804621735806 1.59439346474676 -1.15247057177665 0.658239689441274 -1.10146181619002z"/>
<polygon transform="translate(93.9658, 7.4418)" stroke-linejoin="round" stroke-linecap="round" stroke-width="0.0800" fill="currentColor" stroke="currentColor" points="5.1711 -1.5100 5.1711 -1.2060 0.0400 0.1520 0.0400 -0.1520"/>
<polygon transform="translate(93.9658, 8.1282)" stroke-linejoin="round" stroke-linecap="round" stroke-width="0.0800" fill="currentColor" stroke="currentColor" points="5.1711 -1.5100 5.1711 -1.2060 0.0400 0.1520 0.0400 -0.1520"/>
<polygon transform="translate(93.9658, 8.8146)" stroke-linejoin="round" stroke-linecap="round" stroke-width="0.0800" fill="currentColor" stroke="currentColor" points="5.1711 -1.5100 5.1711 -1.2060 0.0400 0.1520 0.0400 -0.1520"/>
<path transform="translate(93.1675, 9.5838)" stroke-width="0.0800" stroke-linejoin="round" stroke-linecap="round" stroke="currentColor" fill="currentColor" d="M0.595593271138441 2.89853818380998C2.31637625482147 3.39037521348103 5.52496662346501 1.85025602706193 6.21755061755586 0.200006C5.47303901018785 1.74207320504596 2.26444864154431 3.28219239146507 0.595593271138441 2.89853818380998z"/>
<path transform="translate(88.0111, 23.5159)" stroke-width="0.0800" stroke-linejoin="round" stroke-linecap="round" stroke="currentColor" fill="currentColor" d="M0.648216038288524 0.898538183809976C1.63517128871464 1.38123262603198 2.6290792265877 0.581965784608967 2.7603825047667 -0.799994C2.55387852099505 0.488451861162419 1.55997058312199 1.28771870258543 0.648216038288524 0.898538183809976z"/>
<polygon transform="translate(77.8952, 7.7738)" stroke-linejoin="round" stroke-linecap="round" stroke-width="0.0800" fill="currentColor" stroke="currentColor" points="8.5532 -1.2000 8.5532 -0.8000 0.0400 0.2000 0.0400 -0.2000"/>
<polygon transform="translate(77.8952, 8.5838)" stroke-linejoin="round" stroke-linecap="round" stroke-width="0.0800" fill="currentColor" stroke="currentColor" points="6.7370 -0.9886 6.7370 -0.5886 0.0400 0.2000 0.0400 -0.2000"/>
<polygon transform="translate(77.8952, 9.3938)" stroke-linejoin="round" stroke-linecap="round" stroke-width="0.0800" fill="currentColor" stroke="currentColor" points="6.7370 -0.9886 6.7370 -0.5886 0.0400 0.2000 0.0400 -0.2000"/>
<path transform="translate(76.7091, 9.5838)" stroke-width="0.0800" stroke-linejoin="round" stroke-linecap="round" stroke="currentColor" fill="currentColor" d="M0.798104976657001 5.050006C2.83201328750216 5.84241638804146 8.12104603312665 4.06132394736448 9.261305976657 2.200006C8.08274897027001 3.94759912607839 2.79371622464552 5.72869156675536 0.798104976657001 5.050006z"/>
<line transform="translate(76.7091, 15.5278)" stroke-linejoin="round" stroke-linecap="round" stroke-width="0.1000" stroke="currentColor" x1="0.0000" y1="0.0000" x2="9.7794" y2="0.6666"/>
<line transform="translate(76.7091, 15.5278)" stroke-linejoin="round" stroke-linecap="round" stroke-width="0.1000" stroke="currentColor" x1="0.0000" y1="-0.0000" x2="9.7794" y2="-0.6666"/>
<polygon transform="translate(58.9736, 21.7059)" stroke-linejoin="round" stroke-linecap="round" stroke-width="0.0800" fill="currentColor" stroke="currentColor" points="13.5291 -0.2000 13.5291 0.2000 0.0400 0.2000 0.0400 -0.2000"/>
<polygon transform="translate(58.9736, 22.5159)" stroke-linejoin="round" stroke-linecap="round" stroke-width="0.0800" fill="currentColor" stroke="currentColor" points="13.5291 -0.2000 13.5291 0.2000 0.0400 0.2000 0.0400 -0.2000"/>
<polygon transform="translate(60.6334, 10.7738)" stroke-linejoin="round" stroke-linecap="round" stroke-width="0.0800" fill="currentColor" stroke="currentColor" points="6.5426 -1.2078 6.5426 -0.8078 0.0400 0.2000 0.0400 -0.2000"/>
<polygon transform="translate(60.6334, 11.5838)" stroke-linejoin="round" stroke-linecap="round" stroke-width="0.0800" fill="currentColor" stroke="currentColor" points="6.5426 -1.2078 6.5426 -0.8078 0.0400 0.2000 0.0400 -0.2000"/>
<polygon transform="translate(60.6334, 12.3938)" stroke-linejoin="round" stroke-linecap="round" stroke-width="0.0800" fill="currentColor" stroke="currentColor" points="8.5169 -1.5100 8.5169 -1.1100 0.0400 0.2000 0.0400 -0.2000"/>
<path transform="translate(81.5399, 11.5838) scale(0.0040, -0.0040)" d="M220 138c56 0 109 -29 109 -91c0 -72 -56 -121 -103 -149c-36 -21 -76 -36 -117 -36c-56 0 -109 29 -109 91c0 72 56 121 103 149c36 21 76 36 117 36z" fill="currentColor"/>
<rect transform="translate(82.7911, 9.5838)" x="-0.0650" y="-2.3797" width="0.1300" height="4.1919" ry="0.0400" fill="currentColor"/>
<path transform="translate(80.4995, 11.5838) scale(0.0040, -0.0040)" d="M-8 375c8 4 17 7 26 7s17 -3 25 -7l-3 -183l106 20h3c10 0 18 -7 18 -17l7 -570c-8 -4 -16 -7 -25 -7s-17 3 -25 7l3 183l-106 -20h-3c-10 0 -18 7 -18 17zM131 112l-92 -17l-3 -207l92 17z" fill="currentColor"/>
<path transform="translate(83.3561, 11.0838) scale(0.0040, -0.0040)" d="M220 138c56 0 109 -29 109 -91c0 -72 -56 -121 -103 -149c-36 -21 -76 -36 -117 -36c-56 0 -109 29 -109 91c0 72 56 121 103 149c36 21 76 36 117 36z" fill="currentColor"/>
<rect transform="translate(84.6073, 9.5838)" x="-0.0650" y="-2.5911" width="0.1300" height="3.9033" ry="0.0400" fill="currentColor"/>
<path transform="translate(85.1723, 10.5838) scale(0.0040, -0.0040)" d="M220 138c56 0 109 -29 109 -91c0 -72 -56 -121 -103 -149c-36 -21 -76 -36 -117 -36c-56 0 -109 29 -109 91c0 72 56 121 103 149c36 21 76 36 117 36z" fill="currentColor"/>
<path transform="translate(85.8303, 6.3413) scale(0.0040, -0.0040)" d="M-112 0c-7 0 -13 5 -13 12c0 2 0 4 1 6l113 250c2 4 6 7 11 7s9 -3 11 -7l113 -250c1 -2 1 -4 1 -6c0 -7 -6 -12 -13 -12h-66c-5 0 -10 3 -12 7l-68 150l-67 -150c-2 -4 -6 -7 -11 -7z" fill="currentColor"/>
<path transform="translate(85.1723, 23.5159) scale(0.0040, -0.0040)" d="M72 -250l117 326c-34 -12 -69 -22 -105 -22c-46 0 -87 33 -87 79c0 40 33 72 73 72c25 0 48 -15 56 -39c10 -28 6 -59 35 -59c16 0 54 48 61 63c6 12 23 12 28 0l-123 -420c-8 -7 -17 -10 -27 -10s-20 3 -28 10z" fill="currentColor"/>
<rect transform="translate(86.4234, 9.5838)" x="-0.0650" y="-2.8024" width="0.1300" height="3.6146" ry="0.0400" fill="currentColor"/>
<rect transform="translate(74.1536, 23.5159)" x="-0.0650" y="-0.3122" width="0.1300" height="3.3122" ry="0.0400" fill="currentColor"/>
<path transform="translate(74.2186, 26.4759) scale(0.0040, -0.0040)" d="M0 0h-16v250h16c98 58 227 148 227 259c0 57 -16 112 -41 163c-3 16 10 27 23 27c7 0 15 -3 20 -11c25 -56 40 -117 40 -179c0 -204 -269 -305 -269 -509z" fill="currentColor"/>
<path transform="translate(73.0426, 23.0159) scale(0.0040, -0.0040)" d="M-8 375c8 4 17 7 26 7s17 -3 25 -7l-3 -183l106 20h3c10 0 18 -7 18 -17l7 -570c-8 -4 -16 -7 -25 -7s-17 3 -25 7l3 183l-106 -20h-3c-10 0 -18 7 -18 17zM131 112l-92 -17l-3 -207l92 17z" fill="currentColor"/>
<path transform="translate(76.7091, 13.5838) scale(0.0040, -0.0040)" d="M220 138c56 0 109 -29 109 -91c0 -72 -56 -121 -103 -149c-36 -21 -76 -36 -117 -36c-56 0 -109 29 -109 91c0 72 56 121 103 149c36 21 76 36 117 36z" fill="currentColor"/>
<rect transform="translate(77.9602, 9.5838)" x="-0.0650" y="-1.8176" width="0.1300" height="5.6298" ry="0.0400" fill="currentColor"/>
<path transform="translate(75.6687, 13.5838) scale(0.0040, -0.0040)" d="M-8 375c8 4 17 7 26 7s17 -3 25 -7l-3 -183l106 20h3c10 0 18 -7 18 -17l7 -570c-8 -4 -16 -7 -25 -7s-17 3 -25 7l3 183l-106 -20h-3c-10 0 -18 7 -18 17zM131 112l-92 -17l-3 -207l92 17z" fill="currentColor"/>
<path transform="translate(78.6833, 12.5838) scale(0.0040, -0.0040)" d="M220 138c56 0 109 -29 109 -91c0 -72 -56 -121 -103 -149c-36 -21 -76 -36 -117 -36c-56 0 -109 29 -109 91c0 72 56 121 103 149c36 21 76 36 117 36z" fill="currentColor"/>
<rect transform="translate(79.9345, 9.5838)" x="-0.0650" y="-2.0473" width="0.1300" height="4.8595" ry="0.0400" fill="currentColor"/>
<rect transform="translate(91.1365, 23.5159)" x="-0.0650" y="-1.8122" width="0.1300" height="3.3122" ry="0.0400" fill="currentColor"/>
<path transform="translate(91.2015, 24.9759) scale(0.0040, -0.0040)" d="M0 0h-16v250h16c98 58 227 148 227 259c0 57 -16 112 -41 163c-3 16 10 27 23 27c7 0 15 -3 20 -11c25 -56 40 -117 40 -179c0 -204 -269 -305 -269 -509z" fill="currentColor"/>
<path transform="translate(90.0255, 21.5159) scale(0.0040, -0.0040)" d="M-8 375c8 4 17 7 26 7s17 -3 25 -7l-3 -183l106 20h3c10 0 18 -7 18 -17l7 -570c-8 -4 -16 -7 -25 -7s-17 3 -25 7l3 183l-106 -20h-3c-10 0 -18 7 -18 17zM131 112l-92 -17l-3 -207l92 17z" fill="currentColor"/>
<path transform="translate(93.1675, 11.5838) scale(0.0028, -0.0028)" d="M211 141c61 0 117 -33 117 -100c0 -71 -52 -121 -99 -149c-34 -20 -73 -33 -112 -33c-61 0 -117 33 -117 100c0 71 52 121 99 149c34 20 73 33 112 33z" fill="currentColor"/>
<rect transform="translate(94.0308, 9.5838)" x="-0.0650" y="-2.1589" width="0.1300" height="4.0432" ry="0.0400" fill="currentColor"/>
<path transform="translate(92.3715, 11.5838) scale(0.0025, -0.0025)" d="M-10 375c9 5 20 8 30 8s21 -3 30 -8l-4 -204l96 26c2 0 3 1 5 1c11 0 20 -9 20 -20l10 -553c-9 -5 -20 -8 -30 -8s-21 3 -30 8l4 204l-96 -26c-2 0 -3 -1 -5 -1c-11 0 -20 9 -20 20zM126 108l-81 -22l-4 -194l81 22z" fill="currentColor"/>
<path transform="translate(95.3918, 10.0838) scale(0.0028, -0.0028)" d="M211 141c61 0 117 -33 117 -100c0 -71 -52 -121 -99 -149c-34 -20 -73 -33 -112 -33c-61 0 -117 33 -117 100c0 71 52 121 99 149c34 20 73 33 112 33z" fill="currentColor"/>
<rect transform="translate(96.2552, 9.5838)" x="-0.0650" y="-2.7386" width="0.1300" height="3.1229" ry="0.0400" fill="currentColor"/>
<path transform="translate(94.5958, 10.0838) scale(0.0025, -0.0025)" d="M-10 375c9 5 20 8 30 8s21 -3 30 -8l-4 -204l96 26c2 0 3 1 5 1c11 0 20 -9 20 -20l10 -553c-9 -5 -20 -8 -30 -8s-21 3 -30 8l4 204l-96 -26c-2 0 -3 -1 -5 -1c-11 0 -20 9 -20 20zM126 108l-81 -22l-4 -194l81 22z" fill="currentColor"/>
<path transform="translate(88.0111, 23.5159) scale(0.0028, -0.0028)" d="M211 141c61 0 117 -33 117 -100c0 -71 -52 -121 -99 -149c-34 -20 -73 -33 -112 -33c-61 0 -117 33 -117 100c0 71 52 121 99 149c34 20 73 33 112 33z" fill="currentColor"/>
<rect transform="translate(88.8744, 23.5159)" x="-0.0650" y="-2.7000" width="0.1300" height="2.5843" ry="0.0400" fill="currentColor"/>
<path transform="translate(88.9394, 20.8559) scale(0.0028, -0.0028)" d="M-150 -571c-18 0 -32 14 -32 32c0 9 5 17 12 23l360 290c5 4 12 7 19 7c18 0 32 -14 32 -32c0 -9 -5 -17 -12 -23l-360 -290c-5 -4 -12 -7 -19 -7z" fill="currentColor"/>
<path transform="translate(88.9394, 20.8559) scale(0.0028, -0.0028)" d="M0 0c0 -197 209 -333 209 -530c0 -71 -15 -140 -41 -206c-5 -10 -14 -13 -23 -13c-14 0 -28 10 -28 26v5c27 59 43 123 43 188c0 102 -91 205 -160 280h-21v250h21z" fill="currentColor"/>
<path transform="translate(91.0715, 9.5838) scale(0.0040, -0.0040)" d="M72 -250l117 326c-34 -12 -69 -22 -105 -22c-46 0 -87 33 -87 79c0 40 33 72 73 72c25 0 48 -15 56 -39c10 -28 6 -59 35 -59c16 0 54 48 61 63c6 12 23 12 28 0l-123 -420c-8 -7 -17 -10 -27 -10s-20 3 -28 10z" fill="currentColor"/>
<path transform="translate(91.0715, 21.5159) scale(0.0040, -0.0040)" d="M220 138c56 0 109 -29 109 -91c0 -72 -56 -121 -103 -149c-36 -21 -76 -36 -117 -36c-56 0 -109 29 -109 91c0 72 56 121 103 149c36 21 76 36 117 36z" fill="currentColor"/>
<text transform="translate(91.0715, 5.8785)" font-family="Lyon Text" font-size="2.2001" text-anchor="start" fill="currentColor">
<tspan>
Presto</tspan>
</text>
<path transform="translate(124.1341, 6.5838) scale(0.0025, -0.0025)" d="M-10 375c9 5 20 8 30 8s21 -3 30 -8l-4 -204l96 26c2 0 3 1 5 1c11 0 20 -9 20 -20l10 -553c-9 -5 -20 -8 -30 -8s-21 3 -30 8l4 204l-96 -26c-2 0 -3 -1 -5 -1c-11 0 -20 9 -20 20zM126 108l-81 -22l-4 -194l81 22z" fill="currentColor"/>
<path transform="translate(126.3585, 6.0838) scale(0.0028, -0.0028)" d="M211 141c61 0 117 -33 117 -100c0 -71 -52 -121 -99 -149c-34 -20 -73 -33 -112 -33c-61 0 -117 33 -117 100c0 71 52 121 99 149c34 20 73 33 112 33z" fill="currentColor"/>
<rect transform="translate(127.2219, 9.5838)" x="-0.0650" y="-6.7740" width="0.1300" height="3.1583" ry="0.0400" fill="currentColor"/>
<path transform="translate(127.7869, 5.5838) scale(0.0028, -0.0028)" d="M211 141c61 0 117 -33 117 -100c0 -71 -52 -121 -99 -149c-34 -20 -73 -33 -112 -33c-61 0 -117 33 -117 100c0 71 52 121 99 149c34 20 73 33 112 33z" fill="currentColor"/>
<text transform="translate(127.7869, 1.7568)" font-family="Lyon Text" font-size="2.2001" text-anchor="start" fill="currentColor">
<tspan>
accel.</tspan>
</text>
<rect transform="translate(128.6503, 9.5838)" x="-0.0650" y="-7.1260" width="0.1300" height="3.0103" ry="0.0400" fill="currentColor"/>
<path transform="translate(129.2233, 5.0838) scale(0.0040, -0.0040)" d="M220 138c56 0 109 -29 109 -91c0 -72 -56 -121 -103 -149c-36 -21 -76 -36 -117 -36c-56 0 -109 29 -109 91c0 72 56 121 103 149c36 21 76 36 117 36z" fill="currentColor"/>
<path transform="translate(129.8814, 4.3338) scale(0.0040, -0.0040)" d="M-112 0c-7 0 -13 5 -13 12c0 2 0 4 1 6l113 250c2 4 6 7 11 7s9 -3 11 -7l113 -250c1 -2 1 -4 1 -6c0 -7 -6 -12 -13 -12h-66c-5 0 -10 3 -12 7l-68 150l-67 -150c-2 -4 -6 -7 -11 -7z" fill="currentColor"/>
<path transform="translate(129.2233, 23.5159) scale(0.0040, -0.0040)" d="M72 -250l117 326c-34 -12 -69 -22 -105 -22c-46 0 -87 33 -87 79c0 40 33 72 73 72c25 0 48 -15 56 -39c10 -28 6 -59 35 -59c16 0 54 48 61 63c6 12 23 12 28 0l-123 -420c-8 -7 -17 -10 -27 -10s-20 3 -28 10z" fill="currentColor"/>
<rect transform="translate(129.2883, 9.5838)" x="-0.0650" y="-4.3122" width="0.1300" height="4.3122" ry="0.0400" fill="currentColor"/>
<path transform="translate(129.3533, 9.5438) scale(0.0040, -0.0040)" d="M0 0h-16v250h16c98 58 227 148 227 259c0 57 -16 112 -41 163c-3 16 10 27 23 27c7 0 15 -3 20 -11c25 -56 40 -117 40 -179c0 -204 -269 -305 -269 -509z" fill="currentColor"/>
<path transform="translate(120.6098, 24.0159) scale(0.0040, -0.0040)" d="M220 138c56 0 109 -29 109 -91c0 -72 -56 -121 -103 -149c-36 -21 -76 -36 -117 -36c-56 0 -109 29 -109 91c0 72 56 121 103 149c36 21 76 36 117 36z" fill="currentColor"/>
<rect transform="translate(121.8609, 23.5159)" x="-0.0650" y="-3.0000" width="0.1300" height="3.3122" ry="0.0400" fill="currentColor"/>
<path transform="translate(121.9259, 20.5559) scale(0.0040, -0.0040)" d="M0 0c0 -198 209 -335 209 -533c0 -71 -16 -141 -42 -207c-5 -8 -12 -12 -19 -12c-13 0 -26 11 -23 27c26 61 42 126 42 192c0 104 -95 208 -167 283h-16v250h16z" fill="currentColor"/>
<path transform="translate(119.5694, 24.0159) scale(0.0040, -0.0040)" d="M-8 375c8 4 17 7 26 7s17 -3 25 -7l-3 -183l106 20h3c10 0 18 -7 18 -17l7 -570c-8 -4 -16 -7 -25 -7s-17 3 -25 7l3 183l-106 -20h-3c-10 0 -18 7 -18 17zM131 112l-92 -17l-3 -207l92 17z" fill="currentColor"/>
<path transform="translate(122.7058, 8.0838) scale(0.0028, -0.0028)" d="M211 141c61 0 117 -33 117 -100c0 -71 -52 -121 -99 -149c-34 -20 -73 -33 -112 -33c-61 0 -117 33 -117 100c0 71 52 121 99 149c34 20 73 33 112 33z" fill="currentColor"/>
<rect transform="translate(123.5691, 9.5838)" x="-0.0650" y="-5.8740" width="0.1300" height="4.2583" ry="0.0400" fill="currentColor"/>
<path transform="translate(121.9098, 8.0838) scale(0.0025, -0.0025)" d="M-10 375c9 5 20 8 30 8s21 -3 30 -8l-4 -204l96 26c2 0 3 1 5 1c11 0 20 -9 20 -20l10 -553c-9 -5 -20 -8 -30 -8s-21 3 -30 8l4 204l-96 -26c-2 0 -3 -1 -5 -1c-11 0 -20 9 -20 20zM126 108l-81 -22l-4 -194l81 22z" fill="currentColor"/>
<path transform="translate(124.9302, 6.5838) scale(0.0028, -0.0028)" d="M211 141c61 0 117 -33 117 -100c0 -71 -52 -121 -99 -149c-34 -20 -73 -33 -112 -33c-61 0 -117 33 -117 100c0 71 52 121 99 149c34 20 73 33 112 33z" fill="currentColor"/>
<rect transform="translate(125.7935, 9.5838)" x="-0.0650" y="-6.4221" width="0.1300" height="3.3064" ry="0.0400" fill="currentColor"/>
<path transform="translate(137.4621, 9.0838) scale(0.0028, -0.0028)" d="M211 141c61 0 117 -33 117 -100c0 -71 -52 -121 -99 -149c-34 -20 -73 -33 -112 -33c-61 0 -117 33 -117 100c0 71 52 121 99 149c34 20 73 33 112 33z" fill="currentColor"/>
<rect transform="translate(138.3254, 9.5838)" x="-0.0650" y="-4.5721" width="0.1300" height="3.9564" ry="0.0400" fill="currentColor"/>
<path transform="translate(139.6865, 8.0838) scale(0.0028, -0.0028)" d="M211 141c61 0 117 -33 117 -100c0 -71 -52 -121 -99 -149c-34 -20 -73 -33 -112 -33c-61 0 -117 33 -117 100c0 71 52 121 99 149c34 20 73 33 112 33z" fill="currentColor"/>
<rect transform="translate(140.5498, 9.5838)" x="-0.0650" y="-5.1273" width="0.1300" height="3.5116" ry="0.0400" fill="currentColor"/>
<path transform="translate(138.8904, 8.0838) scale(0.0025, -0.0025)" d="M-10 375c9 5 20 8 30 8s21 -3 30 -8l-4 -204l96 26c2 0 3 1 5 1c11 0 20 -9 20 -20l10 -553c-9 -5 -20 -8 -30 -8s-21 3 -30 8l4 204l-96 -26c-2 0 -3 -1 -5 -1c-11 0 -20 9 -20 20zM126 108l-81 -22l-4 -194l81 22z" fill="currentColor"/>
<path transform="translate(141.1148, 7.5838) scale(0.0028, -0.0028)" d="M211 141c61 0 117 -33 117 -100c0 -71 -52 -121 -99 -149c-34 -20 -73 -33 -112 -33c-61 0 -117 33 -117 100c0 71 52 121 99 149c34 20 73 33 112 33z" fill="currentColor"/>
<rect transform="translate(141.9782, 9.5838)" x="-0.0650" y="-5.4838" width="0.1300" height="3.3681" ry="0.0400" fill="currentColor"/>
<path transform="translate(142.5513, 7.0838) scale(0.0040, -0.0040)" d="M220 138c56 0 109 -29 109 -91c0 -72 -56 -121 -103 -149c-36 -21 -76 -36 -117 -36c-56 0 -109 29 -109 91c0 72 56 121 103 149c36 21 76 36 117 36z" fill="currentColor"/>
<path transform="translate(143.2093, 6.3338) scale(0.0040, -0.0040)" d="M-112 0c-7 0 -13 5 -13 12c0 2 0 4 1 6l113 250c2 4 6 7 11 7s9 -3 11 -7l113 -250c1 -2 1 -4 1 -6c0 -7 -6 -12 -13 -12h-66c-5 0 -10 3 -12 7l-68 150l-67 -150c-2 -4 -6 -7 -11 -7z" fill="currentColor"/>
<path transform="translate(142.5513, 23.5159) scale(0.0040, -0.0040)" d="M72 -250l117 326c-34 -12 -69 -22 -105 -22c-46 0 -87 33 -87 79c0 40 33 72 73 72c25 0 48 -15 56 -39c10 -28 6 -59 35 -59c16 0 54 48 61 63c6 12 23 12 28 0l-123 -420c-8 -7 -17 -10 -27 -10s-20 3 -28 10z" fill="currentColor"/>
<rect transform="translate(142.6163, 9.5838)" x="-0.0650" y="-2.3122" width="0.1300" height="3.3122" ry="0.0400" fill="currentColor"/>
<path transform="translate(130.9833, 24.0159) scale(0.0028, -0.0028)" d="M211 141c61 0 117 -33 117 -100c0 -71 -52 -121 -99 -149c-34 -20 -73 -33 -112 -33c-61 0 -117 33 -117 100c0 71 52 121 99 149c34 20 73 33 112 33z" fill="currentColor"/>
<rect transform="translate(131.8467, 23.5159)" x="-0.0650" y="-2.3000" width="0.1300" height="2.6843" ry="0.0400" fill="currentColor"/>
<path transform="translate(131.9117, 21.2559) scale(0.0028, -0.0028)" d="M-150 -571c-18 0 -32 14 -32 32c0 9 5 17 12 23l360 290c5 4 12 7 19 7c18 0 32 -14 32 -32c0 -9 -5 -17 -12 -23l-360 -290c-5 -4 -12 -7 -19 -7z" fill="currentColor"/>
<path transform="translate(131.9117, 21.2559) scale(0.0028, -0.0028)" d="M0 0c0 -197 209 -333 209 -530c0 -71 -15 -140 -41 -206c-5 -10 -14 -13 -23 -13c-14 0 -28 10 -28 26v5c27 59 43 123 43 188c0 102 -91 205 -160 280h-21v250h21z" fill="currentColor"/>
<path transform="translate(134.0437, 9.5838) scale(0.0040, -0.0040)" d="M72 -250l117 326c-34 -12 -69 -22 -105 -22c-46 0 -87 33 -87 79c0 40 33 72 73 72c25 0 48 -15 56 -39c10 -28 6 -59 35 -59c16 0 54 48 61 63c6 12 23 12 28 0l-123 -420c-8 -7 -17 -10 -27 -10s-20 3 -28 10z" fill="currentColor"/>
<path transform="translate(134.0437, 22.0159) scale(0.0040, -0.0040)" d="M220 138c56 0 109 -29 109 -91c0 -72 -56 -121 -103 -149c-36 -21 -76 -36 -117 -36c-56 0 -109 29 -109 91c0 72 56 121 103 149c36 21 76 36 117 36z" fill="currentColor"/>
<rect transform="translate(134.1087, 23.5159)" x="-0.0650" y="-1.3122" width="0.1300" height="3.3122" ry="0.0400" fill="currentColor"/>
<path transform="translate(134.1737, 25.4759) scale(0.0040, -0.0040)" d="M0 0h-16v250h16c98 58 227 148 227 259c0 57 -16 112 -41 163c-3 16 10 27 23 27c7 0 15 -3 20 -11c25 -56 40 -117 40 -179c0 -204 -269 -305 -269 -509z" fill="currentColor"/>
<path transform="translate(132.9977, 22.0159) scale(0.0040, -0.0040)" d="M-8 375c8 4 17 7 26 7s17 -3 25 -7l-3 -183l106 20h3c10 0 18 -7 18 -17l7 -570c-8 -4 -16 -7 -25 -7s-17 3 -25 7l3 183l-106 -20h-3c-10 0 -18 7 -18 17zM131 112l-92 -17l-3 -207l92 17z" fill="currentColor"/>
<path transform="translate(135.8037, 10.0838) scale(0.0028, -0.0028)" d="M211 141c61 0 117 -33 117 -100c0 -71 -52 -121 -99 -149c-34 -20 -73 -33 -112 -33c-61 0 -117 33 -117 100c0 71 52 121 99 149c34 20 73 33 112 33z" fill="currentColor"/>
<rect transform="translate(136.6671, 9.5838)" x="-0.0650" y="-4.1582" width="0.1300" height="4.5425" ry="0.0400" fill="currentColor"/>
<rect transform="translate(28.8561, 23.5159)" x="-0.0650" y="-1.8100" width="0.1300" height="5.1222" ry="0.0400" fill="currentColor"/>
<rect transform="translate(104.5704, 23.5159)" x="-0.0650" y="-3.8122" width="0.1300" height="3.8122" ry="0.0400" fill="currentColor"/>
<path transform="translate(104.6354, 23.4759) scale(0.0040, -0.0040)" d="M0 0h-16v250h16c98 58 227 148 227 259c0 57 -16 112 -41 163c-3 16 10 27 23 27c7 0 15 -3 20 -11c25 -56 40 -117 40 -179c0 -204 -269 -305 -269 -509z" fill="currentColor"/>
<path transform="translate(103.4594, 19.5159) scale(0.0040, -0.0040)" d="M-8 375c8 4 17 7 26 7s17 -3 25 -7l-3 -183l106 20h3c10 0 18 -7 18 -17l7 -570c-8 -4 -16 -7 -25 -7s-17 3 -25 7l3 183l-106 -20h-3c-10 0 -18 7 -18 17zM131 112l-92 -17l-3 -207l92 17z" fill="currentColor"/>
<path transform="translate(106.2654, 10.0838) scale(0.0028, -0.0028)" d="M211 141c61 0 117 -33 117 -100c0 -71 -52 -121 -99 -149c-34 -20 -73 -33 -112 -33c-61 0 -117 33 -117 100c0 71 52 121 99 149c34 20 73 33 112 33z" fill="currentColor"/>
<rect transform="translate(107.1288, 9.5838)" x="-0.0650" y="-4.1582" width="0.1300" height="4.5425" ry="0.0400" fill="currentColor"/>
<path transform="translate(11.5902, 16.5498) scale(0.0040, -0.0040)" d="M-12 -672c0 -364 -136 -720 -136 -1064c0 -184 36 -352 160 -496c4 -4 8 -8 8 -12c0 -8 -12 -16 -20 -16c-4 0 -8 0 -12 4c-160 188 -220 428 -220 676c0 368 144 728 144 1080c0 180 -44 352 -164 492v8v8c120 140 164 312 164 492c0 352 -144 712 -144 1080
c0 248 60 488 220 676c4 4 8 4 12 4c8 0 20 -8 20 -16c0 -4 -4 -8 -8 -12c-124 -144 -160 -312 -160 -496c0 -344 136 -700 136 -1064c0 -248 -56 -484 -212 -672c156 -188 212 -424 212 -672z" fill="currentColor"/>
<rect transform="translate(11.8902, 16.5498)" x="0.0000" y="-9.0161" width="0.1600" height="18.0321" ry="0.0500" fill="currentColor"/>
<path transform="translate(175.2097, 8.5838) scale(0.0040, -0.0040)" d="M365 -156h-355c-6 0 -10 4 -10 10v136c0 6 4 10 10 10h355c6 0 10 -4 10 -10v-136c0 -6 -4 -10 -10 -10z" fill="currentColor"/>
<path transform="translate(175.9597, 7.2578) scale(0.0040, -0.0040)" d="M-67 48c0 37 30 67 67 67s67 -30 67 -67s-30 -67 -67 -67s-67 30 -67 67zM0 363c157 0 332 -176 332 -366c0 -9 -10 -15 -19 -15s-17 5 -19 18c-26 148 -146 262 -294 262s-268 -114 -294 -262c-2 -13 -10 -18 -19 -18s-19 6 -19 15c0 190 175 366 332 366z" fill="currentColor"/>
<path transform="translate(175.2097, 22.5159) scale(0.0040, -0.0040)" d="M365 -156h-355c-6 0 -10 4 -10 10v136c0 6 4 10 10 10h355c6 0 10 -4 10 -10v-136c0 -6 -4 -10 -10 -10z" fill="currentColor"/>
<path transform="translate(175.9597, 21.1899) scale(0.0040, -0.0040)" d="M-67 48c0 37 30 67 67 67s67 -30 67 -67s-30 -67 -67 -67s-67 30 -67 67zM0 363c157 0 332 -176 332 -366c0 -9 -10 -15 -19 -15s-17 5 -19 18c-26 148 -146 262 -294 262s-268 -114 -294 -262c-2 -13 -10 -18 -19 -18s-19 6 -19 15c0 190 175 366 332 366z" fill="currentColor"/>
<path transform="translate(27.6049, 9.5838) scale(0.0040, -0.0040)" d="M54 -500l86 327c-35 -13 -71 -23 -108 -23c-46 0 -87 33 -87 79c0 40 32 72 72 72c25 0 49 -15 57 -39c10 -28 5 -59 34 -59c17 0 54 54 59 71l39 149c-34 -12 -70 -23 -106 -23c-46 0 -87 33 -87 79c0 40 33 72 73 72c25 0 48 -15 56 -39c10 -28 5 -59 34 -59
c16 0 52 51 56 68l40 151c-33 -12 -68 -22 -103 -22c-46 0 -87 33 -87 79c0 40 32 72 72 72c25 0 49 -15 57 -39c10 -28 5 -59 34 -59c15 0 46 49 52 63c6 12 23 12 28 0l-216 -920c-8 -7 -18 -10 -28 -10s-19 3 -27 10z" fill="currentColor"/>
<path transform="translate(12.7502, 8.5838) scale(0.0040, -0.0040)" d="M557 -125c0 28 23 51 51 51s51 -23 51 -51s-23 -51 -51 -51s-51 23 -51 51zM557 125c0 28 23 51 51 51s51 -23 51 -51s-23 -51 -51 -51s-51 23 -51 51zM232 263c172 0 293 -88 293 -251c0 -263 -263 -414 -516 -521c-3 -3 -6 -4 -9 -4c-7 0 -13 6 -13 13c0 3 1 6 4 9
c202 118 412 265 412 493c0 120 -63 235 -171 235c-74 0 -129 -54 -154 -126c11 5 22 8 34 8c55 0 100 -45 100 -100c0 -58 -44 -106 -100 -106c-60 0 -112 47 -112 106c0 133 102 244 232 244z" fill="currentColor"/>
<path transform="translate(16.2502, 8.5838) scale(0.0040, -0.0040)" d="M216 -312c0 -10 -8 -19 -18 -19s-19 9 -19 19v145l-83 -31v-158c0 -10 -9 -19 -19 -19s-18 9 -18 19v145l-32 -12c-2 -1 -5 -1 -7 -1c-11 0 -20 9 -20 20v60c0 8 5 16 13 19l46 16v160l-32 -11c-2 -1 -5 -1 -7 -1c-11 0 -20 9 -20 20v60c0 8 5 15 13 18l46 17v158
c0 10 8 19 18 19s19 -9 19 -19v-145l83 31v158c0 10 9 19 19 19s18 -9 18 -19v-145l32 12c2 1 5 1 7 1c11 0 20 -9 20 -20v-60c0 -8 -5 -16 -13 -19l-46 -16v-160l32 11c2 1 5 1 7 1c11 0 20 -9 20 -20v-60c0 -8 -5 -15 -13 -18l-46 -17v-158zM96 65v-160l83 30v160z" fill="currentColor"/>
<path transform="translate(17.3502, 10.0838) scale(0.0040, -0.0040)" d="M216 -312c0 -10 -8 -19 -18 -19s-19 9 -19 19v145l-83 -31v-158c0 -10 -9 -19 -19 -19s-18 9 -18 19v145l-32 -12c-2 -1 -5 -1 -7 -1c-11 0 -20 9 -20 20v60c0 8 5 16 13 19l46 16v160l-32 -11c-2 -1 -5 -1 -7 -1c-11 0 -20 9 -20 20v60c0 8 5 15 13 18l46 17v158
c0 10 8 19 18 19s19 -9 19 -19v-145l83 31v158c0 10 9 19 19 19s18 -9 18 -19v-145l32 12c2 1 5 1 7 1c11 0 20 -9 20 -20v-60c0 -8 -5 -16 -13 -19l-46 -16v-160l32 11c2 1 5 1 7 1c11 0 20 -9 20 -20v-60c0 -8 -5 -15 -13 -18l-46 -17v-158zM96 65v-160l83 30v160z" fill="currentColor"/>
<path transform="translate(18.4502, 8.0838) scale(0.0040, -0.0040)" d="M216 -312c0 -10 -8 -19 -18 -19s-19 9 -19 19v145l-83 -31v-158c0 -10 -9 -19 -19 -19s-18 9 -18 19v145l-32 -12c-2 -1 -5 -1 -7 -1c-11 0 -20 9 -20 20v60c0 8 5 16 13 19l46 16v160l-32 -11c-2 -1 -5 -1 -7 -1c-11 0 -20 9 -20 20v60c0 8 5 15 13 18l46 17v158
c0 10 8 19 18 19s19 -9 19 -19v-145l83 31v158c0 10 9 19 19 19s18 -9 18 -19v-145l32 12c2 1 5 1 7 1c11 0 20 -9 20 -20v-60c0 -8 -5 -16 -13 -19l-46 -16v-160l32 11c2 1 5 1 7 1c11 0 20 -9 20 -20v-60c0 -8 -5 -15 -13 -18l-46 -17v-158zM96 65v-160l83 30v160z" fill="currentColor"/>
<path transform="translate(19.5502, 9.5838) scale(0.0040, -0.0040)" d="M216 -312c0 -10 -8 -19 -18 -19s-19 9 -19 19v145l-83 -31v-158c0 -10 -9 -19 -19 -19s-18 9 -18 19v145l-32 -12c-2 -1 -5 -1 -7 -1c-11 0 -20 9 -20 20v60c0 8 5 16 13 19l46 16v160l-32 -11c-2 -1 -5 -1 -7 -1c-11 0 -20 9 -20 20v60c0 8 5 15 13 18l46 17v158
c0 10 8 19 18 19s19 -9 19 -19v-145l83 31v158c0 10 9 19 19 19s18 -9 18 -19v-145l32 12c2 1 5 1 7 1c11 0 20 -9 20 -20v-60c0 -8 -5 -16 -13 -19l-46 -16v-160l32 11c2 1 5 1 7 1c11 0 20 -9 20 -20v-60c0 -8 -5 -15 -13 -18l-46 -17v-158zM96 65v-160l83 30v160z" fill="currentColor"/>
<path transform="translate(20.6502, 11.0838) scale(0.0040, -0.0040)" d="M216 -312c0 -10 -8 -19 -18 -19s-19 9 -19 19v145l-83 -31v-158c0 -10 -9 -19 -19 -19s-18 9 -18 19v145l-32 -12c-2 -1 -5 -1 -7 -1c-11 0 -20 9 -20 20v60c0 8 5 16 13 19l46 16v160l-32 -11c-2 -1 -5 -1 -7 -1c-11 0 -20 9 -20 20v60c0 8 5 15 13 18l46 17v158
c0 10 8 19 18 19s19 -9 19 -19v-145l83 31v158c0 10 9 19 19 19s18 -9 18 -19v-145l32 12c2 1 5 1 7 1c11 0 20 -9 20 -20v-60c0 -8 -5 -16 -13 -19l-46 -16v-160l32 11c2 1 5 1 7 1c11 0 20 -9 20 -20v-60c0 -8 -5 -15 -13 -18l-46 -17v-158zM96 65v-160l83 30v160z" fill="currentColor"/>
<path transform="translate(21.7502, 9.0838) scale(0.0040, -0.0040)" d="M216 -312c0 -10 -8 -19 -18 -19s-19 9 -19 19v145l-83 -31v-158c0 -10 -9 -19 -19 -19s-18 9 -18 19v145l-32 -12c-2 -1 -5 -1 -7 -1c-11 0 -20 9 -20 20v60c0 8 5 16 13 19l46 16v160l-32 -11c-2 -1 -5 -1 -7 -1c-11 0 -20 9 -20 20v60c0 8 5 15 13 18l46 17v158
c0 10 8 19 18 19s19 -9 19 -19v-145l83 31v158c0 10 9 19 19 19s18 -9 18 -19v-145l32 12c2 1 5 1 7 1c11 0 20 -9 20 -20v-60c0 -8 -5 -16 -13 -19l-46 -16v-160l32 11c2 1 5 1 7 1c11 0 20 -9 20 -20v-60c0 -8 -5 -15 -13 -18l-46 -17v-158zM96 65v-160l83 30v160z" fill="currentColor"/>
<path transform="translate(24.0002, 11.5982) scale(0.0040, -0.0040)" d="M204 307c22 14 44 29 60 50c11 15 19 33 27 50c2 4 5 6 9 6c6 0 13 -5 13 -14v-245h72c10 0 15 -7 15 -14s-5 -15 -15 -15h-72v-8c0 -48 27 -94 72 -94c8 0 12 -5 12 -11s-4 -12 -12 -12c-44 0 -87 13 -131 13s-87 -13 -131 -13c-8 0 -12 6 -12 12s4 11 12 11
c45 0 73 46 73 94v8h-167c-23 0 -31 14 -31 23c0 3 1 5 2 6c80 93 138 207 138 330c0 9 6 16 13 16h3c23 -7 47 -13 71 -13s48 6 71 13c2 1 3 1 5 1c11 0 18 -10 12 -17l-284 -330h167v131c0 8 1 17 8 22z" fill="currentColor"/>
<path transform="translate(24.0685, 9.5838) scale(0.0040, -0.0040)" d="M23 11c-1 -7 -6 -11 -11 -11c-6 0 -12 4 -12 11c0 175 235 165 235 344c0 60 -18 122 -70 122c-26 0 -51 -14 -51 -37c0 -27 35 -41 35 -68c0 -38 -30 -69 -68 -69s-69 31 -69 69c0 76 72 128 153 128c96 0 187 -56 187 -145c0 -153 -151 -159 -249 -220c9 2 17 3 26 3
c33 0 70 -11 105 -36c21 -15 46 -23 66 -23c21 0 39 9 44 29c2 6 6 9 11 9c6 0 12 -5 12 -12c0 -67 -90 -105 -138 -105c-36 0 -71 14 -96 44c-13 16 -31 22 -48 22c-30 0 -59 -20 -62 -55z" fill="currentColor"/>
<path transform="translate(27.6049, 27.0159) scale(0.0040, -0.0040)" d="M220 138c56 0 109 -29 109 -91c0 -72 -56 -121 -103 -149c-36 -21 -76 -36 -117 -36c-56 0 -109 29 -109 91c0 72 56 121 103 149c36 21 76 36 117 36z" fill="currentColor"/>
<path transform="translate(12.7502, 22.5159) scale(0.0040, -0.0040)" d="M557 -125c0 28 23 51 51 51s51 -23 51 -51s-23 -51 -51 -51s-51 23 -51 51zM557 125c0 28 23 51 51 51s51 -23 51 -51s-23 -51 -51 -51s-51 23 -51 51zM232 263c172 0 293 -88 293 -251c0 -263 -263 -414 -516 -521c-3 -3 -6 -4 -9 -4c-7 0 -13 6 -13 13c0 3 1 6 4 9
c202 118 412 265 412 493c0 120 -63 235 -171 235c-74 0 -129 -54 -154 -126c11 5 22 8 34 8c55 0 100 -45 100 -100c0 -58 -44 -106 -100 -106c-60 0 -112 47 -112 106c0 133 102 244 232 244z" fill="currentColor"/>
<path transform="translate(16.2502, 22.5159) scale(0.0040, -0.0040)" d="M216 -312c0 -10 -8 -19 -18 -19s-19 9 -19 19v145l-83 -31v-158c0 -10 -9 -19 -19 -19s-18 9 -18 19v145l-32 -12c-2 -1 -5 -1 -7 -1c-11 0 -20 9 -20 20v60c0 8 5 16 13 19l46 16v160l-32 -11c-2 -1 -5 -1 -7 -1c-11 0 -20 9 -20 20v60c0 8 5 15 13 18l46 17v158
c0 10 8 19 18 19s19 -9 19 -19v-145l83 31v158c0 10 9 19 19 19s18 -9 18 -19v-145l32 12c2 1 5 1 7 1c11 0 20 -9 20 -20v-60c0 -8 -5 -16 -13 -19l-46 -16v-160l32 11c2 1 5 1 7 1c11 0 20 -9 20 -20v-60c0 -8 -5 -15 -13 -18l-46 -17v-158zM96 65v-160l83 30v160z" fill="currentColor"/>
<path transform="translate(17.3502, 24.0159) scale(0.0040, -0.0040)" d="M216 -312c0 -10 -8 -19 -18 -19s-19 9 -19 19v145l-83 -31v-158c0 -10 -9 -19 -19 -19s-18 9 -18 19v145l-32 -12c-2 -1 -5 -1 -7 -1c-11 0 -20 9 -20 20v60c0 8 5 16 13 19l46 16v160l-32 -11c-2 -1 -5 -1 -7 -1c-11 0 -20 9 -20 20v60c0 8 5 15 13 18l46 17v158
c0 10 8 19 18 19s19 -9 19 -19v-145l83 31v158c0 10 9 19 19 19s18 -9 18 -19v-145l32 12c2 1 5 1 7 1c11 0 20 -9 20 -20v-60c0 -8 -5 -16 -13 -19l-46 -16v-160l32 11c2 1 5 1 7 1c11 0 20 -9 20 -20v-60c0 -8 -5 -15 -13 -18l-46 -17v-158zM96 65v-160l83 30v160z" fill="currentColor"/>
<path transform="translate(18.4502, 22.0159) scale(0.0040, -0.0040)" d="M216 -312c0 -10 -8 -19 -18 -19s-19 9 -19 19v145l-83 -31v-158c0 -10 -9 -19 -19 -19s-18 9 -18 19v145l-32 -12c-2 -1 -5 -1 -7 -1c-11 0 -20 9 -20 20v60c0 8 5 16 13 19l46 16v160l-32 -11c-2 -1 -5 -1 -7 -1c-11 0 -20 9 -20 20v60c0 8 5 15 13 18l46 17v158
c0 10 8 19 18 19s19 -9 19 -19v-145l83 31v158c0 10 9 19 19 19s18 -9 18 -19v-145l32 12c2 1 5 1 7 1c11 0 20 -9 20 -20v-60c0 -8 -5 -16 -13 -19l-46 -16v-160l32 11c2 1 5 1 7 1c11 0 20 -9 20 -20v-60c0 -8 -5 -15 -13 -18l-46 -17v-158zM96 65v-160l83 30v160z" fill="currentColor"/>
<path transform="translate(19.5502, 23.5159) scale(0.0040, -0.0040)" d="M216 -312c0 -10 -8 -19 -18 -19s-19 9 -19 19v145l-83 -31v-158c0 -10 -9 -19 -19 -19s-18 9 -18 19v145l-32 -12c-2 -1 -5 -1 -7 -1c-11 0 -20 9 -20 20v60c0 8 5 16 13 19l46 16v160l-32 -11c-2 -1 -5 -1 -7 -1c-11 0 -20 9 -20 20v60c0 8 5 15 13 18l46 17v158
c0 10 8 19 18 19s19 -9 19 -19v-145l83 31v158c0 10 9 19 19 19s18 -9 18 -19v-145l32 12c2 1 5 1 7 1c11 0 20 -9 20 -20v-60c0 -8 -5 -16 -13 -19l-46 -16v-160l32 11c2 1 5 1 7 1c11 0 20 -9 20 -20v-60c0 -8 -5 -15 -13 -18l-46 -17v-158zM96 65v-160l83 30v160z" fill="currentColor"/>
<path transform="translate(20.6502, 25.0159) scale(0.0040, -0.0040)" d="M216 -312c0 -10 -8 -19 -18 -19s-19 9 -19 19v145l-83 -31v-158c0 -10 -9 -19 -19 -19s-18 9 -18 19v145l-32 -12c-2 -1 -5 -1 -7 -1c-11 0 -20 9 -20 20v60c0 8 5 16 13 19l46 16v160l-32 -11c-2 -1 -5 -1 -7 -1c-11 0 -20 9 -20 20v60c0 8 5 15 13 18l46 17v158
c0 10 8 19 18 19s19 -9 19 -19v-145l83 31v158c0 10 9 19 19 19s18 -9 18 -19v-145l32 12c2 1 5 1 7 1c11 0 20 -9 20 -20v-60c0 -8 -5 -16 -13 -19l-46 -16v-160l32 11c2 1 5 1 7 1c11 0 20 -9 20 -20v-60c0 -8 -5 -15 -13 -18l-46 -17v-158zM96 65v-160l83 30v160z" fill="currentColor"/>
<path transform="translate(21.7502, 23.0159) scale(0.0040, -0.0040)" d="M216 -312c0 -10 -8 -19 -18 -19s-19 9 -19 19v145l-83 -31v-158c0 -10 -9 -19 -19 -19s-18 9 -18 19v145l-32 -12c-2 -1 -5 -1 -7 -1c-11 0 -20 9 -20 20v60c0 8 5 16 13 19l46 16v160l-32 -11c-2 -1 -5 -1 -7 -1c-11 0 -20 9 -20 20v60c0 8 5 15 13 18l46 17v158
c0 10 8 19 18 19s19 -9 19 -19v-145l83 31v158c0 10 9 19 19 19s18 -9 18 -19v-145l32 12c2 1 5 1 7 1c11 0 20 -9 20 -20v-60c0 -8 -5 -16 -13 -19l-46 -16v-160l32 11c2 1 5 1 7 1c11 0 20 -9 20 -20v-60c0 -8 -5 -15 -13 -18l-46 -17v-158zM96 65v-160l83 30v160z" fill="currentColor"/>
<path transform="translate(24.0002, 25.5303) scale(0.0040, -0.0040)" d="M204 307c22 14 44 29 60 50c11 15 19 33 27 50c2 4 5 6 9 6c6 0 13 -5 13 -14v-245h72c10 0 15 -7 15 -14s-5 -15 -15 -15h-72v-8c0 -48 27 -94 72 -94c8 0 12 -5 12 -11s-4 -12 -12 -12c-44 0 -87 13 -131 13s-87 -13 -131 -13c-8 0 -12 6 -12 12s4 11 12 11
c45 0 73 46 73 94v8h-167c-23 0 -31 14 -31 23c0 3 1 5 2 6c80 93 138 207 138 330c0 9 6 16 13 16h3c23 -7 47 -13 71 -13s48 6 71 13c2 1 3 1 5 1c11 0 18 -10 12 -17l-284 -330h167v131c0 8 1 17 8 22z" fill="currentColor"/>
<path transform="translate(24.0685, 23.5159) scale(0.0040, -0.0040)" d="M23 11c-1 -7 -6 -11 -11 -11c-6 0 -12 4 -12 11c0 175 235 165 235 344c0 60 -18 122 -70 122c-26 0 -51 -14 -51 -37c0 -27 35 -41 35 -68c0 -38 -30 -69 -68 -69s-69 31 -69 69c0 76 72 128 153 128c96 0 187 -56 187 -145c0 -153 -151 -159 -249 -220c9 2 17 3 26 3
c33 0 70 -11 105 -36c21 -15 46 -23 66 -23c21 0 39 9 44 29c2 6 6 9 11 9c6 0 12 -5 12 -12c0 -67 -90 -105 -138 -105c-36 0 -71 14 -96 44c-13 16 -31 22 -48 22c-30 0 -59 -20 -62 -55z" fill="currentColor"/>
<path transform="translate(29.0609, 30.5179) scale(0.0040, -0.0040)" d="M0 35c0 19 16 35 35 35s35 -16 35 -35s-16 -35 -35 -35s-35 16 -35 35z" fill="currentColor"/>
<path transform="translate(25.8689, 30.5179) scale(0.0040, -0.0040)" d="M43 339c0 -19 13 -48 39 -48c22 0 43 28 43 59c0 8 18 8 18 0c0 -63 -41 -125 -83 -125c-41 0 -61 44 -61 78c0 82 90 197 251 197c108 0 166 -82 166 -144c0 -30 -17 -67 -52 -67s-68 49 -87 90c-3 7 13 14 16 7c8 -18 28 -32 46 -32c21 0 32 18 32 36
c0 39 -44 92 -121 92h-7c-10 -20 -39 -91 -39 -108c0 -46 100 -114 100 -164c0 -24 -28 -52 -58 -90c29 -3 83 -28 102 -44c13 -11 48 24 57 31c-4 19 -6 29 -6 48c0 60 32 132 96 132c25 0 49 -17 49 -45c0 -37 -43 -80 -79 -110l-11 -9c13 -24 33 -57 47 -69
c4 -4 13 -3 18 0c9 5 47 33 63 47c-4 14 -6 28 -6 42c0 55 45 112 97 137c-51 71 -129 126 -208 140c-8 1 -5 19 3 18c142 -25 305 -134 329 -272c1 -8 3 -16 3 -24c0 -70 -50 -142 -113 -142c-43 0 -81 37 -99 82c-24 -22 -73 -64 -85 -72c-8 -6 -19 -9 -30 -9
c-39 0 -51 46 -62 85c-27 -20 -90 -73 -106 -82c-6 -3 -12 -4 -17 0c-19 16 -28 89 -57 98c-25 -30 -47 -57 -56 -66c-12 -12 -47 -36 -64 -36c-7 0 -14 5 -14 12c0 13 21 38 30 47c18 19 67 57 95 61c18 21 30 29 30 49c0 47 -88 111 -88 150c0 24 43 134 60 162
c-113 -10 -181 -88 -181 -142zM475 254c-30 0 -43 -27 -43 -55c0 -20 6 -42 14 -60c26 22 63 54 63 83c0 19 -16 32 -34 32zM683 265c-37 -21 -55 -77 -55 -122c0 -48 18 -108 59 -108c32 0 45 39 45 81c0 61 -20 105 -49 149z" fill="currentColor"/>
<path transform="translate(117.5550, 26.0159) scale(0.0028, -0.0028)" d="M211 141c61 0 117 -33 117 -100c0 -71 -52 -121 -99 -149c-34 -20 -73 -33 -112 -33c-61 0 -117 33 -117 100c0 71 52 121 99 149c34 20 73 33 112 33z" fill="currentColor"/>
<path transform="translate(114.3130, 24.5159) scale(0.0040, -0.0040)" d="M518 1c0 -82 -56 -168 -141 -197c2 -27 3 -54 3 -81c0 -16 0 -33 -1 -49c-6 -99 -75 -186 -173 -186c-87 0 -159 72 -159 160c0 46 42 83 90 83c43 0 76 -38 76 -83c0 -42 -34 -76 -76 -76c-4 0 -6 0 -10 1c19 -26 47 -42 81 -42c75 0 124 72 129 149c1 15 1 30 1 45
c0 23 -1 46 -3 69c-22 -4 -44 -6 -67 -6c-151 0 -266 139 -266 302c0 144 101 254 191 367c-16 53 -31 105 -37 160c-5 42 -5 85 -5 128c0 93 42 181 115 239c3 2 6 3 9 3c4 0 8 -1 11 -4c57 -69 107 -202 107 -295c0 -115 -63 -207 -135 -297c17 -59 33 -119 47 -179h1
c2 0 4 1 6 1c126 0 206 -105 206 -212zM373 -155c50 20 81 75 81 125c0 68 -48 136 -127 147c19 -89 35 -178 46 -272zM63 19c0 -104 102 -188 208 -188c21 0 40 1 60 4c-11 98 -28 191 -48 283c-59 -7 -93 -48 -93 -92c0 -34 21 -70 64 -95c5 -5 6 -10 6 -15
c0 -11 -9 -22 -21 -22c-3 0 -6 1 -9 2c-65 35 -95 93 -95 150c0 71 46 141 128 161c-11 48 -24 95 -38 143c-82 -101 -162 -202 -162 -331zM319 860c-76 -44 -123 -124 -123 -211c0 -56 15 -104 29 -151c59 79 107 162 107 261c0 43 -2 61 -13 101z" fill="currentColor"/>
<rect transform="translate(118.4183, 23.5159)" x="-0.0650" y="-0.3000" width="0.1300" height="2.6843" ry="0.0400" fill="currentColor"/>
<path transform="translate(118.4833, 23.2559) scale(0.0028, -0.0028)" d="M-150 -571c-18 0 -32 14 -32 32c0 9 5 17 12 23l360 290c5 4 12 7 19 7c18 0 32 -14 32 -32c0 -9 -5 -17 -12 -23l-360 -290c-5 -4 -12 -7 -19 -7z" fill="currentColor"/>
<path transform="translate(118.4833, 23.2559) scale(0.0028, -0.0028)" d="M0 0c0 -197 209 -333 209 -530c0 -71 -15 -140 -41 -206c-5 -10 -14 -13 -23 -13c-14 0 -28 10 -28 26v5c27 59 43 123 43 188c0 102 -91 205 -160 280h-21v250h21z" fill="currentColor"/>
<path transform="translate(120.6098, 9.5838) scale(0.0040, -0.0040)" d="M72 -250l117 326c-34 -12 -69 -22 -105 -22c-46 0 -87 33 -87 79c0 40 33 72 73 72c25 0 48 -15 56 -39c10 -28 6 -59 35 -59c16 0 54 48 61 63c6 12 23 12 28 0l-123 -420c-8 -7 -17 -10 -27 -10s-20 3 -28 10z" fill="currentColor"/>
<path transform="translate(107.9238, 9.0838) scale(0.0028, -0.0028)" d="M211 141c61 0 117 -33 117 -100c0 -71 -52 -121 -99 -149c-34 -20 -73 -33 -112 -33c-61 0 -117 33 -117 100c0 71 52 121 99 149c34 20 73 33 112 33z" fill="currentColor"/>
<rect transform="translate(108.7871, 9.5838)" x="-0.0650" y="-4.5721" width="0.1300" height="3.9564" ry="0.0400" fill="currentColor"/>
<path transform="translate(110.1482, 8.0838) scale(0.0028, -0.0028)" d="M211 141c61 0 117 -33 117 -100c0 -71 -52 -121 -99 -149c-34 -20 -73 -33 -112 -33c-61 0 -117 33 -117 100c0 71 52 121 99 149c34 20 73 33 112 33z" fill="currentColor"/>
<rect transform="translate(111.0115, 9.5838)" x="-0.0650" y="-5.1273" width="0.1300" height="3.5116" ry="0.0400" fill="currentColor"/>
<path transform="translate(109.3521, 8.0838) scale(0.0025, -0.0025)" d="M-10 375c9 5 20 8 30 8s21 -3 30 -8l-4 -204l96 26c2 0 3 1 5 1c11 0 20 -9 20 -20l10 -553c-9 -5 -20 -8 -30 -8s-21 3 -30 8l4 204l-96 -26c-2 0 -3 -1 -5 -1c-11 0 -20 9 -20 20zM126 108l-81 -22l-4 -194l81 22z" fill="currentColor"/>
<path transform="translate(111.5765, 7.5838) scale(0.0028, -0.0028)" d="M211 141c61 0 117 -33 117 -100c0 -71 -52 -121 -99 -149c-34 -20 -73 -33 -112 -33c-61 0 -117 33 -117 100c0 71 52 121 99 149c34 20 73 33 112 33z" fill="currentColor"/>
<rect transform="translate(112.4399, 9.5838)" x="-0.0650" y="-5.4838" width="0.1300" height="3.3681" ry="0.0400" fill="currentColor"/>
<path transform="translate(113.0130, 7.0838) scale(0.0040, -0.0040)" d="M220 138c56 0 109 -29 109 -91c0 -72 -56 -121 -103 -149c-36 -21 -76 -36 -117 -36c-56 0 -109 29 -109 91c0 72 56 121 103 149c36 21 76 36 117 36z" fill="currentColor"/>
<path transform="translate(113.6710, 6.3338) scale(0.0040, -0.0040)" d="M-112 0c-7 0 -13 5 -13 12c0 2 0 4 1 6l113 250c2 4 6 7 11 7s9 -3 11 -7l113 -250c1 -2 1 -4 1 -6c0 -7 -6 -12 -13 -12h-66c-5 0 -10 3 -12 7l-68 150l-67 -150c-2 -4 -6 -7 -11 -7z" fill="currentColor"/>
<path transform="translate(113.0130, 23.5159) scale(0.0040, -0.0040)" d="M72 -250l117 326c-34 -12 -69 -22 -105 -22c-46 0 -87 33 -87 79c0 40 33 72 73 72c25 0 48 -15 56 -39c10 -28 6 -59 35 -59c16 0 54 48 61 63c6 12 23 12 28 0l-123 -420c-8 -7 -17 -10 -27 -10s-20 3 -28 10z" fill="currentColor"/>
<rect transform="translate(113.0780, 9.5838)" x="-0.0650" y="-2.3122" width="0.1300" height="3.3122" ry="0.0400" fill="currentColor"/>
<path transform="translate(113.1430, 10.5438) scale(0.0040, -0.0040)" d="M0 0h-16v250h16c98 58 227 148 227 259c0 57 -16 112 -41 163c-3 16 10 27 23 27c7 0 15 -3 20 -11c25 -56 40 -117 40 -179c0 -204 -269 -305 -269 -509z" fill="currentColor"/>
<rect transform="translate(161.8691, 23.5159)" x="-0.0650" y="-4.8122" width="0.1300" height="4.8122" ry="0.0400" fill="currentColor"/>
<path transform="translate(161.9341, 23.4759) scale(0.0040, -0.0040)" d="M0 0h-16v250h16c98 58 227 148 227 259c0 57 -16 112 -41 163c-3 16 10 27 23 27c7 0 15 -3 20 -11c25 -56 40 -117 40 -179c0 -204 -269 -305 -269 -509z" fill="currentColor"/>
<path transform="translate(160.7581, 18.5159) scale(0.0040, -0.0040)" d="M-8 375c8 4 17 7 26 7s17 -3 25 -7l-3 -183l106 20h3c10 0 18 -7 18 -17l7 -570c-8 -4 -16 -7 -25 -7s-17 3 -25 7l3 183l-106 -20h-3c-10 0 -18 7 -18 17zM131 112l-92 -17l-3 -207l92 17z" fill="currentColor"/>
<path transform="translate(163.5641, 6.5838) scale(0.0028, -0.0028)" d="M211 141c61 0 117 -33 117 -100c0 -71 -52 -121 -99 -149c-34 -20 -73 -33 -112 -33c-61 0 -117 33 -117 100c0 71 52 121 99 149c34 20 73 33 112 33z" fill="currentColor"/>
<rect transform="translate(164.4274, 9.5838)" x="-0.0650" y="-7.5162" width="0.1300" height="4.4005" ry="0.0400" fill="currentColor"/>
<path transform="translate(165.2224, 5.5838) scale(0.0028, -0.0028)" d="M211 141c61 0 117 -33 117 -100c0 -71 -52 -121 -99 -149c-34 -20 -73 -33 -112 -33c-61 0 -117 33 -117 100c0 71 52 121 99 149c34 20 73 33 112 33z" fill="currentColor"/>
<rect transform="translate(166.0858, 9.5838)" x="-0.0650" y="-7.9301" width="0.1300" height="3.8144" ry="0.0400" fill="currentColor"/>
<path transform="translate(167.4468, 4.5838) scale(0.0028, -0.0028)" d="M211 141c61 0 117 -33 117 -100c0 -71 -52 -121 -99 -149c-34 -20 -73 -33 -112 -33c-61 0 -117 33 -117 100c0 71 52 121 99 149c34 20 73 33 112 33z" fill="currentColor"/>
<rect transform="translate(168.3102, 9.5838)" x="-0.0650" y="-8.4853" width="0.1300" height="3.3696" ry="0.0400" fill="currentColor"/>
<path transform="translate(156.9837, 5.0838) scale(0.0040, -0.0040)" d="M220 138c56 0 109 -29 109 -91c0 -72 -56 -121 -103 -149c-36 -21 -76 -36 -117 -36c-56 0 -109 29 -109 91c0 72 56 121 103 149c36 21 76 36 117 36z" fill="currentColor"/>
<path transform="translate(157.6418, 4.3338) scale(0.0040, -0.0040)" d="M-112 0c-7 0 -13 5 -13 12c0 2 0 4 1 6l113 250c2 4 6 7 11 7s9 -3 11 -7l113 -250c1 -2 1 -4 1 -6c0 -7 -6 -12 -13 -12h-66c-5 0 -10 3 -12 7l-68 150l-67 -150c-2 -4 -6 -7 -11 -7z" fill="currentColor"/>
<path transform="translate(156.9837, 23.5159) scale(0.0040, -0.0040)" d="M72 -250l117 326c-34 -12 -69 -22 -105 -22c-46 0 -87 33 -87 79c0 40 33 72 73 72c25 0 48 -15 56 -39c10 -28 6 -59 35 -59c16 0 54 48 61 63c6 12 23 12 28 0l-123 -420c-8 -7 -17 -10 -27 -10s-20 3 -28 10z" fill="currentColor"/>
<rect transform="translate(157.0487, 9.5838)" x="-0.0650" y="-4.3122" width="0.1300" height="4.3122" ry="0.0400" fill="currentColor"/>
<path transform="translate(157.1137, 9.5438) scale(0.0040, -0.0040)" d="M0 0h-16v250h16c98 58 227 148 227 259c0 57 -16 112 -41 163c-3 16 10 27 23 27c7 0 15 -3 20 -11c25 -56 40 -117 40 -179c0 -204 -269 -305 -269 -509z" fill="currentColor"/>
<path transform="translate(158.7437, 20.5159) scale(0.0028, -0.0028)" d="M211 141c61 0 117 -33 117 -100c0 -71 -52 -121 -99 -149c-34 -20 -73 -33 -112 -33c-61 0 -117 33 -117 100c0 71 52 121 99 149c34 20 73 33 112 33z" fill="currentColor"/>
<rect transform="translate(159.6070, 23.5159)" x="-0.0650" y="-5.4000" width="0.1300" height="2.2843" ry="0.0400" fill="currentColor"/>
<path transform="translate(159.6720, 18.1559) scale(0.0028, -0.0028)" d="M-150 -571c-18 0 -32 14 -32 32c0 9 5 17 12 23l360 290c5 4 12 7 19 7c18 0 32 -14 32 -32c0 -9 -5 -17 -12 -23l-360 -290c-5 -4 -12 -7 -19 -7z" fill="currentColor"/>
<path transform="translate(159.6720, 18.1559) scale(0.0028, -0.0028)" d="M0 0c0 -197 209 -333 209 -530c0 -71 -15 -140 -41 -206c-5 -10 -14 -13 -23 -13c-14 0 -28 10 -28 26v5c27 59 43 123 43 188c0 102 -91 205 -160 280h-21v250h21z" fill="currentColor"/>
<path transform="translate(161.8041, 9.5838) scale(0.0040, -0.0040)" d="M72 -250l117 326c-34 -12 -69 -22 -105 -22c-46 0 -87 33 -87 79c0 40 33 72 73 72c25 0 48 -15 56 -39c10 -28 6 -59 35 -59c16 0 54 48 61 63c6 12 23 12 28 0l-123 -420c-8 -7 -17 -10 -27 -10s-20 3 -28 10z" fill="currentColor"/>
<path transform="translate(161.8041, 18.5159) scale(0.0040, -0.0040)" d="M220 138c56 0 109 -29 109 -91c0 -72 -56 -121 -103 -149c-36 -21 -76 -36 -117 -36c-56 0 -109 29 -109 91c0 72 56 121 103 149c36 21 76 36 117 36z" fill="currentColor"/>
<g transform="translate(161.1988, 15.8450)" >
<path transform="scale(0.0040, -0.0040)" d="M253 245l-50 -163c-30 -99 -121 -255 -218 -255c-45 0 -87 27 -87 69c0 39 17 77 52 77c24 0 44 -20 44 -44c0 -30 -38 -24 -38 -54c0 -10 11 -11 23 -11h6c48 0 61 58 73 108l68 273h-49c-11 0 -19 8 -19 19s8 19 19 19h60c32 96 118 191 213 191c45 0 87 -27 87 -69
c0 -39 -17 -77 -52 -77c-24 0 -44 19 -44 43c0 30 38 25 38 55c0 10 -10 11 -22 11h-7c-62 0 -70 -88 -86 -154h55c11 0 19 -8 19 -19s-8 -19 -19 -19h-66z" fill="currentColor"/>

<path transform="translate(1.2633, 0.0000) scale(0.0040, -0.0040)" d="M253 245l-50 -163c-30 -99 -121 -255 -218 -255c-45 0 -87 27 -87 69c0 39 17 77 52 77c24 0 44 -20 44 -44c0 -30 -38 -24 -38 -54c0 -10 11 -11 23 -11h6c48 0 61 58 73 108l68 273h-49c-11 0 -19 8 -19 19s8 19 19 19h60c32 96 118 191 213 191c45 0 87 -27 87 -69
c0 -39 -17 -77 -52 -77c-24 0 -44 19 -44 43c0 30 38 25 38 55c0 10 -10 11 -22 11h-7c-62 0 -70 -88 -86 -154h55c11 0 19 -8 19 -19s-8 -19 -19 -19h-66z" fill="currentColor"/>
</g>
<path transform="translate(179.9997, 11.5982) scale(0.0040, -0.0040)" d="M259 288c27 29 49 62 49 102c0 55 -57 87 -117 87c-47 0 -75 -36 -75 -71c0 -20 10 -40 30 -52zM289 271c55 -31 83 -79 83 -127c0 -73 -66 -144 -189 -144c-94 0 -183 54 -183 140c0 50 39 85 76 120c-41 28 -61 67 -61 106c0 68 61 134 176 134c81 0 161 -38 161 -110
c0 -47 -30 -85 -63 -119zM106 242c-33 -29 -62 -59 -62 -102c0 -69 66 -117 139 -117c54 0 86 42 86 83c0 24 -10 48 -35 62z" fill="currentColor"/>
<path transform="translate(180.0680, 9.5838) scale(0.0040, -0.0040)" d="M46 500c46 -8 91 -13 137 -13s92 5 138 13h4c12 0 19 -10 13 -16c-68 -68 -166 -93 -263 -93c-9 0 -17 -8 -17 -17v-96c28 28 66 43 105 43c116 0 186 -51 186 -161c0 -94 -87 -160 -186 -160c-82 0 -163 39 -163 113c0 36 30 66 66 66s65 -30 65 -66
c0 -25 -40 -28 -40 -53c0 -30 37 -37 72 -37c57 0 70 71 70 137c0 63 -15 132 -70 132c-42 0 -83 -12 -107 -45c-3 -4 -8 -6 -12 -6c-8 0 -15 6 -15 15v228c0 9 7 16 15 16h2z" fill="currentColor"/>
<path transform="translate(179.9997, 25.5303) scale(0.0040, -0.0040)" d="M259 288c27 29 49 62 49 102c0 55 -57 87 -117 87c-47 0 -75 -36 -75 -71c0 -20 10 -40 30 -52zM289 271c55 -31 83 -79 83 -127c0 -73 -66 -144 -189 -144c-94 0 -183 54 -183 140c0 50 39 85 76 120c-41 28 -61 67 -61 106c0 68 61 134 176 134c81 0 161 -38 161 -110
c0 -47 -30 -85 -63 -119zM106 242c-33 -29 -62 -59 -62 -102c0 -69 66 -117 139 -117c54 0 86 42 86 83c0 24 -10 48 -35 62z" fill="currentColor"/>
<path transform="translate(180.0680, 23.5159) scale(0.0040, -0.0040)" d="M46 500c46 -8 91 -13 137 -13s92 5 138 13h4c12 0 19 -10 13 -16c-68 -68 -166 -93 -263 -93c-9 0 -17 -8 -17 -17v-96c28 28 66 43 105 43c116 0 186 -51 186 -161c0 -94 -87 -160 -186 -160c-82 0 -163 39 -163 113c0 36 30 66 66 66s65 -30 65 -66
c0 -25 -40 -28 -40 -53c0 -30 37 -37 72 -37c57 0 70 71 70 137c0 63 -15 132 -70 132c-42 0 -83 -12 -107 -45c-3 -4 -8 -6 -12 -6c-8 0 -15 6 -15 15v228c0 9 7 16 15 16h2z" fill="currentColor"/>
<path transform="translate(166.6508, 4.5838) scale(0.0025, -0.0025)" d="M-10 375c9 5 20 8 30 8s21 -3 30 -8l-4 -204l96 26c2 0 3 1 5 1c11 0 20 -9 20 -20l10 -553c-9 -5 -20 -8 -30 -8s-21 3 -30 8l4 204l-96 -26c-2 0 -3 -1 -5 -1c-11 0 -20 9 -20 20zM126 108l-81 -22l-4 -194l81 22z" fill="currentColor"/>
<path transform="translate(168.8752, 4.0838) scale(0.0028, -0.0028)" d="M211 141c61 0 117 -33 117 -100c0 -71 -52 -121 -99 -149c-34 -20 -73 -33 -112 -33c-61 0 -117 33 -117 100c0 71 52 121 99 149c34 20 73 33 112 33z" fill="currentColor"/>
<rect transform="translate(169.7385, 9.5838)" x="-0.0650" y="-8.8418" width="0.1300" height="3.2261" ry="0.0400" fill="currentColor"/>
<path transform="translate(170.3116, 3.5838) scale(0.0040, -0.0040)" d="M220 138c56 0 109 -29 109 -91c0 -72 -56 -121 -103 -149c-36 -21 -76 -36 -117 -36c-56 0 -109 29 -109 91c0 72 56 121 103 149c36 21 76 36 117 36z" fill="currentColor"/>
<path transform="translate(170.9697, 2.8338) scale(0.0040, -0.0040)" d="M-112 0c-7 0 -13 5 -13 12c0 2 0 4 1 6l113 250c2 4 6 7 11 7s9 -3 11 -7l113 -250c1 -2 1 -4 1 -6c0 -7 -6 -12 -13 -12h-66c-5 0 -10 3 -12 7l-68 150l-67 -150c-2 -4 -6 -7 -11 -7z" fill="currentColor"/>
<path transform="translate(170.3116, 23.5159) scale(0.0040, -0.0040)" d="M72 -250l117 326c-34 -12 -69 -22 -105 -22c-46 0 -87 33 -87 79c0 40 33 72 73 72c25 0 48 -15 56 -39c10 -28 6 -59 35 -59c16 0 54 48 61 63c6 12 23 12 28 0l-123 -420c-8 -7 -17 -10 -27 -10s-20 3 -28 10z" fill="currentColor"/>
<path transform="translate(171.3116, 28.3219) scale(0.0040, -0.0040)" d="M166 194c0 -16 12 -28 28 -28s29 12 29 28s-13 29 -29 29s-28 -13 -28 -29zM92 347c23 0 42 -19 42 -46v-11c0 -20 11 -45 35 -35c9 4 15 13 15 22c0 27 -38 37 -38 64c0 32 24 48 48 48s49 -16 49 -48c0 -27 -39 -37 -39 -64c0 -18 26 -32 41 -17c8 8 10 19 10 30
c0 4 -1 7 -1 11c0 27 20 46 43 46c26 0 50 -24 50 -50c0 -23 -18 -43 -45 -43c-4 0 -8 1 -12 1c-20 0 -45 -11 -35 -35c4 -9 13 -16 22 -16c27 0 37 39 64 39c32 0 48 -25 48 -49s-16 -48 -48 -48c-27 0 -37 38 -64 38c-18 0 -32 -26 -17 -41c8 -8 19 -9 30 -9h12
c27 0 45 -19 45 -42c0 -26 -24 -50 -50 -50c-23 0 -43 18 -43 45c0 4 1 8 1 12c0 20 -11 45 -35 35c-9 -4 -16 -13 -16 -22c0 -27 39 -37 39 -64c0 -32 -25 -48 -49 -48s-48 16 -48 48c0 27 38 37 38 64c0 18 -26 32 -41 17c-8 -8 -9 -19 -9 -30v-12c0 -27 -19 -45 -42 -45
c-26 0 -50 24 -50 50c0 23 18 42 45 42h12c20 0 45 11 35 35c-4 9 -13 15 -22 15c-27 0 -37 -38 -64 -38c-32 0 -48 24 -48 48s16 49 48 49c27 0 37 -39 64 -39c18 0 32 26 17 41c-8 8 -19 10 -30 10c-4 0 -8 -1 -12 -1c-27 0 -45 20 -45 43c0 26 24 50 50 50z" fill="currentColor"/>
<rect transform="translate(170.3766, 9.5838)" x="-0.0650" y="-5.8122" width="0.1300" height="5.8122" ry="0.0400" fill="currentColor"/>
<path transform="translate(170.4416, 9.5438) scale(0.0040, -0.0040)" d="M0 0h-16v250h16c98 58 227 148 227 259c0 57 -16 112 -41 163c-3 16 10 27 23 27c7 0 15 -3 20 -11c25 -56 40 -117 40 -179c0 -204 -269 -305 -269 -509z" fill="currentColor"/>
<path transform="translate(148.3701, 9.5838) scale(0.0040, -0.0040)" d="M72 -250l117 326c-34 -12 -69 -22 -105 -22c-46 0 -87 33 -87 79c0 40 33 72 73 72c25 0 48 -15 56 -39c10 -28 6 -59 35 -59c16 0 54 48 61 63c6 12 23 12 28 0l-123 -420c-8 -7 -17 -10 -27 -10s-20 3 -28 10z" fill="currentColor"/>
<path transform="translate(148.3701, 20.5159) scale(0.0040, -0.0040)" d="M220 138c56 0 109 -29 109 -91c0 -72 -56 -121 -103 -149c-36 -21 -76 -36 -117 -36c-56 0 -109 29 -109 91c0 72 56 121 103 149c36 21 76 36 117 36z" fill="currentColor"/>
<rect transform="translate(148.4351, 23.5159)" x="-0.0650" y="-2.8122" width="0.1300" height="3.3122" ry="0.0400" fill="currentColor"/>
<path transform="translate(148.5001, 23.9759) scale(0.0040, -0.0040)" d="M0 0h-16v250h16c98 58 227 148 227 259c0 57 -16 112 -41 163c-3 16 10 27 23 27c7 0 15 -3 20 -11c25 -56 40 -117 40 -179c0 -204 -269 -305 -269 -509z" fill="currentColor"/>
<path transform="translate(147.3241, 20.5159) scale(0.0040, -0.0040)" d="M-8 375c8 4 17 7 26 7s17 -3 25 -7l-3 -183l106 20h3c10 0 18 -7 18 -17l7 -570c-8 -4 -16 -7 -25 -7s-17 3 -25 7l3 183l-106 -20h-3c-10 0 -18 7 -18 17zM131 112l-92 -17l-3 -207l92 17z" fill="currentColor"/>
<path transform="translate(150.4661, 8.0838) scale(0.0028, -0.0028)" d="M211 141c61 0 117 -33 117 -100c0 -71 -52 -121 -99 -149c-34 -20 -73 -33 -112 -33c-61 0 -117 33 -117 100c0 71 52 121 99 149c34 20 73 33 112 33z" fill="currentColor"/>
<rect transform="translate(151.3295, 9.5838)" x="-0.0650" y="-5.8740" width="0.1300" height="4.2583" ry="0.0400" fill="currentColor"/>
<path transform="translate(149.6701, 8.0838) scale(0.0025, -0.0025)" d="M-10 375c9 5 20 8 30 8s21 -3 30 -8l-4 -204l96 26c2 0 3 1 5 1c11 0 20 -9 20 -20l10 -553c-9 -5 -20 -8 -30 -8s-21 3 -30 8l4 204l-96 -26c-2 0 -3 -1 -5 -1c-11 0 -20 9 -20 20zM126 108l-81 -22l-4 -194l81 22z" fill="currentColor"/>
<path transform="translate(142.6813, 10.5438) scale(0.0040, -0.0040)" d="M0 0h-16v250h16c98 58 227 148 227 259c0 57 -16 112 -41 163c-3 16 10 27 23 27c7 0 15 -3 20 -11c25 -56 40 -117 40 -179c0 -204 -269 -305 -269 -509z" fill="currentColor"/>
<path transform="translate(145.3097, 22.5159) scale(0.0028, -0.0028)" d="M211 141c61 0 117 -33 117 -100c0 -71 -52 -121 -99 -149c-34 -20 -73 -33 -112 -33c-61 0 -117 33 -117 100c0 71 52 121 99 149c34 20 73 33 112 33z" fill="currentColor"/>
<rect transform="translate(146.1731, 23.5159)" x="-0.0650" y="-3.5000" width="0.1300" height="2.3843" ry="0.0400" fill="currentColor"/>
<path transform="translate(146.2381, 20.0559) scale(0.0028, -0.0028)" d="M-150 -571c-18 0 -32 14 -32 32c0 9 5 17 12 23l360 290c5 4 12 7 19 7c18 0 32 -14 32 -32c0 -9 -5 -17 -12 -23l-360 -290c-5 -4 -12 -7 -19 -7z" fill="currentColor"/>
<path transform="translate(146.2381, 20.0559) scale(0.0028, -0.0028)" d="M0 0c0 -197 209 -333 209 -530c0 -71 -15 -140 -41 -206c-5 -10 -14 -13 -23 -13c-14 0 -28 10 -28 26v5c27 59 43 123 43 188c0 102 -91 205 -160 280h-21v250h21z" fill="currentColor"/>
<rect transform="translate(156.4106, 9.5838)" x="-0.0650" y="-7.1260" width="0.1300" height="3.0103" ry="0.0400" fill="currentColor"/>
<path transform="translate(155.5472, 5.5838) scale(0.0028, -0.0028)" d="M211 141c61 0 117 -33 117 -100c0 -71 -52 -121 -99 -149c-34 -20 -73 -33 -112 -33c-61 0 -117 33 -117 100c0 71 52 121 99 149c34 20 73 33 112 33z" fill="currentColor"/>
<rect transform="translate(154.9822, 9.5838)" x="-0.0650" y="-6.7740" width="0.1300" height="3.1583" ry="0.0400" fill="currentColor"/>
<path transform="translate(154.1189, 6.0838) scale(0.0028, -0.0028)" d="M211 141c61 0 117 -33 117 -100c0 -71 -52 -121 -99 -149c-34 -20 -73 -33 -112 -33c-61 0 -117 33 -117 100c0 71 52 121 99 149c34 20 73 33 112 33z" fill="currentColor"/>
<path transform="translate(151.8945, 6.5838) scale(0.0025, -0.0025)" d="M-10 375c9 5 20 8 30 8s21 -3 30 -8l-4 -204l96 26c2 0 3 1 5 1c11 0 20 -9 20 -20l10 -553c-9 -5 -20 -8 -30 -8s-21 3 -30 8l4 204l-96 -26c-2 0 -3 -1 -5 -1c-11 0 -20 9 -20 20zM126 108l-81 -22l-4 -194l81 22z" fill="currentColor"/>
<rect transform="translate(153.5539, 9.5838)" x="-0.0650" y="-6.4221" width="0.1300" height="3.3064" ry="0.0400" fill="currentColor"/>
<path transform="translate(152.6905, 6.5838) scale(0.0028, -0.0028)" d="M211 141c61 0 117 -33 117 -100c0 -71 -52 -121 -99 -149c-34 -20 -73 -33 -112 -33c-61 0 -117 33 -117 100c0 71 52 121 99 149c34 20 73 33 112 33z" fill="currentColor"/>
</svg>
