<svg xmlns="http://www.w3.org/2000/svg" xmlns:xlink="http://www.w3.org/1999/xlink" version="1.2" width="165.11mm" height="86.81mm" viewBox="6.7145 -0.0537 93.9581 49.3997">
<defs><link href="../../assets/fonts.css" type="text/css" rel="stylesheet" xmlns="http://www.w3.org/1999/xhtml" /></defs>
<rect transform="translate(71.1639, 33.4119)" x="0.0000" y="-2.0000" width="0.1900" height="4.0500" ry="0.0000" fill="currentColor"/>
<rect transform="translate(33.0989, 45.0126)" x="0.0000" y="-2.0500" width="0.1900" height="4.0500" ry="0.0000" fill="currentColor"/>
<rect transform="translate(54.0511, -0.0000)" x="0.0000" y="35.4619" width="0.1900" height="7.5507" ry="0.0000" fill="currentColor"/>
<rect transform="translate(71.1639, 6.4119)" x="0.0000" y="-1.5874" width="0.1900" height="3.1748" ry="0.0000" fill="currentColor"/>
<rect transform="translate(54.0511, 24.4119)" x="0.0000" y="-1.5874" width="0.1900" height="3.1748" ry="0.0000" fill="currentColor"/>
<rect transform="translate(54.0511, 6.4119)" x="0.0000" y="-1.5874" width="0.1900" height="3.1748" ry="0.0000" fill="currentColor"/>
<rect transform="translate(100.4827, -0.0000)" x="0.0000" y="35.4619" width="0.1900" height="7.5507" ry="0.0000" fill="currentColor"/>
<rect transform="translate(54.0511, 45.0126)" x="0.0000" y="-2.0500" width="0.1900" height="4.0500" ry="0.0000" fill="currentColor"/>
<rect transform="translate(86.3776, 15.4119)" x="0.0000" y="-1.5874" width="0.1900" height="3.1748" ry="0.0000" fill="currentColor"/>
<rect transform="translate(100.4827, 45.0126)" x="0.0000" y="-2.0500" width="0.1900" height="4.0500" ry="0.0000" fill="currentColor"/>
<rect transform="translate(71.1639, 24.4119)" x="0.0000" y="-1.5874" width="0.1900" height="3.1748" ry="0.0000" fill="currentColor"/>
<rect transform="translate(33.0989, -0.0000)" x="0.0000" y="35.4619" width="0.1900" height="7.5507" ry="0.0000" fill="currentColor"/>
<rect transform="translate(100.4827, 33.4119)" x="0.0000" y="-2.0000" width="0.1900" height="4.0500" ry="0.0000" fill="currentColor"/>
<rect transform="translate(33.0989, 15.4119)" x="0.0000" y="-1.5874" width="0.1900" height="3.1748" ry="0.0000" fill="currentColor"/>
<rect transform="translate(86.3776, 33.4119)" x="0.0000" y="-2.0000" width="0.1900" height="4.0500" ry="0.0000" fill="currentColor"/>
<rect transform="translate(100.4827, 24.4119)" x="0.0000" y="-1.5874" width="0.1900" height="3.1748" ry="0.0000" fill="currentColor"/>
<rect transform="translate(100.4827, 15.4119)" x="0.0000" y="-1.5874" width="0.1900" height="3.1748" ry="0.0000" fill="currentColor"/>
<rect transform="translate(54.0511, 15.4119)" x="0.0000" y="-1.5874" width="0.1900" height="3.1748" ry="0.0000" fill="currentColor"/>
<rect transform="translate(100.4827, 6.4119)" x="0.0000" y="-1.5874" width="0.1900" height="3.1748" ry="0.0000" fill="currentColor"/>
<rect transform="translate(86.3776, 6.4119)" x="0.0000" y="-1.5874" width="0.1900" height="3.1748" ry="0.0000" fill="currentColor"/>
<rect transform="translate(71.1639, 15.4119)" x="0.0000" y="-1.5874" width="0.1900" height="3.1748" ry="0.0000" fill="currentColor"/>
<rect transform="translate(33.0989, 24.4119)" x="0.0000" y="-1.5874" width="0.1900" height="3.1748" ry="0.0000" fill="currentColor"/>
<rect transform="translate(71.1639, -0.0000)" x="0.0000" y="35.4619" width="0.1900" height="7.5507" ry="0.0000" fill="currentColor"/>
<rect transform="translate(0.0000, 4.0308)" x="58.1289" y="-0.0897" width="1.5651" height="0.1794" ry="0.0897" fill="currentColor"/>
<rect transform="translate(0.0000, 4.0308)" x="60.3723" y="-0.0897" width="1.5651" height="0.1794" ry="0.0897" fill="currentColor"/>
<rect transform="translate(0.0000, 4.0308)" x="62.6157" y="-0.0897" width="1.5651" height="0.1794" ry="0.0897" fill="currentColor"/>
<rect transform="translate(0.0000, 4.0308)" x="66.3091" y="-0.0897" width="1.5651" height="0.1794" ry="0.0897" fill="currentColor"/>
<rect transform="translate(0.0000, 3.2371)" x="66.3091" y="-0.0897" width="1.5651" height="0.1794" ry="0.0897" fill="currentColor"/>
<rect transform="translate(0.0000, 2.4434)" x="66.3091" y="-0.0897" width="1.5651" height="0.1794" ry="0.0897" fill="currentColor"/>
<rect transform="translate(0.0000, 4.0308)" x="68.8025" y="-0.0897" width="1.5651" height="0.1794" ry="0.0897" fill="currentColor"/>
<rect transform="translate(0.0000, 3.2371)" x="68.8025" y="-0.0897" width="1.5651" height="0.1794" ry="0.0897" fill="currentColor"/>
<rect transform="translate(0.0000, 2.4434)" x="68.8025" y="-0.0897" width="1.5651" height="0.1794" ry="0.0897" fill="currentColor"/>
<rect transform="translate(0.0000, 1.6497)" x="68.8025" y="-0.0897" width="1.5651" height="0.1794" ry="0.0897" fill="currentColor"/>
<rect transform="translate(0.0000, 0.8560)" x="68.8025" y="-0.0897" width="1.5651" height="0.1794" ry="0.0897" fill="currentColor"/>
<rect transform="translate(0.0000, 4.0308)" x="84.1233" y="-0.0897" width="1.5651" height="0.1794" ry="0.0897" fill="currentColor"/>
<line transform="translate(7.9668, 7.9993)" stroke-linejoin="round" stroke-linecap="round" stroke-width="0.1000" stroke="currentColor" x1="0.0500" y1="-0.0000" x2="92.6559" y2="-0.0000"/>
<line transform="translate(7.9668, 7.2056)" stroke-linejoin="round" stroke-linecap="round" stroke-width="0.1000" stroke="currentColor" x1="0.0500" y1="-0.0000" x2="92.6559" y2="-0.0000"/>
<line transform="translate(7.9668, 6.4119)" stroke-linejoin="round" stroke-linecap="round" stroke-width="0.1000" stroke="currentColor" x1="0.0500" y1="-0.0000" x2="92.6559" y2="-0.0000"/>
<line transform="translate(7.9668, 5.6182)" stroke-linejoin="round" stroke-linecap="round" stroke-width="0.1000" stroke="currentColor" x1="0.0500" y1="-0.0000" x2="92.6559" y2="-0.0000"/>
<line transform="translate(7.9668, 4.8245)" stroke-linejoin="round" stroke-linecap="round" stroke-width="0.1000" stroke="currentColor" x1="0.0500" y1="-0.0000" x2="92.6559" y2="-0.0000"/>
<rect transform="translate(0.0000, 13.0308)" x="58.2147" y="-0.0897" width="1.5625" height="0.1794" ry="0.0897" fill="currentColor"/>
<line transform="translate(7.9668, 16.9993)" stroke-linejoin="round" stroke-linecap="round" stroke-width="0.1000" stroke="currentColor" x1="0.0500" y1="-0.0000" x2="92.6559" y2="-0.0000"/>
<line transform="translate(7.9668, 16.2056)" stroke-linejoin="round" stroke-linecap="round" stroke-width="0.1000" stroke="currentColor" x1="0.0500" y1="-0.0000" x2="92.6559" y2="-0.0000"/>
<line transform="translate(7.9668, 15.4119)" stroke-linejoin="round" stroke-linecap="round" stroke-width="0.1000" stroke="currentColor" x1="0.0500" y1="-0.0000" x2="92.6559" y2="-0.0000"/>
<line transform="translate(7.9668, 14.6182)" stroke-linejoin="round" stroke-linecap="round" stroke-width="0.1000" stroke="currentColor" x1="0.0500" y1="-0.0000" x2="92.6559" y2="-0.0000"/>
<line transform="translate(7.9668, 13.8245)" stroke-linejoin="round" stroke-linecap="round" stroke-width="0.1000" stroke="currentColor" x1="0.0500" y1="-0.0000" x2="92.6559" y2="-0.0000"/>
<rect transform="translate(71.1639, 45.0126)" x="0.0000" y="-2.0500" width="0.1900" height="4.0500" ry="0.0000" fill="currentColor"/>
<line transform="translate(7.9668, 25.9993)" stroke-linejoin="round" stroke-linecap="round" stroke-width="0.1000" stroke="currentColor" x1="0.0500" y1="-0.0000" x2="92.6559" y2="-0.0000"/>
<line transform="translate(7.9668, 25.2056)" stroke-linejoin="round" stroke-linecap="round" stroke-width="0.1000" stroke="currentColor" x1="0.0500" y1="-0.0000" x2="92.6559" y2="-0.0000"/>
<line transform="translate(7.9668, 24.4119)" stroke-linejoin="round" stroke-linecap="round" stroke-width="0.1000" stroke="currentColor" x1="0.0500" y1="-0.0000" x2="92.6559" y2="-0.0000"/>
<line transform="translate(7.9668, 23.6182)" stroke-linejoin="round" stroke-linecap="round" stroke-width="0.1000" stroke="currentColor" x1="0.0500" y1="-0.0000" x2="92.6559" y2="-0.0000"/>
<line transform="translate(7.9668, 22.8245)" stroke-linejoin="round" stroke-linecap="round" stroke-width="0.1000" stroke="currentColor" x1="0.0500" y1="-0.0000" x2="92.6559" y2="-0.0000"/>
<rect transform="translate(86.3776, 24.4119)" x="0.0000" y="-1.5874" width="0.1900" height="3.1748" ry="0.0000" fill="currentColor"/>
<rect transform="translate(0.0000, 36.4119)" x="16.7734" y="-0.1000" width="1.9125" height="0.2000" ry="0.1000" fill="currentColor"/>
<rect transform="translate(0.0000, 36.4119)" x="73.1289" y="-0.1000" width="1.9125" height="0.2000" ry="0.1000" fill="currentColor"/>
<rect transform="translate(0.0000, 36.4119)" x="81.5617" y="-0.1000" width="1.9743" height="0.2000" ry="0.1000" fill="currentColor"/>
<rect transform="translate(0.0000, 36.4119)" x="87.1385" y="-0.1000" width="1.9743" height="0.2000" ry="0.1000" fill="currentColor"/>
<line transform="translate(7.9668, 35.4119)" stroke-linejoin="round" stroke-linecap="round" stroke-width="0.1000" stroke="currentColor" x1="0.0500" y1="-0.0000" x2="92.6559" y2="-0.0000"/>
<line transform="translate(7.9668, 34.4119)" stroke-linejoin="round" stroke-linecap="round" stroke-width="0.1000" stroke="currentColor" x1="0.0500" y1="-0.0000" x2="92.6559" y2="-0.0000"/>
<line transform="translate(7.9668, 33.4119)" stroke-linejoin="round" stroke-linecap="round" stroke-width="0.1000" stroke="currentColor" x1="0.0500" y1="-0.0000" x2="92.6559" y2="-0.0000"/>
<line transform="translate(7.9668, 32.4119)" stroke-linejoin="round" stroke-linecap="round" stroke-width="0.1000" stroke="currentColor" x1="0.0500" y1="-0.0000" x2="92.6559" y2="-0.0000"/>
<line transform="translate(7.9668, 31.4119)" stroke-linejoin="round" stroke-linecap="round" stroke-width="0.1000" stroke="currentColor" x1="0.0500" y1="-0.0000" x2="92.6559" y2="-0.0000"/>
<rect transform="translate(33.0989, 6.4119)" x="0.0000" y="-1.5874" width="0.1900" height="3.1748" ry="0.0000" fill="currentColor"/>
<rect transform="translate(86.3776, -0.0000)" x="0.0000" y="35.4619" width="0.1900" height="7.5507" ry="0.0000" fill="currentColor"/>
<rect transform="translate(0.0000, 42.0126)" x="25.6179" y="-0.1000" width="1.9743" height="0.2000" ry="0.1000" fill="currentColor"/>
<rect transform="translate(0.0000, 48.0126)" x="38.3482" y="-0.1000" width="2.0850" height="0.2000" ry="0.1000" fill="currentColor"/>
<rect transform="translate(0.0000, 48.0126)" x="81.5617" y="-0.1000" width="1.9743" height="0.2000" ry="0.1000" fill="currentColor"/>
<line transform="translate(7.9668, 47.0126)" stroke-linejoin="round" stroke-linecap="round" stroke-width="0.1000" stroke="currentColor" x1="0.0500" y1="-0.0000" x2="92.6559" y2="-0.0000"/>
<line transform="translate(7.9668, 46.0126)" stroke-linejoin="round" stroke-linecap="round" stroke-width="0.1000" stroke="currentColor" x1="0.0500" y1="-0.0000" x2="92.6559" y2="-0.0000"/>
<line transform="translate(7.9668, 45.0126)" stroke-linejoin="round" stroke-linecap="round" stroke-width="0.1000" stroke="currentColor" x1="0.0500" y1="-0.0000" x2="92.6559" y2="-0.0000"/>
<line transform="translate(7.9668, 44.0126)" stroke-linejoin="round" stroke-linecap="round" stroke-width="0.1000" stroke="currentColor" x1="0.0500" y1="-0.0000" x2="92.6559" y2="-0.0000"/>
<line transform="translate(7.9668, 43.0126)" stroke-linejoin="round" stroke-linecap="round" stroke-width="0.1000" stroke="currentColor" x1="0.0500" y1="-0.0000" x2="92.6559" y2="-0.0000"/>
<rect transform="translate(54.0511, 33.4119)" x="0.0000" y="-2.0000" width="0.1900" height="4.0500" ry="0.0000" fill="currentColor"/>
<rect transform="translate(86.3776, 45.0126)" x="0.0000" y="-2.0500" width="0.1900" height="4.0500" ry="0.0000" fill="currentColor"/>
<rect transform="translate(33.0989, 33.4119)" x="0.0000" y="-2.0000" width="0.1900" height="4.0500" ry="0.0000" fill="currentColor"/>
<path transform="translate(41.7630, 34.4119) scale(0.0040, -0.0040)" d="M220 138c56 0 109 -29 109 -91c0 -72 -56 -121 -103 -149c-36 -21 -76 -36 -117 -36c-56 0 -109 29 -109 91c0 72 56 121 103 149c36 21 76 36 117 36z" fill="currentColor"/>
<path transform="translate(41.7630, 35.9119) scale(0.0040, -0.0040)" d="M220 138c56 0 109 -29 109 -91c0 -72 -56 -121 -103 -149c-36 -21 -76 -36 -117 -36c-56 0 -109 29 -109 91c0 72 56 121 103 149c36 21 76 36 117 36z" fill="currentColor"/>
<path transform="translate(40.5118, 34.9119) scale(0.0040, -0.0040)" d="M220 138c56 0 109 -29 109 -91c0 -72 -56 -121 -103 -149c-36 -21 -76 -36 -117 -36c-56 0 -109 29 -109 91c0 72 56 121 103 149c36 21 76 36 117 36z" fill="currentColor"/>
<path transform="translate(41.7630, 33.4119) scale(0.0040, -0.0040)" d="M220 138c56 0 109 -29 109 -91c0 -72 -56 -121 -103 -149c-36 -21 -76 -36 -117 -36c-56 0 -109 29 -109 91c0 72 56 121 103 149c36 21 76 36 117 36z" fill="currentColor"/>
<rect transform="translate(43.0142, 33.4119)" x="-0.0650" y="-3.0000" width="0.1300" height="2.8122" ry="0.0400" fill="currentColor"/>
<path transform="translate(40.5357, 44.5126) scale(0.0040, -0.0040)" d="M0 0c0 31 25 56 56 56s56 -25 56 -56s-25 -56 -56 -56s-56 25 -56 56z" fill="currentColor"/>
<path transform="translate(40.5357, 45.5126) scale(0.0040, -0.0040)" d="M0 0c0 31 25 56 56 56s56 -25 56 -56s-25 -56 -56 -56s-56 25 -56 56z" fill="currentColor"/>
<rect transform="translate(40.0207, 45.0126)" x="-0.0650" y="-3.6667" width="0.1300" height="6.4053" ry="0.0400" fill="currentColor"/>
<path transform="translate(48.6204, 32.9119) scale(0.0040, -0.0040)" d="M220 138c56 0 109 -29 109 -91c0 -72 -56 -121 -103 -149c-36 -21 -76 -36 -117 -36c-56 0 -109 29 -109 91c0 72 56 121 103 149c36 21 76 36 117 36z" fill="currentColor"/>
<rect transform="translate(49.8715, 33.4119)" x="-0.0650" y="-3.1967" width="0.1300" height="2.5089" ry="0.0400" fill="currentColor"/>
<path transform="translate(51.4769, 32.4119) scale(0.0040, -0.0040)" d="M220 138c56 0 109 -29 109 -91c0 -72 -56 -121 -103 -149c-36 -21 -76 -36 -117 -36c-56 0 -109 29 -109 91c0 72 56 121 103 149c36 21 76 36 117 36z" fill="currentColor"/>
<rect transform="translate(52.7281, 33.4119)" x="-0.0650" y="-3.4933" width="0.1300" height="2.3054" ry="0.0400" fill="currentColor"/>
<path transform="translate(50.4365, 32.4119) scale(0.0040, -0.0040)" d="M-8 375c8 4 17 7 26 7s17 -3 25 -7l-3 -183l106 20h3c10 0 18 -7 18 -17l7 -570c-8 -4 -16 -7 -25 -7s-17 3 -25 7l3 183l-106 -20h-3c-10 0 -18 7 -18 17zM131 112l-92 -17l-3 -207l92 17z" fill="currentColor"/>
<path transform="translate(58.3897, 3.6339) scale(0.0032, -0.0032)" d="M214 140c59 0 115 -32 115 -97c0 -72 -54 -121 -101 -149c-35 -21 -74 -34 -114 -34c-59 0 -114 32 -114 97c0 72 54 121 101 149c35 21 73 34 113 34z" fill="currentColor"/>
<g transform="translate(57.7335, 10.0278)" >
<path transform="scale(0.0032, -0.0032)" d="M180 217c0 9 8 16 8 25c0 12 -8 22 -19 22c-24 0 -45 -17 -45 -40c0 -17 16 -28 31 -36c34 -18 69 -41 69 -78c0 -63 -56 -110 -121 -110c-43 0 -80 31 -80 72c0 21 12 42 31 42c18 0 33 -15 33 -33c0 -13 -22 -15 -22 -28c0 -14 17 -21 33 -21c34 0 66 18 66 49
c0 57 -100 59 -100 115c0 53 42 96 95 96c57 0 81 -35 81 -63c0 -19 -11 -34 -29 -34s-31 11 -31 22z" fill="currentColor"/>

<path transform="translate(0.6487, 0.0000) scale(0.0032, -0.0032)" d="M252 237l-49 -160c-30 -99 -121 -255 -218 -255c-46 0 -87 32 -87 76c0 39 17 77 52 77c24 0 44 -20 44 -44c0 -30 -38 -25 -38 -55c0 -10 11 -10 23 -10h6c46 0 61 54 73 102l67 269h-45c-12 0 -22 10 -22 22s10 23 22 23h58c32 95 118 187 212 187c46 0 87 -31 87 -75
c0 -39 -17 -78 -52 -78c-24 0 -44 20 -44 44c0 30 38 25 38 55c0 10 -10 11 -22 11h-7c-58 0 -69 -81 -85 -144h50c12 0 23 -11 23 -23s-11 -22 -23 -22h-63z" fill="currentColor"/>

<path transform="translate(1.6730, 0.0000) scale(0.0032, -0.0032)" d="M228 309c32 0 59 -14 59 -42c0 -24 -20 -47 -42 -47c-13 0 -24 5 -29 15c-7 13 -5 31 -25 31c-21 0 -52 -22 -58 -44l-52 -201c-3 -12 -14 -21 -26 -21h-34c-12 0 -19 9 -16 21l58 223c1 4 2 8 2 12c0 11 -5 20 -16 20c-21 0 -45 -33 -51 -57c-5 -8 -12 -12 -19 -12
c-8 0 -14 5 -14 13c0 3 1 7 3 11c12 46 54 77 100 77c30 0 54 -13 67 -35c28 23 62 36 93 36z" fill="currentColor"/>
</g>
<rect transform="translate(41.8280, 33.4119)" x="-0.0650" y="1.1878" width="0.1300" height="3.6222" ry="0.0400" fill="currentColor"/>
<path transform="translate(44.9042, 33.4119) scale(0.0040, -0.0040)" d="M220 138c56 0 109 -29 109 -91c0 -72 -56 -121 -103 -149c-36 -21 -76 -36 -117 -36c-56 0 -109 29 -109 91c0 72 56 121 103 149c36 21 76 36 117 36z" fill="currentColor"/>
<path transform="translate(44.9042, 35.9119) scale(0.0040, -0.0040)" d="M315 65c0 24 -21 41 -42 41c-4 0 -8 0 -12 -1c-31 -9 -77 -40 -114 -64s-84 -53 -104 -78c-7 -8 -11 -18 -11 -28c0 -24 21 -41 42 -41c4 0 8 0 12 1c31 9 78 40 115 64s84 53 104 78c7 8 10 18 10 28zM264 137c47 0 83 -21 83 -72c0 -19 -4 -37 -10 -56
c-12 -38 -32 -74 -65 -96c-54 -36 -113 -51 -188 -51c-47 0 -84 22 -84 73c0 19 5 37 11 56c12 38 31 74 64 96c54 36 114 50 189 50z" fill="currentColor"/>
<path transform="translate(43.5792, 34.9119) scale(0.0040, -0.0040)" d="M315 65c0 24 -21 41 -42 41c-4 0 -8 0 -12 -1c-31 -9 -77 -40 -114 -64s-84 -53 -104 -78c-7 -8 -11 -18 -11 -28c0 -24 21 -41 42 -41c4 0 8 0 12 1c31 9 78 40 115 64s84 53 104 78c7 8 10 18 10 28zM264 137c47 0 83 -21 83 -72c0 -19 -4 -37 -10 -56
c-12 -38 -32 -74 -65 -96c-54 -36 -113 -51 -188 -51c-47 0 -84 22 -84 73c0 19 5 37 11 56c12 38 31 74 64 96c54 36 114 50 189 50z" fill="currentColor"/>
<path transform="translate(44.9042, 34.4119) scale(0.0040, -0.0040)" d="M315 65c0 24 -21 41 -42 41c-4 0 -8 0 -12 -1c-31 -9 -77 -40 -114 -64s-84 -53 -104 -78c-7 -8 -11 -18 -11 -28c0 -24 21 -41 42 -41c4 0 8 0 12 1c31 9 78 40 115 64s84 53 104 78c7 8 10 18 10 28zM264 137c47 0 83 -21 83 -72c0 -19 -4 -37 -10 -56
c-12 -38 -32 -74 -65 -96c-54 -36 -113 -51 -188 -51c-47 0 -84 22 -84 73c0 19 5 37 11 56c12 38 31 74 64 96c54 36 114 50 189 50z" fill="currentColor"/>
<rect transform="translate(46.1554, 33.4119)" x="-0.0650" y="-3.3333" width="0.1300" height="3.1455" ry="0.0400" fill="currentColor"/>
<rect transform="translate(44.9692, 33.4119)" x="-0.0650" y="1.2614" width="0.1300" height="3.7386" ry="0.0400" fill="currentColor"/>
<path transform="translate(24.9009, 45.0126) scale(0.0040, -0.0040)" d="M-8 375c8 4 17 7 26 7s17 -3 25 -7l-3 -183l106 20h3c10 0 18 -7 18 -17l7 -570c-8 -4 -16 -7 -25 -7s-17 3 -25 7l3 183l-106 -20h-3c-10 0 -18 7 -18 17zM131 112l-92 -17l-3 -207l92 17z" fill="currentColor"/>
<path transform="translate(30.5131, 33.9119) scale(0.0040, -0.0040)" d="M220 138c56 0 109 -29 109 -91c0 -72 -56 -121 -103 -149c-36 -21 -76 -36 -117 -36c-56 0 -109 29 -109 91c0 72 56 121 103 149c36 21 76 36 117 36z" fill="currentColor"/>
<path transform="translate(30.5131, 35.9119) scale(0.0040, -0.0040)" d="M220 138c56 0 109 -29 109 -91c0 -72 -56 -121 -103 -149c-36 -21 -76 -36 -117 -36c-56 0 -109 29 -109 91c0 72 56 121 103 149c36 21 76 36 117 36z" fill="currentColor"/>
<path transform="translate(30.5131, 34.9119) scale(0.0040, -0.0040)" d="M220 138c56 0 109 -29 109 -91c0 -72 -56 -121 -103 -149c-36 -21 -76 -36 -117 -36c-56 0 -109 29 -109 91c0 72 56 121 103 149c36 21 76 36 117 36z" fill="currentColor"/>
<rect transform="translate(31.7643, 33.4119)" x="-0.0650" y="-2.1874" width="0.1300" height="2.4996" ry="0.0400" fill="currentColor"/>
<rect transform="translate(30.5781, 33.4119)" x="-0.0650" y="1.6878" width="0.1300" height="3.1179" ry="0.0400" fill="currentColor"/>
<path transform="translate(25.9469, 34.4119) scale(0.0040, -0.0040)" d="M220 138c56 0 109 -29 109 -91c0 -72 -56 -121 -103 -149c-36 -21 -76 -36 -117 -36c-56 0 -109 29 -109 91c0 72 56 121 103 149c36 21 76 36 117 36z" fill="currentColor"/>
<path transform="translate(25.9469, 35.4119) scale(0.0040, -0.0040)" d="M220 138c56 0 109 -29 109 -91c0 -72 -56 -121 -103 -149c-36 -21 -76 -36 -117 -36c-56 0 -109 29 -109 91c0 72 56 121 103 149c36 21 76 36 117 36z" fill="currentColor"/>
<path transform="translate(25.9469, 45.0126) scale(0.0040, -0.0040)" d="M220 138c56 0 109 -29 109 -91c0 -72 -56 -121 -103 -149c-36 -21 -76 -36 -117 -36c-56 0 -109 29 -109 91c0 72 56 121 103 149c36 21 76 36 117 36z" fill="currentColor"/>
<path transform="translate(25.9469, 42.0126) scale(0.0040, -0.0040)" d="M220 138c56 0 109 -29 109 -91c0 -72 -56 -121 -103 -149c-36 -21 -76 -36 -117 -36c-56 0 -109 29 -109 91c0 72 56 121 103 149c36 21 76 36 117 36z" fill="currentColor"/>
<rect transform="translate(27.1981, 33.4119)" x="-0.0650" y="-2.0026" width="0.1300" height="2.8148" ry="0.0400" fill="currentColor"/>
<rect transform="translate(26.0119, 33.4119)" x="-0.0650" y="2.1878" width="0.1300" height="2.3165" ry="0.0400" fill="currentColor"/>
<rect transform="translate(26.0119, 45.0126)" x="-0.0650" y="-2.8122" width="0.1300" height="6.1455" ry="0.0400" fill="currentColor"/>
<rect transform="translate(38.7607, 33.4119)" x="-0.0650" y="1.1878" width="0.1300" height="3.6222" ry="0.0400" fill="currentColor"/>
<path transform="translate(35.1209, 35.9119) scale(0.0040, -0.0040)" d="M-8 375c8 4 17 7 26 7s17 -3 25 -7l-3 -183l106 20h3c10 0 18 -7 18 -17l7 -570c-8 -4 -16 -7 -25 -7s-17 3 -25 7l3 183l-106 -20h-3c-10 0 -18 7 -18 17zM131 112l-92 -17l-3 -207l92 17z" fill="currentColor"/>
<path transform="translate(33.7889, 34.9119) scale(0.0040, -0.0040)" d="M216 -312c0 -10 -8 -19 -18 -19s-19 9 -19 19v145l-83 -31v-158c0 -10 -9 -19 -19 -19s-18 9 -18 19v145l-32 -12c-2 -1 -5 -1 -7 -1c-11 0 -20 9 -20 20v60c0 8 5 16 13 19l46 16v160l-32 -11c-2 -1 -5 -1 -7 -1c-11 0 -20 9 -20 20v60c0 8 5 15 13 18l46 17v158
c0 10 8 19 18 19s19 -9 19 -19v-145l83 31v158c0 10 9 19 19 19s18 -9 18 -19v-145l32 12c2 1 5 1 7 1c11 0 20 -9 20 -20v-60c0 -8 -5 -16 -13 -19l-46 -16v-160l32 11c2 1 5 1 7 1c11 0 20 -9 20 -20v-60c0 -8 -5 -15 -13 -18l-46 -17v-158zM96 65v-160l83 30v160z" fill="currentColor"/>
<path transform="translate(35.9945, 34.4119) scale(0.0040, -0.0040)" d="M216 -312c0 -10 -8 -19 -18 -19s-19 9 -19 19v145l-83 -31v-158c0 -10 -9 -19 -19 -19s-18 9 -18 19v145l-32 -12c-2 -1 -5 -1 -7 -1c-11 0 -20 9 -20 20v60c0 8 5 16 13 19l46 16v160l-32 -11c-2 -1 -5 -1 -7 -1c-11 0 -20 9 -20 20v60c0 8 5 15 13 18l46 17v158
c0 10 8 19 18 19s19 -9 19 -19v-145l83 31v158c0 10 9 19 19 19s18 -9 18 -19v-145l32 12c2 1 5 1 7 1c11 0 20 -9 20 -20v-60c0 -8 -5 -16 -13 -19l-46 -16v-160l32 11c2 1 5 1 7 1c11 0 20 -9 20 -20v-60c0 -8 -5 -15 -13 -18l-46 -17v-158zM96 65v-160l83 30v160z" fill="currentColor"/>
<path transform="translate(40.5357, 47.5126) scale(0.0040, -0.0040)" d="M0 0c0 31 25 56 56 56s56 -25 56 -56s-25 -56 -56 -56s-56 25 -56 56z" fill="currentColor"/>
<path transform="translate(27.7631, 35.9119) scale(0.0040, -0.0040)" d="M216 -312c0 -10 -8 -19 -18 -19s-19 9 -19 19v145l-83 -31v-158c0 -10 -9 -19 -19 -19s-18 9 -18 19v145l-32 -12c-2 -1 -5 -1 -7 -1c-11 0 -20 9 -20 20v60c0 8 5 16 13 19l46 16v160l-32 -11c-2 -1 -5 -1 -7 -1c-11 0 -20 9 -20 20v60c0 8 5 15 13 18l46 17v158
c0 10 8 19 18 19s19 -9 19 -19v-145l83 31v158c0 10 9 19 19 19s18 -9 18 -19v-145l32 12c2 1 5 1 7 1c11 0 20 -9 20 -20v-60c0 -8 -5 -16 -13 -19l-46 -16v-160l32 11c2 1 5 1 7 1c11 0 20 -9 20 -20v-60c0 -8 -5 -15 -13 -18l-46 -17v-158zM96 65v-160l83 30v160z" fill="currentColor"/>
<path transform="translate(29.0631, 34.9119) scale(0.0040, -0.0040)" d="M216 -312c0 -10 -8 -19 -18 -19s-19 9 -19 19v145l-83 -31v-158c0 -10 -9 -19 -19 -19s-18 9 -18 19v145l-32 -12c-2 -1 -5 -1 -7 -1c-11 0 -20 9 -20 20v60c0 8 5 16 13 19l46 16v160l-32 -11c-2 -1 -5 -1 -7 -1c-11 0 -20 9 -20 20v60c0 8 5 15 13 18l46 17v158
c0 10 8 19 18 19s19 -9 19 -19v-145l83 31v158c0 10 9 19 19 19s18 -9 18 -19v-145l32 12c2 1 5 1 7 1c11 0 20 -9 20 -20v-60c0 -8 -5 -16 -13 -19l-46 -16v-160l32 11c2 1 5 1 7 1c11 0 20 -9 20 -20v-60c0 -8 -5 -15 -13 -18l-46 -17v-158zM96 65v-160l83 30v160z" fill="currentColor"/>
<path transform="translate(38.6957, 33.4119) scale(0.0040, -0.0040)" d="M220 138c56 0 109 -29 109 -91c0 -72 -56 -121 -103 -149c-36 -21 -76 -36 -117 -36c-56 0 -109 29 -109 91c0 72 56 121 103 149c36 21 76 36 117 36z" fill="currentColor"/>
<path transform="translate(38.6957, 35.9119) scale(0.0040, -0.0040)" d="M220 138c56 0 109 -29 109 -91c0 -72 -56 -121 -103 -149c-36 -21 -76 -36 -117 -36c-56 0 -109 29 -109 91c0 72 56 121 103 149c36 21 76 36 117 36z" fill="currentColor"/>
<path transform="translate(37.4445, 34.9119) scale(0.0040, -0.0040)" d="M220 138c56 0 109 -29 109 -91c0 -72 -56 -121 -103 -149c-36 -21 -76 -36 -117 -36c-56 0 -109 29 -109 91c0 72 56 121 103 149c36 21 76 36 117 36z" fill="currentColor"/>
<path transform="translate(38.6957, 34.4119) scale(0.0040, -0.0040)" d="M220 138c56 0 109 -29 109 -91c0 -72 -56 -121 -103 -149c-36 -21 -76 -36 -117 -36c-56 0 -109 29 -109 91c0 72 56 121 103 149c36 21 76 36 117 36z" fill="currentColor"/>
<path transform="translate(38.6957, 48.0126) scale(0.0040, -0.0040)" d="M315 65c0 24 -21 41 -42 41c-4 0 -8 0 -12 -1c-31 -9 -77 -40 -114 -64s-84 -53 -104 -78c-7 -8 -11 -18 -11 -28c0 -24 21 -41 42 -41c4 0 8 0 12 1c31 9 78 40 115 64s84 53 104 78c7 8 10 18 10 28zM264 137c47 0 83 -21 83 -72c0 -19 -4 -37 -10 -56
c-12 -38 -32 -74 -65 -96c-54 -36 -113 -51 -188 -51c-47 0 -84 22 -84 73c0 19 5 37 11 56c12 38 31 74 64 96c54 36 114 50 189 50z" fill="currentColor"/>
<path transform="translate(38.6957, 46.0126) scale(0.0040, -0.0040)" d="M315 65c0 24 -21 41 -42 41c-4 0 -8 0 -12 -1c-31 -9 -77 -40 -114 -64s-84 -53 -104 -78c-7 -8 -11 -18 -11 -28c0 -24 21 -41 42 -41c4 0 8 0 12 1c31 9 78 40 115 64s84 53 104 78c7 8 10 18 10 28zM264 137c47 0 83 -21 83 -72c0 -19 -4 -37 -10 -56
c-12 -38 -32 -74 -65 -96c-54 -36 -113 -51 -188 -51c-47 0 -84 22 -84 73c0 19 5 37 11 56c12 38 31 74 64 96c54 36 114 50 189 50z" fill="currentColor"/>
<path transform="translate(38.6957, 44.5126) scale(0.0040, -0.0040)" d="M315 65c0 24 -21 41 -42 41c-4 0 -8 0 -12 -1c-31 -9 -77 -40 -114 -64s-84 -53 -104 -78c-7 -8 -11 -18 -11 -28c0 -24 21 -41 42 -41c4 0 8 0 12 1c31 9 78 40 115 64s84 53 104 78c7 8 10 18 10 28zM264 137c47 0 83 -21 83 -72c0 -19 -4 -37 -10 -56
c-12 -38 -32 -74 -65 -96c-54 -36 -113 -51 -188 -51c-47 0 -84 22 -84 73c0 19 5 37 11 56c12 38 31 74 64 96c54 36 114 50 189 50z" fill="currentColor"/>
<rect transform="translate(39.9468, 33.4119)" x="-0.0650" y="-3.0000" width="0.1300" height="2.8122" ry="0.0400" fill="currentColor"/>
<path transform="translate(73.3039, 6.4119) scale(0.0032, -0.0032)" d="M214 140c59 0 115 -32 115 -97c0 -72 -54 -121 -101 -149c-35 -21 -74 -34 -114 -34c-59 0 -114 32 -114 97c0 72 54 121 101 149c35 21 73 34 113 34z" fill="currentColor"/>
<path transform="translate(73.8256, 5.2213) scale(0.0032, -0.0032)" d="M-50 0c0 28 22 50 50 50s50 -22 50 -50s-22 -50 -50 -50s-50 22 -50 50z" fill="currentColor"/>
<path transform="translate(73.3039, 15.4119) scale(0.0032, -0.0032)" d="M-24 -119c0 31 14 43 46 43c30 0 69 -9 106 -23l-126 151c-7 9 -11 17 -11 26c0 34 51 66 88 101c23 22 36 51 36 81c0 25 -9 50 -26 70l-31 37c-3 4 -4 8 -4 12c0 10 9 18 19 18c5 0 9 -1 13 -6l149 -178c7 -9 11 -17 11 -26c0 -34 -52 -66 -89 -101
c-23 -22 -35 -51 -35 -81c0 -25 9 -51 26 -71l79 -94c3 -4 4 -8 4 -12c0 -10 -9 -18 -19 -18c-5 0 -9 2 -13 7c-16 19 -57 33 -89 33c-41 0 -55 -23 -55 -65c0 -33 11 -73 27 -92c6 -7 0 -15 -7 -15c-2 0 -5 2 -7 4c-44 53 -92 145 -92 199z" fill="currentColor"/>
<path transform="translate(73.3039, 24.4119) scale(0.0032, -0.0032)" d="M-24 -119c0 31 14 43 46 43c30 0 69 -9 106 -23l-126 151c-7 9 -11 17 -11 26c0 34 51 66 88 101c23 22 36 51 36 81c0 25 -9 50 -26 70l-31 37c-3 4 -4 8 -4 12c0 10 9 18 19 18c5 0 9 -1 13 -6l149 -178c7 -9 11 -17 11 -26c0 -34 -52 -66 -89 -101
c-23 -22 -35 -51 -35 -81c0 -25 9 -51 26 -71l79 -94c3 -4 4 -8 4 -12c0 -10 -9 -18 -19 -18c-5 0 -9 2 -13 7c-16 19 -57 33 -89 33c-41 0 -55 -23 -55 -65c0 -33 11 -73 27 -92c6 -7 0 -15 -7 -15c-2 0 -5 2 -7 4c-44 53 -92 145 -92 199z" fill="currentColor"/>
<path transform="translate(73.3039, 36.4119) scale(0.0040, -0.0040)" d="M315 65c0 24 -21 41 -42 41c-4 0 -8 0 -12 -1c-31 -9 -77 -40 -114 -64s-84 -53 -104 -78c-7 -8 -11 -18 -11 -28c0 -24 21 -41 42 -41c4 0 8 0 12 1c31 9 78 40 115 64s84 53 104 78c7 8 10 18 10 28zM264 137c47 0 83 -21 83 -72c0 -19 -4 -37 -10 -56
c-12 -38 -32 -74 -65 -96c-54 -36 -113 -51 -188 -51c-47 0 -84 22 -84 73c0 19 5 37 11 56c12 38 31 74 64 96c54 36 114 50 189 50z" fill="currentColor"/>
<path transform="translate(73.3039, 35.4119) scale(0.0040, -0.0040)" d="M315 65c0 24 -21 41 -42 41c-4 0 -8 0 -12 -1c-31 -9 -77 -40 -114 -64s-84 -53 -104 -78c-7 -8 -11 -18 -11 -28c0 -24 21 -41 42 -41c4 0 8 0 12 1c31 9 78 40 115 64s84 53 104 78c7 8 10 18 10 28zM264 137c47 0 83 -21 83 -72c0 -19 -4 -37 -10 -56
c-12 -38 -32 -74 -65 -96c-54 -36 -113 -51 -188 -51c-47 0 -84 22 -84 73c0 19 5 37 11 56c12 38 31 74 64 96c54 36 114 50 189 50z" fill="currentColor"/>
<path transform="translate(73.3039, 34.4119) scale(0.0040, -0.0040)" d="M315 65c0 24 -21 41 -42 41c-4 0 -8 0 -12 -1c-31 -9 -77 -40 -114 -64s-84 -53 -104 -78c-7 -8 -11 -18 -11 -28c0 -24 21 -41 42 -41c4 0 8 0 12 1c31 9 78 40 115 64s84 53 104 78c7 8 10 18 10 28zM264 137c47 0 83 -21 83 -72c0 -19 -4 -37 -10 -56
c-12 -38 -32 -74 -65 -96c-54 -36 -113 -51 -188 -51c-47 0 -84 22 -84 73c0 19 5 37 11 56c12 38 31 74 64 96c54 36 114 50 189 50z" fill="currentColor"/>
<path transform="translate(73.3039, 33.4119) scale(0.0040, -0.0040)" d="M315 65c0 24 -21 41 -42 41c-4 0 -8 0 -12 -1c-31 -9 -77 -40 -114 -64s-84 -53 -104 -78c-7 -8 -11 -18 -11 -28c0 -24 21 -41 42 -41c4 0 8 0 12 1c31 9 78 40 115 64s84 53 104 78c7 8 10 18 10 28zM264 137c47 0 83 -21 83 -72c0 -19 -4 -37 -10 -56
c-12 -38 -32 -74 -65 -96c-54 -36 -113 -51 -188 -51c-47 0 -84 22 -84 73c0 19 5 37 11 56c12 38 31 74 64 96c54 36 114 50 189 50z" fill="currentColor"/>
<path transform="translate(73.3039, 46.5126) scale(0.0040, -0.0040)" d="M315 65c0 24 -21 41 -42 41c-4 0 -8 0 -12 -1c-31 -9 -77 -40 -114 -64s-84 -53 -104 -78c-7 -8 -11 -18 -11 -28c0 -24 21 -41 42 -41c4 0 8 0 12 1c31 9 78 40 115 64s84 53 104 78c7 8 10 18 10 28zM264 137c47 0 83 -21 83 -72c0 -19 -4 -37 -10 -56
c-12 -38 -32 -74 -65 -96c-54 -36 -113 -51 -188 -51c-47 0 -84 22 -84 73c0 19 5 37 11 56c12 38 31 74 64 96c54 36 114 50 189 50z" fill="currentColor"/>
<path transform="translate(73.3039, 44.5126) scale(0.0040, -0.0040)" d="M315 65c0 24 -21 41 -42 41c-4 0 -8 0 -12 -1c-31 -9 -77 -40 -114 -64s-84 -53 -104 -78c-7 -8 -11 -18 -11 -28c0 -24 21 -41 42 -41c4 0 8 0 12 1c31 9 78 40 115 64s84 53 104 78c7 8 10 18 10 28zM264 137c47 0 83 -21 83 -72c0 -19 -4 -37 -10 -56
c-12 -38 -32 -74 -65 -96c-54 -36 -113 -51 -188 -51c-47 0 -84 22 -84 73c0 19 5 37 11 56c12 38 31 74 64 96c54 36 114 50 189 50z" fill="currentColor"/>
<path transform="translate(73.3039, 43.0126) scale(0.0040, -0.0040)" d="M315 65c0 24 -21 41 -42 41c-4 0 -8 0 -12 -1c-31 -9 -77 -40 -114 -64s-84 -53 -104 -78c-7 -8 -11 -18 -11 -28c0 -24 21 -41 42 -41c4 0 8 0 12 1c31 9 78 40 115 64s84 53 104 78c7 8 10 18 10 28zM264 137c47 0 83 -21 83 -72c0 -19 -4 -37 -10 -56
c-12 -38 -32 -74 -65 -96c-54 -36 -113 -51 -188 -51c-47 0 -84 22 -84 73c0 19 5 37 11 56c12 38 31 74 64 96c54 36 114 50 189 50z" fill="currentColor"/>
<rect transform="translate(73.3689, 6.4119)" x="-0.0650" y="0.1374" width="0.1300" height="2.2437" ry="0.0400" fill="currentColor"/>
<path transform="translate(66.5700, 33.4119) scale(0.0040, -0.0040)" d="M-23 -116c0 28 11 42 40 42c33 0 78 -13 119 -31l-132 158c-7 9 -10 17 -10 25c0 34 50 66 87 99c25 22 37 52 37 83c0 24 -8 49 -25 69l-35 42c-3 3 -4 7 -4 10c0 9 9 15 17 15c4 0 8 -1 11 -5l151 -180c7 -9 10 -17 10 -25c0 -34 -50 -66 -87 -99
c-25 -22 -37 -52 -37 -83c0 -24 7 -49 24 -69l84 -99c3 -3 4 -7 4 -10c0 -9 -8 -16 -16 -16c-4 0 -9 2 -12 6c-18 21 -63 38 -97 38c-41 0 -53 -26 -53 -67c0 -35 11 -74 28 -94c5 -6 0 -13 -6 -13c-2 0 -4 0 -6 2c-45 54 -92 148 -92 202z" fill="currentColor"/>
<path transform="translate(66.5700, 45.0126) scale(0.0040, -0.0040)" d="M-23 -116c0 28 11 42 40 42c33 0 78 -13 119 -31l-132 158c-7 9 -10 17 -10 25c0 34 50 66 87 99c25 22 37 52 37 83c0 24 -8 49 -25 69l-35 42c-3 3 -4 7 -4 10c0 9 9 15 17 15c4 0 8 -1 11 -5l151 -180c7 -9 10 -17 10 -25c0 -34 -50 -66 -87 -99
c-25 -22 -37 -52 -37 -83c0 -24 7 -49 24 -69l84 -99c3 -3 4 -7 4 -10c0 -9 -8 -16 -16 -16c-4 0 -9 2 -12 6c-18 21 -63 38 -97 38c-41 0 -53 -26 -53 -67c0 -35 11 -74 28 -94c5 -6 0 -13 -6 -13c-2 0 -4 0 -6 2c-45 54 -92 148 -92 202z" fill="currentColor"/>
<rect transform="translate(66.6350, 6.4119)" x="-0.0650" y="-3.8311" width="0.1300" height="3.9681" ry="0.0400" fill="currentColor"/>
<path transform="translate(69.0634, 0.8560) scale(0.0032, -0.0032)" d="M214 140c59 0 115 -32 115 -97c0 -72 -54 -121 -101 -149c-35 -21 -74 -34 -114 -34c-59 0 -114 32 -114 97c0 72 54 121 101 149c35 21 73 34 113 34z" fill="currentColor"/>
<rect transform="translate(69.1284, 6.4119)" x="-0.0650" y="-5.4185" width="0.1300" height="5.4220" ry="0.0400" fill="currentColor"/>
<polygon transform="translate(58.3897, 6.4119)" stroke-linejoin="round" stroke-linecap="round" stroke-width="0.0800" fill="currentColor" stroke="currentColor" points="2.3334 -0.1505 2.3334 0.1505 0.0400 0.1505 0.0400 -0.1505"/>
<polygon transform="translate(49.8065, 30.2219)" stroke-linejoin="round" stroke-linecap="round" stroke-width="0.0800" fill="currentColor" stroke="currentColor" points="2.9466 -0.5100 2.9466 -0.1100 0.0400 0.2000 0.0400 -0.2000"/>
<path transform="translate(58.3897, 6.4119)" stroke-width="0.0800" stroke-linejoin="round" stroke-linecap="round" stroke="currentColor" fill="currentColor" d="M0.521705807359332 -4.0149763713676C1.11104897735898 -4.58699558411021 2.17577425207835 -4.58699558411021 2.765117422078 -4.0149763713676C2.17577425207835 -4.46699558411021 1.11104897735898 -4.46699558411021 0.521705807359332 -4.0149763713676z"/>
<polygon transform="translate(38.6957, 38.2219)" stroke-linejoin="round" stroke-linecap="round" stroke-width="0.0800" fill="currentColor" stroke="currentColor" points="3.1574 -0.2000 3.1574 0.2000 0.0400 0.2000 0.0400 -0.2000"/>
<polygon transform="translate(39.8818, 30.4119)" stroke-linejoin="round" stroke-linecap="round" stroke-width="0.0800" fill="currentColor" stroke="currentColor" points="3.1574 -0.2000 3.1574 0.2000 0.0400 0.2000 0.0400 -0.2000"/>
<polygon transform="translate(25.9469, 37.9119)" stroke-linejoin="round" stroke-linecap="round" stroke-width="0.0800" fill="currentColor" stroke="currentColor" points="4.6562 0.1100 4.6562 0.5100 0.0400 0.2000 0.0400 -0.2000"/>
<polygon transform="translate(27.1331, 31.4119)" stroke-linejoin="round" stroke-linecap="round" stroke-width="0.0800" fill="currentColor" stroke="currentColor" points="4.6562 -0.3900 4.6562 0.0100 0.0400 0.2000 0.0400 -0.2000"/>
<path transform="translate(43.0747, 23.6182) scale(0.0032, -0.0032)" d="M362 -156h-349c-7 0 -13 5 -13 12v131c0 7 6 13 13 13h349c7 0 13 -6 13 -13v-131c0 -7 -6 -12 -13 -12z" fill="currentColor"/>
<path transform="translate(43.0747, 14.6182) scale(0.0032, -0.0032)" d="M362 -156h-349c-7 0 -13 5 -13 12v131c0 7 6 13 13 13h349c7 0 13 -6 13 -13v-131c0 -7 -6 -12 -13 -12z" fill="currentColor"/>
<path transform="translate(43.0747, 5.6182) scale(0.0032, -0.0032)" d="M362 -156h-349c-7 0 -13 5 -13 12v131c0 7 6 13 13 13h349c7 0 13 -6 13 -13v-131c0 -7 -6 -12 -13 -12z" fill="currentColor"/>
<polygon transform="translate(21.8507, 32.6019)" stroke-linejoin="round" stroke-linecap="round" stroke-width="0.0800" fill="currentColor" stroke="currentColor" points="2.6062 -0.3900 2.6062 0.0100 0.0400 0.2000 0.0400 -0.2000"/>
<path transform="translate(16.9484, 33.4119)" stroke-width="0.1000" stroke-linejoin="round" stroke-linecap="round" stroke="currentColor" fill="currentColor" d="M1.616178 -0.200006C4.44803835138051 -3.70285986590283 39.1098368170283 -6.12496905337263 42.4013441428571 -3.050006C39.1175047368549 -6.01523663789966 4.45570627120711 -3.59312745042986 1.616178 -0.200006z"/>
<polygon transform="translate(96.7431, 4.9650)" stroke-linejoin="round" stroke-linecap="round" stroke-width="0.0800" fill="currentColor" stroke="currentColor" points="2.3334 -0.4315 2.3334 -0.1305 0.0400 0.1505 0.0400 -0.1505"/>
<polygon transform="translate(92.0062, 5.7587)" stroke-linejoin="round" stroke-linecap="round" stroke-width="0.0800" fill="currentColor" stroke="currentColor" points="2.3334 -0.4315 2.3334 -0.1305 0.0400 0.1505 0.0400 -0.1505"/>
<path transform="translate(95.8296, 6.4119)" stroke-width="0.0800" stroke-linejoin="round" stroke-linecap="round" stroke="currentColor" fill="currentColor" d="M0.599653859034206 1.75292987231291C1.31684619245404 2.18636389580529 2.38725491215961 1.94020774109953 2.84306547375287 1.23702453042325C2.36036111664582 1.82326021541873 1.28995239694025 2.06941637012448 0.599653859034206 1.75292987231291z"/>
<path transform="translate(87.4676, 6.4119)" stroke-width="0.0800" stroke-linejoin="round" stroke-linecap="round" stroke="currentColor" fill="currentColor" d="M0.521705807359339 2.4275753193994C1.70765111983576 3.46543713347533 5.20442798117446 3.46543713347533 6.39037329365088 2.4275753193994C5.20442798117446 3.34543713347533 1.70765111983576 3.34543713347533 0.521705807359339 2.4275753193994z"/>
<polygon transform="translate(81.8907, 7.2056)" stroke-linejoin="round" stroke-linecap="round" stroke-width="0.0800" fill="currentColor" stroke="currentColor" points="2.5834 -0.8037 2.5834 -0.5027 0.0400 0.1505 0.0400 -0.1505"/>
<path transform="translate(81.8907, 6.4119)" stroke-width="0.0800" stroke-linejoin="round" stroke-linecap="round" stroke="currentColor" fill="currentColor" d="M0.334921102630403 -2.03072505640735C0.578593246197909 -3.01336760852092 1.83489555173797 -3.81317763171654 2.82833271734907 -3.61812610837555C1.89934039091158 -3.71195084324685 0.643038085371517 -2.91214082005123 0.334921102630403 -2.03072505640735z"/>
<polygon transform="translate(73.3039, 8.7930)" stroke-linejoin="round" stroke-linecap="round" stroke-width="0.0800" fill="currentColor" stroke="currentColor" points="2.3334 -0.1505 2.3334 0.1505 0.0400 0.1505 0.0400 -0.1505"/>
<path transform="translate(77.7907, 24.4119)" stroke-width="0.0800" stroke-linejoin="round" stroke-linecap="round" stroke="currentColor" fill="currentColor" d="M0.609647459200531 -2.03072505640735C1.75604159146858 -2.63814537774507 4.00702586747742 -2.04987220818465 4.70964745920053 -0.959229346328814C3.97668405968437 -1.93377149888514 1.72569978367553 -2.52204466844556 0.609647459200531 -2.03072505640735z"/>
<path transform="translate(77.7907, 15.4119)" stroke-width="0.0800" stroke-linejoin="round" stroke-linecap="round" stroke="currentColor" fill="currentColor" d="M0.455603239395799 -0.959229346328814C1.21879330229636 -1.99328253521845 3.46165468895445 -2.42746796504771 4.55560323939579 -1.75292987231291C3.4844615315573 -2.30965519863214 1.24160014489921 -1.87546976880288 0.455603239395799 -0.959229346328814z"/>
<path transform="translate(73.3039, 33.4119)" stroke-width="0.1000" stroke-linejoin="round" stroke-linecap="round" stroke="currentColor" fill="currentColor" d="M0.678603295046614 4.050006C2.74735491081339 5.842968061576 12.615888270393 6.19223204866794 14.8062169687999 4.550006C12.619778919436 6.08230087542748 2.75124555985643 5.73303688833554 0.678603295046614 4.050006z"/>
<path transform="translate(73.3039, 6.4119)" stroke-width="0.0800" stroke-linejoin="round" stroke-linecap="round" stroke="currentColor" fill="currentColor" d="M0.521705807359339 -1.75292987231291C1.11104897735899 -2.32494908505553 2.17577425207836 -2.32494908505553 2.76511742207801 -1.75292987231291C2.17577425207836 -2.20494908505553 1.11104897735899 -2.20494908505553 0.521705807359339 -1.75292987231291z"/>
<polygon transform="translate(66.5700, 6.5524)" stroke-linejoin="round" stroke-linecap="round" stroke-width="0.0800" fill="currentColor" stroke="currentColor" points="2.5834 -0.2910 2.5834 0.0100 0.0400 0.1505 0.0400 -0.1505"/>
<path transform="translate(66.5700, 6.4119)" stroke-width="0.0800" stroke-linejoin="round" stroke-linecap="round" stroke="currentColor" fill="currentColor" d="M0.334921102630403 -4.8086768973517C0.578593246197909 -5.79131944946527 1.83489555173797 -6.59112947266089 2.82833271734907 -6.3960779493199C1.89934039091158 -6.4899026841912 0.643038085371517 -5.69009266099558 0.334921102630403 -4.8086768973517z"/>
<path transform="translate(59.8501, 13.4276) scale(0.0032, -0.0032)" d="M0 0c0 30 25 55 55 55s55 -25 55 -55s-25 -55 -55 -55s-55 25 -55 55z" fill="currentColor"/>
<rect transform="translate(58.4547, 15.4119)" x="-0.0650" y="-2.5810" width="0.1300" height="3.7715" ry="0.0400" fill="currentColor"/>
<path transform="translate(59.8501, 12.6339) scale(0.0032, -0.0032)" d="M0 0c0 30 25 55 55 55s55 -25 55 -55s-25 -55 -55 -55s-55 25 -55 55z" fill="currentColor"/>
<path transform="translate(57.1667, 12.6339) scale(0.0032, -0.0032)" d="M198 -329c-12 0 -21 9 -21 21v138l-79 -30v-154c0 -12 -9 -21 -21 -21s-21 9 -21 21v138l-22 -8c-3 -1 -6 -2 -9 -2c-13 0 -25 11 -25 25v54c0 10 6 20 16 24l40 15v155l-22 -9c-3 -1 -6 -1 -9 -1c-13 0 -25 11 -25 25v54c0 10 6 19 16 23l40 15v154c0 12 9 21 21 21
s21 -9 21 -21v-138l79 30v154c0 12 9 21 21 21s21 -9 21 -21v-138l22 8c3 1 6 2 9 2c13 0 25 -11 25 -25v-54c0 -10 -6 -20 -16 -24l-40 -15v-155l22 9c3 1 6 1 9 1c13 0 25 -11 25 -25v-54c0 -10 -6 -19 -16 -23l-40 -15v-154c0 -12 -9 -21 -21 -21zM98 62v-154l79 30v154z
" fill="currentColor"/>
<path transform="translate(59.8501, 25.6024) scale(0.0032, -0.0032)" d="M0 0c0 30 25 55 55 55s55 -25 55 -55s-25 -55 -55 -55s-55 25 -55 55z" fill="currentColor"/>
<rect transform="translate(59.4347, 24.4119)" x="-0.0650" y="-1.5874" width="0.1300" height="2.5810" ry="0.0400" fill="currentColor"/>
<path transform="translate(58.9114, 2.8731) scale(0.0032, -0.0032)" d="M-50 0c0 28 22 50 50 50s50 -22 50 -50s-22 -50 -50 -50s-50 22 -50 50z" fill="currentColor"/>
<path transform="translate(58.3897, 13.8245) scale(0.0032, -0.0032)" d="M312 63c0 23 -20 40 -41 40c-4 0 -7 -1 -11 -2c-30 -8 -75 -38 -111 -61s-81 -52 -101 -76c-7 -8 -10 -17 -10 -27c0 -23 19 -40 40 -40c4 0 8 1 12 2c30 8 75 38 111 61s81 52 101 76c7 8 10 17 10 27zM258 140c51 0 92 -23 92 -78c0 -19 -4 -38 -10 -56
c-11 -38 -31 -75 -64 -97c-53 -36 -112 -49 -185 -49c-51 0 -91 23 -91 78c0 19 4 38 10 56c11 38 30 75 63 97c53 36 112 49 185 49z" fill="currentColor"/>
<path transform="translate(58.3897, 12.6339) scale(0.0032, -0.0032)" d="M312 63c0 23 -20 40 -41 40c-4 0 -7 -1 -11 -2c-30 -8 -75 -38 -111 -61s-81 -52 -101 -76c-7 -8 -10 -17 -10 -27c0 -23 19 -40 40 -40c4 0 8 1 12 2c30 8 75 38 111 61s81 52 101 76c7 8 10 17 10 27zM258 140c51 0 92 -23 92 -78c0 -19 -4 -38 -10 -56
c-11 -38 -31 -75 -64 -97c-53 -36 -112 -49 -185 -49c-51 0 -91 23 -91 78c0 19 4 38 10 56c11 38 30 75 63 97c53 36 112 49 185 49z" fill="currentColor"/>
<g transform="translate(57.7668, 19.0278)" >
<path transform="scale(0.0032, -0.0032)" d="M180 217c0 9 8 16 8 25c0 12 -8 22 -19 22c-24 0 -45 -17 -45 -40c0 -17 16 -28 31 -36c34 -18 69 -41 69 -78c0 -63 -56 -110 -121 -110c-43 0 -80 31 -80 72c0 21 12 42 31 42c18 0 33 -15 33 -33c0 -13 -22 -15 -22 -28c0 -14 17 -21 33 -21c34 0 66 18 66 49
c0 57 -100 59 -100 115c0 53 42 96 95 96c57 0 81 -35 81 -63c0 -19 -11 -34 -29 -34s-31 11 -31 22z" fill="currentColor"/>

<path transform="translate(0.6487, 0.0000) scale(0.0032, -0.0032)" d="M252 237l-49 -160c-30 -99 -121 -255 -218 -255c-46 0 -87 32 -87 76c0 39 17 77 52 77c24 0 44 -20 44 -44c0 -30 -38 -25 -38 -55c0 -10 11 -10 23 -10h6c46 0 61 54 73 102l67 269h-45c-12 0 -22 10 -22 22s10 23 22 23h58c32 95 118 187 212 187c46 0 87 -31 87 -75
c0 -39 -17 -78 -52 -78c-24 0 -44 20 -44 44c0 30 38 25 38 55c0 10 -10 11 -22 11h-7c-58 0 -69 -81 -85 -144h50c12 0 23 -11 23 -23s-11 -22 -23 -22h-63z" fill="currentColor"/>

<path transform="translate(1.6730, 0.0000) scale(0.0032, -0.0032)" d="M228 309c32 0 59 -14 59 -42c0 -24 -20 -47 -42 -47c-13 0 -24 5 -29 15c-7 13 -5 31 -25 31c-21 0 -52 -22 -58 -44l-52 -201c-3 -12 -14 -21 -26 -21h-34c-12 0 -19 9 -16 21l58 223c1 4 2 8 2 12c0 11 -5 20 -16 20c-21 0 -45 -33 -51 -57c-5 -8 -12 -12 -19 -12
c-8 0 -14 5 -14 13c0 3 1 7 3 11c12 46 54 77 100 77c30 0 54 -13 67 -35c28 23 62 36 93 36z" fill="currentColor"/>
</g>
<path transform="translate(58.3897, 25.6024) scale(0.0032, -0.0032)" d="M312 63c0 23 -20 40 -41 40c-4 0 -7 -1 -11 -2c-30 -8 -75 -38 -111 -61s-81 -52 -101 -76c-7 -8 -10 -17 -10 -27c0 -23 19 -40 40 -40c4 0 8 1 12 2c30 8 75 38 111 61s81 52 101 76c7 8 10 17 10 27zM258 140c51 0 92 -23 92 -78c0 -19 -4 -38 -10 -56
c-11 -38 -31 -75 -64 -97c-53 -36 -112 -49 -185 -49c-51 0 -91 23 -91 78c0 19 4 38 10 56c11 38 30 75 63 97c53 36 112 49 185 49z" fill="currentColor"/>
<g transform="translate(57.7668, 28.0278)" >
<path transform="scale(0.0032, -0.0032)" d="M180 217c0 9 8 16 8 25c0 12 -8 22 -19 22c-24 0 -45 -17 -45 -40c0 -17 16 -28 31 -36c34 -18 69 -41 69 -78c0 -63 -56 -110 -121 -110c-43 0 -80 31 -80 72c0 21 12 42 31 42c18 0 33 -15 33 -33c0 -13 -22 -15 -22 -28c0 -14 17 -21 33 -21c34 0 66 18 66 49
c0 57 -100 59 -100 115c0 53 42 96 95 96c57 0 81 -35 81 -63c0 -19 -11 -34 -29 -34s-31 11 -31 22z" fill="currentColor"/>

<path transform="translate(0.6487, 0.0000) scale(0.0032, -0.0032)" d="M252 237l-49 -160c-30 -99 -121 -255 -218 -255c-46 0 -87 32 -87 76c0 39 17 77 52 77c24 0 44 -20 44 -44c0 -30 -38 -25 -38 -55c0 -10 11 -10 23 -10h6c46 0 61 54 73 102l67 269h-45c-12 0 -22 10 -22 22s10 23 22 23h58c32 95 118 187 212 187c46 0 87 -31 87 -75
c0 -39 -17 -78 -52 -78c-24 0 -44 20 -44 44c0 30 38 25 38 55c0 10 -10 11 -22 11h-7c-58 0 -69 -81 -85 -144h50c12 0 23 -11 23 -23s-11 -22 -23 -22h-63z" fill="currentColor"/>

<path transform="translate(1.6730, 0.0000) scale(0.0032, -0.0032)" d="M228 309c32 0 59 -14 59 -42c0 -24 -20 -47 -42 -47c-13 0 -24 5 -29 15c-7 13 -5 31 -25 31c-21 0 -52 -22 -58 -44l-52 -201c-3 -12 -14 -21 -26 -21h-34c-12 0 -19 9 -16 21l58 223c1 4 2 8 2 12c0 11 -5 20 -16 20c-21 0 -45 -33 -51 -57c-5 -8 -12 -12 -19 -12
c-8 0 -14 5 -14 13c0 3 1 7 3 11c12 46 54 77 100 77c30 0 54 -13 67 -35c28 23 62 36 93 36z" fill="currentColor"/>
</g>
<path transform="translate(58.3897, 31.9119) scale(0.0040, -0.0040)" d="M315 65c0 24 -21 41 -42 41c-4 0 -8 0 -12 -1c-31 -9 -77 -40 -114 -64s-84 -53 -104 -78c-7 -8 -11 -18 -11 -28c0 -24 21 -41 42 -41c4 0 8 0 12 1c31 9 78 40 115 64s84 53 104 78c7 8 10 18 10 28zM264 137c47 0 83 -21 83 -72c0 -19 -4 -37 -10 -56
c-12 -38 -32 -74 -65 -96c-54 -36 -113 -51 -188 -51c-47 0 -84 22 -84 73c0 19 5 37 11 56c12 38 31 74 64 96c54 36 114 50 189 50z" fill="currentColor"/>
<path transform="translate(58.3897, 34.4119) scale(0.0040, -0.0040)" d="M315 65c0 24 -21 41 -42 41c-4 0 -8 0 -12 -1c-31 -9 -77 -40 -114 -64s-84 -53 -104 -78c-7 -8 -11 -18 -11 -28c0 -24 21 -41 42 -41c4 0 8 0 12 1c31 9 78 40 115 64s84 53 104 78c7 8 10 18 10 28zM264 137c47 0 83 -21 83 -72c0 -19 -4 -37 -10 -56
c-12 -38 -32 -74 -65 -96c-54 -36 -113 -51 -188 -51c-47 0 -84 22 -84 73c0 19 5 37 11 56c12 38 31 74 64 96c54 36 114 50 189 50z" fill="currentColor"/>
<path transform="translate(57.0647, 33.4119) scale(0.0040, -0.0040)" d="M315 65c0 24 -21 41 -42 41c-4 0 -8 0 -12 -1c-31 -9 -77 -40 -114 -64s-84 -53 -104 -78c-7 -8 -11 -18 -11 -28c0 -24 21 -41 42 -41c4 0 8 0 12 1c31 9 78 40 115 64s84 53 104 78c7 8 10 18 10 28zM264 137c47 0 83 -21 83 -72c0 -19 -4 -37 -10 -56
c-12 -38 -32 -74 -65 -96c-54 -36 -113 -51 -188 -51c-47 0 -84 22 -84 73c0 19 5 37 11 56c12 38 31 74 64 96c54 36 114 50 189 50z" fill="currentColor"/>
<path transform="translate(58.3897, 32.9119) scale(0.0040, -0.0040)" d="M315 65c0 24 -21 41 -42 41c-4 0 -8 0 -12 -1c-31 -9 -77 -40 -114 -64s-84 -53 -104 -78c-7 -8 -11 -18 -11 -28c0 -24 21 -41 42 -41c4 0 8 0 12 1c31 9 78 40 115 64s84 53 104 78c7 8 10 18 10 28zM264 137c47 0 83 -21 83 -72c0 -19 -4 -37 -10 -56
c-12 -38 -32 -74 -65 -96c-54 -36 -113 -51 -188 -51c-47 0 -84 22 -84 73c0 19 5 37 11 56c12 38 31 74 64 96c54 36 114 50 189 50z" fill="currentColor"/>
<path transform="translate(58.3897, 46.5126) scale(0.0040, -0.0040)" d="M315 65c0 24 -21 41 -42 41c-4 0 -8 0 -12 -1c-31 -9 -77 -40 -114 -64s-84 -53 -104 -78c-7 -8 -11 -18 -11 -28c0 -24 21 -41 42 -41c4 0 8 0 12 1c31 9 78 40 115 64s84 53 104 78c7 8 10 18 10 28zM264 137c47 0 83 -21 83 -72c0 -19 -4 -37 -10 -56
c-12 -38 -32 -74 -65 -96c-54 -36 -113 -51 -188 -51c-47 0 -84 22 -84 73c0 19 5 37 11 56c12 38 31 74 64 96c54 36 114 50 189 50z" fill="currentColor"/>
<path transform="translate(58.3897, 44.5126) scale(0.0040, -0.0040)" d="M315 65c0 24 -21 41 -42 41c-4 0 -8 0 -12 -1c-31 -9 -77 -40 -114 -64s-84 -53 -104 -78c-7 -8 -11 -18 -11 -28c0 -24 21 -41 42 -41c4 0 8 0 12 1c31 9 78 40 115 64s84 53 104 78c7 8 10 18 10 28zM264 137c47 0 83 -21 83 -72c0 -19 -4 -37 -10 -56
c-12 -38 -32 -74 -65 -96c-54 -36 -113 -51 -188 -51c-47 0 -84 22 -84 73c0 19 5 37 11 56c12 38 31 74 64 96c54 36 114 50 189 50z" fill="currentColor"/>
<path transform="translate(58.3897, 43.0126) scale(0.0040, -0.0040)" d="M315 65c0 24 -21 41 -42 41c-4 0 -8 0 -12 -1c-31 -9 -77 -40 -114 -64s-84 -53 -104 -78c-7 -8 -11 -18 -11 -28c0 -24 21 -41 42 -41c4 0 8 0 12 1c31 9 78 40 115 64s84 53 104 78c7 8 10 18 10 28zM264 137c47 0 83 -21 83 -72c0 -19 -4 -37 -10 -56
c-12 -38 -32 -74 -65 -96c-54 -36 -113 -51 -188 -51c-47 0 -84 22 -84 73c0 19 5 37 11 56c12 38 31 74 64 96c54 36 114 50 189 50z" fill="currentColor"/>
<rect transform="translate(58.4547, 6.4119)" x="-0.0650" y="-2.6405" width="0.1300" height="2.6405" ry="0.0400" fill="currentColor"/>
<path transform="translate(60.6331, 3.6339) scale(0.0032, -0.0032)" d="M214 140c59 0 115 -32 115 -97c0 -72 -54 -121 -101 -149c-35 -21 -74 -34 -114 -34c-59 0 -114 32 -114 97c0 72 54 121 101 149c35 21 73 34 113 34z" fill="currentColor"/>
<path transform="translate(61.1548, 2.8731) scale(0.0032, -0.0032)" d="M-50 0c0 28 22 50 50 50s50 -22 50 -50s-22 -50 -50 -50s-50 22 -50 50z" fill="currentColor"/>
<rect transform="translate(60.6981, 6.4119)" x="-0.0650" y="-2.6405" width="0.1300" height="2.6405" ry="0.0400" fill="currentColor"/>
<path transform="translate(62.8765, 3.6339) scale(0.0032, -0.0032)" d="M214 140c59 0 115 -32 115 -97c0 -72 -54 -121 -101 -149c-35 -21 -74 -34 -114 -34c-59 0 -114 32 -114 97c0 72 54 121 101 149c35 21 73 34 113 34z" fill="currentColor"/>
<rect transform="translate(62.9415, 6.4119)" x="-0.0650" y="-2.6405" width="0.1300" height="2.6405" ry="0.0400" fill="currentColor"/>
<path transform="translate(66.5700, 2.4434) scale(0.0032, -0.0032)" d="M214 140c59 0 115 -32 115 -97c0 -72 -54 -121 -101 -149c-35 -21 -74 -34 -114 -34c-59 0 -114 32 -114 97c0 72 54 121 101 149c35 21 73 34 113 34z" fill="currentColor"/>
<rect transform="translate(59.7147, 33.4119)" x="-0.0650" y="-4.3333" width="0.1300" height="2.5719" ry="0.0400" fill="currentColor"/>
<rect transform="translate(58.4547, 33.4119)" x="-0.0650" y="-0.2386" width="0.1300" height="4.2386" ry="0.0400" fill="currentColor"/>
<path transform="translate(54.7411, 34.4119) scale(0.0040, -0.0040)" d="M-8 375c8 4 17 7 26 7s17 -3 25 -7l-3 -183l106 20h3c10 0 18 -7 18 -17l7 -570c-8 -4 -16 -7 -25 -7s-17 3 -25 7l3 183l-106 -20h-3c-10 0 -18 7 -18 17zM131 112l-92 -17l-3 -207l92 17z" fill="currentColor"/>
<path transform="translate(55.6147, 32.9119) scale(0.0040, -0.0040)" d="M216 -312c0 -10 -8 -19 -18 -19s-19 9 -19 19v145l-83 -31v-158c0 -10 -9 -19 -19 -19s-18 9 -18 19v145l-32 -12c-2 -1 -5 -1 -7 -1c-11 0 -20 9 -20 20v60c0 8 5 16 13 19l46 16v160l-32 -11c-2 -1 -5 -1 -7 -1c-11 0 -20 9 -20 20v60c0 8 5 15 13 18l46 17v158
c0 10 8 19 18 19s19 -9 19 -19v-145l83 31v158c0 10 9 19 19 19s18 -9 18 -19v-145l32 12c2 1 5 1 7 1c11 0 20 -9 20 -20v-60c0 -8 -5 -16 -13 -19l-46 -16v-160l32 11c2 1 5 1 7 1c11 0 20 -9 20 -20v-60c0 -8 -5 -15 -13 -18l-46 -17v-158zM96 65v-160l83 30v160z" fill="currentColor"/>
<rect transform="translate(58.4547, 45.0126)" x="-0.0650" y="-1.7386" width="0.1300" height="6.0719" ry="0.0400" fill="currentColor"/>
<path transform="translate(77.7907, 6.4119) scale(0.0032, -0.0032)" d="M214 140c59 0 115 -32 115 -97c0 -72 -54 -121 -101 -149c-35 -21 -74 -34 -114 -34c-59 0 -114 32 -114 97c0 72 54 121 101 149c35 21 73 34 113 34z" fill="currentColor"/>
<text transform="translate(78.3125, 9.8571)" font-family="Lyon Text" font-style="italic" font-size="1.7461" text-anchor="start" fill="currentColor">
<tspan>
dim. molto</tspan>
</text>
<path transform="translate(77.7907, 15.4119) scale(0.0032, -0.0032)" d="M214 140c59 0 115 -32 115 -97c0 -72 -54 -121 -101 -149c-35 -21 -74 -34 -114 -34c-59 0 -114 32 -114 97c0 72 54 121 101 149c35 21 73 34 113 34z" fill="currentColor"/>
<text transform="translate(78.3125, 19.8492)" font-family="Lyon Text" font-style="italic" font-size="1.7461" text-anchor="start" fill="currentColor">
<tspan>
dim. molto</tspan>
</text>
<path transform="translate(77.7907, 23.2213) scale(0.0032, -0.0032)" d="M214 140c59 0 115 -32 115 -97c0 -72 -54 -121 -101 -149c-35 -21 -74 -34 -114 -34c-59 0 -114 32 -114 97c0 72 54 121 101 149c35 21 73 34 113 34z" fill="currentColor"/>
<text transform="translate(78.3125, 28.8492)" font-family="Lyon Text" font-style="italic" font-size="1.7461" text-anchor="start" fill="currentColor">
<tspan>
dim. molto</tspan>
</text>
<text transform="translate(78.3125, 41.1452)" font-family="Lyon Text" font-style="italic" font-size="2.2001" text-anchor="start" fill="currentColor">
<tspan>
dim. molto</tspan>
</text>
<rect transform="translate(77.8557, 6.4119)" x="-0.0650" y="0.1374" width="0.1300" height="2.5082" ry="0.0400" fill="currentColor"/>
<rect transform="translate(77.8557, 15.4119)" x="-0.0650" y="0.1374" width="0.1300" height="2.5082" ry="0.0400" fill="currentColor"/>
<path transform="translate(76.5677, 15.4119) scale(0.0032, -0.0032)" d="M198 -329c-12 0 -21 9 -21 21v138l-79 -30v-154c0 -12 -9 -21 -21 -21s-21 9 -21 21v138l-22 -8c-3 -1 -6 -2 -9 -2c-13 0 -25 11 -25 25v54c0 10 6 20 16 24l40 15v155l-22 -9c-3 -1 -6 -1 -9 -1c-13 0 -25 11 -25 25v54c0 10 6 19 16 23l40 15v154c0 12 9 21 21 21
s21 -9 21 -21v-138l79 30v154c0 12 9 21 21 21s21 -9 21 -21v-138l22 8c3 1 6 2 9 2c13 0 25 -11 25 -25v-54c0 -10 -6 -20 -16 -24l-40 -15v-155l22 9c3 1 6 1 9 1c13 0 25 -11 25 -25v-54c0 -10 -6 -19 -16 -23l-40 -15v-154c0 -12 -9 -21 -21 -21zM98 62v-154l79 30v154z
" fill="currentColor"/>
<rect transform="translate(77.8557, 24.4119)" x="-0.0650" y="-1.0531" width="0.1300" height="2.6405" ry="0.0400" fill="currentColor"/>
<path transform="translate(71.8539, 36.4119) scale(0.0040, -0.0040)" d="M216 -312c0 -10 -8 -19 -18 -19s-19 9 -19 19v145l-83 -31v-158c0 -10 -9 -19 -19 -19s-18 9 -18 19v145l-32 -12c-2 -1 -5 -1 -7 -1c-11 0 -20 9 -20 20v60c0 8 5 16 13 19l46 16v160l-32 -11c-2 -1 -5 -1 -7 -1c-11 0 -20 9 -20 20v60c0 8 5 15 13 18l46 17v158
c0 10 8 19 18 19s19 -9 19 -19v-145l83 31v158c0 10 9 19 19 19s18 -9 18 -19v-145l32 12c2 1 5 1 7 1c11 0 20 -9 20 -20v-60c0 -8 -5 -16 -13 -19l-46 -16v-160l32 11c2 1 5 1 7 1c11 0 20 -9 20 -20v-60c0 -8 -5 -15 -13 -18l-46 -17v-158zM96 65v-160l83 30v160z" fill="currentColor"/>
<rect transform="translate(73.3689, 45.0126)" x="-0.0650" y="-1.7386" width="0.1300" height="6.0719" ry="0.0400" fill="currentColor"/>
<path transform="translate(75.5473, 6.4119) scale(0.0032, -0.0032)" d="M214 140c59 0 115 -32 115 -97c0 -72 -54 -121 -101 -149c-35 -21 -74 -34 -114 -34c-59 0 -114 32 -114 97c0 72 54 121 101 149c35 21 73 34 113 34z" fill="currentColor"/>
<path transform="translate(76.0690, 5.2213) scale(0.0032, -0.0032)" d="M-50 0c0 28 22 50 50 50s50 -22 50 -50s-22 -50 -50 -50s-50 22 -50 50z" fill="currentColor"/>
<rect transform="translate(75.6123, 6.4119)" x="-0.0650" y="0.1374" width="0.1300" height="2.2437" ry="0.0400" fill="currentColor"/>
<path transform="translate(80.9852, 15.4119) scale(0.0032, -0.0032)" d="M-9 375c8 5 19 7 28 7s19 -2 27 -7l-3 -192l101 23h4c10 0 19 -8 19 -18l8 -563c-8 -5 -18 -7 -27 -7s-19 2 -27 7l3 192l-101 -23h-4c-10 0 -19 8 -19 18zM128 110l-87 -19l-3 -201l87 19z" fill="currentColor"/>
<rect transform="translate(81.9557, 24.4119)" x="-0.0650" y="0.1374" width="0.1300" height="2.5082" ry="0.0400" fill="currentColor"/>
<rect transform="translate(83.1419, 33.4119)" x="-0.0650" y="-3.3333" width="0.1300" height="6.1455" ry="0.0400" fill="currentColor"/>
<path transform="translate(79.5671, 36.4119) scale(0.0040, -0.0040)" d="M-8 375c8 4 17 7 26 7s17 -3 25 -7l-3 -183l106 20h3c10 0 18 -7 18 -17l7 -570c-8 -4 -16 -7 -25 -7s-17 3 -25 7l3 183l-106 -20h-3c-10 0 -18 7 -18 17zM131 112l-92 -17l-3 -207l92 17z" fill="currentColor"/>
<path transform="translate(80.4407, 34.9119) scale(0.0040, -0.0040)" d="M216 -312c0 -10 -8 -19 -18 -19s-19 9 -19 19v145l-83 -31v-158c0 -10 -9 -19 -19 -19s-18 9 -18 19v145l-32 -12c-2 -1 -5 -1 -7 -1c-11 0 -20 9 -20 20v60c0 8 5 16 13 19l46 16v160l-32 -11c-2 -1 -5 -1 -7 -1c-11 0 -20 9 -20 20v60c0 8 5 15 13 18l46 17v158
c0 10 8 19 18 19s19 -9 19 -19v-145l83 31v158c0 10 9 19 19 19s18 -9 18 -19v-145l32 12c2 1 5 1 7 1c11 0 20 -9 20 -20v-60c0 -8 -5 -16 -13 -19l-46 -16v-160l32 11c2 1 5 1 7 1c11 0 20 -9 20 -20v-60c0 -8 -5 -15 -13 -18l-46 -17v-158zM96 65v-160l83 30v160z" fill="currentColor"/>
<rect transform="translate(83.1419, 45.0126)" x="-0.0650" y="-3.3333" width="0.1300" height="6.6455" ry="0.0400" fill="currentColor"/>
<path transform="translate(81.8907, 5.2213) scale(0.0032, -0.0032)" d="M214 140c59 0 115 -32 115 -97c0 -72 -54 -121 -101 -149c-35 -21 -74 -34 -114 -34c-59 0 -114 32 -114 97c0 72 54 121 101 149c35 21 73 34 113 34z" fill="currentColor"/>
<path transform="translate(81.8907, 15.4119) scale(0.0032, -0.0032)" d="M214 140c59 0 115 -32 115 -97c0 -72 -54 -121 -101 -149c-35 -21 -74 -34 -114 -34c-59 0 -114 32 -114 97c0 72 54 121 101 149c35 21 73 34 113 34z" fill="currentColor"/>
<path transform="translate(81.8907, 14.6182) scale(0.0032, -0.0032)" d="M214 140c59 0 115 -32 115 -97c0 -72 -54 -121 -101 -149c-35 -21 -74 -34 -114 -34c-59 0 -114 32 -114 97c0 72 54 121 101 149c35 21 73 34 113 34z" fill="currentColor"/>
<path transform="translate(81.8907, 24.4119) scale(0.0032, -0.0032)" d="M214 140c59 0 115 -32 115 -97c0 -72 -54 -121 -101 -149c-35 -21 -74 -34 -114 -34c-59 0 -114 32 -114 97c0 72 54 121 101 149c35 21 73 34 113 34z" fill="currentColor"/>
<path transform="translate(81.8907, 36.4119) scale(0.0040, -0.0040)" d="M220 138c56 0 109 -29 109 -91c0 -72 -56 -121 -103 -149c-36 -21 -76 -36 -117 -36c-56 0 -109 29 -109 91c0 72 56 121 103 149c36 21 76 36 117 36z" fill="currentColor"/>
<path transform="translate(81.8907, 35.4119) scale(0.0040, -0.0040)" d="M220 138c56 0 109 -29 109 -91c0 -72 -56 -121 -103 -149c-36 -21 -76 -36 -117 -36c-56 0 -109 29 -109 91c0 72 56 121 103 149c36 21 76 36 117 36z" fill="currentColor"/>
<path transform="translate(83.1419, 34.9119) scale(0.0040, -0.0040)" d="M220 138c56 0 109 -29 109 -91c0 -72 -56 -121 -103 -149c-36 -21 -76 -36 -117 -36c-56 0 -109 29 -109 91c0 72 56 121 103 149c36 21 76 36 117 36z" fill="currentColor"/>
<path transform="translate(81.8907, 33.4119) scale(0.0040, -0.0040)" d="M220 138c56 0 109 -29 109 -91c0 -72 -56 -121 -103 -149c-36 -21 -76 -36 -117 -36c-56 0 -109 29 -109 91c0 72 56 121 103 149c36 21 76 36 117 36z" fill="currentColor"/>
<path transform="translate(81.8907, 48.5126) scale(0.0040, -0.0040)" d="M220 138c56 0 109 -29 109 -91c0 -72 -56 -121 -103 -149c-36 -21 -76 -36 -117 -36c-56 0 -109 29 -109 91c0 72 56 121 103 149c36 21 76 36 117 36z" fill="currentColor"/>
<path transform="translate(81.8907, 46.5126) scale(0.0040, -0.0040)" d="M220 138c56 0 109 -29 109 -91c0 -72 -56 -121 -103 -149c-36 -21 -76 -36 -117 -36c-56 0 -109 29 -109 91c0 72 56 121 103 149c36 21 76 36 117 36z" fill="currentColor"/>
<path transform="translate(81.8907, 45.0126) scale(0.0040, -0.0040)" d="M220 138c56 0 109 -29 109 -91c0 -72 -56 -121 -103 -149c-36 -21 -76 -36 -117 -36c-56 0 -109 29 -109 91c0 72 56 121 103 149c36 21 76 36 117 36z" fill="currentColor"/>
<rect transform="translate(81.9557, 6.4119)" x="-0.0650" y="-1.0531" width="0.1300" height="1.8306" ry="0.0400" fill="currentColor"/>
<rect transform="translate(81.9557, 15.4119)" x="-0.0650" y="-0.6563" width="0.1300" height="3.3019" ry="0.0400" fill="currentColor"/>
<path transform="translate(12.9668, 16.2143) scale(0.0032, -0.0032)" d="M153 474c-30 0 -63 -8 -63 -34c0 -21 35 -25 35 -46c0 -31 -25 -56 -56 -56s-56 25 -56 56c0 66 68 106 140 106c92 0 171 -32 171 -114c0 -42 -6 -79 -43 -96c-10 -5 -15 -15 -15 -25s5 -19 15 -24c41 -19 58 -56 58 -101c0 -93 -81 -140 -182 -140
c-80 0 -157 43 -157 116c0 35 29 64 64 64s64 -29 64 -64c0 -24 -39 -29 -39 -53c0 -29 35 -37 68 -37c47 0 59 59 59 114v28c0 47 -2 81 -46 81h-77c-11 0 -16 8 -16 16s5 16 16 16h77c44 0 46 37 46 86v19c0 53 -15 88 -63 88z" fill="currentColor"/>
<path transform="translate(8.7668, 23.6182) scale(0.0032, -0.0032)" d="M558 -125c0 28 22 50 50 50s50 -22 50 -50s-22 -50 -50 -50s-50 22 -50 50zM558 125c0 28 22 50 50 50s50 -22 50 -50s-22 -50 -50 -50s-50 22 -50 50zM231 265c173 0 294 -88 294 -252c0 -263 -263 -415 -515 -523c-3 -3 -7 -5 -10 -5c-8 0 -15 7 -15 15c0 3 2 7 5 10
c200 118 407 264 407 491c0 119 -59 234 -166 234c-70 0 -119 -51 -142 -120c8 2 15 4 23 4c55 0 100 -45 100 -100c0 -58 -44 -106 -100 -106c-60 0 -112 47 -112 106c0 133 101 246 231 246z" fill="currentColor"/>
<path transform="translate(12.9668, 25.2143) scale(0.0032, -0.0032)" d="M153 474c-30 0 -63 -8 -63 -34c0 -21 35 -25 35 -46c0 -31 -25 -56 -56 -56s-56 25 -56 56c0 66 68 106 140 106c92 0 171 -32 171 -114c0 -42 -6 -79 -43 -96c-10 -5 -15 -15 -15 -25s5 -19 15 -24c41 -19 58 -56 58 -101c0 -93 -81 -140 -182 -140
c-80 0 -157 43 -157 116c0 35 29 64 64 64s64 -29 64 -64c0 -24 -39 -29 -39 -53c0 -29 35 -37 68 -37c47 0 59 59 59 114v28c0 47 -2 81 -46 81h-77c-11 0 -16 8 -16 16s5 16 16 16h77c44 0 46 37 46 86v19c0 53 -15 88 -63 88z" fill="currentColor"/>
<path transform="translate(16.9484, 35.4119) scale(0.0040, -0.0040)" d="M220 138c56 0 109 -29 109 -91c0 -72 -56 -121 -103 -149c-36 -21 -76 -36 -117 -36c-56 0 -109 29 -109 91c0 72 56 121 103 149c36 21 76 36 117 36z" fill="currentColor"/>
<path transform="translate(16.9484, 36.4119) scale(0.0040, -0.0040)" d="M315 65c0 24 -21 41 -42 41c-4 0 -8 0 -12 -1c-31 -9 -77 -40 -114 -64s-84 -53 -104 -78c-7 -8 -11 -18 -11 -28c0 -24 21 -41 42 -41c4 0 8 0 12 1c31 9 78 40 115 64s84 53 104 78c7 8 10 18 10 28zM264 137c47 0 83 -21 83 -72c0 -19 -4 -37 -10 -56
c-12 -38 -32 -74 -65 -96c-54 -36 -113 -51 -188 -51c-47 0 -84 22 -84 73c0 19 5 37 11 56c12 38 31 74 64 96c54 36 114 50 189 50z" fill="currentColor"/>
<path transform="translate(8.7668, 34.4119) scale(0.0040, -0.0040)" d="M376 262c4 0 9 1 13 1c155 0 256 -128 256 -261c0 -76 -33 -154 -107 -210c-22 -17 -47 -28 -73 -36c3 -35 5 -70 5 -105c0 -19 -1 -39 -2 -58c-7 -120 -90 -228 -208 -228c-108 0 -195 88 -195 197c0 58 53 103 112 103c54 0 95 -47 95 -103c0 -52 -43 -95 -95 -95
c-11 0 -21 2 -31 6c26 -39 68 -65 117 -65c96 0 157 92 163 191c1 18 2 37 2 55c0 31 -1 61 -4 92c-29 -5 -58 -8 -89 -8c-188 0 -333 172 -333 374c0 177 131 306 248 441c-19 62 -37 125 -45 190c-6 52 -7 104 -7 156c0 115 55 224 149 292c3 2 7 3 10 3c4 0 7 0 10 -3
c71 -84 133 -245 133 -358c0 -143 -86 -255 -180 -364c21 -68 39 -138 56 -207zM461 -203c68 24 113 95 113 164c0 90 -66 179 -173 190c24 -116 46 -231 60 -354zM74 28c0 -135 129 -247 264 -247c28 0 55 2 82 6c-14 127 -37 245 -63 364c-79 -8 -124 -61 -124 -119
c0 -44 25 -91 81 -123c5 -5 7 -10 7 -15c0 -11 -10 -22 -22 -22c-3 0 -6 1 -9 2c-80 43 -117 115 -117 185c0 88 58 174 160 197c-14 58 -29 117 -46 175c-107 -121 -213 -243 -213 -403zM408 1045c-99 -48 -162 -149 -162 -259c0 -74 18 -133 36 -194
c80 97 146 198 146 324c0 55 -4 79 -20 129z" fill="currentColor"/>
<path transform="translate(12.9668, 34.4191) scale(0.0040, -0.0040)" d="M150 477c-29 0 -59 -8 -59 -33c0 -22 36 -25 36 -47c0 -32 -26 -58 -58 -58s-57 26 -57 58c0 65 67 103 138 103c91 0 169 -33 169 -114c0 -43 -4 -82 -42 -100c-9 -4 -14 -12 -14 -21s5 -18 14 -22c41 -19 56 -57 56 -103c0 -92 -79 -140 -179 -140
c-79 0 -154 42 -154 113c0 36 30 66 66 66s65 -30 65 -66c0 -25 -40 -28 -40 -53c0 -27 32 -37 63 -37c49 0 63 61 63 117v16c0 54 -2 94 -50 94h-80c-10 0 -14 8 -14 15s4 14 14 14h80c49 0 50 43 50 99v8c0 54 -18 91 -67 91z" fill="currentColor"/>
<g transform="translate(16.1226, 41.1452)" >
<path transform="scale(0.0040, -0.0040)" d="M-41 146c26 76 82 153 149 153c22 0 36 -20 41 -45c22 26 51 45 81 45c23 0 38 -21 44 -46c22 27 51 46 80 46c33 0 59 -35 59 -69c0 -5 -1 -10 -2 -15l-35 -149c0 -2 -1 -4 -1 -5c0 -5 2 -8 7 -8c9 0 27 11 48 31c4 4 9 6 13 6c6 0 11 -4 11 -10c0 -4 -3 -8 -7 -12
c-40 -38 -85 -75 -131 -75c-20 0 -32 13 -32 32c0 4 0 7 1 11l39 165c1 5 2 9 2 14c0 10 -4 18 -14 18c-16 0 -33 -16 -39 -32l-53 -183c-3 -10 -12 -18 -22 -18h-41c-10 0 -16 8 -13 18l52 183c2 6 3 11 3 16c0 9 -4 16 -13 16c-16 0 -35 -15 -41 -32l-62 -183
c-3 -10 -14 -18 -24 -18h-41c-10 0 -15 8 -12 18l63 183c2 5 2 10 2 15c0 10 -3 17 -13 17c-29 0 -54 -53 -66 -87c-4 -11 -15 -17 -23 -17c-7 0 -12 4 -12 11c0 2 1 4 2 6z" fill="currentColor"/>

<path transform="translate(1.7413, 0.0000) scale(0.0040, -0.0040)" d="M253 245l-50 -163c-30 -99 -121 -255 -218 -255c-45 0 -87 27 -87 69c0 39 17 77 52 77c24 0 44 -20 44 -44c0 -30 -38 -24 -38 -54c0 -10 11 -11 23 -11h6c48 0 61 58 73 108l68 273h-49c-11 0 -19 8 -19 19s8 19 19 19h60c32 96 118 191 213 191c45 0 87 -27 87 -69
c0 -39 -17 -77 -52 -77c-24 0 -44 19 -44 43c0 30 38 25 38 55c0 10 -10 11 -22 11h-7c-62 0 -70 -88 -86 -154h55c11 0 19 -8 19 -19s-8 -19 -19 -19h-66z" fill="currentColor"/>
</g>
<path transform="translate(16.9484, 46.5126) scale(0.0040, -0.0040)" d="M315 65c0 24 -21 41 -42 41c-4 0 -8 0 -12 -1c-31 -9 -77 -40 -114 -64s-84 -53 -104 -78c-7 -8 -11 -18 -11 -28c0 -24 21 -41 42 -41c4 0 8 0 12 1c31 9 78 40 115 64s84 53 104 78c7 8 10 18 10 28zM264 137c47 0 83 -21 83 -72c0 -19 -4 -37 -10 -56
c-12 -38 -32 -74 -65 -96c-54 -36 -113 -51 -188 -51c-47 0 -84 22 -84 73c0 19 5 37 11 56c12 38 31 74 64 96c54 36 114 50 189 50z" fill="currentColor"/>
<path transform="translate(16.9484, 43.5126) scale(0.0040, -0.0040)" d="M315 65c0 24 -21 41 -42 41c-4 0 -8 0 -12 -1c-31 -9 -77 -40 -114 -64s-84 -53 -104 -78c-7 -8 -11 -18 -11 -28c0 -24 21 -41 42 -41c4 0 8 0 12 1c31 9 78 40 115 64s84 53 104 78c7 8 10 18 10 28zM264 137c47 0 83 -21 83 -72c0 -19 -4 -37 -10 -56
c-12 -38 -32 -74 -65 -96c-54 -36 -113 -51 -188 -51c-47 0 -84 22 -84 73c0 19 5 37 11 56c12 38 31 74 64 96c54 36 114 50 189 50z" fill="currentColor"/>
<path transform="translate(8.7668, 44.0126) scale(0.0040, -0.0040)" d="M557 -125c0 28 23 51 51 51s51 -23 51 -51s-23 -51 -51 -51s-51 23 -51 51zM557 125c0 28 23 51 51 51s51 -23 51 -51s-23 -51 -51 -51s-51 23 -51 51zM232 263c172 0 293 -88 293 -251c0 -263 -263 -414 -516 -521c-3 -3 -6 -4 -9 -4c-7 0 -13 6 -13 13c0 3 1 6 4 9
c202 118 412 265 412 493c0 120 -63 235 -171 235c-74 0 -129 -54 -154 -126c11 5 22 8 34 8c55 0 100 -45 100 -100c0 -58 -44 -106 -100 -106c-60 0 -112 47 -112 106c0 133 102 244 232 244z" fill="currentColor"/>
<path transform="translate(12.9668, 46.0199) scale(0.0040, -0.0040)" d="M150 477c-29 0 -59 -8 -59 -33c0 -22 36 -25 36 -47c0 -32 -26 -58 -58 -58s-57 26 -57 58c0 65 67 103 138 103c91 0 169 -33 169 -114c0 -43 -4 -82 -42 -100c-9 -4 -14 -12 -14 -21s5 -18 14 -22c41 -19 56 -57 56 -103c0 -92 -79 -140 -179 -140
c-79 0 -154 42 -154 113c0 36 30 66 66 66s65 -30 65 -66c0 -25 -40 -28 -40 -53c0 -27 32 -37 63 -37c49 0 63 61 63 117v16c0 54 -2 94 -50 94h-80c-10 0 -14 8 -14 15s4 14 14 14h80c49 0 50 43 50 99v8c0 54 -18 91 -67 91z" fill="currentColor"/>
<rect transform="translate(10.1953, 2.9549)" x="-0.3245" y="-0.1000" width="2.4266" height="0.1000" ry="0.0000" fill="currentColor"/>
<rect transform="translate(10.1953, 0.1610)" x="-0.3245" y="-0.1000" width="2.4266" height="0.1000" ry="0.0000" fill="currentColor"/>
<rect transform="translate(9.8708, 2.6304)" x="0" y="-2.4694" width="0.1000" height="2.6939" ry="0.0000" fill="currentColor"/>
<rect transform="translate(12.1974, 2.6304)" x="0" y="-2.4694" width="0.1000" height="2.6939" ry="0.0000" fill="currentColor"/>
<path transform="translate(10.1953, 2.6304) scale(0.0045, -0.0045)" d="M206 312c22 14 44 28 59 49c11 15 17 33 25 50c4 10 21 6 21 -8v-250h71c9 0 14 -7 14 -14s-5 -14 -14 -14h-71v-12c0 -47 28 -91 71 -91c7 0 11 -5 11 -11s-4 -11 -11 -11c-43 0 -84 13 -127 13s-85 -13 -128 -13c-7 0 -11 5 -11 11s4 11 11 11c43 0 71 44 71 91v12
h-170c-22 0 -30 13 -30 22c0 2 1 5 2 6c81 94 141 207 141 331c0 9 6 16 13 16h3c22 -7 45 -13 69 -13s47 6 69 13c2 1 3 1 5 1c10 0 16 -11 11 -17l-283 -331h170v138c0 8 1 17 8 21z" fill="currentColor"/>
<rect transform="translate(18.1995, 33.4119)" x="-0.0650" y="-1.5000" width="0.1300" height="3.3122" ry="0.0400" fill="currentColor"/>
<path transform="translate(23.1034, 5.6182) scale(0.0032, -0.0032)" d="M362 -156h-349c-7 0 -13 5 -13 12v131c0 7 6 13 13 13h349c7 0 13 -6 13 -13v-131c0 -7 -6 -12 -13 -12z" fill="currentColor"/>
<path transform="translate(23.1034, 14.6182) scale(0.0032, -0.0032)" d="M362 -156h-349c-7 0 -13 5 -13 12v131c0 7 6 13 13 13h349c7 0 13 -6 13 -13v-131c0 -7 -6 -12 -13 -12z" fill="currentColor"/>
<path transform="translate(23.1034, 23.6182) scale(0.0032, -0.0032)" d="M362 -156h-349c-7 0 -13 5 -13 12v131c0 7 6 13 13 13h349c7 0 13 -6 13 -13v-131c0 -7 -6 -12 -13 -12z" fill="currentColor"/>
<path transform="translate(7.6068, 39.2123) scale(0.0040, -0.0040)" d="M-16 -588c0 -316 -120 -624 -120 -924c0 -160 36 -308 148 -432c4 -4 4 -4 4 -8c0 -8 -8 -20 -16 -20c-4 0 -8 4 -12 8c-148 164 -200 368 -200 588c0 320 128 636 128 940c0 160 -36 308 -148 428c0 4 -4 4 -4 8s4 4 4 8c112 120 148 268 148 428
c0 304 -128 620 -128 940c0 220 52 424 200 588c4 4 8 8 12 8c8 0 16 -12 16 -20c0 -4 0 -4 -4 -8c-112 -124 -148 -272 -148 -432c0 -300 120 -608 120 -924c0 -216 -48 -424 -192 -588c144 -164 192 -372 192 -588z" fill="currentColor"/>
<rect transform="translate(7.9068, 25.9186)" x="0.0000" y="-21.1441" width="0.1600" height="42.2881" ry="0.0500" fill="currentColor"/>
<path transform="translate(8.7668, 7.2056) scale(0.0032, -0.0032)" d="M379 264c3 0 7 1 10 1c157 0 258 -129 258 -263c0 -77 -33 -155 -108 -211c-22 -16 -46 -29 -72 -37c3 -33 4 -66 4 -99c0 -21 0 -41 -1 -62c-7 -121 -91 -229 -211 -229c-108 0 -196 88 -196 197c0 58 54 103 113 103c54 0 95 -47 95 -103c0 -52 -43 -95 -95 -95
c-9 0 -18 1 -27 4c25 -37 66 -61 113 -61c95 0 156 93 162 191c1 19 2 38 2 57c0 29 -1 58 -3 87c-29 -5 -58 -8 -88 -8c-189 0 -333 173 -333 376c0 177 129 308 244 443c-20 62 -40 124 -48 189c-7 52 -7 105 -7 158c0 114 54 221 147 288c4 3 8 4 12 4c5 0 9 -2 13 -5
c72 -83 135 -243 135 -356c0 -142 -84 -255 -176 -364c21 -68 40 -136 57 -205zM463 -201c65 24 110 94 110 161c0 88 -64 175 -167 188c24 -114 44 -227 57 -349zM77 25c0 -133 128 -243 261 -243c27 0 55 1 81 5c-13 126 -35 244 -60 362c-79 -8 -124 -60 -124 -118
c0 -43 25 -88 80 -120c5 -5 7 -11 7 -17c0 -12 -10 -23 -23 -23c-3 0 -7 1 -10 2c-81 43 -118 115 -118 186c0 89 60 177 163 200c-14 57 -30 113 -47 169c-105 -122 -210 -243 -210 -403zM403 1038c-99 -46 -161 -145 -161 -254c0 -71 21 -130 39 -188
c78 97 142 199 142 324c0 51 -4 72 -20 118z" fill="currentColor"/>
<path transform="translate(12.9668, 7.2143) scale(0.0032, -0.0032)" d="M153 474c-30 0 -63 -8 -63 -34c0 -21 35 -25 35 -46c0 -31 -25 -56 -56 -56s-56 25 -56 56c0 66 68 106 140 106c92 0 171 -32 171 -114c0 -42 -6 -79 -43 -96c-10 -5 -15 -15 -15 -25s5 -19 15 -24c41 -19 58 -56 58 -101c0 -93 -81 -140 -182 -140
c-80 0 -157 43 -157 116c0 35 29 64 64 64s64 -29 64 -64c0 -24 -39 -29 -39 -53c0 -29 35 -37 68 -37c47 0 59 59 59 114v28c0 47 -2 81 -46 81h-77c-11 0 -16 8 -16 16s5 16 16 16h77c44 0 46 37 46 86v19c0 53 -15 88 -63 88z" fill="currentColor"/>
<path transform="translate(8.7668, 15.4119) scale(0.0032, -0.0032)" d="M327 0c0 -32 5 -72 43 -72c29 0 56 33 87 33c123 0 227 -91 227 -211c0 -168 -89 -250 -259 -250c-82 0 -152 61 -152 141c0 42 34 76 76 76s76 -34 76 -76c0 -38 -46 -38 -46 -76c0 -22 22 -35 46 -35c115 0 137 89 137 220c0 107 -12 181 -105 181
c-70 0 -115 -70 -115 -146c0 -10 -8 -15 -15 -15s-15 5 -15 15c0 74 -30 145 -83 196v-468c0 -7 -6 -13 -13 -13h-19c-7 0 -13 6 -13 13v974c0 7 6 13 13 13h19c7 0 13 -6 13 -13v-468c53 51 83 122 83 196c0 10 8 15 15 15s15 -5 15 -15c0 -76 45 -146 115 -146
c93 0 105 74 105 181c0 131 -22 220 -137 220c-24 0 -46 -13 -46 -35c0 -38 46 -38 46 -76c0 -42 -34 -76 -76 -76s-76 34 -76 76c0 80 70 141 152 141c170 0 259 -82 259 -250c0 -120 -104 -211 -227 -211c-31 0 -58 33 -87 33c-38 0 -43 -40 -43 -72zM127 -500h-114
c-7 0 -13 6 -13 13v974c0 7 6 13 13 13h114c7 0 13 -6 13 -13v-974c0 -7 -6 -13 -13 -13z" fill="currentColor"/>
<rect transform="translate(74.6289, 33.4119)" x="-0.0650" y="-3.3333" width="0.1300" height="6.0719" ry="0.0400" fill="currentColor"/>
<rect transform="translate(17.0134, 33.4119)" x="-0.0650" y="3.2614" width="0.1300" height="2.2386" ry="0.0400" fill="currentColor"/>
<path transform="translate(15.4984, 36.4119) scale(0.0040, -0.0040)" d="M216 -312c0 -10 -8 -19 -18 -19s-19 9 -19 19v145l-83 -31v-158c0 -10 -9 -19 -19 -19s-18 9 -18 19v145l-32 -12c-2 -1 -5 -1 -7 -1c-11 0 -20 9 -20 20v60c0 8 5 16 13 19l46 16v160l-32 -11c-2 -1 -5 -1 -7 -1c-11 0 -20 9 -20 20v60c0 8 5 15 13 18l46 17v158
c0 10 8 19 18 19s19 -9 19 -19v-145l83 31v158c0 10 9 19 19 19s18 -9 18 -19v-145l32 12c2 1 5 1 7 1c11 0 20 -9 20 -20v-60c0 -8 -5 -16 -13 -19l-46 -16v-160l32 11c2 1 5 1 7 1c11 0 20 -9 20 -20v-60c0 -8 -5 -15 -13 -18l-46 -17v-158zM96 65v-160l83 30v160z" fill="currentColor"/>
<rect transform="translate(17.0134, 45.0126)" x="-0.0650" y="-1.2386" width="0.1300" height="5.5719" ry="0.0400" fill="currentColor"/>
<rect transform="translate(94.3146, 6.4119)" x="-0.0650" y="-0.9265" width="0.1300" height="2.3765" ry="0.0400" fill="currentColor"/>
<path transform="translate(95.8296, 7.2056) scale(0.0032, -0.0032)" d="M214 140c59 0 115 -32 115 -97c0 -72 -54 -121 -101 -149c-35 -21 -74 -34 -114 -34c-59 0 -114 32 -114 97c0 72 54 121 101 149c35 21 73 34 113 34z" fill="currentColor"/>
<path transform="translate(95.8296, 33.4119) scale(0.0040, -0.0040)" d="M-23 -116c0 28 11 42 40 42c33 0 78 -13 119 -31l-132 158c-7 9 -10 17 -10 25c0 34 50 66 87 99c25 22 37 52 37 83c0 24 -8 49 -25 69l-35 42c-3 3 -4 7 -4 10c0 9 9 15 17 15c4 0 8 -1 11 -5l151 -180c7 -9 10 -17 10 -25c0 -34 -50 -66 -87 -99
c-25 -22 -37 -52 -37 -83c0 -24 7 -49 24 -69l84 -99c3 -3 4 -7 4 -10c0 -9 -8 -16 -16 -16c-4 0 -9 2 -12 6c-18 21 -63 38 -97 38c-41 0 -53 -26 -53 -67c0 -35 11 -74 28 -94c5 -6 0 -13 -6 -13c-2 0 -4 0 -6 2c-45 54 -92 148 -92 202z" fill="currentColor"/>
<path transform="translate(95.8296, 45.0126) scale(0.0040, -0.0040)" d="M-23 -116c0 28 11 42 40 42c33 0 78 -13 119 -31l-132 158c-7 9 -10 17 -10 25c0 34 50 66 87 99c25 22 37 52 37 83c0 24 -8 49 -25 69l-35 42c-3 3 -4 7 -4 10c0 9 9 15 17 15c4 0 8 -1 11 -5l151 -180c7 -9 10 -17 10 -25c0 -34 -50 -66 -87 -99
c-25 -22 -37 -52 -37 -83c0 -24 7 -49 24 -69l84 -99c3 -3 4 -7 4 -10c0 -9 -8 -16 -16 -16c-4 0 -9 2 -12 6c-18 21 -63 38 -97 38c-41 0 -53 -26 -53 -67c0 -35 11 -74 28 -94c5 -6 0 -13 -6 -13c-2 0 -4 0 -6 2c-45 54 -92 148 -92 202z" fill="currentColor"/>
<rect transform="translate(96.8081, 6.4119)" x="-0.0650" y="-1.4546" width="0.1300" height="2.1109" ry="0.0400" fill="currentColor"/>
<path transform="translate(91.0928, 8.3961) scale(0.0032, -0.0032)" d="M214 140c59 0 115 -32 115 -97c0 -72 -54 -121 -101 -149c-35 -21 -74 -34 -114 -34c-59 0 -114 32 -114 97c0 72 54 121 101 149c35 21 73 34 113 34z" fill="currentColor"/>
<path transform="translate(91.0928, 33.4119) scale(0.0040, -0.0040)" d="M-23 -116c0 28 11 42 40 42c33 0 78 -13 119 -31l-132 158c-7 9 -10 17 -10 25c0 34 50 66 87 99c25 22 37 52 37 83c0 24 -8 49 -25 69l-35 42c-3 3 -4 7 -4 10c0 9 9 15 17 15c4 0 8 -1 11 -5l151 -180c7 -9 10 -17 10 -25c0 -34 -50 -66 -87 -99
c-25 -22 -37 -52 -37 -83c0 -24 7 -49 24 -69l84 -99c3 -3 4 -7 4 -10c0 -9 -8 -16 -16 -16c-4 0 -9 2 -12 6c-18 21 -63 38 -97 38c-41 0 -53 -26 -53 -67c0 -35 11 -74 28 -94c5 -6 0 -13 -6 -13c-2 0 -4 0 -6 2c-45 54 -92 148 -92 202z" fill="currentColor"/>
<path transform="translate(91.0928, 45.0126) scale(0.0040, -0.0040)" d="M-23 -116c0 28 11 42 40 42c33 0 78 -13 119 -31l-132 158c-7 9 -10 17 -10 25c0 34 50 66 87 99c25 22 37 52 37 83c0 24 -8 49 -25 69l-35 42c-3 3 -4 7 -4 10c0 9 9 15 17 15c4 0 8 -1 11 -5l151 -180c7 -9 10 -17 10 -25c0 -34 -50 -66 -87 -99
c-25 -22 -37 -52 -37 -83c0 -24 7 -49 24 -69l84 -99c3 -3 4 -7 4 -10c0 -9 -8 -16 -16 -16c-4 0 -9 2 -12 6c-18 21 -63 38 -97 38c-41 0 -53 -26 -53 -67c0 -35 11 -74 28 -94c5 -6 0 -13 -6 -13c-2 0 -4 0 -6 2c-45 54 -92 148 -92 202z" fill="currentColor"/>
<rect transform="translate(92.0712, 6.4119)" x="-0.0650" y="-0.6609" width="0.1300" height="2.5077" ry="0.0400" fill="currentColor"/>
<path transform="translate(93.3362, 7.9993) scale(0.0032, -0.0032)" d="M214 140c59 0 115 -32 115 -97c0 -72 -54 -121 -101 -149c-35 -21 -74 -34 -114 -34c-59 0 -114 32 -114 97c0 72 54 121 101 149c35 21 73 34 113 34z" fill="currentColor"/>
<path transform="translate(20.6645, 35.9119) scale(0.0040, -0.0040)" d="M220 138c56 0 109 -29 109 -91c0 -72 -56 -121 -103 -149c-36 -21 -76 -36 -117 -36c-56 0 -109 29 -109 91c0 72 56 121 103 149c36 21 76 36 117 36z" fill="currentColor"/>
<rect transform="translate(21.9157, 33.4119)" x="-0.0650" y="-0.8147" width="0.1300" height="3.1269" ry="0.0400" fill="currentColor"/>
<path transform="translate(19.2145, 35.9119) scale(0.0040, -0.0040)" d="M216 -312c0 -10 -8 -19 -18 -19s-19 9 -19 19v145l-83 -31v-158c0 -10 -9 -19 -19 -19s-18 9 -18 19v145l-32 -12c-2 -1 -5 -1 -7 -1c-11 0 -20 9 -20 20v60c0 8 5 16 13 19l46 16v160l-32 -11c-2 -1 -5 -1 -7 -1c-11 0 -20 9 -20 20v60c0 8 5 15 13 18l46 17v158
c0 10 8 19 18 19s19 -9 19 -19v-145l83 31v158c0 10 9 19 19 19s18 -9 18 -19v-145l32 12c2 1 5 1 7 1c11 0 20 -9 20 -20v-60c0 -8 -5 -16 -13 -19l-46 -16v-160l32 11c2 1 5 1 7 1c11 0 20 -9 20 -20v-60c0 -8 -5 -15 -13 -18l-46 -17v-158zM96 65v-160l83 30v160z" fill="currentColor"/>
<path transform="translate(23.1807, 35.4119) scale(0.0040, -0.0040)" d="M220 138c56 0 109 -29 109 -91c0 -72 -56 -121 -103 -149c-36 -21 -76 -36 -117 -36c-56 0 -109 29 -109 91c0 72 56 121 103 149c36 21 76 36 117 36z" fill="currentColor"/>
<rect transform="translate(24.4319, 33.4119)" x="-0.0650" y="-0.9953" width="0.1300" height="2.8075" ry="0.0400" fill="currentColor"/>
<path transform="translate(98.0731, 6.8087) scale(0.0032, -0.0032)" d="M214 140c59 0 115 -32 115 -97c0 -72 -54 -121 -101 -149c-35 -21 -74 -34 -114 -34c-59 0 -114 32 -114 97c0 72 54 121 101 149c35 21 73 34 113 34z" fill="currentColor"/>
<rect transform="translate(99.0515, 6.4119)" x="-0.0650" y="-1.7202" width="0.1300" height="1.9796" ry="0.0400" fill="currentColor"/>
<path transform="translate(87.4676, 47.0126) scale(0.0040, -0.0040)" d="M220 138c56 0 109 -29 109 -91c0 -72 -56 -121 -103 -149c-36 -21 -76 -36 -117 -36c-56 0 -109 29 -109 91c0 72 56 121 103 149c36 21 76 36 117 36z" fill="currentColor"/>
<path transform="translate(87.4676, 45.0126) scale(0.0040, -0.0040)" d="M220 138c56 0 109 -29 109 -91c0 -72 -56 -121 -103 -149c-36 -21 -76 -36 -117 -36c-56 0 -109 29 -109 91c0 72 56 121 103 149c36 21 76 36 117 36z" fill="currentColor"/>
<path transform="translate(87.4676, 43.5126) scale(0.0040, -0.0040)" d="M220 138c56 0 109 -29 109 -91c0 -72 -56 -121 -103 -149c-36 -21 -76 -36 -117 -36c-56 0 -109 29 -109 91c0 72 56 121 103 149c36 21 76 36 117 36z" fill="currentColor"/>
<rect transform="translate(88.4460, 6.4119)" x="-0.0650" y="-1.1906" width="0.1300" height="2.6405" ry="0.0400" fill="currentColor"/>
<path transform="translate(88.9280, 15.8087) scale(0.0032, -0.0032)" d="M0 0c0 30 25 55 55 55s55 -25 55 -55s-25 -55 -55 -55s-55 25 -55 55z" fill="currentColor"/>
<rect transform="translate(88.5126, 15.4119)" x="-0.0650" y="-2.3811" width="0.1300" height="2.5810" ry="0.0400" fill="currentColor"/>
<path transform="translate(84.3842, 3.6339) scale(0.0032, -0.0032)" d="M214 140c59 0 115 -32 115 -97c0 -72 -54 -121 -101 -149c-35 -21 -74 -34 -114 -34c-59 0 -114 32 -114 97c0 72 54 121 101 149c35 21 73 34 113 34z" fill="currentColor"/>
<rect transform="translate(84.4492, 6.4119)" x="-0.0650" y="-2.6405" width="0.1300" height="2.7972" ry="0.0400" fill="currentColor"/>
<path transform="translate(87.4676, 7.9993) scale(0.0032, -0.0032)" d="M214 140c59 0 115 -32 115 -97c0 -72 -54 -121 -101 -149c-35 -21 -74 -34 -114 -34c-59 0 -114 32 -114 97c0 72 54 121 101 149c35 21 73 34 113 34z" fill="currentColor"/>
<path transform="translate(87.4088, 10.6754) scale(0.0032, -0.0032)" d="M233 243c-56 0 -103 -109 -103 -175c0 -22 9 -38 31 -38c63 0 97 128 97 180c0 18 -7 33 -25 33zM110 -146c-37 0 -75 5 -113 5s-77 -5 -113 -5c-10 0 -16 8 -16 16c0 20 30 18 49 19c23 1 48 9 55 30l99 290c3 8 5 16 5 22c0 7 -2 12 -10 12c-33 0 -58 -61 -74 -97
c-6 -14 -19 -20 -29 -20c-9 0 -16 5 -16 14c0 3 0 6 2 10c30 68 73 142 134 142c35 0 57 -22 64 -52c29 31 67 52 103 52c69 0 107 -49 107 -114c0 -21 -4 -44 -12 -67c-20 -58 -91 -121 -147 -121c-27 0 -52 6 -73 18c-10 6 -24 3 -27 -6l-25 -74c-1 -3 -2 -7 -2 -10
c0 -22 17 -30 40 -32c10 -1 15 -8 15 -16s-6 -16 -16 -16z" fill="currentColor"/>
<path transform="translate(87.4676, 15.8087) scale(0.0032, -0.0032)" d="M312 63c0 23 -20 40 -41 40c-4 0 -7 -1 -11 -2c-30 -8 -75 -38 -111 -61s-81 -52 -101 -76c-7 -8 -10 -17 -10 -27c0 -23 19 -40 40 -40c4 0 8 1 12 2c30 8 75 38 111 61s81 52 101 76c7 8 10 17 10 27zM258 140c51 0 92 -23 92 -78c0 -19 -4 -38 -10 -56
c-11 -38 -31 -75 -64 -97c-53 -36 -112 -49 -185 -49c-51 0 -91 23 -91 78c0 19 4 38 10 56c11 38 30 75 63 97c53 36 112 49 185 49z" fill="currentColor"/>
<g transform="translate(86.8617, 18.4815)" >
<path transform="scale(0.0032, -0.0032)" d="M233 243c-56 0 -103 -109 -103 -175c0 -22 9 -38 31 -38c63 0 97 128 97 180c0 18 -7 33 -25 33zM110 -146c-37 0 -75 5 -113 5s-77 -5 -113 -5c-10 0 -16 8 -16 16c0 20 30 18 49 19c23 1 48 9 55 30l99 290c3 8 5 16 5 22c0 7 -2 12 -10 12c-33 0 -58 -61 -74 -97
c-6 -14 -19 -20 -29 -20c-9 0 -16 5 -16 14c0 3 0 6 2 10c30 68 73 142 134 142c35 0 57 -22 64 -52c29 31 67 52 103 52c69 0 107 -49 107 -114c0 -21 -4 -44 -12 -67c-20 -58 -91 -121 -147 -121c-27 0 -52 6 -73 18c-10 6 -24 3 -27 -6l-25 -74c-1 -3 -2 -7 -2 -10
c0 -22 17 -30 40 -32c10 -1 15 -8 15 -16s-6 -16 -16 -16z" fill="currentColor"/>

<path transform="translate(1.1609, 0.0000) scale(0.0032, -0.0032)" d="M233 243c-56 0 -103 -109 -103 -175c0 -22 9 -38 31 -38c63 0 97 128 97 180c0 18 -7 33 -25 33zM110 -146c-37 0 -75 5 -113 5s-77 -5 -113 -5c-10 0 -16 8 -16 16c0 20 30 18 49 19c23 1 48 9 55 30l99 290c3 8 5 16 5 22c0 7 -2 12 -10 12c-33 0 -58 -61 -74 -97
c-6 -14 -19 -20 -29 -20c-9 0 -16 5 -16 14c0 3 0 6 2 10c30 68 73 142 134 142c35 0 57 -22 64 -52c29 31 67 52 103 52c69 0 107 -49 107 -114c0 -21 -4 -44 -12 -67c-20 -58 -91 -121 -147 -121c-27 0 -52 6 -73 18c-10 6 -24 3 -27 -6l-25 -74c-1 -3 -2 -7 -2 -10
c0 -22 17 -30 40 -32c10 -1 15 -8 15 -16s-6 -16 -16 -16z" fill="currentColor"/>
</g>
<path transform="translate(87.4676, 25.9993) scale(0.0032, -0.0032)" d="M312 63c0 23 -20 40 -41 40c-4 0 -7 -1 -11 -2c-30 -8 -75 -38 -111 -61s-81 -52 -101 -76c-7 -8 -10 -17 -10 -27c0 -23 19 -40 40 -40c4 0 8 1 12 2c30 8 75 38 111 61s81 52 101 76c7 8 10 17 10 27zM258 140c51 0 92 -23 92 -78c0 -19 -4 -38 -10 -56
c-11 -38 -31 -75 -64 -97c-53 -36 -112 -49 -185 -49c-51 0 -91 23 -91 78c0 19 4 38 10 56c11 38 30 75 63 97c53 36 112 49 185 49z" fill="currentColor"/>
<path transform="translate(87.4676, 24.4119) scale(0.0032, -0.0032)" d="M312 63c0 23 -20 40 -41 40c-4 0 -7 -1 -11 -2c-30 -8 -75 -38 -111 -61s-81 -52 -101 -76c-7 -8 -10 -17 -10 -27c0 -23 19 -40 40 -40c4 0 8 1 12 2c30 8 75 38 111 61s81 52 101 76c7 8 10 17 10 27zM258 140c51 0 92 -23 92 -78c0 -19 -4 -38 -10 -56
c-11 -38 -31 -75 -64 -97c-53 -36 -112 -49 -185 -49c-51 0 -91 23 -91 78c0 19 4 38 10 56c11 38 30 75 63 97c53 36 112 49 185 49z" fill="currentColor"/>
<g transform="translate(86.8617, 27.8749)" >
<path transform="scale(0.0032, -0.0032)" d="M233 243c-56 0 -103 -109 -103 -175c0 -22 9 -38 31 -38c63 0 97 128 97 180c0 18 -7 33 -25 33zM110 -146c-37 0 -75 5 -113 5s-77 -5 -113 -5c-10 0 -16 8 -16 16c0 20 30 18 49 19c23 1 48 9 55 30l99 290c3 8 5 16 5 22c0 7 -2 12 -10 12c-33 0 -58 -61 -74 -97
c-6 -14 -19 -20 -29 -20c-9 0 -16 5 -16 14c0 3 0 6 2 10c30 68 73 142 134 142c35 0 57 -22 64 -52c29 31 67 52 103 52c69 0 107 -49 107 -114c0 -21 -4 -44 -12 -67c-20 -58 -91 -121 -147 -121c-27 0 -52 6 -73 18c-10 6 -24 3 -27 -6l-25 -74c-1 -3 -2 -7 -2 -10
c0 -22 17 -30 40 -32c10 -1 15 -8 15 -16s-6 -16 -16 -16z" fill="currentColor"/>

<path transform="translate(1.1609, 0.0000) scale(0.0032, -0.0032)" d="M233 243c-56 0 -103 -109 -103 -175c0 -22 9 -38 31 -38c63 0 97 128 97 180c0 18 -7 33 -25 33zM110 -146c-37 0 -75 5 -113 5s-77 -5 -113 -5c-10 0 -16 8 -16 16c0 20 30 18 49 19c23 1 48 9 55 30l99 290c3 8 5 16 5 22c0 7 -2 12 -10 12c-33 0 -58 -61 -74 -97
c-6 -14 -19 -20 -29 -20c-9 0 -16 5 -16 14c0 3 0 6 2 10c30 68 73 142 134 142c35 0 57 -22 64 -52c29 31 67 52 103 52c69 0 107 -49 107 -114c0 -21 -4 -44 -12 -67c-20 -58 -91 -121 -147 -121c-27 0 -52 6 -73 18c-10 6 -24 3 -27 -6l-25 -74c-1 -3 -2 -7 -2 -10
c0 -22 17 -30 40 -32c10 -1 15 -8 15 -16s-6 -16 -16 -16z" fill="currentColor"/>
</g>
<path transform="translate(87.4676, 36.9119) scale(0.0040, -0.0040)" d="M220 138c56 0 109 -29 109 -91c0 -72 -56 -121 -103 -149c-36 -21 -76 -36 -117 -36c-56 0 -109 29 -109 91c0 72 56 121 103 149c36 21 76 36 117 36z" fill="currentColor"/>
<path transform="translate(87.4676, 35.9119) scale(0.0040, -0.0040)" d="M220 138c56 0 109 -29 109 -91c0 -72 -56 -121 -103 -149c-36 -21 -76 -36 -117 -36c-56 0 -109 29 -109 91c0 72 56 121 103 149c36 21 76 36 117 36z" fill="currentColor"/>
<path transform="translate(88.7187, 35.4119) scale(0.0040, -0.0040)" d="M220 138c56 0 109 -29 109 -91c0 -72 -56 -121 -103 -149c-36 -21 -76 -36 -117 -36c-56 0 -109 29 -109 91c0 72 56 121 103 149c36 21 76 36 117 36z" fill="currentColor"/>
<path transform="translate(87.4676, 33.4119) scale(0.0040, -0.0040)" d="M220 138c56 0 109 -29 109 -91c0 -72 -56 -121 -103 -149c-36 -21 -76 -36 -117 -36c-56 0 -109 29 -109 91c0 72 56 121 103 149c36 21 76 36 117 36z" fill="currentColor"/>
<rect transform="translate(88.7187, 45.0126)" x="-0.0650" y="-4.3333" width="0.1300" height="6.1455" ry="0.0400" fill="currentColor"/>
<rect transform="translate(88.7187, 33.4119)" x="-0.0650" y="-3.3333" width="0.1300" height="6.6455" ry="0.0400" fill="currentColor"/>
<path transform="translate(88.9280, 25.6024) scale(0.0032, -0.0032)" d="M0 0c0 30 25 55 55 55s55 -25 55 -55s-25 -55 -55 -55s-55 25 -55 55z" fill="currentColor"/>
<rect transform="translate(88.5126, 24.4119)" x="-0.0650" y="-2.6457" width="0.1300" height="4.0361" ry="0.0400" fill="currentColor"/>
<path transform="translate(88.9280, 24.0150) scale(0.0032, -0.0032)" d="M0 0c0 30 25 55 55 55s55 -25 55 -55s-25 -55 -55 -55s-55 25 -55 55z" fill="currentColor"/>
</svg>
