<svg xmlns="http://www.w3.org/2000/svg" xmlns:xlink="http://www.w3.org/1999/xlink" version="1.2" width="186.75mm" height="72.63mm" viewBox="6.6568 0.0009 106.2738 41.3302">
<defs><link href="../../assets/fonts.css" type="text/css" rel="stylesheet" xmlns="http://www.w3.org/1999/xhtml" /></defs>
<rect transform="translate(82.5943, 14.5444)" x="0.0000" y="-1.6374" width="0.1900" height="3.2748" ry="0.0000" fill="currentColor"/>
<rect transform="translate(112.3306, 25.0444)" x="0.0000" y="-2.0000" width="0.6000" height="4.0500" ry="0.0000" fill="currentColor"/>
<rect transform="translate(111.8406, 25.0444)" x="0.0000" y="-2.0000" width="0.1900" height="4.0500" ry="0.0000" fill="currentColor"/>
<rect transform="translate(112.3306, -0.0000)" x="0.0000" y="7.1818" width="0.6000" height="5.7752" ry="0.0000" fill="currentColor"/>
<rect transform="translate(111.8406, -0.0000)" x="0.0000" y="7.1818" width="0.1900" height="5.7752" ry="0.0000" fill="currentColor"/>
<rect transform="translate(112.3306, 14.5444)" x="0.0000" y="-1.6374" width="0.6000" height="3.2748" ry="0.0000" fill="currentColor"/>
<rect transform="translate(111.8406, 14.5444)" x="0.0000" y="-1.6374" width="0.1900" height="3.2748" ry="0.0000" fill="currentColor"/>
<rect transform="translate(112.3306, 5.5444)" x="0.0000" y="-1.5874" width="0.6000" height="3.2248" ry="0.0000" fill="currentColor"/>
<rect transform="translate(111.8406, 5.5444)" x="0.0000" y="-1.5874" width="0.1900" height="3.2248" ry="0.0000" fill="currentColor"/>
<rect transform="translate(82.5943, 5.5444)" x="0.0000" y="-1.5874" width="0.1900" height="3.2248" ry="0.0000" fill="currentColor"/>
<rect transform="translate(40.0939, -0.0000)" x="0.0000" y="27.0944" width="0.1900" height="7.6868" ry="0.0000" fill="currentColor"/>
<rect transform="translate(103.8506, -0.0000)" x="0.0000" y="27.0944" width="0.1900" height="7.6868" ry="0.0000" fill="currentColor"/>
<rect transform="translate(40.0939, 36.7811)" x="0.0000" y="-2.0500" width="0.1900" height="4.0500" ry="0.0000" fill="currentColor"/>
<rect transform="translate(103.8506, 36.7811)" x="0.0000" y="-2.0500" width="0.1900" height="4.0500" ry="0.0000" fill="currentColor"/>
<rect transform="translate(40.0939, 25.0444)" x="0.0000" y="-2.0000" width="0.1900" height="4.0500" ry="0.0000" fill="currentColor"/>
<rect transform="translate(103.8506, 25.0444)" x="0.0000" y="-2.0000" width="0.1900" height="4.0500" ry="0.0000" fill="currentColor"/>
<rect transform="translate(61.3503, 25.0444)" x="0.0000" y="-2.0000" width="0.1900" height="4.0500" ry="0.0000" fill="currentColor"/>
<rect transform="translate(82.5943, -0.0000)" x="0.0000" y="27.0944" width="0.1900" height="7.6868" ry="0.0000" fill="currentColor"/>
<rect transform="translate(82.5943, 36.7811)" x="0.0000" y="-2.0500" width="0.1900" height="4.0500" ry="0.0000" fill="currentColor"/>
<rect transform="translate(61.3503, -0.0000)" x="0.0000" y="7.1818" width="0.1900" height="5.7752" ry="0.0000" fill="currentColor"/>
<rect transform="translate(61.3503, 36.7811)" x="0.0000" y="-2.0500" width="0.1900" height="4.0500" ry="0.0000" fill="currentColor"/>
<rect transform="translate(61.3503, 14.5444)" x="0.0000" y="-1.6374" width="0.1900" height="3.2748" ry="0.0000" fill="currentColor"/>
<rect transform="translate(61.3503, -0.0000)" x="0.0000" y="27.0944" width="0.1900" height="7.6868" ry="0.0000" fill="currentColor"/>
<rect transform="translate(82.5943, 25.0444)" x="0.0000" y="-2.0000" width="0.1900" height="4.0500" ry="0.0000" fill="currentColor"/>
<rect transform="translate(61.3503, 5.5444)" x="0.0000" y="-1.5874" width="0.1900" height="3.2248" ry="0.0000" fill="currentColor"/>
<rect transform="translate(82.5943, -0.0000)" x="0.0000" y="7.1818" width="0.1900" height="5.7752" ry="0.0000" fill="currentColor"/>
<rect transform="translate(112.3306, -0.0000)" x="0.0000" y="27.0944" width="0.6000" height="7.6868" ry="0.0000" fill="currentColor"/>
<rect transform="translate(111.8406, -0.0000)" x="0.0000" y="27.0944" width="0.1900" height="7.6868" ry="0.0000" fill="currentColor"/>
<rect transform="translate(112.3306, 36.7811)" x="0.0000" y="-2.0500" width="0.6000" height="4.0500" ry="0.0000" fill="currentColor"/>
<rect transform="translate(111.8406, 36.7811)" x="0.0000" y="-2.0500" width="0.1900" height="4.0500" ry="0.0000" fill="currentColor"/>
<line transform="translate(7.9668, 38.7811)" stroke-linejoin="round" stroke-linecap="round" stroke-width="0.1000" stroke="currentColor" x1="0.0500" y1="-0.0000" x2="104.9138" y2="-0.0000"/>
<line transform="translate(7.9668, 37.7811)" stroke-linejoin="round" stroke-linecap="round" stroke-width="0.1000" stroke="currentColor" x1="0.0500" y1="-0.0000" x2="104.9138" y2="-0.0000"/>
<line transform="translate(7.9668, 36.7811)" stroke-linejoin="round" stroke-linecap="round" stroke-width="0.1000" stroke="currentColor" x1="0.0500" y1="-0.0000" x2="104.9138" y2="-0.0000"/>
<line transform="translate(7.9668, 35.7811)" stroke-linejoin="round" stroke-linecap="round" stroke-width="0.1000" stroke="currentColor" x1="0.0500" y1="-0.0000" x2="104.9138" y2="-0.0000"/>
<line transform="translate(7.9668, 34.7811)" stroke-linejoin="round" stroke-linecap="round" stroke-width="0.1000" stroke="currentColor" x1="0.0500" y1="-0.0000" x2="104.9138" y2="-0.0000"/>
<rect transform="translate(0.0000, 39.7811)" x="19.3656" y="-0.1000" width="1.9743" height="0.2000" ry="0.1000" fill="currentColor"/>
<rect transform="translate(0.0000, 40.7811)" x="19.3656" y="-0.1000" width="1.9743" height="0.2000" ry="0.1000" fill="currentColor"/>
<rect transform="translate(0.0000, 39.7811)" x="41.0058" y="-0.1000" width="1.9743" height="0.2000" ry="0.1000" fill="currentColor"/>
<rect transform="translate(0.0000, 40.7811)" x="41.0058" y="-0.1000" width="1.9743" height="0.2000" ry="0.1000" fill="currentColor"/>
<rect transform="translate(0.0000, 39.7811)" x="62.2498" y="-0.1000" width="1.9743" height="0.2000" ry="0.1000" fill="currentColor"/>
<rect transform="translate(0.0000, 40.7811)" x="62.2498" y="-0.1000" width="1.9743" height="0.2000" ry="0.1000" fill="currentColor"/>
<rect transform="translate(0.0000, 39.7811)" x="83.5061" y="-0.1000" width="1.9743" height="0.2000" ry="0.1000" fill="currentColor"/>
<rect transform="translate(0.0000, 40.7811)" x="83.5061" y="-0.1000" width="1.9743" height="0.2000" ry="0.1000" fill="currentColor"/>
<rect transform="translate(0.0000, 39.7811)" x="105.3456" y="-0.1000" width="2.9700" height="0.2000" ry="0.1000" fill="currentColor"/>
<rect transform="translate(0.0000, 40.7811)" x="105.3456" y="-0.1000" width="2.9700" height="0.2000" ry="0.1000" fill="currentColor"/>
<line transform="translate(7.9668, 16.1318)" stroke-linejoin="round" stroke-linecap="round" stroke-width="0.1000" stroke="currentColor" x1="0.0500" y1="-0.0000" x2="104.9138" y2="-0.0000"/>
<line transform="translate(7.9668, 15.3381)" stroke-linejoin="round" stroke-linecap="round" stroke-width="0.1000" stroke="currentColor" x1="0.0500" y1="-0.0000" x2="104.9138" y2="-0.0000"/>
<line transform="translate(7.9668, 14.5444)" stroke-linejoin="round" stroke-linecap="round" stroke-width="0.1000" stroke="currentColor" x1="0.0500" y1="-0.0000" x2="104.9138" y2="-0.0000"/>
<line transform="translate(7.9668, 13.7507)" stroke-linejoin="round" stroke-linecap="round" stroke-width="0.1000" stroke="currentColor" x1="0.0500" y1="-0.0000" x2="104.9138" y2="-0.0000"/>
<line transform="translate(7.9668, 12.9570)" stroke-linejoin="round" stroke-linecap="round" stroke-width="0.1000" stroke="currentColor" x1="0.0500" y1="-0.0000" x2="104.9138" y2="-0.0000"/>
<rect transform="translate(103.8506, 14.5444)" x="0.0000" y="-1.6374" width="0.1900" height="3.2748" ry="0.0000" fill="currentColor"/>
<rect transform="translate(0.0000, 12.1633)" x="62.3180" y="-0.0897" width="1.5651" height="0.1794" ry="0.0897" fill="currentColor"/>
<rect transform="translate(0.0000, 12.1633)" x="69.6165" y="-0.0897" width="1.5651" height="0.1794" ry="0.0897" fill="currentColor"/>
<rect transform="translate(0.0000, 12.1633)" x="72.2687" y="-0.0897" width="1.5651" height="0.1794" ry="0.0897" fill="currentColor"/>
<rect transform="translate(40.0939, 5.5444)" x="0.0000" y="-1.5874" width="0.1900" height="3.2248" ry="0.0000" fill="currentColor"/>
<line transform="translate(7.9668, 27.0444)" stroke-linejoin="round" stroke-linecap="round" stroke-width="0.1000" stroke="currentColor" x1="0.0500" y1="-0.0000" x2="104.9138" y2="-0.0000"/>
<line transform="translate(7.9668, 26.0444)" stroke-linejoin="round" stroke-linecap="round" stroke-width="0.1000" stroke="currentColor" x1="0.0500" y1="-0.0000" x2="104.9138" y2="-0.0000"/>
<line transform="translate(7.9668, 25.0444)" stroke-linejoin="round" stroke-linecap="round" stroke-width="0.1000" stroke="currentColor" x1="0.0500" y1="-0.0000" x2="104.9138" y2="-0.0000"/>
<line transform="translate(7.9668, 24.0444)" stroke-linejoin="round" stroke-linecap="round" stroke-width="0.1000" stroke="currentColor" x1="0.0500" y1="-0.0000" x2="104.9138" y2="-0.0000"/>
<line transform="translate(7.9668, 23.0444)" stroke-linejoin="round" stroke-linecap="round" stroke-width="0.1000" stroke="currentColor" x1="0.0500" y1="-0.0000" x2="104.9138" y2="-0.0000"/>
<rect transform="translate(0.0000, 28.0444)" x="19.3656" y="-0.1000" width="1.9743" height="0.2000" ry="0.1000" fill="currentColor"/>
<rect transform="translate(0.0000, 29.0444)" x="19.3656" y="-0.1000" width="1.9743" height="0.2000" ry="0.1000" fill="currentColor"/>
<rect transform="translate(0.0000, 28.0444)" x="24.1480" y="-0.1000" width="1.9743" height="0.2000" ry="0.1000" fill="currentColor"/>
<rect transform="translate(0.0000, 28.0444)" x="26.6642" y="-0.1000" width="1.9743" height="0.2000" ry="0.1000" fill="currentColor"/>
<rect transform="translate(0.0000, 29.0444)" x="26.6642" y="-0.1000" width="1.9743" height="0.2000" ry="0.1000" fill="currentColor"/>
<rect transform="translate(0.0000, 28.0444)" x="31.5825" y="-0.1000" width="1.9743" height="0.2000" ry="0.1000" fill="currentColor"/>
<rect transform="translate(0.0000, 28.0444)" x="34.4825" y="-0.1000" width="1.9743" height="0.2000" ry="0.1000" fill="currentColor"/>
<rect transform="translate(0.0000, 29.0444)" x="34.4825" y="-0.1000" width="1.9743" height="0.2000" ry="0.1000" fill="currentColor"/>
<rect transform="translate(0.0000, 28.0444)" x="41.0058" y="-0.1000" width="1.9743" height="0.2000" ry="0.1000" fill="currentColor"/>
<rect transform="translate(0.0000, 29.0444)" x="41.0058" y="-0.1000" width="1.9743" height="0.2000" ry="0.1000" fill="currentColor"/>
<rect transform="translate(0.0000, 28.0444)" x="45.7881" y="-0.1000" width="1.9743" height="0.2000" ry="0.1000" fill="currentColor"/>
<rect transform="translate(0.0000, 28.0444)" x="48.3043" y="-0.1000" width="1.9743" height="0.2000" ry="0.1000" fill="currentColor"/>
<rect transform="translate(0.0000, 29.0444)" x="48.3043" y="-0.1000" width="1.9743" height="0.2000" ry="0.1000" fill="currentColor"/>
<rect transform="translate(0.0000, 28.0444)" x="53.2227" y="-0.1000" width="1.9743" height="0.2000" ry="0.1000" fill="currentColor"/>
<rect transform="translate(0.0000, 28.0444)" x="55.7389" y="-0.1000" width="1.9743" height="0.2000" ry="0.1000" fill="currentColor"/>
<rect transform="translate(0.0000, 29.0444)" x="55.7389" y="-0.1000" width="1.9743" height="0.2000" ry="0.1000" fill="currentColor"/>
<rect transform="translate(0.0000, 28.0444)" x="62.2498" y="-0.1000" width="1.9743" height="0.2000" ry="0.1000" fill="currentColor"/>
<rect transform="translate(0.0000, 28.0444)" x="76.9829" y="-0.1000" width="1.9743" height="0.2000" ry="0.1000" fill="currentColor"/>
<rect transform="translate(0.0000, 28.0444)" x="83.5061" y="-0.1000" width="1.9743" height="0.2000" ry="0.1000" fill="currentColor"/>
<rect transform="translate(0.0000, 29.0444)" x="83.5061" y="-0.1000" width="1.9743" height="0.2000" ry="0.1000" fill="currentColor"/>
<rect transform="translate(0.0000, 28.0444)" x="88.2885" y="-0.1000" width="1.9743" height="0.2000" ry="0.1000" fill="currentColor"/>
<rect transform="translate(0.0000, 28.0444)" x="90.8046" y="-0.1000" width="1.9743" height="0.2000" ry="0.1000" fill="currentColor"/>
<rect transform="translate(0.0000, 29.0444)" x="90.8046" y="-0.1000" width="1.9743" height="0.2000" ry="0.1000" fill="currentColor"/>
<rect transform="translate(0.0000, 28.0444)" x="95.7230" y="-0.1000" width="1.9743" height="0.2000" ry="0.1000" fill="currentColor"/>
<rect transform="translate(0.0000, 28.0444)" x="98.2392" y="-0.1000" width="1.9743" height="0.2000" ry="0.1000" fill="currentColor"/>
<rect transform="translate(0.0000, 29.0444)" x="98.2392" y="-0.1000" width="1.9743" height="0.2000" ry="0.1000" fill="currentColor"/>
<rect transform="translate(0.0000, 30.0444)" x="98.2392" y="-0.1000" width="1.9743" height="0.2000" ry="0.1000" fill="currentColor"/>
<rect transform="translate(0.0000, 28.0444)" x="100.7554" y="-0.1000" width="1.9743" height="0.2000" ry="0.1000" fill="currentColor"/>
<rect transform="translate(0.0000, 28.0444)" x="105.3456" y="-0.1000" width="2.9700" height="0.2000" ry="0.1000" fill="currentColor"/>
<rect transform="translate(0.0000, 29.0444)" x="105.3456" y="-0.1000" width="2.9700" height="0.2000" ry="0.1000" fill="currentColor"/>
<rect transform="translate(0.0000, 28.0444)" x="105.3456" y="-0.1000" width="2.9700" height="0.2000" ry="0.1000" fill="currentColor"/>
<rect transform="translate(0.0000, 3.1633)" x="19.3083" y="-0.0897" width="2.3182" height="0.1794" ry="0.0897" fill="currentColor"/>
<rect transform="translate(0.0000, 2.3696)" x="19.3083" y="-0.0897" width="2.3182" height="0.1794" ry="0.0897" fill="currentColor"/>
<rect transform="translate(0.0000, 3.1633)" x="40.9485" y="-0.0897" width="2.3182" height="0.1794" ry="0.0897" fill="currentColor"/>
<rect transform="translate(0.0000, 2.3696)" x="40.9485" y="-0.0897" width="2.3182" height="0.1794" ry="0.0897" fill="currentColor"/>
<rect transform="translate(0.0000, 3.1633)" x="62.1925" y="-0.0897" width="2.3182" height="0.1794" ry="0.0897" fill="currentColor"/>
<rect transform="translate(0.0000, 2.3696)" x="62.1925" y="-0.0897" width="2.3182" height="0.1794" ry="0.0897" fill="currentColor"/>
<rect transform="translate(0.0000, 3.1633)" x="83.4488" y="-0.0897" width="2.3182" height="0.1794" ry="0.0897" fill="currentColor"/>
<rect transform="translate(0.0000, 2.3696)" x="83.4488" y="-0.0897" width="2.3182" height="0.1794" ry="0.0897" fill="currentColor"/>
<rect transform="translate(0.0000, 3.1633)" x="105.4542" y="-0.0897" width="2.3182" height="0.1794" ry="0.0897" fill="currentColor"/>
<rect transform="translate(0.0000, 2.3696)" x="105.4542" y="-0.0897" width="2.3182" height="0.1794" ry="0.0897" fill="currentColor"/>
<line transform="translate(7.9668, 7.1318)" stroke-linejoin="round" stroke-linecap="round" stroke-width="0.1000" stroke="currentColor" x1="0.0500" y1="-0.0000" x2="104.9138" y2="-0.0000"/>
<line transform="translate(7.9668, 6.3381)" stroke-linejoin="round" stroke-linecap="round" stroke-width="0.1000" stroke="currentColor" x1="0.0500" y1="-0.0000" x2="104.9138" y2="-0.0000"/>
<line transform="translate(7.9668, 5.5444)" stroke-linejoin="round" stroke-linecap="round" stroke-width="0.1000" stroke="currentColor" x1="0.0500" y1="-0.0000" x2="104.9138" y2="-0.0000"/>
<line transform="translate(7.9668, 4.7507)" stroke-linejoin="round" stroke-linecap="round" stroke-width="0.1000" stroke="currentColor" x1="0.0500" y1="-0.0000" x2="104.9138" y2="-0.0000"/>
<line transform="translate(7.9668, 3.9570)" stroke-linejoin="round" stroke-linecap="round" stroke-width="0.1000" stroke="currentColor" x1="0.0500" y1="-0.0000" x2="104.9138" y2="-0.0000"/>
<rect transform="translate(103.8506, 5.5444)" x="0.0000" y="-1.5874" width="0.1900" height="3.2248" ry="0.0000" fill="currentColor"/>
<rect transform="translate(103.8506, -0.0000)" x="0.0000" y="7.1818" width="0.1900" height="5.7752" ry="0.0000" fill="currentColor"/>
<rect transform="translate(40.0939, 14.5444)" x="0.0000" y="-1.6374" width="0.1900" height="3.2748" ry="0.0000" fill="currentColor"/>
<rect transform="translate(40.0939, -0.0000)" x="0.0000" y="7.1818" width="0.1900" height="5.7752" ry="0.0000" fill="currentColor"/>
<rect transform="translate(38.5789, 25.0444)" x="-0.0650" y="-1.8100" width="0.1300" height="3.6222" ry="0.0400" fill="currentColor"/>
<rect transform="translate(29.7104, 14.5444)" x="-0.0650" y="-1.4500" width="0.1300" height="2.6405" ry="0.0400" fill="currentColor"/>
<path transform="translate(29.6454, 38.2811) scale(0.0040, -0.0040)" d="M220 138c56 0 109 -29 109 -91c0 -72 -56 -121 -103 -149c-36 -21 -76 -36 -117 -36c-56 0 -109 29 -109 91c0 72 56 121 103 149c36 21 76 36 117 36z" fill="currentColor"/>
<path transform="translate(29.6454, 27.0444) scale(0.0040, -0.0040)" d="M220 138c56 0 109 -29 109 -91c0 -72 -56 -121 -103 -149c-36 -21 -76 -36 -117 -36c-56 0 -109 29 -109 91c0 72 56 121 103 149c36 21 76 36 117 36z" fill="currentColor"/>
<path transform="translate(29.6454, 12.9570) scale(0.0032, -0.0032)" d="M214 140c59 0 115 -32 115 -97c0 -72 -54 -121 -101 -149c-35 -21 -74 -34 -114 -34c-59 0 -114 32 -114 97c0 72 54 121 101 149c35 21 73 34 113 34z" fill="currentColor"/>
<rect transform="translate(28.2444, 25.0444)" x="-0.0650" y="-2.1883" width="0.1300" height="6.0005" ry="0.0400" fill="currentColor"/>
<path transform="translate(41.3348, 40.7811) scale(0.0040, -0.0040)" d="M220 138c56 0 109 -29 109 -91c0 -72 -56 -121 -103 -149c-36 -21 -76 -36 -117 -36c-56 0 -109 29 -109 91c0 72 56 121 103 149c36 21 76 36 117 36z" fill="currentColor"/>
<path transform="translate(41.3348, 26.0444) scale(0.0040, -0.0040)" d="M220 138c56 0 109 -29 109 -91c0 -72 -56 -121 -103 -149c-36 -21 -76 -36 -117 -36c-56 0 -109 29 -109 91c0 72 56 121 103 149c36 21 76 36 117 36z" fill="currentColor"/>
<path transform="translate(41.3348, 29.5444) scale(0.0040, -0.0040)" d="M220 138c56 0 109 -29 109 -91c0 -72 -56 -121 -103 -149c-36 -21 -76 -36 -117 -36c-56 0 -109 29 -109 91c0 72 56 121 103 149c36 21 76 36 117 36z" fill="currentColor"/>
<path transform="translate(41.3348, 12.5601) scale(0.0032, -0.0032)" d="M214 140c59 0 115 -32 115 -97c0 -72 -54 -121 -101 -149c-35 -21 -74 -34 -114 -34c-59 0 -114 32 -114 97c0 72 54 121 101 149c35 21 73 34 113 34z" fill="currentColor"/>
<rect transform="translate(28.2444, 36.7811)" x="-0.0650" y="-2.0000" width="0.1300" height="3.3122" ry="0.0400" fill="currentColor"/>
<path transform="translate(41.3348, 2.3696) scale(0.0032, -0.0032)" d="M212 110c-49 0 -67 -43 -67 -88c0 -74 56 -132 129 -132c49 0 67 43 67 88c0 74 -56 132 -129 132zM487 0c0 -43 -34 -77 -72 -99c-52 -30 -112 -41 -172 -41s-120 11 -172 41c-38 22 -71 56 -71 99s33 77 71 99c52 30 112 41 172 41s120 -11 172 -41
c38 -22 72 -56 72 -99z" fill="currentColor"/>
<path transform="translate(28.3094, 34.8211) scale(0.0040, -0.0040)" d="M0 0c0 -198 209 -335 209 -533c0 -71 -16 -141 -42 -207c-5 -8 -12 -12 -19 -12c-13 0 -26 11 -23 27c26 61 42 126 42 192c0 104 -95 208 -167 283h-16v250h16z" fill="currentColor"/>
<path transform="translate(34.8116, 13.3538) scale(0.0032, -0.0032)" d="M214 140c59 0 115 -32 115 -97c0 -72 -54 -121 -101 -149c-35 -21 -74 -34 -114 -34c-59 0 -114 32 -114 97c0 72 54 121 101 149c35 21 73 34 113 34z" fill="currentColor"/>
<path transform="translate(35.3333, 12.5601) scale(0.0032, -0.0032)" d="M127 -23h-254c-13 0 -23 10 -23 23s10 23 23 23h254c13 0 23 -10 23 -23s-10 -23 -23 -23z" fill="currentColor"/>
<path transform="translate(34.8116, 29.5444) scale(0.0040, -0.0040)" d="M220 138c56 0 109 -29 109 -91c0 -72 -56 -121 -103 -149c-36 -21 -76 -36 -117 -36c-56 0 -109 29 -109 91c0 72 56 121 103 149c36 21 76 36 117 36z" fill="currentColor"/>
<path transform="translate(34.8116, 26.0444) scale(0.0040, -0.0040)" d="M220 138c56 0 109 -29 109 -91c0 -72 -56 -121 -103 -149c-36 -21 -76 -36 -117 -36c-56 0 -109 29 -109 91c0 72 56 121 103 149c36 21 76 36 117 36z" fill="currentColor"/>
<path transform="translate(34.8116, 38.7811) scale(0.0040, -0.0040)" d="M220 138c56 0 109 -29 109 -91c0 -72 -56 -121 -103 -149c-36 -21 -76 -36 -117 -36c-56 0 -109 29 -109 91c0 72 56 121 103 149c36 21 76 36 117 36z" fill="currentColor"/>
<rect transform="translate(34.8766, 14.5444)" x="-0.0650" y="-1.0531" width="0.1300" height="2.6405" ry="0.0400" fill="currentColor"/>
<rect transform="translate(36.0628, 25.0444)" x="-0.0650" y="-1.8100" width="0.1300" height="6.1222" ry="0.0400" fill="currentColor"/>
<rect transform="translate(30.8966, 25.0444)" x="-0.0650" y="-1.8100" width="0.1300" height="3.6222" ry="0.0400" fill="currentColor"/>
<path transform="translate(37.3278, 27.0444) scale(0.0040, -0.0040)" d="M220 138c56 0 109 -29 109 -91c0 -72 -56 -121 -103 -149c-36 -21 -76 -36 -117 -36c-56 0 -109 29 -109 91c0 72 56 121 103 149c36 21 76 36 117 36z" fill="currentColor"/>
<rect transform="translate(30.8966, 36.7811)" x="-0.0650" y="-2.0000" width="0.1300" height="3.3122" ry="0.0400" fill="currentColor"/>
<path transform="translate(31.9116, 28.0444) scale(0.0040, -0.0040)" d="M220 138c56 0 109 -29 109 -91c0 -72 -56 -121 -103 -149c-36 -21 -76 -36 -117 -36c-56 0 -109 29 -109 91c0 72 56 121 103 149c36 21 76 36 117 36z" fill="currentColor"/>
<rect transform="translate(33.1628, 25.0444)" x="-0.0650" y="-1.8100" width="0.1300" height="4.6222" ry="0.0400" fill="currentColor"/>
<rect transform="translate(36.0628, 36.7811)" x="-0.0650" y="-1.5000" width="0.1300" height="3.3122" ry="0.0400" fill="currentColor"/>
<path transform="translate(105.8406, 26.0444) scale(0.0040, -0.0040)" d="M215 112c-50 0 -69 -43 -69 -88c0 -77 57 -136 134 -136c50 0 69 43 69 88c0 77 -57 136 -134 136zM495 0c0 -43 -35 -76 -73 -97c-53 -30 -113 -41 -174 -41s-122 11 -175 41c-38 21 -73 54 -73 97s35 76 73 97c53 30 114 41 175 41s121 -11 174 -41
c38 -21 73 -54 73 -97z" fill="currentColor"/>
<path transform="translate(106.8306, 22.7184) scale(0.0040, -0.0040)" d="M-67 48c0 37 30 67 67 67s67 -30 67 -67s-30 -67 -67 -67s-67 30 -67 67zM0 363c157 0 332 -176 332 -366c0 -9 -10 -15 -19 -15s-17 5 -19 18c-26 148 -146 262 -294 262s-268 -114 -294 -262c-2 -13 -10 -18 -19 -18s-19 6 -19 15c0 190 175 366 332 366z" fill="currentColor"/>
<path transform="translate(104.5406, 36.7811) scale(0.0040, -0.0040)" d="M42 278c-4 3 -6 8 -6 12c0 8 7 16 16 16c3 0 7 -1 10 -4l128 -107c8 -6 11 -13 11 -20c0 -24 -39 -51 -68 -78c-15 -14 -23 -34 -23 -53c0 -17 5 -33 17 -47l31 -25c4 -3 6 -8 6 -12c0 -8 -7 -16 -16 -16c-3 0 -7 1 -10 4l-128 107c-8 6 -11 13 -11 20c0 24 39 51 68 78
c15 14 23 34 23 53c0 17 -5 33 -17 47z" fill="currentColor"/>
<path transform="translate(104.5406, 37.7811) scale(0.0040, -0.0040)" d="M42 278c-4 3 -6 8 -6 12c0 8 7 16 16 16c3 0 7 -1 10 -4l128 -107c8 -6 11 -13 11 -20c0 -24 -39 -51 -68 -78c-15 -14 -23 -34 -23 -53c0 -17 5 -33 17 -47l31 -25c4 -3 6 -8 6 -12c0 -8 -7 -16 -16 -16c-3 0 -7 1 -10 4l-128 107c-8 6 -11 13 -11 20c0 24 39 51 68 78
c15 14 23 34 23 53c0 17 -5 33 -17 47z" fill="currentColor"/>
<path transform="translate(104.5406, 38.7811) scale(0.0040, -0.0040)" d="M42 278c-4 3 -6 8 -6 12c0 8 7 16 16 16c3 0 7 -1 10 -4l128 -107c8 -6 11 -13 11 -20c0 -24 -39 -51 -68 -78c-15 -14 -23 -34 -23 -53c0 -17 5 -33 17 -47l31 -25c4 -3 6 -8 6 -12c0 -8 -7 -16 -16 -16c-3 0 -7 1 -10 4l-128 107c-8 6 -11 13 -11 20c0 24 39 51 68 78
c15 14 23 34 23 53c0 17 -5 33 -17 47z" fill="currentColor"/>
<path transform="translate(104.5406, 39.7811) scale(0.0040, -0.0040)" d="M42 278c-4 3 -6 8 -6 12c0 8 7 16 16 16c3 0 7 -1 10 -4l128 -107c8 -6 11 -13 11 -20c0 -24 -39 -51 -68 -78c-15 -14 -23 -34 -23 -53c0 -17 5 -33 17 -47l31 -25c4 -3 6 -8 6 -12c0 -8 -7 -16 -16 -16c-3 0 -7 1 -10 4l-128 107c-8 6 -11 13 -11 20c0 24 39 51 68 78
c15 14 23 34 23 53c0 17 -5 33 -17 47z" fill="currentColor"/>
<path transform="translate(104.5406, 40.7811) scale(0.0040, -0.0040)" d="M42 278c-4 3 -6 8 -6 12c0 8 7 16 16 16c3 0 7 -1 10 -4l128 -107c8 -6 11 -13 11 -20c0 -24 -39 -51 -68 -78c-15 -14 -23 -34 -23 -53c0 -17 5 -33 17 -47l31 -25c4 -3 6 -8 6 -12c0 -8 -7 -16 -16 -16c-3 0 -7 1 -10 4l-128 107c-8 6 -11 13 -11 20c0 24 39 51 68 78
c15 14 23 34 23 53c0 17 -5 33 -17 47z" fill="currentColor"/>
<path transform="translate(105.8406, 40.7811) scale(0.0040, -0.0040)" d="M215 112c-50 0 -69 -43 -69 -88c0 -77 57 -136 134 -136c50 0 69 43 69 88c0 77 -57 136 -134 136zM495 0c0 -43 -35 -76 -73 -97c-53 -30 -113 -41 -174 -41s-122 11 -175 41c-38 21 -73 54 -73 97s35 76 73 97c53 30 114 41 175 41s121 -11 174 -41
c38 -21 73 -54 73 -97z" fill="currentColor"/>
<path transform="translate(105.8406, 38.7811) scale(0.0040, -0.0040)" d="M215 112c-50 0 -69 -43 -69 -88c0 -77 57 -136 134 -136c50 0 69 43 69 88c0 77 -57 136 -134 136zM495 0c0 -43 -35 -76 -73 -97c-53 -30 -113 -41 -174 -41s-122 11 -175 41c-38 21 -73 54 -73 97s35 76 73 97c53 30 114 41 175 41s121 -11 174 -41
c38 -21 73 -54 73 -97z" fill="currentColor"/>
<path transform="translate(105.8406, 36.2811) scale(0.0040, -0.0040)" d="M215 112c-50 0 -69 -43 -69 -88c0 -77 57 -136 134 -136c50 0 69 43 69 88c0 77 -57 136 -134 136zM495 0c0 -43 -35 -76 -73 -97c-53 -30 -113 -41 -174 -41s-122 11 -175 41c-38 21 -73 54 -73 97s35 76 73 97c53 30 114 41 175 41s121 -11 174 -41
c38 -21 73 -54 73 -97z" fill="currentColor"/>
<path transform="translate(106.8306, 34.4551) scale(0.0040, -0.0040)" d="M-67 48c0 37 30 67 67 67s67 -30 67 -67s-30 -67 -67 -67s-67 30 -67 67zM0 363c157 0 332 -176 332 -366c0 -9 -10 -15 -19 -15s-17 5 -19 18c-26 148 -146 262 -294 262s-268 -114 -294 -262c-2 -13 -10 -18 -19 -18s-19 6 -19 15c0 190 175 366 332 366z" fill="currentColor"/>
<path transform="translate(22.2108, 27.0444) scale(0.0040, -0.0040)" d="M220 138c56 0 109 -29 109 -91c0 -72 -56 -121 -103 -149c-36 -21 -76 -36 -117 -36c-56 0 -109 29 -109 91c0 72 56 121 103 149c36 21 76 36 117 36z" fill="currentColor"/>
<rect transform="translate(23.4620, 25.0444)" x="-0.0650" y="-2.0660" width="0.1300" height="3.8782" ry="0.0400" fill="currentColor"/>
<path transform="translate(24.4770, 28.0444) scale(0.0040, -0.0040)" d="M220 138c56 0 109 -29 109 -91c0 -72 -56 -121 -103 -149c-36 -21 -76 -36 -117 -36c-56 0 -109 29 -109 91c0 72 56 121 103 149c36 21 76 36 117 36z" fill="currentColor"/>
<rect transform="translate(25.7282, 25.0444)" x="-0.0650" y="-2.1240" width="0.1300" height="4.9362" ry="0.0400" fill="currentColor"/>
<path transform="translate(26.9932, 12.9570) scale(0.0032, -0.0032)" d="M214 140c59 0 115 -32 115 -97c0 -72 -54 -121 -101 -149c-35 -21 -74 -34 -114 -34c-59 0 -114 32 -114 97c0 72 54 121 101 149c35 21 73 34 113 34z" fill="currentColor"/>
<path transform="translate(26.9932, 29.0444) scale(0.0040, -0.0040)" d="M220 138c56 0 109 -29 109 -91c0 -72 -56 -121 -103 -149c-36 -21 -76 -36 -117 -36c-56 0 -109 29 -109 91c0 72 56 121 103 149c36 21 76 36 117 36z" fill="currentColor"/>
<path transform="translate(26.9932, 25.5444) scale(0.0040, -0.0040)" d="M220 138c56 0 109 -29 109 -91c0 -72 -56 -121 -103 -149c-36 -21 -76 -36 -117 -36c-56 0 -109 29 -109 91c0 72 56 121 103 149c36 21 76 36 117 36z" fill="currentColor"/>
<path transform="translate(26.9932, 38.2811) scale(0.0040, -0.0040)" d="M220 138c56 0 109 -29 109 -91c0 -72 -56 -121 -103 -149c-36 -21 -76 -36 -117 -36c-56 0 -109 29 -109 91c0 72 56 121 103 149c36 21 76 36 117 36z" fill="currentColor"/>
<rect transform="translate(27.0582, 14.5444)" x="-0.0650" y="-1.4500" width="0.1300" height="2.6405" ry="0.0400" fill="currentColor"/>
<path transform="translate(27.1232, 15.6949) scale(0.0032, -0.0032)" d="M0 0h-19v250h19c96 59 223 149 223 259c0 56 -15 111 -41 161c-3 18 11 30 25 30c8 0 17 -4 22 -13c25 -56 41 -116 41 -178c0 -204 -270 -305 -270 -509z" fill="currentColor"/>
<path transform="translate(58.5841, 27.0444) scale(0.0040, -0.0040)" d="M220 138c56 0 109 -29 109 -91c0 -72 -56 -121 -103 -149c-36 -21 -76 -36 -117 -36c-56 0 -109 29 -109 91c0 72 56 121 103 149c36 21 76 36 117 36z" fill="currentColor"/>
<rect transform="translate(59.8353, 25.0444)" x="-0.0650" y="-1.8100" width="0.1300" height="3.6222" ry="0.0400" fill="currentColor"/>
<path transform="translate(62.5788, 2.3696) scale(0.0032, -0.0032)" d="M212 110c-49 0 -67 -43 -67 -88c0 -74 56 -132 129 -132c49 0 67 43 67 88c0 74 -56 132 -129 132zM487 0c0 -43 -34 -77 -72 -99c-52 -30 -112 -41 -172 -41s-120 11 -172 41c-38 22 -71 56 -71 99s33 77 71 99c52 30 112 41 172 41s120 -11 172 -41
c38 -22 72 -56 72 -99z" fill="currentColor"/>
<path transform="translate(62.5788, 12.1633) scale(0.0032, -0.0032)" d="M214 140c59 0 115 -32 115 -97c0 -72 -54 -121 -101 -149c-35 -21 -74 -34 -114 -34c-59 0 -114 32 -114 97c0 72 54 121 101 149c35 21 73 34 113 34z" fill="currentColor"/>
<path transform="translate(62.5788, 28.0444) scale(0.0040, -0.0040)" d="M220 138c56 0 109 -29 109 -91c0 -72 -56 -121 -103 -149c-36 -21 -76 -36 -117 -36c-56 0 -109 29 -109 91c0 72 56 121 103 149c36 21 76 36 117 36z" fill="currentColor"/>
<path transform="translate(62.5788, 24.5444) scale(0.0040, -0.0040)" d="M220 138c56 0 109 -29 109 -91c0 -72 -56 -121 -103 -149c-36 -21 -76 -36 -117 -36c-56 0 -109 29 -109 91c0 72 56 121 103 149c36 21 76 36 117 36z" fill="currentColor"/>
<path transform="translate(62.5788, 40.7811) scale(0.0040, -0.0040)" d="M220 138c56 0 109 -29 109 -91c0 -72 -56 -121 -103 -149c-36 -21 -76 -36 -117 -36c-56 0 -109 29 -109 91c0 72 56 121 103 149c36 21 76 36 117 36z" fill="currentColor"/>
<line transform="translate(107.3406, 31.8534)" stroke-linejoin="round" stroke-linecap="round" stroke-width="0.1000" stroke="currentColor" x1="0.0000" y1="0.6666" x2="3.5000" y2="0.0000"/>
<line transform="translate(107.3406, 31.8534)" stroke-linejoin="round" stroke-linecap="round" stroke-width="0.1000" stroke="currentColor" x1="0.0000" y1="-0.6666" x2="3.5000" y2="-0.0000"/>
<line transform="translate(107.3406, 19.0774)" stroke-linejoin="round" stroke-linecap="round" stroke-width="0.1000" stroke="currentColor" x1="0.0000" y1="0.6666" x2="3.5000" y2="0.0000"/>
<line transform="translate(107.3406, 19.0774)" stroke-linejoin="round" stroke-linecap="round" stroke-width="0.1000" stroke="currentColor" x1="0.0000" y1="-0.6666" x2="3.5000" y2="-0.0000"/>
<line transform="translate(107.3406, 9.2810)" stroke-linejoin="round" stroke-linecap="round" stroke-width="0.1000" stroke="currentColor" x1="0.0000" y1="0.6666" x2="3.5000" y2="0.0000"/>
<line transform="translate(107.3406, 9.2810)" stroke-linejoin="round" stroke-linecap="round" stroke-width="0.1000" stroke="currentColor" x1="0.0000" y1="-0.6666" x2="3.5000" y2="-0.0000"/>
<polygon transform="translate(94.9721, 24.0444)" stroke-linejoin="round" stroke-linecap="round" stroke-width="0.0800" fill="currentColor" stroke="currentColor" points="7.3885 -0.2000 7.3885 0.2000 0.0400 0.2000 0.0400 -0.2000"/>
<path transform="translate(98.5682, 25.0444)" stroke-width="0.0800" stroke-linejoin="round" stroke-linecap="round" stroke="currentColor" fill="currentColor" d="M0.931080420455757 6.050006C2.0590258778773 6.14576060904632 3.28603056484172 5.17046817189408 3.44725842045575 4.050006C3.21136216029152 5.07652867348192 1.9843574733271 6.05182111063416 0.931080420455757 6.050006z"/>
<path transform="translate(53.5517, 28.0444) scale(0.0040, -0.0040)" d="M220 138c56 0 109 -29 109 -91c0 -72 -56 -121 -103 -149c-36 -21 -76 -36 -117 -36c-56 0 -109 29 -109 91c0 72 56 121 103 149c36 21 76 36 117 36z" fill="currentColor"/>
<rect transform="translate(54.8029, 25.0444)" x="-0.0650" y="-1.8100" width="0.1300" height="4.6222" ry="0.0400" fill="currentColor"/>
<path transform="translate(56.0679, 13.3538) scale(0.0032, -0.0032)" d="M214 140c59 0 115 -32 115 -97c0 -72 -54 -121 -101 -149c-35 -21 -74 -34 -114 -34c-59 0 -114 32 -114 97c0 72 54 121 101 149c35 21 73 34 113 34z" fill="currentColor"/>
<path transform="translate(56.5896, 12.5601) scale(0.0032, -0.0032)" d="M127 -23h-254c-13 0 -23 10 -23 23s10 23 23 23h254c13 0 23 -10 23 -23s-10 -23 -23 -23z" fill="currentColor"/>
<path transform="translate(56.0679, 29.5444) scale(0.0040, -0.0040)" d="M220 138c56 0 109 -29 109 -91c0 -72 -56 -121 -103 -149c-36 -21 -76 -36 -117 -36c-56 0 -109 29 -109 91c0 72 56 121 103 149c36 21 76 36 117 36z" fill="currentColor"/>
<path transform="translate(56.0679, 38.7811) scale(0.0040, -0.0040)" d="M220 138c56 0 109 -29 109 -91c0 -72 -56 -121 -103 -149c-36 -21 -76 -36 -117 -36c-56 0 -109 29 -109 91c0 72 56 121 103 149c36 21 76 36 117 36z" fill="currentColor"/>
<rect transform="translate(56.1329, 14.5444)" x="-0.0650" y="-1.0531" width="0.1300" height="2.6405" ry="0.0400" fill="currentColor"/>
<rect transform="translate(57.3191, 25.0444)" x="-0.0650" y="-1.8100" width="0.1300" height="6.1222" ry="0.0400" fill="currentColor"/>
<rect transform="translate(57.3191, 36.7811)" x="-0.0650" y="-1.5000" width="0.1300" height="3.3122" ry="0.0400" fill="currentColor"/>
<path transform="translate(56.0679, 25.0444)" stroke-width="0.0800" stroke-linejoin="round" stroke-linecap="round" stroke="currentColor" fill="currentColor" d="M0.967312991112237 5.550006C2.18666661013905 5.51495313108947 3.44057370082939 4.26910815242507 3.48349099111223 3.050006C3.35599499126244 4.18398211711277 2.10208790057211 5.42982709577717 0.967312991112237 5.550006z"/>
<polygon transform="translate(42.5210, 23.0444)" stroke-linejoin="round" stroke-linecap="round" stroke-width="0.0800" fill="currentColor" stroke="currentColor" points="7.3885 -0.3900 7.3885 0.0100 0.0400 0.2000 0.0400 -0.2000"/>
<path transform="translate(48.6334, 14.5444)" stroke-width="0.0800" stroke-linejoin="round" stroke-linecap="round" stroke="currentColor" fill="currentColor" d="M0.721705807359335 -2.23425131496025C1.25463075747878 -2.84618207811689 2.44097285723988 -2.84618207811689 2.97389780735933 -2.23425131496025C2.44097285723988 -2.72618207811689 1.25463075747878 -2.72618207811689 0.721705807359335 -2.23425131496025z"/>
<path transform="translate(48.6334, 25.0444)" stroke-width="0.0800" stroke-linejoin="round" stroke-linecap="round" stroke="currentColor" fill="currentColor" d="M0.745502026221324 5.050006C2.08427055044034 5.84999336303299 4.74378760554549 5.3092619713107 5.66387202622132 4.050006C4.71987846146341 5.19166795433168 2.06036140635825 5.73239934605397 0.745502026221324 5.050006z"/>
<path transform="translate(48.6334, 14.5444)" stroke-width="0.0800" stroke-linejoin="round" stroke-linecap="round" stroke="currentColor" fill="currentColor" d="M0.540244908267617 -2.82442558239145C1.96663544143669 -3.89464954056282 6.67043860282043 -3.64356426656123 7.97479290826761 -2.4275753193994C6.66404220447405 -3.52373486245608 1.9602390430903 -3.77482013645767 0.540244908267617 -2.82442558239145z"/>
<path transform="translate(41.3348, 5.5444)" stroke-width="0.0800" stroke-linejoin="round" stroke-linecap="round" stroke="currentColor" fill="currentColor" d="M0.972720225376015 -3.82165236692845C2.51420842698126 -4.82342578980725 20.2752471252631 -4.82342578980725 21.8167353268683 -3.82165236692845C20.2752471252631 -4.70342578980725 2.51420842698126 -4.70342578980725 0.972720225376015 -3.82165236692845z"/>
<path transform="translate(41.3348, 25.0444)" stroke-width="0.0800" stroke-linejoin="round" stroke-linecap="round" stroke="currentColor" fill="currentColor" d="M0.789389622272253 5.550006C2.20220301922314 6.20711023627259 4.78729989051641 5.39628701296175 5.57174562227225 4.050006C4.75138664472594 5.2817870619714 2.16628977343266 6.09261028528223 0.789389622272253 5.550006z"/>
<polygon transform="translate(30.8316, 23.2344)" stroke-linejoin="round" stroke-linecap="round" stroke-width="0.0800" fill="currentColor" stroke="currentColor" points="7.7724 -0.2000 7.7724 0.2000 0.0400 0.2000 0.0400 -0.2000"/>
<path transform="translate(34.8116, 25.0444)" stroke-width="0.0800" stroke-linejoin="round" stroke-linecap="round" stroke="currentColor" fill="currentColor" d="M0.967312991112237 5.550006C2.18666661013905 5.51495313108947 3.44057370082939 4.26910815242507 3.48349099111223 3.050006C3.35599499126244 4.18398211711277 2.10208790057211 5.42982709577717 0.967312991112237 5.550006z"/>
<polygon transform="translate(20.8808, 23.0444)" stroke-linejoin="round" stroke-linecap="round" stroke-width="0.0800" fill="currentColor" stroke="currentColor" points="7.3885 -0.3900 7.3885 0.0100 0.0400 0.2000 0.0400 -0.2000"/>
<path transform="translate(26.9932, 14.5444)" stroke-width="0.0800" stroke-linejoin="round" stroke-linecap="round" stroke="currentColor" fill="currentColor" d="M0.721705807359331 -2.23425131496025C1.25463075747878 -2.84618207811689 2.44097285723988 -2.84618207811689 2.97389780735933 -2.23425131496025C2.44097285723988 -2.72618207811689 1.25463075747878 -2.72618207811689 0.721705807359331 -2.23425131496025z"/>
<path transform="translate(26.9932, 25.0444)" stroke-width="0.0800" stroke-linejoin="round" stroke-linecap="round" stroke="currentColor" fill="currentColor" d="M0.74550202622132 5.050006C2.08427055044034 5.84999336303299 4.74378760554548 5.3092619713107 5.66387202622131 4.050006C4.7198784614634 5.19166795433168 2.06036140635825 5.73239934605397 0.74550202622132 5.050006z"/>
<path transform="translate(26.9932, 14.5444)" stroke-width="0.0800" stroke-linejoin="round" stroke-linecap="round" stroke="currentColor" fill="currentColor" d="M0.539337179687131 -2.82442558239145C2.0031468374979 -3.91733863880343 7.01208554989179 -3.66309144337464 8.35770717968713 -2.4275753193994C7.00600233790864 -3.54324573201221 1.99706362551476 -3.797492927441 0.539337179687131 -2.82442558239145z"/>
<path transform="translate(19.6947, 5.5444)" stroke-width="0.0800" stroke-linejoin="round" stroke-linecap="round" stroke="currentColor" fill="currentColor" d="M0.972720225376012 -3.82165236692845C2.52082760308102 -4.82450584522119 20.6647598830997 -4.82450584522119 22.2128672608047 -3.82165236692845C20.6647598830997 -4.70450584522119 2.52082760308102 -4.70450584522119 0.972720225376012 -3.82165236692845z"/>
<path transform="translate(19.6947, 25.0444)" stroke-width="0.0800" stroke-linejoin="round" stroke-linecap="round" stroke="currentColor" fill="currentColor" d="M0.78938962227225 5.550006C2.20220301922314 6.20711023627259 4.78729989051641 5.39628701296175 5.57174562227225 4.050006C4.75138664472594 5.2817870619714 2.16628977343266 6.09261028528223 0.78938962227225 5.550006z"/>
<polygon transform="translate(85.0213, 22.8544)" stroke-linejoin="round" stroke-linecap="round" stroke-width="0.0800" fill="currentColor" stroke="currentColor" points="7.3885 -0.0100 7.3885 0.3900 0.0400 0.2000 0.0400 -0.2000"/>
<path transform="translate(91.1337, 14.5444)" stroke-width="0.0800" stroke-linejoin="round" stroke-linecap="round" stroke="currentColor" fill="currentColor" d="M0.721705807359328 -1.98425131496025C1.25463075747878 -2.59618207811689 2.44097285723988 -2.59618207811689 2.97389780735934 -1.98425131496025C2.44097285723988 -2.47618207811689 1.25463075747878 -2.47618207811689 0.721705807359328 -1.98425131496025z"/>
<path transform="translate(91.1337, 25.0444)" stroke-width="0.0800" stroke-linejoin="round" stroke-linecap="round" stroke="currentColor" fill="currentColor" d="M0.786071597782595 5.550006C2.21857502678809 6.2277037395589 4.89393302717896 5.41177549491966 5.7044415977826 4.050006C4.8589273249094 5.29699483100533 2.18356932451853 6.11292307564457 0.786071597782595 5.550006z"/>
<path transform="translate(91.1337, 14.5444)" stroke-width="0.0800" stroke-linejoin="round" stroke-linecap="round" stroke="currentColor" fill="currentColor" d="M0.534692590553789 -2.82442558239145C1.94322352391315 -3.9170203679879 6.64617402679979 -3.74129253614978 7.9692405905538 -2.54663039829701C6.64169330041717 -3.62137621911542 1.93874279753053 -3.79710405095354 0.534692590553789 -2.82442558239145z"/>
<path transform="translate(83.8352, 5.5444)" stroke-width="0.0800" stroke-linejoin="round" stroke-linecap="round" stroke="currentColor" fill="currentColor" d="M0.972720225376023 -3.82165236692845C2.52676435817564 -4.82546700041188 21.0241180925764 -4.82546700041188 22.578162225376 -3.82165236692845C21.0241180925764 -4.70546700041188 2.52676435817564 -4.70546700041188 0.972720225376023 -3.82165236692845z"/>
<path transform="translate(83.8352, 25.0444)" stroke-width="0.0800" stroke-linejoin="round" stroke-linecap="round" stroke="currentColor" fill="currentColor" d="M0.74788535595593 5.050006C2.06608769242332 5.83029123912746 4.63513140524388 5.29309917044404 5.53024135595592 4.050006C4.61057037463546 5.17563957834764 2.0415266618149 5.71283164703106 0.74788535595593 5.050006z"/>
<polygon transform="translate(73.7157, 22.2344)" stroke-linejoin="round" stroke-linecap="round" stroke-width="0.0800" fill="currentColor" stroke="currentColor" points="7.3885 -0.2000 7.3885 0.2000 0.0400 0.2000 0.0400 -0.2000"/>
<path transform="translate(77.3119, 25.0444)" stroke-width="0.0800" stroke-linejoin="round" stroke-linecap="round" stroke="currentColor" fill="currentColor" d="M0.882741802700934 4.550006C1.9103381546429 4.78098855098859 3.11338738638891 4.06380008196174 3.39891980270093 3.050006C3.05194052359958 3.96072591908205 1.84889129185357 4.67791438810889 0.882741802700934 4.550006z"/>
<polygon transform="translate(63.7650, 21.2344)" stroke-linejoin="round" stroke-linecap="round" stroke-width="0.0800" fill="currentColor" stroke="currentColor" points="7.3885 -0.3900 7.3885 0.0100 0.0400 0.2000 0.0400 -0.2000"/>
<path transform="translate(69.8774, 14.5444)" stroke-width="0.0800" stroke-linejoin="round" stroke-linecap="round" stroke="currentColor" fill="currentColor" d="M0.721705807359328 -3.57165236692845C1.25463075747878 -4.18358313008509 2.44097285723988 -4.18358313008509 2.97389780735934 -3.57165236692845C2.44097285723988 -4.06358313008509 1.25463075747878 -4.06358313008509 0.721705807359328 -3.57165236692845z"/>
<path transform="translate(69.8774, 25.0444)" stroke-width="0.0800" stroke-linejoin="round" stroke-linecap="round" stroke="currentColor" fill="currentColor" d="M0.702461055429481 3.550006C1.94208191371031 4.47042144597195 4.5917943873233 4.20105248088667 5.62083105542949 3.050006C4.57965777665619 4.08166779727308 1.9299453030432 4.35103676235837 0.702461055429481 3.550006z"/>
<path transform="translate(69.8774, 14.5444)" stroke-width="0.0800" stroke-linejoin="round" stroke-linecap="round" stroke="currentColor" fill="currentColor" d="M0.558626989937565 -4.0149763713676C2.04321328350338 -5.00952962363453 6.7520089207446 -4.50682608684521 7.99317498993757 -3.2212758453835C6.73927029914918 -4.38750413781717 2.03047466190796 -4.8902076746065 0.558626989937565 -4.0149763713676z"/>
<path transform="translate(62.5788, 5.5444)" stroke-width="0.0800" stroke-linejoin="round" stroke-linecap="round" stroke="currentColor" fill="currentColor" d="M0.972720225376015 -3.82165236692845C2.51441703808938 -4.82345996544443 20.2873484480914 -4.82345996544443 21.8290452608047 -3.82165236692845C20.2873484480914 -4.70345996544443 2.51441703808938 -4.70345996544443 0.972720225376015 -3.82165236692845z"/>
<path transform="translate(62.5788, 25.0444)" stroke-width="0.0800" stroke-linejoin="round" stroke-linecap="round" stroke="currentColor" fill="currentColor" d="M0.747885355955937 4.050006C2.06608769242333 4.83029123912746 4.63513140524389 4.29309917044404 5.53024135595593 3.050006C4.61057037463546 4.17563957834764 2.0415266618149 4.71283164703106 0.747885355955937 4.050006z"/>
<polygon transform="translate(52.4717, 23.2344)" stroke-linejoin="round" stroke-linecap="round" stroke-width="0.0800" fill="currentColor" stroke="currentColor" points="7.3885 -0.2000 7.3885 0.2000 0.0400 0.2000 0.0400 -0.2000"/>
<path transform="translate(43.1010, 40.2811) scale(0.0040, -0.0040)" d="M0 0c0 31 25 56 56 56s56 -25 56 -56s-25 -56 -56 -56s-56 25 -56 56z" fill="currentColor"/>
<rect transform="translate(42.5860, 36.7811)" x="-0.0650" y="-0.0000" width="0.1300" height="3.8122" ry="0.0400" fill="currentColor"/>
<path transform="translate(43.8510, 27.0444) scale(0.0040, -0.0040)" d="M220 138c56 0 109 -29 109 -91c0 -72 -56 -121 -103 -149c-36 -21 -76 -36 -117 -36c-56 0 -109 29 -109 91c0 72 56 121 103 149c36 21 76 36 117 36z" fill="currentColor"/>
<rect transform="translate(45.1022, 25.0444)" x="-0.0650" y="-2.0660" width="0.1300" height="3.8782" ry="0.0400" fill="currentColor"/>
<path transform="translate(42.7286, 12.5601) scale(0.0032, -0.0032)" d="M0 0c0 30 25 55 55 55s55 -25 55 -55s-25 -55 -55 -55s-55 25 -55 55z" fill="currentColor"/>
<rect transform="translate(41.3998, 14.5444)" x="-0.0650" y="-1.8468" width="0.1300" height="2.6405" ry="0.0400" fill="currentColor"/>
<rect transform="translate(42.5860, 25.0444)" x="-0.0650" y="-2.0017" width="0.1300" height="6.3138" ry="0.0400" fill="currentColor"/>
<rect transform="translate(49.8845, 36.7811)" x="-0.0650" y="-2.0000" width="0.1300" height="3.3122" ry="0.0400" fill="currentColor"/>
<path transform="translate(49.9495, 34.8211) scale(0.0040, -0.0040)" d="M0 0c0 -198 209 -335 209 -533c0 -71 -16 -141 -42 -207c-5 -8 -12 -12 -19 -12c-13 0 -26 11 -23 27c26 61 42 126 42 192c0 104 -95 208 -167 283h-16v250h16z" fill="currentColor"/>
<path transform="translate(51.2855, 12.9570) scale(0.0032, -0.0032)" d="M214 140c59 0 115 -32 115 -97c0 -72 -54 -121 -101 -149c-35 -21 -74 -34 -114 -34c-59 0 -114 32 -114 97c0 72 54 121 101 149c35 21 73 34 113 34z" fill="currentColor"/>
<path transform="translate(51.2855, 27.0444) scale(0.0040, -0.0040)" d="M220 138c56 0 109 -29 109 -91c0 -72 -56 -121 -103 -149c-36 -21 -76 -36 -117 -36c-56 0 -109 29 -109 91c0 72 56 121 103 149c36 21 76 36 117 36z" fill="currentColor"/>
<path transform="translate(51.2855, 38.2811) scale(0.0040, -0.0040)" d="M220 138c56 0 109 -29 109 -91c0 -72 -56 -121 -103 -149c-36 -21 -76 -36 -117 -36c-56 0 -109 29 -109 91c0 72 56 121 103 149c36 21 76 36 117 36z" fill="currentColor"/>
<rect transform="translate(51.3505, 14.5444)" x="-0.0650" y="-1.4500" width="0.1300" height="2.6405" ry="0.0400" fill="currentColor"/>
<rect transform="translate(52.5367, 25.0444)" x="-0.0650" y="-1.8100" width="0.1300" height="3.6222" ry="0.0400" fill="currentColor"/>
<rect transform="translate(52.5367, 36.7811)" x="-0.0650" y="-2.0000" width="0.1300" height="3.3122" ry="0.0400" fill="currentColor"/>
<path transform="translate(46.1172, 28.0444) scale(0.0040, -0.0040)" d="M220 138c56 0 109 -29 109 -91c0 -72 -56 -121 -103 -149c-36 -21 -76 -36 -117 -36c-56 0 -109 29 -109 91c0 72 56 121 103 149c36 21 76 36 117 36z" fill="currentColor"/>
<rect transform="translate(47.3684, 25.0444)" x="-0.0650" y="-2.1240" width="0.1300" height="4.9362" ry="0.0400" fill="currentColor"/>
<path transform="translate(48.6334, 12.9570) scale(0.0032, -0.0032)" d="M214 140c59 0 115 -32 115 -97c0 -72 -54 -121 -101 -149c-35 -21 -74 -34 -114 -34c-59 0 -114 32 -114 97c0 72 54 121 101 149c35 21 73 34 113 34z" fill="currentColor"/>
<path transform="translate(48.6334, 29.0444) scale(0.0040, -0.0040)" d="M220 138c56 0 109 -29 109 -91c0 -72 -56 -121 -103 -149c-36 -21 -76 -36 -117 -36c-56 0 -109 29 -109 91c0 72 56 121 103 149c36 21 76 36 117 36z" fill="currentColor"/>
<path transform="translate(48.6334, 25.5444) scale(0.0040, -0.0040)" d="M220 138c56 0 109 -29 109 -91c0 -72 -56 -121 -103 -149c-36 -21 -76 -36 -117 -36c-56 0 -109 29 -109 91c0 72 56 121 103 149c36 21 76 36 117 36z" fill="currentColor"/>
<path transform="translate(48.6334, 38.2811) scale(0.0040, -0.0040)" d="M220 138c56 0 109 -29 109 -91c0 -72 -56 -121 -103 -149c-36 -21 -76 -36 -117 -36c-56 0 -109 29 -109 91c0 72 56 121 103 149c36 21 76 36 117 36z" fill="currentColor"/>
<rect transform="translate(48.6984, 14.5444)" x="-0.0650" y="-1.4500" width="0.1300" height="2.6405" ry="0.0400" fill="currentColor"/>
<path transform="translate(48.7634, 15.6949) scale(0.0032, -0.0032)" d="M0 0h-19v250h19c96 59 223 149 223 259c0 56 -15 111 -41 161c-3 18 11 30 25 30c8 0 17 -4 22 -13c25 -56 41 -116 41 -178c0 -204 -270 -305 -270 -509z" fill="currentColor"/>
<rect transform="translate(49.8845, 25.0444)" x="-0.0650" y="-2.1883" width="0.1300" height="6.0005" ry="0.0400" fill="currentColor"/>
<path transform="translate(65.0950, 26.0444) scale(0.0040, -0.0040)" d="M220 138c56 0 109 -29 109 -91c0 -72 -56 -121 -103 -149c-36 -21 -76 -36 -117 -36c-56 0 -109 29 -109 91c0 72 56 121 103 149c36 21 76 36 117 36z" fill="currentColor"/>
<rect transform="translate(66.3462, 25.0444)" x="-0.0650" y="-3.8760" width="0.1300" height="4.6882" ry="0.0400" fill="currentColor"/>
<text transform="translate(67.4115, 9.7572)" font-family="Lyon Text" font-style="italic" font-size="1.7461" text-anchor="start" fill="currentColor">
<tspan>
rall.</tspan>
</text>
<text transform="translate(67.4115, 19.5536)" font-family="Lyon Text" font-style="italic" font-size="1.7461" text-anchor="start" fill="currentColor">
<tspan>
rall.</tspan>
</text>
<path transform="translate(67.3612, 27.0444) scale(0.0040, -0.0040)" d="M220 138c56 0 109 -29 109 -91c0 -72 -56 -121 -103 -149c-36 -21 -76 -36 -117 -36c-56 0 -109 29 -109 91c0 72 56 121 103 149c36 21 76 36 117 36z" fill="currentColor"/>
<text transform="translate(67.2545, 32.4534)" font-family="Lyon Text" font-style="italic" font-size="2.2001" text-anchor="start" fill="currentColor">
<tspan>
rall.</tspan>
</text>
<rect transform="translate(68.6124, 25.0444)" x="-0.0650" y="-3.9340" width="0.1300" height="5.7462" ry="0.0400" fill="currentColor"/>
<rect transform="translate(63.8300, 25.0444)" x="-0.0650" y="-3.8117" width="0.1300" height="6.6238" ry="0.0400" fill="currentColor"/>
<path transform="translate(64.3450, 40.2811) scale(0.0040, -0.0040)" d="M0 0c0 31 25 56 56 56s56 -25 56 -56s-25 -56 -56 -56s-56 25 -56 56z" fill="currentColor"/>
<rect transform="translate(63.8300, 36.7811)" x="-0.0650" y="-0.0000" width="0.1300" height="3.8122" ry="0.0400" fill="currentColor"/>
<rect transform="translate(72.5946, 14.5444)" x="-0.0650" y="-2.6405" width="0.1300" height="2.6405" ry="0.0400" fill="currentColor"/>
<rect transform="translate(73.7807, 25.0444)" x="-0.0650" y="-2.8100" width="0.1300" height="3.6222" ry="0.0400" fill="currentColor"/>
<rect transform="translate(73.7807, 36.7811)" x="-0.0650" y="-2.0000" width="0.1300" height="3.3122" ry="0.0400" fill="currentColor"/>
<path transform="translate(74.7957, 27.0444) scale(0.0040, -0.0040)" d="M220 138c56 0 109 -29 109 -91c0 -72 -56 -121 -103 -149c-36 -21 -76 -36 -117 -36c-56 0 -109 29 -109 91c0 72 56 121 103 149c36 21 76 36 117 36z" fill="currentColor"/>
<rect transform="translate(76.0469, 25.0444)" x="-0.0650" y="-2.8100" width="0.1300" height="4.6222" ry="0.0400" fill="currentColor"/>
<path transform="translate(77.3119, 12.5601) scale(0.0032, -0.0032)" d="M214 140c59 0 115 -32 115 -97c0 -72 -54 -121 -101 -149c-35 -21 -74 -34 -114 -34c-59 0 -114 32 -114 97c0 72 54 121 101 149c35 21 73 34 113 34z" fill="currentColor"/>
<path transform="translate(77.8336, 11.8850) scale(0.0032, -0.0032)" d="M127 -23h-254c-13 0 -23 10 -23 23s10 23 23 23h254c13 0 23 -10 23 -23s-10 -23 -23 -23z" fill="currentColor"/>
<path transform="translate(77.3119, 28.5444) scale(0.0040, -0.0040)" d="M220 138c56 0 109 -29 109 -91c0 -72 -56 -121 -103 -149c-36 -21 -76 -36 -117 -36c-56 0 -109 29 -109 91c0 72 56 121 103 149c36 21 76 36 117 36z" fill="currentColor"/>
<path transform="translate(69.8774, 11.7664) scale(0.0032, -0.0032)" d="M214 140c59 0 115 -32 115 -97c0 -72 -54 -121 -101 -149c-35 -21 -74 -34 -114 -34c-59 0 -114 32 -114 97c0 72 54 121 101 149c35 21 73 34 113 34z" fill="currentColor"/>
<path transform="translate(69.8774, 27.5444) scale(0.0040, -0.0040)" d="M220 138c56 0 109 -29 109 -91c0 -72 -56 -121 -103 -149c-36 -21 -76 -36 -117 -36c-56 0 -109 29 -109 91c0 72 56 121 103 149c36 21 76 36 117 36z" fill="currentColor"/>
<path transform="translate(69.8774, 24.0444) scale(0.0040, -0.0040)" d="M220 138c56 0 109 -29 109 -91c0 -72 -56 -121 -103 -149c-36 -21 -76 -36 -117 -36c-56 0 -109 29 -109 91c0 72 56 121 103 149c36 21 76 36 117 36z" fill="currentColor"/>
<path transform="translate(69.8774, 38.2811) scale(0.0040, -0.0040)" d="M220 138c56 0 109 -29 109 -91c0 -72 -56 -121 -103 -149c-36 -21 -76 -36 -117 -36c-56 0 -109 29 -109 91c0 72 56 121 103 149c36 21 76 36 117 36z" fill="currentColor"/>
<rect transform="translate(69.9424, 14.5444)" x="-0.0650" y="-2.6405" width="0.1300" height="2.6405" ry="0.0400" fill="currentColor"/>
<path transform="translate(70.0074, 14.5044) scale(0.0032, -0.0032)" d="M0 0h-19v250h19c96 59 223 149 223 259c0 56 -15 111 -41 161c-3 18 11 30 25 30c8 0 17 -4 22 -13c25 -56 41 -116 41 -178c0 -204 -270 -305 -270 -509z" fill="currentColor"/>
<rect transform="translate(71.1285, 25.0444)" x="-0.0650" y="-3.9983" width="0.1300" height="6.3105" ry="0.0400" fill="currentColor"/>
<rect transform="translate(71.1285, 36.7811)" x="-0.0650" y="-2.0000" width="0.1300" height="3.3122" ry="0.0400" fill="currentColor"/>
<path transform="translate(71.1935, 34.8211) scale(0.0040, -0.0040)" d="M0 0c0 -198 209 -335 209 -533c0 -71 -16 -141 -42 -207c-5 -8 -12 -12 -19 -12c-13 0 -26 11 -23 27c26 61 42 126 42 192c0 104 -95 208 -167 283h-16v250h16z" fill="currentColor"/>
<path transform="translate(72.5296, 11.7664) scale(0.0032, -0.0032)" d="M214 140c59 0 115 -32 115 -97c0 -72 -54 -121 -101 -149c-35 -21 -74 -34 -114 -34c-59 0 -114 32 -114 97c0 72 54 121 101 149c35 21 73 34 113 34z" fill="currentColor"/>
<path transform="translate(72.5296, 26.0444) scale(0.0040, -0.0040)" d="M220 138c56 0 109 -29 109 -91c0 -72 -56 -121 -103 -149c-36 -21 -76 -36 -117 -36c-56 0 -109 29 -109 91c0 72 56 121 103 149c36 21 76 36 117 36z" fill="currentColor"/>
<path transform="translate(72.5296, 38.2811) scale(0.0040, -0.0040)" d="M220 138c56 0 109 -29 109 -91c0 -72 -56 -121 -103 -149c-36 -21 -76 -36 -117 -36c-56 0 -109 29 -109 91c0 72 56 121 103 149c36 21 76 36 117 36z" fill="currentColor"/>
<path transform="translate(56.0679, 26.0444) scale(0.0040, -0.0040)" d="M220 138c56 0 109 -29 109 -91c0 -72 -56 -121 -103 -149c-36 -21 -76 -36 -117 -36c-56 0 -109 29 -109 91c0 72 56 121 103 149c36 21 76 36 117 36z" fill="currentColor"/>
<path transform="translate(19.6947, 2.3696) scale(0.0032, -0.0032)" d="M212 110c-49 0 -67 -43 -67 -88c0 -74 56 -132 129 -132c49 0 67 43 67 88c0 74 -56 132 -129 132zM487 0c0 -43 -34 -77 -72 -99c-52 -30 -112 -41 -172 -41s-120 11 -172 41c-38 22 -71 56 -71 99s33 77 71 99c52 30 112 41 172 41s120 -11 172 -41
c38 -22 72 -56 72 -99z" fill="currentColor"/>
<path transform="translate(8.7668, 6.3381) scale(0.0032, -0.0032)" d="M379 264c3 0 7 1 10 1c157 0 258 -129 258 -263c0 -77 -33 -155 -108 -211c-22 -16 -46 -29 -72 -37c3 -33 4 -66 4 -99c0 -21 0 -41 -1 -62c-7 -121 -91 -229 -211 -229c-108 0 -196 88 -196 197c0 58 54 103 113 103c54 0 95 -47 95 -103c0 -52 -43 -95 -95 -95
c-9 0 -18 1 -27 4c25 -37 66 -61 113 -61c95 0 156 93 162 191c1 19 2 38 2 57c0 29 -1 58 -3 87c-29 -5 -58 -8 -88 -8c-189 0 -333 173 -333 376c0 177 129 308 244 443c-20 62 -40 124 -48 189c-7 52 -7 105 -7 158c0 114 54 221 147 288c4 3 8 4 12 4c5 0 9 -2 13 -5
c72 -83 135 -243 135 -356c0 -142 -84 -255 -176 -364c21 -68 40 -136 57 -205zM463 -201c65 24 110 94 110 161c0 88 -64 175 -167 188c24 -114 44 -227 57 -349zM77 25c0 -133 128 -243 261 -243c27 0 55 1 81 5c-13 126 -35 244 -60 362c-79 -8 -124 -60 -124 -118
c0 -43 25 -88 80 -120c5 -5 7 -11 7 -17c0 -12 -10 -23 -23 -23c-3 0 -7 1 -10 2c-81 43 -118 115 -118 186c0 89 60 177 163 200c-14 57 -30 113 -47 169c-105 -122 -210 -243 -210 -403zM403 1038c-99 -46 -161 -145 -161 -254c0 -71 21 -130 39 -188
c78 97 142 199 142 324c0 51 -4 72 -20 118z" fill="currentColor"/>
<path transform="translate(12.3783, 5.5444) scale(0.0032, -0.0032)" d="M31 37l-2 -62v-11c0 -22 2 -43 5 -64c43 38 89 80 89 137c0 32 -14 65 -42 65c-31 0 -49 -32 -50 -65zM-16 -140l-14 590c9 5 20 8 30 8s21 -3 30 -8l-8 -340c25 24 59 38 94 38c50 0 84 -50 84 -104c0 -78 -83 -117 -141 -169c-17 -15 -25 -44 -49 -44
c-15 0 -26 13 -26 29z" fill="currentColor"/>
<path transform="translate(13.1248, 4.3538) scale(0.0032, -0.0032)" d="M31 37l-2 -62v-11c0 -22 2 -43 5 -64c43 38 89 80 89 137c0 32 -14 65 -42 65c-31 0 -49 -32 -50 -65zM-16 -140l-14 590c9 5 20 8 30 8s21 -3 30 -8l-8 -340c25 24 59 38 94 38c50 0 84 -50 84 -104c0 -78 -83 -117 -141 -169c-17 -15 -25 -44 -49 -44
c-15 0 -26 13 -26 29z" fill="currentColor"/>
<path transform="translate(13.8713, 5.9412) scale(0.0032, -0.0032)" d="M31 37l-2 -62v-11c0 -22 2 -43 5 -64c43 38 89 80 89 137c0 32 -14 65 -42 65c-31 0 -49 -32 -50 -65zM-16 -140l-14 590c9 5 20 8 30 8s21 -3 30 -8l-8 -340c25 24 59 38 94 38c50 0 84 -50 84 -104c0 -78 -83 -117 -141 -169c-17 -15 -25 -44 -49 -44
c-15 0 -26 13 -26 29z" fill="currentColor"/>
<path transform="translate(16.1768, 5.5444) scale(0.0032, -0.0032)" d="M356 30c-48 0 -72 40 -72 72c0 37 26 75 70 75c3 0 6 -1 9 -1c-26 36 -67 59 -113 59c-107 0 -113 -74 -113 -189c0 -15 1 -30 1 -46s-1 -31 -1 -46c0 -115 6 -189 113 -189c78 0 133 70 151 149c2 8 8 11 14 11c7 0 15 -5 15 -14c0 -95 -103 -176 -180 -176
c-68 0 -137 20 -184 70c-49 52 -66 124 -66 195s17 143 66 195c47 50 116 70 184 70c86 0 156 -67 171 -153c1 -4 1 -9 1 -13c0 -38 -30 -69 -66 -69z" fill="currentColor"/>
<path transform="translate(19.7614, 9.7572) scale(0.0032, -0.0032)" d="M233 243c-56 0 -103 -109 -103 -175c0 -22 9 -38 31 -38c63 0 97 128 97 180c0 18 -7 33 -25 33zM110 -146c-37 0 -75 5 -113 5s-77 -5 -113 -5c-10 0 -16 8 -16 16c0 20 30 18 49 19c23 1 48 9 55 30l99 290c3 8 5 16 5 22c0 7 -2 12 -10 12c-33 0 -58 -61 -74 -97
c-6 -14 -19 -20 -29 -20c-9 0 -16 5 -16 14c0 3 0 6 2 10c30 68 73 142 134 142c35 0 57 -22 64 -52c29 31 67 52 103 52c69 0 107 -49 107 -114c0 -21 -4 -44 -12 -67c-20 -58 -91 -121 -147 -121c-27 0 -52 6 -73 18c-10 6 -24 3 -27 -6l-25 -74c-1 -3 -2 -7 -2 -10
c0 -22 17 -30 40 -32c10 -1 15 -8 15 -16s-6 -16 -16 -16z" fill="currentColor"/>
<path transform="translate(19.6947, 13.3538) scale(0.0032, -0.0032)" d="M214 140c59 0 115 -32 115 -97c0 -72 -54 -121 -101 -149c-35 -21 -74 -34 -114 -34c-59 0 -114 32 -114 97c0 72 54 121 101 149c35 21 73 34 113 34z" fill="currentColor"/>
<path transform="translate(8.7668, 13.7507) scale(0.0032, -0.0032)" d="M558 -125c0 28 22 50 50 50s50 -22 50 -50s-22 -50 -50 -50s-50 22 -50 50zM558 125c0 28 22 50 50 50s50 -22 50 -50s-22 -50 -50 -50s-50 22 -50 50zM231 265c173 0 294 -88 294 -252c0 -263 -263 -415 -515 -523c-3 -3 -7 -5 -10 -5c-8 0 -15 7 -15 15c0 3 2 7 5 10
c200 118 407 264 407 491c0 119 -59 234 -166 234c-70 0 -119 -51 -142 -120c8 2 15 4 23 4c55 0 100 -45 100 -100c0 -58 -44 -106 -100 -106c-60 0 -112 47 -112 106c0 133 101 246 231 246z" fill="currentColor"/>
<path transform="translate(12.3783, 15.3381) scale(0.0032, -0.0032)" d="M31 37l-2 -62v-11c0 -22 2 -43 5 -64c43 38 89 80 89 137c0 32 -14 65 -42 65c-31 0 -49 -32 -50 -65zM-16 -140l-14 590c9 5 20 8 30 8s21 -3 30 -8l-8 -340c25 24 59 38 94 38c50 0 84 -50 84 -104c0 -78 -83 -117 -141 -169c-17 -15 -25 -44 -49 -44
c-15 0 -26 13 -26 29z" fill="currentColor"/>
<path transform="translate(13.1248, 14.1475) scale(0.0032, -0.0032)" d="M31 37l-2 -62v-11c0 -22 2 -43 5 -64c43 38 89 80 89 137c0 32 -14 65 -42 65c-31 0 -49 -32 -50 -65zM-16 -140l-14 590c9 5 20 8 30 8s21 -3 30 -8l-8 -340c25 24 59 38 94 38c50 0 84 -50 84 -104c0 -78 -83 -117 -141 -169c-17 -15 -25 -44 -49 -44
c-15 0 -26 13 -26 29z" fill="currentColor"/>
<path transform="translate(13.8713, 15.7349) scale(0.0032, -0.0032)" d="M31 37l-2 -62v-11c0 -22 2 -43 5 -64c43 38 89 80 89 137c0 32 -14 65 -42 65c-31 0 -49 -32 -50 -65zM-16 -140l-14 590c9 5 20 8 30 8s21 -3 30 -8l-8 -340c25 24 59 38 94 38c50 0 84 -50 84 -104c0 -78 -83 -117 -141 -169c-17 -15 -25 -44 -49 -44
c-15 0 -26 13 -26 29z" fill="currentColor"/>
<path transform="translate(16.1768, 14.5444) scale(0.0032, -0.0032)" d="M356 30c-48 0 -72 40 -72 72c0 37 26 75 70 75c3 0 6 -1 9 -1c-26 36 -67 59 -113 59c-107 0 -113 -74 -113 -189c0 -15 1 -30 1 -46s-1 -31 -1 -46c0 -115 6 -189 113 -189c78 0 133 70 151 149c2 8 8 11 14 11c7 0 15 -5 15 -14c0 -95 -103 -176 -180 -176
c-68 0 -137 20 -184 70c-49 52 -66 124 -66 195s17 143 66 195c47 50 116 70 184 70c86 0 156 -67 171 -153c1 -4 1 -9 1 -13c0 -38 -30 -69 -66 -69z" fill="currentColor"/>
<path transform="translate(19.7614, 19.5536) scale(0.0032, -0.0032)" d="M233 243c-56 0 -103 -109 -103 -175c0 -22 9 -38 31 -38c63 0 97 128 97 180c0 18 -7 33 -25 33zM110 -146c-37 0 -75 5 -113 5s-77 -5 -113 -5c-10 0 -16 8 -16 16c0 20 30 18 49 19c23 1 48 9 55 30l99 290c3 8 5 16 5 22c0 7 -2 12 -10 12c-33 0 -58 -61 -74 -97
c-6 -14 -19 -20 -29 -20c-9 0 -16 5 -16 14c0 3 0 6 2 10c30 68 73 142 134 142c35 0 57 -22 64 -52c29 31 67 52 103 52c69 0 107 -49 107 -114c0 -21 -4 -44 -12 -67c-20 -58 -91 -121 -147 -121c-27 0 -52 6 -73 18c-10 6 -24 3 -27 -6l-25 -74c-1 -3 -2 -7 -2 -10
c0 -22 17 -30 40 -32c10 -1 15 -8 15 -16s-6 -16 -16 -16z" fill="currentColor"/>
<path transform="translate(19.6947, 29.5444) scale(0.0040, -0.0040)" d="M220 138c56 0 109 -29 109 -91c0 -72 -56 -121 -103 -149c-36 -21 -76 -36 -117 -36c-56 0 -109 29 -109 91c0 72 56 121 103 149c36 21 76 36 117 36z" fill="currentColor"/>
<path transform="translate(19.6947, 26.0444) scale(0.0040, -0.0040)" d="M220 138c56 0 109 -29 109 -91c0 -72 -56 -121 -103 -149c-36 -21 -76 -36 -117 -36c-56 0 -109 29 -109 91c0 72 56 121 103 149c36 21 76 36 117 36z" fill="currentColor"/>
<path transform="translate(8.7668, 26.0444) scale(0.0040, -0.0040)" d="M376 262c4 0 9 1 13 1c155 0 256 -128 256 -261c0 -76 -33 -154 -107 -210c-22 -17 -47 -28 -73 -36c3 -35 5 -70 5 -105c0 -19 -1 -39 -2 -58c-7 -120 -90 -228 -208 -228c-108 0 -195 88 -195 197c0 58 53 103 112 103c54 0 95 -47 95 -103c0 -52 -43 -95 -95 -95
c-11 0 -21 2 -31 6c26 -39 68 -65 117 -65c96 0 157 92 163 191c1 18 2 37 2 55c0 31 -1 61 -4 92c-29 -5 -58 -8 -89 -8c-188 0 -333 172 -333 374c0 177 131 306 248 441c-19 62 -37 125 -45 190c-6 52 -7 104 -7 156c0 115 55 224 149 292c3 2 7 3 10 3c4 0 7 0 10 -3
c71 -84 133 -245 133 -358c0 -143 -86 -255 -180 -364c21 -68 39 -138 56 -207zM461 -203c68 24 113 95 113 164c0 90 -66 179 -173 190c24 -116 46 -231 60 -354zM74 28c0 -135 129 -247 264 -247c28 0 55 2 82 6c-14 127 -37 245 -63 364c-79 -8 -124 -61 -124 -119
c0 -44 25 -91 81 -123c5 -5 7 -10 7 -15c0 -11 -10 -22 -22 -22c-3 0 -6 1 -9 2c-80 43 -117 115 -117 185c0 88 58 174 160 197c-14 58 -29 117 -46 175c-107 -121 -213 -243 -213 -403zM408 1045c-99 -48 -162 -149 -162 -259c0 -74 18 -133 36 -194
c80 97 146 198 146 324c0 55 -4 79 -20 129z" fill="currentColor"/>
<path transform="translate(12.3868, 25.0444) scale(0.0040, -0.0040)" d="M27 41l-1 -66v-11c0 -22 1 -44 4 -66c45 38 93 80 93 139c0 33 -14 67 -43 67c-31 0 -52 -30 -53 -63zM-15 -138l-12 595c8 5 18 8 27 8s19 -3 27 -8l-7 -345c25 21 58 34 91 34c52 0 89 -48 89 -102c0 -80 -86 -117 -147 -169c-15 -13 -24 -38 -45 -38
c-13 0 -23 11 -23 25z" fill="currentColor"/>
<path transform="translate(13.3068, 23.5444) scale(0.0040, -0.0040)" d="M27 41l-1 -66v-11c0 -22 1 -44 4 -66c45 38 93 80 93 139c0 33 -14 67 -43 67c-31 0 -52 -30 -53 -63zM-15 -138l-12 595c8 5 18 8 27 8s19 -3 27 -8l-7 -345c25 21 58 34 91 34c52 0 89 -48 89 -102c0 -80 -86 -117 -147 -169c-15 -13 -24 -38 -45 -38
c-13 0 -23 11 -23 25z" fill="currentColor"/>
<path transform="translate(14.2268, 25.5444) scale(0.0040, -0.0040)" d="M27 41l-1 -66v-11c0 -22 1 -44 4 -66c45 38 93 80 93 139c0 33 -14 67 -43 67c-31 0 -52 -30 -53 -63zM-15 -138l-12 595c8 5 18 8 27 8s19 -3 27 -8l-7 -345c25 21 58 34 91 34c52 0 89 -48 89 -102c0 -80 -86 -117 -147 -169c-15 -13 -24 -38 -45 -38
c-13 0 -23 11 -23 25z" fill="currentColor"/>
<path transform="translate(16.1768, 25.0444) scale(0.0040, -0.0040)" d="M359 27c-49 0 -75 42 -75 75c0 38 27 77 72 77c4 0 9 0 14 -1c-28 37 -72 59 -120 59c-106 0 -113 -73 -113 -186v-51v-51c0 -113 7 -187 113 -187c80 0 139 70 158 151c2 7 7 10 12 10c6 0 13 -4 13 -12c0 -94 -105 -174 -183 -174c-68 0 -137 21 -184 70
c-49 51 -66 122 -66 193s17 142 66 193c47 49 116 69 184 69c87 0 160 -64 175 -150c1 -5 1 -9 1 -13c0 -40 -30 -72 -67 -72z" fill="currentColor"/>
<g transform="translate(18.8737, 32.4534)" >
<path transform="scale(0.0040, -0.0040)" d="M233 243c-56 0 -102 -107 -102 -173c0 -22 8 -38 30 -38c64 0 97 126 97 178c0 18 -7 33 -25 33zM112 -146c-38 0 -78 5 -116 5c-39 0 -78 -5 -115 -5c-9 0 -14 7 -14 14c0 18 31 15 48 16c22 1 47 5 54 25l102 300c2 7 4 14 4 20c0 8 -2 14 -11 14
c-33 0 -63 -60 -79 -97c-5 -12 -15 -17 -24 -17c-8 0 -14 4 -14 12c0 2 1 5 2 8c30 68 72 143 132 143c35 0 59 -21 66 -52c29 31 67 52 103 52c69 0 107 -49 107 -114c0 -21 -4 -44 -12 -67c-20 -58 -91 -119 -147 -119c-27 0 -52 5 -73 17c-4 2 -7 3 -11 3
c-7 0 -14 -3 -16 -9l-29 -86c-1 -2 -1 -5 -1 -7c0 -20 21 -26 44 -28c9 -1 13 -8 13 -14c0 -7 -4 -14 -13 -14z" fill="currentColor"/>

<path transform="translate(1.4682, 0.0000) scale(0.0040, -0.0040)" d="M233 243c-56 0 -102 -107 -102 -173c0 -22 8 -38 30 -38c64 0 97 126 97 178c0 18 -7 33 -25 33zM112 -146c-38 0 -78 5 -116 5c-39 0 -78 -5 -115 -5c-9 0 -14 7 -14 14c0 18 31 15 48 16c22 1 47 5 54 25l102 300c2 7 4 14 4 20c0 8 -2 14 -11 14
c-33 0 -63 -60 -79 -97c-5 -12 -15 -17 -24 -17c-8 0 -14 4 -14 12c0 2 1 5 2 8c30 68 72 143 132 143c35 0 59 -21 66 -52c29 31 67 52 103 52c69 0 107 -49 107 -114c0 -21 -4 -44 -12 -67c-20 -58 -91 -119 -147 -119c-27 0 -52 5 -73 17c-4 2 -7 3 -11 3
c-7 0 -14 -3 -16 -9l-29 -86c-1 -2 -1 -5 -1 -7c0 -20 21 -26 44 -28c9 -1 13 -8 13 -14c0 -7 -4 -14 -13 -14z" fill="currentColor"/>
</g>
<path transform="translate(19.6947, 40.7811) scale(0.0040, -0.0040)" d="M220 138c56 0 109 -29 109 -91c0 -72 -56 -121 -103 -149c-36 -21 -76 -36 -117 -36c-56 0 -109 29 -109 91c0 72 56 121 103 149c36 21 76 36 117 36z" fill="currentColor"/>
<path transform="translate(8.7668, 35.7811) scale(0.0040, -0.0040)" d="M557 -125c0 28 23 51 51 51s51 -23 51 -51s-23 -51 -51 -51s-51 23 -51 51zM557 125c0 28 23 51 51 51s51 -23 51 -51s-23 -51 -51 -51s-51 23 -51 51zM232 263c172 0 293 -88 293 -251c0 -263 -263 -414 -516 -521c-3 -3 -6 -4 -9 -4c-7 0 -13 6 -13 13c0 3 1 6 4 9
c202 118 412 265 412 493c0 120 -63 235 -171 235c-74 0 -129 -54 -154 -126c11 5 22 8 34 8c55 0 100 -45 100 -100c0 -58 -44 -106 -100 -106c-60 0 -112 47 -112 106c0 133 102 244 232 244z" fill="currentColor"/>
<path transform="translate(6.6568, 3.6820) scale(0.0040, -0.0040)" d="M450 333c9 0 16 -8 16 -16c0 -3 -1 -6 -3 -9c-99 -144 -215 -364 -388 -364h-75v87c0 14 11 25 25 25h50c159 0 271 136 362 270c3 4 8 7 13 7z" fill="currentColor"/>
<path transform="translate(6.6568, 16.4068) scale(0.0040, -0.0040)" d="M466 -317c0 -8 -7 -16 -16 -16c-5 0 -10 3 -13 7c-91 134 -203 270 -362 270h-50c-14 0 -25 11 -25 25v87h75c173 0 289 -220 388 -364c2 -3 3 -6 3 -9z" fill="currentColor"/>
<rect transform="translate(6.6568, 10.0444)" x="0.0000" y="-6.1824" width="0.4500" height="12.3648" ry="0.0000" fill="currentColor"/>
<path transform="translate(7.6068, 30.9128) scale(0.0040, -0.0040)" d="M-16 -596c0 -320 -120 -628 -120 -932c0 -164 36 -312 148 -436c4 -4 4 -8 4 -12c0 -8 -8 -16 -16 -16c-4 0 -8 0 -12 4c-148 164 -200 376 -200 596c0 324 128 644 128 952c0 160 -36 308 -148 432c0 4 -4 4 -4 8s4 4 4 8c112 124 148 272 148 432
c0 308 -128 628 -128 952c0 220 52 432 200 596c4 4 8 4 12 4c8 0 16 -8 16 -16c0 -4 0 -8 -4 -12c-112 -124 -148 -272 -148 -436c0 -304 120 -612 120 -932c0 -220 -48 -432 -192 -596c144 -164 192 -376 192 -596z" fill="currentColor"/>
<rect transform="translate(7.9068, 21.3691)" x="0.0000" y="-17.4621" width="0.1600" height="34.9242" ry="0.0500" fill="currentColor"/>
<path transform="translate(63.9726, 11.7664) scale(0.0032, -0.0032)" d="M0 0c0 30 25 55 55 55s55 -25 55 -55s-25 -55 -55 -55s-55 25 -55 55z" fill="currentColor"/>
<rect transform="translate(62.6438, 14.5444)" x="-0.0650" y="-2.2437" width="0.1300" height="2.6405" ry="0.0400" fill="currentColor"/>
<path transform="translate(12.3868, 37.7811) scale(0.0040, -0.0040)" d="M27 41l-1 -66v-11c0 -22 1 -44 4 -66c45 38 93 80 93 139c0 33 -14 67 -43 67c-31 0 -52 -30 -53 -63zM-15 -138l-12 595c8 5 18 8 27 8s19 -3 27 -8l-7 -345c25 21 58 34 91 34c52 0 89 -48 89 -102c0 -80 -86 -117 -147 -169c-15 -13 -24 -38 -45 -38
c-13 0 -23 11 -23 25z" fill="currentColor"/>
<path transform="translate(13.3068, 36.2811) scale(0.0040, -0.0040)" d="M27 41l-1 -66v-11c0 -22 1 -44 4 -66c45 38 93 80 93 139c0 33 -14 67 -43 67c-31 0 -52 -30 -53 -63zM-15 -138l-12 595c8 5 18 8 27 8s19 -3 27 -8l-7 -345c25 21 58 34 91 34c52 0 89 -48 89 -102c0 -80 -86 -117 -147 -169c-15 -13 -24 -38 -45 -38
c-13 0 -23 11 -23 25z" fill="currentColor"/>
<path transform="translate(14.2268, 38.2811) scale(0.0040, -0.0040)" d="M27 41l-1 -66v-11c0 -22 1 -44 4 -66c45 38 93 80 93 139c0 33 -14 67 -43 67c-31 0 -52 -30 -53 -63zM-15 -138l-12 595c8 5 18 8 27 8s19 -3 27 -8l-7 -345c25 21 58 34 91 34c52 0 89 -48 89 -102c0 -80 -86 -117 -147 -169c-15 -13 -24 -38 -45 -38
c-13 0 -23 11 -23 25z" fill="currentColor"/>
<path transform="translate(16.1768, 36.7811) scale(0.0040, -0.0040)" d="M359 27c-49 0 -75 42 -75 75c0 38 27 77 72 77c4 0 9 0 14 -1c-28 37 -72 59 -120 59c-106 0 -113 -73 -113 -186v-51v-51c0 -113 7 -187 113 -187c80 0 139 70 158 151c2 7 7 10 12 10c6 0 13 -4 13 -12c0 -94 -105 -174 -183 -174c-68 0 -137 21 -184 70
c-49 51 -66 122 -66 193s17 142 66 193c47 49 116 69 184 69c87 0 160 -64 175 -150c1 -5 1 -9 1 -13c0 -40 -30 -72 -67 -72z" fill="currentColor"/>
<path transform="translate(21.0885, 13.3538) scale(0.0032, -0.0032)" d="M0 0c0 30 25 55 55 55s55 -25 55 -55s-25 -55 -55 -55s-55 25 -55 55z" fill="currentColor"/>
<rect transform="translate(19.7597, 14.5444)" x="-0.0650" y="-1.0531" width="0.1300" height="2.6405" ry="0.0400" fill="currentColor"/>
<rect transform="translate(20.9458, 25.0444)" x="-0.0650" y="-2.0017" width="0.1300" height="6.3138" ry="0.0400" fill="currentColor"/>
<path transform="translate(21.4608, 40.2811) scale(0.0040, -0.0040)" d="M0 0c0 31 25 56 56 56s56 -25 56 -56s-25 -56 -56 -56s-56 25 -56 56z" fill="currentColor"/>
<rect transform="translate(20.9458, 36.7811)" x="-0.0650" y="-0.0000" width="0.1300" height="3.8122" ry="0.0400" fill="currentColor"/>
<rect transform="translate(92.3849, 36.7811)" x="-0.0650" y="-2.0000" width="0.1300" height="3.3122" ry="0.0400" fill="currentColor"/>
<path transform="translate(92.4499, 34.8211) scale(0.0040, -0.0040)" d="M0 0c0 -198 209 -335 209 -533c0 -71 -16 -141 -42 -207c-5 -8 -12 -12 -19 -12c-13 0 -26 11 -23 27c26 61 42 126 42 192c0 104 -95 208 -167 283h-16v250h16z" fill="currentColor"/>
<path transform="translate(93.7859, 13.3538) scale(0.0032, -0.0032)" d="M214 140c59 0 115 -32 115 -97c0 -72 -54 -121 -101 -149c-35 -21 -74 -34 -114 -34c-59 0 -114 32 -114 97c0 72 54 121 101 149c35 21 73 34 113 34z" fill="currentColor"/>
<path transform="translate(93.7859, 27.0444) scale(0.0040, -0.0040)" d="M220 138c56 0 109 -29 109 -91c0 -72 -56 -121 -103 -149c-36 -21 -76 -36 -117 -36c-56 0 -109 29 -109 91c0 72 56 121 103 149c36 21 76 36 117 36z" fill="currentColor"/>
<path transform="translate(93.7859, 38.2811) scale(0.0040, -0.0040)" d="M220 138c56 0 109 -29 109 -91c0 -72 -56 -121 -103 -149c-36 -21 -76 -36 -117 -36c-56 0 -109 29 -109 91c0 72 56 121 103 149c36 21 76 36 117 36z" fill="currentColor"/>
<rect transform="translate(93.8509, 14.5444)" x="-0.0650" y="-1.0531" width="0.1300" height="2.6405" ry="0.0400" fill="currentColor"/>
<rect transform="translate(95.0371, 25.0444)" x="-0.0650" y="-1.0000" width="0.1300" height="2.8122" ry="0.0400" fill="currentColor"/>
<path transform="translate(86.3513, 27.0444) scale(0.0040, -0.0040)" d="M220 138c56 0 109 -29 109 -91c0 -72 -56 -121 -103 -149c-36 -21 -76 -36 -117 -36c-56 0 -109 29 -109 91c0 72 56 121 103 149c36 21 76 36 117 36z" fill="currentColor"/>
<rect transform="translate(87.6025, 25.0444)" x="-0.0650" y="-2.1240" width="0.1300" height="3.9362" ry="0.0400" fill="currentColor"/>
<path transform="translate(88.6175, 28.0444) scale(0.0040, -0.0040)" d="M220 138c56 0 109 -29 109 -91c0 -72 -56 -121 -103 -149c-36 -21 -76 -36 -117 -36c-56 0 -109 29 -109 91c0 72 56 121 103 149c36 21 76 36 117 36z" fill="currentColor"/>
<rect transform="translate(89.8687, 25.0444)" x="-0.0650" y="-2.0660" width="0.1300" height="4.8782" ry="0.0400" fill="currentColor"/>
<path transform="translate(91.1337, 13.3538) scale(0.0032, -0.0032)" d="M214 140c59 0 115 -32 115 -97c0 -72 -54 -121 -101 -149c-35 -21 -74 -34 -114 -34c-59 0 -114 32 -114 97c0 72 54 121 101 149c35 21 73 34 113 34z" fill="currentColor"/>
<path transform="translate(91.1337, 29.5444) scale(0.0040, -0.0040)" d="M220 138c56 0 109 -29 109 -91c0 -72 -56 -121 -103 -149c-36 -21 -76 -36 -117 -36c-56 0 -109 29 -109 91c0 72 56 121 103 149c36 21 76 36 117 36z" fill="currentColor"/>
<path transform="translate(91.1337, 26.0444) scale(0.0040, -0.0040)" d="M220 138c56 0 109 -29 109 -91c0 -72 -56 -121 -103 -149c-36 -21 -76 -36 -117 -36c-56 0 -109 29 -109 91c0 72 56 121 103 149c36 21 76 36 117 36z" fill="currentColor"/>
<path transform="translate(91.1337, 38.2811) scale(0.0040, -0.0040)" d="M220 138c56 0 109 -29 109 -91c0 -72 -56 -121 -103 -149c-36 -21 -76 -36 -117 -36c-56 0 -109 29 -109 91c0 72 56 121 103 149c36 21 76 36 117 36z" fill="currentColor"/>
<rect transform="translate(91.1987, 14.5444)" x="-0.0650" y="-1.0531" width="0.1300" height="2.6405" ry="0.0400" fill="currentColor"/>
<path transform="translate(91.2637, 16.0918) scale(0.0032, -0.0032)" d="M0 0h-19v250h19c96 59 223 149 223 259c0 56 -15 111 -41 161c-3 18 11 30 25 30c8 0 17 -4 22 -13c25 -56 41 -116 41 -178c0 -204 -270 -305 -270 -509z" fill="currentColor"/>
<rect transform="translate(92.3849, 25.0444)" x="-0.0650" y="-2.0017" width="0.1300" height="6.3138" ry="0.0400" fill="currentColor"/>
<rect transform="translate(99.8194, 36.7811)" x="-0.0650" y="-1.5000" width="0.1300" height="3.3122" ry="0.0400" fill="currentColor"/>
<path transform="translate(101.0844, 28.0444) scale(0.0040, -0.0040)" d="M220 138c56 0 109 -29 109 -91c0 -72 -56 -121 -103 -149c-36 -21 -76 -36 -117 -36c-56 0 -109 29 -109 91c0 72 56 121 103 149c36 21 76 36 117 36z" fill="currentColor"/>
<rect transform="translate(102.3356, 25.0444)" x="-0.0650" y="-1.0000" width="0.1300" height="3.8122" ry="0.0400" fill="currentColor"/>
<path transform="translate(105.8406, 2.3696) scale(0.0032, -0.0032)" d="M212 110c-49 0 -67 -43 -67 -88c0 -74 56 -132 129 -132c49 0 67 43 67 88c0 74 -56 132 -129 132zM487 0c0 -43 -34 -77 -72 -99c-52 -30 -112 -41 -172 -41s-120 11 -172 41c-38 22 -71 56 -71 99s33 77 71 99c52 30 112 41 172 41s120 -11 172 -41
c38 -22 72 -56 72 -99z" fill="currentColor"/>
<path transform="translate(106.6133, 1.1620) scale(0.0032, -0.0032)" d="M-71 49c0 39 32 71 71 71s71 -32 71 -71s-32 -71 -71 -71s-71 32 -71 71zM0 366c159 0 335 -177 335 -369c0 -11 -10 -19 -21 -19c-10 0 -20 7 -23 22c-26 146 -145 259 -291 259s-265 -113 -291 -259c-3 -15 -13 -22 -23 -22c-11 0 -21 8 -21 19c0 192 177 369 335 369z
" fill="currentColor"/>
<path transform="translate(105.8406, 13.3538) scale(0.0032, -0.0032)" d="M212 110c-49 0 -67 -43 -67 -88c0 -74 56 -132 129 -132c49 0 67 43 67 88c0 74 -56 132 -129 132zM487 0c0 -43 -34 -77 -72 -99c-52 -30 -112 -41 -172 -41s-120 11 -172 41c-38 22 -71 56 -71 99s33 77 71 99c52 30 112 41 172 41s120 -11 172 -41
c38 -22 72 -56 72 -99z" fill="currentColor"/>
<path transform="translate(106.6133, 12.6784) scale(0.0032, -0.0032)" d="M-71 49c0 39 32 71 71 71s71 -32 71 -71s-32 -71 -71 -71s-71 32 -71 71zM0 366c159 0 335 -177 335 -369c0 -11 -10 -19 -21 -19c-10 0 -20 7 -23 22c-26 146 -145 259 -291 259s-265 -113 -291 -259c-3 -15 -13 -22 -23 -22c-11 0 -21 8 -21 19c0 192 177 369 335 369z
" fill="currentColor"/>
<path transform="translate(104.5406, 27.0444) scale(0.0040, -0.0040)" d="M42 278c-4 3 -6 8 -6 12c0 8 7 16 16 16c3 0 7 -1 10 -4l128 -107c8 -6 11 -13 11 -20c0 -24 -39 -51 -68 -78c-15 -14 -23 -34 -23 -53c0 -17 5 -33 17 -47l31 -25c4 -3 6 -8 6 -12c0 -8 -7 -16 -16 -16c-3 0 -7 1 -10 4l-128 107c-8 6 -11 13 -11 20c0 24 39 51 68 78
c15 14 23 34 23 53c0 17 -5 33 -17 47z" fill="currentColor"/>
<path transform="translate(104.5406, 28.0444) scale(0.0040, -0.0040)" d="M42 278c-4 3 -6 8 -6 12c0 8 7 16 16 16c3 0 7 -1 10 -4l128 -107c8 -6 11 -13 11 -20c0 -24 -39 -51 -68 -78c-15 -14 -23 -34 -23 -53c0 -17 5 -33 17 -47l31 -25c4 -3 6 -8 6 -12c0 -8 -7 -16 -16 -16c-3 0 -7 1 -10 4l-128 107c-8 6 -11 13 -11 20c0 24 39 51 68 78
c15 14 23 34 23 53c0 17 -5 33 -17 47z" fill="currentColor"/>
<path transform="translate(104.5406, 29.0444) scale(0.0040, -0.0040)" d="M42 278c-4 3 -6 8 -6 12c0 8 7 16 16 16c3 0 7 -1 10 -4l128 -107c8 -6 11 -13 11 -20c0 -24 -39 -51 -68 -78c-15 -14 -23 -34 -23 -53c0 -17 5 -33 17 -47l31 -25c4 -3 6 -8 6 -12c0 -8 -7 -16 -16 -16c-3 0 -7 1 -10 4l-128 107c-8 6 -11 13 -11 20c0 24 39 51 68 78
c15 14 23 34 23 53c0 17 -5 33 -17 47z" fill="currentColor"/>
<path transform="translate(105.8406, 29.0444) scale(0.0040, -0.0040)" d="M215 112c-50 0 -69 -43 -69 -88c0 -77 57 -136 134 -136c50 0 69 43 69 88c0 77 -57 136 -134 136zM495 0c0 -43 -35 -76 -73 -97c-53 -30 -113 -41 -174 -41s-122 11 -175 41c-38 21 -73 54 -73 97s35 76 73 97c53 30 114 41 175 41s121 -11 174 -41
c38 -21 73 -54 73 -97z" fill="currentColor"/>
<path transform="translate(105.8406, 28.0444) scale(0.0040, -0.0040)" d="M215 112c-50 0 -69 -43 -69 -88c0 -77 57 -136 134 -136c50 0 69 43 69 88c0 77 -57 136 -134 136zM495 0c0 -43 -35 -76 -73 -97c-53 -30 -113 -41 -174 -41s-122 11 -175 41c-38 21 -73 54 -73 97s35 76 73 97c53 30 114 41 175 41s121 -11 174 -41
c38 -21 73 -54 73 -97z" fill="currentColor"/>
<path transform="translate(107.5606, 27.5444) scale(0.0040, -0.0040)" d="M215 112c-50 0 -69 -43 -69 -88c0 -77 57 -136 134 -136c50 0 69 43 69 88c0 77 -57 136 -134 136zM495 0c0 -43 -35 -76 -73 -97c-53 -30 -113 -41 -174 -41s-122 11 -175 41c-38 21 -73 54 -73 97s35 76 73 97c53 30 114 41 175 41s121 -11 174 -41
c38 -21 73 -54 73 -97z" fill="currentColor"/>
<rect transform="translate(95.0371, 36.7811)" x="-0.0650" y="-2.0000" width="0.1300" height="3.3122" ry="0.0400" fill="currentColor"/>
<path transform="translate(96.0521, 28.0444) scale(0.0040, -0.0040)" d="M220 138c56 0 109 -29 109 -91c0 -72 -56 -121 -103 -149c-36 -21 -76 -36 -117 -36c-56 0 -109 29 -109 91c0 72 56 121 103 149c36 21 76 36 117 36z" fill="currentColor"/>
<rect transform="translate(97.3032, 25.0444)" x="-0.0650" y="-1.0000" width="0.1300" height="3.8122" ry="0.0400" fill="currentColor"/>
<path transform="translate(98.5682, 13.7507) scale(0.0032, -0.0032)" d="M214 140c59 0 115 -32 115 -97c0 -72 -54 -121 -101 -149c-35 -21 -74 -34 -114 -34c-59 0 -114 32 -114 97c0 72 54 121 101 149c35 21 73 34 113 34z" fill="currentColor"/>
<path transform="translate(99.0899, 12.5601) scale(0.0032, -0.0032)" d="M127 -23h-254c-13 0 -23 10 -23 23s10 23 23 23h254c13 0 23 -10 23 -23s-10 -23 -23 -23z" fill="currentColor"/>
<path transform="translate(98.5682, 30.0444) scale(0.0040, -0.0040)" d="M220 138c56 0 109 -29 109 -91c0 -72 -56 -121 -103 -149c-36 -21 -76 -36 -117 -36c-56 0 -109 29 -109 91c0 72 56 121 103 149c36 21 76 36 117 36z" fill="currentColor"/>
<path transform="translate(98.5682, 26.5444) scale(0.0040, -0.0040)" d="M220 138c56 0 109 -29 109 -91c0 -72 -56 -121 -103 -149c-36 -21 -76 -36 -117 -36c-56 0 -109 29 -109 91c0 72 56 121 103 149c36 21 76 36 117 36z" fill="currentColor"/>
<path transform="translate(98.5682, 38.7811) scale(0.0040, -0.0040)" d="M220 138c56 0 109 -29 109 -91c0 -72 -56 -121 -103 -149c-36 -21 -76 -36 -117 -36c-56 0 -109 29 -109 91c0 72 56 121 103 149c36 21 76 36 117 36z" fill="currentColor"/>
<rect transform="translate(98.6332, 14.5444)" x="-0.0650" y="-0.6563" width="0.1300" height="2.6405" ry="0.0400" fill="currentColor"/>
<rect transform="translate(99.8194, 25.0444)" x="-0.0650" y="-1.0000" width="0.1300" height="5.8122" ry="0.0400" fill="currentColor"/>
<path transform="translate(83.8352, 2.3696) scale(0.0032, -0.0032)" d="M212 110c-49 0 -67 -43 -67 -88c0 -74 56 -132 129 -132c49 0 67 43 67 88c0 74 -56 132 -129 132zM487 0c0 -43 -34 -77 -72 -99c-52 -30 -112 -41 -172 -41s-120 11 -172 41c-38 22 -71 56 -71 99s33 77 71 99c52 30 112 41 172 41s120 -11 172 -41
c38 -22 72 -56 72 -99z" fill="currentColor"/>
<path transform="translate(83.8352, 12.9570) scale(0.0032, -0.0032)" d="M214 140c59 0 115 -32 115 -97c0 -72 -54 -121 -101 -149c-35 -21 -74 -34 -114 -34c-59 0 -114 32 -114 97c0 72 54 121 101 149c35 21 73 34 113 34z" fill="currentColor"/>
<path transform="translate(83.8352, 29.0444) scale(0.0040, -0.0040)" d="M220 138c56 0 109 -29 109 -91c0 -72 -56 -121 -103 -149c-36 -21 -76 -36 -117 -36c-56 0 -109 29 -109 91c0 72 56 121 103 149c36 21 76 36 117 36z" fill="currentColor"/>
<path transform="translate(83.8352, 25.5444) scale(0.0040, -0.0040)" d="M220 138c56 0 109 -29 109 -91c0 -72 -56 -121 -103 -149c-36 -21 -76 -36 -117 -36c-56 0 -109 29 -109 91c0 72 56 121 103 149c36 21 76 36 117 36z" fill="currentColor"/>
<path transform="translate(83.8352, 40.7811) scale(0.0040, -0.0040)" d="M220 138c56 0 109 -29 109 -91c0 -72 -56 -121 -103 -149c-36 -21 -76 -36 -117 -36c-56 0 -109 29 -109 91c0 72 56 121 103 149c36 21 76 36 117 36z" fill="currentColor"/>
<path transform="translate(85.2289, 12.5601) scale(0.0032, -0.0032)" d="M0 0c0 30 25 55 55 55s55 -25 55 -55s-25 -55 -55 -55s-55 25 -55 55z" fill="currentColor"/>
<rect transform="translate(83.9002, 14.5444)" x="-0.0650" y="-1.4500" width="0.1300" height="2.6405" ry="0.0400" fill="currentColor"/>
<path transform="translate(77.3119, 25.0444) scale(0.0040, -0.0040)" d="M220 138c56 0 109 -29 109 -91c0 -72 -56 -121 -103 -149c-36 -21 -76 -36 -117 -36c-56 0 -109 29 -109 91c0 72 56 121 103 149c36 21 76 36 117 36z" fill="currentColor"/>
<path transform="translate(77.3119, 38.7811) scale(0.0040, -0.0040)" d="M220 138c56 0 109 -29 109 -91c0 -72 -56 -121 -103 -149c-36 -21 -76 -36 -117 -36c-56 0 -109 29 -109 91c0 72 56 121 103 149c36 21 76 36 117 36z" fill="currentColor"/>
<rect transform="translate(77.3769, 14.5444)" x="-0.0650" y="-1.8468" width="0.1300" height="2.6405" ry="0.0400" fill="currentColor"/>
<rect transform="translate(78.5631, 25.0444)" x="-0.0650" y="-2.8100" width="0.1300" height="6.1222" ry="0.0400" fill="currentColor"/>
<rect transform="translate(78.5631, 36.7811)" x="-0.0650" y="-1.5000" width="0.1300" height="3.3122" ry="0.0400" fill="currentColor"/>
<path transform="translate(79.8281, 27.0444) scale(0.0040, -0.0040)" d="M220 138c56 0 109 -29 109 -91c0 -72 -56 -121 -103 -149c-36 -21 -76 -36 -117 -36c-56 0 -109 29 -109 91c0 72 56 121 103 149c36 21 76 36 117 36z" fill="currentColor"/>
<rect transform="translate(81.0793, 25.0444)" x="-0.0650" y="-2.8100" width="0.1300" height="4.6222" ry="0.0400" fill="currentColor"/>
<path transform="translate(85.6013, 40.2811) scale(0.0040, -0.0040)" d="M0 0c0 31 25 56 56 56s56 -25 56 -56s-25 -56 -56 -56s-56 25 -56 56z" fill="currentColor"/>
<rect transform="translate(85.0863, 36.7811)" x="-0.0650" y="-0.0000" width="0.1300" height="3.8122" ry="0.0400" fill="currentColor"/>
<rect transform="translate(85.0863, 25.0444)" x="-0.0650" y="-2.1883" width="0.1300" height="6.0005" ry="0.0400" fill="currentColor"/>
</svg>
