<svg xmlns="http://www.w3.org/2000/svg" xmlns:xlink="http://www.w3.org/1999/xlink" version="1.2" width="230.57mm" height="46.06mm" viewBox="6.7420 -0.0000 131.2085 26.2098">
<defs><link href="../../assets/fonts.css" type="text/css" rel="stylesheet" xmlns="http://www.w3.org/1999/xhtml" /></defs>
<rect transform="translate(40.6229, -0.0000)" x="0.0000" y="9.7827" width="0.1900" height="6.6871" ry="0.0000" fill="currentColor"/>
<rect transform="translate(40.6229, 18.4698)" x="0.0000" y="-2.0500" width="0.1900" height="4.0500" ry="0.0000" fill="currentColor"/>
<rect transform="translate(40.6229, 7.7327)" x="0.0000" y="-2.0000" width="0.1900" height="4.0500" ry="0.0000" fill="currentColor"/>
<rect transform="translate(88.9958, -0.0000)" x="0.0000" y="9.7827" width="0.1900" height="6.6871" ry="0.0000" fill="currentColor"/>
<rect transform="translate(88.9958, 18.4698)" x="0.0000" y="-2.0500" width="0.1900" height="4.0500" ry="0.0000" fill="currentColor"/>
<rect transform="translate(113.9745, -0.0000)" x="0.0000" y="9.7827" width="0.1900" height="6.6871" ry="0.0000" fill="currentColor"/>
<rect transform="translate(88.9958, 7.7327)" x="0.0000" y="-2.0000" width="0.1900" height="4.0500" ry="0.0000" fill="currentColor"/>
<rect transform="translate(113.9745, 18.4698)" x="0.0000" y="-2.0500" width="0.1900" height="4.0500" ry="0.0000" fill="currentColor"/>
<rect transform="translate(113.9745, 7.7327)" x="0.0000" y="-2.0000" width="0.1900" height="4.0500" ry="0.0000" fill="currentColor"/>
<rect transform="translate(64.9879, -0.0000)" x="0.0000" y="9.7827" width="0.1900" height="6.6871" ry="0.0000" fill="currentColor"/>
<rect transform="translate(64.9879, 18.4698)" x="0.0000" y="-2.0500" width="0.1900" height="4.0500" ry="0.0000" fill="currentColor"/>
<rect transform="translate(137.7605, -0.0000)" x="0.0000" y="9.7827" width="0.1900" height="6.6871" ry="0.0000" fill="currentColor"/>
<line transform="translate(7.9668, 20.4698)" stroke-linejoin="round" stroke-linecap="round" stroke-width="0.1000" stroke="currentColor" x1="0.0500" y1="-0.0000" x2="129.9338" y2="-0.0000"/>
<line transform="translate(7.9668, 19.4698)" stroke-linejoin="round" stroke-linecap="round" stroke-width="0.1000" stroke="currentColor" x1="0.0500" y1="-0.0000" x2="129.9338" y2="-0.0000"/>
<line transform="translate(7.9668, 18.4698)" stroke-linejoin="round" stroke-linecap="round" stroke-width="0.1000" stroke="currentColor" x1="0.0500" y1="-0.0000" x2="129.9338" y2="-0.0000"/>
<line transform="translate(7.9668, 17.4698)" stroke-linejoin="round" stroke-linecap="round" stroke-width="0.1000" stroke="currentColor" x1="0.0500" y1="-0.0000" x2="129.9338" y2="-0.0000"/>
<line transform="translate(7.9668, 16.4698)" stroke-linejoin="round" stroke-linecap="round" stroke-width="0.1000" stroke="currentColor" x1="0.0500" y1="-0.0000" x2="129.9338" y2="-0.0000"/>
<rect transform="translate(137.7605, 18.4698)" x="0.0000" y="-2.0500" width="0.1900" height="4.0500" ry="0.0000" fill="currentColor"/>
<line transform="translate(7.9668, 9.7327)" stroke-linejoin="round" stroke-linecap="round" stroke-width="0.1000" stroke="currentColor" x1="0.0500" y1="-0.0000" x2="129.9338" y2="-0.0000"/>
<line transform="translate(7.9668, 8.7327)" stroke-linejoin="round" stroke-linecap="round" stroke-width="0.1000" stroke="currentColor" x1="0.0500" y1="-0.0000" x2="129.9338" y2="-0.0000"/>
<line transform="translate(7.9668, 7.7327)" stroke-linejoin="round" stroke-linecap="round" stroke-width="0.1000" stroke="currentColor" x1="0.0500" y1="-0.0000" x2="129.9338" y2="-0.0000"/>
<line transform="translate(7.9668, 6.7327)" stroke-linejoin="round" stroke-linecap="round" stroke-width="0.1000" stroke="currentColor" x1="0.0500" y1="-0.0000" x2="129.9338" y2="-0.0000"/>
<line transform="translate(7.9668, 5.7327)" stroke-linejoin="round" stroke-linecap="round" stroke-width="0.1000" stroke="currentColor" x1="0.0500" y1="-0.0000" x2="129.9338" y2="-0.0000"/>
<rect transform="translate(64.9879, 7.7327)" x="0.0000" y="-2.0000" width="0.1900" height="4.0500" ry="0.0000" fill="currentColor"/>
<rect transform="translate(0.0000, 21.4698)" x="94.9351" y="-0.1000" width="1.9743" height="0.2000" ry="0.1000" fill="currentColor"/>
<rect transform="translate(0.0000, 22.4698)" x="94.9351" y="-0.1000" width="1.9743" height="0.2000" ry="0.1000" fill="currentColor"/>
<rect transform="translate(0.0000, 23.4698)" x="94.9351" y="-0.1000" width="1.9743" height="0.2000" ry="0.1000" fill="currentColor"/>
<rect transform="translate(0.0000, 15.4698)" x="102.3675" y="-0.1000" width="1.9743" height="0.2000" ry="0.1000" fill="currentColor"/>
<rect transform="translate(0.0000, 15.4698)" x="109.7999" y="-0.1000" width="1.9743" height="0.2000" ry="0.1000" fill="currentColor"/>
<rect transform="translate(0.0000, 15.4698)" x="114.8798" y="-0.1000" width="1.9743" height="0.2000" ry="0.1000" fill="currentColor"/>
<rect transform="translate(0.0000, 15.4698)" x="118.3459" y="-0.1000" width="1.9743" height="0.2000" ry="0.1000" fill="currentColor"/>
<rect transform="translate(0.0000, 14.4698)" x="118.3459" y="-0.1000" width="1.9743" height="0.2000" ry="0.1000" fill="currentColor"/>
<rect transform="translate(137.7605, 7.7327)" x="0.0000" y="-2.0000" width="0.1900" height="4.0500" ry="0.0000" fill="currentColor"/>
<path transform="translate(46.9952, 7.7327) scale(0.0040, -0.0040)" d="M220 138c56 0 109 -29 109 -91c0 -72 -56 -121 -103 -149c-36 -21 -76 -36 -117 -36c-56 0 -109 29 -109 91c0 72 56 121 103 149c36 21 76 36 117 36z" fill="currentColor"/>
<rect transform="translate(48.2464, 7.7327)" x="-0.0650" y="-2.8100" width="0.1300" height="2.6222" ry="0.0400" fill="currentColor"/>
<path transform="translate(66.0779, 9.7327) scale(0.0040, -0.0040)" d="M-23 -116c0 28 11 42 40 42c33 0 78 -13 119 -31l-132 158c-7 9 -10 17 -10 25c0 34 50 66 87 99c25 22 37 52 37 83c0 24 -8 49 -25 69l-35 42c-3 3 -4 7 -4 10c0 9 9 15 17 15c4 0 8 -1 11 -5l151 -180c7 -9 10 -17 10 -25c0 -34 -50 -66 -87 -99
c-25 -22 -37 -52 -37 -83c0 -24 7 -49 24 -69l84 -99c3 -3 4 -7 4 -10c0 -9 -8 -16 -16 -16c-4 0 -9 2 -12 6c-18 21 -63 38 -97 38c-41 0 -53 -26 -53 -67c0 -35 11 -74 28 -94c5 -6 0 -13 -6 -13c-2 0 -4 0 -6 2c-45 54 -92 148 -92 202z" fill="currentColor"/>
<path transform="translate(66.0779, 6.2327) scale(0.0040, -0.0040)" d="M220 138c56 0 109 -29 109 -91c0 -72 -56 -121 -103 -149c-36 -21 -76 -36 -117 -36c-56 0 -109 29 -109 91c0 72 56 121 103 149c36 21 76 36 117 36z" fill="currentColor"/>
<path transform="translate(49.7614, 6.2327) scale(0.0040, -0.0040)" d="M220 138c56 0 109 -29 109 -91c0 -72 -56 -121 -103 -149c-36 -21 -76 -36 -117 -36c-56 0 -109 29 -109 91c0 72 56 121 103 149c36 21 76 36 117 36z" fill="currentColor"/>
<rect transform="translate(51.0126, 7.7327)" x="-0.0650" y="-3.8100" width="0.1300" height="2.1222" ry="0.0400" fill="currentColor"/>
<rect transform="translate(45.7302, 7.7327)" x="-0.0650" y="-2.8100" width="0.1300" height="2.1222" ry="0.0400" fill="currentColor"/>
<path transform="translate(44.4791, 7.2327) scale(0.0040, -0.0040)" d="M220 138c56 0 109 -29 109 -91c0 -72 -56 -121 -103 -149c-36 -21 -76 -36 -117 -36c-56 0 -109 29 -109 91c0 72 56 121 103 149c36 21 76 36 117 36z" fill="currentColor"/>
<rect transform="translate(67.3291, 7.7327)" x="-0.0650" y="-3.8100" width="0.1300" height="2.1222" ry="0.0400" fill="currentColor"/>
<rect transform="translate(63.5935, 7.7327)" x="-0.0650" y="-2.8100" width="0.1300" height="2.6222" ry="0.0400" fill="currentColor"/>
<path transform="translate(62.3423, 7.7327) scale(0.0040, -0.0040)" d="M220 138c56 0 109 -29 109 -91c0 -72 -56 -121 -103 -149c-36 -21 -76 -36 -117 -36c-56 0 -109 29 -109 91c0 72 56 121 103 149c36 21 76 36 117 36z" fill="currentColor"/>
<rect transform="translate(61.0773, 7.7327)" x="-0.0650" y="-2.8100" width="0.1300" height="2.1222" ry="0.0400" fill="currentColor"/>
<path transform="translate(59.8261, 7.2327) scale(0.0040, -0.0040)" d="M220 138c56 0 109 -29 109 -91c0 -72 -56 -121 -103 -149c-36 -21 -76 -36 -117 -36c-56 0 -109 29 -109 91c0 72 56 121 103 149c36 21 76 36 117 36z" fill="currentColor"/>
<rect transform="translate(58.3111, 7.7327)" x="-0.0650" y="-2.8100" width="0.1300" height="3.1222" ry="0.0400" fill="currentColor"/>
<path transform="translate(57.0600, 8.2327) scale(0.0040, -0.0040)" d="M220 138c56 0 109 -29 109 -91c0 -72 -56 -121 -103 -149c-36 -21 -76 -36 -117 -36c-56 0 -109 29 -109 91c0 72 56 121 103 149c36 21 76 36 117 36z" fill="currentColor"/>
<rect transform="translate(56.0450, 7.7327)" x="-0.0650" y="-3.8100" width="0.1300" height="2.1222" ry="0.0400" fill="currentColor"/>
<path transform="translate(54.7938, 6.2327) scale(0.0040, -0.0040)" d="M220 138c56 0 109 -29 109 -91c0 -72 -56 -121 -103 -149c-36 -21 -76 -36 -117 -36c-56 0 -109 29 -109 91c0 72 56 121 103 149c36 21 76 36 117 36z" fill="currentColor"/>
<rect transform="translate(53.2788, 7.7327)" x="-0.0650" y="-3.8100" width="0.1300" height="3.1222" ry="0.0400" fill="currentColor"/>
<path transform="translate(52.0276, 7.2327) scale(0.0040, -0.0040)" d="M220 138c56 0 109 -29 109 -91c0 -72 -56 -121 -103 -149c-36 -21 -76 -36 -117 -36c-56 0 -109 29 -109 91c0 72 56 121 103 149c36 21 76 36 117 36z" fill="currentColor"/>
<rect transform="translate(31.5371, 7.7327)" x="-0.0650" y="-2.8100" width="0.1300" height="2.6222" ry="0.0400" fill="currentColor"/>
<path transform="translate(30.2859, 7.7327) scale(0.0040, -0.0040)" d="M220 138c56 0 109 -29 109 -91c0 -72 -56 -121 -103 -149c-36 -21 -76 -36 -117 -36c-56 0 -109 29 -109 91c0 72 56 121 103 149c36 21 76 36 117 36z" fill="currentColor"/>
<rect transform="translate(29.0209, 7.7327)" x="-0.0650" y="-2.8100" width="0.1300" height="2.1222" ry="0.0400" fill="currentColor"/>
<path transform="translate(27.7697, 7.2327) scale(0.0040, -0.0040)" d="M220 138c56 0 109 -29 109 -91c0 -72 -56 -121 -103 -149c-36 -21 -76 -36 -117 -36c-56 0 -109 29 -109 91c0 72 56 121 103 149c36 21 76 36 117 36z" fill="currentColor"/>
<rect transform="translate(26.2547, 7.7327)" x="-0.0650" y="-2.8100" width="0.1300" height="3.1222" ry="0.0400" fill="currentColor"/>
<path transform="translate(25.0035, 8.2327) scale(0.0040, -0.0040)" d="M220 138c56 0 109 -29 109 -91c0 -72 -56 -121 -103 -149c-36 -21 -76 -36 -117 -36c-56 0 -109 29 -109 91c0 72 56 121 103 149c36 21 76 36 117 36z" fill="currentColor"/>
<rect transform="translate(136.4732, 7.7327)" x="-0.0650" y="-3.8100" width="0.1300" height="2.1222" ry="0.0400" fill="currentColor"/>
<path transform="translate(41.7129, 8.2327) scale(0.0040, -0.0040)" d="M220 138c56 0 109 -29 109 -91c0 -72 -56 -121 -103 -149c-36 -21 -76 -36 -117 -36c-56 0 -109 29 -109 91c0 72 56 121 103 149c36 21 76 36 117 36z" fill="currentColor"/>
<rect transform="translate(42.9641, 7.7327)" x="-0.0650" y="-2.8100" width="0.1300" height="3.1222" ry="0.0400" fill="currentColor"/>
<path transform="translate(33.0521, 6.2327) scale(0.0040, -0.0040)" d="M220 138c56 0 109 -29 109 -91c0 -72 -56 -121 -103 -149c-36 -21 -76 -36 -117 -36c-56 0 -109 29 -109 91c0 72 56 121 103 149c36 21 76 36 117 36z" fill="currentColor"/>
<rect transform="translate(34.3032, 7.7327)" x="-0.0650" y="-3.8100" width="0.1300" height="2.1222" ry="0.0400" fill="currentColor"/>
<path transform="translate(35.3182, 7.2327) scale(0.0040, -0.0040)" d="M220 138c56 0 109 -29 109 -91c0 -72 -56 -121 -103 -149c-36 -21 -76 -36 -117 -36c-56 0 -109 29 -109 91c0 72 56 121 103 149c36 21 76 36 117 36z" fill="currentColor"/>
<rect transform="translate(36.5694, 7.7327)" x="-0.0650" y="-3.8100" width="0.1300" height="3.1222" ry="0.0400" fill="currentColor"/>
<path transform="translate(38.0844, 6.2327) scale(0.0040, -0.0040)" d="M220 138c56 0 109 -29 109 -91c0 -72 -56 -121 -103 -149c-36 -21 -76 -36 -117 -36c-56 0 -109 29 -109 91c0 72 56 121 103 149c36 21 76 36 117 36z" fill="currentColor"/>
<rect transform="translate(39.3356, 7.7327)" x="-0.0650" y="-3.8100" width="0.1300" height="2.1222" ry="0.0400" fill="currentColor"/>
<polygon transform="translate(115.2088, 18.6598)" stroke-linejoin="round" stroke-linecap="round" stroke-width="0.0800" fill="currentColor" stroke="currentColor" points="3.5562 -0.3900 3.5562 0.0100 0.0400 0.2000 0.0400 -0.2000"/>
<polygon transform="translate(116.3950, 3.9227)" stroke-linejoin="round" stroke-linecap="round" stroke-width="0.0800" fill="currentColor" stroke="currentColor" points="4.7562 -0.2000 4.7562 0.2000 0.0400 0.2000 0.0400 -0.2000"/>
<polygon transform="translate(95.2642, 25.9698)" stroke-linejoin="round" stroke-linecap="round" stroke-width="0.0800" fill="currentColor" stroke="currentColor" points="14.9547 -4.2000 14.9547 -3.8000 0.0400 0.2000 0.0400 -0.2000"/>
<polygon transform="translate(107.3489, 4.9227)" stroke-linejoin="round" stroke-linecap="round" stroke-width="0.0800" fill="currentColor" stroke="currentColor" points="5.2562 -0.2000 5.2562 0.2000 0.0400 0.2000 0.0400 -0.2000"/>
<polygon transform="translate(100.4165, 3.9227)" stroke-linejoin="round" stroke-linecap="round" stroke-width="0.0800" fill="currentColor" stroke="currentColor" points="4.7562 -0.2000 4.7562 0.2000 0.0400 0.2000 0.0400 -0.2000"/>
<polygon transform="translate(91.3442, 4.9227)" stroke-linejoin="round" stroke-linecap="round" stroke-width="0.0800" fill="currentColor" stroke="currentColor" points="6.3962 -0.2000 6.3962 0.2000 0.0400 0.2000 0.0400 -0.2000"/>
<path transform="translate(95.2642, 18.4698)" stroke-width="0.0800" stroke-linejoin="round" stroke-linecap="round" stroke="currentColor" fill="currentColor" d="M0.500658817047679 1.949994C0.744900097643335 -4.88679407420708 19.1588842408121 -7.96582976023807 23.9114543884763 -5.050006C19.1932612707417 -7.85085924309032 0.779277127572914 -4.77182355705933 0.500658817047679 1.949994z"/>
<path transform="translate(91.4742, 7.7327)" stroke-width="0.0800" stroke-linejoin="round" stroke-linecap="round" stroke="currentColor" fill="currentColor" d="M0.894992000000002 1.58950273433823C2.46300551277621 2.59555127019224 21.8315800586524 2.59555127019224 23.3995935714286 1.58950273433823C21.8315800586524 2.47555127019224 2.46300551277621 2.47555127019224 0.894992000000002 1.58950273433823z"/>
<path transform="translate(83.6912, 7.2327) scale(0.0040, -0.0040)" d="M220 138c56 0 109 -29 109 -91c0 -72 -56 -121 -103 -149c-36 -21 -76 -36 -117 -36c-56 0 -109 29 -109 91c0 72 56 121 103 149c36 21 76 36 117 36z" fill="currentColor"/>
<rect transform="translate(84.9424, 7.7327)" x="-0.0650" y="-3.8100" width="0.1300" height="3.1222" ry="0.0400" fill="currentColor"/>
<path transform="translate(86.4574, 6.2327) scale(0.0040, -0.0040)" d="M220 138c56 0 109 -29 109 -91c0 -72 -56 -121 -103 -149c-36 -21 -76 -36 -117 -36c-56 0 -109 29 -109 91c0 72 56 121 103 149c36 21 76 36 117 36z" fill="currentColor"/>
<rect transform="translate(87.7085, 7.7327)" x="-0.0650" y="-3.8100" width="0.1300" height="2.1222" ry="0.0400" fill="currentColor"/>
<polygon transform="translate(131.3759, 3.9227)" stroke-linejoin="round" stroke-linecap="round" stroke-width="0.0800" fill="currentColor" stroke="currentColor" points="5.1224 -0.2000 5.1224 0.2000 0.0400 0.2000 0.0400 -0.2000"/>
<polygon transform="translate(123.3273, 4.9227)" stroke-linejoin="round" stroke-linecap="round" stroke-width="0.0800" fill="currentColor" stroke="currentColor" points="5.3724 -0.2000 5.3724 0.2000 0.0400 0.2000 0.0400 -0.2000"/>
<polygon transform="translate(42.8991, 4.9227)" stroke-linejoin="round" stroke-linecap="round" stroke-width="0.0800" fill="currentColor" stroke="currentColor" points="5.3724 -0.2000 5.3724 0.2000 0.0400 0.2000 0.0400 -0.2000"/>
<path transform="translate(52.1504, 17.4698) scale(0.0040, -0.0040)" d="M365 -156h-355c-6 0 -10 4 -10 10v136c0 6 4 10 10 10h355c6 0 10 -4 10 -10v-136c0 -6 -4 -10 -10 -10z" fill="currentColor"/>
<polygon transform="translate(34.2382, 3.9227)" stroke-linejoin="round" stroke-linecap="round" stroke-width="0.0800" fill="currentColor" stroke="currentColor" points="5.1224 -0.2000 5.1224 0.2000 0.0400 0.2000 0.0400 -0.2000"/>
<polygon transform="translate(26.1897, 4.9227)" stroke-linejoin="round" stroke-linecap="round" stroke-width="0.0800" fill="currentColor" stroke="currentColor" points="5.3724 -0.2000 5.3724 0.2000 0.0400 0.2000 0.0400 -0.2000"/>
<path transform="translate(25.0035, 7.7327)" stroke-width="0.0800" stroke-linejoin="round" stroke-linecap="round" stroke="currentColor" fill="currentColor" d="M1.24760856059525 -4.05C4.56001659945336 -6.0317399888434 59.3572284099153 -6.47758044727733 62.7014434177381 -4.55C59.3582047202515 -6.35758441893419 4.56099290978958 -5.91174396050027 1.24760856059525 -4.05z"/>
<path transform="translate(90.1580, 7.7327)" stroke-width="0.0800" stroke-linejoin="round" stroke-linecap="round" stroke="currentColor" fill="currentColor" d="M1.24144477949132 -3.55C4.33516707261776 -5.53587002118215 43.1266932828625 -6.39667933869935 46.3054623509199 -4.55C43.1293555058925 -6.27670887329833 4.33782929564771 -5.41589955578112 1.24144477949132 -3.55z"/>
<polygon transform="translate(82.6112, 3.9227)" stroke-linejoin="round" stroke-linecap="round" stroke-width="0.0800" fill="currentColor" stroke="currentColor" points="5.1224 -0.2000 5.1224 0.2000 0.0400 0.2000 0.0400 -0.2000"/>
<polygon transform="translate(74.5626, 4.9227)" stroke-linejoin="round" stroke-linecap="round" stroke-width="0.0800" fill="currentColor" stroke="currentColor" points="5.3724 -0.2000 5.3724 0.2000 0.0400 0.2000 0.0400 -0.2000"/>
<polygon transform="translate(67.2641, 3.9227)" stroke-linejoin="round" stroke-linecap="round" stroke-width="0.0800" fill="currentColor" stroke="currentColor" points="5.1224 -0.2000 5.1224 0.2000 0.0400 0.2000 0.0400 -0.2000"/>
<path transform="translate(76.3369, 17.4698) scale(0.0040, -0.0040)" d="M365 -156h-355c-6 0 -10 4 -10 10v136c0 6 4 10 10 10h355c6 0 10 -4 10 -10v-136c0 -6 -4 -10 -10 -10z" fill="currentColor"/>
<polygon transform="translate(58.2461, 4.9227)" stroke-linejoin="round" stroke-linecap="round" stroke-width="0.0800" fill="currentColor" stroke="currentColor" points="5.3724 -0.2000 5.3724 0.2000 0.0400 0.2000 0.0400 -0.2000"/>
<polygon transform="translate(50.9476, 3.9227)" stroke-linejoin="round" stroke-linecap="round" stroke-width="0.0800" fill="currentColor" stroke="currentColor" points="5.1224 -0.2000 5.1224 0.2000 0.0400 0.2000 0.0400 -0.2000"/>
<path transform="translate(68.3441, 7.2327) scale(0.0040, -0.0040)" d="M220 138c56 0 109 -29 109 -91c0 -72 -56 -121 -103 -149c-36 -21 -76 -36 -117 -36c-56 0 -109 29 -109 91c0 72 56 121 103 149c36 21 76 36 117 36z" fill="currentColor"/>
<rect transform="translate(69.5953, 7.7327)" x="-0.0650" y="-3.8100" width="0.1300" height="3.1222" ry="0.0400" fill="currentColor"/>
<path transform="translate(71.1103, 6.2327) scale(0.0040, -0.0040)" d="M220 138c56 0 109 -29 109 -91c0 -72 -56 -121 -103 -149c-36 -21 -76 -36 -117 -36c-56 0 -109 29 -109 91c0 72 56 121 103 149c36 21 76 36 117 36z" fill="currentColor"/>
<rect transform="translate(72.3615, 7.7327)" x="-0.0650" y="-3.8100" width="0.1300" height="2.1222" ry="0.0400" fill="currentColor"/>
<path transform="translate(73.3765, 8.2327) scale(0.0040, -0.0040)" d="M220 138c56 0 109 -29 109 -91c0 -72 -56 -121 -103 -149c-36 -21 -76 -36 -117 -36c-56 0 -109 29 -109 91c0 72 56 121 103 149c36 21 76 36 117 36z" fill="currentColor"/>
<path transform="translate(73.3765, 9.2327) scale(0.0040, -0.0040)" d="M220 138c56 0 109 -29 109 -91c0 -72 -56 -121 -103 -149c-36 -21 -76 -36 -117 -36c-56 0 -109 29 -109 91c0 72 56 121 103 149c36 21 76 36 117 36z" fill="currentColor"/>
<path transform="translate(78.6588, 7.7327) scale(0.0040, -0.0040)" d="M220 138c56 0 109 -29 109 -91c0 -72 -56 -121 -103 -149c-36 -21 -76 -36 -117 -36c-56 0 -109 29 -109 91c0 72 56 121 103 149c36 21 76 36 117 36z" fill="currentColor"/>
<rect transform="translate(79.9100, 7.7327)" x="-0.0650" y="-2.8100" width="0.1300" height="2.6222" ry="0.0400" fill="currentColor"/>
<path transform="translate(81.4250, 6.2327) scale(0.0040, -0.0040)" d="M220 138c56 0 109 -29 109 -91c0 -72 -56 -121 -103 -149c-36 -21 -76 -36 -117 -36c-56 0 -109 29 -109 91c0 72 56 121 103 149c36 21 76 36 117 36z" fill="currentColor"/>
<path transform="translate(81.4250, 9.7327) scale(0.0040, -0.0040)" d="M220 138c56 0 109 -29 109 -91c0 -72 -56 -121 -103 -149c-36 -21 -76 -36 -117 -36c-56 0 -109 29 -109 91c0 72 56 121 103 149c36 21 76 36 117 36z" fill="currentColor"/>
<path transform="translate(82.0831, 12.6794) scale(0.0040, -0.0040)" d="M130 -20h-260c-11 0 -20 9 -20 20s9 20 20 20h260c11 0 20 -9 20 -20s-9 -20 -20 -20z" fill="currentColor"/>
<rect transform="translate(82.6762, 7.7327)" x="-0.0650" y="-3.8100" width="0.1300" height="2.1222" ry="0.0400" fill="currentColor"/>
<rect transform="translate(81.4900, 7.7327)" x="-0.0650" y="2.1878" width="0.1300" height="2.4789" ry="0.0400" fill="currentColor"/>
<path transform="translate(74.0346, 12.3460) scale(0.0040, -0.0040)" d="M130 -20h-260c-11 0 -20 9 -20 20s9 20 20 20h260c11 0 20 -9 20 -20s-9 -20 -20 -20z" fill="currentColor"/>
<rect transform="translate(74.6276, 7.7327)" x="-0.0650" y="-2.8100" width="0.1300" height="3.1222" ry="0.0400" fill="currentColor"/>
<rect transform="translate(73.4415, 7.7327)" x="-0.0650" y="1.6878" width="0.1300" height="2.6455" ry="0.0400" fill="currentColor"/>
<path transform="translate(76.1426, 7.2327) scale(0.0040, -0.0040)" d="M220 138c56 0 109 -29 109 -91c0 -72 -56 -121 -103 -149c-36 -21 -76 -36 -117 -36c-56 0 -109 29 -109 91c0 72 56 121 103 149c36 21 76 36 117 36z" fill="currentColor"/>
<rect transform="translate(77.3938, 7.7327)" x="-0.0650" y="-2.8100" width="0.1300" height="2.1222" ry="0.0400" fill="currentColor"/>
<rect transform="translate(100.4815, 7.7327)" x="-0.0650" y="-3.8100" width="0.1300" height="2.1222" ry="0.0400" fill="currentColor"/>
<rect transform="translate(99.2954, 18.4698)" x="-0.0650" y="-0.3122" width="0.1300" height="6.7368" ry="0.0400" fill="currentColor"/>
<path transform="translate(101.4965, 7.2327) scale(0.0040, -0.0040)" d="M220 138c56 0 109 -29 109 -91c0 -72 -56 -121 -103 -149c-36 -21 -76 -36 -117 -36c-56 0 -109 29 -109 91c0 72 56 121 103 149c36 21 76 36 117 36z" fill="currentColor"/>
<rect transform="translate(102.7477, 7.7327)" x="-0.0650" y="-3.8100" width="0.1300" height="3.1222" ry="0.0400" fill="currentColor"/>
<path transform="translate(102.6965, 15.4698) scale(0.0040, -0.0040)" d="M220 138c56 0 109 -29 109 -91c0 -72 -56 -121 -103 -149c-36 -21 -76 -36 -117 -36c-56 0 -109 29 -109 91c0 72 56 121 103 149c36 21 76 36 117 36z" fill="currentColor"/>
<path transform="translate(95.2642, 23.4698) scale(0.0040, -0.0040)" d="M220 138c56 0 109 -29 109 -91c0 -72 -56 -121 -103 -149c-36 -21 -76 -36 -117 -36c-56 0 -109 29 -109 91c0 72 56 121 103 149c36 21 76 36 117 36z" fill="currentColor"/>
<rect transform="translate(95.3292, 18.4698)" x="-0.0650" y="5.1878" width="0.1300" height="2.2948" ry="0.0400" fill="currentColor"/>
<path transform="translate(96.4642, 7.7327) scale(0.0040, -0.0040)" d="M220 138c56 0 109 -29 109 -91c0 -72 -56 -121 -103 -149c-36 -21 -76 -36 -117 -36c-56 0 -109 29 -109 91c0 72 56 121 103 149c36 21 76 36 117 36z" fill="currentColor"/>
<rect transform="translate(97.7154, 7.7327)" x="-0.0650" y="-2.8100" width="0.1300" height="2.6222" ry="0.0400" fill="currentColor"/>
<path transform="translate(99.2304, 6.2327) scale(0.0040, -0.0040)" d="M220 138c56 0 109 -29 109 -91c0 -72 -56 -121 -103 -149c-36 -21 -76 -36 -117 -36c-56 0 -109 29 -109 91c0 72 56 121 103 149c36 21 76 36 117 36z" fill="currentColor"/>
<path transform="translate(99.2304, 17.9698) scale(0.0040, -0.0040)" d="M220 138c56 0 109 -29 109 -91c0 -72 -56 -121 -103 -149c-36 -21 -76 -36 -117 -36c-56 0 -109 29 -109 91c0 72 56 121 103 149c36 21 76 36 117 36z" fill="currentColor"/>
<rect transform="translate(106.2277, 18.4698)" x="-0.0650" y="-1.8122" width="0.1300" height="6.3875" ry="0.0400" fill="currentColor"/>
<path transform="translate(108.9289, 7.2327) scale(0.0040, -0.0040)" d="M220 138c56 0 109 -29 109 -91c0 -72 -56 -121 -103 -149c-36 -21 -76 -36 -117 -36c-56 0 -109 29 -109 91c0 72 56 121 103 149c36 21 76 36 117 36z" fill="currentColor"/>
<rect transform="translate(110.1801, 7.7327)" x="-0.0650" y="-2.8100" width="0.1300" height="2.1222" ry="0.0400" fill="currentColor"/>
<path transform="translate(110.1289, 14.9698) scale(0.0040, -0.0040)" d="M220 138c56 0 109 -29 109 -91c0 -72 -56 -121 -103 -149c-36 -21 -76 -36 -117 -36c-56 0 -109 29 -109 91c0 72 56 121 103 149c36 21 76 36 117 36z" fill="currentColor"/>
<rect transform="translate(110.1939, 18.4698)" x="-0.0650" y="-3.3122" width="0.1300" height="6.8295" ry="0.0400" fill="currentColor"/>
<rect transform="translate(102.7615, 18.4698)" x="-0.0650" y="-2.8122" width="0.1300" height="8.3122" ry="0.0400" fill="currentColor"/>
<path transform="translate(103.8965, 6.2327) scale(0.0040, -0.0040)" d="M220 138c56 0 109 -29 109 -91c0 -72 -56 -121 -103 -149c-36 -21 -76 -36 -117 -36c-56 0 -109 29 -109 91c0 72 56 121 103 149c36 21 76 36 117 36z" fill="currentColor"/>
<rect transform="translate(105.1477, 7.7327)" x="-0.0650" y="-3.8100" width="0.1300" height="2.1222" ry="0.0400" fill="currentColor"/>
<path transform="translate(106.1627, 8.2327) scale(0.0040, -0.0040)" d="M220 138c56 0 109 -29 109 -91c0 -72 -56 -121 -103 -149c-36 -21 -76 -36 -117 -36c-56 0 -109 29 -109 91c0 72 56 121 103 149c36 21 76 36 117 36z" fill="currentColor"/>
<path transform="translate(106.1627, 16.4698) scale(0.0040, -0.0040)" d="M220 138c56 0 109 -29 109 -91c0 -72 -56 -121 -103 -149c-36 -21 -76 -36 -117 -36c-56 0 -109 29 -109 91c0 72 56 121 103 149c36 21 76 36 117 36z" fill="currentColor"/>
<rect transform="translate(107.4139, 7.7327)" x="-0.0650" y="-2.8100" width="0.1300" height="3.1222" ry="0.0400" fill="currentColor"/>
<path transform="translate(12.3868, 19.4698) scale(0.0040, -0.0040)" d="M27 41l-1 -66v-11c0 -22 1 -44 4 -66c45 38 93 80 93 139c0 33 -14 67 -43 67c-31 0 -52 -30 -53 -63zM-15 -138l-12 595c8 5 18 8 27 8s19 -3 27 -8l-7 -345c25 21 58 34 91 34c52 0 89 -48 89 -102c0 -80 -86 -117 -147 -169c-15 -13 -24 -38 -45 -38
c-13 0 -23 11 -23 25z" fill="currentColor"/>
<path transform="translate(13.3068, 17.9698) scale(0.0040, -0.0040)" d="M27 41l-1 -66v-11c0 -22 1 -44 4 -66c45 38 93 80 93 139c0 33 -14 67 -43 67c-31 0 -52 -30 -53 -63zM-15 -138l-12 595c8 5 18 8 27 8s19 -3 27 -8l-7 -345c25 21 58 34 91 34c52 0 89 -48 89 -102c0 -80 -86 -117 -147 -169c-15 -13 -24 -38 -45 -38
c-13 0 -23 11 -23 25z" fill="currentColor"/>
<path transform="translate(14.2268, 19.9698) scale(0.0040, -0.0040)" d="M27 41l-1 -66v-11c0 -22 1 -44 4 -66c45 38 93 80 93 139c0 33 -14 67 -43 67c-31 0 -52 -30 -53 -63zM-15 -138l-12 595c8 5 18 8 27 8s19 -3 27 -8l-7 -345c25 21 58 34 91 34c52 0 89 -48 89 -102c0 -80 -86 -117 -147 -169c-15 -13 -24 -38 -45 -38
c-13 0 -23 11 -23 25z" fill="currentColor"/>
<path transform="translate(15.1468, 18.4698) scale(0.0040, -0.0040)" d="M27 41l-1 -66v-11c0 -22 1 -44 4 -66c45 38 93 80 93 139c0 33 -14 67 -43 67c-31 0 -52 -30 -53 -63zM-15 -138l-12 595c8 5 18 8 27 8s19 -3 27 -8l-7 -345c25 21 58 34 91 34c52 0 89 -48 89 -102c0 -80 -86 -117 -147 -169c-15 -13 -24 -38 -45 -38
c-13 0 -23 11 -23 25z" fill="currentColor"/>
<path transform="translate(17.0968, 20.4842) scale(0.0040, -0.0040)" d="M204 307c22 14 44 29 60 50c11 15 19 33 27 50c2 4 5 6 9 6c6 0 13 -5 13 -14v-245h72c10 0 15 -7 15 -14s-5 -15 -15 -15h-72v-8c0 -48 27 -94 72 -94c8 0 12 -5 12 -11s-4 -12 -12 -12c-44 0 -87 13 -131 13s-87 -13 -131 -13c-8 0 -12 6 -12 12s4 11 12 11
c45 0 73 46 73 94v8h-167c-23 0 -31 14 -31 23c0 3 1 5 2 6c80 93 138 207 138 330c0 9 6 16 13 16h3c23 -7 47 -13 71 -13s48 6 71 13c2 1 3 1 5 1c11 0 18 -10 12 -17l-284 -330h167v131c0 8 1 17 8 22z" fill="currentColor"/>
<path transform="translate(17.2334, 18.4698) scale(0.0040, -0.0040)" d="M150 477c-29 0 -59 -8 -59 -33c0 -22 36 -25 36 -47c0 -32 -26 -58 -58 -58s-57 26 -57 58c0 65 67 103 138 103c91 0 169 -33 169 -114c0 -43 -4 -82 -42 -100c-9 -4 -14 -12 -14 -21s5 -18 14 -22c41 -19 56 -57 56 -103c0 -92 -79 -140 -179 -140
c-79 0 -154 42 -154 113c0 36 30 66 66 66s65 -30 65 -66c0 -25 -40 -28 -40 -53c0 -27 32 -37 63 -37c49 0 63 61 63 117v16c0 54 -2 94 -50 94h-80c-10 0 -14 8 -14 15s4 14 14 14h80c49 0 50 43 50 99v8c0 54 -18 91 -67 91z" fill="currentColor"/>
<text transform="translate(17.0968, 1.6730)" font-family="Lyon Text" font-size="2.2001" text-anchor="start" fill="currentColor">
<tspan>
Non allegro.</tspan>
</text>
<path transform="translate(90.1580, 8.2327) scale(0.0040, -0.0040)" d="M220 138c56 0 109 -29 109 -91c0 -72 -56 -121 -103 -149c-36 -21 -76 -36 -117 -36c-56 0 -109 29 -109 91c0 72 56 121 103 149c36 21 76 36 117 36z" fill="currentColor"/>
<path transform="translate(28.9122, 17.4698) scale(0.0040, -0.0040)" d="M365 -156h-355c-6 0 -10 4 -10 10v136c0 6 4 10 10 10h355c6 0 10 -4 10 -10v-136c0 -6 -4 -10 -10 -10z" fill="currentColor"/>
<path transform="translate(7.6068, 13.1012) scale(0.0040, -0.0040)" d="M-16 -556c0 -296 -112 -588 -112 -868c0 -152 32 -292 140 -408c4 -4 4 -8 4 -12c0 -8 -8 -16 -16 -16c-4 0 -8 0 -12 4c-144 152 -192 352 -192 560c0 304 120 596 120 884c0 152 -36 292 -140 404c0 4 -4 4 -4 8s4 4 4 8c104 112 140 252 140 404
c0 288 -120 580 -120 884c0 208 48 408 192 560c4 4 8 4 12 4c8 0 16 -8 16 -16c0 -4 0 -8 -4 -12c-108 -116 -140 -256 -140 -408c0 -280 112 -572 112 -868c0 -208 -44 -404 -184 -556c140 -152 184 -348 184 -556z" fill="currentColor"/>
<rect transform="translate(7.9068, 13.1012)" x="0.0000" y="-7.4185" width="0.1600" height="14.8371" ry="0.0500" fill="currentColor"/>
<path transform="translate(73.3005, 14.0869) scale(0.0040, -0.0040)" d="M233 243c-56 0 -102 -107 -102 -173c0 -22 8 -38 30 -38c64 0 97 126 97 178c0 18 -7 33 -25 33zM112 -146c-38 0 -78 5 -116 5c-39 0 -78 -5 -115 -5c-9 0 -14 7 -14 14c0 18 31 15 48 16c22 1 47 5 54 25l102 300c2 7 4 14 4 20c0 8 -2 14 -11 14
c-33 0 -63 -60 -79 -97c-5 -12 -15 -17 -24 -17c-8 0 -14 4 -14 12c0 2 1 5 2 8c30 68 72 143 132 143c35 0 59 -21 66 -52c29 31 67 52 103 52c69 0 107 -49 107 -114c0 -21 -4 -44 -12 -67c-20 -58 -91 -119 -147 -119c-27 0 -52 5 -73 17c-4 2 -7 3 -11 3
c-7 0 -14 -3 -16 -9l-29 -86c-1 -2 -1 -5 -1 -7c0 -20 21 -26 44 -28c9 -1 13 -8 13 -14c0 -7 -4 -14 -13 -14z" fill="currentColor"/>
<path transform="translate(20.7016, 7.7327) scale(0.0040, -0.0040)" d="M-23 -116c0 28 11 42 40 42c33 0 78 -13 119 -31l-132 158c-7 9 -10 17 -10 25c0 34 50 66 87 99c25 22 37 52 37 83c0 24 -8 49 -25 69l-35 42c-3 3 -4 7 -4 10c0 9 9 15 17 15c4 0 8 -1 11 -5l151 -180c7 -9 10 -17 10 -25c0 -34 -50 -66 -87 -99
c-25 -22 -37 -52 -37 -83c0 -24 7 -49 24 -69l84 -99c3 -3 4 -7 4 -10c0 -9 -8 -16 -16 -16c-4 0 -9 2 -12 6c-18 21 -63 38 -97 38c-41 0 -53 -26 -53 -67c0 -35 11 -74 28 -94c5 -6 0 -13 -6 -13c-2 0 -4 0 -6 2c-45 54 -92 148 -92 202z" fill="currentColor"/>
<path transform="translate(8.7668, 8.7327) scale(0.0040, -0.0040)" d="M376 262c4 0 9 1 13 1c155 0 256 -128 256 -261c0 -76 -33 -154 -107 -210c-22 -17 -47 -28 -73 -36c3 -35 5 -70 5 -105c0 -19 -1 -39 -2 -58c-7 -120 -90 -228 -208 -228c-108 0 -195 88 -195 197c0 58 53 103 112 103c54 0 95 -47 95 -103c0 -52 -43 -95 -95 -95
c-11 0 -21 2 -31 6c26 -39 68 -65 117 -65c96 0 157 92 163 191c1 18 2 37 2 55c0 31 -1 61 -4 92c-29 -5 -58 -8 -89 -8c-188 0 -333 172 -333 374c0 177 131 306 248 441c-19 62 -37 125 -45 190c-6 52 -7 104 -7 156c0 115 55 224 149 292c3 2 7 3 10 3c4 0 7 0 10 -3
c71 -84 133 -245 133 -358c0 -143 -86 -255 -180 -364c21 -68 39 -138 56 -207zM461 -203c68 24 113 95 113 164c0 90 -66 179 -173 190c24 -116 46 -231 60 -354zM74 28c0 -135 129 -247 264 -247c28 0 55 2 82 6c-14 127 -37 245 -63 364c-79 -8 -124 -61 -124 -119
c0 -44 25 -91 81 -123c5 -5 7 -10 7 -15c0 -11 -10 -22 -22 -22c-3 0 -6 1 -9 2c-80 43 -117 115 -117 185c0 88 58 174 160 197c-14 58 -29 117 -46 175c-107 -121 -213 -243 -213 -403zM408 1045c-99 -48 -162 -149 -162 -259c0 -74 18 -133 36 -194
c80 97 146 198 146 324c0 55 -4 79 -20 129z" fill="currentColor"/>
<path transform="translate(12.3868, 7.7327) scale(0.0040, -0.0040)" d="M27 41l-1 -66v-11c0 -22 1 -44 4 -66c45 38 93 80 93 139c0 33 -14 67 -43 67c-31 0 -52 -30 -53 -63zM-15 -138l-12 595c8 5 18 8 27 8s19 -3 27 -8l-7 -345c25 21 58 34 91 34c52 0 89 -48 89 -102c0 -80 -86 -117 -147 -169c-15 -13 -24 -38 -45 -38
c-13 0 -23 11 -23 25z" fill="currentColor"/>
<path transform="translate(13.3068, 6.2327) scale(0.0040, -0.0040)" d="M27 41l-1 -66v-11c0 -22 1 -44 4 -66c45 38 93 80 93 139c0 33 -14 67 -43 67c-31 0 -52 -30 -53 -63zM-15 -138l-12 595c8 5 18 8 27 8s19 -3 27 -8l-7 -345c25 21 58 34 91 34c52 0 89 -48 89 -102c0 -80 -86 -117 -147 -169c-15 -13 -24 -38 -45 -38
c-13 0 -23 11 -23 25z" fill="currentColor"/>
<path transform="translate(14.2268, 8.2327) scale(0.0040, -0.0040)" d="M27 41l-1 -66v-11c0 -22 1 -44 4 -66c45 38 93 80 93 139c0 33 -14 67 -43 67c-31 0 -52 -30 -53 -63zM-15 -138l-12 595c8 5 18 8 27 8s19 -3 27 -8l-7 -345c25 21 58 34 91 34c52 0 89 -48 89 -102c0 -80 -86 -117 -147 -169c-15 -13 -24 -38 -45 -38
c-13 0 -23 11 -23 25z" fill="currentColor"/>
<path transform="translate(15.1468, 6.7327) scale(0.0040, -0.0040)" d="M27 41l-1 -66v-11c0 -22 1 -44 4 -66c45 38 93 80 93 139c0 33 -14 67 -43 67c-31 0 -52 -30 -53 -63zM-15 -138l-12 595c8 5 18 8 27 8s19 -3 27 -8l-7 -345c25 21 58 34 91 34c52 0 89 -48 89 -102c0 -80 -86 -117 -147 -169c-15 -13 -24 -38 -45 -38
c-13 0 -23 11 -23 25z" fill="currentColor"/>
<path transform="translate(17.0968, 9.7472) scale(0.0040, -0.0040)" d="M204 307c22 14 44 29 60 50c11 15 19 33 27 50c2 4 5 6 9 6c6 0 13 -5 13 -14v-245h72c10 0 15 -7 15 -14s-5 -15 -15 -15h-72v-8c0 -48 27 -94 72 -94c8 0 12 -5 12 -11s-4 -12 -12 -12c-44 0 -87 13 -131 13s-87 -13 -131 -13c-8 0 -12 6 -12 12s4 11 12 11
c45 0 73 46 73 94v8h-167c-23 0 -31 14 -31 23c0 3 1 5 2 6c80 93 138 207 138 330c0 9 6 16 13 16h3c23 -7 47 -13 71 -13s48 6 71 13c2 1 3 1 5 1c11 0 18 -10 12 -17l-284 -330h167v131c0 8 1 17 8 22z" fill="currentColor"/>
<path transform="translate(17.2334, 7.7327) scale(0.0040, -0.0040)" d="M150 477c-29 0 -59 -8 -59 -33c0 -22 36 -25 36 -47c0 -32 -26 -58 -58 -58s-57 26 -57 58c0 65 67 103 138 103c91 0 169 -33 169 -114c0 -43 -4 -82 -42 -100c-9 -4 -14 -12 -14 -21s5 -18 14 -22c41 -19 56 -57 56 -103c0 -92 -79 -140 -179 -140
c-79 0 -154 42 -154 113c0 36 30 66 66 66s65 -30 65 -66c0 -25 -40 -28 -40 -53c0 -27 32 -37 63 -37c49 0 63 61 63 117v16c0 54 -2 94 -50 94h-80c-10 0 -14 8 -14 15s4 14 14 14h80c49 0 50 43 50 99v8c0 54 -18 91 -67 91z" fill="currentColor"/>
<g transform="translate(19.7084, 14.0869)" >
<path transform="scale(0.0040, -0.0040)" d="M233 243c-56 0 -102 -107 -102 -173c0 -22 8 -38 30 -38c64 0 97 126 97 178c0 18 -7 33 -25 33zM112 -146c-38 0 -78 5 -116 5c-39 0 -78 -5 -115 -5c-9 0 -14 7 -14 14c0 18 31 15 48 16c22 1 47 5 54 25l102 300c2 7 4 14 4 20c0 8 -2 14 -11 14
c-33 0 -63 -60 -79 -97c-5 -12 -15 -17 -24 -17c-8 0 -14 4 -14 12c0 2 1 5 2 8c30 68 72 143 132 143c35 0 59 -21 66 -52c29 31 67 52 103 52c69 0 107 -49 107 -114c0 -21 -4 -44 -12 -67c-20 -58 -91 -119 -147 -119c-27 0 -52 5 -73 17c-4 2 -7 3 -11 3
c-7 0 -14 -3 -16 -9l-29 -86c-1 -2 -1 -5 -1 -7c0 -20 21 -26 44 -28c9 -1 13 -8 13 -14c0 -7 -4 -14 -13 -14z" fill="currentColor"/>

<path transform="translate(1.4682, 0.0000) scale(0.0040, -0.0040)" d="M233 243c-56 0 -102 -107 -102 -173c0 -22 8 -38 30 -38c64 0 97 126 97 178c0 18 -7 33 -25 33zM112 -146c-38 0 -78 5 -116 5c-39 0 -78 -5 -115 -5c-9 0 -14 7 -14 14c0 18 31 15 48 16c22 1 47 5 54 25l102 300c2 7 4 14 4 20c0 8 -2 14 -11 14
c-33 0 -63 -60 -79 -97c-5 -12 -15 -17 -24 -17c-8 0 -14 4 -14 12c0 2 1 5 2 8c30 68 72 143 132 143c35 0 59 -21 66 -52c29 31 67 52 103 52c69 0 107 -49 107 -114c0 -21 -4 -44 -12 -67c-20 -58 -91 -119 -147 -119c-27 0 -52 5 -73 17c-4 2 -7 3 -11 3
c-7 0 -14 -3 -16 -9l-29 -86c-1 -2 -1 -5 -1 -7c0 -20 21 -26 44 -28c9 -1 13 -8 13 -14c0 -7 -4 -14 -13 -14z" fill="currentColor"/>
</g>
<path transform="translate(8.7668, 17.4698) scale(0.0040, -0.0040)" d="M557 -125c0 28 23 51 51 51s51 -23 51 -51s-23 -51 -51 -51s-51 23 -51 51zM557 125c0 28 23 51 51 51s51 -23 51 -51s-23 -51 -51 -51s-51 23 -51 51zM232 263c172 0 293 -88 293 -251c0 -263 -263 -414 -516 -521c-3 -3 -6 -4 -9 -4c-7 0 -13 6 -13 13c0 3 1 6 4 9
c202 118 412 265 412 493c0 120 -63 235 -171 235c-74 0 -129 -54 -154 -126c11 5 22 8 34 8c55 0 100 -45 100 -100c0 -58 -44 -106 -100 -106c-60 0 -112 47 -112 106c0 133 102 244 232 244z" fill="currentColor"/>
<path transform="translate(94.0642, 7.2327) scale(0.0040, -0.0040)" d="M220 138c56 0 109 -29 109 -91c0 -72 -56 -121 -103 -149c-36 -21 -76 -36 -117 -36c-56 0 -109 29 -109 91c0 72 56 121 103 149c36 21 76 36 117 36z" fill="currentColor"/>
<rect transform="translate(95.3154, 7.7327)" x="-0.0650" y="-2.8100" width="0.1300" height="2.1222" ry="0.0400" fill="currentColor"/>
<path transform="translate(91.4742, 8.2327) scale(0.0040, -0.0040)" d="M315 65c0 24 -21 41 -42 41c-4 0 -8 0 -12 -1c-31 -9 -77 -40 -114 -64s-84 -53 -104 -78c-7 -8 -11 -18 -11 -28c0 -24 21 -41 42 -41c4 0 8 0 12 1c31 9 78 40 115 64s84 53 104 78c7 8 10 18 10 28zM264 137c47 0 83 -21 83 -72c0 -19 -4 -37 -10 -56
c-12 -38 -32 -74 -65 -96c-54 -36 -113 -51 -188 -51c-47 0 -84 22 -84 73c0 19 5 37 11 56c12 38 31 74 64 96c54 36 114 50 189 50z" fill="currentColor"/>
<path transform="translate(92.1692, 11.6794) scale(0.0040, -0.0040)" d="M130 -20h-260c-11 0 -20 9 -20 20s9 20 20 20h260c11 0 20 -9 20 -20s-9 -20 -20 -20z" fill="currentColor"/>
<path transform="translate(90.1580, 18.4698) scale(0.0040, -0.0040)" d="M72 -250l117 326c-34 -12 -69 -22 -105 -22c-46 0 -87 33 -87 79c0 40 33 72 73 72c25 0 48 -15 56 -39c10 -28 6 -59 35 -59c16 0 54 48 61 63c6 12 23 12 28 0l-123 -420c-8 -7 -17 -10 -27 -10s-20 3 -28 10z" fill="currentColor"/>
<rect transform="translate(91.4092, 7.7327)" x="-0.0650" y="-2.8100" width="0.1300" height="3.1222" ry="0.0400" fill="currentColor"/>
<path transform="translate(93.3142, 8.2327) scale(0.0040, -0.0040)" d="M0 0c0 31 25 56 56 56s56 -25 56 -56s-25 -56 -56 -56s-56 25 -56 56z" fill="currentColor"/>
<rect transform="translate(91.5392, 7.7327)" x="-0.0650" y="0.7614" width="0.1300" height="2.9053" ry="0.0400" fill="currentColor"/>
<path transform="translate(122.1412, 8.2327) scale(0.0040, -0.0040)" d="M220 138c56 0 109 -29 109 -91c0 -72 -56 -121 -103 -149c-36 -21 -76 -36 -117 -36c-56 0 -109 29 -109 91c0 72 56 121 103 149c36 21 76 36 117 36z" fill="currentColor"/>
<path transform="translate(130.1897, 6.2327) scale(0.0040, -0.0040)" d="M220 138c56 0 109 -29 109 -91c0 -72 -56 -121 -103 -149c-36 -21 -76 -36 -117 -36c-56 0 -109 29 -109 91c0 72 56 121 103 149c36 21 76 36 117 36z" fill="currentColor"/>
<path transform="translate(130.1897, 9.7327) scale(0.0040, -0.0040)" d="M220 138c56 0 109 -29 109 -91c0 -72 -56 -121 -103 -149c-36 -21 -76 -36 -117 -36c-56 0 -109 29 -109 91c0 72 56 121 103 149c36 21 76 36 117 36z" fill="currentColor"/>
<rect transform="translate(121.1262, 7.7327)" x="-0.0650" y="-3.8100" width="0.1300" height="2.1222" ry="0.0400" fill="currentColor"/>
<path transform="translate(119.8750, 6.2327) scale(0.0040, -0.0040)" d="M220 138c56 0 109 -29 109 -91c0 -72 -56 -121 -103 -149c-36 -21 -76 -36 -117 -36c-56 0 -109 29 -109 91c0 72 56 121 103 149c36 21 76 36 117 36z" fill="currentColor"/>
<path transform="translate(130.8478, 12.6794) scale(0.0040, -0.0040)" d="M130 -20h-260c-11 0 -20 9 -20 20s9 20 20 20h260c11 0 20 -9 20 -20s-9 -20 -20 -20z" fill="currentColor"/>
<path transform="translate(130.1897, 18.4698) scale(0.0040, -0.0040)" d="M-23 -116c0 28 11 42 40 42c33 0 78 -13 119 -31l-132 158c-7 9 -10 17 -10 25c0 34 50 66 87 99c25 22 37 52 37 83c0 24 -8 49 -25 69l-35 42c-3 3 -4 7 -4 10c0 9 9 15 17 15c4 0 8 -1 11 -5l151 -180c7 -9 10 -17 10 -25c0 -34 -50 -66 -87 -99
c-25 -22 -37 -52 -37 -83c0 -24 7 -49 24 -69l84 -99c3 -3 4 -7 4 -10c0 -9 -8 -16 -16 -16c-4 0 -9 2 -12 6c-18 21 -63 38 -97 38c-41 0 -53 -26 -53 -67c0 -35 11 -74 28 -94c5 -6 0 -13 -6 -13c-2 0 -4 0 -6 2c-45 54 -92 148 -92 202z" fill="currentColor"/>
<rect transform="translate(131.4409, 7.7327)" x="-0.0650" y="-3.8100" width="0.1300" height="2.1222" ry="0.0400" fill="currentColor"/>
<rect transform="translate(118.7400, 18.4698)" x="-0.0650" y="-3.8122" width="0.1300" height="3.8156" ry="0.0400" fill="currentColor"/>
<path transform="translate(118.6750, 14.4698) scale(0.0040, -0.0040)" d="M220 138c56 0 109 -29 109 -91c0 -72 -56 -121 -103 -149c-36 -21 -76 -36 -117 -36c-56 0 -109 29 -109 91c0 72 56 121 103 149c36 21 76 36 117 36z" fill="currentColor"/>
<rect transform="translate(118.7262, 7.7327)" x="-0.0650" y="-3.8100" width="0.1300" height="3.1222" ry="0.0400" fill="currentColor"/>
<path transform="translate(117.4750, 7.2327) scale(0.0040, -0.0040)" d="M220 138c56 0 109 -29 109 -91c0 -72 -56 -121 -103 -149c-36 -21 -76 -36 -117 -36c-56 0 -109 29 -109 91c0 72 56 121 103 149c36 21 76 36 117 36z" fill="currentColor"/>
<path transform="translate(127.4235, 7.7327) scale(0.0040, -0.0040)" d="M220 138c56 0 109 -29 109 -91c0 -72 -56 -121 -103 -149c-36 -21 -76 -36 -117 -36c-56 0 -109 29 -109 91c0 72 56 121 103 149c36 21 76 36 117 36z" fill="currentColor"/>
<rect transform="translate(126.1585, 7.7327)" x="-0.0650" y="-2.8100" width="0.1300" height="2.1222" ry="0.0400" fill="currentColor"/>
<path transform="translate(124.9073, 7.2327) scale(0.0040, -0.0040)" d="M220 138c56 0 109 -29 109 -91c0 -72 -56 -121 -103 -149c-36 -21 -76 -36 -117 -36c-56 0 -109 29 -109 91c0 72 56 121 103 149c36 21 76 36 117 36z" fill="currentColor"/>
<rect transform="translate(128.6747, 7.7327)" x="-0.0650" y="-2.8100" width="0.1300" height="2.6222" ry="0.0400" fill="currentColor"/>
<rect transform="translate(122.2062, 7.7327)" x="-0.0650" y="1.6878" width="0.1300" height="2.6455" ry="0.0400" fill="currentColor"/>
<rect transform="translate(123.3923, 7.7327)" x="-0.0650" y="-2.8100" width="0.1300" height="3.1222" ry="0.0400" fill="currentColor"/>
<path transform="translate(122.1412, 18.4698) scale(0.0040, -0.0040)" d="M-23 -116c0 28 11 42 40 42c33 0 78 -13 119 -31l-132 158c-7 9 -10 17 -10 25c0 34 50 66 87 99c25 22 37 52 37 83c0 24 -8 49 -25 69l-35 42c-3 3 -4 7 -4 10c0 9 9 15 17 15c4 0 8 -1 11 -5l151 -180c7 -9 10 -17 10 -25c0 -34 -50 -66 -87 -99
c-25 -22 -37 -52 -37 -83c0 -24 7 -49 24 -69l84 -99c3 -3 4 -7 4 -10c0 -9 -8 -16 -16 -16c-4 0 -9 2 -12 6c-18 21 -63 38 -97 38c-41 0 -53 -26 -53 -67c0 -35 11 -74 28 -94c5 -6 0 -13 -6 -13c-2 0 -4 0 -6 2c-45 54 -92 148 -92 202z" fill="currentColor"/>
<path transform="translate(122.7993, 12.3460) scale(0.0040, -0.0040)" d="M130 -20h-260c-11 0 -20 9 -20 20s9 20 20 20h260c11 0 20 -9 20 -20s-9 -20 -20 -20z" fill="currentColor"/>
<path transform="translate(122.1412, 9.2327) scale(0.0040, -0.0040)" d="M220 138c56 0 109 -29 109 -91c0 -72 -56 -121 -103 -149c-36 -21 -76 -36 -117 -36c-56 0 -109 29 -109 91c0 72 56 121 103 149c36 21 76 36 117 36z" fill="currentColor"/>
<rect transform="translate(115.2738, 7.7327)" x="-0.0650" y="0.6878" width="0.1300" height="2.9789" ry="0.0400" fill="currentColor"/>
<rect transform="translate(116.4600, 7.7327)" x="-0.0650" y="-3.8100" width="0.1300" height="2.1222" ry="0.0400" fill="currentColor"/>
<path transform="translate(132.4559, 7.2327) scale(0.0040, -0.0040)" d="M220 138c56 0 109 -29 109 -91c0 -72 -56 -121 -103 -149c-36 -21 -76 -36 -117 -36c-56 0 -109 29 -109 91c0 72 56 121 103 149c36 21 76 36 117 36z" fill="currentColor"/>
<path transform="translate(115.2088, 15.4698) scale(0.0040, -0.0040)" d="M220 138c56 0 109 -29 109 -91c0 -72 -56 -121 -103 -149c-36 -21 -76 -36 -117 -36c-56 0 -109 29 -109 91c0 72 56 121 103 149c36 21 76 36 117 36z" fill="currentColor"/>
<path transform="translate(115.2088, 8.2327) scale(0.0040, -0.0040)" d="M220 138c56 0 109 -29 109 -91c0 -72 -56 -121 -103 -149c-36 -21 -76 -36 -117 -36c-56 0 -109 29 -109 91c0 72 56 121 103 149c36 21 76 36 117 36z" fill="currentColor"/>
<path transform="translate(115.2088, 6.2327) scale(0.0040, -0.0040)" d="M220 138c56 0 109 -29 109 -91c0 -72 -56 -121 -103 -149c-36 -21 -76 -36 -117 -36c-56 0 -109 29 -109 91c0 72 56 121 103 149c36 21 76 36 117 36z" fill="currentColor"/>
<rect transform="translate(133.7071, 7.7327)" x="-0.0650" y="-3.8100" width="0.1300" height="3.1222" ry="0.0400" fill="currentColor"/>
<rect transform="translate(112.5801, 7.7327)" x="-0.0650" y="-2.8100" width="0.1300" height="2.6222" ry="0.0400" fill="currentColor"/>
<path transform="translate(111.3289, 7.7327) scale(0.0040, -0.0040)" d="M220 138c56 0 109 -29 109 -91c0 -72 -56 -121 -103 -149c-36 -21 -76 -36 -117 -36c-56 0 -109 29 -109 91c0 72 56 121 103 149c36 21 76 36 117 36z" fill="currentColor"/>
<path transform="translate(135.2221, 6.2327) scale(0.0040, -0.0040)" d="M220 138c56 0 109 -29 109 -91c0 -72 -56 -121 -103 -149c-36 -21 -76 -36 -117 -36c-56 0 -109 29 -109 91c0 72 56 121 103 149c36 21 76 36 117 36z" fill="currentColor"/>
<rect transform="translate(130.2547, 7.7327)" x="-0.0650" y="2.1878" width="0.1300" height="2.4789" ry="0.0400" fill="currentColor"/>
<rect transform="translate(115.2738, 18.4698)" x="-0.0650" y="-2.8122" width="0.1300" height="2.9988" ry="0.0400" fill="currentColor"/>
</svg>
