<svg xmlns="http://www.w3.org/2000/svg" xmlns:xlink="http://www.w3.org/1999/xlink" version="1.2" width="203.79mm" height="55.00mm" viewBox="6.7447 -0.0000 115.9701 31.2995">
<defs><link href="../../assets/fonts.css" type="text/css" rel="stylesheet" xmlns="http://www.w3.org/1999/xhtml" /></defs>
<rect transform="translate(103.9333, 7.6682)" x="0.0000" y="-1.5874" width="0.1900" height="3.1748" ry="0.0000" fill="currentColor"/>
<rect transform="translate(85.9574, 16.6682)" x="0.0000" y="-2.0000" width="0.1900" height="4.0500" ry="0.0000" fill="currentColor"/>
<rect transform="translate(69.4407, 7.6682)" x="0.0000" y="-1.5874" width="0.1900" height="3.1748" ry="0.0000" fill="currentColor"/>
<rect transform="translate(103.9333, 16.6682)" x="0.0000" y="-2.0000" width="0.1900" height="4.0500" ry="0.0000" fill="currentColor"/>
<rect transform="translate(32.8734, 16.6682)" x="0.0000" y="-2.0000" width="0.1900" height="4.0500" ry="0.0000" fill="currentColor"/>
<rect transform="translate(103.9333, 27.2995)" x="0.0000" y="-2.0500" width="0.1900" height="4.0500" ry="0.0000" fill="currentColor"/>
<rect transform="translate(69.4407, 16.6682)" x="0.0000" y="-2.0000" width="0.1900" height="4.0500" ry="0.0000" fill="currentColor"/>
<rect transform="translate(85.9574, 27.2995)" x="0.0000" y="-2.0500" width="0.1900" height="4.0500" ry="0.0000" fill="currentColor"/>
<rect transform="translate(122.5248, -0.0000)" x="0.0000" y="18.7182" width="0.1900" height="6.5813" ry="0.0000" fill="currentColor"/>
<rect transform="translate(103.9333, -0.0000)" x="0.0000" y="18.7182" width="0.1900" height="6.5813" ry="0.0000" fill="currentColor"/>
<rect transform="translate(122.5248, 27.2995)" x="0.0000" y="-2.0500" width="0.1900" height="4.0500" ry="0.0000" fill="currentColor"/>
<rect transform="translate(32.8734, 7.6682)" x="0.0000" y="-1.5874" width="0.1900" height="3.1748" ry="0.0000" fill="currentColor"/>
<rect transform="translate(122.5248, 16.6682)" x="0.0000" y="-2.0000" width="0.1900" height="4.0500" ry="0.0000" fill="currentColor"/>
<rect transform="translate(122.5248, 7.6682)" x="0.0000" y="-1.5874" width="0.1900" height="3.1748" ry="0.0000" fill="currentColor"/>
<rect transform="translate(69.4407, 27.2995)" x="0.0000" y="-2.0500" width="0.1900" height="4.0500" ry="0.0000" fill="currentColor"/>
<rect transform="translate(85.9574, -0.0000)" x="0.0000" y="18.7182" width="0.1900" height="6.5813" ry="0.0000" fill="currentColor"/>
<rect transform="translate(69.4407, -0.0000)" x="0.0000" y="18.7182" width="0.1900" height="6.5813" ry="0.0000" fill="currentColor"/>
<rect transform="translate(0.0000, 5.2871)" x="17.7767" y="-0.0897" width="1.6650" height="0.1794" ry="0.0897" fill="currentColor"/>
<rect transform="translate(0.0000, 4.4934)" x="17.8792" y="-0.0897" width="1.5625" height="0.1794" ry="0.0897" fill="currentColor"/>
<rect transform="translate(0.0000, 5.2871)" x="34.5559" y="-0.0897" width="1.6650" height="0.1794" ry="0.0897" fill="currentColor"/>
<rect transform="translate(0.0000, 4.4934)" x="34.5559" y="-0.0897" width="1.6650" height="0.1794" ry="0.0897" fill="currentColor"/>
<rect transform="translate(0.0000, 5.2871)" x="52.5484" y="-0.0897" width="1.5651" height="0.1794" ry="0.0897" fill="currentColor"/>
<rect transform="translate(0.0000, 4.4934)" x="52.5484" y="-0.0897" width="1.5651" height="0.1794" ry="0.0897" fill="currentColor"/>
<rect transform="translate(0.0000, 5.2871)" x="57.9379" y="-0.0897" width="1.5651" height="0.1794" ry="0.0897" fill="currentColor"/>
<rect transform="translate(0.0000, 5.2871)" x="71.1232" y="-0.0897" width="1.6650" height="0.1794" ry="0.0897" fill="currentColor"/>
<rect transform="translate(0.0000, 4.4934)" x="71.2257" y="-0.0897" width="1.5625" height="0.1794" ry="0.0897" fill="currentColor"/>
<rect transform="translate(0.0000, 5.2871)" x="87.6399" y="-0.0897" width="1.6650" height="0.1794" ry="0.0897" fill="currentColor"/>
<rect transform="translate(0.0000, 4.4934)" x="87.6399" y="-0.0897" width="1.6650" height="0.1794" ry="0.0897" fill="currentColor"/>
<rect transform="translate(0.0000, 5.2871)" x="105.6325" y="-0.0897" width="1.5651" height="0.1794" ry="0.0897" fill="currentColor"/>
<rect transform="translate(0.0000, 4.4934)" x="105.6325" y="-0.0897" width="1.5651" height="0.1794" ry="0.0897" fill="currentColor"/>
<rect transform="translate(0.0000, 5.2871)" x="111.0220" y="-0.0897" width="1.5651" height="0.1794" ry="0.0897" fill="currentColor"/>
<line transform="translate(7.9668, 9.2556)" stroke-linejoin="round" stroke-linecap="round" stroke-width="0.1000" stroke="currentColor" x1="0.0500" y1="-0.0000" x2="114.6980" y2="-0.0000"/>
<line transform="translate(7.9668, 8.4619)" stroke-linejoin="round" stroke-linecap="round" stroke-width="0.1000" stroke="currentColor" x1="0.0500" y1="-0.0000" x2="114.6980" y2="-0.0000"/>
<line transform="translate(7.9668, 7.6682)" stroke-linejoin="round" stroke-linecap="round" stroke-width="0.1000" stroke="currentColor" x1="0.0500" y1="-0.0000" x2="114.6980" y2="-0.0000"/>
<line transform="translate(7.9668, 6.8745)" stroke-linejoin="round" stroke-linecap="round" stroke-width="0.1000" stroke="currentColor" x1="0.0500" y1="-0.0000" x2="114.6980" y2="-0.0000"/>
<line transform="translate(7.9668, 6.0808)" stroke-linejoin="round" stroke-linecap="round" stroke-width="0.1000" stroke="currentColor" x1="0.0500" y1="-0.0000" x2="114.6980" y2="-0.0000"/>
<rect transform="translate(0.0000, 19.6682)" x="37.5717" y="-0.1000" width="1.9743" height="0.2000" ry="0.1000" fill="currentColor"/>
<rect transform="translate(0.0000, 19.6682)" x="52.4618" y="-0.1000" width="2.0850" height="0.2000" ry="0.1000" fill="currentColor"/>
<rect transform="translate(0.0000, 19.6682)" x="90.6558" y="-0.1000" width="1.9743" height="0.2000" ry="0.1000" fill="currentColor"/>
<rect transform="translate(0.0000, 19.6682)" x="105.5458" y="-0.1000" width="2.0850" height="0.2000" ry="0.1000" fill="currentColor"/>
<line transform="translate(7.9668, 18.6682)" stroke-linejoin="round" stroke-linecap="round" stroke-width="0.1000" stroke="currentColor" x1="0.0500" y1="-0.0000" x2="114.6980" y2="-0.0000"/>
<line transform="translate(7.9668, 17.6682)" stroke-linejoin="round" stroke-linecap="round" stroke-width="0.1000" stroke="currentColor" x1="0.0500" y1="-0.0000" x2="114.6980" y2="-0.0000"/>
<line transform="translate(7.9668, 16.6682)" stroke-linejoin="round" stroke-linecap="round" stroke-width="0.1000" stroke="currentColor" x1="0.0500" y1="-0.0000" x2="114.6980" y2="-0.0000"/>
<line transform="translate(7.9668, 15.6682)" stroke-linejoin="round" stroke-linecap="round" stroke-width="0.1000" stroke="currentColor" x1="0.0500" y1="-0.0000" x2="114.6980" y2="-0.0000"/>
<line transform="translate(7.9668, 14.6682)" stroke-linejoin="round" stroke-linecap="round" stroke-width="0.1000" stroke="currentColor" x1="0.0500" y1="-0.0000" x2="114.6980" y2="-0.0000"/>
<rect transform="translate(50.8493, 16.6682)" x="0.0000" y="-2.0000" width="0.1900" height="4.0500" ry="0.0000" fill="currentColor"/>
<rect transform="translate(85.9574, 7.6682)" x="0.0000" y="-1.5874" width="0.1900" height="3.1748" ry="0.0000" fill="currentColor"/>
<line transform="translate(7.9668, 29.2995)" stroke-linejoin="round" stroke-linecap="round" stroke-width="0.1000" stroke="currentColor" x1="0.0500" y1="-0.0000" x2="114.6980" y2="-0.0000"/>
<line transform="translate(7.9668, 28.2995)" stroke-linejoin="round" stroke-linecap="round" stroke-width="0.1000" stroke="currentColor" x1="0.0500" y1="-0.0000" x2="114.6980" y2="-0.0000"/>
<line transform="translate(7.9668, 27.2995)" stroke-linejoin="round" stroke-linecap="round" stroke-width="0.1000" stroke="currentColor" x1="0.0500" y1="-0.0000" x2="114.6980" y2="-0.0000"/>
<line transform="translate(7.9668, 26.2995)" stroke-linejoin="round" stroke-linecap="round" stroke-width="0.1000" stroke="currentColor" x1="0.0500" y1="-0.0000" x2="114.6980" y2="-0.0000"/>
<line transform="translate(7.9668, 25.2995)" stroke-linejoin="round" stroke-linecap="round" stroke-width="0.1000" stroke="currentColor" x1="0.0500" y1="-0.0000" x2="114.6980" y2="-0.0000"/>
<rect transform="translate(32.8734, -0.0000)" x="0.0000" y="18.7182" width="0.1900" height="6.5813" ry="0.0000" fill="currentColor"/>
<rect transform="translate(32.8734, 27.2995)" x="0.0000" y="-2.0500" width="0.1900" height="4.0500" ry="0.0000" fill="currentColor"/>
<rect transform="translate(50.8493, 27.2995)" x="0.0000" y="-2.0500" width="0.1900" height="4.0500" ry="0.0000" fill="currentColor"/>
<rect transform="translate(50.8493, 7.6682)" x="0.0000" y="-1.5874" width="0.1900" height="3.1748" ry="0.0000" fill="currentColor"/>
<rect transform="translate(50.8493, -0.0000)" x="0.0000" y="18.7182" width="0.1900" height="6.5813" ry="0.0000" fill="currentColor"/>
<path transform="translate(38.5508, 26.7995) scale(0.0040, -0.0040)" d="M27 41l-1 -66v-11c0 -22 1 -44 4 -66c45 38 93 80 93 139c0 33 -14 67 -43 67c-31 0 -52 -30 -53 -63zM-15 -138l-12 595c8 5 18 8 27 8s19 -3 27 -8l-7 -345c25 21 58 34 91 34c52 0 89 -48 89 -102c0 -80 -86 -117 -147 -169c-15 -13 -24 -38 -45 -38
c-13 0 -23 11 -23 25z" fill="currentColor"/>
<path transform="translate(37.9008, 19.6682) scale(0.0040, -0.0040)" d="M220 138c56 0 109 -29 109 -91c0 -72 -56 -121 -103 -149c-36 -21 -76 -36 -117 -36c-56 0 -109 29 -109 91c0 72 56 121 103 149c36 21 76 36 117 36z" fill="currentColor"/>
<path transform="translate(37.9008, 18.1682) scale(0.0040, -0.0040)" d="M220 138c56 0 109 -29 109 -91c0 -72 -56 -121 -103 -149c-36 -21 -76 -36 -117 -36c-56 0 -109 29 -109 91c0 72 56 121 103 149c36 21 76 36 117 36z" fill="currentColor"/>
<path transform="translate(40.5669, 19.1682) scale(0.0040, -0.0040)" d="M0 0c0 31 25 56 56 56s56 -25 56 -56s-25 -56 -56 -56s-56 25 -56 56z" fill="currentColor"/>
<path transform="translate(39.6669, 19.1682) scale(0.0040, -0.0040)" d="M0 0c0 31 25 56 56 56s56 -25 56 -56s-25 -56 -56 -56s-56 25 -56 56z" fill="currentColor"/>
<rect transform="translate(39.7658, 27.2995)" x="-0.0650" y="-0.3122" width="0.1300" height="3.8122" ry="0.0400" fill="currentColor"/>
<rect transform="translate(39.1519, 16.6682)" x="-0.0650" y="-2.0000" width="0.1300" height="4.8122" ry="0.0400" fill="currentColor"/>
<path transform="translate(40.3588, 25.7995) scale(0.0040, -0.0040)" d="M-50 0c0 28 22 50 50 50s50 -22 50 -50s-22 -50 -50 -50s-50 22 -50 50z" fill="currentColor"/>
<path transform="translate(39.7008, 26.7995) scale(0.0040, -0.0040)" d="M220 138c56 0 109 -29 109 -91c0 -72 -56 -121 -103 -149c-36 -21 -76 -36 -117 -36c-56 0 -109 29 -109 91c0 72 56 121 103 149c36 21 76 36 117 36z" fill="currentColor"/>
<path transform="translate(40.5669, 18.1682) scale(0.0040, -0.0040)" d="M0 0c0 31 25 56 56 56s56 -25 56 -56s-25 -56 -56 -56s-56 25 -56 56z" fill="currentColor"/>
<path transform="translate(39.6669, 18.1682) scale(0.0040, -0.0040)" d="M0 0c0 31 25 56 56 56s56 -25 56 -56s-25 -56 -56 -56s-56 25 -56 56z" fill="currentColor"/>
<path transform="translate(52.8093, 19.6682) scale(0.0040, -0.0040)" d="M315 65c0 24 -21 41 -42 41c-4 0 -8 0 -12 -1c-31 -9 -77 -40 -114 -64s-84 -53 -104 -78c-7 -8 -11 -18 -11 -28c0 -24 21 -41 42 -41c4 0 8 0 12 1c31 9 78 40 115 64s84 53 104 78c7 8 10 18 10 28zM264 137c47 0 83 -21 83 -72c0 -19 -4 -37 -10 -56
c-12 -38 -32 -74 -65 -96c-54 -36 -113 -51 -188 -51c-47 0 -84 22 -84 73c0 19 5 37 11 56c12 38 31 74 64 96c54 36 114 50 189 50z" fill="currentColor"/>
<path transform="translate(52.8093, 18.1682) scale(0.0040, -0.0040)" d="M315 65c0 24 -21 41 -42 41c-4 0 -8 0 -12 -1c-31 -9 -77 -40 -114 -64s-84 -53 -104 -78c-7 -8 -11 -18 -11 -28c0 -24 21 -41 42 -41c4 0 8 0 12 1c31 9 78 40 115 64s84 53 104 78c7 8 10 18 10 28zM264 137c47 0 83 -21 83 -72c0 -19 -4 -37 -10 -56
c-12 -38 -32 -74 -65 -96c-54 -36 -113 -51 -188 -51c-47 0 -84 22 -84 73c0 19 5 37 11 56c12 38 31 74 64 96c54 36 114 50 189 50z" fill="currentColor"/>
<path transform="translate(52.8093, 26.7995) scale(0.0040, -0.0040)" d="M220 138c56 0 109 -29 109 -91c0 -72 -56 -121 -103 -149c-36 -21 -76 -36 -117 -36c-56 0 -109 29 -109 91c0 72 56 121 103 149c36 21 76 36 117 36z" fill="currentColor"/>
<path transform="translate(53.4674, 25.7995) scale(0.0040, -0.0040)" d="M-50 0c0 28 22 50 50 50s50 -22 50 -50s-22 -50 -50 -50s-50 22 -50 50z" fill="currentColor"/>
<rect transform="translate(52.8743, 7.6682)" x="-0.0650" y="-3.4342" width="0.1300" height="4.0874" ry="0.0400" fill="currentColor"/>
<rect transform="translate(54.1343, 16.6682)" x="-0.0650" y="-2.0000" width="0.1300" height="4.7386" ry="0.0400" fill="currentColor"/>
<path transform="translate(43.4169, 28.2995) scale(0.0040, -0.0040)" d="M220 138c56 0 109 -29 109 -91c0 -72 -56 -121 -103 -149c-36 -21 -76 -36 -117 -36c-56 0 -109 29 -109 91c0 72 56 121 103 149c36 21 76 36 117 36z" fill="currentColor"/>
<path transform="translate(44.0750, 26.7995) scale(0.0040, -0.0040)" d="M-50 0c0 28 22 50 50 50s50 -22 50 -50s-22 -50 -50 -50s-50 22 -50 50z" fill="currentColor"/>
<rect transform="translate(43.4819, 27.2995)" x="-0.0650" y="1.1878" width="0.1300" height="2.3122" ry="0.0400" fill="currentColor"/>
<path transform="translate(42.2669, 28.2995) scale(0.0040, -0.0040)" d="M27 41l-1 -66v-11c0 -22 1 -44 4 -66c45 38 93 80 93 139c0 33 -14 67 -43 67c-31 0 -52 -30 -53 -63zM-15 -138l-12 595c8 5 18 8 27 8s19 -3 27 -8l-7 -345c25 21 58 34 91 34c52 0 89 -48 89 -102c0 -80 -86 -117 -147 -169c-15 -13 -24 -38 -45 -38
c-13 0 -23 11 -23 25z" fill="currentColor"/>
<path transform="translate(47.3831, 26.2995) scale(0.0040, -0.0040)" d="M220 138c56 0 109 -29 109 -91c0 -72 -56 -121 -103 -149c-36 -21 -76 -36 -117 -36c-56 0 -109 29 -109 91c0 72 56 121 103 149c36 21 76 36 117 36z" fill="currentColor"/>
<path transform="translate(47.3831, 24.7995) scale(0.0040, -0.0040)" d="M220 138c56 0 109 -29 109 -91c0 -72 -56 -121 -103 -149c-36 -21 -76 -36 -117 -36c-56 0 -109 29 -109 91c0 72 56 121 103 149c36 21 76 36 117 36z" fill="currentColor"/>
<path transform="translate(48.0412, 23.8495) scale(0.0040, -0.0040)" d="M-50 0c0 28 22 50 50 50s50 -22 50 -50s-22 -50 -50 -50s-50 22 -50 50z" fill="currentColor"/>
<rect transform="translate(47.4481, 27.2995)" x="-0.0650" y="-2.3122" width="0.1300" height="5.8122" ry="0.0400" fill="currentColor"/>
<path transform="translate(52.8093, 4.0965) scale(0.0032, -0.0032)" d="M214 140c59 0 115 -32 115 -97c0 -72 -54 -121 -101 -149c-35 -21 -74 -34 -114 -34c-59 0 -114 32 -114 97c0 72 54 121 101 149c35 21 73 34 113 34z" fill="currentColor"/>
<path transform="translate(26.4412, 21.6595) scale(0.0040, -0.0040)" d="M-50 0c0 28 22 50 50 50s50 -22 50 -50s-22 -50 -50 -50s-50 22 -50 50z" fill="currentColor"/>
<rect transform="translate(26.7378, 16.6682)" x="-0.0650" y="-1.5000" width="0.1300" height="3.8122" ry="0.0400" fill="currentColor"/>
<path transform="translate(23.2766, 19.1682) scale(0.0040, -0.0040)" d="M27 41l-1 -66v-11c0 -22 1 -44 4 -66c45 38 93 80 93 139c0 33 -14 67 -43 67c-31 0 -52 -30 -53 -63zM-15 -138l-12 595c8 5 18 8 27 8s19 -3 27 -8l-7 -345c25 21 58 34 91 34c52 0 89 -48 89 -102c0 -80 -86 -117 -147 -169c-15 -13 -24 -38 -45 -38
c-13 0 -23 11 -23 25z" fill="currentColor"/>
<path transform="translate(24.3366, 18.6682) scale(0.0040, -0.0040)" d="M27 41l-1 -66v-11c0 -22 1 -44 4 -66c45 38 93 80 93 139c0 33 -14 67 -43 67c-31 0 -52 -30 -53 -63zM-15 -138l-12 595c8 5 18 8 27 8s19 -3 27 -8l-7 -345c25 21 58 34 91 34c52 0 89 -48 89 -102c0 -80 -86 -117 -147 -169c-15 -13 -24 -38 -45 -38
c-13 0 -23 11 -23 25z" fill="currentColor"/>
<rect transform="translate(26.7378, 27.2995)" x="-0.0650" y="-5.0000" width="0.1300" height="4.3122" ry="0.0400" fill="currentColor"/>
<path transform="translate(24.3366, 26.7995) scale(0.0040, -0.0040)" d="M27 41l-1 -66v-11c0 -22 1 -44 4 -66c45 38 93 80 93 139c0 33 -14 67 -43 67c-31 0 -52 -30 -53 -63zM-15 -138l-12 595c8 5 18 8 27 8s19 -3 27 -8l-7 -345c25 21 58 34 91 34c52 0 89 -48 89 -102c0 -80 -86 -117 -147 -169c-15 -13 -24 -38 -45 -38
c-13 0 -23 11 -23 25z" fill="currentColor"/>
<path transform="translate(28.9528, 28.2995) scale(0.0040, -0.0040)" d="M220 138c56 0 109 -29 109 -91c0 -72 -56 -121 -103 -149c-36 -21 -76 -36 -117 -36c-56 0 -109 29 -109 91c0 72 56 121 103 149c36 21 76 36 117 36z" fill="currentColor"/>
<path transform="translate(29.9074, 21.6595) scale(0.0040, -0.0040)" d="M-50 0c0 28 22 50 50 50s50 -22 50 -50s-22 -50 -50 -50s-50 22 -50 50z" fill="currentColor"/>
<rect transform="translate(30.2039, 27.2995)" x="-0.0650" y="-5.0000" width="0.1300" height="5.8122" ry="0.0400" fill="currentColor"/>
<path transform="translate(16.9042, 28.2995) scale(0.0040, -0.0040)" d="M27 41l-1 -66v-11c0 -22 1 -44 4 -66c45 38 93 80 93 139c0 33 -14 67 -43 67c-31 0 -52 -30 -53 -63zM-15 -138l-12 595c8 5 18 8 27 8s19 -3 27 -8l-7 -345c25 21 58 34 91 34c52 0 89 -48 89 -102c0 -80 -86 -117 -147 -169c-15 -13 -24 -38 -45 -38
c-13 0 -23 11 -23 25z" fill="currentColor"/>
<path transform="translate(16.9042, 28.2995) scale(0.0040, -0.0040)" d="M27 41l-1 -66v-11c0 -22 1 -44 4 -66c45 38 93 80 93 139c0 33 -14 67 -43 67c-31 0 -52 -30 -53 -63zM-15 -138l-12 595c8 5 18 8 27 8s19 -3 27 -8l-7 -345c25 21 58 34 91 34c52 0 89 -48 89 -102c0 -80 -86 -117 -147 -169c-15 -13 -24 -38 -45 -38
c-13 0 -23 11 -23 25z" fill="currentColor"/>
<path transform="translate(21.7704, 26.2995) scale(0.0040, -0.0040)" d="M220 138c56 0 109 -29 109 -91c0 -72 -56 -121 -103 -149c-36 -21 -76 -36 -117 -36c-56 0 -109 29 -109 91c0 72 56 121 103 149c36 21 76 36 117 36z" fill="currentColor"/>
<path transform="translate(21.7704, 24.7995) scale(0.0040, -0.0040)" d="M220 138c56 0 109 -29 109 -91c0 -72 -56 -121 -103 -149c-36 -21 -76 -36 -117 -36c-56 0 -109 29 -109 91c0 72 56 121 103 149c36 21 76 36 117 36z" fill="currentColor"/>
<path transform="translate(22.7250, 21.6595) scale(0.0040, -0.0040)" d="M-50 0c0 28 22 50 50 50s50 -22 50 -50s-22 -50 -50 -50s-50 22 -50 50z" fill="currentColor"/>
<rect transform="translate(23.0216, 27.2995)" x="-0.0650" y="-5.0000" width="0.1300" height="3.8122" ry="0.0400" fill="currentColor"/>
<path transform="translate(20.6204, 24.7995) scale(0.0040, -0.0040)" d="M27 41l-1 -66v-11c0 -22 1 -44 4 -66c45 38 93 80 93 139c0 33 -14 67 -43 67c-31 0 -52 -30 -53 -63zM-15 -138l-12 595c8 5 18 8 27 8s19 -3 27 -8l-7 -345c25 21 58 34 91 34c52 0 89 -48 89 -102c0 -80 -86 -117 -147 -169c-15 -13 -24 -38 -45 -38
c-13 0 -23 11 -23 25z" fill="currentColor"/>
<path transform="translate(25.4866, 19.1682) scale(0.0040, -0.0040)" d="M220 138c56 0 109 -29 109 -91c0 -72 -56 -121 -103 -149c-36 -21 -76 -36 -117 -36c-56 0 -109 29 -109 91c0 72 56 121 103 149c36 21 76 36 117 36z" fill="currentColor"/>
<path transform="translate(26.7378, 18.6682) scale(0.0040, -0.0040)" d="M220 138c56 0 109 -29 109 -91c0 -72 -56 -121 -103 -149c-36 -21 -76 -36 -117 -36c-56 0 -109 29 -109 91c0 72 56 121 103 149c36 21 76 36 117 36z" fill="currentColor"/>
<path transform="translate(25.4866, 26.7995) scale(0.0040, -0.0040)" d="M220 138c56 0 109 -29 109 -91c0 -72 -56 -121 -103 -149c-36 -21 -76 -36 -117 -36c-56 0 -109 29 -109 91c0 72 56 121 103 149c36 21 76 36 117 36z" fill="currentColor"/>
<path transform="translate(36.1496, 15.2082) scale(0.0040, -0.0040)" d="M0 0c0 -178 203 -292 203 -470c0 -33 -9 -65 -23 -95c18 -37 29 -75 29 -117c0 -63 -16 -125 -42 -183c-5 -8 -12 -12 -19 -12c-13 0 -26 11 -23 27c26 52 42 110 42 168c0 97 -95 191 -167 257v-75h-16v500h16zM153 -517c5 15 7 31 7 47c0 96 -91 190 -160 257
c0 -118 91 -206 153 -304z" fill="currentColor"/>
<path transform="translate(36.1496, 15.2082) scale(0.0040, -0.0040)" d="M0 0c0 -178 203 -292 203 -470c0 -33 -9 -65 -23 -95c18 -37 29 -75 29 -117c0 -63 -16 -125 -42 -183c-5 -8 -12 -12 -19 -12c-13 0 -26 11 -23 27c26 52 42 110 42 168c0 97 -95 191 -167 257v-75h-16v500h16zM153 -517c5 15 7 31 7 47c0 96 -91 190 -160 257
c0 -118 91 -206 153 -304z" fill="currentColor"/>
<rect transform="translate(34.8984, 27.2995)" x="-0.0650" y="-2.3122" width="0.1300" height="5.8122" ry="0.0400" fill="currentColor"/>
<path transform="translate(33.6834, 24.7995) scale(0.0040, -0.0040)" d="M27 41l-1 -66v-11c0 -22 1 -44 4 -66c45 38 93 80 93 139c0 33 -14 67 -43 67c-31 0 -52 -30 -53 -63zM-15 -138l-12 595c8 5 18 8 27 8s19 -3 27 -8l-7 -345c25 21 58 34 91 34c52 0 89 -48 89 -102c0 -80 -86 -117 -147 -169c-15 -13 -24 -38 -45 -38
c-13 0 -23 11 -23 25z" fill="currentColor"/>
<path transform="translate(34.8334, 4.0965) scale(0.0032, -0.0032)" d="M312 63c0 23 -20 40 -41 40c-4 0 -7 -1 -11 -2c-30 -8 -75 -38 -111 -61s-81 -52 -101 -76c-7 -8 -10 -17 -10 -27c0 -23 19 -40 40 -40c4 0 8 1 12 2c30 8 75 38 111 61s81 52 101 76c7 8 10 17 10 27zM258 140c51 0 92 -23 92 -78c0 -19 -4 -38 -10 -56
c-11 -38 -31 -75 -64 -97c-53 -36 -112 -49 -185 -49c-51 0 -91 23 -91 78c0 19 4 38 10 56c11 38 30 75 63 97c53 36 112 49 185 49z" fill="currentColor"/>
<path transform="translate(34.8334, 19.1682) scale(0.0040, -0.0040)" d="M220 138c56 0 109 -29 109 -91c0 -72 -56 -121 -103 -149c-36 -21 -76 -36 -117 -36c-56 0 -109 29 -109 91c0 72 56 121 103 149c36 21 76 36 117 36z" fill="currentColor"/>
<path transform="translate(36.0846, 18.6682) scale(0.0040, -0.0040)" d="M220 138c56 0 109 -29 109 -91c0 -72 -56 -121 -103 -149c-36 -21 -76 -36 -117 -36c-56 0 -109 29 -109 91c0 72 56 121 103 149c36 21 76 36 117 36z" fill="currentColor"/>
<path transform="translate(34.8334, 26.2995) scale(0.0040, -0.0040)" d="M220 138c56 0 109 -29 109 -91c0 -72 -56 -121 -103 -149c-36 -21 -76 -36 -117 -36c-56 0 -109 29 -109 91c0 72 56 121 103 149c36 21 76 36 117 36z" fill="currentColor"/>
<path transform="translate(34.8334, 24.7995) scale(0.0040, -0.0040)" d="M220 138c56 0 109 -29 109 -91c0 -72 -56 -121 -103 -149c-36 -21 -76 -36 -117 -36c-56 0 -109 29 -109 91c0 72 56 121 103 149c36 21 76 36 117 36z" fill="currentColor"/>
<path transform="translate(35.4915, 23.8495) scale(0.0040, -0.0040)" d="M-50 0c0 28 22 50 50 50s50 -22 50 -50s-22 -50 -50 -50s-50 22 -50 50z" fill="currentColor"/>
<rect transform="translate(34.8984, 7.6682)" x="-0.0650" y="-3.3747" width="0.1300" height="3.3747" ry="0.0400" fill="currentColor"/>
<rect transform="translate(36.0846, 16.6682)" x="-0.0650" y="-1.5000" width="0.1300" height="3.8122" ry="0.0400" fill="currentColor"/>
<path transform="translate(70.2507, 28.2995) scale(0.0040, -0.0040)" d="M27 41l-1 -66v-11c0 -22 1 -44 4 -66c45 38 93 80 93 139c0 33 -14 67 -43 67c-31 0 -52 -30 -53 -63zM-15 -138l-12 595c8 5 18 8 27 8s19 -3 27 -8l-7 -345c25 21 58 34 91 34c52 0 89 -48 89 -102c0 -80 -86 -117 -147 -169c-15 -13 -24 -38 -45 -38
c-13 0 -23 11 -23 25z" fill="currentColor"/>
<polygon transform="translate(105.8933, 30.7995)" stroke-linejoin="round" stroke-linecap="round" stroke-width="0.0800" fill="currentColor" stroke="currentColor" points="12.6614 -0.2000 12.6614 0.2000 0.0400 0.2000 0.0400 -0.2000"/>
<polygon transform="translate(114.0243, 9.3960)" stroke-linejoin="round" stroke-linecap="round" stroke-width="0.0800" fill="currentColor" stroke="currentColor" points="5.9795 0.3622 5.9795 0.6632 0.0400 0.1505 0.0400 -0.1505"/>
<polygon transform="translate(105.8933, 8.3214)" stroke-linejoin="round" stroke-linecap="round" stroke-width="0.0800" fill="currentColor" stroke="currentColor" points="5.4795 -0.1505 5.4795 0.1505 0.0400 0.1505 0.0400 -0.1505"/>
<text transform="translate(116.7609, 11.1361)" font-family="Lyon Text" font-style="italic" font-size="1.3860" text-anchor="start" fill="currentColor">
<tspan>
3</tspan>
</text>
<path transform="translate(108.3848, 7.6682)" stroke-width="0.0800" stroke-linejoin="round" stroke-linecap="round" stroke="currentColor" fill="currentColor" d="M0.565647522052103 -2.4275753193994C2.49599061206636 -3.97746279735615 10.6144206095414 -2.94349101672644 12.0946507480279 -0.959229346328814C10.5992597496599 -2.82445258458095 2.48082975218494 -3.85842436521066 0.565647522052103 -2.4275753193994z"/>
<path transform="translate(71.4007, 16.6682) scale(0.0040, -0.0040)" d="M-23 -116c0 28 11 42 40 42c33 0 78 -13 119 -31l-132 158c-7 9 -10 17 -10 25c0 34 50 66 87 99c25 22 37 52 37 83c0 24 -8 49 -25 69l-35 42c-3 3 -4 7 -4 10c0 9 9 15 17 15c4 0 8 -1 11 -5l151 -180c7 -9 10 -17 10 -25c0 -34 -50 -66 -87 -99
c-25 -22 -37 -52 -37 -83c0 -24 7 -49 24 -69l84 -99c3 -3 4 -7 4 -10c0 -9 -8 -16 -16 -16c-4 0 -9 2 -12 6c-18 21 -63 38 -97 38c-41 0 -53 -26 -53 -67c0 -35 11 -74 28 -94c5 -6 0 -13 -6 -13c-2 0 -4 0 -6 2c-45 54 -92 148 -92 202z" fill="currentColor"/>
<path transform="translate(71.4007, 28.2995) scale(0.0040, -0.0040)" d="M220 138c56 0 109 -29 109 -91c0 -72 -56 -121 -103 -149c-36 -21 -76 -36 -117 -36c-56 0 -109 29 -109 91c0 72 56 121 103 149c36 21 76 36 117 36z" fill="currentColor"/>
<path transform="translate(72.0588, 26.7995) scale(0.0040, -0.0040)" d="M-50 0c0 28 22 50 50 50s50 -22 50 -50s-22 -50 -50 -50s-50 22 -50 50z" fill="currentColor"/>
<rect transform="translate(71.4657, 7.6682)" x="-0.0650" y="-3.3747" width="0.1300" height="3.3747" ry="0.0400" fill="currentColor"/>
<path transform="translate(70.4158, 4.0965) scale(0.0032, -0.0032)" d="M31 37l-2 -62v-11c0 -22 2 -43 5 -64c43 38 89 80 89 137c0 32 -14 65 -42 65c-31 0 -49 -32 -50 -65zM-16 -140l-14 590c9 5 20 8 30 8s21 -3 30 -8l-8 -340c25 24 59 38 94 38c50 0 84 -50 84 -104c0 -78 -83 -117 -141 -169c-17 -15 -25 -44 -49 -44
c-15 0 -26 13 -26 29z" fill="currentColor"/>
<rect transform="translate(71.4657, 27.2995)" x="-0.0650" y="1.1878" width="0.1300" height="2.3122" ry="0.0400" fill="currentColor"/>
<polygon transform="translate(34.8334, 30.7995)" stroke-linejoin="round" stroke-linecap="round" stroke-width="0.0800" fill="currentColor" stroke="currentColor" points="12.6397 -0.2000 12.6397 0.2000 0.0400 0.2000 0.0400 -0.2000"/>
<text transform="translate(55.2959, 9.7996)" font-family="Lyon Text" font-style="italic" font-size="1.3860" text-anchor="start" fill="currentColor">
<tspan>
3</tspan>
</text>
<path transform="translate(37.9008, 16.6682)" stroke-width="0.0800" stroke-linejoin="round" stroke-linecap="round" stroke="currentColor" fill="currentColor" d="M1.651178 0.386554196946077C3.0296975714712 -0.585510264138498 14.0250164285288 -0.585510264138498 15.403536 0.386554196946077C14.0250164285288 -0.465510264138498 3.0296975714712 -0.465510264138498 1.651178 0.386554196946077z"/>
<path transform="translate(37.9008, 16.6682)" stroke-width="0.0800" stroke-linejoin="round" stroke-linecap="round" stroke="currentColor" fill="currentColor" d="M0.858089000000007 4.0C2.2603674854913 4.97680319373181 14.0012575145087 4.97680319373181 15.403536 4.0C14.0012575145087 4.85680319373181 2.2603674854913 4.85680319373181 0.858089000000007 4.0z"/>
<path transform="translate(34.8334, 7.6682)" stroke-width="0.0800" stroke-linejoin="round" stroke-linecap="round" stroke="currentColor" fill="currentColor" d="M0.755005220353077 -4.36535289291255C2.23273724239677 -5.35624756370362 16.8198737853156 -5.35624756370362 18.2976058073593 -4.36535289291255C16.8198737853156 -5.23624756370362 2.23273724239677 -5.23624756370362 0.755005220353077 -4.36535289291255z"/>
<polygon transform="translate(19.2404, 22.2995)" stroke-linejoin="round" stroke-linecap="round" stroke-width="0.0800" fill="currentColor" stroke="currentColor" points="10.9885 -0.2000 10.9885 0.2000 0.0400 0.2000 0.0400 -0.2000"/>
<path transform="translate(26.7378, 16.6682)" stroke-width="0.0800" stroke-linejoin="round" stroke-linecap="round" stroke="currentColor" fill="currentColor" d="M0.858089 1.25C1.99027151937252 0.337753848570105 7.81462533777033 0.337753848570105 8.94680785714286 1.25C7.81462533777033 0.457753848570105 1.99027151937252 0.457753848570105 0.858089 1.25z"/>
<path transform="translate(25.4866, 16.6682)" stroke-width="0.0800" stroke-linejoin="round" stroke-linecap="round" stroke="currentColor" fill="currentColor" d="M1.516178 3.0C2.61961724115676 3.9037187706774 8.0433686159861 3.9037187706774 9.14680785714285 3.0C8.0433686159861 3.7837187706774 2.61961724115676 3.7837187706774 1.516178 3.0z"/>
<path transform="translate(25.4866, 16.6682)" stroke-width="0.0800" stroke-linejoin="round" stroke-linecap="round" stroke="currentColor" fill="currentColor" d="M1.616178 -1.700006C4.32250575878009 -3.55542504634411 25.5285997227252 -3.83375662456023 28.2826918571429 -2.050006C25.5301745961066 -3.71376695928096 4.32408063216147 -3.43543538106483 1.616178 -1.700006z"/>
<path transform="translate(18.0542, 7.6682)" stroke-width="0.0800" stroke-linejoin="round" stroke-linecap="round" stroke="currentColor" fill="currentColor" d="M0.755005220353077 -4.36535289291255C2.20582633673922 -5.35138152848187 15.6833479611098 -5.35138152848187 17.1341690774959 -4.36535289291255C15.6833479611098 -5.23138152848187 2.20582633673922 -5.23138152848187 0.755005220353077 -4.36535289291255z"/>
<path transform="translate(18.0542, 7.6682)" stroke-width="0.1000" stroke-linejoin="round" stroke-linecap="round" stroke="currentColor" fill="currentColor" d="M0.555005220353078 -4.8086768973517C3.40981982780034 -6.41616446058344 85.5060008920497 -6.41616446058344 88.360815499497 -4.8086768973517C85.5060008920497 -6.30616446058344 3.40981982780034 -6.30616446058344 0.555005220353078 -4.8086768973517z"/>
<path transform="translate(15.2642, 7.6682)" stroke-width="0.0800" stroke-linejoin="round" stroke-linecap="round" stroke="currentColor" fill="currentColor" d="M0.533470810968375 -0.748388706878293C1.50217544893847 -0.776552742615117 2.47490800462044 -1.76248190899078 2.49001665504682 -2.73147809949725C2.38948542837642 -1.84676110848766 1.41675287269446 -0.860831942112004 0.533470810968375 -0.748388706878293z"/>
<polygon transform="translate(87.9174, 30.7995)" stroke-linejoin="round" stroke-linecap="round" stroke-width="0.0800" fill="currentColor" stroke="currentColor" points="12.6397 -0.2000 12.6397 0.2000 0.0400 0.2000 0.0400 -0.2000"/>
<text transform="translate(108.3799, 9.7996)" font-family="Lyon Text" font-style="italic" font-size="1.3860" text-anchor="start" fill="currentColor">
<tspan>
3</tspan>
</text>
<path transform="translate(90.9848, 16.6682)" stroke-width="0.0800" stroke-linejoin="round" stroke-linecap="round" stroke="currentColor" fill="currentColor" d="M1.65117799999999 0.386554196946077C3.02969757147119 -0.585510264138498 14.0250164285288 -0.585510264138498 15.403536 0.386554196946077C14.0250164285288 -0.465510264138498 3.02969757147119 -0.465510264138498 1.65117799999999 0.386554196946077z"/>
<path transform="translate(90.9848, 16.6682)" stroke-width="0.0800" stroke-linejoin="round" stroke-linecap="round" stroke="currentColor" fill="currentColor" d="M0.858088999999993 4.0C2.26036748549129 4.97680319373181 14.0012575145087 4.97680319373181 15.403536 4.0C14.0012575145087 4.85680319373181 2.26036748549129 4.85680319373181 0.858088999999993 4.0z"/>
<path transform="translate(87.9174, 7.6682)" stroke-width="0.0800" stroke-linejoin="round" stroke-linecap="round" stroke="currentColor" fill="currentColor" d="M0.755005220353084 -4.36535289291255C2.23273724239678 -5.35624756370362 16.8198737853156 -5.35624756370362 18.2976058073593 -4.36535289291255C16.8198737853156 -5.23624756370362 2.23273724239678 -5.23624756370362 0.755005220353084 -4.36535289291255z"/>
<polygon transform="translate(71.4007, 30.7995)" stroke-linejoin="round" stroke-linecap="round" stroke-width="0.0800" fill="currentColor" stroke="currentColor" points="10.9885 -0.2000 10.9885 0.2000 0.0400 0.2000 0.0400 -0.2000"/>
<path transform="translate(80.0843, 16.6682)" stroke-width="0.0800" stroke-linejoin="round" stroke-linecap="round" stroke="currentColor" fill="currentColor" d="M0.858089000000007 1.25C1.97403318495279 0.342524217472987 7.56840852933293 0.342524217472987 8.68435271428572 1.25C7.56840852933293 0.462524217472987 1.97403318495279 0.462524217472987 0.858089000000007 1.25z"/>
<path transform="translate(78.8331, 16.6682)" stroke-width="0.0800" stroke-linejoin="round" stroke-linecap="round" stroke="currentColor" fill="currentColor" d="M1.516178 3.0C2.60227467393624 3.89838433235725 7.79825604034947 3.89838433235725 8.88435271428571 3.0C7.79825604034947 3.77838433235725 2.60227467393624 3.77838433235725 1.516178 3.0z"/>
<path transform="translate(78.8331, 16.6682)" stroke-width="0.0800" stroke-linejoin="round" stroke-linecap="round" stroke="currentColor" fill="currentColor" d="M1.61617799999999 -1.700006C4.313709858584 -3.55333380833364 25.2745275698126 -3.83118072112515 28.0202367142857 -2.050006C25.2761180946272 -3.71119126229307 4.3153003833986 -3.43334434950156 1.61617799999999 -1.700006z"/>
<path transform="translate(71.4007, 7.6682)" stroke-width="0.0800" stroke-linejoin="round" stroke-linecap="round" stroke="currentColor" fill="currentColor" d="M0.755005220353084 -4.36535289291255C2.19936773102822 -5.3501880054718 15.4273514239637 -5.3501880054718 16.8717139346388 -4.36535289291255C15.4273514239637 -5.2301880054718 2.19936773102822 -5.2301880054718 0.755005220353084 -4.36535289291255z"/>
<polygon transform="translate(52.8093, 30.7995)" stroke-linejoin="round" stroke-linecap="round" stroke-width="0.0800" fill="currentColor" stroke="currentColor" points="12.6614 -0.2000 12.6614 0.2000 0.0400 0.2000 0.0400 -0.2000"/>
<polygon transform="translate(60.9403, 9.3960)" stroke-linejoin="round" stroke-linecap="round" stroke-width="0.0800" fill="currentColor" stroke="currentColor" points="5.9795 0.3622 5.9795 0.6632 0.0400 0.1505 0.0400 -0.1505"/>
<polygon transform="translate(52.8093, 8.3214)" stroke-linejoin="round" stroke-linecap="round" stroke-width="0.0800" fill="currentColor" stroke="currentColor" points="5.4795 -0.1505 5.4795 0.1505 0.0400 0.1505 0.0400 -0.1505"/>
<text transform="translate(63.6769, 11.1361)" font-family="Lyon Text" font-style="italic" font-size="1.3860" text-anchor="start" fill="currentColor">
<tspan>
3</tspan>
</text>
<path transform="translate(56.7498, 28.2995) scale(0.0040, -0.0040)" d="M220 138c56 0 109 -29 109 -91c0 -72 -56 -121 -103 -149c-36 -21 -76 -36 -117 -36c-56 0 -109 29 -109 91c0 72 56 121 103 149c36 21 76 36 117 36z" fill="currentColor"/>
<path transform="translate(57.4079, 26.7995) scale(0.0040, -0.0040)" d="M-50 0c0 28 22 50 50 50s50 -22 50 -50s-22 -50 -50 -50s-50 22 -50 50z" fill="currentColor"/>
<rect transform="translate(56.8148, 27.2995)" x="-0.0650" y="1.1878" width="0.1300" height="2.3122" ry="0.0400" fill="currentColor"/>
<path transform="translate(55.5998, 28.2995) scale(0.0040, -0.0040)" d="M27 41l-1 -66v-11c0 -22 1 -44 4 -66c45 38 93 80 93 139c0 33 -14 67 -43 67c-31 0 -52 -30 -53 -63zM-15 -138l-12 595c8 5 18 8 27 8s19 -3 27 -8l-7 -345c25 21 58 34 91 34c52 0 89 -48 89 -102c0 -80 -86 -117 -147 -169c-15 -13 -24 -38 -45 -38
c-13 0 -23 11 -23 25z" fill="currentColor"/>
<path transform="translate(58.1988, 5.2871) scale(0.0032, -0.0032)" d="M214 140c59 0 115 -32 115 -97c0 -72 -54 -121 -101 -149c-35 -21 -74 -34 -114 -34c-59 0 -114 32 -114 97c0 72 54 121 101 149c35 21 73 34 113 34z" fill="currentColor"/>
<rect transform="translate(58.2638, 7.6682)" x="-0.0650" y="-2.2437" width="0.1300" height="2.8969" ry="0.0400" fill="currentColor"/>
<path transform="translate(60.9403, 6.8745) scale(0.0032, -0.0032)" d="M214 140c59 0 115 -32 115 -97c0 -72 -54 -121 -101 -149c-35 -21 -74 -34 -114 -34c-59 0 -114 32 -114 97c0 72 54 121 101 149c35 21 73 34 113 34z" fill="currentColor"/>
<path transform="translate(60.9403, 26.2995) scale(0.0040, -0.0040)" d="M220 138c56 0 109 -29 109 -91c0 -72 -56 -121 -103 -149c-36 -21 -76 -36 -117 -36c-56 0 -109 29 -109 91c0 72 56 121 103 149c36 21 76 36 117 36z" fill="currentColor"/>
<rect transform="translate(52.8743, 27.2995)" x="-0.0650" y="-0.3122" width="0.1300" height="3.8122" ry="0.0400" fill="currentColor"/>
<path transform="translate(51.6593, 26.7995) scale(0.0040, -0.0040)" d="M27 41l-1 -66v-11c0 -22 1 -44 4 -66c45 38 93 80 93 139c0 33 -14 67 -43 67c-31 0 -52 -30 -53 -63zM-15 -138l-12 595c8 5 18 8 27 8s19 -3 27 -8l-7 -345c25 21 58 34 91 34c52 0 89 -48 89 -102c0 -80 -86 -117 -147 -169c-15 -13 -24 -38 -45 -38
c-13 0 -23 11 -23 25z" fill="currentColor"/>
<path transform="translate(55.3008, 6.0808) scale(0.0032, -0.0032)" d="M214 140c59 0 115 -32 115 -97c0 -72 -54 -121 -101 -149c-35 -21 -74 -34 -114 -34c-59 0 -114 32 -114 97c0 72 54 121 101 149c35 21 73 34 113 34z" fill="currentColor"/>
<rect transform="translate(55.3658, 7.6682)" x="-0.0650" y="-1.4500" width="0.1300" height="2.1032" ry="0.0400" fill="currentColor"/>
<path transform="translate(65.3807, 26.7995) scale(0.0040, -0.0040)" d="M220 138c56 0 109 -29 109 -91c0 -72 -56 -121 -103 -149c-36 -21 -76 -36 -117 -36c-56 0 -109 29 -109 91c0 72 56 121 103 149c36 21 76 36 117 36z" fill="currentColor"/>
<path transform="translate(66.0388, 25.7995) scale(0.0040, -0.0040)" d="M-50 0c0 28 22 50 50 50s50 -22 50 -50s-22 -50 -50 -50s-50 22 -50 50z" fill="currentColor"/>
<rect transform="translate(65.4457, 27.2995)" x="-0.0650" y="-0.3122" width="0.1300" height="3.8122" ry="0.0400" fill="currentColor"/>
<path transform="translate(66.8298, 7.6682) scale(0.0032, -0.0032)" d="M214 140c59 0 115 -32 115 -97c0 -72 -54 -121 -101 -149c-35 -21 -74 -34 -114 -34c-59 0 -114 32 -114 97c0 72 54 121 101 149c35 21 73 34 113 34z" fill="currentColor"/>
<rect transform="translate(66.8948, 7.6682)" x="-0.0650" y="0.1374" width="0.1300" height="2.0976" ry="0.0400" fill="currentColor"/>
<path transform="translate(65.8448, 7.6682) scale(0.0032, -0.0032)" d="M31 37l-2 -62v-11c0 -22 2 -43 5 -64c43 38 89 80 89 137c0 32 -14 65 -42 65c-31 0 -49 -32 -50 -65zM-16 -140l-14 590c9 5 20 8 30 8s21 -3 30 -8l-8 -340c25 24 59 38 94 38c50 0 84 -50 84 -104c0 -78 -83 -117 -141 -169c-17 -15 -25 -44 -49 -44
c-15 0 -26 13 -26 29z" fill="currentColor"/>
<path transform="translate(71.4007, 4.0965) scale(0.0032, -0.0032)" d="M312 63c0 23 -20 40 -41 40c-4 0 -7 -1 -11 -2c-30 -8 -75 -38 -111 -61s-81 -52 -101 -76c-7 -8 -10 -17 -10 -27c0 -23 19 -40 40 -40c4 0 8 1 12 2c30 8 75 38 111 61s81 52 101 76c7 8 10 17 10 27zM258 140c51 0 92 -23 92 -78c0 -19 -4 -38 -10 -56
c-11 -38 -31 -75 -64 -97c-53 -36 -112 -49 -185 -49c-51 0 -91 23 -91 78c0 19 4 38 10 56c11 38 30 75 63 97c53 36 112 49 185 49z" fill="currentColor"/>
<path transform="translate(60.9403, 24.7995) scale(0.0040, -0.0040)" d="M220 138c56 0 109 -29 109 -91c0 -72 -56 -121 -103 -149c-36 -21 -76 -36 -117 -36c-56 0 -109 29 -109 91c0 72 56 121 103 149c36 21 76 36 117 36z" fill="currentColor"/>
<path transform="translate(61.5983, 23.8495) scale(0.0040, -0.0040)" d="M-50 0c0 28 22 50 50 50s50 -22 50 -50s-22 -50 -50 -50s-50 22 -50 50z" fill="currentColor"/>
<rect transform="translate(61.0053, 7.6682)" x="-0.0650" y="-0.6563" width="0.1300" height="2.3897" ry="0.0400" fill="currentColor"/>
<path transform="translate(59.9553, 6.8745) scale(0.0032, -0.0032)" d="M31 37l-2 -62v-11c0 -22 2 -43 5 -64c43 38 89 80 89 137c0 32 -14 65 -42 65c-31 0 -49 -32 -50 -65zM-16 -140l-14 590c9 5 20 8 30 8s21 -3 30 -8l-8 -340c25 24 59 38 94 38c50 0 84 -50 84 -104c0 -78 -83 -117 -141 -169c-17 -15 -25 -44 -49 -44
c-15 0 -26 13 -26 29z" fill="currentColor"/>
<rect transform="translate(61.0053, 27.2995)" x="-0.0650" y="-2.3122" width="0.1300" height="5.8122" ry="0.0400" fill="currentColor"/>
<path transform="translate(59.7903, 24.7995) scale(0.0040, -0.0040)" d="M27 41l-1 -66v-11c0 -22 1 -44 4 -66c45 38 93 80 93 139c0 33 -14 67 -43 67c-31 0 -52 -30 -53 -63zM-15 -138l-12 595c8 5 18 8 27 8s19 -3 27 -8l-7 -345c25 21 58 34 91 34c52 0 89 -48 89 -102c0 -80 -86 -117 -147 -169c-15 -13 -24 -38 -45 -38
c-13 0 -23 11 -23 25z" fill="currentColor"/>
<path transform="translate(63.9317, 6.0808) scale(0.0032, -0.0032)" d="M214 140c59 0 115 -32 115 -97c0 -72 -54 -121 -101 -149c-35 -21 -74 -34 -114 -34c-59 0 -114 32 -114 97c0 72 54 121 101 149c35 21 73 34 113 34z" fill="currentColor"/>
<rect transform="translate(63.9967, 7.6682)" x="-0.0650" y="-1.4500" width="0.1300" height="3.4382" ry="0.0400" fill="currentColor"/>
<rect transform="translate(87.9824, 27.2995)" x="-0.0650" y="-2.3122" width="0.1300" height="5.8122" ry="0.0400" fill="currentColor"/>
<path transform="translate(86.7674, 24.7995) scale(0.0040, -0.0040)" d="M27 41l-1 -66v-11c0 -22 1 -44 4 -66c45 38 93 80 93 139c0 33 -14 67 -43 67c-31 0 -52 -30 -53 -63zM-15 -138l-12 595c8 5 18 8 27 8s19 -3 27 -8l-7 -345c25 21 58 34 91 34c52 0 89 -48 89 -102c0 -80 -86 -117 -147 -169c-15 -13 -24 -38 -45 -38
c-13 0 -23 11 -23 25z" fill="currentColor"/>
<path transform="translate(90.9848, 19.6682) scale(0.0040, -0.0040)" d="M220 138c56 0 109 -29 109 -91c0 -72 -56 -121 -103 -149c-36 -21 -76 -36 -117 -36c-56 0 -109 29 -109 91c0 72 56 121 103 149c36 21 76 36 117 36z" fill="currentColor"/>
<path transform="translate(90.9848, 18.1682) scale(0.0040, -0.0040)" d="M220 138c56 0 109 -29 109 -91c0 -72 -56 -121 -103 -149c-36 -21 -76 -36 -117 -36c-56 0 -109 29 -109 91c0 72 56 121 103 149c36 21 76 36 117 36z" fill="currentColor"/>
<path transform="translate(93.6510, 19.1682) scale(0.0040, -0.0040)" d="M0 0c0 31 25 56 56 56s56 -25 56 -56s-25 -56 -56 -56s-56 25 -56 56z" fill="currentColor"/>
<path transform="translate(92.7510, 19.1682) scale(0.0040, -0.0040)" d="M0 0c0 31 25 56 56 56s56 -25 56 -56s-25 -56 -56 -56s-56 25 -56 56z" fill="currentColor"/>
<rect transform="translate(87.9824, 7.6682)" x="-0.0650" y="-3.3747" width="0.1300" height="3.3747" ry="0.0400" fill="currentColor"/>
<rect transform="translate(89.1686, 16.6682)" x="-0.0650" y="-1.5000" width="0.1300" height="3.8122" ry="0.0400" fill="currentColor"/>
<path transform="translate(89.2336, 15.2082) scale(0.0040, -0.0040)" d="M0 0c0 -178 203 -292 203 -470c0 -33 -9 -65 -23 -95c18 -37 29 -75 29 -117c0 -63 -16 -125 -42 -183c-5 -8 -12 -12 -19 -12c-13 0 -26 11 -23 27c26 52 42 110 42 168c0 97 -95 191 -167 257v-75h-16v500h16zM153 -517c5 15 7 31 7 47c0 96 -91 190 -160 257
c0 -118 91 -206 153 -304z" fill="currentColor"/>
<path transform="translate(89.2336, 15.2082) scale(0.0040, -0.0040)" d="M0 0c0 -178 203 -292 203 -470c0 -33 -9 -65 -23 -95c18 -37 29 -75 29 -117c0 -63 -16 -125 -42 -183c-5 -8 -12 -12 -19 -12c-13 0 -26 11 -23 27c26 52 42 110 42 168c0 97 -95 191 -167 257v-75h-16v500h16zM153 -517c5 15 7 31 7 47c0 96 -91 190 -160 257
c0 -118 91 -206 153 -304z" fill="currentColor"/>
<path transform="translate(95.3510, 28.2995) scale(0.0040, -0.0040)" d="M27 41l-1 -66v-11c0 -22 1 -44 4 -66c45 38 93 80 93 139c0 33 -14 67 -43 67c-31 0 -52 -30 -53 -63zM-15 -138l-12 595c8 5 18 8 27 8s19 -3 27 -8l-7 -345c25 21 58 34 91 34c52 0 89 -48 89 -102c0 -80 -86 -117 -147 -169c-15 -13 -24 -38 -45 -38
c-13 0 -23 11 -23 25z" fill="currentColor"/>
<path transform="translate(100.4672, 26.2995) scale(0.0040, -0.0040)" d="M220 138c56 0 109 -29 109 -91c0 -72 -56 -121 -103 -149c-36 -21 -76 -36 -117 -36c-56 0 -109 29 -109 91c0 72 56 121 103 149c36 21 76 36 117 36z" fill="currentColor"/>
<path transform="translate(100.4672, 24.7995) scale(0.0040, -0.0040)" d="M220 138c56 0 109 -29 109 -91c0 -72 -56 -121 -103 -149c-36 -21 -76 -36 -117 -36c-56 0 -109 29 -109 91c0 72 56 121 103 149c36 21 76 36 117 36z" fill="currentColor"/>
<path transform="translate(101.1252, 23.8495) scale(0.0040, -0.0040)" d="M-50 0c0 28 22 50 50 50s50 -22 50 -50s-22 -50 -50 -50s-50 22 -50 50z" fill="currentColor"/>
<rect transform="translate(100.5322, 27.2995)" x="-0.0650" y="-2.3122" width="0.1300" height="5.8122" ry="0.0400" fill="currentColor"/>
<path transform="translate(105.8933, 4.0965) scale(0.0032, -0.0032)" d="M214 140c59 0 115 -32 115 -97c0 -72 -54 -121 -101 -149c-35 -21 -74 -34 -114 -34c-59 0 -114 32 -114 97c0 72 54 121 101 149c35 21 73 34 113 34z" fill="currentColor"/>
<path transform="translate(105.8933, 19.6682) scale(0.0040, -0.0040)" d="M315 65c0 24 -21 41 -42 41c-4 0 -8 0 -12 -1c-31 -9 -77 -40 -114 -64s-84 -53 -104 -78c-7 -8 -11 -18 -11 -28c0 -24 21 -41 42 -41c4 0 8 0 12 1c31 9 78 40 115 64s84 53 104 78c7 8 10 18 10 28zM264 137c47 0 83 -21 83 -72c0 -19 -4 -37 -10 -56
c-12 -38 -32 -74 -65 -96c-54 -36 -113 -51 -188 -51c-47 0 -84 22 -84 73c0 19 5 37 11 56c12 38 31 74 64 96c54 36 114 50 189 50z" fill="currentColor"/>
<path transform="translate(105.8933, 18.1682) scale(0.0040, -0.0040)" d="M315 65c0 24 -21 41 -42 41c-4 0 -8 0 -12 -1c-31 -9 -77 -40 -114 -64s-84 -53 -104 -78c-7 -8 -11 -18 -11 -28c0 -24 21 -41 42 -41c4 0 8 0 12 1c31 9 78 40 115 64s84 53 104 78c7 8 10 18 10 28zM264 137c47 0 83 -21 83 -72c0 -19 -4 -37 -10 -56
c-12 -38 -32 -74 -65 -96c-54 -36 -113 -51 -188 -51c-47 0 -84 22 -84 73c0 19 5 37 11 56c12 38 31 74 64 96c54 36 114 50 189 50z" fill="currentColor"/>
<path transform="translate(105.8933, 26.7995) scale(0.0040, -0.0040)" d="M220 138c56 0 109 -29 109 -91c0 -72 -56 -121 -103 -149c-36 -21 -76 -36 -117 -36c-56 0 -109 29 -109 91c0 72 56 121 103 149c36 21 76 36 117 36z" fill="currentColor"/>
<rect transform="translate(92.2360, 16.6682)" x="-0.0650" y="-2.0000" width="0.1300" height="4.8122" ry="0.0400" fill="currentColor"/>
<path transform="translate(93.6510, 18.1682) scale(0.0040, -0.0040)" d="M0 0c0 31 25 56 56 56s56 -25 56 -56s-25 -56 -56 -56s-56 25 -56 56z" fill="currentColor"/>
<path transform="translate(92.7510, 18.1682) scale(0.0040, -0.0040)" d="M0 0c0 31 25 56 56 56s56 -25 56 -56s-25 -56 -56 -56s-56 25 -56 56z" fill="currentColor"/>
<path transform="translate(92.7848, 26.7995) scale(0.0040, -0.0040)" d="M220 138c56 0 109 -29 109 -91c0 -72 -56 -121 -103 -149c-36 -21 -76 -36 -117 -36c-56 0 -109 29 -109 91c0 72 56 121 103 149c36 21 76 36 117 36z" fill="currentColor"/>
<path transform="translate(93.4429, 25.7995) scale(0.0040, -0.0040)" d="M-50 0c0 28 22 50 50 50s50 -22 50 -50s-22 -50 -50 -50s-50 22 -50 50z" fill="currentColor"/>
<rect transform="translate(92.8498, 27.2995)" x="-0.0650" y="-0.3122" width="0.1300" height="3.8122" ry="0.0400" fill="currentColor"/>
<path transform="translate(91.6348, 26.7995) scale(0.0040, -0.0040)" d="M27 41l-1 -66v-11c0 -22 1 -44 4 -66c45 38 93 80 93 139c0 33 -14 67 -43 67c-31 0 -52 -30 -53 -63zM-15 -138l-12 595c8 5 18 8 27 8s19 -3 27 -8l-7 -345c25 21 58 34 91 34c52 0 89 -48 89 -102c0 -80 -86 -117 -147 -169c-15 -13 -24 -38 -45 -38
c-13 0 -23 11 -23 25z" fill="currentColor"/>
<path transform="translate(96.5010, 28.2995) scale(0.0040, -0.0040)" d="M220 138c56 0 109 -29 109 -91c0 -72 -56 -121 -103 -149c-36 -21 -76 -36 -117 -36c-56 0 -109 29 -109 91c0 72 56 121 103 149c36 21 76 36 117 36z" fill="currentColor"/>
<path transform="translate(97.1591, 26.7995) scale(0.0040, -0.0040)" d="M-50 0c0 28 22 50 50 50s50 -22 50 -50s-22 -50 -50 -50s-50 22 -50 50z" fill="currentColor"/>
<rect transform="translate(96.5660, 27.2995)" x="-0.0650" y="1.1878" width="0.1300" height="2.3122" ry="0.0400" fill="currentColor"/>
<rect transform="translate(15.9325, 7.6682)" x="-0.0650" y="-3.4923" width="0.1300" height="1.8271" ry="0.0400" fill="currentColor"/>
<path transform="translate(15.9975, 4.2159) scale(0.0022, -0.0022)" d="M-150 -577c-21 0 -38 17 -38 38c0 11 5 21 14 28l360 290c6 5 15 8 23 8c21 0 37 -17 37 -38c0 -11 -4 -21 -13 -28l-361 -290c-6 -5 -14 -8 -22 -8z" fill="currentColor"/>
<path transform="translate(15.9975, 4.2159) scale(0.0022, -0.0022)" d="M0 0c0 -196 209 -331 209 -527c0 -70 -16 -140 -42 -205c-6 -11 -16 -16 -26 -16c-16 0 -31 13 -31 31c0 2 1 4 1 6c27 58 43 120 43 184c0 100 -87 202 -154 277h-25v250h25z" fill="currentColor"/>
<path transform="translate(75.1169, 26.2995) scale(0.0040, -0.0040)" d="M220 138c56 0 109 -29 109 -91c0 -72 -56 -121 -103 -149c-36 -21 -76 -36 -117 -36c-56 0 -109 29 -109 91c0 72 56 121 103 149c36 21 76 36 117 36z" fill="currentColor"/>
<path transform="translate(75.1169, 24.7995) scale(0.0040, -0.0040)" d="M220 138c56 0 109 -29 109 -91c0 -72 -56 -121 -103 -149c-36 -21 -76 -36 -117 -36c-56 0 -109 29 -109 91c0 72 56 121 103 149c36 21 76 36 117 36z" fill="currentColor"/>
<path transform="translate(75.7750, 23.8495) scale(0.0040, -0.0040)" d="M-50 0c0 28 22 50 50 50s50 -22 50 -50s-22 -50 -50 -50s-50 22 -50 50z" fill="currentColor"/>
<rect transform="translate(75.1819, 27.2995)" x="-0.0650" y="-2.3122" width="0.1300" height="5.8122" ry="0.0400" fill="currentColor"/>
<path transform="translate(7.6068, 21.9838) scale(0.0040, -0.0040)" d="M-16 -556c0 -296 -112 -580 -112 -860c0 -152 32 -296 140 -408c4 -4 4 -4 4 -8c0 -8 -8 -20 -16 -20c-4 0 -8 4 -12 8c-140 152 -192 348 -192 556c0 300 120 596 120 880c0 148 -36 288 -140 400c0 4 -4 4 -4 8s4 4 4 8c104 112 140 252 140 400
c0 284 -120 580 -120 880c0 208 52 404 192 556c4 4 8 8 12 8c8 0 16 -12 16 -20c0 -4 0 -4 -4 -8c-108 -112 -140 -256 -140 -408c0 -280 112 -564 112 -860c0 -204 -48 -404 -184 -556c136 -152 184 -352 184 -556z" fill="currentColor"/>
<rect transform="translate(7.9068, 17.6901)" x="0.0000" y="-11.6594" width="0.1600" height="23.3187" ry="0.0500" fill="currentColor"/>
<path transform="translate(15.2642, 6.0808) scale(0.0022, -0.0022)" d="M202 144c66 0 125 -38 125 -109s-49 -120 -96 -148c-32 -19 -69 -31 -106 -31c-66 0 -125 38 -125 109s49 120 96 148c32 19 69 31 106 31z" fill="currentColor"/>
<path transform="translate(8.7668, 8.4619) scale(0.0032, -0.0032)" d="M379 264c3 0 7 1 10 1c157 0 258 -129 258 -263c0 -77 -33 -155 -108 -211c-22 -16 -46 -29 -72 -37c3 -33 4 -66 4 -99c0 -21 0 -41 -1 -62c-7 -121 -91 -229 -211 -229c-108 0 -196 88 -196 197c0 58 54 103 113 103c54 0 95 -47 95 -103c0 -52 -43 -95 -95 -95
c-9 0 -18 1 -27 4c25 -37 66 -61 113 -61c95 0 156 93 162 191c1 19 2 38 2 57c0 29 -1 58 -3 87c-29 -5 -58 -8 -88 -8c-189 0 -333 173 -333 376c0 177 129 308 244 443c-20 62 -40 124 -48 189c-7 52 -7 105 -7 158c0 114 54 221 147 288c4 3 8 4 12 4c5 0 9 -2 13 -5
c72 -83 135 -243 135 -356c0 -142 -84 -255 -176 -364c21 -68 40 -136 57 -205zM463 -201c65 24 110 94 110 161c0 88 -64 175 -167 188c24 -114 44 -227 57 -349zM77 25c0 -133 128 -243 261 -243c27 0 55 1 81 5c-13 126 -35 244 -60 362c-79 -8 -124 -60 -124 -118
c0 -43 25 -88 80 -120c5 -5 7 -11 7 -17c0 -12 -10 -23 -23 -23c-3 0 -7 1 -10 2c-81 43 -118 115 -118 186c0 89 60 177 163 200c-14 57 -30 113 -47 169c-105 -122 -210 -243 -210 -403zM403 1038c-99 -46 -161 -145 -161 -254c0 -71 21 -130 39 -188
c78 97 142 199 142 324c0 51 -4 72 -20 118z" fill="currentColor"/>
<path transform="translate(12.9668, 9.2729) scale(0.0032, -0.0032)" d="M201 296c23 15 46 29 62 51c12 16 20 35 28 52c2 4 6 6 10 6c7 0 14 -5 14 -15v-233h76c11 0 16 -8 16 -16s-5 -16 -16 -16h-76v-2c0 -50 30 -97 77 -97c9 0 12 -7 12 -13s-3 -13 -12 -13c-46 0 -92 13 -138 13s-93 -13 -139 -13c-9 0 -12 7 -12 13s3 13 12 13
c47 0 77 47 77 97v2h-160c-26 0 -34 15 -34 25c0 3 1 6 2 7c79 91 131 205 131 325c0 10 7 18 15 18h3c24 -7 49 -13 74 -13s50 6 74 13c2 1 3 1 5 1c9 0 15 -7 15 -13c0 -2 0 -4 -2 -6l-283 -325h160v115c0 9 1 19 9 24z" fill="currentColor"/>
<path transform="translate(13.0180, 7.6682) scale(0.0032, -0.0032)" d="M26 12c-1 -8 -7 -12 -13 -12c-7 0 -13 5 -13 13c0 174 234 164 234 342c0 58 -16 119 -66 119c-28 0 -55 -13 -55 -38c0 -27 35 -40 35 -67c0 -37 -31 -67 -68 -67s-67 30 -67 67c0 77 73 131 155 131c97 0 189 -56 189 -145c0 -148 -144 -158 -242 -213c6 1 11 1 17 1
c34 0 72 -12 108 -38c20 -14 43 -22 63 -22c22 0 40 10 45 30c2 7 7 10 12 10c7 0 13 -5 13 -13v-4c-18 -67 -81 -106 -142 -106c-37 0 -73 14 -98 45c-12 15 -29 23 -46 23c-29 0 -58 -21 -61 -56z" fill="currentColor"/>
<path transform="translate(8.7668, 17.6682) scale(0.0040, -0.0040)" d="M376 262c4 0 9 1 13 1c155 0 256 -128 256 -261c0 -76 -33 -154 -107 -210c-22 -17 -47 -28 -73 -36c3 -35 5 -70 5 -105c0 -19 -1 -39 -2 -58c-7 -120 -90 -228 -208 -228c-108 0 -195 88 -195 197c0 58 53 103 112 103c54 0 95 -47 95 -103c0 -52 -43 -95 -95 -95
c-11 0 -21 2 -31 6c26 -39 68 -65 117 -65c96 0 157 92 163 191c1 18 2 37 2 55c0 31 -1 61 -4 92c-29 -5 -58 -8 -89 -8c-188 0 -333 172 -333 374c0 177 131 306 248 441c-19 62 -37 125 -45 190c-6 52 -7 104 -7 156c0 115 55 224 149 292c3 2 7 3 10 3c4 0 7 0 10 -3
c71 -84 133 -245 133 -358c0 -143 -86 -255 -180 -364c21 -68 39 -138 56 -207zM461 -203c68 24 113 95 113 164c0 90 -66 179 -173 190c24 -116 46 -231 60 -354zM74 28c0 -135 129 -247 264 -247c28 0 55 2 82 6c-14 127 -37 245 -63 364c-79 -8 -124 -61 -124 -119
c0 -44 25 -91 81 -123c5 -5 7 -10 7 -15c0 -11 -10 -22 -22 -22c-3 0 -6 1 -9 2c-80 43 -117 115 -117 185c0 88 58 174 160 197c-14 58 -29 117 -46 175c-107 -121 -213 -243 -213 -403zM408 1045c-99 -48 -162 -149 -162 -259c0 -74 18 -133 36 -194
c80 97 146 198 146 324c0 55 -4 79 -20 129z" fill="currentColor"/>
<path transform="translate(12.9668, 18.6826) scale(0.0040, -0.0040)" d="M204 307c22 14 44 29 60 50c11 15 19 33 27 50c2 4 5 6 9 6c6 0 13 -5 13 -14v-245h72c10 0 15 -7 15 -14s-5 -15 -15 -15h-72v-8c0 -48 27 -94 72 -94c8 0 12 -5 12 -11s-4 -12 -12 -12c-44 0 -87 13 -131 13s-87 -13 -131 -13c-8 0 -12 6 -12 12s4 11 12 11
c45 0 73 46 73 94v8h-167c-23 0 -31 14 -31 23c0 3 1 5 2 6c80 93 138 207 138 330c0 9 6 16 13 16h3c23 -7 47 -13 71 -13s48 6 71 13c2 1 3 1 5 1c11 0 18 -10 12 -17l-284 -330h167v131c0 8 1 17 8 22z" fill="currentColor"/>
<path transform="translate(13.0351, 16.6682) scale(0.0040, -0.0040)" d="M23 11c-1 -7 -6 -11 -11 -11c-6 0 -12 4 -12 11c0 175 235 165 235 344c0 60 -18 122 -70 122c-26 0 -51 -14 -51 -37c0 -27 35 -41 35 -68c0 -38 -30 -69 -68 -69s-69 31 -69 69c0 76 72 128 153 128c96 0 187 -56 187 -145c0 -153 -151 -159 -249 -220c9 2 17 3 26 3
c33 0 70 -11 105 -36c21 -15 46 -23 66 -23c21 0 39 9 44 29c2 6 6 9 11 9c6 0 12 -5 12 -12c0 -67 -90 -105 -138 -105c-36 0 -71 14 -96 44c-13 16 -31 22 -48 22c-30 0 -59 -20 -62 -55z" fill="currentColor"/>
<path transform="translate(8.7668, 26.2995) scale(0.0040, -0.0040)" d="M557 -125c0 28 23 51 51 51s51 -23 51 -51s-23 -51 -51 -51s-51 23 -51 51zM557 125c0 28 23 51 51 51s51 -23 51 -51s-23 -51 -51 -51s-51 23 -51 51zM232 263c172 0 293 -88 293 -251c0 -263 -263 -414 -516 -521c-3 -3 -6 -4 -9 -4c-7 0 -13 6 -13 13c0 3 1 6 4 9
c202 118 412 265 412 493c0 120 -63 235 -171 235c-74 0 -129 -54 -154 -126c11 5 22 8 34 8c55 0 100 -45 100 -100c0 -58 -44 -106 -100 -106c-60 0 -112 47 -112 106c0 133 102 244 232 244z" fill="currentColor"/>
<path transform="translate(12.9668, 29.3139) scale(0.0040, -0.0040)" d="M204 307c22 14 44 29 60 50c11 15 19 33 27 50c2 4 5 6 9 6c6 0 13 -5 13 -14v-245h72c10 0 15 -7 15 -14s-5 -15 -15 -15h-72v-8c0 -48 27 -94 72 -94c8 0 12 -5 12 -11s-4 -12 -12 -12c-44 0 -87 13 -131 13s-87 -13 -131 -13c-8 0 -12 6 -12 12s4 11 12 11
c45 0 73 46 73 94v8h-167c-23 0 -31 14 -31 23c0 3 1 5 2 6c80 93 138 207 138 330c0 9 6 16 13 16h3c23 -7 47 -13 71 -13s48 6 71 13c2 1 3 1 5 1c11 0 18 -10 12 -17l-284 -330h167v131c0 8 1 17 8 22z" fill="currentColor"/>
<path transform="translate(13.0351, 27.2995) scale(0.0040, -0.0040)" d="M23 11c-1 -7 -6 -11 -11 -11c-6 0 -12 4 -12 11c0 175 235 165 235 344c0 60 -18 122 -70 122c-26 0 -51 -14 -51 -37c0 -27 35 -41 35 -68c0 -38 -30 -69 -68 -69s-69 31 -69 69c0 76 72 128 153 128c96 0 187 -56 187 -145c0 -153 -151 -159 -249 -220c9 2 17 3 26 3
c33 0 70 -11 105 -36c21 -15 46 -23 66 -23c21 0 39 9 44 29c2 6 6 9 11 9c6 0 12 -5 12 -12c0 -67 -90 -105 -138 -105c-36 0 -71 14 -96 44c-13 16 -31 22 -48 22c-30 0 -59 -20 -62 -55z" fill="currentColor"/>
<rect transform="translate(9.6243, 4.2111)" x="-0.3245" y="-0.1000" width="3.7902" height="0.1000" ry="0.0000" fill="currentColor"/>
<rect transform="translate(9.6243, 1.4087)" x="-0.3245" y="-0.1000" width="3.7902" height="0.1000" ry="0.0000" fill="currentColor"/>
<rect transform="translate(9.2998, 3.8867)" x="0" y="-2.4780" width="0.1000" height="2.7024" ry="0.0000" fill="currentColor"/>
<rect transform="translate(12.9899, 3.8867)" x="0" y="-2.4780" width="0.1000" height="2.7024" ry="0.0000" fill="currentColor"/>
<g transform="translate(9.6243, 3.8867)" >
<path transform="scale(0.0045, -0.0045)" d="M44 500c45 -8 91 -13 137 -13s92 5 137 13h4c12 0 18 -10 12 -16c-68 -68 -166 -90 -262 -90c-9 0 -16 -7 -16 -16v-102c28 28 65 45 104 45c115 0 185 -50 185 -160c0 -93 -85 -161 -182 -161c-82 0 -163 39 -163 112c0 36 30 66 66 66s65 -30 65 -66
c0 -25 -40 -28 -40 -53c0 -30 38 -37 72 -37c57 0 69 73 69 139c0 64 -17 133 -72 133c-42 0 -82 -14 -106 -47c-3 -4 -8 -6 -12 -6c-7 0 -14 6 -14 15v228c0 9 6 16 14 16h2z" fill="currentColor"/>

<path transform="translate(1.5023, 0.0000) scale(0.0045, -0.0045)" d="M22 10c-1 -7 -6 -10 -11 -10c-6 0 -11 4 -11 11c0 175 236 165 236 344c0 60 -21 123 -73 123c-25 0 -49 -14 -49 -37c0 -27 35 -41 35 -68c0 -38 -31 -69 -69 -69s-69 31 -69 69c0 75 72 127 152 127c96 0 186 -56 186 -145c0 -155 -156 -160 -253 -224c10 2 20 4 31 4
c33 0 68 -11 103 -35c22 -15 47 -24 68 -24s38 9 43 29c2 6 6 8 10 8c6 0 12 -4 12 -11c0 -65 -87 -102 -135 -102c-35 0 -70 14 -95 43c-13 16 -32 23 -49 23c-30 0 -59 -22 -62 -56z" fill="currentColor"/>
</g>
<text transform="translate(13.6462, 1.4682)" font-family="Lyon Text" font-size="2.2001" text-anchor="start" fill="currentColor">
<tspan>
Tempo</tspan>
</text>
<path transform="translate(77.6831, 26.7995) scale(0.0040, -0.0040)" d="M27 41l-1 -66v-11c0 -22 1 -44 4 -66c45 38 93 80 93 139c0 33 -14 67 -43 67c-31 0 -52 -30 -53 -63zM-15 -138l-12 595c8 5 18 8 27 8s19 -3 27 -8l-7 -345c25 21 58 34 91 34c52 0 89 -48 89 -102c0 -80 -86 -117 -147 -169c-15 -13 -24 -38 -45 -38
c-13 0 -23 11 -23 25z" fill="currentColor"/>
<path transform="translate(82.2993, 28.2995) scale(0.0040, -0.0040)" d="M220 138c56 0 109 -29 109 -91c0 -72 -56 -121 -103 -149c-36 -21 -76 -36 -117 -36c-56 0 -109 29 -109 91c0 72 56 121 103 149c36 21 76 36 117 36z" fill="currentColor"/>
<path transform="translate(82.9574, 26.7995) scale(0.0040, -0.0040)" d="M-50 0c0 28 22 50 50 50s50 -22 50 -50s-22 -50 -50 -50s-50 22 -50 50z" fill="currentColor"/>
<rect transform="translate(82.3643, 27.2995)" x="-0.0650" y="1.1878" width="0.1300" height="2.3122" ry="0.0400" fill="currentColor"/>
<path transform="translate(87.9174, 4.0965) scale(0.0032, -0.0032)" d="M312 63c0 23 -20 40 -41 40c-4 0 -7 -1 -11 -2c-30 -8 -75 -38 -111 -61s-81 -52 -101 -76c-7 -8 -10 -17 -10 -27c0 -23 19 -40 40 -40c4 0 8 1 12 2c30 8 75 38 111 61s81 52 101 76c7 8 10 17 10 27zM258 140c51 0 92 -23 92 -78c0 -19 -4 -38 -10 -56
c-11 -38 -31 -75 -64 -97c-53 -36 -112 -49 -185 -49c-51 0 -91 23 -91 78c0 19 4 38 10 56c11 38 30 75 63 97c53 36 112 49 185 49z" fill="currentColor"/>
<path transform="translate(87.9174, 19.1682) scale(0.0040, -0.0040)" d="M220 138c56 0 109 -29 109 -91c0 -72 -56 -121 -103 -149c-36 -21 -76 -36 -117 -36c-56 0 -109 29 -109 91c0 72 56 121 103 149c36 21 76 36 117 36z" fill="currentColor"/>
<path transform="translate(89.1686, 18.6682) scale(0.0040, -0.0040)" d="M220 138c56 0 109 -29 109 -91c0 -72 -56 -121 -103 -149c-36 -21 -76 -36 -117 -36c-56 0 -109 29 -109 91c0 72 56 121 103 149c36 21 76 36 117 36z" fill="currentColor"/>
<path transform="translate(87.9174, 26.2995) scale(0.0040, -0.0040)" d="M220 138c56 0 109 -29 109 -91c0 -72 -56 -121 -103 -149c-36 -21 -76 -36 -117 -36c-56 0 -109 29 -109 91c0 72 56 121 103 149c36 21 76 36 117 36z" fill="currentColor"/>
<path transform="translate(87.9174, 24.7995) scale(0.0040, -0.0040)" d="M220 138c56 0 109 -29 109 -91c0 -72 -56 -121 -103 -149c-36 -21 -76 -36 -117 -36c-56 0 -109 29 -109 91c0 72 56 121 103 149c36 21 76 36 117 36z" fill="currentColor"/>
<path transform="translate(88.5755, 23.8495) scale(0.0040, -0.0040)" d="M-50 0c0 28 22 50 50 50s50 -22 50 -50s-22 -50 -50 -50s-50 22 -50 50z" fill="currentColor"/>
<path transform="translate(73.9669, 24.7995) scale(0.0040, -0.0040)" d="M27 41l-1 -66v-11c0 -22 1 -44 4 -66c45 38 93 80 93 139c0 33 -14 67 -43 67c-31 0 -52 -30 -53 -63zM-15 -138l-12 595c8 5 18 8 27 8s19 -3 27 -8l-7 -345c25 21 58 34 91 34c52 0 89 -48 89 -102c0 -80 -86 -117 -147 -169c-15 -13 -24 -38 -45 -38
c-13 0 -23 11 -23 25z" fill="currentColor"/>
<path transform="translate(78.8331, 19.1682) scale(0.0040, -0.0040)" d="M220 138c56 0 109 -29 109 -91c0 -72 -56 -121 -103 -149c-36 -21 -76 -36 -117 -36c-56 0 -109 29 -109 91c0 72 56 121 103 149c36 21 76 36 117 36z" fill="currentColor"/>
<path transform="translate(80.0843, 18.6682) scale(0.0040, -0.0040)" d="M220 138c56 0 109 -29 109 -91c0 -72 -56 -121 -103 -149c-36 -21 -76 -36 -117 -36c-56 0 -109 29 -109 91c0 72 56 121 103 149c36 21 76 36 117 36z" fill="currentColor"/>
<path transform="translate(78.8331, 26.7995) scale(0.0040, -0.0040)" d="M220 138c56 0 109 -29 109 -91c0 -72 -56 -121 -103 -149c-36 -21 -76 -36 -117 -36c-56 0 -109 29 -109 91c0 72 56 121 103 149c36 21 76 36 117 36z" fill="currentColor"/>
<path transform="translate(79.4912, 25.7995) scale(0.0040, -0.0040)" d="M-50 0c0 28 22 50 50 50s50 -22 50 -50s-22 -50 -50 -50s-50 22 -50 50z" fill="currentColor"/>
<rect transform="translate(80.0843, 16.6682)" x="-0.0650" y="-1.5000" width="0.1300" height="3.8122" ry="0.0400" fill="currentColor"/>
<path transform="translate(76.6231, 19.1682) scale(0.0040, -0.0040)" d="M27 41l-1 -66v-11c0 -22 1 -44 4 -66c45 38 93 80 93 139c0 33 -14 67 -43 67c-31 0 -52 -30 -53 -63zM-15 -138l-12 595c8 5 18 8 27 8s19 -3 27 -8l-7 -345c25 21 58 34 91 34c52 0 89 -48 89 -102c0 -80 -86 -117 -147 -169c-15 -13 -24 -38 -45 -38
c-13 0 -23 11 -23 25z" fill="currentColor"/>
<path transform="translate(77.6831, 18.6682) scale(0.0040, -0.0040)" d="M27 41l-1 -66v-11c0 -22 1 -44 4 -66c45 38 93 80 93 139c0 33 -14 67 -43 67c-31 0 -52 -30 -53 -63zM-15 -138l-12 595c8 5 18 8 27 8s19 -3 27 -8l-7 -345c25 21 58 34 91 34c52 0 89 -48 89 -102c0 -80 -86 -117 -147 -169c-15 -13 -24 -38 -45 -38
c-13 0 -23 11 -23 25z" fill="currentColor"/>
<rect transform="translate(78.8981, 27.2995)" x="-0.0650" y="-0.3122" width="0.1300" height="3.8122" ry="0.0400" fill="currentColor"/>
<path transform="translate(118.4648, 26.7995) scale(0.0040, -0.0040)" d="M220 138c56 0 109 -29 109 -91c0 -72 -56 -121 -103 -149c-36 -21 -76 -36 -117 -36c-56 0 -109 29 -109 91c0 72 56 121 103 149c36 21 76 36 117 36z" fill="currentColor"/>
<path transform="translate(119.1229, 25.7995) scale(0.0040, -0.0040)" d="M-50 0c0 28 22 50 50 50s50 -22 50 -50s-22 -50 -50 -50s-50 22 -50 50z" fill="currentColor"/>
<rect transform="translate(118.5298, 27.2995)" x="-0.0650" y="-0.3122" width="0.1300" height="3.8122" ry="0.0400" fill="currentColor"/>
<path transform="translate(119.9138, 7.6682) scale(0.0032, -0.0032)" d="M214 140c59 0 115 -32 115 -97c0 -72 -54 -121 -101 -149c-35 -21 -74 -34 -114 -34c-59 0 -114 32 -114 97c0 72 54 121 101 149c35 21 73 34 113 34z" fill="currentColor"/>
<rect transform="translate(119.9788, 7.6682)" x="-0.0650" y="0.1374" width="0.1300" height="2.0976" ry="0.0400" fill="currentColor"/>
<path transform="translate(118.9288, 7.6682) scale(0.0032, -0.0032)" d="M31 37l-2 -62v-11c0 -22 2 -43 5 -64c43 38 89 80 89 137c0 32 -14 65 -42 65c-31 0 -49 -32 -50 -65zM-16 -140l-14 590c9 5 20 8 30 8s21 -3 30 -8l-8 -340c25 24 59 38 94 38c50 0 84 -50 84 -104c0 -78 -83 -117 -141 -169c-17 -15 -25 -44 -49 -44
c-15 0 -26 13 -26 29z" fill="currentColor"/>
<path transform="translate(114.6824, 23.8495) scale(0.0040, -0.0040)" d="M-50 0c0 28 22 50 50 50s50 -22 50 -50s-22 -50 -50 -50s-50 22 -50 50z" fill="currentColor"/>
<rect transform="translate(114.0893, 7.6682)" x="-0.0650" y="-0.6563" width="0.1300" height="2.3897" ry="0.0400" fill="currentColor"/>
<path transform="translate(113.0393, 6.8745) scale(0.0032, -0.0032)" d="M31 37l-2 -62v-11c0 -22 2 -43 5 -64c43 38 89 80 89 137c0 32 -14 65 -42 65c-31 0 -49 -32 -50 -65zM-16 -140l-14 590c9 5 20 8 30 8s21 -3 30 -8l-8 -340c25 24 59 38 94 38c50 0 84 -50 84 -104c0 -78 -83 -117 -141 -169c-17 -15 -25 -44 -49 -44
c-15 0 -26 13 -26 29z" fill="currentColor"/>
<rect transform="translate(114.0893, 27.2995)" x="-0.0650" y="-2.3122" width="0.1300" height="5.8122" ry="0.0400" fill="currentColor"/>
<path transform="translate(112.8743, 24.7995) scale(0.0040, -0.0040)" d="M27 41l-1 -66v-11c0 -22 1 -44 4 -66c45 38 93 80 93 139c0 33 -14 67 -43 67c-31 0 -52 -30 -53 -63zM-15 -138l-12 595c8 5 18 8 27 8s19 -3 27 -8l-7 -345c25 21 58 34 91 34c52 0 89 -48 89 -102c0 -80 -86 -117 -147 -169c-15 -13 -24 -38 -45 -38
c-13 0 -23 11 -23 25z" fill="currentColor"/>
<path transform="translate(117.0158, 6.0808) scale(0.0032, -0.0032)" d="M214 140c59 0 115 -32 115 -97c0 -72 -54 -121 -101 -149c-35 -21 -74 -34 -114 -34c-59 0 -114 32 -114 97c0 72 54 121 101 149c35 21 73 34 113 34z" fill="currentColor"/>
<rect transform="translate(117.0808, 7.6682)" x="-0.0650" y="-1.4500" width="0.1300" height="3.4382" ry="0.0400" fill="currentColor"/>
<path transform="translate(17.0693, 4.0965) scale(0.0032, -0.0032)" d="M31 37l-2 -62v-11c0 -22 2 -43 5 -64c43 38 89 80 89 137c0 32 -14 65 -42 65c-31 0 -49 -32 -50 -65zM-16 -140l-14 590c9 5 20 8 30 8s21 -3 30 -8l-8 -340c25 24 59 38 94 38c50 0 84 -50 84 -104c0 -78 -83 -117 -141 -169c-17 -15 -25 -44 -49 -44
c-15 0 -26 13 -26 29z" fill="currentColor"/>
<rect transform="translate(19.3054, 27.2995)" x="-0.0650" y="-5.0000" width="0.1300" height="5.8122" ry="0.0400" fill="currentColor"/>
<path transform="translate(18.0542, 27.2995)" stroke-width="0.1000" stroke-linejoin="round" stroke-linecap="round" stroke="currentColor" fill="currentColor" d="M2.906162 1.34117423551458C3.2075318630137 1.72356732074298 3.7047921369863 1.72356732074298 4.006162 1.34117423551458C3.7047921369863 1.62356732074298 3.2075318630137 1.62356732074298 2.906162 1.34117423551458z"/>
<rect transform="translate(19.4354, 27.2995)" x="-0.0650" y="1.2614" width="0.1300" height="2.7386" ry="0.0400" fill="currentColor"/>
<path transform="translate(18.0542, 4.0965) scale(0.0032, -0.0032)" d="M312 63c0 23 -20 40 -41 40c-4 0 -7 -1 -11 -2c-30 -8 -75 -38 -111 -61s-81 -52 -101 -76c-7 -8 -10 -17 -10 -27c0 -23 19 -40 40 -40c4 0 8 1 12 2c30 8 75 38 111 61s81 52 101 76c7 8 10 17 10 27zM258 140c51 0 92 -23 92 -78c0 -19 -4 -38 -10 -56
c-11 -38 -31 -75 -64 -97c-53 -36 -112 -49 -185 -49c-51 0 -91 23 -91 78c0 19 4 38 10 56c11 38 30 75 63 97c53 36 112 49 185 49z" fill="currentColor"/>
<path transform="translate(18.0542, 16.6682) scale(0.0040, -0.0040)" d="M-23 -116c0 28 11 42 40 42c33 0 78 -13 119 -31l-132 158c-7 9 -10 17 -10 25c0 34 50 66 87 99c25 22 37 52 37 83c0 24 -8 49 -25 69l-35 42c-3 3 -4 7 -4 10c0 9 9 15 17 15c4 0 8 -1 11 -5l151 -180c7 -9 10 -17 10 -25c0 -34 -50 -66 -87 -99
c-25 -22 -37 -52 -37 -83c0 -24 7 -49 24 -69l84 -99c3 -3 4 -7 4 -10c0 -9 -8 -16 -16 -16c-4 0 -9 2 -12 6c-18 21 -63 38 -97 38c-41 0 -53 -26 -53 -67c0 -35 11 -74 28 -94c5 -6 0 -13 -6 -13c-2 0 -4 0 -6 2c-45 54 -92 148 -92 202z" fill="currentColor"/>
<g transform="translate(17.1711, 20.3790)" >
<path transform="scale(0.0040, -0.0040)" d="M233 243c-56 0 -102 -107 -102 -173c0 -22 8 -38 30 -38c64 0 97 126 97 178c0 18 -7 33 -25 33zM112 -146c-38 0 -78 5 -116 5c-39 0 -78 -5 -115 -5c-9 0 -14 7 -14 14c0 18 31 15 48 16c22 1 47 5 54 25l102 300c2 7 4 14 4 20c0 8 -2 14 -11 14
c-33 0 -63 -60 -79 -97c-5 -12 -15 -17 -24 -17c-8 0 -14 4 -14 12c0 2 1 5 2 8c30 68 72 143 132 143c35 0 59 -21 66 -52c29 31 67 52 103 52c69 0 107 -49 107 -114c0 -21 -4 -44 -12 -67c-20 -58 -91 -119 -147 -119c-27 0 -52 5 -73 17c-4 2 -7 3 -11 3
c-7 0 -14 -3 -16 -9l-29 -86c-1 -2 -1 -5 -1 -7c0 -20 21 -26 44 -28c9 -1 13 -8 13 -14c0 -7 -4 -14 -13 -14z" fill="currentColor"/>

<path transform="translate(1.4682, 0.0000) scale(0.0040, -0.0040)" d="M233 243c-56 0 -102 -107 -102 -173c0 -22 8 -38 30 -38c64 0 97 126 97 178c0 18 -7 33 -25 33zM112 -146c-38 0 -78 5 -116 5c-39 0 -78 -5 -115 -5c-9 0 -14 7 -14 14c0 18 31 15 48 16c22 1 47 5 54 25l102 300c2 7 4 14 4 20c0 8 -2 14 -11 14
c-33 0 -63 -60 -79 -97c-5 -12 -15 -17 -24 -17c-8 0 -14 4 -14 12c0 2 1 5 2 8c30 68 72 143 132 143c35 0 59 -21 66 -52c29 31 67 52 103 52c69 0 107 -49 107 -114c0 -21 -4 -44 -12 -67c-20 -58 -91 -119 -147 -119c-27 0 -52 5 -73 17c-4 2 -7 3 -11 3
c-7 0 -14 -3 -16 -9l-29 -86c-1 -2 -1 -5 -1 -7c0 -20 21 -26 44 -28c9 -1 13 -8 13 -14c0 -7 -4 -14 -13 -14z" fill="currentColor"/>
</g>
<path transform="translate(18.0542, 28.2995) scale(0.0040, -0.0040)" d="M220 138c56 0 109 -29 109 -91c0 -72 -56 -121 -103 -149c-36 -21 -76 -36 -117 -36c-56 0 -109 29 -109 91c0 72 56 121 103 149c36 21 76 36 117 36z" fill="currentColor"/>
<path transform="translate(19.0089, 21.6595) scale(0.0040, -0.0040)" d="M-50 0c0 28 22 50 50 50s50 -22 50 -50s-22 -50 -50 -50s-50 22 -50 50z" fill="currentColor"/>
<path transform="translate(19.3704, 28.2995) scale(0.0040, -0.0040)" d="M315 65c0 24 -21 41 -42 41c-4 0 -8 0 -12 -1c-31 -9 -77 -40 -114 -64s-84 -53 -104 -78c-7 -8 -11 -18 -11 -28c0 -24 21 -41 42 -41c4 0 8 0 12 1c31 9 78 40 115 64s84 53 104 78c7 8 10 18 10 28zM264 137c47 0 83 -21 83 -72c0 -19 -4 -37 -10 -56
c-12 -38 -32 -74 -65 -96c-54 -36 -113 -51 -188 -51c-47 0 -84 22 -84 73c0 19 5 37 11 56c12 38 31 74 64 96c54 36 114 50 189 50z" fill="currentColor"/>
<rect transform="translate(18.1192, 7.6682)" x="-0.0650" y="-3.3747" width="0.1300" height="3.3747" ry="0.0400" fill="currentColor"/>
<path transform="translate(104.7433, 26.7995) scale(0.0040, -0.0040)" d="M27 41l-1 -66v-11c0 -22 1 -44 4 -66c45 38 93 80 93 139c0 33 -14 67 -43 67c-31 0 -52 -30 -53 -63zM-15 -138l-12 595c8 5 18 8 27 8s19 -3 27 -8l-7 -345c25 21 58 34 91 34c52 0 89 -48 89 -102c0 -80 -86 -117 -147 -169c-15 -13 -24 -38 -45 -38
c-13 0 -23 11 -23 25z" fill="currentColor"/>
<path transform="translate(108.3848, 6.0808) scale(0.0032, -0.0032)" d="M214 140c59 0 115 -32 115 -97c0 -72 -54 -121 -101 -149c-35 -21 -74 -34 -114 -34c-59 0 -114 32 -114 97c0 72 54 121 101 149c35 21 73 34 113 34z" fill="currentColor"/>
<rect transform="translate(108.4498, 7.6682)" x="-0.0650" y="-1.4500" width="0.1300" height="2.1032" ry="0.0400" fill="currentColor"/>
<path transform="translate(106.5514, 25.7995) scale(0.0040, -0.0040)" d="M-50 0c0 28 22 50 50 50s50 -22 50 -50s-22 -50 -50 -50s-50 22 -50 50z" fill="currentColor"/>
<rect transform="translate(105.9583, 7.6682)" x="-0.0650" y="-3.4342" width="0.1300" height="4.0874" ry="0.0400" fill="currentColor"/>
<rect transform="translate(107.2183, 16.6682)" x="-0.0650" y="-2.0000" width="0.1300" height="4.7386" ry="0.0400" fill="currentColor"/>
<rect transform="translate(105.9583, 27.2995)" x="-0.0650" y="-0.3122" width="0.1300" height="3.8122" ry="0.0400" fill="currentColor"/>
<rect transform="translate(109.8988, 27.2995)" x="-0.0650" y="1.1878" width="0.1300" height="2.3122" ry="0.0400" fill="currentColor"/>
<path transform="translate(108.6838, 28.2995) scale(0.0040, -0.0040)" d="M27 41l-1 -66v-11c0 -22 1 -44 4 -66c45 38 93 80 93 139c0 33 -14 67 -43 67c-31 0 -52 -30 -53 -63zM-15 -138l-12 595c8 5 18 8 27 8s19 -3 27 -8l-7 -345c25 21 58 34 91 34c52 0 89 -48 89 -102c0 -80 -86 -117 -147 -169c-15 -13 -24 -38 -45 -38
c-13 0 -23 11 -23 25z" fill="currentColor"/>
<path transform="translate(111.2828, 5.2871) scale(0.0032, -0.0032)" d="M214 140c59 0 115 -32 115 -97c0 -72 -54 -121 -101 -149c-35 -21 -74 -34 -114 -34c-59 0 -114 32 -114 97c0 72 54 121 101 149c35 21 73 34 113 34z" fill="currentColor"/>
<rect transform="translate(111.3478, 7.6682)" x="-0.0650" y="-2.2437" width="0.1300" height="2.8969" ry="0.0400" fill="currentColor"/>
<path transform="translate(114.0243, 6.8745) scale(0.0032, -0.0032)" d="M214 140c59 0 115 -32 115 -97c0 -72 -54 -121 -101 -149c-35 -21 -74 -34 -114 -34c-59 0 -114 32 -114 97c0 72 54 121 101 149c35 21 73 34 113 34z" fill="currentColor"/>
<path transform="translate(114.0243, 26.2995) scale(0.0040, -0.0040)" d="M220 138c56 0 109 -29 109 -91c0 -72 -56 -121 -103 -149c-36 -21 -76 -36 -117 -36c-56 0 -109 29 -109 91c0 72 56 121 103 149c36 21 76 36 117 36z" fill="currentColor"/>
<path transform="translate(114.0243, 24.7995) scale(0.0040, -0.0040)" d="M220 138c56 0 109 -29 109 -91c0 -72 -56 -121 -103 -149c-36 -21 -76 -36 -117 -36c-56 0 -109 29 -109 91c0 72 56 121 103 149c36 21 76 36 117 36z" fill="currentColor"/>
<path transform="translate(109.8338, 28.2995) scale(0.0040, -0.0040)" d="M220 138c56 0 109 -29 109 -91c0 -72 -56 -121 -103 -149c-36 -21 -76 -36 -117 -36c-56 0 -109 29 -109 91c0 72 56 121 103 149c36 21 76 36 117 36z" fill="currentColor"/>
<path transform="translate(110.4919, 26.7995) scale(0.0040, -0.0040)" d="M-50 0c0 28 22 50 50 50s50 -22 50 -50s-22 -50 -50 -50s-50 22 -50 50z" fill="currentColor"/>
</svg>
