<svg xmlns="http://www.w3.org/2000/svg" xmlns:xlink="http://www.w3.org/1999/xlink" version="1.2" width="210.27mm" height="43.28mm" viewBox="6.7005 -0.0912 119.6553 24.6290">
<defs><link href="../../assets/fonts.css" type="text/css" rel="stylesheet" xmlns="http://www.w3.org/1999/xhtml" /></defs>
<rect transform="translate(69.2880, 7.8711)" x="0.0000" y="-2.0000" width="0.1900" height="4.0500" ry="0.0000" fill="currentColor"/>
<rect transform="translate(47.8533, -0.0000)" x="0.0000" y="9.9211" width="0.1900" height="7.9500" ry="0.0000" fill="currentColor"/>
<rect transform="translate(47.8533, 19.8711)" x="0.0000" y="-2.0500" width="0.1900" height="4.0500" ry="0.0000" fill="currentColor"/>
<rect transform="translate(47.8533, 7.8711)" x="0.0000" y="-2.0000" width="0.1900" height="4.0500" ry="0.0000" fill="currentColor"/>
<rect transform="translate(126.1657, -0.0000)" x="0.0000" y="9.9211" width="0.1900" height="7.9500" ry="0.0000" fill="currentColor"/>
<rect transform="translate(126.1657, 19.8711)" x="0.0000" y="-2.0500" width="0.1900" height="4.0500" ry="0.0000" fill="currentColor"/>
<rect transform="translate(126.1657, 7.8711)" x="0.0000" y="-2.0000" width="0.1900" height="4.0500" ry="0.0000" fill="currentColor"/>
<rect transform="translate(110.3745, -0.0000)" x="0.0000" y="9.9211" width="0.1900" height="7.9500" ry="0.0000" fill="currentColor"/>
<rect transform="translate(110.3745, 19.8711)" x="0.0000" y="-2.0500" width="0.1900" height="4.0500" ry="0.0000" fill="currentColor"/>
<rect transform="translate(110.3745, 7.8711)" x="0.0000" y="-2.0000" width="0.1900" height="4.0500" ry="0.0000" fill="currentColor"/>
<rect transform="translate(90.7304, -0.0000)" x="0.0000" y="9.9211" width="0.1900" height="7.9500" ry="0.0000" fill="currentColor"/>
<rect transform="translate(90.7304, 19.8711)" x="0.0000" y="-2.0500" width="0.1900" height="4.0500" ry="0.0000" fill="currentColor"/>
<rect transform="translate(90.7304, 7.8711)" x="0.0000" y="-2.0000" width="0.1900" height="4.0500" ry="0.0000" fill="currentColor"/>
<rect transform="translate(69.2880, -0.0000)" x="0.0000" y="9.9211" width="0.1900" height="7.9500" ry="0.0000" fill="currentColor"/>
<rect transform="translate(69.2880, 19.8711)" x="0.0000" y="-2.0500" width="0.1900" height="4.0500" ry="0.0000" fill="currentColor"/>
<rect transform="translate(0.0000, 4.8711)" x="77.4500" y="-0.1000" width="1.9743" height="0.2000" ry="0.1000" fill="currentColor"/>
<rect transform="translate(0.0000, 10.8711)" x="100.2712" y="-0.1000" width="1.9743" height="0.2000" ry="0.1000" fill="currentColor"/>
<rect transform="translate(0.0000, 16.8711)" x="26.4951" y="-0.1000" width="1.8202" height="0.2000" ry="0.1000" fill="currentColor"/>
<rect transform="translate(0.0000, 16.8711)" x="29.7612" y="-0.1000" width="1.8202" height="0.2000" ry="0.1000" fill="currentColor"/>
<rect transform="translate(0.0000, 16.8711)" x="49.4958" y="-0.1000" width="2.0850" height="0.2000" ry="0.1000" fill="currentColor"/>
<rect transform="translate(0.0000, 16.8711)" x="62.8427" y="-0.1000" width="1.9743" height="0.2000" ry="0.1000" fill="currentColor"/>
<rect transform="translate(0.0000, 16.8711)" x="70.9305" y="-0.1000" width="2.0850" height="0.2000" ry="0.1000" fill="currentColor"/>
<rect transform="translate(0.0000, 16.8711)" x="85.3804" y="-0.1000" width="1.9743" height="0.2000" ry="0.1000" fill="currentColor"/>
<line transform="translate(7.9668, 21.8711)" stroke-linejoin="round" stroke-linecap="round" stroke-width="0.1000" stroke="currentColor" x1="0.0500" y1="-0.0000" x2="118.3390" y2="-0.0000"/>
<line transform="translate(7.9668, 20.8711)" stroke-linejoin="round" stroke-linecap="round" stroke-width="0.1000" stroke="currentColor" x1="0.0500" y1="-0.0000" x2="118.3390" y2="-0.0000"/>
<line transform="translate(7.9668, 19.8711)" stroke-linejoin="round" stroke-linecap="round" stroke-width="0.1000" stroke="currentColor" x1="0.0500" y1="-0.0000" x2="118.3390" y2="-0.0000"/>
<line transform="translate(7.9668, 18.8711)" stroke-linejoin="round" stroke-linecap="round" stroke-width="0.1000" stroke="currentColor" x1="0.0500" y1="-0.0000" x2="118.3390" y2="-0.0000"/>
<line transform="translate(7.9668, 17.8711)" stroke-linejoin="round" stroke-linecap="round" stroke-width="0.1000" stroke="currentColor" x1="0.0500" y1="-0.0000" x2="118.3390" y2="-0.0000"/>
<line transform="translate(7.9668, 9.8711)" stroke-linejoin="round" stroke-linecap="round" stroke-width="0.1000" stroke="currentColor" x1="0.0500" y1="-0.0000" x2="118.3390" y2="-0.0000"/>
<line transform="translate(7.9668, 8.8711)" stroke-linejoin="round" stroke-linecap="round" stroke-width="0.1000" stroke="currentColor" x1="0.0500" y1="-0.0000" x2="118.3390" y2="-0.0000"/>
<line transform="translate(7.9668, 7.8711)" stroke-linejoin="round" stroke-linecap="round" stroke-width="0.1000" stroke="currentColor" x1="0.0500" y1="-0.0000" x2="118.3390" y2="-0.0000"/>
<line transform="translate(7.9668, 6.8711)" stroke-linejoin="round" stroke-linecap="round" stroke-width="0.1000" stroke="currentColor" x1="0.0500" y1="-0.0000" x2="118.3390" y2="-0.0000"/>
<line transform="translate(7.9668, 5.8711)" stroke-linejoin="round" stroke-linecap="round" stroke-width="0.1000" stroke="currentColor" x1="0.0500" y1="-0.0000" x2="118.3390" y2="-0.0000"/>
<path transform="translate(49.8433, 8.8711) scale(0.0040, -0.0040)" d="M315 65c0 24 -21 41 -42 41c-4 0 -8 0 -12 -1c-31 -9 -77 -40 -114 -64s-84 -53 -104 -78c-7 -8 -11 -18 -11 -28c0 -24 21 -41 42 -41c4 0 8 0 12 1c31 9 78 40 115 64s84 53 104 78c7 8 10 18 10 28zM264 137c47 0 83 -21 83 -72c0 -19 -4 -37 -10 -56
c-12 -38 -32 -74 -65 -96c-54 -36 -113 -51 -188 -51c-47 0 -84 22 -84 73c0 19 5 37 11 56c12 38 31 74 64 96c54 36 114 50 189 50z" fill="currentColor"/>
<g transform="translate(49.2771, 13.5261)" >
<path transform="scale(0.0040, -0.0040)" d="M-41 146c26 76 82 153 149 153c22 0 36 -20 41 -45c22 26 51 45 81 45c23 0 38 -21 44 -46c22 27 51 46 80 46c33 0 59 -35 59 -69c0 -5 -1 -10 -2 -15l-35 -149c0 -2 -1 -4 -1 -5c0 -5 2 -8 7 -8c9 0 27 11 48 31c4 4 9 6 13 6c6 0 11 -4 11 -10c0 -4 -3 -8 -7 -12
c-40 -38 -85 -75 -131 -75c-20 0 -32 13 -32 32c0 4 0 7 1 11l39 165c1 5 2 9 2 14c0 10 -4 18 -14 18c-16 0 -33 -16 -39 -32l-53 -183c-3 -10 -12 -18 -22 -18h-41c-10 0 -16 8 -13 18l52 183c2 6 3 11 3 16c0 9 -4 16 -13 16c-16 0 -35 -15 -41 -32l-62 -183
c-3 -10 -14 -18 -24 -18h-41c-10 0 -15 8 -12 18l63 183c2 5 2 10 2 15c0 10 -3 17 -13 17c-29 0 -54 -53 -66 -87c-4 -11 -15 -17 -23 -17c-7 0 -12 4 -12 11c0 2 1 4 2 6z" fill="currentColor"/>

<path transform="translate(1.7413, 0.0000) scale(0.0040, -0.0040)" d="M253 245l-50 -163c-30 -99 -121 -255 -218 -255c-45 0 -87 27 -87 69c0 39 17 77 52 77c24 0 44 -20 44 -44c0 -30 -38 -24 -38 -54c0 -10 11 -11 23 -11h6c48 0 61 58 73 108l68 273h-49c-11 0 -19 8 -19 19s8 19 19 19h60c32 96 118 191 213 191c45 0 87 -27 87 -69
c0 -39 -17 -77 -52 -77c-24 0 -44 19 -44 43c0 30 38 25 38 55c0 10 -10 11 -22 11h-7c-62 0 -70 -88 -86 -154h55c11 0 19 -8 19 -19s-8 -19 -19 -19h-66z" fill="currentColor"/>
</g>
<path transform="translate(50.1213, 6.3711) scale(0.0040, -0.0040)" d="M220 138c56 0 109 -29 109 -91c0 -72 -56 -121 -103 -149c-36 -21 -76 -36 -117 -36c-56 0 -109 29 -109 91c0 72 56 121 103 149c36 21 76 36 117 36z" fill="currentColor"/>
<path transform="translate(50.1213, 9.8711) scale(0.0040, -0.0040)" d="M220 138c56 0 109 -29 109 -91c0 -72 -56 -121 -103 -149c-36 -21 -76 -36 -117 -36c-56 0 -109 29 -109 91c0 72 56 121 103 149c36 21 76 36 117 36z" fill="currentColor"/>
<path transform="translate(44.0033, 6.8711) scale(0.0040, -0.0040)" d="M216 -312c0 -10 -8 -19 -18 -19s-19 9 -19 19v145l-83 -31v-158c0 -10 -9 -19 -19 -19s-18 9 -18 19v145l-32 -12c-2 -1 -5 -1 -7 -1c-11 0 -20 9 -20 20v60c0 8 5 16 13 19l46 16v160l-32 -11c-2 -1 -5 -1 -7 -1c-11 0 -20 9 -20 20v60c0 8 5 15 13 18l46 17v158
c0 10 8 19 18 19s19 -9 19 -19v-145l83 31v158c0 10 9 19 19 19s18 -9 18 -19v-145l32 12c2 1 5 1 7 1c11 0 20 -9 20 -20v-60c0 -8 -5 -16 -13 -19l-46 -16v-160l32 11c2 1 5 1 7 1c11 0 20 -9 20 -20v-60c0 -8 -5 -15 -13 -18l-46 -17v-158zM96 65v-160l83 30v160z" fill="currentColor"/>
<rect transform="translate(45.5183, 7.8711)" x="-0.0650" y="-0.8122" width="0.1300" height="4.9396" ry="0.0400" fill="currentColor"/>
<path transform="translate(45.4533, 6.8711) scale(0.0040, -0.0040)" d="M220 138c56 0 109 -29 109 -91c0 -72 -56 -121 -103 -149c-36 -21 -76 -36 -117 -36c-56 0 -109 29 -109 91c0 72 56 121 103 149c36 21 76 36 117 36z" fill="currentColor"/>
<path transform="translate(40.7371, 7.3711) scale(0.0040, -0.0040)" d="M216 -312c0 -10 -8 -19 -18 -19s-19 9 -19 19v145l-83 -31v-158c0 -10 -9 -19 -19 -19s-18 9 -18 19v145l-32 -12c-2 -1 -5 -1 -7 -1c-11 0 -20 9 -20 20v60c0 8 5 16 13 19l46 16v160l-32 -11c-2 -1 -5 -1 -7 -1c-11 0 -20 9 -20 20v60c0 8 5 15 13 18l46 17v158
c0 10 8 19 18 19s19 -9 19 -19v-145l83 31v158c0 10 9 19 19 19s18 -9 18 -19v-145l32 12c2 1 5 1 7 1c11 0 20 -9 20 -20v-60c0 -8 -5 -16 -13 -19l-46 -16v-160l32 11c2 1 5 1 7 1c11 0 20 -9 20 -20v-60c0 -8 -5 -15 -13 -18l-46 -17v-158zM96 65v-160l83 30v160z" fill="currentColor"/>
<rect transform="translate(42.2521, 7.8711)" x="-0.0650" y="-0.3122" width="0.1300" height="4.8125" ry="0.0400" fill="currentColor"/>
<path transform="translate(42.1871, 7.3711) scale(0.0040, -0.0040)" d="M220 138c56 0 109 -29 109 -91c0 -72 -56 -121 -103 -149c-36 -21 -76 -36 -117 -36c-56 0 -109 29 -109 91c0 72 56 121 103 149c36 21 76 36 117 36z" fill="currentColor"/>
<rect transform="translate(38.9859, 7.8711)" x="-0.0650" y="0.1878" width="0.1300" height="4.6854" ry="0.0400" fill="currentColor"/>
<rect transform="translate(49.9083, 7.8711)" x="-0.0650" y="0.2614" width="0.1300" height="3.7386" ry="0.0400" fill="currentColor"/>
<path transform="translate(51.8875, 6.3711) scale(0.0040, -0.0040)" d="M0 0c0 31 25 56 56 56s56 -25 56 -56s-25 -56 -56 -56s-56 25 -56 56z" fill="currentColor"/>
<rect transform="translate(51.3725, 7.8711)" x="-0.0650" y="-4.5044" width="0.1300" height="6.3166" ry="0.0400" fill="currentColor"/>
<path transform="translate(51.8875, 9.3711) scale(0.0040, -0.0040)" d="M0 0c0 31 25 56 56 56s56 -25 56 -56s-25 -56 -56 -56s-56 25 -56 56z" fill="currentColor"/>
<text transform="translate(46.5826, 5.0211)" font-family="Lyon Text" font-size="2.7719" text-anchor="start" fill="currentColor">
<tspan>
A</tspan>
</text>
<text transform="translate(48.4604, 4.0211)" font-family="Lyon Text" font-size="1.9600" text-anchor="start" fill="currentColor">
<tspan>
2</tspan>
</text>
<path transform="translate(49.8433, 16.3711) scale(0.0040, -0.0040)" d="M315 65c0 24 -21 41 -42 41c-4 0 -8 0 -12 -1c-31 -9 -77 -40 -114 -64s-84 -53 -104 -78c-7 -8 -11 -18 -11 -28c0 -24 21 -41 42 -41c4 0 8 0 12 1c31 9 78 40 115 64s84 53 104 78c7 8 10 18 10 28zM264 137c47 0 83 -21 83 -72c0 -19 -4 -37 -10 -56
c-12 -38 -32 -74 -65 -96c-54 -36 -113 -51 -188 -51c-47 0 -84 22 -84 73c0 19 5 37 11 56c12 38 31 74 64 96c54 36 114 50 189 50z" fill="currentColor"/>
<path transform="translate(49.8433, 17.3711) scale(0.0040, -0.0040)" d="M315 65c0 24 -21 41 -42 41c-4 0 -8 0 -12 -1c-31 -9 -77 -40 -114 -64s-84 -53 -104 -78c-7 -8 -11 -18 -11 -28c0 -24 21 -41 42 -41c4 0 8 0 12 1c31 9 78 40 115 64s84 53 104 78c7 8 10 18 10 28zM264 137c47 0 83 -21 83 -72c0 -19 -4 -37 -10 -56
c-12 -38 -32 -74 -65 -96c-54 -36 -113 -51 -188 -51c-47 0 -84 22 -84 73c0 19 5 37 11 56c12 38 31 74 64 96c54 36 114 50 189 50z" fill="currentColor"/>
<path transform="translate(49.8433, 18.3711) scale(0.0040, -0.0040)" d="M315 65c0 24 -21 41 -42 41c-4 0 -8 0 -12 -1c-31 -9 -77 -40 -114 -64s-84 -53 -104 -78c-7 -8 -11 -18 -11 -28c0 -24 21 -41 42 -41c4 0 8 0 12 1c31 9 78 40 115 64s84 53 104 78c7 8 10 18 10 28zM264 137c47 0 83 -21 83 -72c0 -19 -4 -37 -10 -56
c-12 -38 -32 -74 -65 -96c-54 -36 -113 -51 -188 -51c-47 0 -84 22 -84 73c0 19 5 37 11 56c12 38 31 74 64 96c54 36 114 50 189 50z" fill="currentColor"/>
<path transform="translate(49.8433, 19.8711) scale(0.0040, -0.0040)" d="M315 65c0 24 -21 41 -42 41c-4 0 -8 0 -12 -1c-31 -9 -77 -40 -114 -64s-84 -53 -104 -78c-7 -8 -11 -18 -11 -28c0 -24 21 -41 42 -41c4 0 8 0 12 1c31 9 78 40 115 64s84 53 104 78c7 8 10 18 10 28zM264 137c47 0 83 -21 83 -72c0 -19 -4 -37 -10 -56
c-12 -38 -32 -74 -65 -96c-54 -36 -113 -51 -188 -51c-47 0 -84 22 -84 73c0 19 5 37 11 56c12 38 31 74 64 96c54 36 114 50 189 50z" fill="currentColor"/>
<path transform="translate(49.8433, 21.8711) scale(0.0040, -0.0040)" d="M315 65c0 24 -21 41 -42 41c-4 0 -8 0 -12 -1c-31 -9 -77 -40 -114 -64s-84 -53 -104 -78c-7 -8 -11 -18 -11 -28c0 -24 21 -41 42 -41c4 0 8 0 12 1c31 9 78 40 115 64s84 53 104 78c7 8 10 18 10 28zM264 137c47 0 83 -21 83 -72c0 -19 -4 -37 -10 -56
c-12 -38 -32 -74 -65 -96c-54 -36 -113 -51 -188 -51c-47 0 -84 22 -84 73c0 19 5 37 11 56c12 38 31 74 64 96c54 36 114 50 189 50z" fill="currentColor"/>
<path transform="translate(48.5433, 16.8711) scale(0.0040, -0.0040)" d="M42 278c-4 3 -6 8 -6 12c0 8 7 16 16 16c3 0 7 -1 10 -4l128 -107c8 -6 11 -13 11 -20c0 -24 -39 -51 -68 -78c-15 -14 -23 -34 -23 -53c0 -17 5 -33 17 -47l31 -25c4 -3 6 -8 6 -12c0 -8 -7 -16 -16 -16c-3 0 -7 1 -10 4l-128 107c-8 6 -11 13 -11 20c0 24 39 51 68 78
c15 14 23 34 23 53c0 17 -5 33 -17 47z" fill="currentColor"/>
<path transform="translate(48.5433, 17.8711) scale(0.0040, -0.0040)" d="M42 278c-4 3 -6 8 -6 12c0 8 7 16 16 16c3 0 7 -1 10 -4l128 -107c8 -6 11 -13 11 -20c0 -24 -39 -51 -68 -78c-15 -14 -23 -34 -23 -53c0 -17 5 -33 17 -47l31 -25c4 -3 6 -8 6 -12c0 -8 -7 -16 -16 -16c-3 0 -7 1 -10 4l-128 107c-8 6 -11 13 -11 20c0 24 39 51 68 78
c15 14 23 34 23 53c0 17 -5 33 -17 47z" fill="currentColor"/>
<path transform="translate(48.5433, 18.8711) scale(0.0040, -0.0040)" d="M42 278c-4 3 -6 8 -6 12c0 8 7 16 16 16c3 0 7 -1 10 -4l128 -107c8 -6 11 -13 11 -20c0 -24 -39 -51 -68 -78c-15 -14 -23 -34 -23 -53c0 -17 5 -33 17 -47l31 -25c4 -3 6 -8 6 -12c0 -8 -7 -16 -16 -16c-3 0 -7 1 -10 4l-128 107c-8 6 -11 13 -11 20c0 24 39 51 68 78
c15 14 23 34 23 53c0 17 -5 33 -17 47z" fill="currentColor"/>
<path transform="translate(48.5433, 19.8711) scale(0.0040, -0.0040)" d="M42 278c-4 3 -6 8 -6 12c0 8 7 16 16 16c3 0 7 -1 10 -4l128 -107c8 -6 11 -13 11 -20c0 -24 -39 -51 -68 -78c-15 -14 -23 -34 -23 -53c0 -17 5 -33 17 -47l31 -25c4 -3 6 -8 6 -12c0 -8 -7 -16 -16 -16c-3 0 -7 1 -10 4l-128 107c-8 6 -11 13 -11 20c0 24 39 51 68 78
c15 14 23 34 23 53c0 17 -5 33 -17 47z" fill="currentColor"/>
<path transform="translate(48.5433, 20.8711) scale(0.0040, -0.0040)" d="M42 278c-4 3 -6 8 -6 12c0 8 7 16 16 16c3 0 7 -1 10 -4l128 -107c8 -6 11 -13 11 -20c0 -24 -39 -51 -68 -78c-15 -14 -23 -34 -23 -53c0 -17 5 -33 17 -47l31 -25c4 -3 6 -8 6 -12c0 -8 -7 -16 -16 -16c-3 0 -7 1 -10 4l-128 107c-8 6 -11 13 -11 20c0 24 39 51 68 78
c15 14 23 34 23 53c0 17 -5 33 -17 47z" fill="currentColor"/>
<path transform="translate(48.5433, 21.8711) scale(0.0040, -0.0040)" d="M42 278c-4 3 -6 8 -6 12c0 8 7 16 16 16c3 0 7 -1 10 -4l128 -107c8 -6 11 -13 11 -20c0 -24 -39 -51 -68 -78c-15 -14 -23 -34 -23 -53c0 -17 5 -33 17 -47l31 -25c4 -3 6 -8 6 -12c0 -8 -7 -16 -16 -16c-3 0 -7 1 -10 4l-128 107c-8 6 -11 13 -11 20c0 24 39 51 68 78
c15 14 23 34 23 53c0 17 -5 33 -17 47z" fill="currentColor"/>
<path transform="translate(49.8433, 7.8711) scale(0.0040, -0.0040)" d="M315 65c0 24 -21 41 -42 41c-4 0 -8 0 -12 -1c-31 -9 -77 -40 -114 -64s-84 -53 -104 -78c-7 -8 -11 -18 -11 -28c0 -24 21 -41 42 -41c4 0 8 0 12 1c31 9 78 40 115 64s84 53 104 78c7 8 10 18 10 28zM264 137c47 0 83 -21 83 -72c0 -19 -4 -37 -10 -56
c-12 -38 -32 -74 -65 -96c-54 -36 -113 -51 -188 -51c-47 0 -84 22 -84 73c0 19 5 37 11 56c12 38 31 74 64 96c54 36 114 50 189 50z" fill="currentColor"/>
<rect transform="translate(27.9212, 19.8711)" x="-0.0650" y="-7.4834" width="0.1300" height="4.2956" ry="0.0400" fill="currentColor"/>
<path transform="translate(26.6700, 16.8711) scale(0.0040, -0.0040)" d="M220 138c56 0 109 -29 109 -91c0 -72 -56 -121 -103 -149c-36 -21 -76 -36 -117 -36c-56 0 -109 29 -109 91c0 72 56 121 103 149c36 21 76 36 117 36z" fill="currentColor"/>
<rect transform="translate(24.6550, 19.8711)" x="-0.0650" y="-7.1105" width="0.1300" height="4.4227" ry="0.0400" fill="currentColor"/>
<path transform="translate(23.4039, 17.3711) scale(0.0040, -0.0040)" d="M220 138c56 0 109 -29 109 -91c0 -72 -56 -121 -103 -149c-36 -21 -76 -36 -117 -36c-56 0 -109 29 -109 91c0 72 56 121 103 149c36 21 76 36 117 36z" fill="currentColor"/>
<rect transform="translate(22.1389, 19.8711)" x="-0.0650" y="-6.8232" width="0.1300" height="4.6354" ry="0.0400" fill="currentColor"/>
<path transform="translate(20.8877, 17.8711) scale(0.0040, -0.0040)" d="M220 138c56 0 109 -29 109 -91c0 -72 -56 -121 -103 -149c-36 -21 -76 -36 -117 -36c-56 0 -109 29 -109 91c0 72 56 121 103 149c36 21 76 36 117 36z" fill="currentColor"/>
<path transform="translate(38.9209, 7.8711) scale(0.0040, -0.0040)" d="M220 138c56 0 109 -29 109 -91c0 -72 -56 -121 -103 -149c-36 -21 -76 -36 -117 -36c-56 0 -109 29 -109 91c0 72 56 121 103 149c36 21 76 36 117 36z" fill="currentColor"/>
<rect transform="translate(36.4698, 7.8711)" x="-0.0650" y="0.6878" width="0.1300" height="4.4727" ry="0.0400" fill="currentColor"/>
<path transform="translate(36.4048, 8.3711) scale(0.0040, -0.0040)" d="M220 138c56 0 109 -29 109 -91c0 -72 -56 -121 -103 -149c-36 -21 -76 -36 -117 -36c-56 0 -109 29 -109 91c0 72 56 121 103 149c36 21 76 36 117 36z" fill="currentColor"/>
<rect transform="translate(33.7036, 7.8711)" x="-0.0650" y="1.6878" width="0.1300" height="3.7885" ry="0.0400" fill="currentColor"/>
<path transform="translate(33.6386, 9.3711) scale(0.0040, -0.0040)" d="M220 138c56 0 109 -29 109 -91c0 -72 -56 -121 -103 -149c-36 -21 -76 -36 -117 -36c-56 0 -109 29 -109 91c0 72 56 121 103 149c36 21 76 36 117 36z" fill="currentColor"/>
<path transform="translate(28.4862, 16.3711) scale(0.0040, -0.0040)" d="M216 -312c0 -10 -8 -19 -18 -19s-19 9 -19 19v145l-83 -31v-158c0 -10 -9 -19 -19 -19s-18 9 -18 19v145l-32 -12c-2 -1 -5 -1 -7 -1c-11 0 -20 9 -20 20v60c0 8 5 16 13 19l46 16v160l-32 -11c-2 -1 -5 -1 -7 -1c-11 0 -20 9 -20 20v60c0 8 5 15 13 18l46 17v158
c0 10 8 19 18 19s19 -9 19 -19v-145l83 31v158c0 10 9 19 19 19s18 -9 18 -19v-145l32 12c2 1 5 1 7 1c11 0 20 -9 20 -20v-60c0 -8 -5 -16 -13 -19l-46 -16v-160l32 11c2 1 5 1 7 1c11 0 20 -9 20 -20v-60c0 -8 -5 -15 -13 -18l-46 -17v-158zM96 65v-160l83 30v160z" fill="currentColor"/>
<rect transform="translate(31.1874, 19.8711)" x="-0.0650" y="-7.8564" width="0.1300" height="4.1685" ry="0.0400" fill="currentColor"/>
<path transform="translate(29.9362, 16.3711) scale(0.0040, -0.0040)" d="M220 138c56 0 109 -29 109 -91c0 -72 -56 -121 -103 -149c-36 -21 -76 -36 -117 -36c-56 0 -109 29 -109 91c0 72 56 121 103 149c36 21 76 36 117 36z" fill="currentColor"/>
<path transform="translate(25.2200, 16.8711) scale(0.0040, -0.0040)" d="M216 -312c0 -10 -8 -19 -18 -19s-19 9 -19 19v145l-83 -31v-158c0 -10 -9 -19 -19 -19s-18 9 -18 19v145l-32 -12c-2 -1 -5 -1 -7 -1c-11 0 -20 9 -20 20v60c0 8 5 16 13 19l46 16v160l-32 -11c-2 -1 -5 -1 -7 -1c-11 0 -20 9 -20 20v60c0 8 5 15 13 18l46 17v158
c0 10 8 19 18 19s19 -9 19 -19v-145l83 31v158c0 10 9 19 19 19s18 -9 18 -19v-145l32 12c2 1 5 1 7 1c11 0 20 -9 20 -20v-60c0 -8 -5 -16 -13 -19l-46 -16v-160l32 11c2 1 5 1 7 1c11 0 20 -9 20 -20v-60c0 -8 -5 -15 -13 -18l-46 -17v-158zM96 65v-160l83 30v160z" fill="currentColor"/>
<rect transform="translate(71.3430, 7.8711)" x="-0.0650" y="0.2614" width="0.1300" height="3.7386" ry="0.0400" fill="currentColor"/>
<rect transform="translate(73.0017, 7.8711)" x="-0.0650" y="-4.8226" width="0.1300" height="6.6347" ry="0.0400" fill="currentColor"/>
<path transform="translate(71.2780, 16.3711) scale(0.0040, -0.0040)" d="M315 65c0 24 -21 41 -42 41c-4 0 -8 0 -12 -1c-31 -9 -77 -40 -114 -64s-84 -53 -104 -78c-7 -8 -11 -18 -11 -28c0 -24 21 -41 42 -41c4 0 8 0 12 1c31 9 78 40 115 64s84 53 104 78c7 8 10 18 10 28zM264 137c47 0 83 -21 83 -72c0 -19 -4 -37 -10 -56
c-12 -38 -32 -74 -65 -96c-54 -36 -113 -51 -188 -51c-47 0 -84 22 -84 73c0 19 5 37 11 56c12 38 31 74 64 96c54 36 114 50 189 50z" fill="currentColor"/>
<path transform="translate(71.2780, 17.3711) scale(0.0040, -0.0040)" d="M315 65c0 24 -21 41 -42 41c-4 0 -8 0 -12 -1c-31 -9 -77 -40 -114 -64s-84 -53 -104 -78c-7 -8 -11 -18 -11 -28c0 -24 21 -41 42 -41c4 0 8 0 12 1c31 9 78 40 115 64s84 53 104 78c7 8 10 18 10 28zM264 137c47 0 83 -21 83 -72c0 -19 -4 -37 -10 -56
c-12 -38 -32 -74 -65 -96c-54 -36 -113 -51 -188 -51c-47 0 -84 22 -84 73c0 19 5 37 11 56c12 38 31 74 64 96c54 36 114 50 189 50z" fill="currentColor"/>
<path transform="translate(71.2780, 18.3711) scale(0.0040, -0.0040)" d="M315 65c0 24 -21 41 -42 41c-4 0 -8 0 -12 -1c-31 -9 -77 -40 -114 -64s-84 -53 -104 -78c-7 -8 -11 -18 -11 -28c0 -24 21 -41 42 -41c4 0 8 0 12 1c31 9 78 40 115 64s84 53 104 78c7 8 10 18 10 28zM264 137c47 0 83 -21 83 -72c0 -19 -4 -37 -10 -56
c-12 -38 -32 -74 -65 -96c-54 -36 -113 -51 -188 -51c-47 0 -84 22 -84 73c0 19 5 37 11 56c12 38 31 74 64 96c54 36 114 50 189 50z" fill="currentColor"/>
<path transform="translate(71.2780, 19.8711) scale(0.0040, -0.0040)" d="M315 65c0 24 -21 41 -42 41c-4 0 -8 0 -12 -1c-31 -9 -77 -40 -114 -64s-84 -53 -104 -78c-7 -8 -11 -18 -11 -28c0 -24 21 -41 42 -41c4 0 8 0 12 1c31 9 78 40 115 64s84 53 104 78c7 8 10 18 10 28zM264 137c47 0 83 -21 83 -72c0 -19 -4 -37 -10 -56
c-12 -38 -32 -74 -65 -96c-54 -36 -113 -51 -188 -51c-47 0 -84 22 -84 73c0 19 5 37 11 56c12 38 31 74 64 96c54 36 114 50 189 50z" fill="currentColor"/>
<path transform="translate(71.2780, 21.8711) scale(0.0040, -0.0040)" d="M315 65c0 24 -21 41 -42 41c-4 0 -8 0 -12 -1c-31 -9 -77 -40 -114 -64s-84 -53 -104 -78c-7 -8 -11 -18 -11 -28c0 -24 21 -41 42 -41c4 0 8 0 12 1c31 9 78 40 115 64s84 53 104 78c7 8 10 18 10 28zM264 137c47 0 83 -21 83 -72c0 -19 -4 -37 -10 -56
c-12 -38 -32 -74 -65 -96c-54 -36 -113 -51 -188 -51c-47 0 -84 22 -84 73c0 19 5 37 11 56c12 38 31 74 64 96c54 36 114 50 189 50z" fill="currentColor"/>
<path transform="translate(69.9780, 16.8711) scale(0.0040, -0.0040)" d="M42 278c-4 3 -6 8 -6 12c0 8 7 16 16 16c3 0 7 -1 10 -4l128 -107c8 -6 11 -13 11 -20c0 -24 -39 -51 -68 -78c-15 -14 -23 -34 -23 -53c0 -17 5 -33 17 -47l31 -25c4 -3 6 -8 6 -12c0 -8 -7 -16 -16 -16c-3 0 -7 1 -10 4l-128 107c-8 6 -11 13 -11 20c0 24 39 51 68 78
c15 14 23 34 23 53c0 17 -5 33 -17 47z" fill="currentColor"/>
<path transform="translate(69.9780, 17.8711) scale(0.0040, -0.0040)" d="M42 278c-4 3 -6 8 -6 12c0 8 7 16 16 16c3 0 7 -1 10 -4l128 -107c8 -6 11 -13 11 -20c0 -24 -39 -51 -68 -78c-15 -14 -23 -34 -23 -53c0 -17 5 -33 17 -47l31 -25c4 -3 6 -8 6 -12c0 -8 -7 -16 -16 -16c-3 0 -7 1 -10 4l-128 107c-8 6 -11 13 -11 20c0 24 39 51 68 78
c15 14 23 34 23 53c0 17 -5 33 -17 47z" fill="currentColor"/>
<path transform="translate(69.9780, 18.8711) scale(0.0040, -0.0040)" d="M42 278c-4 3 -6 8 -6 12c0 8 7 16 16 16c3 0 7 -1 10 -4l128 -107c8 -6 11 -13 11 -20c0 -24 -39 -51 -68 -78c-15 -14 -23 -34 -23 -53c0 -17 5 -33 17 -47l31 -25c4 -3 6 -8 6 -12c0 -8 -7 -16 -16 -16c-3 0 -7 1 -10 4l-128 107c-8 6 -11 13 -11 20c0 24 39 51 68 78
c15 14 23 34 23 53c0 17 -5 33 -17 47z" fill="currentColor"/>
<path transform="translate(69.9780, 19.8711) scale(0.0040, -0.0040)" d="M42 278c-4 3 -6 8 -6 12c0 8 7 16 16 16c3 0 7 -1 10 -4l128 -107c8 -6 11 -13 11 -20c0 -24 -39 -51 -68 -78c-15 -14 -23 -34 -23 -53c0 -17 5 -33 17 -47l31 -25c4 -3 6 -8 6 -12c0 -8 -7 -16 -16 -16c-3 0 -7 1 -10 4l-128 107c-8 6 -11 13 -11 20c0 24 39 51 68 78
c15 14 23 34 23 53c0 17 -5 33 -17 47z" fill="currentColor"/>
<path transform="translate(69.9780, 20.8711) scale(0.0040, -0.0040)" d="M42 278c-4 3 -6 8 -6 12c0 8 7 16 16 16c3 0 7 -1 10 -4l128 -107c8 -6 11 -13 11 -20c0 -24 -39 -51 -68 -78c-15 -14 -23 -34 -23 -53c0 -17 5 -33 17 -47l31 -25c4 -3 6 -8 6 -12c0 -8 -7 -16 -16 -16c-3 0 -7 1 -10 4l-128 107c-8 6 -11 13 -11 20c0 24 39 51 68 78
c15 14 23 34 23 53c0 17 -5 33 -17 47z" fill="currentColor"/>
<path transform="translate(69.9780, 21.8711) scale(0.0040, -0.0040)" d="M42 278c-4 3 -6 8 -6 12c0 8 7 16 16 16c3 0 7 -1 10 -4l128 -107c8 -6 11 -13 11 -20c0 -24 -39 -51 -68 -78c-15 -14 -23 -34 -23 -53c0 -17 5 -33 17 -47l31 -25c4 -3 6 -8 6 -12c0 -8 -7 -16 -16 -16c-3 0 -7 1 -10 4l-128 107c-8 6 -11 13 -11 20c0 24 39 51 68 78
c15 14 23 34 23 53c0 17 -5 33 -17 47z" fill="currentColor"/>
<path transform="translate(71.2780, 7.8711) scale(0.0040, -0.0040)" d="M315 65c0 24 -21 41 -42 41c-4 0 -8 0 -12 -1c-31 -9 -77 -40 -114 -64s-84 -53 -104 -78c-7 -8 -11 -18 -11 -28c0 -24 21 -41 42 -41c4 0 8 0 12 1c31 9 78 40 115 64s84 53 104 78c7 8 10 18 10 28zM264 137c47 0 83 -21 83 -72c0 -19 -4 -37 -10 -56
c-12 -38 -32 -74 -65 -96c-54 -36 -113 -51 -188 -51c-47 0 -84 22 -84 73c0 19 5 37 11 56c12 38 31 74 64 96c54 36 114 50 189 50z" fill="currentColor"/>
<path transform="translate(71.2780, 8.8711) scale(0.0040, -0.0040)" d="M315 65c0 24 -21 41 -42 41c-4 0 -8 0 -12 -1c-31 -9 -77 -40 -114 -64s-84 -53 -104 -78c-7 -8 -11 -18 -11 -28c0 -24 21 -41 42 -41c4 0 8 0 12 1c31 9 78 40 115 64s84 53 104 78c7 8 10 18 10 28zM264 137c47 0 83 -21 83 -72c0 -19 -4 -37 -10 -56
c-12 -38 -32 -74 -65 -96c-54 -36 -113 -51 -188 -51c-47 0 -84 22 -84 73c0 19 5 37 11 56c12 38 31 74 64 96c54 36 114 50 189 50z" fill="currentColor"/>
<path transform="translate(71.7506, 6.3711) scale(0.0040, -0.0040)" d="M220 138c56 0 109 -29 109 -91c0 -72 -56 -121 -103 -149c-36 -21 -76 -36 -117 -36c-56 0 -109 29 -109 91c0 72 56 121 103 149c36 21 76 36 117 36z" fill="currentColor"/>
<path transform="translate(71.7506, 9.8711) scale(0.0040, -0.0040)" d="M220 138c56 0 109 -29 109 -91c0 -72 -56 -121 -103 -149c-36 -21 -76 -36 -117 -36c-56 0 -109 29 -109 91c0 72 56 121 103 149c36 21 76 36 117 36z" fill="currentColor"/>
<path transform="translate(66.8880, 3.4111) scale(0.0040, -0.0040)" d="M0 0c0 -198 209 -335 209 -533c0 -71 -16 -141 -42 -207c-5 -8 -12 -12 -19 -12c-13 0 -26 11 -23 27c26 61 42 126 42 192c0 104 -95 208 -167 283h-16v250h16z" fill="currentColor"/>
<path transform="translate(66.8880, 3.4111) scale(0.0040, -0.0040)" d="M0 0c0 -198 209 -335 209 -533c0 -71 -16 -141 -42 -207c-5 -8 -12 -12 -19 -12c-13 0 -26 11 -23 27c26 61 42 126 42 192c0 104 -95 208 -167 283h-16v250h16z" fill="currentColor"/>
<polygon transform="translate(19.3077, 13.3711)" stroke-linejoin="round" stroke-linecap="round" stroke-width="0.0800" fill="currentColor" stroke="currentColor" points="26.2356 -3.2000 26.2356 -2.8000 0.0400 0.2000 0.0400 -0.2000"/>
<polygon transform="translate(19.3077, 14.1811)" stroke-linejoin="round" stroke-linecap="round" stroke-width="0.0800" fill="currentColor" stroke="currentColor" points="26.2356 -3.2000 26.2356 -2.8000 0.0400 0.2000 0.0400 -0.2000"/>
<polygon transform="translate(19.3077, 14.9911)" stroke-linejoin="round" stroke-linecap="round" stroke-width="0.0800" fill="currentColor" stroke="currentColor" points="26.2356 -3.2000 26.2356 -2.8000 0.0400 0.2000 0.0400 -0.2000"/>
<path transform="translate(18.1215, 19.8711)" stroke-width="0.0800" stroke-linejoin="round" stroke-linecap="round" stroke="currentColor" fill="currentColor" d="M1.83338638939306 -7.64742133329619C3.80570591653295 -12.1515586872782 25.0176801791476 -18.019485504392 27.8720773893931 -14.900006C25.0498782782621 -17.9038858399746 3.83790401564745 -12.0359590228608 1.83338638939306 -7.64742133329619z"/>
<path transform="translate(50.1213, 7.8711)" stroke-width="0.1000" stroke-linejoin="round" stroke-linecap="round" stroke="currentColor" fill="currentColor" d="M1.28073128945113 -5.24443038934793C3.19778014603338 -6.71988983940369 9.83600907764362 -6.27041860616899 11.5366670008654 -4.550006C9.82857804605316 -6.1606698942426 3.19034911444292 -6.6101411274773 1.28073128945113 -5.24443038934793z"/>
<polygon transform="translate(51.3075, 3.3711)" stroke-linejoin="round" stroke-linecap="round" stroke-width="0.0800" fill="currentColor" stroke="currentColor" points="4.5081 -0.5100 4.5081 -0.1100 0.0400 0.2000 0.0400 -0.2000"/>
<polygon transform="translate(54.6906, 3.9505)" stroke-linejoin="round" stroke-linecap="round" stroke-width="0.0800" fill="currentColor" stroke="currentColor" points="1.1250 -0.2794 1.1250 0.1206 0.0400 0.2000 0.0400 -0.2000"/>
<path transform="translate(65.5718, 7.8711)" stroke-width="0.1000" stroke-linejoin="round" stroke-linecap="round" stroke="currentColor" fill="currentColor" d="M1.669185 -6.550006C4.14617638114947 -8.36644038001794 19.3593106962544 -8.36644038001794 21.8363020774038 -6.550006C19.3593106962544 -8.25644038001794 4.14617638114947 -8.25644038001794 1.669185 -6.550006z"/>
<path transform="translate(65.5718, 7.8711)" stroke-width="0.0800" stroke-linejoin="round" stroke-linecap="round" stroke="currentColor" fill="currentColor" d="M0.858089000000007 3.0C1.82292485465594 3.85660475615278 5.67202970534406 3.85660475615278 6.63686555999999 3.0C5.67202970534406 3.73660475615278 1.82292485465594 3.73660475615278 0.858089000000007 3.0z"/>
<path transform="translate(65.5718, 7.8711)" stroke-width="0.0800" stroke-linejoin="round" stroke-linecap="round" stroke="currentColor" fill="currentColor" d="M2.352192 -2.5C3.16951330914337 -3.29282368645852 5.81954425085662 -3.29282368645852 6.63686555999999 -2.5C5.81954425085662 -3.17282368645852 3.16951330914337 -3.17282368645852 2.352192 -2.5z"/>
<text transform="translate(75.6575, 1.3528)" font-family="Lyon Text" font-style="italic" font-size="1.7461" text-anchor="start" fill="currentColor">
<tspan>
3</tspan>
</text>
<polygon transform="translate(72.9367, 3.0611)" stroke-linejoin="round" stroke-linecap="round" stroke-width="0.0800" fill="currentColor" stroke="currentColor" points="6.1184 -1.3900 6.1184 -0.9900 0.0400 0.2000 0.0400 -0.2000"/>
<path transform="translate(86.1569, 7.8711)" stroke-width="0.0800" stroke-linejoin="round" stroke-linecap="round" stroke="currentColor" fill="currentColor" d="M0.858088999999993 3.0C1.89017164168922 3.88079107858716 6.43701743640599 3.88079107858716 7.46910007809522 3.0C6.43701743640599 3.76079107858716 1.89017164168922 3.76079107858716 0.858088999999993 3.0z"/>
<path transform="translate(86.1569, 7.8711)" stroke-width="0.0800" stroke-linejoin="round" stroke-linecap="round" stroke="currentColor" fill="currentColor" d="M1.65117799999999 -2.5C2.61938565524838 -3.35788288858725 6.50089242284683 -3.35788288858725 7.46910007809522 -2.5C6.50089242284683 -3.23788288858725 2.61938565524838 -3.23788288858725 1.65117799999999 -2.5z"/>
<path transform="translate(93.1679, 7.8711)" stroke-width="0.1000" stroke-linejoin="round" stroke-linecap="round" stroke="currentColor" fill="currentColor" d="M1.25950391522952 -4.93523896709929C3.29053960582456 -6.57103008133538 11.6851463740148 -6.41169287884165 13.6526439152295 -4.700006C11.6830588508791 -6.30171268859287 3.28845208268883 -6.4610498910866 1.25950391522952 -4.93523896709929z"/>
<polygon transform="translate(94.3541, 3.6811)" stroke-linejoin="round" stroke-linecap="round" stroke-width="0.0800" fill="currentColor" stroke="currentColor" points="3.8062 -0.5100 3.8062 -0.1100 0.0400 0.2000 0.0400 -0.2000"/>
<path transform="translate(111.6538, 19.8711)" stroke-width="0.0800" stroke-linejoin="round" stroke-linecap="round" stroke="currentColor" fill="currentColor" d="M0.65808899999999 -3.050006C2.42710637269769 -4.50148983350859 8.72142762730229 -4.50148983350859 10.490445 -3.050006C8.72142762730229 -4.38148983350859 2.42710637269769 -4.38148983350859 0.65808899999999 -3.050006z"/>
<rect transform="translate(71.3430, 19.8711)" x="-0.0650" y="-3.2386" width="0.1300" height="7.9053" ry="0.0400" fill="currentColor"/>
<rect transform="translate(58.3068, 7.8711)" x="-0.0650" y="-4.5000" width="0.1300" height="6.3122" ry="0.0400" fill="currentColor"/>
<path transform="translate(57.0556, 6.3711) scale(0.0040, -0.0040)" d="M220 138c56 0 109 -29 109 -91c0 -72 -56 -121 -103 -149c-36 -21 -76 -36 -117 -36c-56 0 -109 29 -109 91c0 72 56 121 103 149c36 21 76 36 117 36z" fill="currentColor"/>
<path transform="translate(57.0556, 9.8711) scale(0.0040, -0.0040)" d="M220 138c56 0 109 -29 109 -91c0 -72 -56 -121 -103 -149c-36 -21 -76 -36 -117 -36c-56 0 -109 29 -109 91c0 72 56 121 103 149c36 21 76 36 117 36z" fill="currentColor"/>
<rect transform="translate(55.7906, 7.8711)" x="-0.0650" y="-4.8056" width="0.1300" height="6.1178" ry="0.0400" fill="currentColor"/>
<path transform="translate(54.5394, 5.8711) scale(0.0040, -0.0040)" d="M220 138c56 0 109 -29 109 -91c0 -72 -56 -121 -103 -149c-36 -21 -76 -36 -117 -36c-56 0 -109 29 -109 91c0 72 56 121 103 149c36 21 76 36 117 36z" fill="currentColor"/>
<path transform="translate(54.5394, 9.3711) scale(0.0040, -0.0040)" d="M220 138c56 0 109 -29 109 -91c0 -72 -56 -121 -103 -149c-36 -21 -76 -36 -117 -36c-56 0 -109 29 -109 91c0 72 56 121 103 149c36 21 76 36 117 36z" fill="currentColor"/>
<rect transform="translate(49.9083, 19.8711)" x="-0.0650" y="-3.2386" width="0.1300" height="7.9053" ry="0.0400" fill="currentColor"/>
<rect transform="translate(66.8230, 7.8711)" x="-0.0650" y="-4.5000" width="0.1300" height="6.3122" ry="0.0400" fill="currentColor"/>
<path transform="translate(65.5718, 6.3711) scale(0.0040, -0.0040)" d="M220 138c56 0 109 -29 109 -91c0 -72 -56 -121 -103 -149c-36 -21 -76 -36 -117 -36c-56 0 -109 29 -109 91c0 72 56 121 103 149c36 21 76 36 117 36z" fill="currentColor"/>
<path transform="translate(65.5718, 9.8711) scale(0.0040, -0.0040)" d="M220 138c56 0 109 -29 109 -91c0 -72 -56 -121 -103 -149c-36 -21 -76 -36 -117 -36c-56 0 -109 29 -109 91c0 72 56 121 103 149c36 21 76 36 117 36z" fill="currentColor"/>
<rect transform="translate(63.2368, 19.8711)" x="-0.0650" y="-3.3122" width="0.1300" height="6.6455" ry="0.0400" fill="currentColor"/>
<rect transform="translate(63.2368, 7.8711)" x="-0.0650" y="0.1878" width="0.1300" height="3.8122" ry="0.0400" fill="currentColor"/>
<path transform="translate(63.1718, 16.3711) scale(0.0040, -0.0040)" d="M220 138c56 0 109 -29 109 -91c0 -72 -56 -121 -103 -149c-36 -21 -76 -36 -117 -36c-56 0 -109 29 -109 91c0 72 56 121 103 149c36 21 76 36 117 36z" fill="currentColor"/>
<path transform="translate(63.1718, 17.3711) scale(0.0040, -0.0040)" d="M220 138c56 0 109 -29 109 -91c0 -72 -56 -121 -103 -149c-36 -21 -76 -36 -117 -36c-56 0 -109 29 -109 91c0 72 56 121 103 149c36 21 76 36 117 36z" fill="currentColor"/>
<path transform="translate(63.1718, 18.3711) scale(0.0040, -0.0040)" d="M220 138c56 0 109 -29 109 -91c0 -72 -56 -121 -103 -149c-36 -21 -76 -36 -117 -36c-56 0 -109 29 -109 91c0 72 56 121 103 149c36 21 76 36 117 36z" fill="currentColor"/>
<path transform="translate(63.1718, 19.8711) scale(0.0040, -0.0040)" d="M220 138c56 0 109 -29 109 -91c0 -72 -56 -121 -103 -149c-36 -21 -76 -36 -117 -36c-56 0 -109 29 -109 91c0 72 56 121 103 149c36 21 76 36 117 36z" fill="currentColor"/>
<path transform="translate(63.1718, 7.8711) scale(0.0040, -0.0040)" d="M220 138c56 0 109 -29 109 -91c0 -72 -56 -121 -103 -149c-36 -21 -76 -36 -117 -36c-56 0 -109 29 -109 91c0 72 56 121 103 149c36 21 76 36 117 36z" fill="currentColor"/>
<path transform="translate(63.1718, 8.8711) scale(0.0040, -0.0040)" d="M220 138c56 0 109 -29 109 -91c0 -72 -56 -121 -103 -149c-36 -21 -76 -36 -117 -36c-56 0 -109 29 -109 91c0 72 56 121 103 149c36 21 76 36 117 36z" fill="currentColor"/>
<path transform="translate(61.4299, 1.9300) scale(0.0040, -0.0040)" d="M-211 88c-8 2 -14 9 -14 18c0 10 9 19 19 19c2 0 3 -1 4 -1l408 -105c13 0 19 -6 19 -19s-6 -19 -19 -19l-408 -105c-1 0 -2 -1 -4 -1c-10 0 -19 9 -19 19c0 9 6 16 14 18l251 65l140 23l-140 23z" fill="currentColor"/>
<path transform="translate(60.7718, 6.3711) scale(0.0040, -0.0040)" d="M220 138c56 0 109 -29 109 -91c0 -72 -56 -121 -103 -149c-36 -21 -76 -36 -117 -36c-56 0 -109 29 -109 91c0 72 56 121 103 149c36 21 76 36 117 36z" fill="currentColor"/>
<path transform="translate(60.7718, 9.8711) scale(0.0040, -0.0040)" d="M220 138c56 0 109 -29 109 -91c0 -72 -56 -121 -103 -149c-36 -21 -76 -36 -117 -36c-56 0 -109 29 -109 91c0 72 56 121 103 149c36 21 76 36 117 36z" fill="currentColor"/>
<path transform="translate(58.3718, 3.4111) scale(0.0040, -0.0040)" d="M0 0c0 -198 209 -335 209 -533c0 -71 -16 -141 -42 -207c-5 -8 -12 -12 -19 -12c-13 0 -26 11 -23 27c26 61 42 126 42 192c0 104 -95 208 -167 283h-16v250h16z" fill="currentColor"/>
<path transform="translate(58.3718, 3.4111) scale(0.0040, -0.0040)" d="M0 0c0 -198 209 -335 209 -533c0 -71 -16 -141 -42 -207c-5 -8 -12 -12 -19 -12c-13 0 -26 11 -23 27c26 61 42 126 42 192c0 104 -95 208 -167 283h-16v250h16z" fill="currentColor"/>
<path transform="translate(92.7204, 18.3711) scale(0.0040, -0.0040)" d="M220 138c56 0 109 -29 109 -91c0 -72 -56 -121 -103 -149c-36 -21 -76 -36 -117 -36c-56 0 -109 29 -109 91c0 72 56 121 103 149c36 21 76 36 117 36z" fill="currentColor"/>
<path transform="translate(92.7204, 19.8711) scale(0.0040, -0.0040)" d="M220 138c56 0 109 -29 109 -91c0 -72 -56 -121 -103 -149c-36 -21 -76 -36 -117 -36c-56 0 -109 29 -109 91c0 72 56 121 103 149c36 21 76 36 117 36z" fill="currentColor"/>
<path transform="translate(92.7204, 21.8711) scale(0.0040, -0.0040)" d="M220 138c56 0 109 -29 109 -91c0 -72 -56 -121 -103 -149c-36 -21 -76 -36 -117 -36c-56 0 -109 29 -109 91c0 72 56 121 103 149c36 21 76 36 117 36z" fill="currentColor"/>
<path transform="translate(91.4204, 17.8711) scale(0.0040, -0.0040)" d="M42 278c-4 3 -6 8 -6 12c0 8 7 16 16 16c3 0 7 -1 10 -4l128 -107c8 -6 11 -13 11 -20c0 -24 -39 -51 -68 -78c-15 -14 -23 -34 -23 -53c0 -17 5 -33 17 -47l31 -25c4 -3 6 -8 6 -12c0 -8 -7 -16 -16 -16c-3 0 -7 1 -10 4l-128 107c-8 6 -11 13 -11 20c0 24 39 51 68 78
c15 14 23 34 23 53c0 17 -5 33 -17 47z" fill="currentColor"/>
<path transform="translate(91.4204, 18.8711) scale(0.0040, -0.0040)" d="M42 278c-4 3 -6 8 -6 12c0 8 7 16 16 16c3 0 7 -1 10 -4l128 -107c8 -6 11 -13 11 -20c0 -24 -39 -51 -68 -78c-15 -14 -23 -34 -23 -53c0 -17 5 -33 17 -47l31 -25c4 -3 6 -8 6 -12c0 -8 -7 -16 -16 -16c-3 0 -7 1 -10 4l-128 107c-8 6 -11 13 -11 20c0 24 39 51 68 78
c15 14 23 34 23 53c0 17 -5 33 -17 47z" fill="currentColor"/>
<path transform="translate(91.4204, 19.8711) scale(0.0040, -0.0040)" d="M42 278c-4 3 -6 8 -6 12c0 8 7 16 16 16c3 0 7 -1 10 -4l128 -107c8 -6 11 -13 11 -20c0 -24 -39 -51 -68 -78c-15 -14 -23 -34 -23 -53c0 -17 5 -33 17 -47l31 -25c4 -3 6 -8 6 -12c0 -8 -7 -16 -16 -16c-3 0 -7 1 -10 4l-128 107c-8 6 -11 13 -11 20c0 24 39 51 68 78
c15 14 23 34 23 53c0 17 -5 33 -17 47z" fill="currentColor"/>
<path transform="translate(91.4204, 20.8711) scale(0.0040, -0.0040)" d="M42 278c-4 3 -6 8 -6 12c0 8 7 16 16 16c3 0 7 -1 10 -4l128 -107c8 -6 11 -13 11 -20c0 -24 -39 -51 -68 -78c-15 -14 -23 -34 -23 -53c0 -17 5 -33 17 -47l31 -25c4 -3 6 -8 6 -12c0 -8 -7 -16 -16 -16c-3 0 -7 1 -10 4l-128 107c-8 6 -11 13 -11 20c0 24 39 51 68 78
c15 14 23 34 23 53c0 17 -5 33 -17 47z" fill="currentColor"/>
<path transform="translate(91.4204, 21.8711) scale(0.0040, -0.0040)" d="M42 278c-4 3 -6 8 -6 12c0 8 7 16 16 16c3 0 7 -1 10 -4l128 -107c8 -6 11 -13 11 -20c0 -24 -39 -51 -68 -78c-15 -14 -23 -34 -23 -53c0 -17 5 -33 17 -47l31 -25c4 -3 6 -8 6 -12c0 -8 -7 -16 -16 -16c-3 0 -7 1 -10 4l-128 107c-8 6 -11 13 -11 20c0 24 39 51 68 78
c15 14 23 34 23 53c0 17 -5 33 -17 47z" fill="currentColor"/>
<path transform="translate(92.7204, 7.8711) scale(0.0040, -0.0040)" d="M220 138c56 0 109 -29 109 -91c0 -72 -56 -121 -103 -149c-36 -21 -76 -36 -117 -36c-56 0 -109 29 -109 91c0 72 56 121 103 149c36 21 76 36 117 36z" fill="currentColor"/>
<path transform="translate(92.7204, 8.8711) scale(0.0040, -0.0040)" d="M220 138c56 0 109 -29 109 -91c0 -72 -56 -121 -103 -149c-36 -21 -76 -36 -117 -36c-56 0 -109 29 -109 91c0 72 56 121 103 149c36 21 76 36 117 36z" fill="currentColor"/>
<path transform="translate(93.1679, 6.3711) scale(0.0040, -0.0040)" d="M220 138c56 0 109 -29 109 -91c0 -72 -56 -121 -103 -149c-36 -21 -76 -36 -117 -36c-56 0 -109 29 -109 91c0 72 56 121 103 149c36 21 76 36 117 36z" fill="currentColor"/>
<path transform="translate(93.1679, 9.8711) scale(0.0040, -0.0040)" d="M220 138c56 0 109 -29 109 -91c0 -72 -56 -121 -103 -149c-36 -21 -76 -36 -117 -36c-56 0 -109 29 -109 91c0 72 56 121 103 149c36 21 76 36 117 36z" fill="currentColor"/>
<rect transform="translate(85.7744, 19.8711)" x="-0.0650" y="-3.3122" width="0.1300" height="6.6455" ry="0.0400" fill="currentColor"/>
<rect transform="translate(85.7744, 7.8711)" x="-0.0650" y="0.1878" width="0.1300" height="3.8122" ry="0.0400" fill="currentColor"/>
<rect transform="translate(87.4081, 7.8711)" x="-0.0650" y="-4.3333" width="0.1300" height="6.1455" ry="0.0400" fill="currentColor"/>
<path transform="translate(85.7094, 16.3711) scale(0.0040, -0.0040)" d="M220 138c56 0 109 -29 109 -91c0 -72 -56 -121 -103 -149c-36 -21 -76 -36 -117 -36c-56 0 -109 29 -109 91c0 72 56 121 103 149c36 21 76 36 117 36z" fill="currentColor"/>
<path transform="translate(85.7094, 17.3711) scale(0.0040, -0.0040)" d="M220 138c56 0 109 -29 109 -91c0 -72 -56 -121 -103 -149c-36 -21 -76 -36 -117 -36c-56 0 -109 29 -109 91c0 72 56 121 103 149c36 21 76 36 117 36z" fill="currentColor"/>
<path transform="translate(85.7094, 18.3711) scale(0.0040, -0.0040)" d="M220 138c56 0 109 -29 109 -91c0 -72 -56 -121 -103 -149c-36 -21 -76 -36 -117 -36c-56 0 -109 29 -109 91c0 72 56 121 103 149c36 21 76 36 117 36z" fill="currentColor"/>
<path transform="translate(85.7094, 19.8711) scale(0.0040, -0.0040)" d="M220 138c56 0 109 -29 109 -91c0 -72 -56 -121 -103 -149c-36 -21 -76 -36 -117 -36c-56 0 -109 29 -109 91c0 72 56 121 103 149c36 21 76 36 117 36z" fill="currentColor"/>
<path transform="translate(85.7094, 7.8711) scale(0.0040, -0.0040)" d="M220 138c56 0 109 -29 109 -91c0 -72 -56 -121 -103 -149c-36 -21 -76 -36 -117 -36c-56 0 -109 29 -109 91c0 72 56 121 103 149c36 21 76 36 117 36z" fill="currentColor"/>
<path transform="translate(85.7094, 8.8711) scale(0.0040, -0.0040)" d="M220 138c56 0 109 -29 109 -91c0 -72 -56 -121 -103 -149c-36 -21 -76 -36 -117 -36c-56 0 -109 29 -109 91c0 72 56 121 103 149c36 21 76 36 117 36z" fill="currentColor"/>
<rect transform="translate(92.7854, 19.8711)" x="-0.0650" y="-2.3122" width="0.1300" height="6.9789" ry="0.0400" fill="currentColor"/>
<rect transform="translate(92.7854, 7.8711)" x="-0.0650" y="0.1878" width="0.1300" height="3.8122" ry="0.0400" fill="currentColor"/>
<rect transform="translate(94.4191, 7.8711)" x="-0.0650" y="-4.1952" width="0.1300" height="6.0074" ry="0.0400" fill="currentColor"/>
<path transform="translate(92.7204, 17.3711) scale(0.0040, -0.0040)" d="M220 138c56 0 109 -29 109 -91c0 -72 -56 -121 -103 -149c-36 -21 -76 -36 -117 -36c-56 0 -109 29 -109 91c0 72 56 121 103 149c36 21 76 36 117 36z" fill="currentColor"/>
<rect transform="translate(62.0230, 7.8711)" x="-0.0650" y="-4.3333" width="0.1300" height="6.1455" ry="0.0400" fill="currentColor"/>
<rect transform="translate(19.3727, 19.8711)" x="-0.0650" y="-6.5074" width="0.1300" height="5.3196" ry="0.0400" fill="currentColor"/>
<path transform="translate(14.5168, 21.8855) scale(0.0040, -0.0040)" d="M204 307c22 14 44 29 60 50c11 15 19 33 27 50c2 4 5 6 9 6c6 0 13 -5 13 -14v-245h72c10 0 15 -7 15 -14s-5 -15 -15 -15h-72v-8c0 -48 27 -94 72 -94c8 0 12 -5 12 -11s-4 -12 -12 -12c-44 0 -87 13 -131 13s-87 -13 -131 -13c-8 0 -12 6 -12 12s4 11 12 11
c45 0 73 46 73 94v8h-167c-23 0 -31 14 -31 23c0 3 1 5 2 6c80 93 138 207 138 330c0 9 6 16 13 16h3c23 -7 47 -13 71 -13s48 6 71 13c2 1 3 1 5 1c11 0 18 -10 12 -17l-284 -330h167v131c0 8 1 17 8 22z" fill="currentColor"/>
<path transform="translate(14.6534, 19.8711) scale(0.0040, -0.0040)" d="M150 477c-29 0 -59 -8 -59 -33c0 -22 36 -25 36 -47c0 -32 -26 -58 -58 -58s-57 26 -57 58c0 65 67 103 138 103c91 0 169 -33 169 -114c0 -43 -4 -82 -42 -100c-9 -4 -14 -12 -14 -21s5 -18 14 -22c41 -19 56 -57 56 -103c0 -92 -79 -140 -179 -140
c-79 0 -154 42 -154 113c0 36 30 66 66 66s65 -30 65 -66c0 -25 -40 -28 -40 -53c0 -27 32 -37 63 -37c49 0 63 61 63 117v16c0 54 -2 94 -50 94h-80c-10 0 -14 8 -14 15s4 14 14 14h80c49 0 50 43 50 99v8c0 54 -18 91 -67 91z" fill="currentColor"/>
<path transform="translate(12.2668, 18.8711) scale(0.0040, -0.0040)" d="M216 -312c0 -10 -8 -19 -18 -19s-19 9 -19 19v145l-83 -31v-158c0 -10 -9 -19 -19 -19s-18 9 -18 19v145l-32 -12c-2 -1 -5 -1 -7 -1c-11 0 -20 9 -20 20v60c0 8 5 16 13 19l46 16v160l-32 -11c-2 -1 -5 -1 -7 -1c-11 0 -20 9 -20 20v60c0 8 5 15 13 18l46 17v158
c0 10 8 19 18 19s19 -9 19 -19v-145l83 31v158c0 10 9 19 19 19s18 -9 18 -19v-145l32 12c2 1 5 1 7 1c11 0 20 -9 20 -20v-60c0 -8 -5 -16 -13 -19l-46 -16v-160l32 11c2 1 5 1 7 1c11 0 20 -9 20 -20v-60c0 -8 -5 -15 -13 -18l-46 -17v-158zM96 65v-160l83 30v160z" fill="currentColor"/>
<path transform="translate(8.7668, 18.8711) scale(0.0040, -0.0040)" d="M557 -125c0 28 23 51 51 51s51 -23 51 -51s-23 -51 -51 -51s-51 23 -51 51zM557 125c0 28 23 51 51 51s51 -23 51 -51s-23 -51 -51 -51s-51 23 -51 51zM232 263c172 0 293 -88 293 -251c0 -263 -263 -414 -516 -521c-3 -3 -6 -4 -9 -4c-7 0 -13 6 -13 13c0 3 1 6 4 9
c202 118 412 265 412 493c0 120 -63 235 -171 235c-74 0 -129 -54 -154 -126c11 5 22 8 34 8c55 0 100 -45 100 -100c0 -58 -44 -106 -100 -106c-60 0 -112 47 -112 106c0 133 102 244 232 244z" fill="currentColor"/>
<path transform="translate(18.1215, 18.8711) scale(0.0040, -0.0040)" d="M220 138c56 0 109 -29 109 -91c0 -72 -56 -121 -103 -149c-36 -21 -76 -36 -117 -36c-56 0 -109 29 -109 91c0 72 56 121 103 149c36 21 76 36 117 36z" fill="currentColor"/>
<path transform="translate(14.5168, 9.8855) scale(0.0040, -0.0040)" d="M204 307c22 14 44 29 60 50c11 15 19 33 27 50c2 4 5 6 9 6c6 0 13 -5 13 -14v-245h72c10 0 15 -7 15 -14s-5 -15 -15 -15h-72v-8c0 -48 27 -94 72 -94c8 0 12 -5 12 -11s-4 -12 -12 -12c-44 0 -87 13 -131 13s-87 -13 -131 -13c-8 0 -12 6 -12 12s4 11 12 11
c45 0 73 46 73 94v8h-167c-23 0 -31 14 -31 23c0 3 1 5 2 6c80 93 138 207 138 330c0 9 6 16 13 16h3c23 -7 47 -13 71 -13s48 6 71 13c2 1 3 1 5 1c11 0 18 -10 12 -17l-284 -330h167v131c0 8 1 17 8 22z" fill="currentColor"/>
<path transform="translate(14.6534, 7.8711) scale(0.0040, -0.0040)" d="M150 477c-29 0 -59 -8 -59 -33c0 -22 36 -25 36 -47c0 -32 -26 -58 -58 -58s-57 26 -57 58c0 65 67 103 138 103c91 0 169 -33 169 -114c0 -43 -4 -82 -42 -100c-9 -4 -14 -12 -14 -21s5 -18 14 -22c41 -19 56 -57 56 -103c0 -92 -79 -140 -179 -140
c-79 0 -154 42 -154 113c0 36 30 66 66 66s65 -30 65 -66c0 -25 -40 -28 -40 -53c0 -27 32 -37 63 -37c49 0 63 61 63 117v16c0 54 -2 94 -50 94h-80c-10 0 -14 8 -14 15s4 14 14 14h80c49 0 50 43 50 99v8c0 54 -18 91 -67 91z" fill="currentColor"/>
<path transform="translate(12.2668, 5.8711) scale(0.0040, -0.0040)" d="M216 -312c0 -10 -8 -19 -18 -19s-19 9 -19 19v145l-83 -31v-158c0 -10 -9 -19 -19 -19s-18 9 -18 19v145l-32 -12c-2 -1 -5 -1 -7 -1c-11 0 -20 9 -20 20v60c0 8 5 16 13 19l46 16v160l-32 -11c-2 -1 -5 -1 -7 -1c-11 0 -20 9 -20 20v60c0 8 5 15 13 18l46 17v158
c0 10 8 19 18 19s19 -9 19 -19v-145l83 31v158c0 10 9 19 19 19s18 -9 18 -19v-145l32 12c2 1 5 1 7 1c11 0 20 -9 20 -20v-60c0 -8 -5 -16 -13 -19l-46 -16v-160l32 11c2 1 5 1 7 1c11 0 20 -9 20 -20v-60c0 -8 -5 -15 -13 -18l-46 -17v-158zM96 65v-160l83 30v160z" fill="currentColor"/>
<path transform="translate(8.7668, 8.8711) scale(0.0040, -0.0040)" d="M376 262c4 0 9 1 13 1c155 0 256 -128 256 -261c0 -76 -33 -154 -107 -210c-22 -17 -47 -28 -73 -36c3 -35 5 -70 5 -105c0 -19 -1 -39 -2 -58c-7 -120 -90 -228 -208 -228c-108 0 -195 88 -195 197c0 58 53 103 112 103c54 0 95 -47 95 -103c0 -52 -43 -95 -95 -95
c-11 0 -21 2 -31 6c26 -39 68 -65 117 -65c96 0 157 92 163 191c1 18 2 37 2 55c0 31 -1 61 -4 92c-29 -5 -58 -8 -89 -8c-188 0 -333 172 -333 374c0 177 131 306 248 441c-19 62 -37 125 -45 190c-6 52 -7 104 -7 156c0 115 55 224 149 292c3 2 7 3 10 3c4 0 7 0 10 -3
c71 -84 133 -245 133 -358c0 -143 -86 -255 -180 -364c21 -68 39 -138 56 -207zM461 -203c68 24 113 95 113 164c0 90 -66 179 -173 190c24 -116 46 -231 60 -354zM74 28c0 -135 129 -247 264 -247c28 0 55 2 82 6c-14 127 -37 245 -63 364c-79 -8 -124 -61 -124 -119
c0 -44 25 -91 81 -123c5 -5 7 -10 7 -15c0 -11 -10 -22 -22 -22c-3 0 -6 1 -9 2c-80 43 -117 115 -117 185c0 88 58 174 160 197c-14 58 -29 117 -46 175c-107 -121 -213 -243 -213 -403zM408 1045c-99 -48 -162 -149 -162 -259c0 -74 18 -133 36 -194
c80 97 146 198 146 324c0 55 -4 79 -20 129z" fill="currentColor"/>
<path transform="translate(86.1569, 6.3711) scale(0.0040, -0.0040)" d="M220 138c56 0 109 -29 109 -91c0 -72 -56 -121 -103 -149c-36 -21 -76 -36 -117 -36c-56 0 -109 29 -109 91c0 72 56 121 103 149c36 21 76 36 117 36z" fill="currentColor"/>
<path transform="translate(86.1569, 9.8711) scale(0.0040, -0.0040)" d="M220 138c56 0 109 -29 109 -91c0 -72 -56 -121 -103 -149c-36 -21 -76 -36 -117 -36c-56 0 -109 29 -109 91c0 72 56 121 103 149c36 21 76 36 117 36z" fill="currentColor"/>
<rect transform="translate(82.0444, 7.8711)" x="-0.0650" y="-4.6667" width="0.1300" height="5.9789" ry="0.0400" fill="currentColor"/>
<path transform="translate(80.7932, 5.8711) scale(0.0040, -0.0040)" d="M220 138c56 0 109 -29 109 -91c0 -72 -56 -121 -103 -149c-36 -21 -76 -36 -117 -36c-56 0 -109 29 -109 91c0 72 56 121 103 149c36 21 76 36 117 36z" fill="currentColor"/>
<path transform="translate(80.7932, 9.3711) scale(0.0040, -0.0040)" d="M220 138c56 0 109 -29 109 -91c0 -72 -56 -121 -103 -149c-36 -21 -76 -36 -117 -36c-56 0 -109 29 -109 91c0 72 56 121 103 149c36 21 76 36 117 36z" fill="currentColor"/>
<rect transform="translate(79.0302, 7.8711)" x="-0.0650" y="-5.9874" width="0.1300" height="5.7996" ry="0.0400" fill="currentColor"/>
<path transform="translate(77.7790, 4.3711) scale(0.0040, -0.0040)" d="M220 138c56 0 109 -29 109 -91c0 -72 -56 -121 -103 -149c-36 -21 -76 -36 -117 -36c-56 0 -109 29 -109 91c0 72 56 121 103 149c36 21 76 36 117 36z" fill="currentColor"/>
<path transform="translate(77.7790, 7.8711) scale(0.0040, -0.0040)" d="M220 138c56 0 109 -29 109 -91c0 -72 -56 -121 -103 -149c-36 -21 -76 -36 -117 -36c-56 0 -109 29 -109 91c0 72 56 121 103 149c36 21 76 36 117 36z" fill="currentColor"/>
<rect transform="translate(76.0160, 7.8711)" x="-0.0650" y="-5.4050" width="0.1300" height="7.2172" ry="0.0400" fill="currentColor"/>
<path transform="translate(74.7648, 6.3711) scale(0.0040, -0.0040)" d="M220 138c56 0 109 -29 109 -91c0 -72 -56 -121 -103 -149c-36 -21 -76 -36 -117 -36c-56 0 -109 29 -109 91c0 72 56 121 103 149c36 21 76 36 117 36z" fill="currentColor"/>
<path transform="translate(74.7648, 9.8711) scale(0.0040, -0.0040)" d="M220 138c56 0 109 -29 109 -91c0 -72 -56 -121 -103 -149c-36 -21 -76 -36 -117 -36c-56 0 -109 29 -109 91c0 72 56 121 103 149c36 21 76 36 117 36z" fill="currentColor"/>
<rect transform="translate(111.7188, 19.8711)" x="-0.0650" y="-1.8122" width="0.1300" height="3.3122" ry="0.0400" fill="currentColor"/>
<rect transform="translate(7.9068, 13.8711)" x="0.0000" y="-8.0500" width="0.1600" height="16.1000" ry="0.0500" fill="currentColor"/>
<path transform="translate(113.4938, 6.3711) scale(0.0040, -0.0040)" d="M0 0c0 31 25 56 56 56s56 -25 56 -56s-25 -56 -56 -56s-56 25 -56 56z" fill="currentColor"/>
<rect transform="translate(112.9788, 7.8711)" x="-0.0650" y="-4.3333" width="0.1300" height="6.0719" ry="0.0400" fill="currentColor"/>
<path transform="translate(113.4938, 9.3711) scale(0.0040, -0.0040)" d="M0 0c0 31 25 56 56 56s56 -25 56 -56s-25 -56 -56 -56s-56 25 -56 56z" fill="currentColor"/>
<path transform="translate(111.6538, 17.8711) scale(0.0040, -0.0040)" d="M220 138c56 0 109 -29 109 -91c0 -72 -56 -121 -103 -149c-36 -21 -76 -36 -117 -36c-56 0 -109 29 -109 91c0 72 56 121 103 149c36 21 76 36 117 36z" fill="currentColor"/>
<path transform="translate(112.3488, 2.8377) scale(0.0040, -0.0040)" d="M-211 88c-8 2 -14 9 -14 18c0 10 9 19 19 19c2 0 3 -1 4 -1l408 -105c13 0 19 -6 19 -19s-6 -19 -19 -19l-408 -105c-1 0 -2 -1 -4 -1c-10 0 -19 9 -19 19c0 9 6 16 14 18l251 65l140 23l-140 23z" fill="currentColor"/>
<path transform="translate(111.6538, 6.3711) scale(0.0040, -0.0040)" d="M315 65c0 24 -21 41 -42 41c-4 0 -8 0 -12 -1c-31 -9 -77 -40 -114 -64s-84 -53 -104 -78c-7 -8 -11 -18 -11 -28c0 -24 21 -41 42 -41c4 0 8 0 12 1c31 9 78 40 115 64s84 53 104 78c7 8 10 18 10 28zM264 137c47 0 83 -21 83 -72c0 -19 -4 -37 -10 -56
c-12 -38 -32 -74 -65 -96c-54 -36 -113 -51 -188 -51c-47 0 -84 22 -84 73c0 19 5 37 11 56c12 38 31 74 64 96c54 36 114 50 189 50z" fill="currentColor"/>
<path transform="translate(111.6538, 9.8711) scale(0.0040, -0.0040)" d="M315 65c0 24 -21 41 -42 41c-4 0 -8 0 -12 -1c-31 -9 -77 -40 -114 -64s-84 -53 -104 -78c-7 -8 -11 -18 -11 -28c0 -24 21 -41 42 -41c4 0 8 0 12 1c31 9 78 40 115 64s84 53 104 78c7 8 10 18 10 28zM264 137c47 0 83 -21 83 -72c0 -19 -4 -37 -10 -56
c-12 -38 -32 -74 -65 -96c-54 -36 -113 -51 -188 -51c-47 0 -84 22 -84 73c0 19 5 37 11 56c12 38 31 74 64 96c54 36 114 50 189 50z" fill="currentColor"/>
<path transform="translate(7.6068, 13.8711) scale(0.0040, -0.0040)" d="M-16 -604c0 -324 -120 -640 -120 -948c0 -164 36 -320 148 -448c4 -4 4 -8 4 -12c0 -8 -8 -16 -16 -16c-4 0 -8 4 -12 8c-152 168 -204 380 -204 604c0 332 128 656 128 968c0 164 -36 316 -148 440c0 4 -4 4 -4 8s4 4 4 8c112 124 148 276 148 440
c0 312 -128 636 -128 968c0 224 52 436 204 604c4 4 8 8 12 8c8 0 16 -8 16 -16c0 -4 0 -8 -4 -12c-112 -128 -148 -284 -148 -448c0 -308 120 -624 120 -948c0 -224 -48 -436 -196 -604c148 -168 196 -380 196 -604z" fill="currentColor"/>
<rect transform="translate(121.5511, 19.8711)" x="-0.0650" y="-1.8122" width="0.1300" height="3.3122" ry="0.0400" fill="currentColor"/>
<path transform="translate(121.4861, 17.8711) scale(0.0040, -0.0040)" d="M220 138c56 0 109 -29 109 -91c0 -72 -56 -121 -103 -149c-36 -21 -76 -36 -117 -36c-56 0 -109 29 -109 91c0 72 56 121 103 149c36 21 76 36 117 36z" fill="currentColor"/>
<rect transform="translate(116.6350, 19.8711)" x="-0.0650" y="-1.3122" width="0.1300" height="3.3122" ry="0.0400" fill="currentColor"/>
<path transform="translate(116.5700, 18.3711) scale(0.0040, -0.0040)" d="M220 138c56 0 109 -29 109 -91c0 -72 -56 -121 -103 -149c-36 -21 -76 -36 -117 -36c-56 0 -109 29 -109 91c0 72 56 121 103 149c36 21 76 36 117 36z" fill="currentColor"/>
<rect transform="translate(100.6653, 7.8711)" x="-0.0650" y="3.6878" width="0.1300" height="2.3122" ry="0.0400" fill="currentColor"/>
<rect transform="translate(101.8515, 7.8711)" x="-0.0650" y="-3.3333" width="0.1300" height="3.1455" ry="0.0400" fill="currentColor"/>
<path transform="translate(100.6003, 19.8711) scale(0.0040, -0.0040)" d="M-23 -116c0 28 11 42 40 42c33 0 78 -13 119 -31l-132 158c-7 9 -10 17 -10 25c0 34 50 66 87 99c25 22 37 52 37 83c0 24 -8 49 -25 69l-35 42c-3 3 -4 7 -4 10c0 9 9 15 17 15c4 0 8 -1 11 -5l151 -180c7 -9 10 -17 10 -25c0 -34 -50 -66 -87 -99
c-25 -22 -37 -52 -37 -83c0 -24 7 -49 24 -69l84 -99c3 -3 4 -7 4 -10c0 -9 -8 -16 -16 -16c-4 0 -9 2 -12 6c-18 21 -63 38 -97 38c-41 0 -53 -26 -53 -67c0 -35 11 -74 28 -94c5 -6 0 -13 -6 -13c-2 0 -4 0 -6 2c-45 54 -92 148 -92 202z" fill="currentColor"/>
<path transform="translate(100.6003, 11.3711) scale(0.0040, -0.0040)" d="M220 138c56 0 109 -29 109 -91c0 -72 -56 -121 -103 -149c-36 -21 -76 -36 -117 -36c-56 0 -109 29 -109 91c0 72 56 121 103 149c36 21 76 36 117 36z" fill="currentColor"/>
<path transform="translate(100.6003, 7.8711) scale(0.0040, -0.0040)" d="M220 138c56 0 109 -29 109 -91c0 -72 -56 -121 -103 -149c-36 -21 -76 -36 -117 -36c-56 0 -109 29 -109 91c0 72 56 121 103 149c36 21 76 36 117 36z" fill="currentColor"/>
<rect transform="translate(98.1353, 7.8711)" x="-0.0650" y="-4.4948" width="0.1300" height="5.8069" ry="0.0400" fill="currentColor"/>
<path transform="translate(96.8841, 5.8711) scale(0.0040, -0.0040)" d="M220 138c56 0 109 -29 109 -91c0 -72 -56 -121 -103 -149c-36 -21 -76 -36 -117 -36c-56 0 -109 29 -109 91c0 72 56 121 103 149c36 21 76 36 117 36z" fill="currentColor"/>
<path transform="translate(96.8841, 9.3711) scale(0.0040, -0.0040)" d="M220 138c56 0 109 -29 109 -91c0 -72 -56 -121 -103 -149c-36 -21 -76 -36 -117 -36c-56 0 -109 29 -109 91c0 72 56 121 103 149c36 21 76 36 117 36z" fill="currentColor"/>
<rect transform="translate(105.6261, 7.8711)" x="-0.0650" y="2.6878" width="0.1300" height="2.3122" ry="0.0400" fill="currentColor"/>
<rect transform="translate(106.8122, 7.8711)" x="-0.0650" y="-4.0000" width="0.1300" height="2.8122" ry="0.0400" fill="currentColor"/>
<path transform="translate(105.5611, 19.8711) scale(0.0040, -0.0040)" d="M-23 -116c0 28 11 42 40 42c33 0 78 -13 119 -31l-132 158c-7 9 -10 17 -10 25c0 34 50 66 87 99c25 22 37 52 37 83c0 24 -8 49 -25 69l-35 42c-3 3 -4 7 -4 10c0 9 9 15 17 15c4 0 8 -1 11 -5l151 -180c7 -9 10 -17 10 -25c0 -34 -50 -66 -87 -99
c-25 -22 -37 -52 -37 -83c0 -24 7 -49 24 -69l84 -99c3 -3 4 -7 4 -10c0 -9 -8 -16 -16 -16c-4 0 -9 2 -12 6c-18 21 -63 38 -97 38c-41 0 -53 -26 -53 -67c0 -35 11 -74 28 -94c5 -6 0 -13 -6 -13c-2 0 -4 0 -6 2c-45 54 -92 148 -92 202z" fill="currentColor"/>
<path transform="translate(105.5611, 10.3711) scale(0.0040, -0.0040)" d="M220 138c56 0 109 -29 109 -91c0 -72 -56 -121 -103 -149c-36 -21 -76 -36 -117 -36c-56 0 -109 29 -109 91c0 72 56 121 103 149c36 21 76 36 117 36z" fill="currentColor"/>
<path transform="translate(105.5611, 6.8711) scale(0.0040, -0.0040)" d="M220 138c56 0 109 -29 109 -91c0 -72 -56 -121 -103 -149c-36 -21 -76 -36 -117 -36c-56 0 -109 29 -109 91c0 72 56 121 103 149c36 21 76 36 117 36z" fill="currentColor"/>
</svg>
