<svg xmlns="http://www.w3.org/2000/svg" xmlns:xlink="http://www.w3.org/1999/xlink" version="1.2" width="249.52mm" height="46.79mm" viewBox="6.7580 -0.0850 141.9930 26.6240">
<defs><link href="../../assets/fonts.css" type="text/css" rel="stylesheet" xmlns="http://www.w3.org/1999/xhtml" /></defs>
<rect transform="translate(107.1458, 8.3496)" x="0.0000" y="-2.0000" width="0.1900" height="4.0500" ry="0.0000" fill="currentColor"/>
<rect transform="translate(63.2895, 8.3496)" x="0.0000" y="-2.0000" width="0.1900" height="4.0500" ry="0.0000" fill="currentColor"/>
<rect transform="translate(107.1458, 18.5140)" x="0.0000" y="-2.0500" width="0.1900" height="4.0500" ry="0.0000" fill="currentColor"/>
<rect transform="translate(107.1458, -0.0000)" x="0.0000" y="10.3996" width="0.1900" height="6.1145" ry="0.0000" fill="currentColor"/>
<rect transform="translate(63.2895, 18.5140)" x="0.0000" y="-2.0500" width="0.1900" height="4.0500" ry="0.0000" fill="currentColor"/>
<rect transform="translate(63.2895, -0.0000)" x="0.0000" y="10.3996" width="0.1900" height="6.1145" ry="0.0000" fill="currentColor"/>
<rect transform="translate(148.5610, 8.3496)" x="0.0000" y="-2.0000" width="0.1900" height="4.0500" ry="0.0000" fill="currentColor"/>
<rect transform="translate(148.5610, 18.5140)" x="0.0000" y="-2.0500" width="0.1900" height="4.0500" ry="0.0000" fill="currentColor"/>
<rect transform="translate(148.5610, -0.0000)" x="0.0000" y="10.3996" width="0.1900" height="6.1145" ry="0.0000" fill="currentColor"/>
<rect transform="translate(0.0000, 5.3496)" x="20.3725" y="-0.1000" width="1.9743" height="0.2000" ry="0.1000" fill="currentColor"/>
<rect transform="translate(0.0000, 5.3496)" x="23.0455" y="-0.1000" width="1.9743" height="0.2000" ry="0.1000" fill="currentColor"/>
<rect transform="translate(0.0000, 4.3496)" x="23.0455" y="-0.1000" width="1.9743" height="0.2000" ry="0.1000" fill="currentColor"/>
<rect transform="translate(0.0000, 3.3496)" x="23.0455" y="-0.1000" width="1.9743" height="0.2000" ry="0.1000" fill="currentColor"/>
<rect transform="translate(0.0000, 5.3496)" x="25.2184" y="-0.1000" width="1.9743" height="0.2000" ry="0.1000" fill="currentColor"/>
<rect transform="translate(0.0000, 4.3496)" x="25.2184" y="-0.1000" width="1.9743" height="0.2000" ry="0.1000" fill="currentColor"/>
<rect transform="translate(0.0000, 5.3496)" x="32.2289" y="-0.1000" width="1.9743" height="0.2000" ry="0.1000" fill="currentColor"/>
<rect transform="translate(0.0000, 5.3496)" x="34.6518" y="-0.1000" width="1.9743" height="0.2000" ry="0.1000" fill="currentColor"/>
<rect transform="translate(0.0000, 5.3496)" x="37.3248" y="-0.1000" width="1.9743" height="0.2000" ry="0.1000" fill="currentColor"/>
<rect transform="translate(0.0000, 4.3496)" x="37.3248" y="-0.1000" width="1.9743" height="0.2000" ry="0.1000" fill="currentColor"/>
<rect transform="translate(0.0000, 3.3496)" x="37.3248" y="-0.1000" width="1.9743" height="0.2000" ry="0.1000" fill="currentColor"/>
<rect transform="translate(0.0000, 5.3496)" x="39.4977" y="-0.1000" width="1.9743" height="0.2000" ry="0.1000" fill="currentColor"/>
<rect transform="translate(0.0000, 4.3496)" x="39.4977" y="-0.1000" width="1.9743" height="0.2000" ry="0.1000" fill="currentColor"/>
<rect transform="translate(0.0000, 5.3496)" x="46.5082" y="-0.1000" width="1.9743" height="0.2000" ry="0.1000" fill="currentColor"/>
<rect transform="translate(0.0000, 5.3496)" x="48.9311" y="-0.1000" width="1.9743" height="0.2000" ry="0.1000" fill="currentColor"/>
<rect transform="translate(0.0000, 5.3496)" x="51.6041" y="-0.1000" width="1.9743" height="0.2000" ry="0.1000" fill="currentColor"/>
<rect transform="translate(0.0000, 4.3496)" x="51.6041" y="-0.1000" width="1.9743" height="0.2000" ry="0.1000" fill="currentColor"/>
<rect transform="translate(0.0000, 3.3496)" x="51.6041" y="-0.1000" width="1.9743" height="0.2000" ry="0.1000" fill="currentColor"/>
<rect transform="translate(0.0000, 5.3496)" x="53.7770" y="-0.1000" width="1.9743" height="0.2000" ry="0.1000" fill="currentColor"/>
<rect transform="translate(0.0000, 4.3496)" x="53.7770" y="-0.1000" width="1.9743" height="0.2000" ry="0.1000" fill="currentColor"/>
<rect transform="translate(0.0000, 5.3496)" x="60.7875" y="-0.1000" width="1.9743" height="0.2000" ry="0.1000" fill="currentColor"/>
<rect transform="translate(0.0000, 5.3496)" x="64.9204" y="-0.1000" width="1.9743" height="0.2000" ry="0.1000" fill="currentColor"/>
<rect transform="translate(0.0000, 5.3496)" x="64.9204" y="-0.1000" width="1.9743" height="0.2000" ry="0.1000" fill="currentColor"/>
<rect transform="translate(0.0000, 5.3496)" x="67.5934" y="-0.1000" width="1.9243" height="0.2000" ry="0.1000" fill="currentColor"/>
<rect transform="translate(0.0000, 4.3496)" x="67.5934" y="-0.1000" width="1.9243" height="0.2000" ry="0.1000" fill="currentColor"/>
<rect transform="translate(0.0000, 3.3496)" x="67.5934" y="-0.1000" width="1.9243" height="0.2000" ry="0.1000" fill="currentColor"/>
<rect transform="translate(0.0000, 5.3496)" x="69.6176" y="-0.1000" width="1.9243" height="0.2000" ry="0.1000" fill="currentColor"/>
<rect transform="translate(0.0000, 4.3496)" x="69.6176" y="-0.1000" width="1.9243" height="0.2000" ry="0.1000" fill="currentColor"/>
<rect transform="translate(0.0000, 5.3496)" x="75.8576" y="-0.1000" width="1.9743" height="0.2000" ry="0.1000" fill="currentColor"/>
<rect transform="translate(0.0000, 5.3496)" x="75.8576" y="-0.1000" width="1.9743" height="0.2000" ry="0.1000" fill="currentColor"/>
<rect transform="translate(0.0000, 5.3496)" x="78.2806" y="-0.1000" width="1.9743" height="0.2000" ry="0.1000" fill="currentColor"/>
<rect transform="translate(0.0000, 5.3496)" x="78.2806" y="-0.1000" width="1.9743" height="0.2000" ry="0.1000" fill="currentColor"/>
<rect transform="translate(0.0000, 5.3496)" x="80.9535" y="-0.1000" width="1.9243" height="0.2000" ry="0.1000" fill="currentColor"/>
<rect transform="translate(0.0000, 4.3496)" x="80.9535" y="-0.1000" width="1.9243" height="0.2000" ry="0.1000" fill="currentColor"/>
<rect transform="translate(0.0000, 5.3496)" x="82.9778" y="-0.1000" width="1.9243" height="0.2000" ry="0.1000" fill="currentColor"/>
<rect transform="translate(0.0000, 5.3496)" x="95.1699" y="-0.1000" width="1.9243" height="0.2000" ry="0.1000" fill="currentColor"/>
<rect transform="translate(0.0000, 4.3496)" x="95.3240" y="-0.1000" width="1.7702" height="0.2000" ry="0.1000" fill="currentColor"/>
<rect transform="translate(0.0000, 5.3496)" x="97.1942" y="-0.1000" width="1.9243" height="0.2000" ry="0.1000" fill="currentColor"/>
<rect transform="translate(0.0000, 5.3496)" x="103.6120" y="-0.1000" width="1.9743" height="0.2000" ry="0.1000" fill="currentColor"/>
<rect transform="translate(0.0000, 5.3496)" x="103.6120" y="-0.1000" width="1.9743" height="0.2000" ry="0.1000" fill="currentColor"/>
<rect transform="translate(0.0000, 5.3496)" x="108.0543" y="-0.1000" width="1.9743" height="0.2000" ry="0.1000" fill="currentColor"/>
<rect transform="translate(0.0000, 5.3496)" x="108.0543" y="-0.1000" width="1.9743" height="0.2000" ry="0.1000" fill="currentColor"/>
<rect transform="translate(0.0000, 5.3496)" x="110.7272" y="-0.1000" width="1.9743" height="0.2000" ry="0.1000" fill="currentColor"/>
<rect transform="translate(0.0000, 4.3496)" x="110.7272" y="-0.1000" width="1.9743" height="0.2000" ry="0.1000" fill="currentColor"/>
<rect transform="translate(0.0000, 3.3496)" x="110.7272" y="-0.1000" width="1.9743" height="0.2000" ry="0.1000" fill="currentColor"/>
<rect transform="translate(0.0000, 5.3496)" x="113.5894" y="-0.1000" width="1.9743" height="0.2000" ry="0.1000" fill="currentColor"/>
<rect transform="translate(0.0000, 4.3496)" x="113.7288" y="-0.1000" width="1.8349" height="0.2000" ry="0.1000" fill="currentColor"/>
<rect transform="translate(0.0000, 11.3496)" x="131.0968" y="-0.1000" width="1.9743" height="0.2000" ry="0.1000" fill="currentColor"/>
<rect transform="translate(0.0000, 5.3496)" x="137.1645" y="-0.1000" width="1.9743" height="0.2000" ry="0.1000" fill="currentColor"/>
<rect transform="translate(0.0000, 4.3496)" x="137.1645" y="-0.1000" width="1.9743" height="0.2000" ry="0.1000" fill="currentColor"/>
<rect transform="translate(0.0000, 5.3496)" x="139.3375" y="-0.1000" width="1.9743" height="0.2000" ry="0.1000" fill="currentColor"/>
<line transform="translate(7.9668, 10.3496)" stroke-linejoin="round" stroke-linecap="round" stroke-width="0.1000" stroke="currentColor" x1="0.0500" y1="-0.0000" x2="140.7342" y2="-0.0000"/>
<line transform="translate(7.9668, 9.3496)" stroke-linejoin="round" stroke-linecap="round" stroke-width="0.1000" stroke="currentColor" x1="0.0500" y1="-0.0000" x2="140.7342" y2="-0.0000"/>
<line transform="translate(7.9668, 8.3496)" stroke-linejoin="round" stroke-linecap="round" stroke-width="0.1000" stroke="currentColor" x1="0.0500" y1="-0.0000" x2="140.7342" y2="-0.0000"/>
<line transform="translate(7.9668, 7.3496)" stroke-linejoin="round" stroke-linecap="round" stroke-width="0.1000" stroke="currentColor" x1="0.0500" y1="-0.0000" x2="140.7342" y2="-0.0000"/>
<line transform="translate(7.9668, 6.3496)" stroke-linejoin="round" stroke-linecap="round" stroke-width="0.1000" stroke="currentColor" x1="0.0500" y1="-0.0000" x2="140.7342" y2="-0.0000"/>
<line transform="translate(7.9668, 20.5140)" stroke-linejoin="round" stroke-linecap="round" stroke-width="0.1000" stroke="currentColor" x1="0.0500" y1="-0.0000" x2="140.7342" y2="-0.0000"/>
<line transform="translate(7.9668, 19.5140)" stroke-linejoin="round" stroke-linecap="round" stroke-width="0.1000" stroke="currentColor" x1="0.0500" y1="-0.0000" x2="140.7342" y2="-0.0000"/>
<line transform="translate(7.9668, 18.5140)" stroke-linejoin="round" stroke-linecap="round" stroke-width="0.1000" stroke="currentColor" x1="0.0500" y1="-0.0000" x2="140.7342" y2="-0.0000"/>
<line transform="translate(7.9668, 17.5140)" stroke-linejoin="round" stroke-linecap="round" stroke-width="0.1000" stroke="currentColor" x1="0.0500" y1="-0.0000" x2="140.7342" y2="-0.0000"/>
<line transform="translate(7.9668, 16.5140)" stroke-linejoin="round" stroke-linecap="round" stroke-width="0.1000" stroke="currentColor" x1="0.0500" y1="-0.0000" x2="140.7342" y2="-0.0000"/>
<rect transform="translate(0.0000, 21.5140)" x="99.3606" y="-0.1000" width="1.8202" height="0.2000" ry="0.1000" fill="currentColor"/>
<rect transform="translate(0.0000, 21.5140)" x="102.3539" y="-0.1000" width="1.9743" height="0.2000" ry="0.1000" fill="currentColor"/>
<rect transform="translate(0.0000, 22.5140)" x="102.5079" y="-0.1000" width="1.8202" height="0.2000" ry="0.1000" fill="currentColor"/>
<rect transform="translate(0.0000, 21.5140)" x="108.0543" y="-0.1000" width="1.9743" height="0.2000" ry="0.1000" fill="currentColor"/>
<rect transform="translate(0.0000, 22.5140)" x="108.0543" y="-0.1000" width="1.9743" height="0.2000" ry="0.1000" fill="currentColor"/>
<rect transform="translate(0.0000, 23.5140)" x="108.0543" y="-0.1000" width="1.9743" height="0.2000" ry="0.1000" fill="currentColor"/>
<rect transform="translate(0.0000, 21.5140)" x="122.0174" y="-0.1000" width="1.9743" height="0.2000" ry="0.1000" fill="currentColor"/>
<rect transform="translate(0.0000, 22.5140)" x="122.0174" y="-0.1000" width="1.9743" height="0.2000" ry="0.1000" fill="currentColor"/>
<rect transform="translate(0.0000, 23.5140)" x="122.0174" y="-0.1000" width="1.9743" height="0.2000" ry="0.1000" fill="currentColor"/>
<rect transform="translate(0.0000, 21.5140)" x="134.4916" y="-0.1000" width="1.9743" height="0.2000" ry="0.1000" fill="currentColor"/>
<path transform="translate(67.9224, 3.3496) scale(0.0040, -0.0040)" d="M220 138c56 0 109 -29 109 -91c0 -72 -56 -121 -103 -149c-36 -21 -76 -36 -117 -36c-56 0 -109 29 -109 91c0 72 56 121 103 149c36 21 76 36 117 36z" fill="currentColor"/>
<rect transform="translate(69.1736, 8.3496)" x="-0.0650" y="-7.5000" width="0.1300" height="2.3122" ry="0.0400" fill="currentColor"/>
<path transform="translate(68.9095, 17.5140) scale(0.0040, -0.0040)" d="M220 138c56 0 109 -29 109 -91c0 -72 -56 -121 -103 -149c-36 -21 -76 -36 -117 -36c-56 0 -109 29 -109 91c0 72 56 121 103 149c36 21 76 36 117 36z" fill="currentColor"/>
<rect transform="translate(76.2517, 8.3496)" x="-0.0650" y="-2.8122" width="0.1300" height="4.8111" ry="0.0400" fill="currentColor"/>
<path transform="translate(69.5676, 16.0140) scale(0.0040, -0.0040)" d="M-50 0c0 28 22 50 50 50s50 -22 50 -50s-22 -50 -50 -50s-50 22 -50 50z" fill="currentColor"/>
<rect transform="translate(68.9745, 18.5140)" x="-0.0650" y="-0.8122" width="0.1300" height="3.7351" ry="0.0400" fill="currentColor"/>
<rect transform="translate(65.3145, 18.5140)" x="-0.0650" y="-2.3122" width="0.1300" height="4.3283" ry="0.0400" fill="currentColor"/>
<path transform="translate(64.0995, 16.0140) scale(0.0040, -0.0040)" d="M27 41l-1 -66v-11c0 -22 1 -44 4 -66c45 38 93 80 93 139c0 33 -14 67 -43 67c-31 0 -52 -30 -53 -63zM-15 -138l-12 595c8 5 18 8 27 8s19 -3 27 -8l-7 -345c25 21 58 34 91 34c52 0 89 -48 89 -102c0 -80 -86 -117 -147 -169c-15 -13 -24 -38 -45 -38
c-13 0 -23 11 -23 25z" fill="currentColor"/>
<rect transform="translate(72.1281, 18.5140)" x="-0.0650" y="0.6878" width="0.1300" height="3.0163" ry="0.0400" fill="currentColor"/>
<path transform="translate(74.2342, 7.8496) scale(0.0040, -0.0040)" d="M220 138c56 0 109 -29 109 -91c0 -72 -56 -121 -103 -149c-36 -21 -76 -36 -117 -36c-56 0 -109 29 -109 91c0 72 56 121 103 149c36 21 76 36 117 36z" fill="currentColor"/>
<rect transform="translate(75.4854, 8.3496)" x="-0.0650" y="-7.5000" width="0.1300" height="6.8122" ry="0.0400" fill="currentColor"/>
<path transform="translate(75.2104, 20.5140) scale(0.0040, -0.0040)" d="M220 138c56 0 109 -29 109 -91c0 -72 -56 -121 -103 -149c-36 -21 -76 -36 -117 -36c-56 0 -109 29 -109 91c0 72 56 121 103 149c36 21 76 36 117 36z" fill="currentColor"/>
<path transform="translate(75.8685, 19.0140) scale(0.0040, -0.0040)" d="M-50 0c0 28 22 50 50 50s50 -22 50 -50s-22 -50 -50 -50s-50 22 -50 50z" fill="currentColor"/>
<rect transform="translate(75.2754, 18.5140)" x="-0.0650" y="2.1878" width="0.1300" height="2.2961" ry="0.0400" fill="currentColor"/>
<path transform="translate(76.1867, 5.3496) scale(0.0040, -0.0040)" d="M220 138c56 0 109 -29 109 -91c0 -72 -56 -121 -103 -149c-36 -21 -76 -36 -117 -36c-56 0 -109 29 -109 91c0 72 56 121 103 149c36 21 76 36 117 36z" fill="currentColor"/>
<path transform="translate(76.1867, 5.3496) scale(0.0040, -0.0040)" d="M220 138c56 0 109 -29 109 -91c0 -72 -56 -121 -103 -149c-36 -21 -76 -36 -117 -36c-56 0 -109 29 -109 91c0 72 56 121 103 149c36 21 76 36 117 36z" fill="currentColor"/>
<rect transform="translate(77.4379, 8.3496)" x="-0.0650" y="-7.5000" width="0.1300" height="4.3122" ry="0.0400" fill="currentColor"/>
<path transform="translate(69.8967, 4.3496) scale(0.0040, -0.0040)" d="M220 138c56 0 109 -29 109 -91c0 -72 -56 -121 -103 -149c-36 -21 -76 -36 -117 -36c-56 0 -109 29 -109 91c0 72 56 121 103 149c36 21 76 36 117 36z" fill="currentColor"/>
<rect transform="translate(71.1479, 8.3496)" x="-0.0650" y="-7.5000" width="0.1300" height="3.3122" ry="0.0400" fill="currentColor"/>
<path transform="translate(72.0631, 6.3496) scale(0.0040, -0.0040)" d="M220 138c56 0 109 -29 109 -91c0 -72 -56 -121 -103 -149c-36 -21 -76 -36 -117 -36c-56 0 -109 29 -109 91c0 72 56 121 103 149c36 21 76 36 117 36z" fill="currentColor"/>
<path transform="translate(72.0631, 19.0140) scale(0.0040, -0.0040)" d="M220 138c56 0 109 -29 109 -91c0 -72 -56 -121 -103 -149c-36 -21 -76 -36 -117 -36c-56 0 -109 29 -109 91c0 72 56 121 103 149c36 21 76 36 117 36z" fill="currentColor"/>
<path transform="translate(72.7212, 18.0140) scale(0.0040, -0.0040)" d="M-50 0c0 28 22 50 50 50s50 -22 50 -50s-22 -50 -50 -50s-50 22 -50 50z" fill="currentColor"/>
<rect transform="translate(73.3143, 8.3496)" x="-0.0650" y="-7.5000" width="0.1300" height="5.3122" ry="0.0400" fill="currentColor"/>
<path transform="translate(44.1643, 7.8496) scale(0.0040, -0.0040)" d="M220 138c56 0 109 -29 109 -91c0 -72 -56 -121 -103 -149c-36 -21 -76 -36 -117 -36c-56 0 -109 29 -109 91c0 72 56 121 103 149c36 21 76 36 117 36z" fill="currentColor"/>
<rect transform="translate(44.2293, 8.3496)" x="-0.0650" y="-0.3122" width="0.1300" height="2.1222" ry="0.0400" fill="currentColor"/>
<path transform="translate(46.8372, 5.3496) scale(0.0040, -0.0040)" d="M220 138c56 0 109 -29 109 -91c0 -72 -56 -121 -103 -149c-36 -21 -76 -36 -117 -36c-56 0 -109 29 -109 91c0 72 56 121 103 149c36 21 76 36 117 36z" fill="currentColor"/>
<rect transform="translate(46.9022, 8.3496)" x="-0.0650" y="-2.8122" width="0.1300" height="4.6222" ry="0.0400" fill="currentColor"/>
<path transform="translate(49.2602, 4.8496) scale(0.0040, -0.0040)" d="M220 138c56 0 109 -29 109 -91c0 -72 -56 -121 -103 -149c-36 -21 -76 -36 -117 -36c-56 0 -109 29 -109 91c0 72 56 121 103 149c36 21 76 36 117 36z" fill="currentColor"/>
<rect transform="translate(49.3252, 8.3496)" x="-0.0650" y="-3.3122" width="0.1300" height="5.1222" ry="0.0400" fill="currentColor"/>
<path transform="translate(51.9331, 3.3496) scale(0.0040, -0.0040)" d="M220 138c56 0 109 -29 109 -91c0 -72 -56 -121 -103 -149c-36 -21 -76 -36 -117 -36c-56 0 -109 29 -109 91c0 72 56 121 103 149c36 21 76 36 117 36z" fill="currentColor"/>
<rect transform="translate(51.9981, 8.3496)" x="-0.0650" y="-4.8122" width="0.1300" height="6.6222" ry="0.0400" fill="currentColor"/>
<rect transform="translate(35.0459, 8.3496)" x="-0.0650" y="-3.3122" width="0.1300" height="5.1222" ry="0.0400" fill="currentColor"/>
<path transform="translate(37.6538, 3.3496) scale(0.0040, -0.0040)" d="M220 138c56 0 109 -29 109 -91c0 -72 -56 -121 -103 -149c-36 -21 -76 -36 -117 -36c-56 0 -109 29 -109 91c0 72 56 121 103 149c36 21 76 36 117 36z" fill="currentColor"/>
<rect transform="translate(37.7188, 8.3496)" x="-0.0650" y="-4.8122" width="0.1300" height="6.6222" ry="0.0400" fill="currentColor"/>
<path transform="translate(39.8268, 4.3496) scale(0.0040, -0.0040)" d="M220 138c56 0 109 -29 109 -91c0 -72 -56 -121 -103 -149c-36 -21 -76 -36 -117 -36c-56 0 -109 29 -109 91c0 72 56 121 103 149c36 21 76 36 117 36z" fill="currentColor"/>
<rect transform="translate(39.8918, 8.3496)" x="-0.0650" y="-3.8122" width="0.1300" height="5.6222" ry="0.0400" fill="currentColor"/>
<path transform="translate(41.9932, 6.3496) scale(0.0040, -0.0040)" d="M220 138c56 0 109 -29 109 -91c0 -72 -56 -121 -103 -149c-36 -21 -76 -36 -117 -36c-56 0 -109 29 -109 91c0 72 56 121 103 149c36 21 76 36 117 36z" fill="currentColor"/>
<rect transform="translate(42.0582, 8.3496)" x="-0.0650" y="-1.8122" width="0.1300" height="3.6222" ry="0.0400" fill="currentColor"/>
<path transform="translate(61.1165, 5.3496) scale(0.0040, -0.0040)" d="M220 138c56 0 109 -29 109 -91c0 -72 -56 -121 -103 -149c-36 -21 -76 -36 -117 -36c-56 0 -109 29 -109 91c0 72 56 121 103 149c36 21 76 36 117 36z" fill="currentColor"/>
<rect transform="translate(61.1815, 8.3496)" x="-0.0650" y="-2.8122" width="0.1300" height="4.6222" ry="0.0400" fill="currentColor"/>
<path transform="translate(65.2495, 4.8496) scale(0.0040, -0.0040)" d="M220 138c56 0 109 -29 109 -91c0 -72 -56 -121 -103 -149c-36 -21 -76 -36 -117 -36c-56 0 -109 29 -109 91c0 72 56 121 103 149c36 21 76 36 117 36z" fill="currentColor"/>
<path transform="translate(65.2495, 16.0140) scale(0.0040, -0.0040)" d="M220 138c56 0 109 -29 109 -91c0 -72 -56 -121 -103 -149c-36 -21 -76 -36 -117 -36c-56 0 -109 29 -109 91c0 72 56 121 103 149c36 21 76 36 117 36z" fill="currentColor"/>
<path transform="translate(65.9076, 15.0640) scale(0.0040, -0.0040)" d="M-50 0c0 28 22 50 50 50s50 -22 50 -50s-22 -50 -50 -50s-50 22 -50 50z" fill="currentColor"/>
<rect transform="translate(66.5006, 8.3496)" x="-0.0650" y="-7.5000" width="0.1300" height="3.8122" ry="0.0400" fill="currentColor"/>
<path transform="translate(67.0156, 4.8496) scale(0.0040, -0.0040)" d="M0 0c0 31 25 56 56 56s56 -25 56 -56s-25 -56 -56 -56s-56 25 -56 56z" fill="currentColor"/>
<rect transform="translate(65.3145, 8.3496)" x="-0.0650" y="-3.3122" width="0.1300" height="5.1233" ry="0.0400" fill="currentColor"/>
<path transform="translate(54.1061, 4.3496) scale(0.0040, -0.0040)" d="M220 138c56 0 109 -29 109 -91c0 -72 -56 -121 -103 -149c-36 -21 -76 -36 -117 -36c-56 0 -109 29 -109 91c0 72 56 121 103 149c36 21 76 36 117 36z" fill="currentColor"/>
<rect transform="translate(54.1711, 8.3496)" x="-0.0650" y="-3.8122" width="0.1300" height="5.6222" ry="0.0400" fill="currentColor"/>
<path transform="translate(56.2725, 6.3496) scale(0.0040, -0.0040)" d="M220 138c56 0 109 -29 109 -91c0 -72 -56 -121 -103 -149c-36 -21 -76 -36 -117 -36c-56 0 -109 29 -109 91c0 72 56 121 103 149c36 21 76 36 117 36z" fill="currentColor"/>
<rect transform="translate(56.3375, 8.3496)" x="-0.0650" y="-1.8122" width="0.1300" height="3.6222" ry="0.0400" fill="currentColor"/>
<path transform="translate(58.4436, 7.8496) scale(0.0040, -0.0040)" d="M220 138c56 0 109 -29 109 -91c0 -72 -56 -121 -103 -149c-36 -21 -76 -36 -117 -36c-56 0 -109 29 -109 91c0 72 56 121 103 149c36 21 76 36 117 36z" fill="currentColor"/>
<rect transform="translate(58.5086, 8.3496)" x="-0.0650" y="-0.3122" width="0.1300" height="2.1222" ry="0.0400" fill="currentColor"/>
<path transform="translate(94.3490, 4.3496) scale(0.0040, -0.0040)" d="M27 41l-1 -66v-11c0 -22 1 -44 4 -66c45 38 93 80 93 139c0 33 -14 67 -43 67c-31 0 -52 -30 -53 -63zM-15 -138l-12 595c8 5 18 8 27 8s19 -3 27 -8l-7 -345c25 21 58 34 91 34c52 0 89 -48 89 -102c0 -80 -86 -117 -147 -169c-15 -13 -24 -38 -45 -38
c-13 0 -23 11 -23 25z" fill="currentColor"/>
<path transform="translate(96.4861, 20.0140) scale(0.0040, -0.0040)" d="M220 138c56 0 109 -29 109 -91c0 -72 -56 -121 -103 -149c-36 -21 -76 -36 -117 -36c-56 0 -109 29 -109 91c0 72 56 121 103 149c36 21 76 36 117 36z" fill="currentColor"/>
<path transform="translate(97.1442, 21.0140) scale(0.0040, -0.0040)" d="M-50 0c0 28 22 50 50 50s50 -22 50 -50s-22 -50 -50 -50s-50 22 -50 50z" fill="currentColor"/>
<rect transform="translate(97.7373, 18.5140)" x="-0.0650" y="-2.0898" width="0.1300" height="3.4020" ry="0.0400" fill="currentColor"/>
<path transform="translate(95.3361, 20.0140) scale(0.0040, -0.0040)" d="M27 41l-1 -66v-11c0 -22 1 -44 4 -66c45 38 93 80 93 139c0 33 -14 67 -43 67c-31 0 -52 -30 -53 -63zM-15 -138l-12 595c8 5 18 8 27 8s19 -3 27 -8l-7 -345c25 21 58 34 91 34c52 0 89 -48 89 -102c0 -80 -86 -117 -147 -169c-15 -13 -24 -38 -45 -38
c-13 0 -23 11 -23 25z" fill="currentColor"/>
<path transform="translate(97.4732, 5.3496) scale(0.0040, -0.0040)" d="M220 138c56 0 109 -29 109 -91c0 -72 -56 -121 -103 -149c-36 -21 -76 -36 -117 -36c-56 0 -109 29 -109 91c0 72 56 121 103 149c36 21 76 36 117 36z" fill="currentColor"/>
<rect transform="translate(98.7244, 8.3496)" x="-0.0650" y="-7.5000" width="0.1300" height="4.3122" ry="0.0400" fill="currentColor"/>
<path transform="translate(99.5356, 7.3496) scale(0.0040, -0.0040)" d="M220 138c56 0 109 -29 109 -91c0 -72 -56 -121 -103 -149c-36 -21 -76 -36 -117 -36c-56 0 -109 29 -109 91c0 72 56 121 103 149c36 21 76 36 117 36z" fill="currentColor"/>
<path transform="translate(94.1790, 5.8496) scale(0.0040, -0.0040)" d="M0 0c0 31 25 56 56 56s56 -25 56 -56s-25 -56 -56 -56s-56 25 -56 56z" fill="currentColor"/>
<rect transform="translate(92.4778, 8.3496)" x="-0.0650" y="-2.3122" width="0.1300" height="5.3111" ry="0.0400" fill="currentColor"/>
<path transform="translate(91.2628, 5.8496) scale(0.0040, -0.0040)" d="M27 41l-1 -66v-11c0 -22 1 -44 4 -66c45 38 93 80 93 139c0 33 -14 67 -43 67c-31 0 -52 -30 -53 -63zM-15 -138l-12 595c8 5 18 8 27 8s19 -3 27 -8l-7 -345c25 21 58 34 91 34c52 0 89 -48 89 -102c0 -80 -86 -117 -147 -169c-15 -13 -24 -38 -45 -38
c-13 0 -23 11 -23 25z" fill="currentColor"/>
<path transform="translate(91.2628, 5.8496) scale(0.0040, -0.0040)" d="M27 41l-1 -66v-11c0 -22 1 -44 4 -66c45 38 93 80 93 139c0 33 -14 67 -43 67c-31 0 -52 -30 -53 -63zM-15 -138l-12 595c8 5 18 8 27 8s19 -3 27 -8l-7 -345c25 21 58 34 91 34c52 0 89 -48 89 -102c0 -80 -86 -117 -147 -169c-15 -13 -24 -38 -45 -38
c-13 0 -23 11 -23 25z" fill="currentColor"/>
<rect transform="translate(93.6640, 18.5140)" x="-0.0650" y="-2.7987" width="0.1300" height="3.1109" ry="0.0400" fill="currentColor"/>
<path transform="translate(95.4990, 4.3496) scale(0.0040, -0.0040)" d="M220 138c56 0 109 -29 109 -91c0 -72 -56 -121 -103 -149c-36 -21 -76 -36 -117 -36c-56 0 -109 29 -109 91c0 72 56 121 103 149c36 21 76 36 117 36z" fill="currentColor"/>
<rect transform="translate(96.7502, 8.3496)" x="-0.0650" y="-7.5000" width="0.1300" height="3.3122" ry="0.0400" fill="currentColor"/>
<polygon transform="translate(79.7958, 14.0140)" stroke-linejoin="round" stroke-linecap="round" stroke-width="0.0800" fill="currentColor" stroke="currentColor" points="9.9469 2.3000 9.9469 2.7000 0.0400 0.2000 0.0400 -0.2000"/>
<polygon transform="translate(79.7958, 14.8240)" stroke-linejoin="round" stroke-linecap="round" stroke-width="0.0800" fill="currentColor" stroke="currentColor" points="9.9469 2.3000 9.9469 2.7000 0.0400 0.2000 0.0400 -0.2000"/>
<path transform="translate(92.4128, 18.5140)" stroke-width="0.0800" stroke-linejoin="round" stroke-linecap="round" stroke="currentColor" fill="currentColor" d="M0.4988651053648 2.050006C1.70522392414731 4.13912417594052 8.46744987687399 6.77286467615465 10.7690127560948 6.050006C8.51100067476658 6.66104639498865 1.7487747220399 4.02730589477452 0.4988651053648 2.050006z"/>
<polygon transform="translate(79.7958, 0.8496)" stroke-linejoin="round" stroke-linecap="round" stroke-width="0.0800" fill="currentColor" stroke="currentColor" points="8.9707 1.3000 8.9707 1.7000 0.0400 0.2000 0.0400 -0.2000"/>
<polygon transform="translate(79.7958, 1.6596)" stroke-linejoin="round" stroke-linecap="round" stroke-width="0.0800" fill="currentColor" stroke="currentColor" points="8.9707 1.3000 8.9707 1.7000 0.0400 0.2000 0.0400 -0.2000"/>
<polygon transform="translate(65.2495, 19.7040)" stroke-linejoin="round" stroke-linecap="round" stroke-width="0.0800" fill="currentColor" stroke="currentColor" points="10.0510 2.3000 10.0510 2.7000 0.0400 0.2000 0.0400 -0.2000"/>
<polygon transform="translate(65.2495, 20.5140)" stroke-linejoin="round" stroke-linecap="round" stroke-width="0.0800" fill="currentColor" stroke="currentColor" points="10.0510 2.3000 10.0510 2.7000 0.0400 0.2000 0.0400 -0.2000"/>
<polygon transform="translate(75.1517, 9.5196)" stroke-linejoin="round" stroke-linecap="round" stroke-width="0.0800" fill="currentColor" stroke="currentColor" points="1.1250 -0.1800 1.1250 0.2200 0.0400 0.2000 0.0400 -0.2000"/>
<polygon transform="translate(65.2495, 10.1596)" stroke-linejoin="round" stroke-linecap="round" stroke-width="0.0800" fill="currentColor" stroke="currentColor" points="11.0272 -0.0100 11.0272 0.3900 0.0400 0.2000 0.0400 -0.2000"/>
<polygon transform="translate(66.4356, 0.8496)" stroke-linejoin="round" stroke-linecap="round" stroke-width="0.0800" fill="currentColor" stroke="currentColor" points="11.0272 -0.2000 11.0272 0.2000 0.0400 0.2000 0.0400 -0.2000"/>
<polygon transform="translate(66.4356, 1.6596)" stroke-linejoin="round" stroke-linecap="round" stroke-width="0.0800" fill="currentColor" stroke="currentColor" points="11.0272 -0.2000 11.0272 0.2000 0.0400 0.2000 0.0400 -0.2000"/>
<path transform="translate(78.6096, 18.5140)" stroke-width="0.0800" stroke-linejoin="round" stroke-linecap="round" stroke="currentColor" fill="currentColor" d="M0.49847106586337 0.200006C1.67236493939595 2.25693381915458 8.09811459717202 4.76676116864358 10.3553786286384 4.050006C8.14177317244769 4.6549849242761 1.71602351467163 2.1451575747871 0.49847106586337 0.200006z"/>
<path transform="translate(65.2495, 18.5140)" stroke-width="0.0800" stroke-linejoin="round" stroke-linecap="round" stroke="currentColor" fill="currentColor" d="M0.816257136713801 -4.050006C3.0810584889103 -4.77571152090678 9.58921926403652 -2.2602516556661 10.7772266319828 -0.200006C9.54595723624318 -2.14832133380822 3.03779646111697 -4.6637811990489 0.816257136713801 -4.050006z"/>
<path transform="translate(65.2495, 8.3496)" stroke-width="0.0800" stroke-linejoin="round" stroke-linecap="round" stroke="currentColor" fill="currentColor" d="M0.053665364974961 2.55111590833386C3.03317644821973 4.52216737803586 35.6678833458581 5.36557762065594 38.7452285636104 3.55105933687658C35.6709835865618 5.2456176752259 3.0362766889235 4.40220743260582 0.053665364974961 2.55111590833386z"/>
<polygon transform="translate(49.2602, 9.3496)" stroke-linejoin="round" stroke-linecap="round" stroke-width="0.0800" fill="currentColor" stroke="currentColor" points="11.9464 -0.2000 11.9464 0.2000 0.0400 0.2000 0.0400 -0.2000"/>
<polygon transform="translate(49.2602, 10.1596)" stroke-linejoin="round" stroke-linecap="round" stroke-width="0.0800" fill="currentColor" stroke="currentColor" points="11.9464 -0.2000 11.9464 0.2000 0.0400 0.2000 0.0400 -0.2000"/>
<polygon transform="translate(34.9809, 9.3496)" stroke-linejoin="round" stroke-linecap="round" stroke-width="0.0800" fill="currentColor" stroke="currentColor" points="11.9464 -0.2000 11.9464 0.2000 0.0400 0.2000 0.0400 -0.2000"/>
<polygon transform="translate(34.9809, 10.1596)" stroke-linejoin="round" stroke-linecap="round" stroke-width="0.0800" fill="currentColor" stroke="currentColor" points="11.9464 -0.2000 11.9464 0.2000 0.0400 0.2000 0.0400 -0.2000"/>
<text transform="translate(54.7583, 12.0971)" font-family="Lyon Text" font-style="italic" font-size="1.7461" text-anchor="start" fill="currentColor">
<tspan>
6</tspan>
</text>
<path transform="translate(49.2602, 8.3496)" stroke-width="0.0800" stroke-linejoin="round" stroke-linecap="round" stroke="currentColor" fill="currentColor" d="M0.713155247596852 -5.550006C2.85492099060115 -6.83844738517263 10.8160988101877 -5.8312431279512 12.5695057780478 -4.050006C10.8010371322574 -5.71219210587274 2.83985931267091 -6.71939636309417 0.713155247596852 -5.550006z"/>
<polygon transform="translate(20.7016, 9.3496)" stroke-linejoin="round" stroke-linecap="round" stroke-width="0.0800" fill="currentColor" stroke="currentColor" points="11.9464 -0.2000 11.9464 0.2000 0.0400 0.2000 0.0400 -0.2000"/>
<polygon transform="translate(20.7016, 10.1596)" stroke-linejoin="round" stroke-linecap="round" stroke-width="0.0800" fill="currentColor" stroke="currentColor" points="11.9464 -0.2000 11.9464 0.2000 0.0400 0.2000 0.0400 -0.2000"/>
<text transform="translate(40.4790, 12.0971)" font-family="Lyon Text" font-style="italic" font-size="1.7461" text-anchor="start" fill="currentColor">
<tspan>
6</tspan>
</text>
<path transform="translate(34.9809, 8.3496)" stroke-width="0.0800" stroke-linejoin="round" stroke-linecap="round" stroke="currentColor" fill="currentColor" d="M0.713155247596852 -5.550006C2.85492099060115 -6.83844738517263 10.8160988101877 -5.8312431279512 12.5695057780478 -4.050006C10.8010371322574 -5.71219210587274 2.83985931267091 -6.71939636309417 0.713155247596852 -5.550006z"/>
<text transform="translate(26.1997, 12.0971)" font-family="Lyon Text" font-style="italic" font-size="1.7461" text-anchor="start" fill="currentColor">
<tspan>
6</tspan>
</text>
<path transform="translate(20.7016, 8.3496)" stroke-width="0.0800" stroke-linejoin="round" stroke-linecap="round" stroke="currentColor" fill="currentColor" d="M0.713155247596855 -5.550006C2.85492099060116 -6.83844738517263 10.8160988101877 -5.8312431279512 12.5695057780478 -4.050006C10.8010371322574 -5.71219210587274 2.83985931267092 -6.71939636309417 0.713155247596855 -5.550006z"/>
<path transform="translate(99.5356, 21.5140) scale(0.0040, -0.0040)" d="M220 138c56 0 109 -29 109 -91c0 -72 -56 -121 -103 -149c-36 -21 -76 -36 -117 -36c-56 0 -109 29 -109 91c0 72 56 121 103 149c36 21 76 36 117 36z" fill="currentColor"/>
<path transform="translate(100.1937, 22.4640) scale(0.0040, -0.0040)" d="M-50 0c0 28 22 50 50 50s50 -22 50 -50s-22 -50 -50 -50s-50 22 -50 50z" fill="currentColor"/>
<rect transform="translate(100.7868, 8.3496)" x="-0.0650" y="-7.5000" width="0.1300" height="6.3122" ry="0.0400" fill="currentColor"/>
<polygon transform="translate(134.8206, 24.5140)" stroke-linejoin="round" stroke-linecap="round" stroke-width="0.0800" fill="currentColor" stroke="currentColor" points="6.9983 -1.3900 6.9983 -0.9900 0.0400 0.2000 0.0400 -0.2000"/>
<polygon transform="translate(136.0068, 1.8496)" stroke-linejoin="round" stroke-linecap="round" stroke-width="0.0800" fill="currentColor" stroke="currentColor" points="11.8442 -0.2000 11.8442 0.2000 0.0400 0.2000 0.0400 -0.2000"/>
<polygon transform="translate(136.0068, 2.6596)" stroke-linejoin="round" stroke-linecap="round" stroke-width="0.0800" fill="currentColor" stroke="currentColor" points="11.8442 -0.2000 11.8442 0.2000 0.0400 0.2000 0.0400 -0.2000"/>
<polygon transform="translate(145.5398, 9.0092)" stroke-linejoin="round" stroke-linecap="round" stroke-width="0.0800" fill="currentColor" stroke="currentColor" points="1.1250 -0.1696 1.1250 0.2304 0.0400 0.2000 0.0400 -0.2000"/>
<polygon transform="translate(134.8206, 9.5396)" stroke-linejoin="round" stroke-linecap="round" stroke-width="0.0800" fill="currentColor" stroke="currentColor" points="11.8442 0.1100 11.8442 0.5100 0.0400 0.2000 0.0400 -0.2000"/>
<polygon transform="translate(122.3465, 11.3496)" stroke-linejoin="round" stroke-linecap="round" stroke-width="0.0800" fill="currentColor" stroke="currentColor" points="11.4509 1.8000 11.4509 2.2000 0.0400 0.2000 0.0400 -0.2000"/>
<polygon transform="translate(122.3465, 12.1596)" stroke-linejoin="round" stroke-linecap="round" stroke-width="0.0800" fill="currentColor" stroke="currentColor" points="11.4509 1.8000 11.4509 2.2000 0.0400 0.2000 0.0400 -0.2000"/>
<path transform="translate(134.8206, 18.5140)" stroke-width="0.0800" stroke-linejoin="round" stroke-linecap="round" stroke="currentColor" fill="currentColor" d="M0.138139975434683 6.72901006198452C1.77206343319131 7.73032423682326 5.83247941277861 7.04380546862752 7.04639623229966 5.56098993801548C5.81247422263223 6.92548475037748 1.75205824304493 7.61200351857321 0.138139975434683 6.72901006198452z"/>
<line transform="translate(137.5542, 13.4318)" stroke-linejoin="round" stroke-linecap="round" stroke-width="0.1000" stroke="currentColor" x1="0.0000" y1="0.6666" x2="9.5087" y2="0.0000"/>
<line transform="translate(137.5542, 13.4318)" stroke-linejoin="round" stroke-linecap="round" stroke-width="0.1000" stroke="currentColor" x1="0.0000" y1="-0.6666" x2="9.5087" y2="-0.0000"/>
<path transform="translate(134.8206, 8.3496)" stroke-width="0.0800" stroke-linejoin="round" stroke-linecap="round" stroke="currentColor" fill="currentColor" d="M1.25117800000001 -7.24C3.19770082416039 -8.77940868588115 11.0588072567947 -8.77940868588115 13.0053300809551 -7.24C11.0588072567947 -8.65940868588115 3.19770082416039 -8.65940868588115 1.25117800000001 -7.24z"/>
<path transform="translate(134.8206, 8.3496)" stroke-width="0.0800" stroke-linejoin="round" stroke-linecap="round" stroke="currentColor" fill="currentColor" d="M0.059155060199231 2.08169553535353C1.98508444843906 3.64694260762047 9.84635902121501 3.751683960739 11.8133071411543 2.23830446464647C9.84795772467934 3.63169461059811 1.98668315190339 3.52695325747958 0.059155060199231 2.08169553535353z"/>
<polygon transform="translate(108.3833, 9.3496)" stroke-linejoin="round" stroke-linecap="round" stroke-width="0.0800" fill="currentColor" stroke="currentColor" points="12.9400 3.8000 12.9400 4.2000 0.0400 0.2000 0.0400 -0.2000"/>
<polygon transform="translate(108.3833, 10.1596)" stroke-linejoin="round" stroke-linecap="round" stroke-width="0.0800" fill="currentColor" stroke="currentColor" points="12.9400 3.8000 12.9400 4.2000 0.0400 0.2000 0.0400 -0.2000"/>
<path transform="translate(108.3833, 18.5140)" stroke-width="0.0800" stroke-linejoin="round" stroke-linecap="round" stroke="currentColor" fill="currentColor" d="M0.858088999999993 5.75C2.20442800052177 6.71539609689922 12.2818277766412 6.71539609689922 13.6281667771629 5.75C12.2818277766412 6.59539609689922 2.20442800052177 6.59539609689922 0.858088999999993 5.75z"/>
<polygon transform="translate(93.5990, 15.7040)" stroke-linejoin="round" stroke-linecap="round" stroke-width="0.0800" fill="currentColor" stroke="currentColor" points="10.3601 1.6100 10.3601 2.0100 0.0400 0.2000 0.0400 -0.2000"/>
<polygon transform="translate(93.5990, 16.5140)" stroke-linejoin="round" stroke-linecap="round" stroke-width="0.0800" fill="currentColor" stroke="currentColor" points="10.3601 1.6100 10.3601 2.0100 0.0400 0.2000 0.0400 -0.2000"/>
<path transform="translate(108.3833, 8.3496)" stroke-width="0.0800" stroke-linejoin="round" stroke-linecap="round" stroke="currentColor" fill="currentColor" d="M0.782272036000947 -5.050006C4.88780485358982 -10.0224157201657 23.4375864088269 -3.25282396139805 25.5132850028256 3.24868673455604C23.3994113564882 -3.13905812566986 4.84962980125109 -9.90864988443746 0.782272036000947 -5.050006z"/>
<polygon transform="translate(102.9060, 10.3685)" stroke-linejoin="round" stroke-linecap="round" stroke-width="0.0800" fill="currentColor" stroke="currentColor" points="1.1250 -0.2190 1.1250 0.1810 0.0400 0.2000 0.0400 -0.2000"/>
<polygon transform="translate(92.4128, 11.3496)" stroke-linejoin="round" stroke-linecap="round" stroke-width="0.0800" fill="currentColor" stroke="currentColor" points="11.6182 -0.3900 11.6182 0.0100 0.0400 0.2000 0.0400 -0.2000"/>
<polygon transform="translate(93.5990, 0.8496)" stroke-linejoin="round" stroke-linecap="round" stroke-width="0.0800" fill="currentColor" stroke="currentColor" points="11.6182 -0.2000 11.6182 0.2000 0.0400 0.2000 0.0400 -0.2000"/>
<polygon transform="translate(93.5990, 1.6596)" stroke-linejoin="round" stroke-linecap="round" stroke-width="0.0800" fill="currentColor" stroke="currentColor" points="11.6182 -0.2000 11.6182 0.2000 0.0400 0.2000 0.0400 -0.2000"/>
<path transform="translate(81.2826, 3.8496) scale(0.0040, -0.0040)" d="M220 138c56 0 109 -29 109 -91c0 -72 -56 -121 -103 -149c-36 -21 -76 -36 -117 -36c-56 0 -109 29 -109 91c0 72 56 121 103 149c36 21 76 36 117 36z" fill="currentColor"/>
<rect transform="translate(82.5338, 8.3496)" x="-0.0650" y="-7.0442" width="0.1300" height="2.3564" ry="0.0400" fill="currentColor"/>
<path transform="translate(82.2697, 18.0140) scale(0.0040, -0.0040)" d="M220 138c56 0 109 -29 109 -91c0 -72 -56 -121 -103 -149c-36 -21 -76 -36 -117 -36c-56 0 -109 29 -109 91c0 72 56 121 103 149c36 21 76 36 117 36z" fill="currentColor"/>
<path transform="translate(82.9278, 19.0140) scale(0.0040, -0.0040)" d="M-50 0c0 28 22 50 50 50s50 -22 50 -50s-22 -50 -50 -50s-50 22 -50 50z" fill="currentColor"/>
<rect transform="translate(83.5209, 18.5140)" x="-0.0650" y="-3.5675" width="0.1300" height="2.8797" ry="0.0400" fill="currentColor"/>
<path transform="translate(81.1197, 18.0140) scale(0.0040, -0.0040)" d="M27 41l-1 -66v-11c0 -22 1 -44 4 -66c45 38 93 80 93 139c0 33 -14 67 -43 67c-31 0 -52 -30 -53 -63zM-15 -138l-12 595c8 5 18 8 27 8s19 -3 27 -8l-7 -345c25 21 58 34 91 34c52 0 89 -48 89 -102c0 -80 -86 -117 -147 -169c-15 -13 -24 -38 -45 -38
c-13 0 -23 11 -23 25z" fill="currentColor"/>
<path transform="translate(83.2568, 4.8496) scale(0.0040, -0.0040)" d="M220 138c56 0 109 -29 109 -91c0 -72 -56 -121 -103 -149c-36 -21 -76 -36 -117 -36c-56 0 -109 29 -109 91c0 72 56 121 103 149c36 21 76 36 117 36z" fill="currentColor"/>
<rect transform="translate(84.5080, 8.3496)" x="-0.0650" y="-6.7156" width="0.1300" height="3.0277" ry="0.0400" fill="currentColor"/>
<path transform="translate(78.6096, 5.3496) scale(0.0040, -0.0040)" d="M220 138c56 0 109 -29 109 -91c0 -72 -56 -121 -103 -149c-36 -21 -76 -36 -117 -36c-56 0 -109 29 -109 91c0 72 56 121 103 149c36 21 76 36 117 36z" fill="currentColor"/>
<path transform="translate(78.6096, 5.3496) scale(0.0040, -0.0040)" d="M220 138c56 0 109 -29 109 -91c0 -72 -56 -121 -103 -149c-36 -21 -76 -36 -117 -36c-56 0 -109 29 -109 91c0 72 56 121 103 149c36 21 76 36 117 36z" fill="currentColor"/>
<path transform="translate(78.6096, 16.5140) scale(0.0040, -0.0040)" d="M220 138c56 0 109 -29 109 -91c0 -72 -56 -121 -103 -149c-36 -21 -76 -36 -117 -36c-56 0 -109 29 -109 91c0 72 56 121 103 149c36 21 76 36 117 36z" fill="currentColor"/>
<path transform="translate(79.2677, 18.0140) scale(0.0040, -0.0040)" d="M-50 0c0 28 22 50 50 50s50 -22 50 -50s-22 -50 -50 -50s-50 22 -50 50z" fill="currentColor"/>
<rect transform="translate(79.8608, 8.3496)" x="-0.0650" y="-7.4892" width="0.1300" height="4.3014" ry="0.0400" fill="currentColor"/>
<rect transform="translate(78.6746, 8.3496)" x="-0.0650" y="-2.8122" width="0.1300" height="3.3122" ry="0.0400" fill="currentColor"/>
<rect transform="translate(79.8608, 18.5140)" x="-0.0650" y="-4.4837" width="0.1300" height="2.2959" ry="0.0400" fill="currentColor"/>
<path transform="translate(77.4596, 16.5140) scale(0.0040, -0.0040)" d="M27 41l-1 -66v-11c0 -22 1 -44 4 -66c45 38 93 80 93 139c0 33 -14 67 -43 67c-31 0 -52 -30 -53 -63zM-15 -138l-12 595c8 5 18 8 27 8s19 -3 27 -8l-7 -345c25 21 58 34 91 34c52 0 89 -48 89 -102c0 -80 -86 -117 -147 -169c-15 -13 -24 -38 -45 -38
c-13 0 -23 11 -23 25z" fill="currentColor"/>
<path transform="translate(88.4665, 21.0140) scale(0.0040, -0.0040)" d="M220 138c56 0 109 -29 109 -91c0 -72 -56 -121 -103 -149c-36 -21 -76 -36 -117 -36c-56 0 -109 29 -109 91c0 72 56 121 103 149c36 21 76 36 117 36z" fill="currentColor"/>
<path transform="translate(89.1246, 21.9640) scale(0.0040, -0.0040)" d="M-50 0c0 28 22 50 50 50s50 -22 50 -50s-22 -50 -50 -50s-50 22 -50 50z" fill="currentColor"/>
<rect transform="translate(89.7177, 18.5140)" x="-0.0650" y="-2.0163" width="0.1300" height="4.3285" ry="0.0400" fill="currentColor"/>
<path transform="translate(89.4428, 1.8496) scale(0.0040, -0.0040)" d="M66 -500l101 327c-34 -12 -70 -23 -106 -23c-46 0 -87 33 -87 79c0 40 32 72 72 72c25 0 49 -15 57 -39c10 -28 5 -59 34 -59c16 0 55 51 60 68l46 151c-34 -12 -68 -22 -104 -22c-46 0 -87 33 -87 79c0 40 33 72 73 72c25 0 48 -15 56 -39c10 -28 5 -59 34 -59
c15 0 50 49 57 63c6 12 23 12 28 0l-179 -670c-8 -7 -17 -10 -27 -10s-20 3 -28 10z" fill="currentColor"/>
<path transform="translate(92.4128, 5.8496) scale(0.0040, -0.0040)" d="M220 138c56 0 109 -29 109 -91c0 -72 -56 -121 -103 -149c-36 -21 -76 -36 -117 -36c-56 0 -109 29 -109 91c0 72 56 121 103 149c36 21 76 36 117 36z" fill="currentColor"/>
<path transform="translate(92.4128, 19.0140) scale(0.0040, -0.0040)" d="M220 138c56 0 109 -29 109 -91c0 -72 -56 -121 -103 -149c-36 -21 -76 -36 -117 -36c-56 0 -109 29 -109 91c0 72 56 121 103 149c36 21 76 36 117 36z" fill="currentColor"/>
<path transform="translate(93.0709, 20.0140) scale(0.0040, -0.0040)" d="M-50 0c0 28 22 50 50 50s50 -22 50 -50s-22 -50 -50 -50s-50 22 -50 50z" fill="currentColor"/>
<rect transform="translate(93.6640, 8.3496)" x="-0.0650" y="-7.5000" width="0.1300" height="4.8122" ry="0.0400" fill="currentColor"/>
<path transform="translate(85.3192, 6.8496) scale(0.0040, -0.0040)" d="M220 138c56 0 109 -29 109 -91c0 -72 -56 -121 -103 -149c-36 -21 -76 -36 -117 -36c-56 0 -109 29 -109 91c0 72 56 121 103 149c36 21 76 36 117 36z" fill="currentColor"/>
<path transform="translate(85.3192, 19.5140) scale(0.0040, -0.0040)" d="M220 138c56 0 109 -29 109 -91c0 -72 -56 -121 -103 -149c-36 -21 -76 -36 -117 -36c-56 0 -109 29 -109 91c0 72 56 121 103 149c36 21 76 36 117 36z" fill="currentColor"/>
<path transform="translate(85.9773, 21.0140) scale(0.0040, -0.0040)" d="M-50 0c0 28 22 50 50 50s50 -22 50 -50s-22 -50 -50 -50s-50 22 -50 50z" fill="currentColor"/>
<rect transform="translate(86.5704, 8.3496)" x="-0.0650" y="-6.3722" width="0.1300" height="4.6844" ry="0.0400" fill="currentColor"/>
<rect transform="translate(86.5704, 18.5140)" x="-0.0650" y="-2.8041" width="0.1300" height="3.6163" ry="0.0400" fill="currentColor"/>
<path transform="translate(84.1692, 19.5140) scale(0.0040, -0.0040)" d="M27 41l-1 -66v-11c0 -22 1 -44 4 -66c45 38 93 80 93 139c0 33 -14 67 -43 67c-31 0 -52 -30 -53 -63zM-15 -138l-12 595c8 5 18 8 27 8s19 -3 27 -8l-7 -345c25 21 58 34 91 34c52 0 89 -48 89 -102c0 -80 -86 -117 -147 -169c-15 -13 -24 -38 -45 -38
c-13 0 -23 11 -23 25z" fill="currentColor"/>
<path transform="translate(87.4903, 8.3496) scale(0.0040, -0.0040)" d="M220 138c56 0 109 -29 109 -91c0 -72 -56 -121 -103 -149c-36 -21 -76 -36 -117 -36c-56 0 -109 29 -109 91c0 72 56 121 103 149c36 21 76 36 117 36z" fill="currentColor"/>
<rect transform="translate(88.7415, 8.3496)" x="-0.0650" y="-6.0108" width="0.1300" height="5.8230" ry="0.0400" fill="currentColor"/>
<path transform="translate(112.8724, 4.3496) scale(0.0040, -0.0040)" d="M-8 375c8 4 17 7 26 7s17 -3 25 -7l-3 -183l106 20h3c10 0 18 -7 18 -17l7 -570c-8 -4 -16 -7 -25 -7s-17 3 -25 7l3 183l-106 -20h-3c-10 0 -18 7 -18 17zM131 112l-92 -17l-3 -207l92 17z" fill="currentColor"/>
<path transform="translate(116.7806, 6.3496) scale(0.0040, -0.0040)" d="M220 138c56 0 109 -29 109 -91c0 -72 -56 -121 -103 -149c-36 -21 -76 -36 -117 -36c-56 0 -109 29 -109 91c0 72 56 121 103 149c36 21 76 36 117 36z" fill="currentColor"/>
<rect transform="translate(116.8456, 8.3496)" x="-0.0650" y="-1.8122" width="0.1300" height="6.2300" ry="0.0400" fill="currentColor"/>
<path transform="translate(115.7346, 6.3496) scale(0.0040, -0.0040)" d="M-8 375c8 4 17 7 26 7s17 -3 25 -7l-3 -183l106 20h3c10 0 18 -7 18 -17l7 -570c-8 -4 -16 -7 -25 -7s-17 3 -25 7l3 183l-106 -20h-3c-10 0 -18 7 -18 17zM131 112l-92 -17l-3 -207l92 17z" fill="currentColor"/>
<path transform="translate(118.9517, 7.8496) scale(0.0040, -0.0040)" d="M220 138c56 0 109 -29 109 -91c0 -72 -56 -121 -103 -149c-36 -21 -76 -36 -117 -36c-56 0 -109 29 -109 91c0 72 56 121 103 149c36 21 76 36 117 36z" fill="currentColor"/>
<rect transform="translate(119.0167, 8.3496)" x="-0.0650" y="-0.3122" width="0.1300" height="5.3990" ry="0.0400" fill="currentColor"/>
<path transform="translate(120.0471, 19.0140) scale(0.0040, -0.0040)" d="M220 138c56 0 109 -29 109 -91c0 -72 -56 -121 -103 -149c-36 -21 -76 -36 -117 -36c-56 0 -109 29 -109 91c0 72 56 121 103 149c36 21 76 36 117 36z" fill="currentColor"/>
<path transform="translate(117.2951, 19.5140) scale(0.0040, -0.0040)" d="M518 1c0 -82 -56 -168 -141 -197c2 -27 3 -54 3 -81c0 -16 0 -33 -1 -49c-6 -99 -75 -186 -173 -186c-87 0 -159 72 -159 160c0 46 42 83 90 83c43 0 76 -38 76 -83c0 -42 -34 -76 -76 -76c-4 0 -6 0 -10 1c19 -26 47 -42 81 -42c75 0 124 72 129 149c1 15 1 30 1 45
c0 23 -1 46 -3 69c-22 -4 -44 -6 -67 -6c-151 0 -266 139 -266 302c0 144 101 254 191 367c-16 53 -31 105 -37 160c-5 42 -5 85 -5 128c0 93 42 181 115 239c3 2 6 3 9 3c4 0 8 -1 11 -4c57 -69 107 -202 107 -295c0 -115 -63 -207 -135 -297c17 -59 33 -119 47 -179h1
c2 0 4 1 6 1c126 0 206 -105 206 -212zM373 -155c50 20 81 75 81 125c0 68 -48 136 -127 147c19 -89 35 -178 46 -272zM63 19c0 -104 102 -188 208 -188c21 0 40 1 60 4c-11 98 -28 191 -48 283c-59 -7 -93 -48 -93 -92c0 -34 21 -70 64 -95c5 -5 6 -10 6 -15
c0 -11 -9 -22 -21 -22c-3 0 -6 1 -9 2c-65 35 -95 93 -95 150c0 71 46 141 128 161c-11 48 -24 95 -38 143c-82 -101 -162 -202 -162 -331zM319 860c-76 -44 -123 -124 -123 -211c0 -56 15 -104 29 -151c59 79 107 162 107 261c0 43 -2 61 -13 101z" fill="currentColor"/>
<rect transform="translate(108.4483, 18.5140)" x="-0.0650" y="5.1878" width="0.1300" height="2.3122" ry="0.0400" fill="currentColor"/>
<path transform="translate(111.0563, 3.3496) scale(0.0040, -0.0040)" d="M220 138c56 0 109 -29 109 -91c0 -72 -56 -121 -103 -149c-36 -21 -76 -36 -117 -36c-56 0 -109 29 -109 91c0 72 56 121 103 149c36 21 76 36 117 36z" fill="currentColor"/>
<rect transform="translate(111.1213, 8.3496)" x="-0.0650" y="-4.8122" width="0.1300" height="7.4659" ry="0.0400" fill="currentColor"/>
<path transform="translate(113.9184, 4.3496) scale(0.0040, -0.0040)" d="M220 138c56 0 109 -29 109 -91c0 -72 -56 -121 -103 -149c-36 -21 -76 -36 -117 -36c-56 0 -109 29 -109 91c0 72 56 121 103 149c36 21 76 36 117 36z" fill="currentColor"/>
<rect transform="translate(113.9834, 8.3496)" x="-0.0650" y="-3.8122" width="0.1300" height="7.3480" ry="0.0400" fill="currentColor"/>
<path transform="translate(125.0194, 6.8496) scale(0.0040, -0.0040)" d="M220 138c56 0 109 -29 109 -91c0 -72 -56 -121 -103 -149c-36 -21 -76 -36 -117 -36c-56 0 -109 29 -109 91c0 72 56 121 103 149c36 21 76 36 117 36z" fill="currentColor"/>
<rect transform="translate(125.0844, 8.3496)" x="-0.0650" y="-1.3122" width="0.1300" height="5.5987" ry="0.0400" fill="currentColor"/>
<path transform="translate(127.1924, 7.8496) scale(0.0040, -0.0040)" d="M220 138c56 0 109 -29 109 -91c0 -72 -56 -121 -103 -149c-36 -21 -76 -36 -117 -36c-56 0 -109 29 -109 91c0 72 56 121 103 149c36 21 76 36 117 36z" fill="currentColor"/>
<rect transform="translate(127.2574, 8.3496)" x="-0.0650" y="-0.3122" width="0.1300" height="4.9769" ry="0.0400" fill="currentColor"/>
<path transform="translate(129.2547, 9.8496) scale(0.0040, -0.0040)" d="M220 138c56 0 109 -29 109 -91c0 -72 -56 -121 -103 -149c-36 -21 -76 -36 -117 -36c-56 0 -109 29 -109 91c0 72 56 121 103 149c36 21 76 36 117 36z" fill="currentColor"/>
<path transform="translate(129.2547, 23.0140) scale(0.0040, -0.0040)" d="M72 -250l117 326c-34 -12 -69 -22 -105 -22c-46 0 -87 33 -87 79c0 40 33 72 73 72c25 0 48 -15 56 -39c10 -28 6 -59 35 -59c16 0 54 48 61 63c6 12 23 12 28 0l-123 -420c-8 -7 -17 -10 -27 -10s-20 3 -28 10z" fill="currentColor"/>
<rect transform="translate(129.3197, 8.3496)" x="-0.0650" y="1.6878" width="0.1300" height="3.3359" ry="0.0400" fill="currentColor"/>
<rect transform="translate(121.2983, 18.5140)" x="-0.0650" y="-5.1845" width="0.1300" height="5.4967" ry="0.0400" fill="currentColor"/>
<path transform="translate(122.3465, 8.3496) scale(0.0040, -0.0040)" d="M220 138c56 0 109 -29 109 -91c0 -72 -56 -121 -103 -149c-36 -21 -76 -36 -117 -36c-56 0 -109 29 -109 91c0 72 56 121 103 149c36 21 76 36 117 36z" fill="currentColor"/>
<path transform="translate(122.3465, 23.5140) scale(0.0040, -0.0040)" d="M220 138c56 0 109 -29 109 -91c0 -72 -56 -121 -103 -149c-36 -21 -76 -36 -117 -36c-56 0 -109 29 -109 91c0 72 56 121 103 149c36 21 76 36 117 36z" fill="currentColor"/>
<rect transform="translate(122.4115, 8.3496)" x="-0.0650" y="0.1878" width="0.1300" height="3.6335" ry="0.0400" fill="currentColor"/>
<rect transform="translate(122.4115, 18.5140)" x="-0.0650" y="5.1878" width="0.1300" height="2.8122" ry="0.0400" fill="currentColor"/>
<path transform="translate(122.4765, 26.4740) scale(0.0040, -0.0040)" d="M0 0h-16v250h16c98 58 227 148 227 259c0 57 -16 112 -41 163c-3 16 10 27 23 27c7 0 15 -3 20 -11c25 -56 40 -117 40 -179c0 -204 -269 -305 -269 -509z" fill="currentColor"/>
<rect transform="translate(100.7868, 18.5140)" x="-0.0650" y="-1.5591" width="0.1300" height="4.3712" ry="0.0400" fill="currentColor"/>
<path transform="translate(98.3856, 21.5140) scale(0.0040, -0.0040)" d="M27 41l-1 -66v-11c0 -22 1 -44 4 -66c45 38 93 80 93 139c0 33 -14 67 -43 67c-31 0 -52 -30 -53 -63zM-15 -138l-12 595c8 5 18 8 27 8s19 -3 27 -8l-7 -345c25 21 58 34 91 34c52 0 89 -48 89 -102c0 -80 -86 -117 -147 -169c-15 -13 -24 -38 -45 -38
c-13 0 -23 11 -23 25z" fill="currentColor"/>
<path transform="translate(101.7067, 8.8496) scale(0.0040, -0.0040)" d="M220 138c56 0 109 -29 109 -91c0 -72 -56 -121 -103 -149c-36 -21 -76 -36 -117 -36c-56 0 -109 29 -109 91c0 72 56 121 103 149c36 21 76 36 117 36z" fill="currentColor"/>
<rect transform="translate(102.9579, 8.3496)" x="-0.0650" y="-7.5000" width="0.1300" height="7.8122" ry="0.0400" fill="currentColor"/>
<path transform="translate(40.2455, 17.5140) scale(0.0040, -0.0040)" d="M365 -156h-355c-6 0 -10 4 -10 10v136c0 6 4 10 10 10h355c6 0 10 -4 10 -10v-136c0 -6 -4 -10 -10 -10z" fill="currentColor"/>
<path transform="translate(7.6068, 13.4318) scale(0.0040, -0.0040)" d="M-16 -540c0 -288 -108 -564 -108 -836c0 -148 32 -284 136 -392c4 -4 4 -8 4 -12c0 -8 -8 -16 -16 -16c-4 0 -8 0 -12 4c-140 148 -188 340 -188 540c0 292 116 580 116 856c0 144 -32 280 -136 388c0 4 -4 4 -4 8s4 4 4 8c104 108 136 244 136 388
c0 276 -116 564 -116 856c0 200 48 392 188 540c4 4 8 4 12 4c8 0 16 -8 16 -16c0 -4 0 -8 -4 -12c-104 -108 -136 -244 -136 -392c0 -272 108 -548 108 -836c0 -200 -44 -392 -180 -540c136 -148 180 -340 180 -540z" fill="currentColor"/>
<rect transform="translate(7.9068, 13.4318)" x="0.0000" y="-7.1322" width="0.1600" height="14.2645" ry="0.0500" fill="currentColor"/>
<path transform="translate(20.7016, 4.8496) scale(0.0040, -0.0040)" d="M220 138c56 0 109 -29 109 -91c0 -72 -56 -121 -103 -149c-36 -21 -76 -36 -117 -36c-56 0 -109 29 -109 91c0 72 56 121 103 149c36 21 76 36 117 36z" fill="currentColor"/>
<text transform="translate(20.7016, 14.2642)" font-family="Lyon Text" font-style="italic" font-size="2.2001" text-anchor="start" fill="currentColor">
<tspan>
dolce e lusigando</tspan>
</text>
<path transform="translate(8.7668, 9.3496) scale(0.0040, -0.0040)" d="M376 262c4 0 9 1 13 1c155 0 256 -128 256 -261c0 -76 -33 -154 -107 -210c-22 -17 -47 -28 -73 -36c3 -35 5 -70 5 -105c0 -19 -1 -39 -2 -58c-7 -120 -90 -228 -208 -228c-108 0 -195 88 -195 197c0 58 53 103 112 103c54 0 95 -47 95 -103c0 -52 -43 -95 -95 -95
c-11 0 -21 2 -31 6c26 -39 68 -65 117 -65c96 0 157 92 163 191c1 18 2 37 2 55c0 31 -1 61 -4 92c-29 -5 -58 -8 -89 -8c-188 0 -333 172 -333 374c0 177 131 306 248 441c-19 62 -37 125 -45 190c-6 52 -7 104 -7 156c0 115 55 224 149 292c3 2 7 3 10 3c4 0 7 0 10 -3
c71 -84 133 -245 133 -358c0 -143 -86 -255 -180 -364c21 -68 39 -138 56 -207zM461 -203c68 24 113 95 113 164c0 90 -66 179 -173 190c24 -116 46 -231 60 -354zM74 28c0 -135 129 -247 264 -247c28 0 55 2 82 6c-14 127 -37 245 -63 364c-79 -8 -124 -61 -124 -119
c0 -44 25 -91 81 -123c5 -5 7 -10 7 -15c0 -11 -10 -22 -22 -22c-3 0 -6 1 -9 2c-80 43 -117 115 -117 185c0 88 58 174 160 197c-14 58 -29 117 -46 175c-107 -121 -213 -243 -213 -403zM408 1045c-99 -48 -162 -149 -162 -259c0 -74 18 -133 36 -194
c80 97 146 198 146 324c0 55 -4 79 -20 129z" fill="currentColor"/>
<path transform="translate(12.3868, 8.3496) scale(0.0040, -0.0040)" d="M27 41l-1 -66v-11c0 -22 1 -44 4 -66c45 38 93 80 93 139c0 33 -14 67 -43 67c-31 0 -52 -30 -53 -63zM-15 -138l-12 595c8 5 18 8 27 8s19 -3 27 -8l-7 -345c25 21 58 34 91 34c52 0 89 -48 89 -102c0 -80 -86 -117 -147 -169c-15 -13 -24 -38 -45 -38
c-13 0 -23 11 -23 25z" fill="currentColor"/>
<path transform="translate(13.3068, 6.8496) scale(0.0040, -0.0040)" d="M27 41l-1 -66v-11c0 -22 1 -44 4 -66c45 38 93 80 93 139c0 33 -14 67 -43 67c-31 0 -52 -30 -53 -63zM-15 -138l-12 595c8 5 18 8 27 8s19 -3 27 -8l-7 -345c25 21 58 34 91 34c52 0 89 -48 89 -102c0 -80 -86 -117 -147 -169c-15 -13 -24 -38 -45 -38
c-13 0 -23 11 -23 25z" fill="currentColor"/>
<path transform="translate(14.2268, 8.8496) scale(0.0040, -0.0040)" d="M27 41l-1 -66v-11c0 -22 1 -44 4 -66c45 38 93 80 93 139c0 33 -14 67 -43 67c-31 0 -52 -30 -53 -63zM-15 -138l-12 595c8 5 18 8 27 8s19 -3 27 -8l-7 -345c25 21 58 34 91 34c52 0 89 -48 89 -102c0 -80 -86 -117 -147 -169c-15 -13 -24 -38 -45 -38
c-13 0 -23 11 -23 25z" fill="currentColor"/>
<path transform="translate(15.1468, 7.3496) scale(0.0040, -0.0040)" d="M27 41l-1 -66v-11c0 -22 1 -44 4 -66c45 38 93 80 93 139c0 33 -14 67 -43 67c-31 0 -52 -30 -53 -63zM-15 -138l-12 595c8 5 18 8 27 8s19 -3 27 -8l-7 -345c25 21 58 34 91 34c52 0 89 -48 89 -102c0 -80 -86 -117 -147 -169c-15 -13 -24 -38 -45 -38
c-13 0 -23 11 -23 25z" fill="currentColor"/>
<path transform="translate(17.0968, 10.3640) scale(0.0040, -0.0040)" d="M204 307c22 14 44 29 60 50c11 15 19 33 27 50c2 4 5 6 9 6c6 0 13 -5 13 -14v-245h72c10 0 15 -7 15 -14s-5 -15 -15 -15h-72v-8c0 -48 27 -94 72 -94c8 0 12 -5 12 -11s-4 -12 -12 -12c-44 0 -87 13 -131 13s-87 -13 -131 -13c-8 0 -12 6 -12 12s4 11 12 11
c45 0 73 46 73 94v8h-167c-23 0 -31 14 -31 23c0 3 1 5 2 6c80 93 138 207 138 330c0 9 6 16 13 16h3c23 -7 47 -13 71 -13s48 6 71 13c2 1 3 1 5 1c11 0 18 -10 12 -17l-284 -330h167v131c0 8 1 17 8 22z" fill="currentColor"/>
<path transform="translate(17.2334, 8.3496) scale(0.0040, -0.0040)" d="M150 477c-29 0 -59 -8 -59 -33c0 -22 36 -25 36 -47c0 -32 -26 -58 -58 -58s-57 26 -57 58c0 65 67 103 138 103c91 0 169 -33 169 -114c0 -43 -4 -82 -42 -100c-9 -4 -14 -12 -14 -21s5 -18 14 -22c41 -19 56 -57 56 -103c0 -92 -79 -140 -179 -140
c-79 0 -154 42 -154 113c0 36 30 66 66 66s65 -30 65 -66c0 -25 -40 -28 -40 -53c0 -27 32 -37 63 -37c49 0 63 61 63 117v16c0 54 -2 94 -50 94h-80c-10 0 -14 8 -14 15s4 14 14 14h80c49 0 50 43 50 99v8c0 54 -18 91 -67 91z" fill="currentColor"/>
<path transform="translate(8.7668, 19.5140) scale(0.0040, -0.0040)" d="M376 262c4 0 9 1 13 1c155 0 256 -128 256 -261c0 -76 -33 -154 -107 -210c-22 -17 -47 -28 -73 -36c3 -35 5 -70 5 -105c0 -19 -1 -39 -2 -58c-7 -120 -90 -228 -208 -228c-108 0 -195 88 -195 197c0 58 53 103 112 103c54 0 95 -47 95 -103c0 -52 -43 -95 -95 -95
c-11 0 -21 2 -31 6c26 -39 68 -65 117 -65c96 0 157 92 163 191c1 18 2 37 2 55c0 31 -1 61 -4 92c-29 -5 -58 -8 -89 -8c-188 0 -333 172 -333 374c0 177 131 306 248 441c-19 62 -37 125 -45 190c-6 52 -7 104 -7 156c0 115 55 224 149 292c3 2 7 3 10 3c4 0 7 0 10 -3
c71 -84 133 -245 133 -358c0 -143 -86 -255 -180 -364c21 -68 39 -138 56 -207zM461 -203c68 24 113 95 113 164c0 90 -66 179 -173 190c24 -116 46 -231 60 -354zM74 28c0 -135 129 -247 264 -247c28 0 55 2 82 6c-14 127 -37 245 -63 364c-79 -8 -124 -61 -124 -119
c0 -44 25 -91 81 -123c5 -5 7 -10 7 -15c0 -11 -10 -22 -22 -22c-3 0 -6 1 -9 2c-80 43 -117 115 -117 185c0 88 58 174 160 197c-14 58 -29 117 -46 175c-107 -121 -213 -243 -213 -403zM408 1045c-99 -48 -162 -149 -162 -259c0 -74 18 -133 36 -194
c80 97 146 198 146 324c0 55 -4 79 -20 129z" fill="currentColor"/>
<path transform="translate(12.3868, 18.5140) scale(0.0040, -0.0040)" d="M27 41l-1 -66v-11c0 -22 1 -44 4 -66c45 38 93 80 93 139c0 33 -14 67 -43 67c-31 0 -52 -30 -53 -63zM-15 -138l-12 595c8 5 18 8 27 8s19 -3 27 -8l-7 -345c25 21 58 34 91 34c52 0 89 -48 89 -102c0 -80 -86 -117 -147 -169c-15 -13 -24 -38 -45 -38
c-13 0 -23 11 -23 25z" fill="currentColor"/>
<path transform="translate(13.3068, 17.0140) scale(0.0040, -0.0040)" d="M27 41l-1 -66v-11c0 -22 1 -44 4 -66c45 38 93 80 93 139c0 33 -14 67 -43 67c-31 0 -52 -30 -53 -63zM-15 -138l-12 595c8 5 18 8 27 8s19 -3 27 -8l-7 -345c25 21 58 34 91 34c52 0 89 -48 89 -102c0 -80 -86 -117 -147 -169c-15 -13 -24 -38 -45 -38
c-13 0 -23 11 -23 25z" fill="currentColor"/>
<path transform="translate(14.2268, 19.0140) scale(0.0040, -0.0040)" d="M27 41l-1 -66v-11c0 -22 1 -44 4 -66c45 38 93 80 93 139c0 33 -14 67 -43 67c-31 0 -52 -30 -53 -63zM-15 -138l-12 595c8 5 18 8 27 8s19 -3 27 -8l-7 -345c25 21 58 34 91 34c52 0 89 -48 89 -102c0 -80 -86 -117 -147 -169c-15 -13 -24 -38 -45 -38
c-13 0 -23 11 -23 25z" fill="currentColor"/>
<path transform="translate(15.1468, 17.5140) scale(0.0040, -0.0040)" d="M27 41l-1 -66v-11c0 -22 1 -44 4 -66c45 38 93 80 93 139c0 33 -14 67 -43 67c-31 0 -52 -30 -53 -63zM-15 -138l-12 595c8 5 18 8 27 8s19 -3 27 -8l-7 -345c25 21 58 34 91 34c52 0 89 -48 89 -102c0 -80 -86 -117 -147 -169c-15 -13 -24 -38 -45 -38
c-13 0 -23 11 -23 25z" fill="currentColor"/>
<path transform="translate(17.0968, 20.5285) scale(0.0040, -0.0040)" d="M204 307c22 14 44 29 60 50c11 15 19 33 27 50c2 4 5 6 9 6c6 0 13 -5 13 -14v-245h72c10 0 15 -7 15 -14s-5 -15 -15 -15h-72v-8c0 -48 27 -94 72 -94c8 0 12 -5 12 -11s-4 -12 -12 -12c-44 0 -87 13 -131 13s-87 -13 -131 -13c-8 0 -12 6 -12 12s4 11 12 11
c45 0 73 46 73 94v8h-167c-23 0 -31 14 -31 23c0 3 1 5 2 6c80 93 138 207 138 330c0 9 6 16 13 16h3c23 -7 47 -13 71 -13s48 6 71 13c2 1 3 1 5 1c11 0 18 -10 12 -17l-284 -330h167v131c0 8 1 17 8 22z" fill="currentColor"/>
<path transform="translate(17.2334, 18.5140) scale(0.0040, -0.0040)" d="M150 477c-29 0 -59 -8 -59 -33c0 -22 36 -25 36 -47c0 -32 -26 -58 -58 -58s-57 26 -57 58c0 65 67 103 138 103c91 0 169 -33 169 -114c0 -43 -4 -82 -42 -100c-9 -4 -14 -12 -14 -21s5 -18 14 -22c41 -19 56 -57 56 -103c0 -92 -79 -140 -179 -140
c-79 0 -154 42 -154 113c0 36 30 66 66 66s65 -30 65 -66c0 -25 -40 -28 -40 -53c0 -27 32 -37 63 -37c49 0 63 61 63 117v16c0 54 -2 94 -50 94h-80c-10 0 -14 8 -14 15s4 14 14 14h80c49 0 50 43 50 99v8c0 54 -18 91 -67 91z" fill="currentColor"/>
<rect transform="translate(20.7666, 8.3496)" x="-0.0650" y="-3.3122" width="0.1300" height="5.1222" ry="0.0400" fill="currentColor"/>
<path transform="translate(108.3833, 4.8496) scale(0.0040, -0.0040)" d="M220 138c56 0 109 -29 109 -91c0 -72 -56 -121 -103 -149c-36 -21 -76 -36 -117 -36c-56 0 -109 29 -109 91c0 72 56 121 103 149c36 21 76 36 117 36z" fill="currentColor"/>
<path transform="translate(108.3833, 4.8496) scale(0.0040, -0.0040)" d="M220 138c56 0 109 -29 109 -91c0 -72 -56 -121 -103 -149c-36 -21 -76 -36 -117 -36c-56 0 -109 29 -109 91c0 72 56 121 103 149c36 21 76 36 117 36z" fill="currentColor"/>
<path transform="translate(108.3833, 23.5140) scale(0.0040, -0.0040)" d="M220 138c56 0 109 -29 109 -91c0 -72 -56 -121 -103 -149c-36 -21 -76 -36 -117 -36c-56 0 -109 29 -109 91c0 72 56 121 103 149c36 21 76 36 117 36z" fill="currentColor"/>
<path transform="translate(104.2991, 17.5140) scale(0.0040, -0.0040)" d="M446 -100c0 23 18 41 41 41s41 -18 41 -41s-18 -41 -41 -41s-41 18 -41 41zM446 100c0 23 18 41 41 41s41 -18 41 -41s-18 -41 -41 -41s-41 18 -41 41zM179 213c140 0 241 -69 241 -201c0 -211 -210 -333 -411 -421c-3 -3 -6 -4 -9 -4c-7 0 -13 6 -13 13c0 3 1 6 4 9
c150 98 307 217 307 393c0 92 -38 185 -119 185c-52 0 -87 -38 -104 -90c5 1 10 2 15 2c44 0 80 -36 80 -80c0 -46 -35 -85 -80 -85c-48 0 -90 38 -90 85c0 104 77 194 179 194z" fill="currentColor"/>
<rect transform="translate(109.6345, 8.3496)" x="-0.0650" y="-6.0000" width="0.1300" height="2.3122" ry="0.0400" fill="currentColor"/>
<rect transform="translate(108.4483, 8.3496)" x="-0.0650" y="-3.3122" width="0.1300" height="5.1422" ry="0.0400" fill="currentColor"/>
<path transform="translate(102.6829, 23.0140) scale(0.0040, -0.0040)" d="M220 138c56 0 109 -29 109 -91c0 -72 -56 -121 -103 -149c-36 -21 -76 -36 -117 -36c-56 0 -109 29 -109 91c0 72 56 121 103 149c36 21 76 36 117 36z" fill="currentColor"/>
<path transform="translate(103.3410, 23.9640) scale(0.0040, -0.0040)" d="M-50 0c0 28 22 50 50 50s50 -22 50 -50s-22 -50 -50 -50s-50 22 -50 50z" fill="currentColor"/>
<rect transform="translate(103.9341, 18.5140)" x="-0.0650" y="-1.0113" width="0.1300" height="5.3235" ry="0.0400" fill="currentColor"/>
<path transform="translate(101.5329, 23.0140) scale(0.0040, -0.0040)" d="M27 41l-1 -66v-11c0 -22 1 -44 4 -66c45 38 93 80 93 139c0 33 -14 67 -43 67c-31 0 -52 -30 -53 -63zM-15 -138l-12 595c8 5 18 8 27 8s19 -3 27 -8l-7 -345c25 21 58 34 91 34c52 0 89 -48 89 -102c0 -80 -86 -117 -147 -169c-15 -13 -24 -38 -45 -38
c-13 0 -23 11 -23 25z" fill="currentColor"/>
<path transform="translate(103.9410, 5.3496) scale(0.0040, -0.0040)" d="M220 138c56 0 109 -29 109 -91c0 -72 -56 -121 -103 -149c-36 -21 -76 -36 -117 -36c-56 0 -109 29 -109 91c0 72 56 121 103 149c36 21 76 36 117 36z" fill="currentColor"/>
<path transform="translate(103.9410, 5.3496) scale(0.0040, -0.0040)" d="M220 138c56 0 109 -29 109 -91c0 -72 -56 -121 -103 -149c-36 -21 -76 -36 -117 -36c-56 0 -109 29 -109 91c0 72 56 121 103 149c36 21 76 36 117 36z" fill="currentColor"/>
<rect transform="translate(105.1922, 8.3496)" x="-0.0650" y="-7.5000" width="0.1300" height="4.3122" ry="0.0400" fill="currentColor"/>
<rect transform="translate(104.0060, 8.3496)" x="-0.0650" y="-2.8122" width="0.1300" height="5.6232" ry="0.0400" fill="currentColor"/>
<path transform="translate(146.5748, 6.3496) scale(0.0040, -0.0040)" d="M220 138c56 0 109 -29 109 -91c0 -72 -56 -121 -103 -149c-36 -21 -76 -36 -117 -36c-56 0 -109 29 -109 91c0 72 56 121 103 149c36 21 76 36 117 36z" fill="currentColor"/>
<path transform="translate(146.5748, 6.3496) scale(0.0040, -0.0040)" d="M220 138c56 0 109 -29 109 -91c0 -72 -56 -121 -103 -149c-36 -21 -76 -36 -117 -36c-56 0 -109 29 -109 91c0 72 56 121 103 149c36 21 76 36 117 36z" fill="currentColor"/>
<rect transform="translate(146.6398, 8.3496)" x="-0.0650" y="-1.8122" width="0.1300" height="3.3105" ry="0.0400" fill="currentColor"/>
<rect transform="translate(147.8259, 8.3496)" x="-0.0650" y="-6.5000" width="0.1300" height="4.3122" ry="0.0400" fill="currentColor"/>
<path transform="translate(139.6665, 5.3496) scale(0.0040, -0.0040)" d="M220 138c56 0 109 -29 109 -91c0 -72 -56 -121 -103 -149c-36 -21 -76 -36 -117 -36c-56 0 -109 29 -109 91c0 72 56 121 103 149c36 21 76 36 117 36z" fill="currentColor"/>
<rect transform="translate(140.9177, 8.3496)" x="-0.0650" y="-6.5000" width="0.1300" height="3.3122" ry="0.0400" fill="currentColor"/>
<path transform="translate(141.7289, 7.3496) scale(0.0040, -0.0040)" d="M220 138c56 0 109 -29 109 -91c0 -72 -56 -121 -103 -149c-36 -21 -76 -36 -117 -36c-56 0 -109 29 -109 91c0 72 56 121 103 149c36 21 76 36 117 36z" fill="currentColor"/>
<path transform="translate(141.7289, 20.0140) scale(0.0040, -0.0040)" d="M220 138c56 0 109 -29 109 -91c0 -72 -56 -121 -103 -149c-36 -21 -76 -36 -117 -36c-56 0 -109 29 -109 91c0 72 56 121 103 149c36 21 76 36 117 36z" fill="currentColor"/>
<rect transform="translate(142.9800, 8.3496)" x="-0.0650" y="-6.5000" width="0.1300" height="5.3122" ry="0.0400" fill="currentColor"/>
<rect transform="translate(141.7939, 18.5140)" x="-0.0650" y="1.6878" width="0.1300" height="3.1332" ry="0.0400" fill="currentColor"/>
<path transform="translate(143.9018, 8.3496) scale(0.0040, -0.0040)" d="M220 138c56 0 109 -29 109 -91c0 -72 -56 -121 -103 -149c-36 -21 -76 -36 -117 -36c-56 0 -109 29 -109 91c0 72 56 121 103 149c36 21 76 36 117 36z" fill="currentColor"/>
<rect transform="translate(145.1530, 8.3496)" x="-0.0650" y="-6.5000" width="0.1300" height="6.3122" ry="0.0400" fill="currentColor"/>
<path transform="translate(27.7139, 6.3496) scale(0.0040, -0.0040)" d="M220 138c56 0 109 -29 109 -91c0 -72 -56 -121 -103 -149c-36 -21 -76 -36 -117 -36c-56 0 -109 29 -109 91c0 72 56 121 103 149c36 21 76 36 117 36z" fill="currentColor"/>
<rect transform="translate(27.7789, 8.3496)" x="-0.0650" y="-1.8122" width="0.1300" height="3.6222" ry="0.0400" fill="currentColor"/>
<path transform="translate(29.8850, 7.8496) scale(0.0040, -0.0040)" d="M220 138c56 0 109 -29 109 -91c0 -72 -56 -121 -103 -149c-36 -21 -76 -36 -117 -36c-56 0 -109 29 -109 91c0 72 56 121 103 149c36 21 76 36 117 36z" fill="currentColor"/>
<rect transform="translate(29.9500, 8.3496)" x="-0.0650" y="-0.3122" width="0.1300" height="2.1222" ry="0.0400" fill="currentColor"/>
<path transform="translate(32.5579, 5.3496) scale(0.0040, -0.0040)" d="M220 138c56 0 109 -29 109 -91c0 -72 -56 -121 -103 -149c-36 -21 -76 -36 -117 -36c-56 0 -109 29 -109 91c0 72 56 121 103 149c36 21 76 36 117 36z" fill="currentColor"/>
<rect transform="translate(32.6229, 8.3496)" x="-0.0650" y="-2.8122" width="0.1300" height="4.6222" ry="0.0400" fill="currentColor"/>
<path transform="translate(34.9809, 4.8496) scale(0.0040, -0.0040)" d="M220 138c56 0 109 -29 109 -91c0 -72 -56 -121 -103 -149c-36 -21 -76 -36 -117 -36c-56 0 -109 29 -109 91c0 72 56 121 103 149c36 21 76 36 117 36z" fill="currentColor"/>
<path transform="translate(23.3745, 3.3496) scale(0.0040, -0.0040)" d="M220 138c56 0 109 -29 109 -91c0 -72 -56 -121 -103 -149c-36 -21 -76 -36 -117 -36c-56 0 -109 29 -109 91c0 72 56 121 103 149c36 21 76 36 117 36z" fill="currentColor"/>
<rect transform="translate(23.4395, 8.3496)" x="-0.0650" y="-4.8122" width="0.1300" height="6.6222" ry="0.0400" fill="currentColor"/>
<path transform="translate(25.5475, 4.3496) scale(0.0040, -0.0040)" d="M220 138c56 0 109 -29 109 -91c0 -72 -56 -121 -103 -149c-36 -21 -76 -36 -117 -36c-56 0 -109 29 -109 91c0 72 56 121 103 149c36 21 76 36 117 36z" fill="currentColor"/>
<rect transform="translate(25.6125, 8.3496)" x="-0.0650" y="-3.8122" width="0.1300" height="5.6222" ry="0.0400" fill="currentColor"/>
<rect transform="translate(134.8856, 18.5140)" x="-0.0650" y="3.6878" width="0.1300" height="2.3012" ry="0.0400" fill="currentColor"/>
<path transform="translate(132.4739, 7.3496) scale(0.0040, -0.0040)" d="M446 -100c0 23 18 41 41 41s41 -18 41 -41s-18 -41 -41 -41s-41 18 -41 41zM446 100c0 23 18 41 41 41s41 -18 41 -41s-18 -41 -41 -41s-41 18 -41 41zM179 213c140 0 241 -69 241 -201c0 -211 -210 -333 -411 -421c-3 -3 -6 -4 -9 -4c-7 0 -13 6 -13 13c0 3 1 6 4 9
c150 98 307 217 307 393c0 92 -38 185 -119 185c-52 0 -87 -38 -104 -90c5 1 10 2 15 2c44 0 80 -36 80 -80c0 -46 -35 -85 -80 -85c-48 0 -90 38 -90 85c0 104 77 194 179 194z" fill="currentColor"/>
<g transform="translate(134.4032, 14.0318)" >
<path transform="scale(0.0040, -0.0040)" d="M227 306c32 0 60 -13 60 -41c0 -24 -21 -47 -43 -47c-13 0 -24 5 -29 15c-7 13 -5 30 -25 30c-21 0 -52 -22 -58 -44l-52 -201c-3 -10 -12 -18 -22 -18h-40c-10 0 -16 8 -13 18l57 223c1 4 2 8 2 12c0 11 -4 20 -15 20c-20 0 -45 -31 -51 -54c-4 -7 -10 -10 -16 -10
c-7 0 -12 5 -12 12c0 3 1 6 3 9c12 44 52 75 97 75c29 0 52 -13 64 -35c28 23 62 36 93 36z" fill="currentColor"/>

<path transform="translate(0.8877, 0.0000) scale(0.0040, -0.0040)" d="M253 245l-50 -163c-30 -99 -121 -255 -218 -255c-45 0 -87 27 -87 69c0 39 17 77 52 77c24 0 44 -20 44 -44c0 -30 -38 -24 -38 -54c0 -10 11 -11 23 -11h6c48 0 61 58 73 108l68 273h-49c-11 0 -19 8 -19 19s8 19 19 19h60c32 96 118 191 213 191c45 0 87 -27 87 -69
c0 -39 -17 -77 -52 -77c-24 0 -44 19 -44 43c0 30 38 25 38 55c0 10 -10 11 -22 11h-7c-62 0 -70 -88 -86 -154h55c11 0 19 -8 19 -19s-8 -19 -19 -19h-66z" fill="currentColor"/>
</g>
<path transform="translate(132.5212, 16.5140) scale(0.0040, -0.0040)" d="M220 138c56 0 109 -29 109 -91c0 -72 -56 -121 -103 -149c-36 -21 -76 -36 -117 -36c-56 0 -109 29 -109 91c0 72 56 121 103 149c36 21 76 36 117 36z" fill="currentColor"/>
<path transform="translate(130.1746, 17.5140) scale(0.0040, -0.0040)" d="M446 -100c0 23 18 41 41 41s41 -18 41 -41s-18 -41 -41 -41s-41 18 -41 41zM446 100c0 23 18 41 41 41s41 -18 41 -41s-18 -41 -41 -41s-41 18 -41 41zM179 213c140 0 241 -69 241 -201c0 -211 -210 -333 -411 -421c-3 -3 -6 -4 -9 -4c-7 0 -13 6 -13 13c0 3 1 6 4 9
c150 98 307 217 307 393c0 92 -38 185 -119 185c-52 0 -87 -38 -104 -90c5 1 10 2 15 2c44 0 80 -36 80 -80c0 -46 -35 -85 -80 -85c-48 0 -90 38 -90 85c0 104 77 194 179 194z" fill="currentColor"/>
<rect transform="translate(136.0718, 8.3496)" x="-0.0650" y="-6.5000" width="0.1300" height="3.8122" ry="0.0400" fill="currentColor"/>
<path transform="translate(134.8206, 22.0140) scale(0.0040, -0.0040)" d="M220 138c56 0 109 -29 109 -91c0 -72 -56 -121 -103 -149c-36 -21 -76 -36 -117 -36c-56 0 -109 29 -109 91c0 72 56 121 103 149c36 21 76 36 117 36z" fill="currentColor"/>
<path transform="translate(136.5868, 5.8496) scale(0.0040, -0.0040)" d="M0 0c0 31 25 56 56 56s56 -25 56 -56s-25 -56 -56 -56s-56 25 -56 56z" fill="currentColor"/>
<rect transform="translate(133.7724, 18.5140)" x="-0.0650" y="-5.1758" width="0.1300" height="2.9880" ry="0.0400" fill="currentColor"/>
<rect transform="translate(134.8856, 8.3496)" x="-0.0650" y="-2.3122" width="0.1300" height="3.5039" ry="0.0400" fill="currentColor"/>
<rect transform="translate(138.7447, 8.3496)" x="-0.0650" y="-6.5000" width="0.1300" height="2.3122" ry="0.0400" fill="currentColor"/>
<path transform="translate(137.4936, 4.3496) scale(0.0040, -0.0040)" d="M220 138c56 0 109 -29 109 -91c0 -72 -56 -121 -103 -149c-36 -21 -76 -36 -117 -36c-56 0 -109 29 -109 91c0 72 56 121 103 149c36 21 76 36 117 36z" fill="currentColor"/>
<path transform="translate(131.4258, 11.3496) scale(0.0040, -0.0040)" d="M220 138c56 0 109 -29 109 -91c0 -72 -56 -121 -103 -149c-36 -21 -76 -36 -117 -36c-56 0 -109 29 -109 91c0 72 56 121 103 149c36 21 76 36 117 36z" fill="currentColor"/>
<rect transform="translate(131.4908, 8.3496)" x="-0.0650" y="3.1878" width="0.1300" height="2.2138" ry="0.0400" fill="currentColor"/>
<path transform="translate(134.8206, 5.8496) scale(0.0040, -0.0040)" d="M220 138c56 0 109 -29 109 -91c0 -72 -56 -121 -103 -149c-36 -21 -76 -36 -117 -36c-56 0 -109 29 -109 91c0 72 56 121 103 149c36 21 76 36 117 36z" fill="currentColor"/>
</svg>
