<svg xmlns="http://www.w3.org/2000/svg" xmlns:xlink="http://www.w3.org/1999/xlink" version="1.2" width="227.89mm" height="41.41mm" viewBox="6.6659 -0.0773 129.6828 23.5617">
<defs><link href="../../assets/fonts.css" type="text/css" rel="stylesheet" xmlns="http://www.w3.org/1999/xhtml" /></defs>
<rect transform="translate(119.2024, 17.8537)" x="0.0000" y="-2.0500" width="0.1900" height="4.0500" ry="0.0000" fill="currentColor"/>
<rect transform="translate(31.6112, -0.0000)" x="0.0000" y="6.7245" width="0.1900" height="9.1291" ry="0.0000" fill="currentColor"/>
<rect transform="translate(51.4911, 4.6745)" x="0.0000" y="-2.0000" width="0.1900" height="4.0500" ry="0.0000" fill="currentColor"/>
<rect transform="translate(93.2058, 17.8537)" x="0.0000" y="-2.0500" width="0.1900" height="4.1000" ry="0.0000" fill="currentColor"/>
<rect transform="translate(119.2024, -0.0000)" x="0.0000" y="6.7245" width="0.1900" height="9.1291" ry="0.0000" fill="currentColor"/>
<rect transform="translate(73.2783, -0.0000)" x="0.0000" y="6.7245" width="0.1900" height="9.1291" ry="0.0000" fill="currentColor"/>
<rect transform="translate(31.6112, 17.8537)" x="0.0000" y="-2.0500" width="0.1900" height="4.1000" ry="0.0000" fill="currentColor"/>
<rect transform="translate(136.1586, -0.0000)" x="0.0000" y="6.7245" width="0.1900" height="9.1291" ry="0.0000" fill="currentColor"/>
<rect transform="translate(73.2783, 17.8537)" x="0.0000" y="-2.0500" width="0.1900" height="4.1000" ry="0.0000" fill="currentColor"/>
<rect transform="translate(51.4911, 17.8537)" x="0.0000" y="-2.0500" width="0.1900" height="4.1000" ry="0.0000" fill="currentColor"/>
<rect transform="translate(136.1586, 17.8537)" x="0.0000" y="-2.0500" width="0.1900" height="4.0500" ry="0.0000" fill="currentColor"/>
<rect transform="translate(93.2058, -0.0000)" x="0.0000" y="6.7245" width="0.1900" height="9.1291" ry="0.0000" fill="currentColor"/>
<rect transform="translate(93.2058, 4.6745)" x="0.0000" y="-2.0000" width="0.1900" height="4.0500" ry="0.0000" fill="currentColor"/>
<rect transform="translate(0.0000, 7.6745)" x="113.4258" y="-0.1000" width="1.9743" height="0.2000" ry="0.1000" fill="currentColor"/>
<rect transform="translate(0.0000, 7.6745)" x="119.9449" y="-0.1000" width="2.0850" height="0.2000" ry="0.1000" fill="currentColor"/>
<line transform="translate(7.9668, 6.6745)" stroke-linejoin="round" stroke-linecap="round" stroke-width="0.1000" stroke="currentColor" x1="0.0500" y1="-0.0000" x2="128.3319" y2="-0.0000"/>
<line transform="translate(7.9668, 5.6745)" stroke-linejoin="round" stroke-linecap="round" stroke-width="0.1000" stroke="currentColor" x1="0.0500" y1="-0.0000" x2="128.3319" y2="-0.0000"/>
<line transform="translate(7.9668, 4.6745)" stroke-linejoin="round" stroke-linecap="round" stroke-width="0.1000" stroke="currentColor" x1="0.0500" y1="-0.0000" x2="128.3319" y2="-0.0000"/>
<line transform="translate(7.9668, 3.6745)" stroke-linejoin="round" stroke-linecap="round" stroke-width="0.1000" stroke="currentColor" x1="0.0500" y1="-0.0000" x2="128.3319" y2="-0.0000"/>
<line transform="translate(7.9668, 2.6745)" stroke-linejoin="round" stroke-linecap="round" stroke-width="0.1000" stroke="currentColor" x1="0.0500" y1="-0.0000" x2="128.3319" y2="-0.0000"/>
<rect transform="translate(0.0000, 14.8537)" x="26.5237" y="-0.1000" width="2.0850" height="0.2000" ry="0.1000" fill="currentColor"/>
<rect transform="translate(0.0000, 14.8537)" x="40.2681" y="-0.1000" width="2.0850" height="0.2000" ry="0.1000" fill="currentColor"/>
<rect transform="translate(0.0000, 14.8537)" x="62.3345" y="-0.1000" width="1.9743" height="0.2000" ry="0.1000" fill="currentColor"/>
<rect transform="translate(0.0000, 14.8537)" x="82.1844" y="-0.1000" width="1.9743" height="0.2000" ry="0.1000" fill="currentColor"/>
<rect transform="translate(0.0000, 14.8537)" x="82.1844" y="-0.1000" width="1.9743" height="0.2000" ry="0.1000" fill="currentColor"/>
<rect transform="translate(0.0000, 13.8537)" x="82.1844" y="-0.1000" width="1.9743" height="0.2000" ry="0.1000" fill="currentColor"/>
<rect transform="translate(0.0000, 12.8537)" x="82.1844" y="-0.1000" width="1.9743" height="0.2000" ry="0.1000" fill="currentColor"/>
<rect transform="translate(0.0000, 14.8537)" x="96.7143" y="-0.1000" width="1.9743" height="0.2000" ry="0.1000" fill="currentColor"/>
<rect transform="translate(0.0000, 13.8537)" x="96.7143" y="-0.1000" width="1.9743" height="0.2000" ry="0.1000" fill="currentColor"/>
<rect transform="translate(0.0000, 14.8537)" x="100.1345" y="-0.1000" width="1.8202" height="0.2000" ry="0.1000" fill="currentColor"/>
<rect transform="translate(0.0000, 14.8537)" x="103.3253" y="-0.1000" width="1.9287" height="0.2000" ry="0.1000" fill="currentColor"/>
<rect transform="translate(0.0000, 13.8537)" x="103.3253" y="-0.1000" width="1.9287" height="0.2000" ry="0.1000" fill="currentColor"/>
<rect transform="translate(0.0000, 14.8537)" x="105.6378" y="-0.1000" width="1.9743" height="0.2000" ry="0.1000" fill="currentColor"/>
<line transform="translate(7.9668, 19.8537)" stroke-linejoin="round" stroke-linecap="round" stroke-width="0.1000" stroke="currentColor" x1="0.0500" y1="-0.0000" x2="128.3319" y2="-0.0000"/>
<line transform="translate(7.9668, 18.8537)" stroke-linejoin="round" stroke-linecap="round" stroke-width="0.1000" stroke="currentColor" x1="0.0500" y1="-0.0000" x2="128.3319" y2="-0.0000"/>
<line transform="translate(7.9668, 17.8537)" stroke-linejoin="round" stroke-linecap="round" stroke-width="0.1000" stroke="currentColor" x1="0.0500" y1="-0.0000" x2="128.3319" y2="-0.0000"/>
<line transform="translate(7.9668, 16.8537)" stroke-linejoin="round" stroke-linecap="round" stroke-width="0.1000" stroke="currentColor" x1="0.0500" y1="-0.0000" x2="128.3319" y2="-0.0000"/>
<line transform="translate(7.9668, 15.8537)" stroke-linejoin="round" stroke-linecap="round" stroke-width="0.1000" stroke="currentColor" x1="0.0500" y1="-0.0000" x2="128.3319" y2="-0.0000"/>
<rect transform="translate(31.6112, 4.6745)" x="0.0000" y="-2.0000" width="0.1900" height="4.0500" ry="0.0000" fill="currentColor"/>
<rect transform="translate(119.2024, 4.6745)" x="0.0000" y="-2.0000" width="0.1900" height="4.0500" ry="0.0000" fill="currentColor"/>
<rect transform="translate(73.2783, 4.6745)" x="0.0000" y="-2.0000" width="0.1900" height="4.0500" ry="0.0000" fill="currentColor"/>
<rect transform="translate(51.4911, -0.0000)" x="0.0000" y="6.7245" width="0.1900" height="9.1291" ry="0.0000" fill="currentColor"/>
<rect transform="translate(136.1586, 4.6745)" x="0.0000" y="-2.0000" width="0.1900" height="4.0500" ry="0.0000" fill="currentColor"/>
<path transform="translate(44.4318, 6.6745) scale(0.0040, -0.0040)" d="M-8 375c8 4 17 7 26 7s17 -3 25 -7l-3 -183l106 20h3c10 0 18 -7 18 -17l7 -570c-8 -4 -16 -7 -25 -7s-17 3 -25 7l3 183l-106 -20h-3c-10 0 -18 7 -18 17zM131 112l-92 -17l-3 -207l92 17z" fill="currentColor"/>
<rect transform="translate(46.7234, 4.6745)" x="-0.0650" y="-1.4688" width="0.1300" height="3.2810" ry="0.0400" fill="currentColor"/>
<path transform="translate(45.4722, 6.6745) scale(0.0040, -0.0040)" d="M220 138c56 0 109 -29 109 -91c0 -72 -56 -121 -103 -149c-36 -21 -76 -36 -117 -36c-56 0 -109 29 -109 91c0 72 56 121 103 149c36 21 76 36 117 36z" fill="currentColor"/>
<path transform="translate(43.3661, 23.4844) scale(0.0040, -0.0040)" d="M166 194c0 -16 12 -28 28 -28s29 12 29 28s-13 29 -29 29s-28 -13 -28 -29zM92 347c23 0 42 -19 42 -46v-11c0 -20 11 -45 35 -35c9 4 15 13 15 22c0 27 -38 37 -38 64c0 32 24 48 48 48s49 -16 49 -48c0 -27 -39 -37 -39 -64c0 -18 26 -32 41 -17c8 8 10 19 10 30
c0 4 -1 7 -1 11c0 27 20 46 43 46c26 0 50 -24 50 -50c0 -23 -18 -43 -45 -43c-4 0 -8 1 -12 1c-20 0 -45 -11 -35 -35c4 -9 13 -16 22 -16c27 0 37 39 64 39c32 0 48 -25 48 -49s-16 -48 -48 -48c-27 0 -37 38 -64 38c-18 0 -32 -26 -17 -41c8 -8 19 -9 30 -9h12
c27 0 45 -19 45 -42c0 -26 -24 -50 -50 -50c-23 0 -43 18 -43 45c0 4 1 8 1 12c0 20 -11 45 -35 35c-9 -4 -16 -13 -16 -22c0 -27 39 -37 39 -64c0 -32 -25 -48 -49 -48s-48 16 -48 48c0 27 38 37 38 64c0 18 -26 32 -41 17c-8 -8 -9 -19 -9 -30v-12c0 -27 -19 -45 -42 -45
c-26 0 -50 24 -50 50c0 23 18 42 45 42h12c20 0 45 11 35 35c-4 9 -13 15 -22 15c-27 0 -37 -38 -64 -38c-32 0 -48 24 -48 48s16 49 48 49c27 0 37 -39 64 -39c18 0 32 26 17 41c-8 8 -19 10 -30 10c-4 0 -8 -1 -12 -1c-27 0 -45 20 -45 43c0 26 24 50 50 50z" fill="currentColor"/>
<rect transform="translate(44.0668, 4.6745)" x="-0.0650" y="-1.1967" width="0.1300" height="3.5088" ry="0.0400" fill="currentColor"/>
<path transform="translate(42.8156, 7.1745) scale(0.0040, -0.0040)" d="M220 138c56 0 109 -29 109 -91c0 -72 -56 -121 -103 -149c-36 -21 -76 -36 -117 -36c-56 0 -109 29 -109 91c0 72 56 121 103 149c36 21 76 36 117 36z" fill="currentColor"/>
<rect transform="translate(40.6806, 17.8537)" x="-0.0650" y="-3.2386" width="0.1300" height="5.2386" ry="0.0400" fill="currentColor"/>
<rect transform="translate(53.8323, 17.8537)" x="-0.0650" y="-1.5000" width="0.1300" height="3.3122" ry="0.0400" fill="currentColor"/>
<path transform="translate(55.0973, 5.1745) scale(0.0040, -0.0040)" d="M220 138c56 0 109 -29 109 -91c0 -72 -56 -121 -103 -149c-36 -21 -76 -36 -117 -36c-56 0 -109 29 -109 91c0 72 56 121 103 149c36 21 76 36 117 36z" fill="currentColor"/>
<rect transform="translate(56.3485, 4.6745)" x="-0.0650" y="-2.4623" width="0.1300" height="2.7745" ry="0.0400" fill="currentColor"/>
<path transform="translate(48.7384, 6.1745) scale(0.0040, -0.0040)" d="M220 138c56 0 109 -29 109 -91c0 -72 -56 -121 -103 -149c-36 -21 -76 -36 -117 -36c-56 0 -109 29 -109 91c0 72 56 121 103 149c36 21 76 36 117 36z" fill="currentColor"/>
<rect transform="translate(49.9895, 4.6745)" x="-0.0650" y="-1.8033" width="0.1300" height="3.1155" ry="0.0400" fill="currentColor"/>
<path transform="translate(47.2884, 6.1745) scale(0.0040, -0.0040)" d="M216 -312c0 -10 -8 -19 -18 -19s-19 9 -19 19v145l-83 -31v-158c0 -10 -9 -19 -19 -19s-18 9 -18 19v145l-32 -12c-2 -1 -5 -1 -7 -1c-11 0 -20 9 -20 20v60c0 8 5 16 13 19l46 16v160l-32 -11c-2 -1 -5 -1 -7 -1c-11 0 -20 9 -20 20v60c0 8 5 15 13 18l46 17v158
c0 10 8 19 18 19s19 -9 19 -19v-145l83 31v158c0 10 9 19 19 19s18 -9 18 -19v-145l32 12c2 1 5 1 7 1c11 0 20 -9 20 -20v-60c0 -8 -5 -16 -13 -19l-46 -16v-160l32 11c2 1 5 1 7 1c11 0 20 -9 20 -20v-60c0 -8 -5 -15 -13 -18l-46 -17v-158zM96 65v-160l83 30v160z" fill="currentColor"/>
<path transform="translate(52.5811, 5.6745) scale(0.0040, -0.0040)" d="M220 138c56 0 109 -29 109 -91c0 -72 -56 -121 -103 -149c-36 -21 -76 -36 -117 -36c-56 0 -109 29 -109 91c0 72 56 121 103 149c36 21 76 36 117 36z" fill="currentColor"/>
<path transform="translate(52.5811, 19.8537) scale(0.0040, -0.0040)" d="M220 138c56 0 109 -29 109 -91c0 -72 -56 -121 -103 -149c-36 -21 -76 -36 -117 -36c-56 0 -109 29 -109 91c0 72 56 121 103 149c36 21 76 36 117 36z" fill="currentColor"/>
<path transform="translate(54.0371, 23.4844) scale(0.0040, -0.0040)" d="M0 35c0 19 16 35 35 35s35 -16 35 -35s-16 -35 -35 -35s-35 16 -35 35z" fill="currentColor"/>
<path transform="translate(50.8451, 23.4844) scale(0.0040, -0.0040)" d="M43 339c0 -19 13 -48 39 -48c22 0 43 28 43 59c0 8 18 8 18 0c0 -63 -41 -125 -83 -125c-41 0 -61 44 -61 78c0 82 90 197 251 197c108 0 166 -82 166 -144c0 -30 -17 -67 -52 -67s-68 49 -87 90c-3 7 13 14 16 7c8 -18 28 -32 46 -32c21 0 32 18 32 36
c0 39 -44 92 -121 92h-7c-10 -20 -39 -91 -39 -108c0 -46 100 -114 100 -164c0 -24 -28 -52 -58 -90c29 -3 83 -28 102 -44c13 -11 48 24 57 31c-4 19 -6 29 -6 48c0 60 32 132 96 132c25 0 49 -17 49 -45c0 -37 -43 -80 -79 -110l-11 -9c13 -24 33 -57 47 -69
c4 -4 13 -3 18 0c9 5 47 33 63 47c-4 14 -6 28 -6 42c0 55 45 112 97 137c-51 71 -129 126 -208 140c-8 1 -5 19 3 18c142 -25 305 -134 329 -272c1 -8 3 -16 3 -24c0 -70 -50 -142 -113 -142c-43 0 -81 37 -99 82c-24 -22 -73 -64 -85 -72c-8 -6 -19 -9 -30 -9
c-39 0 -51 46 -62 85c-27 -20 -90 -73 -106 -82c-6 -3 -12 -4 -17 0c-19 16 -28 89 -57 98c-25 -30 -47 -57 -56 -66c-12 -12 -47 -36 -64 -36c-7 0 -14 5 -14 12c0 13 21 38 30 47c18 19 67 57 95 61c18 21 30 29 30 49c0 47 -88 111 -88 150c0 24 43 134 60 162
c-113 -10 -181 -88 -181 -142zM475 254c-30 0 -43 -27 -43 -55c0 -20 6 -42 14 -60c26 22 63 54 63 83c0 19 -16 32 -34 32zM683 265c-37 -21 -55 -77 -55 -122c0 -48 18 -108 59 -108c32 0 45 39 45 81c0 61 -20 105 -49 149z" fill="currentColor"/>
<rect transform="translate(53.8323, 4.6745)" x="-0.0650" y="-2.1969" width="0.1300" height="3.0090" ry="0.0400" fill="currentColor"/>
<rect transform="translate(26.9362, 17.8537)" x="-0.0650" y="-3.2386" width="0.1300" height="5.2386" ry="0.0400" fill="currentColor"/>
<path transform="translate(26.8712, 14.3537) scale(0.0040, -0.0040)" d="M315 65c0 24 -21 41 -42 41c-4 0 -8 0 -12 -1c-31 -9 -77 -40 -114 -64s-84 -53 -104 -78c-7 -8 -11 -18 -11 -28c0 -24 21 -41 42 -41c4 0 8 0 12 1c31 9 78 40 115 64s84 53 104 78c7 8 10 18 10 28zM264 137c47 0 83 -21 83 -72c0 -19 -4 -37 -10 -56
c-12 -38 -32 -74 -65 -96c-54 -36 -113 -51 -188 -51c-47 0 -84 22 -84 73c0 19 5 37 11 56c12 38 31 74 64 96c54 36 114 50 189 50z" fill="currentColor"/>
<path transform="translate(26.8712, 15.3537) scale(0.0040, -0.0040)" d="M315 65c0 24 -21 41 -42 41c-4 0 -8 0 -12 -1c-31 -9 -77 -40 -114 -64s-84 -53 -104 -78c-7 -8 -11 -18 -11 -28c0 -24 21 -41 42 -41c4 0 8 0 12 1c31 9 78 40 115 64s84 53 104 78c7 8 10 18 10 28zM264 137c47 0 83 -21 83 -72c0 -19 -4 -37 -10 -56
c-12 -38 -32 -74 -65 -96c-54 -36 -113 -51 -188 -51c-47 0 -84 22 -84 73c0 19 5 37 11 56c12 38 31 74 64 96c54 36 114 50 189 50z" fill="currentColor"/>
<path transform="translate(26.8712, 16.3537) scale(0.0040, -0.0040)" d="M315 65c0 24 -21 41 -42 41c-4 0 -8 0 -12 -1c-31 -9 -77 -40 -114 -64s-84 -53 -104 -78c-7 -8 -11 -18 -11 -28c0 -24 21 -41 42 -41c4 0 8 0 12 1c31 9 78 40 115 64s84 53 104 78c7 8 10 18 10 28zM264 137c47 0 83 -21 83 -72c0 -19 -4 -37 -10 -56
c-12 -38 -32 -74 -65 -96c-54 -36 -113 -51 -188 -51c-47 0 -84 22 -84 73c0 19 5 37 11 56c12 38 31 74 64 96c54 36 114 50 189 50z" fill="currentColor"/>
<rect transform="translate(22.9700, 17.8537)" x="-0.0650" y="0.1878" width="0.1300" height="3.1455" ry="0.0400" fill="currentColor"/>
<path transform="translate(22.9050, 17.8537) scale(0.0040, -0.0040)" d="M220 138c56 0 109 -29 109 -91c0 -72 -56 -121 -103 -149c-36 -21 -76 -36 -117 -36c-56 0 -109 29 -109 91c0 72 56 121 103 149c36 21 76 36 117 36z" fill="currentColor"/>
<path transform="translate(131.0409, 17.8537) scale(0.0040, -0.0040)" d="M315 65c0 24 -21 41 -42 41c-4 0 -8 0 -12 -1c-31 -9 -77 -40 -114 -64s-84 -53 -104 -78c-7 -8 -11 -18 -11 -28c0 -24 21 -41 42 -41c4 0 8 0 12 1c31 9 78 40 115 64s84 53 104 78c7 8 10 18 10 28zM264 137c47 0 83 -21 83 -72c0 -19 -4 -37 -10 -56
c-12 -38 -32 -74 -65 -96c-54 -36 -113 -51 -188 -51c-47 0 -84 22 -84 73c0 19 5 37 11 56c12 38 31 74 64 96c54 36 114 50 189 50z" fill="currentColor"/>
<rect transform="translate(132.3659, 17.8537)" x="-0.0650" y="-3.3333" width="0.1300" height="3.0719" ry="0.0400" fill="currentColor"/>
<path transform="translate(40.6156, 14.3537) scale(0.0040, -0.0040)" d="M315 65c0 24 -21 41 -42 41c-4 0 -8 0 -12 -1c-31 -9 -77 -40 -114 -64s-84 -53 -104 -78c-7 -8 -11 -18 -11 -28c0 -24 21 -41 42 -41c4 0 8 0 12 1c31 9 78 40 115 64s84 53 104 78c7 8 10 18 10 28zM264 137c47 0 83 -21 83 -72c0 -19 -4 -37 -10 -56
c-12 -38 -32 -74 -65 -96c-54 -36 -113 -51 -188 -51c-47 0 -84 22 -84 73c0 19 5 37 11 56c12 38 31 74 64 96c54 36 114 50 189 50z" fill="currentColor"/>
<path transform="translate(40.6156, 15.3537) scale(0.0040, -0.0040)" d="M315 65c0 24 -21 41 -42 41c-4 0 -8 0 -12 -1c-31 -9 -77 -40 -114 -64s-84 -53 -104 -78c-7 -8 -11 -18 -11 -28c0 -24 21 -41 42 -41c4 0 8 0 12 1c31 9 78 40 115 64s84 53 104 78c7 8 10 18 10 28zM264 137c47 0 83 -21 83 -72c0 -19 -4 -37 -10 -56
c-12 -38 -32 -74 -65 -96c-54 -36 -113 -51 -188 -51c-47 0 -84 22 -84 73c0 19 5 37 11 56c12 38 31 74 64 96c54 36 114 50 189 50z" fill="currentColor"/>
<path transform="translate(40.6156, 16.3537) scale(0.0040, -0.0040)" d="M315 65c0 24 -21 41 -42 41c-4 0 -8 0 -12 -1c-31 -9 -77 -40 -114 -64s-84 -53 -104 -78c-7 -8 -11 -18 -11 -28c0 -24 21 -41 42 -41c4 0 8 0 12 1c31 9 78 40 115 64s84 53 104 78c7 8 10 18 10 28zM264 137c47 0 83 -21 83 -72c0 -19 -4 -37 -10 -56
c-12 -38 -32 -74 -65 -96c-54 -36 -113 -51 -188 -51c-47 0 -84 22 -84 73c0 19 5 37 11 56c12 38 31 74 64 96c54 36 114 50 189 50z" fill="currentColor"/>
<path transform="translate(40.6156, 4.6745) scale(0.0040, -0.0040)" d="M72 -250l117 326c-34 -12 -69 -22 -105 -22c-46 0 -87 33 -87 79c0 40 33 72 73 72c25 0 48 -15 56 -39c10 -28 6 -59 35 -59c16 0 54 48 61 63c6 12 23 12 28 0l-123 -420c-8 -7 -17 -10 -27 -10s-20 3 -28 10z" fill="currentColor"/>
<rect transform="translate(36.7144, 17.8537)" x="-0.0650" y="0.1878" width="0.1300" height="3.1455" ry="0.0400" fill="currentColor"/>
<path transform="translate(36.6494, 17.8537) scale(0.0040, -0.0040)" d="M220 138c56 0 109 -29 109 -91c0 -72 -56 -121 -103 -149c-36 -21 -76 -36 -117 -36c-56 0 -109 29 -109 91c0 72 56 121 103 149c36 21 76 36 117 36z" fill="currentColor"/>
<path transform="translate(32.7012, 4.6745) scale(0.0040, -0.0040)" d="M365 0h-355c-6 0 -10 4 -10 10v136c0 6 4 10 10 10h355c6 0 10 -4 10 -10v-136c0 -6 -4 -10 -10 -10z" fill="currentColor"/>
<path transform="translate(32.7012, 19.8537) scale(0.0040, -0.0040)" d="M220 138c56 0 109 -29 109 -91c0 -72 -56 -121 -103 -149c-36 -21 -76 -36 -117 -36c-56 0 -109 29 -109 91c0 72 56 121 103 149c36 21 76 36 117 36z" fill="currentColor"/>
<rect transform="translate(33.9524, 17.8537)" x="-0.0650" y="-1.5000" width="0.1300" height="3.3122" ry="0.0400" fill="currentColor"/>
<path transform="translate(82.5135, 4.6745) scale(0.0040, -0.0040)" d="M72 -250l117 326c-34 -12 -69 -22 -105 -22c-46 0 -87 33 -87 79c0 40 33 72 73 72c25 0 48 -15 56 -39c10 -28 6 -59 35 -59c16 0 54 48 61 63c6 12 23 12 28 0l-123 -420c-8 -7 -17 -10 -27 -10s-20 3 -28 10z" fill="currentColor"/>
<path transform="translate(82.5135, 14.3537) scale(0.0040, -0.0040)" d="M220 138c56 0 109 -29 109 -91c0 -72 -56 -121 -103 -149c-36 -21 -76 -36 -117 -36c-56 0 -109 29 -109 91c0 72 56 121 103 149c36 21 76 36 117 36z" fill="currentColor"/>
<path transform="translate(82.5135, 12.8537) scale(0.0040, -0.0040)" d="M220 138c56 0 109 -29 109 -91c0 -72 -56 -121 -103 -149c-36 -21 -76 -36 -117 -36c-56 0 -109 29 -109 91c0 72 56 121 103 149c36 21 76 36 117 36z" fill="currentColor"/>
<rect transform="translate(82.5785, 17.8537)" x="-0.0650" y="-4.8122" width="0.1300" height="4.8122" ry="0.0400" fill="currentColor"/>
<path transform="translate(84.9135, 3.6745) scale(0.0040, -0.0040)" d="M220 138c56 0 109 -29 109 -91c0 -72 -56 -121 -103 -149c-36 -21 -76 -36 -117 -36c-56 0 -109 29 -109 91c0 72 56 121 103 149c36 21 76 36 117 36z" fill="currentColor"/>
<rect transform="translate(86.1647, 4.6745)" x="-0.0650" y="-3.4965" width="0.1300" height="2.3087" ry="0.0400" fill="currentColor"/>
<rect transform="translate(75.7788, 17.8537)" x="-0.0650" y="-2.5000" width="0.1300" height="3.3122" ry="0.0400" fill="currentColor"/>
<path transform="translate(78.5473, 16.3537) scale(0.0040, -0.0040)" d="M220 138c56 0 109 -29 109 -91c0 -72 -56 -121 -103 -149c-36 -21 -76 -36 -117 -36c-56 0 -109 29 -109 91c0 72 56 121 103 149c36 21 76 36 117 36z" fill="currentColor"/>
<rect transform="translate(78.6123, 17.8537)" x="-0.0650" y="-1.3122" width="0.1300" height="3.3122" ry="0.0400" fill="currentColor"/>
<path transform="translate(84.9135, 4.6745)" stroke-width="0.0800" stroke-linejoin="round" stroke-linecap="round" stroke="currentColor" fill="currentColor" d="M1.32403825903391 -4.23653324983311C3.23849341236006 -5.34687710658897 8.93409756798585 -4.37995312465595 10.3748542 -2.700006C8.91401293383833 -4.26164586591347 3.21840877821254 -5.22856984784649 1.32403825903391 -4.23653324983311z"/>
<line transform="translate(84.9135, 10.2669)" stroke-linejoin="round" stroke-linecap="round" stroke-width="0.1000" stroke="currentColor" x1="0.0000" y1="0.0000" x2="6.9985" y2="0.6666"/>
<line transform="translate(84.9135, 10.2669)" stroke-linejoin="round" stroke-linecap="round" stroke-width="0.1000" stroke="currentColor" x1="0.0000" y1="-0.0000" x2="6.9985" y2="-0.6666"/>
<path transform="translate(78.5473, 17.8537)" stroke-width="0.0800" stroke-linejoin="round" stroke-linecap="round" stroke="currentColor" fill="currentColor" d="M0.367798278837355 -2.550006C0.547306518444699 -4.15429870382702 2.71981448874727 -6.07145368175766 4.33397627883734 -6.050006C2.79921458479701 -5.98147799200042 0.626706614494438 -4.06432301406978 0.367798278837355 -2.550006z"/>
<polygon transform="translate(62.6636, 6.4845)" stroke-linejoin="round" stroke-linecap="round" stroke-width="0.0800" fill="currentColor" stroke="currentColor" points="8.4385 -0.8200 8.4385 -0.4200 0.0400 0.2000 0.0400 -0.2000"/>
<path transform="translate(68.4960, 17.8537)" stroke-width="0.0800" stroke-linejoin="round" stroke-linecap="round" stroke="currentColor" fill="currentColor" d="M0.683504073459872 2.550006C2.05944408303583 3.64037209400425 5.47462025504069 3.44220066708679 6.71520944488843 2.200006C5.46766874358437 3.32240218425637 2.05249257157951 3.52057361117383 0.683504073459872 2.550006z"/>
<line transform="translate(68.4960, 8.2846)" stroke-linejoin="round" stroke-linecap="round" stroke-width="0.1000" stroke="currentColor" x1="0.0000" y1="0.6666" x2="3.9724" y2="0.0000"/>
<line transform="translate(68.4960, 8.2846)" stroke-linejoin="round" stroke-linecap="round" stroke-width="0.1000" stroke="currentColor" x1="0.0000" y1="-0.6666" x2="3.9724" y2="-0.0000"/>
<polygon transform="translate(53.7673, 2.4845)" stroke-linejoin="round" stroke-linecap="round" stroke-width="0.0800" fill="currentColor" stroke="currentColor" points="7.6385 -1.0100 7.6385 -0.6100 0.0400 0.2000 0.0400 -0.2000"/>
<path transform="translate(57.6135, 17.8537)" stroke-width="0.0800" stroke-linejoin="round" stroke-linecap="round" stroke="currentColor" fill="currentColor" d="M0.415567689507021 -1.200006C0.86299964702276 -2.9010017793377 3.72457976437609 -4.79923130357042 5.46569111807845 -4.550006C3.79091400775158 -4.69923246279814 0.929333890398255 -2.80100293856542 0.415567689507021 -1.200006z"/>
<line transform="translate(55.0973, 8.0410)" stroke-linejoin="round" stroke-linecap="round" stroke-width="0.1000" stroke="currentColor" x1="0.0000" y1="0.0000" x2="8.8825" y2="0.6666"/>
<line transform="translate(55.0973, 8.0410)" stroke-linejoin="round" stroke-linecap="round" stroke-width="0.1000" stroke="currentColor" x1="0.0000" y1="-0.0000" x2="8.8825" y2="-0.6666"/>
<path transform="translate(52.5811, 4.6745)" stroke-width="0.0800" stroke-linejoin="round" stroke-linecap="round" stroke="currentColor" fill="currentColor" d="M1.23610641869384 -2.93685677760885C3.5363508396661 -4.7230247882147 16.6565673695782 -5.17401058508431 19.0740308472652 -3.550006C16.6606897369709 -5.05408141395785 3.54047320705882 -4.60309561708824 1.23610641869384 -2.93685677760885z"/>
<polygon transform="translate(44.0018, 3.4845)" stroke-linejoin="round" stroke-linecap="round" stroke-width="0.0800" fill="currentColor" stroke="currentColor" points="6.0128 -0.8200 6.0128 -0.4200 0.0400 0.2000 0.0400 -0.2000"/>
<path transform="translate(42.8156, 4.6745)" stroke-width="0.0800" stroke-linejoin="round" stroke-linecap="round" stroke="currentColor" fill="currentColor" d="M0.731129862709835 3.550006C2.21210682824771 4.481007011576 5.56067248829856 3.91563412435072 6.65388586270983 2.550006C5.54069440738888 3.79730882577444 2.19212874733803 4.36268171299972 0.731129862709835 3.550006z"/>
<path transform="translate(36.6494, 17.8537)" stroke-width="0.0800" stroke-linejoin="round" stroke-linecap="round" stroke="currentColor" fill="currentColor" d="M0.376524706798989 -1.200006C0.591333232097586 -2.78347895820442 2.76702083586032 -4.61142470993326 4.36381670696462 -4.550006C2.84421300123016 -4.51954778352889 0.668525397467431 -2.69160203180005 0.376524706798989 -1.200006z"/>
<path transform="translate(22.9050, 17.8537)" stroke-width="0.0800" stroke-linejoin="round" stroke-linecap="round" stroke="currentColor" fill="currentColor" d="M0.376524706798985 -1.200006C0.591333232097579 -2.78347895820442 2.76702083586031 -4.61142470993326 4.36381670696462 -4.550006C2.84421300123016 -4.51954778352889 0.668525397467424 -2.69160203180005 0.376524706798985 -1.200006z"/>
<polygon transform="translate(123.6785, 15.0437)" stroke-linejoin="round" stroke-linecap="round" stroke-width="0.0800" fill="currentColor" stroke="currentColor" points="6.1224 -0.2000 6.1224 0.2000 0.0400 0.2000 0.0400 -0.2000"/>
<path transform="translate(122.4924, 17.8537)" stroke-width="0.0800" stroke-linejoin="round" stroke-linecap="round" stroke="currentColor" fill="currentColor" d="M1.26975707283452 -3.55C2.92347129680564 -4.83652537796175 7.96987169560983 -4.62214728436331 9.508518 -3.200006C7.96477852271614 -4.50225541812596 2.91837812391194 -4.7166335117244 1.26975707283452 -3.55z"/>
<line transform="translate(122.4924, 21.2201)" stroke-linejoin="round" stroke-linecap="round" stroke-width="0.1000" stroke="currentColor" x1="0.0000" y1="0.6666" x2="7.3485" y2="0.0000"/>
<line transform="translate(122.4924, 21.2201)" stroke-linejoin="round" stroke-linecap="round" stroke-width="0.1000" stroke="currentColor" x1="0.0000" y1="-0.6666" x2="7.3485" y2="-0.0000"/>
<polygon transform="translate(109.6692, 1.4845)" stroke-linejoin="round" stroke-linecap="round" stroke-width="0.0800" fill="currentColor" stroke="currentColor" points="8.1280 0.1800 8.1280 0.5800 0.0400 0.2000 0.0400 -0.2000"/>
<path transform="translate(113.7548, 17.8537)" stroke-width="0.0800" stroke-linejoin="round" stroke-linecap="round" stroke="currentColor" fill="currentColor" d="M0.7807297848872 -1.200006C2.54837902896256 -2.01937389981952 6.65259475719765 -0.83511521729093 7.71201226359685 0.799994C6.61932639442477 -0.719819007299397 2.51511066618968 -1.90407768982798 0.7807297848872 -1.200006z"/>
<path transform="translate(113.7548, 4.6745)" stroke-width="0.0800" stroke-linejoin="round" stroke-linecap="round" stroke="currentColor" fill="currentColor" d="M0.429999999999993 4.050006C1.60607222949226 5.30117361606237 4.86489235968061 5.5817429932781 6.23751214285714 4.550006C4.87518572708394 5.46218528090662 1.61636559689559 5.1816159036909 0.429999999999993 4.050006z"/>
<line transform="translate(111.1190, 11.2498)" stroke-linejoin="round" stroke-linecap="round" stroke-width="0.1000" stroke="currentColor" x1="0.0000" y1="0.6666" x2="7.2734" y2="0.0000"/>
<line transform="translate(111.1190, 11.2498)" stroke-linejoin="round" stroke-linecap="round" stroke-width="0.1000" stroke="currentColor" x1="0.0000" y1="-0.6666" x2="7.2734" y2="-0.0000"/>
<path transform="translate(108.4831, 4.6745)" stroke-width="0.0800" stroke-linejoin="round" stroke-linecap="round" stroke="currentColor" fill="currentColor" d="M1.29765052037328 -3.92697598910866C3.37740578434831 -5.24395681680151 11.0151026492322 -4.42705226345332 12.7692781428571 -2.700006C11.0023406084132 -4.30773281694884 3.36464374352935 -5.12463737029703 1.29765052037328 -3.92697598910866z"/>
<polygon transform="translate(95.5883, 11.3537)" stroke-linejoin="round" stroke-linecap="round" stroke-width="0.0800" fill="currentColor" stroke="currentColor" points="9.2966 -0.2000 9.2966 0.2000 0.0400 0.2000 0.0400 -0.2000"/>
<line transform="translate(100.3095, 8.0408)" stroke-linejoin="round" stroke-linecap="round" stroke-width="0.1000" stroke="currentColor" x1="0.0000" y1="0.6666" x2="5.6574" y2="0.0000"/>
<line transform="translate(100.3095, 8.0408)" stroke-linejoin="round" stroke-linecap="round" stroke-width="0.1000" stroke="currentColor" x1="0.0000" y1="-0.6666" x2="5.6574" y2="-0.0000"/>
<path transform="translate(97.0433, 17.8537)" stroke-width="0.0800" stroke-linejoin="round" stroke-linecap="round" stroke="currentColor" fill="currentColor" d="M1.2600992339425 -7.24C3.00756744702828 -8.62933124649379 8.91210791276953 -8.509241074942 10.6016402339425 -7.050006C8.90966778368417 -8.38926588679859 3.00512731794292 -8.50935605835038 1.2600992339425 -7.24z"/>
<polygon transform="translate(86.0997, 1.1745)" stroke-linejoin="round" stroke-linecap="round" stroke-width="0.0800" fill="currentColor" stroke="currentColor" points="5.7724 0.1100 5.7724 0.5100 0.0400 0.2000 0.0400 -0.2000"/>
<path transform="translate(87.8297, 17.8537)" stroke-width="0.0800" stroke-linejoin="round" stroke-linecap="round" stroke="currentColor" fill="currentColor" d="M1.61617799999999 -0.550006C2.76745596716212 -1.83620278114426 6.05285576537161 -2.20171617246884 7.4586722 -1.200006C6.06612436493718 -2.08245199400117 2.7807245667277 -1.71693860267659 1.61617799999999 -0.550006z"/>
<path transform="translate(62.6636, 3.6745) scale(0.0040, -0.0040)" d="M220 138c56 0 109 -29 109 -91c0 -72 -56 -121 -103 -149c-36 -21 -76 -36 -117 -36c-56 0 -109 29 -109 91c0 72 56 121 103 149c36 21 76 36 117 36z" fill="currentColor"/>
<path transform="translate(62.6636, 16.3537) scale(0.0040, -0.0040)" d="M220 138c56 0 109 -29 109 -91c0 -72 -56 -121 -103 -149c-36 -21 -76 -36 -117 -36c-56 0 -109 29 -109 91c0 72 56 121 103 149c36 21 76 36 117 36z" fill="currentColor"/>
<path transform="translate(62.6636, 15.3537) scale(0.0040, -0.0040)" d="M220 138c56 0 109 -29 109 -91c0 -72 -56 -121 -103 -149c-36 -21 -76 -36 -117 -36c-56 0 -109 29 -109 91c0 72 56 121 103 149c36 21 76 36 117 36z" fill="currentColor"/>
<path transform="translate(62.6636, 14.3537) scale(0.0040, -0.0040)" d="M220 138c56 0 109 -29 109 -91c0 -72 -56 -121 -103 -149c-36 -21 -76 -36 -117 -36c-56 0 -109 29 -109 91c0 72 56 121 103 149c36 21 76 36 117 36z" fill="currentColor"/>
<rect transform="translate(62.7286, 4.6745)" x="-0.0650" y="-0.8122" width="0.1300" height="2.6174" ry="0.0400" fill="currentColor"/>
<rect transform="translate(62.7286, 17.8537)" x="-0.0650" y="-3.3122" width="0.1300" height="5.3122" ry="0.0400" fill="currentColor"/>
<path transform="translate(65.4298, 2.1745) scale(0.0040, -0.0040)" d="M220 138c56 0 109 -29 109 -91c0 -72 -56 -121 -103 -149c-36 -21 -76 -36 -117 -36c-56 0 -109 29 -109 91c0 72 56 121 103 149c36 21 76 36 117 36z" fill="currentColor"/>
<rect transform="translate(65.4948, 4.6745)" x="-0.0650" y="-2.3122" width="0.1300" height="3.9152" ry="0.0400" fill="currentColor"/>
<path transform="translate(57.6135, 4.6745) scale(0.0040, -0.0040)" d="M220 138c56 0 109 -29 109 -91c0 -72 -56 -121 -103 -149c-36 -21 -76 -36 -117 -36c-56 0 -109 29 -109 91c0 72 56 121 103 149c36 21 76 36 117 36z" fill="currentColor"/>
<path transform="translate(57.6135, 17.8537) scale(0.0040, -0.0040)" d="M220 138c56 0 109 -29 109 -91c0 -72 -56 -121 -103 -149c-36 -21 -76 -36 -117 -36c-56 0 -109 29 -109 91c0 72 56 121 103 149c36 21 76 36 117 36z" fill="currentColor"/>
<rect transform="translate(58.8646, 4.6745)" x="-0.0650" y="-2.7277" width="0.1300" height="2.5399" ry="0.0400" fill="currentColor"/>
<rect transform="translate(57.6785, 17.8537)" x="-0.0650" y="0.1878" width="0.1300" height="3.1455" ry="0.0400" fill="currentColor"/>
<path transform="translate(60.1296, 4.1745) scale(0.0040, -0.0040)" d="M220 138c56 0 109 -29 109 -91c0 -72 -56 -121 -103 -149c-36 -21 -76 -36 -117 -36c-56 0 -109 29 -109 91c0 72 56 121 103 149c36 21 76 36 117 36z" fill="currentColor"/>
<rect transform="translate(61.3808, 4.6745)" x="-0.0650" y="-2.9931" width="0.1300" height="2.3053" ry="0.0400" fill="currentColor"/>
<rect transform="translate(71.0771, 4.6745)" x="-0.0650" y="-2.3122" width="0.1300" height="3.5069" ry="0.0400" fill="currentColor"/>
<path transform="translate(74.5277, 3.6745) scale(0.0040, -0.0040)" d="M315 65c0 24 -21 41 -42 41c-4 0 -8 0 -12 -1c-31 -9 -77 -40 -114 -64s-84 -53 -104 -78c-7 -8 -11 -18 -11 -28c0 -24 21 -41 42 -41c4 0 8 0 12 1c31 9 78 40 115 64s84 53 104 78c7 8 10 18 10 28zM264 137c47 0 83 -21 83 -72c0 -19 -4 -37 -10 -56
c-12 -38 -32 -74 -65 -96c-54 -36 -113 -51 -188 -51c-47 0 -84 22 -84 73c0 19 5 37 11 56c12 38 31 74 64 96c54 36 114 50 189 50z" fill="currentColor"/>
<path transform="translate(74.4886, 8.8846) scale(0.0040, -0.0040)" d="M233 243c-56 0 -102 -107 -102 -173c0 -22 8 -38 30 -38c64 0 97 126 97 178c0 18 -7 33 -25 33zM112 -146c-38 0 -78 5 -116 5c-39 0 -78 -5 -115 -5c-9 0 -14 7 -14 14c0 18 31 15 48 16c22 1 47 5 54 25l102 300c2 7 4 14 4 20c0 8 -2 14 -11 14
c-33 0 -63 -60 -79 -97c-5 -12 -15 -17 -24 -17c-8 0 -14 4 -14 12c0 2 1 5 2 8c30 68 72 143 132 143c35 0 59 -21 66 -52c29 31 67 52 103 52c69 0 107 -49 107 -114c0 -21 -4 -44 -12 -67c-20 -58 -91 -119 -147 -119c-27 0 -52 5 -73 17c-4 2 -7 3 -11 3
c-7 0 -14 -3 -16 -9l-29 -86c-1 -2 -1 -5 -1 -7c0 -20 21 -26 44 -28c9 -1 13 -8 13 -14c0 -7 -4 -14 -13 -14z" fill="currentColor"/>
<path transform="translate(74.5277, 18.8537) scale(0.0040, -0.0040)" d="M220 138c56 0 109 -29 109 -91c0 -72 -56 -121 -103 -149c-36 -21 -76 -36 -117 -36c-56 0 -109 29 -109 91c0 72 56 121 103 149c36 21 76 36 117 36z" fill="currentColor"/>
<path transform="translate(75.9836, 23.4844) scale(0.0040, -0.0040)" d="M0 35c0 19 16 35 35 35s35 -16 35 -35s-16 -35 -35 -35s-35 16 -35 35z" fill="currentColor"/>
<path transform="translate(72.7916, 23.4844) scale(0.0040, -0.0040)" d="M43 339c0 -19 13 -48 39 -48c22 0 43 28 43 59c0 8 18 8 18 0c0 -63 -41 -125 -83 -125c-41 0 -61 44 -61 78c0 82 90 197 251 197c108 0 166 -82 166 -144c0 -30 -17 -67 -52 -67s-68 49 -87 90c-3 7 13 14 16 7c8 -18 28 -32 46 -32c21 0 32 18 32 36
c0 39 -44 92 -121 92h-7c-10 -20 -39 -91 -39 -108c0 -46 100 -114 100 -164c0 -24 -28 -52 -58 -90c29 -3 83 -28 102 -44c13 -11 48 24 57 31c-4 19 -6 29 -6 48c0 60 32 132 96 132c25 0 49 -17 49 -45c0 -37 -43 -80 -79 -110l-11 -9c13 -24 33 -57 47 -69
c4 -4 13 -3 18 0c9 5 47 33 63 47c-4 14 -6 28 -6 42c0 55 45 112 97 137c-51 71 -129 126 -208 140c-8 1 -5 19 3 18c142 -25 305 -134 329 -272c1 -8 3 -16 3 -24c0 -70 -50 -142 -113 -142c-43 0 -81 37 -99 82c-24 -22 -73 -64 -85 -72c-8 -6 -19 -9 -30 -9
c-39 0 -51 46 -62 85c-27 -20 -90 -73 -106 -82c-6 -3 -12 -4 -17 0c-19 16 -28 89 -57 98c-25 -30 -47 -57 -56 -66c-12 -12 -47 -36 -64 -36c-7 0 -14 5 -14 12c0 13 21 38 30 47c18 19 67 57 95 61c18 21 30 29 30 49c0 47 -88 111 -88 150c0 24 43 134 60 162
c-113 -10 -181 -88 -181 -142zM475 254c-30 0 -43 -27 -43 -55c0 -20 6 -42 14 -60c26 22 63 54 63 83c0 19 -16 32 -34 32zM683 265c-37 -21 -55 -77 -55 -122c0 -48 18 -108 59 -108c32 0 45 39 45 81c0 61 -20 105 -49 149z" fill="currentColor"/>
<rect transform="translate(74.5927, 4.6745)" x="-0.0650" y="-0.7386" width="0.1300" height="3.2386" ry="0.0400" fill="currentColor"/>
<path transform="translate(66.1851, 23.4844) scale(0.0040, -0.0040)" d="M166 194c0 -16 12 -28 28 -28s29 12 29 28s-13 29 -29 29s-28 -13 -28 -29zM92 347c23 0 42 -19 42 -46v-11c0 -20 11 -45 35 -35c9 4 15 13 15 22c0 27 -38 37 -38 64c0 32 24 48 48 48s49 -16 49 -48c0 -27 -39 -37 -39 -64c0 -18 26 -32 41 -17c8 8 10 19 10 30
c0 4 -1 7 -1 11c0 27 20 46 43 46c26 0 50 -24 50 -50c0 -23 -18 -43 -45 -43c-4 0 -8 1 -12 1c-20 0 -45 -11 -35 -35c4 -9 13 -16 22 -16c27 0 37 39 64 39c32 0 48 -25 48 -49s-16 -48 -48 -48c-27 0 -37 38 -64 38c-18 0 -32 -26 -17 -41c8 -8 19 -9 30 -9h12
c27 0 45 -19 45 -42c0 -26 -24 -50 -50 -50c-23 0 -43 18 -43 45c0 4 1 8 1 12c0 20 -11 45 -35 35c-9 -4 -16 -13 -16 -22c0 -27 39 -37 39 -64c0 -32 -25 -48 -49 -48s-48 16 -48 48c0 27 38 37 38 64c0 18 -26 32 -41 17c-8 -8 -9 -19 -9 -30v-12c0 -27 -19 -45 -42 -45
c-26 0 -50 24 -50 50c0 23 18 42 45 42h12c20 0 45 11 35 35c-4 9 -13 15 -22 15c-27 0 -37 -38 -64 -38c-32 0 -48 24 -48 48s16 49 48 49c27 0 37 -39 64 -39c18 0 32 26 17 41c-8 8 -19 10 -30 10c-4 0 -8 -1 -12 -1c-27 0 -45 20 -45 43c0 26 24 50 50 50z" fill="currentColor"/>
<path transform="translate(68.4960, 2.6745) scale(0.0040, -0.0040)" d="M220 138c56 0 109 -29 109 -91c0 -72 -56 -121 -103 -149c-36 -21 -76 -36 -117 -36c-56 0 -109 29 -109 91c0 72 56 121 103 149c36 21 76 36 117 36z" fill="currentColor"/>
<path transform="translate(68.4960, 19.3537) scale(0.0040, -0.0040)" d="M220 138c56 0 109 -29 109 -91c0 -72 -56 -121 -103 -149c-36 -21 -76 -36 -117 -36c-56 0 -109 29 -109 91c0 72 56 121 103 149c36 21 76 36 117 36z" fill="currentColor"/>
<rect transform="translate(68.5610, 4.6745)" x="-0.0650" y="-1.8122" width="0.1300" height="3.1909" ry="0.0400" fill="currentColor"/>
<path transform="translate(67.0460, 2.6745) scale(0.0040, -0.0040)" d="M216 -312c0 -10 -8 -19 -18 -19s-19 9 -19 19v145l-83 -31v-158c0 -10 -9 -19 -19 -19s-18 9 -18 19v145l-32 -12c-2 -1 -5 -1 -7 -1c-11 0 -20 9 -20 20v60c0 8 5 16 13 19l46 16v160l-32 -11c-2 -1 -5 -1 -7 -1c-11 0 -20 9 -20 20v60c0 8 5 15 13 18l46 17v158
c0 10 8 19 18 19s19 -9 19 -19v-145l83 31v158c0 10 9 19 19 19s18 -9 18 -19v-145l32 12c2 1 5 1 7 1c11 0 20 -9 20 -20v-60c0 -8 -5 -16 -13 -19l-46 -16v-160l32 11c2 1 5 1 7 1c11 0 20 -9 20 -20v-60c0 -8 -5 -15 -13 -18l-46 -17v-158zM96 65v-160l83 30v160z" fill="currentColor"/>
<rect transform="translate(69.7471, 17.8537)" x="-0.0650" y="-2.0000" width="0.1300" height="3.3122" ry="0.0400" fill="currentColor"/>
<path transform="translate(97.0433, 4.6745) scale(0.0040, -0.0040)" d="M72 -250l117 326c-34 -12 -69 -22 -105 -22c-46 0 -87 33 -87 79c0 40 33 72 73 72c25 0 48 -15 56 -39c10 -28 6 -59 35 -59c16 0 54 48 61 63c6 12 23 12 28 0l-123 -420c-8 -7 -17 -10 -27 -10s-20 3 -28 10z" fill="currentColor"/>
<path transform="translate(97.0433, 13.8537) scale(0.0040, -0.0040)" d="M220 138c56 0 109 -29 109 -91c0 -72 -56 -121 -103 -149c-36 -21 -76 -36 -117 -36c-56 0 -109 29 -109 91c0 72 56 121 103 149c36 21 76 36 117 36z" fill="currentColor"/>
<path transform="translate(97.0433, 17.8537) scale(0.0040, -0.0040)" d="M72 -250l117 326c-34 -12 -69 -22 -105 -22c-46 0 -87 33 -87 79c0 40 33 72 73 72c25 0 48 -15 56 -39c10 -28 6 -59 35 -59c16 0 54 48 61 63c6 12 23 12 28 0l-123 -420c-8 -7 -17 -10 -27 -10s-20 3 -28 10z" fill="currentColor"/>
<rect transform="translate(98.2945, 17.8537)" x="-0.0650" y="-6.5000" width="0.1300" height="2.3122" ry="0.0400" fill="currentColor"/>
<path transform="translate(95.7183, 1.3395) scale(0.0040, -0.0040)" d="M0 0c0 -198 209 -335 209 -533c0 -71 -16 -141 -42 -207c-5 -8 -12 -12 -19 -12c-13 0 -26 11 -23 27c26 61 42 126 42 192c0 104 -95 208 -167 283h-16v250h16z" fill="currentColor"/>
<path transform="translate(95.7183, 1.3395) scale(0.0040, -0.0040)" d="M0 0c0 -198 209 -335 209 -533c0 -71 -16 -141 -42 -207c-5 -8 -12 -12 -19 -12c-13 0 -26 11 -23 27c26 61 42 126 42 192c0 104 -95 208 -167 283h-16v250h16z" fill="currentColor"/>
<rect transform="translate(95.6533, 17.8537)" x="-0.0650" y="-6.5000" width="0.1300" height="6.3122" ry="0.0400" fill="currentColor"/>
<rect transform="translate(94.4672, 17.8537)" x="-0.0650" y="0.1878" width="0.1300" height="3.1872" ry="0.0400" fill="currentColor"/>
<path transform="translate(94.5322, 21.1887) scale(0.0040, -0.0040)" d="M0 0h-16v250h16c98 58 227 148 227 259c0 57 -16 112 -41 163c-3 16 10 27 23 27c7 0 15 -3 20 -11c25 -56 40 -117 40 -179c0 -204 -269 -305 -269 -509z" fill="currentColor"/>
<rect transform="translate(101.6907, 17.8537)" x="-0.0650" y="-2.3122" width="0.1300" height="4.3122" ry="0.0400" fill="currentColor"/>
<path transform="translate(101.7557, 19.8137) scale(0.0040, -0.0040)" d="M0 0h-16v250h16c98 58 227 148 227 259c0 57 -16 112 -41 163c-3 16 10 27 23 27c7 0 15 -3 20 -11c25 -56 40 -117 40 -179c0 -204 -269 -305 -269 -509z" fill="currentColor"/>
<path transform="translate(101.7557, 19.8137) scale(0.0040, -0.0040)" d="M0 0h-16v250h16c98 58 227 148 227 259c0 57 -16 112 -41 163c-3 16 10 27 23 27c7 0 15 -3 20 -11c25 -56 40 -117 40 -179c0 -204 -269 -305 -269 -509z" fill="currentColor"/>
<path transform="translate(98.8595, 14.8537) scale(0.0040, -0.0040)" d="M216 -312c0 -10 -8 -19 -18 -19s-19 9 -19 19v145l-83 -31v-158c0 -10 -9 -19 -19 -19s-18 9 -18 19v145l-32 -12c-2 -1 -5 -1 -7 -1c-11 0 -20 9 -20 20v60c0 8 5 16 13 19l46 16v160l-32 -11c-2 -1 -5 -1 -7 -1c-11 0 -20 9 -20 20v60c0 8 5 15 13 18l46 17v158
c0 10 8 19 18 19s19 -9 19 -19v-145l83 31v158c0 10 9 19 19 19s18 -9 18 -19v-145l32 12c2 1 5 1 7 1c11 0 20 -9 20 -20v-60c0 -8 -5 -16 -13 -19l-46 -16v-160l32 11c2 1 5 1 7 1c11 0 20 -9 20 -20v-60c0 -8 -5 -15 -13 -18l-46 -17v-158zM96 65v-160l83 30v160z" fill="currentColor"/>
<path transform="translate(103.6088, 13.8537) scale(0.0040, -0.0040)" d="M220 138c56 0 109 -29 109 -91c0 -72 -56 -121 -103 -149c-36 -21 -76 -36 -117 -36c-56 0 -109 29 -109 91c0 72 56 121 103 149c36 21 76 36 117 36z" fill="currentColor"/>
<path transform="translate(103.6088, 17.8537) scale(0.0040, -0.0040)" d="M72 -250l117 326c-34 -12 -69 -22 -105 -22c-46 0 -87 33 -87 79c0 40 33 72 73 72c25 0 48 -15 56 -39c10 -28 6 -59 35 -59c16 0 54 48 61 63c6 12 23 12 28 0l-123 -420c-8 -7 -17 -10 -27 -10s-20 3 -28 10z" fill="currentColor"/>
<rect transform="translate(104.8600, 17.8537)" x="-0.0650" y="-6.5000" width="0.1300" height="2.3122" ry="0.0400" fill="currentColor"/>
<path transform="translate(100.3095, 4.6745) scale(0.0040, -0.0040)" d="M-23 -116c0 28 11 42 40 42c33 0 78 -13 119 -31l-132 158c-7 9 -10 17 -10 25c0 34 50 66 87 99c25 22 37 52 37 83c0 24 -8 49 -25 69l-35 42c-3 3 -4 7 -4 10c0 9 9 15 17 15c4 0 8 -1 11 -5l151 -180c7 -9 10 -17 10 -25c0 -34 -50 -66 -87 -99
c-25 -22 -37 -52 -37 -83c0 -24 7 -49 24 -69l84 -99c3 -3 4 -7 4 -10c0 -9 -8 -16 -16 -16c-4 0 -9 2 -12 6c-18 21 -63 38 -97 38c-41 0 -53 -26 -53 -67c0 -35 11 -74 28 -94c5 -6 0 -13 -6 -13c-2 0 -4 0 -6 2c-45 54 -92 148 -92 202z" fill="currentColor"/>
<path transform="translate(100.3095, 14.8537) scale(0.0040, -0.0040)" d="M220 138c56 0 109 -29 109 -91c0 -72 -56 -121 -103 -149c-36 -21 -76 -36 -117 -36c-56 0 -109 29 -109 91c0 72 56 121 103 149c36 21 76 36 117 36z" fill="currentColor"/>
<path transform="translate(101.6257, 16.3537) scale(0.0040, -0.0040)" d="M220 138c56 0 109 -29 109 -91c0 -72 -56 -121 -103 -149c-36 -21 -76 -36 -117 -36c-56 0 -109 29 -109 91c0 72 56 121 103 149c36 21 76 36 117 36z" fill="currentColor"/>
<path transform="translate(101.6257, 15.3537) scale(0.0040, -0.0040)" d="M220 138c56 0 109 -29 109 -91c0 -72 -56 -121 -103 -149c-36 -21 -76 -36 -117 -36c-56 0 -109 29 -109 91c0 72 56 121 103 149c36 21 76 36 117 36z" fill="currentColor"/>
<rect transform="translate(101.5607, 17.8537)" x="-0.0650" y="-6.5000" width="0.1300" height="3.3122" ry="0.0400" fill="currentColor"/>
<path transform="translate(15.2568, 17.8537) scale(0.0040, -0.0040)" d="M359 27c-49 0 -75 42 -75 75c0 38 27 77 72 77c4 0 9 0 14 -1c-28 37 -72 59 -120 59c-106 0 -113 -73 -113 -186v-51v-51c0 -113 7 -187 113 -187c80 0 139 70 158 151c2 7 7 10 12 10c6 0 13 -4 13 -12c0 -94 -105 -174 -183 -174c-68 0 -137 21 -184 70
c-49 51 -66 122 -66 193s17 142 66 193c47 49 116 69 184 69c87 0 160 -64 175 -150c1 -5 1 -9 1 -13c0 -40 -30 -72 -67 -72z" fill="currentColor"/>
<path transform="translate(20.4128, 23.4844) scale(0.0040, -0.0040)" d="M0 35c0 19 16 35 35 35s35 -16 35 -35s-16 -35 -35 -35s-35 16 -35 35z" fill="currentColor"/>
<path transform="translate(17.2208, 23.4844) scale(0.0040, -0.0040)" d="M43 339c0 -19 13 -48 39 -48c22 0 43 28 43 59c0 8 18 8 18 0c0 -63 -41 -125 -83 -125c-41 0 -61 44 -61 78c0 82 90 197 251 197c108 0 166 -82 166 -144c0 -30 -17 -67 -52 -67s-68 49 -87 90c-3 7 13 14 16 7c8 -18 28 -32 46 -32c21 0 32 18 32 36
c0 39 -44 92 -121 92h-7c-10 -20 -39 -91 -39 -108c0 -46 100 -114 100 -164c0 -24 -28 -52 -58 -90c29 -3 83 -28 102 -44c13 -11 48 24 57 31c-4 19 -6 29 -6 48c0 60 32 132 96 132c25 0 49 -17 49 -45c0 -37 -43 -80 -79 -110l-11 -9c13 -24 33 -57 47 -69
c4 -4 13 -3 18 0c9 5 47 33 63 47c-4 14 -6 28 -6 42c0 55 45 112 97 137c-51 71 -129 126 -208 140c-8 1 -5 19 3 18c142 -25 305 -134 329 -272c1 -8 3 -16 3 -24c0 -70 -50 -142 -113 -142c-43 0 -81 37 -99 82c-24 -22 -73 -64 -85 -72c-8 -6 -19 -9 -30 -9
c-39 0 -51 46 -62 85c-27 -20 -90 -73 -106 -82c-6 -3 -12 -4 -17 0c-19 16 -28 89 -57 98c-25 -30 -47 -57 -56 -66c-12 -12 -47 -36 -64 -36c-7 0 -14 5 -14 12c0 13 21 38 30 47c18 19 67 57 95 61c18 21 30 29 30 49c0 47 -88 111 -88 150c0 24 43 134 60 162
c-113 -10 -181 -88 -181 -142zM475 254c-30 0 -43 -27 -43 -55c0 -20 6 -42 14 -60c26 22 63 54 63 83c0 19 -16 32 -34 32zM683 265c-37 -21 -55 -77 -55 -122c0 -48 18 -108 59 -108c32 0 45 39 45 81c0 61 -20 105 -49 149z" fill="currentColor"/>
<text transform="translate(15.2568, 1.7904)" font-family="Lyon Text" font-size="2.2001" text-anchor="start" fill="currentColor">
<tspan>
Andante cantabile</tspan>
</text>
<rect transform="translate(20.2080, 17.8537)" x="-0.0650" y="-1.5000" width="0.1300" height="3.3122" ry="0.0400" fill="currentColor"/>
<path transform="translate(85.5938, 23.4844) scale(0.0040, -0.0040)" d="M166 194c0 -16 12 -28 28 -28s29 12 29 28s-13 29 -29 29s-28 -13 -28 -29zM92 347c23 0 42 -19 42 -46v-11c0 -20 11 -45 35 -35c9 4 15 13 15 22c0 27 -38 37 -38 64c0 32 24 48 48 48s49 -16 49 -48c0 -27 -39 -37 -39 -64c0 -18 26 -32 41 -17c8 8 10 19 10 30
c0 4 -1 7 -1 11c0 27 20 46 43 46c26 0 50 -24 50 -50c0 -23 -18 -43 -45 -43c-4 0 -8 1 -12 1c-20 0 -45 -11 -35 -35c4 -9 13 -16 22 -16c27 0 37 39 64 39c32 0 48 -25 48 -49s-16 -48 -48 -48c-27 0 -37 38 -64 38c-18 0 -32 -26 -17 -41c8 -8 19 -9 30 -9h12
c27 0 45 -19 45 -42c0 -26 -24 -50 -50 -50c-23 0 -43 18 -43 45c0 4 1 8 1 12c0 20 -11 45 -35 35c-9 -4 -16 -13 -16 -22c0 -27 39 -37 39 -64c0 -32 -25 -48 -49 -48s-48 16 -48 48c0 27 38 37 38 64c0 18 -26 32 -41 17c-8 -8 -9 -19 -9 -30v-12c0 -27 -19 -45 -42 -45
c-26 0 -50 24 -50 50c0 23 18 42 45 42h12c20 0 45 11 35 35c-4 9 -13 15 -22 15c-27 0 -37 -38 -64 -38c-32 0 -48 24 -48 48s16 49 48 49c27 0 37 -39 64 -39c18 0 32 26 17 41c-8 8 -19 10 -30 10c-4 0 -8 -1 -12 -1c-27 0 -45 20 -45 43c0 26 24 50 50 50z" fill="currentColor"/>
<path transform="translate(87.8297, 5.1745) scale(0.0040, -0.0040)" d="M220 138c56 0 109 -29 109 -91c0 -72 -56 -121 -103 -149c-36 -21 -76 -36 -117 -36c-56 0 -109 29 -109 91c0 72 56 121 103 149c36 21 76 36 117 36z" fill="currentColor"/>
<path transform="translate(23.5340, 3.6745) scale(0.0040, -0.0040)" d="M365 -156h-355c-6 0 -10 4 -10 10v136c0 6 4 10 10 10h355c6 0 10 -4 10 -10v-136c0 -6 -4 -10 -10 -10z" fill="currentColor"/>
<path transform="translate(7.6068, 11.2641) scale(0.0040, -0.0040)" d="M-12 -644c0 -348 -132 -684 -132 -1016c0 -176 36 -340 156 -476c4 -4 8 -8 8 -12c0 -8 -12 -20 -20 -20c-4 0 -8 4 -12 8c-156 180 -212 408 -212 648c0 352 136 696 136 1032c0 176 -40 336 -156 472c0 4 -4 4 -4 8s4 4 4 8c116 136 156 296 156 472
c0 336 -136 680 -136 1032c0 240 56 468 212 648c4 4 8 8 12 8c8 0 20 -12 20 -20c0 -4 -4 -8 -8 -12c-120 -136 -156 -300 -156 -476c0 -332 132 -668 132 -1016c0 -236 -56 -464 -208 -644c152 -180 208 -408 208 -644z" fill="currentColor"/>
<rect transform="translate(7.9068, 11.2641)" x="0.0000" y="-8.6396" width="0.1600" height="17.2791" ry="0.0500" fill="currentColor"/>
<path transform="translate(71.0121, 2.1745) scale(0.0040, -0.0040)" d="M220 138c56 0 109 -29 109 -91c0 -72 -56 -121 -103 -149c-36 -21 -76 -36 -117 -36c-56 0 -109 29 -109 91c0 72 56 121 103 149c36 21 76 36 117 36z" fill="currentColor"/>
<path transform="translate(8.7668, 5.6745) scale(0.0040, -0.0040)" d="M376 262c4 0 9 1 13 1c155 0 256 -128 256 -261c0 -76 -33 -154 -107 -210c-22 -17 -47 -28 -73 -36c3 -35 5 -70 5 -105c0 -19 -1 -39 -2 -58c-7 -120 -90 -228 -208 -228c-108 0 -195 88 -195 197c0 58 53 103 112 103c54 0 95 -47 95 -103c0 -52 -43 -95 -95 -95
c-11 0 -21 2 -31 6c26 -39 68 -65 117 -65c96 0 157 92 163 191c1 18 2 37 2 55c0 31 -1 61 -4 92c-29 -5 -58 -8 -89 -8c-188 0 -333 172 -333 374c0 177 131 306 248 441c-19 62 -37 125 -45 190c-6 52 -7 104 -7 156c0 115 55 224 149 292c3 2 7 3 10 3c4 0 7 0 10 -3
c71 -84 133 -245 133 -358c0 -143 -86 -255 -180 -364c21 -68 39 -138 56 -207zM461 -203c68 24 113 95 113 164c0 90 -66 179 -173 190c24 -116 46 -231 60 -354zM74 28c0 -135 129 -247 264 -247c28 0 55 2 82 6c-14 127 -37 245 -63 364c-79 -8 -124 -61 -124 -119
c0 -44 25 -91 81 -123c5 -5 7 -10 7 -15c0 -11 -10 -22 -22 -22c-3 0 -6 1 -9 2c-80 43 -117 115 -117 185c0 88 58 174 160 197c-14 58 -29 117 -46 175c-107 -121 -213 -243 -213 -403zM408 1045c-99 -48 -162 -149 -162 -259c0 -74 18 -133 36 -194
c80 97 146 198 146 324c0 55 -4 79 -20 129z" fill="currentColor"/>
<path transform="translate(12.3868, 4.6745) scale(0.0040, -0.0040)" d="M27 41l-1 -66v-11c0 -22 1 -44 4 -66c45 38 93 80 93 139c0 33 -14 67 -43 67c-31 0 -52 -30 -53 -63zM-15 -138l-12 595c8 5 18 8 27 8s19 -3 27 -8l-7 -345c25 21 58 34 91 34c52 0 89 -48 89 -102c0 -80 -86 -117 -147 -169c-15 -13 -24 -38 -45 -38
c-13 0 -23 11 -23 25z" fill="currentColor"/>
<path transform="translate(13.3068, 3.1745) scale(0.0040, -0.0040)" d="M27 41l-1 -66v-11c0 -22 1 -44 4 -66c45 38 93 80 93 139c0 33 -14 67 -43 67c-31 0 -52 -30 -53 -63zM-15 -138l-12 595c8 5 18 8 27 8s19 -3 27 -8l-7 -345c25 21 58 34 91 34c52 0 89 -48 89 -102c0 -80 -86 -117 -147 -169c-15 -13 -24 -38 -45 -38
c-13 0 -23 11 -23 25z" fill="currentColor"/>
<path transform="translate(15.2568, 4.6745) scale(0.0040, -0.0040)" d="M359 27c-49 0 -75 42 -75 75c0 38 27 77 72 77c4 0 9 0 14 -1c-28 37 -72 59 -120 59c-106 0 -113 -73 -113 -186v-51v-51c0 -113 7 -187 113 -187c80 0 139 70 158 151c2 7 7 10 12 10c6 0 13 -4 13 -12c0 -94 -105 -174 -183 -174c-68 0 -137 21 -184 70
c-49 51 -66 122 -66 193s17 142 66 193c47 49 116 69 184 69c87 0 160 -64 175 -150c1 -5 1 -9 1 -13c0 -40 -30 -72 -67 -72z" fill="currentColor"/>
<path transform="translate(18.9568, 19.8537) scale(0.0040, -0.0040)" d="M220 138c56 0 109 -29 109 -91c0 -72 -56 -121 -103 -149c-36 -21 -76 -36 -117 -36c-56 0 -109 29 -109 91c0 72 56 121 103 149c36 21 76 36 117 36z" fill="currentColor"/>
<path transform="translate(18.8808, 14.6232) scale(0.0040, -0.0040)" d="M233 243c-56 0 -102 -107 -102 -173c0 -22 8 -38 30 -38c64 0 97 126 97 178c0 18 -7 33 -25 33zM112 -146c-38 0 -78 5 -116 5c-39 0 -78 -5 -115 -5c-9 0 -14 7 -14 14c0 18 31 15 48 16c22 1 47 5 54 25l102 300c2 7 4 14 4 20c0 8 -2 14 -11 14
c-33 0 -63 -60 -79 -97c-5 -12 -15 -17 -24 -17c-8 0 -14 4 -14 12c0 2 1 5 2 8c30 68 72 143 132 143c35 0 59 -21 66 -52c29 31 67 52 103 52c69 0 107 -49 107 -114c0 -21 -4 -44 -12 -67c-20 -58 -91 -119 -147 -119c-27 0 -52 5 -73 17c-4 2 -7 3 -11 3
c-7 0 -14 -3 -16 -9l-29 -86c-1 -2 -1 -5 -1 -7c0 -20 21 -26 44 -28c9 -1 13 -8 13 -14c0 -7 -4 -14 -13 -14z" fill="currentColor"/>
<path transform="translate(8.7668, 16.8537) scale(0.0040, -0.0040)" d="M557 -125c0 28 23 51 51 51s51 -23 51 -51s-23 -51 -51 -51s-51 23 -51 51zM557 125c0 28 23 51 51 51s51 -23 51 -51s-23 -51 -51 -51s-51 23 -51 51zM232 263c172 0 293 -88 293 -251c0 -263 -263 -414 -516 -521c-3 -3 -6 -4 -9 -4c-7 0 -13 6 -13 13c0 3 1 6 4 9
c202 118 412 265 412 493c0 120 -63 235 -171 235c-74 0 -129 -54 -154 -126c11 5 22 8 34 8c55 0 100 -45 100 -100c0 -58 -44 -106 -100 -106c-60 0 -112 47 -112 106c0 133 102 244 232 244z" fill="currentColor"/>
<path transform="translate(12.3868, 18.8537) scale(0.0040, -0.0040)" d="M27 41l-1 -66v-11c0 -22 1 -44 4 -66c45 38 93 80 93 139c0 33 -14 67 -43 67c-31 0 -52 -30 -53 -63zM-15 -138l-12 595c8 5 18 8 27 8s19 -3 27 -8l-7 -345c25 21 58 34 91 34c52 0 89 -48 89 -102c0 -80 -86 -117 -147 -169c-15 -13 -24 -38 -45 -38
c-13 0 -23 11 -23 25z" fill="currentColor"/>
<path transform="translate(13.3068, 17.3537) scale(0.0040, -0.0040)" d="M27 41l-1 -66v-11c0 -22 1 -44 4 -66c45 38 93 80 93 139c0 33 -14 67 -43 67c-31 0 -52 -30 -53 -63zM-15 -138l-12 595c8 5 18 8 27 8s19 -3 27 -8l-7 -345c25 21 58 34 91 34c52 0 89 -48 89 -102c0 -80 -86 -117 -147 -169c-15 -13 -24 -38 -45 -38
c-13 0 -23 11 -23 25z" fill="currentColor"/>
<path transform="translate(86.5297, 5.6745) scale(0.0040, -0.0040)" d="M42 278c-4 3 -6 8 -6 12c0 8 7 16 16 16c3 0 7 -1 10 -4l128 -107c8 -6 11 -13 11 -20c0 -24 -39 -51 -68 -78c-15 -14 -23 -34 -23 -53c0 -17 5 -33 17 -47l31 -25c4 -3 6 -8 6 -12c0 -8 -7 -16 -16 -16c-3 0 -7 1 -10 4l-128 107c-8 6 -11 13 -11 20c0 24 39 51 68 78
c15 14 23 34 23 53c0 17 -5 33 -17 47z" fill="currentColor"/>
<path transform="translate(86.5297, 6.6745) scale(0.0040, -0.0040)" d="M42 278c-4 3 -6 8 -6 12c0 8 7 16 16 16c3 0 7 -1 10 -4l128 -107c8 -6 11 -13 11 -20c0 -24 -39 -51 -68 -78c-15 -14 -23 -34 -23 -53c0 -17 5 -33 17 -47l31 -25c4 -3 6 -8 6 -12c0 -8 -7 -16 -16 -16c-3 0 -7 1 -10 4l-128 107c-8 6 -11 13 -11 20c0 24 39 51 68 78
c15 14 23 34 23 53c0 17 -5 33 -17 47z" fill="currentColor"/>
<path transform="translate(90.5959, 4.1745) scale(0.0040, -0.0040)" d="M220 138c56 0 109 -29 109 -91c0 -72 -56 -121 -103 -149c-36 -21 -76 -36 -117 -36c-56 0 -109 29 -109 91c0 72 56 121 103 149c36 21 76 36 117 36z" fill="currentColor"/>
<rect transform="translate(91.8470, 4.6745)" x="-0.0650" y="-3.1935" width="0.1300" height="2.5057" ry="0.0400" fill="currentColor"/>
<path transform="translate(94.4022, 7.1745) scale(0.0040, -0.0040)" d="M220 138c56 0 109 -29 109 -91c0 -72 -56 -121 -103 -149c-36 -21 -76 -36 -117 -36c-56 0 -109 29 -109 91c0 72 56 121 103 149c36 21 76 36 117 36z" fill="currentColor"/>
<path transform="translate(94.4022, 5.6745) scale(0.0040, -0.0040)" d="M220 138c56 0 109 -29 109 -91c0 -72 -56 -121 -103 -149c-36 -21 -76 -36 -117 -36c-56 0 -109 29 -109 91c0 72 56 121 103 149c36 21 76 36 117 36z" fill="currentColor"/>
<path transform="translate(94.4022, 4.6745) scale(0.0040, -0.0040)" d="M220 138c56 0 109 -29 109 -91c0 -72 -56 -121 -103 -149c-36 -21 -76 -36 -117 -36c-56 0 -109 29 -109 91c0 72 56 121 103 149c36 21 76 36 117 36z" fill="currentColor"/>
<path transform="translate(94.4022, 17.8537) scale(0.0040, -0.0040)" d="M220 138c56 0 109 -29 109 -91c0 -72 -56 -121 -103 -149c-36 -21 -76 -36 -117 -36c-56 0 -109 29 -109 91c0 72 56 121 103 149c36 21 76 36 117 36z" fill="currentColor"/>
<path transform="translate(94.4022, 17.8537) scale(0.0040, -0.0040)" d="M220 138c56 0 109 -29 109 -91c0 -72 -56 -121 -103 -149c-36 -21 -76 -36 -117 -36c-56 0 -109 29 -109 91c0 72 56 121 103 149c36 21 76 36 117 36z" fill="currentColor"/>
<rect transform="translate(95.6533, 4.6745)" x="-0.0650" y="-3.3750" width="0.1300" height="5.6872" ry="0.0400" fill="currentColor"/>
<path transform="translate(95.7183, 1.3395) scale(0.0040, -0.0040)" d="M0 0c0 -198 209 -335 209 -533c0 -71 -16 -141 -42 -207c-5 -8 -12 -12 -19 -12c-13 0 -26 11 -23 27c26 61 42 126 42 192c0 104 -95 208 -167 283h-16v250h16z" fill="currentColor"/>
<path transform="translate(89.1459, 6.6745) scale(0.0040, -0.0040)" d="M220 138c56 0 109 -29 109 -91c0 -72 -56 -121 -103 -149c-36 -21 -76 -36 -117 -36c-56 0 -109 29 -109 91c0 72 56 121 103 149c36 21 76 36 117 36z" fill="currentColor"/>
<path transform="translate(89.1459, 5.6745) scale(0.0040, -0.0040)" d="M220 138c56 0 109 -29 109 -91c0 -72 -56 -121 -103 -149c-36 -21 -76 -36 -117 -36c-56 0 -109 29 -109 91c0 72 56 121 103 149c36 21 76 36 117 36z" fill="currentColor"/>
<path transform="translate(87.8297, 18.3537) scale(0.0040, -0.0040)" d="M220 138c56 0 109 -29 109 -91c0 -72 -56 -121 -103 -149c-36 -21 -76 -36 -117 -36c-56 0 -109 29 -109 91c0 72 56 121 103 149c36 21 76 36 117 36z" fill="currentColor"/>
<rect transform="translate(89.0809, 4.6745)" x="-0.0650" y="-3.3410" width="0.1300" height="3.6532" ry="0.0400" fill="currentColor"/>
<rect transform="translate(89.2109, 4.6745)" x="-0.0650" y="1.1878" width="0.1300" height="3.4789" ry="0.0400" fill="currentColor"/>
<rect transform="translate(89.0809, 17.8537)" x="-0.0650" y="-3.0000" width="0.1300" height="3.3122" ry="0.0400" fill="currentColor"/>
<path transform="translate(120.2924, 5.6745) scale(0.0040, -0.0040)" d="M315 65c0 24 -21 41 -42 41c-4 0 -8 0 -12 -1c-31 -9 -77 -40 -114 -64s-84 -53 -104 -78c-7 -8 -11 -18 -11 -28c0 -24 21 -41 42 -41c4 0 8 0 12 1c31 9 78 40 115 64s84 53 104 78c7 8 10 18 10 28zM264 137c47 0 83 -21 83 -72c0 -19 -4 -37 -10 -56
c-12 -38 -32 -74 -65 -96c-54 -36 -113 -51 -188 -51c-47 0 -84 22 -84 73c0 19 5 37 11 56c12 38 31 74 64 96c54 36 114 50 189 50z" fill="currentColor"/>
<path transform="translate(120.2924, 8.1745) scale(0.0040, -0.0040)" d="M315 65c0 24 -21 41 -42 41c-4 0 -8 0 -12 -1c-31 -9 -77 -40 -114 -64s-84 -53 -104 -78c-7 -8 -11 -18 -11 -28c0 -24 21 -41 42 -41c4 0 8 0 12 1c31 9 78 40 115 64s84 53 104 78c7 8 10 18 10 28zM264 137c47 0 83 -21 83 -72c0 -19 -4 -37 -10 -56
c-12 -38 -32 -74 -65 -96c-54 -36 -113 -51 -188 -51c-47 0 -84 22 -84 73c0 19 5 37 11 56c12 38 31 74 64 96c54 36 114 50 189 50z" fill="currentColor"/>
<path transform="translate(120.2924, 15.8537) scale(0.0040, -0.0040)" d="M72 -250l117 326c-34 -12 -69 -22 -105 -22c-46 0 -87 33 -87 79c0 40 33 72 73 72c25 0 48 -15 56 -39c10 -28 6 -59 35 -59c16 0 54 48 61 63c6 12 23 12 28 0l-123 -420c-8 -7 -17 -10 -27 -10s-20 3 -28 10z" fill="currentColor"/>
<path transform="translate(120.2924, 19.8537) scale(0.0040, -0.0040)" d="M215 112c-50 0 -69 -43 -69 -88c0 -77 57 -136 134 -136c50 0 69 43 69 88c0 77 -57 136 -134 136zM495 0c0 -43 -35 -76 -73 -97c-53 -30 -113 -41 -174 -41s-122 11 -175 41c-38 21 -73 54 -73 97s35 76 73 97c53 30 114 41 175 41s121 -11 174 -41
c38 -21 73 -54 73 -97z" fill="currentColor"/>
<rect transform="translate(121.6173, 4.6745)" x="-0.0650" y="-2.5000" width="0.1300" height="3.2386" ry="0.0400" fill="currentColor"/>
<rect transform="translate(120.3574, 4.6745)" x="-0.0650" y="3.7614" width="0.1300" height="2.2386" ry="0.0400" fill="currentColor"/>
<path transform="translate(112.3048, 6.1745) scale(0.0040, -0.0040)" d="M216 -312c0 -10 -8 -19 -18 -19s-19 9 -19 19v145l-83 -31v-158c0 -10 -9 -19 -19 -19s-18 9 -18 19v145l-32 -12c-2 -1 -5 -1 -7 -1c-11 0 -20 9 -20 20v60c0 8 5 16 13 19l46 16v160l-32 -11c-2 -1 -5 -1 -7 -1c-11 0 -20 9 -20 20v60c0 8 5 15 13 18l46 17v158
c0 10 8 19 18 19s19 -9 19 -19v-145l83 31v158c0 10 9 19 19 19s18 -9 18 -19v-145l32 12c2 1 5 1 7 1c11 0 20 -9 20 -20v-60c0 -8 -5 -16 -13 -19l-46 -16v-160l32 11c2 1 5 1 7 1c11 0 20 -9 20 -20v-60c0 -8 -5 -15 -13 -18l-46 -17v-158zM96 65v-160l83 30v160z" fill="currentColor"/>
<path transform="translate(111.4312, 7.6745) scale(0.0040, -0.0040)" d="M-8 375c8 4 17 7 26 7s17 -3 25 -7l-3 -183l106 20h3c10 0 18 -7 18 -17l7 -570c-8 -4 -16 -7 -25 -7s-17 3 -25 7l3 183l-106 -20h-3c-10 0 -18 7 -18 17zM131 112l-92 -17l-3 -207l92 17z" fill="currentColor"/>
<rect transform="translate(113.8198, 17.8537)" x="-0.0650" y="0.1878" width="0.1300" height="3.1455" ry="0.0400" fill="currentColor"/>
<path transform="translate(110.0992, 6.6745) scale(0.0040, -0.0040)" d="M42 278c-4 3 -6 8 -6 12c0 8 7 16 16 16c3 0 7 -1 10 -4l128 -107c8 -6 11 -13 11 -20c0 -24 -39 -51 -68 -78c-15 -14 -23 -34 -23 -53c0 -17 5 -33 17 -47l31 -25c4 -3 6 -8 6 -12c0 -8 -7 -16 -16 -16c-3 0 -7 1 -10 4l-128 107c-8 6 -11 13 -11 20c0 24 39 51 68 78
c15 14 23 34 23 53c0 17 -5 33 -17 47z" fill="currentColor"/>
<path transform="translate(110.0992, 7.6745) scale(0.0040, -0.0040)" d="M42 278c-4 3 -6 8 -6 12c0 8 7 16 16 16c3 0 7 -1 10 -4l128 -107c8 -6 11 -13 11 -20c0 -24 -39 -51 -68 -78c-15 -14 -23 -34 -23 -53c0 -17 5 -33 17 -47l31 -25c4 -3 6 -8 6 -12c0 -8 -7 -16 -16 -16c-3 0 -7 1 -10 4l-128 107c-8 6 -11 13 -11 20c0 24 39 51 68 78
c15 14 23 34 23 53c0 17 -5 33 -17 47z" fill="currentColor"/>
<path transform="translate(116.5210, 5.1745) scale(0.0040, -0.0040)" d="M220 138c56 0 109 -29 109 -91c0 -72 -56 -121 -103 -149c-36 -21 -76 -36 -117 -36c-56 0 -109 29 -109 91c0 72 56 121 103 149c36 21 76 36 117 36z" fill="currentColor"/>
<rect transform="translate(117.7722, 4.6745)" x="-0.0650" y="-2.8130" width="0.1300" height="3.1252" ry="0.0400" fill="currentColor"/>
<path transform="translate(122.4924, 17.3537) scale(0.0040, -0.0040)" d="M220 138c56 0 109 -29 109 -91c0 -72 -56 -121 -103 -149c-36 -21 -76 -36 -117 -36c-56 0 -109 29 -109 91c0 72 56 121 103 149c36 21 76 36 117 36z" fill="currentColor"/>
<rect transform="translate(123.7435, 17.8537)" x="-0.0650" y="-2.8100" width="0.1300" height="2.1222" ry="0.0400" fill="currentColor"/>
<path transform="translate(125.7585, 18.3537) scale(0.0040, -0.0040)" d="M220 138c56 0 109 -29 109 -91c0 -72 -56 -121 -103 -149c-36 -21 -76 -36 -117 -36c-56 0 -109 29 -109 91c0 72 56 121 103 149c36 21 76 36 117 36z" fill="currentColor"/>
<rect transform="translate(127.0097, 17.8537)" x="-0.0650" y="-2.8100" width="0.1300" height="3.1222" ry="0.0400" fill="currentColor"/>
<path transform="translate(124.3085, 18.3537) scale(0.0040, -0.0040)" d="M216 -312c0 -10 -8 -19 -18 -19s-19 9 -19 19v145l-83 -31v-158c0 -10 -9 -19 -19 -19s-18 9 -18 19v145l-32 -12c-2 -1 -5 -1 -7 -1c-11 0 -20 9 -20 20v60c0 8 5 16 13 19l46 16v160l-32 -11c-2 -1 -5 -1 -7 -1c-11 0 -20 9 -20 20v60c0 8 5 15 13 18l46 17v158
c0 10 8 19 18 19s19 -9 19 -19v-145l83 31v158c0 10 9 19 19 19s18 -9 18 -19v-145l32 12c2 1 5 1 7 1c11 0 20 -9 20 -20v-60c0 -8 -5 -16 -13 -19l-46 -16v-160l32 11c2 1 5 1 7 1c11 0 20 -9 20 -20v-60c0 -8 -5 -15 -13 -18l-46 -17v-158zM96 65v-160l83 30v160z" fill="currentColor"/>
<path transform="translate(128.5247, 17.3537) scale(0.0040, -0.0040)" d="M220 138c56 0 109 -29 109 -91c0 -72 -56 -121 -103 -149c-36 -21 -76 -36 -117 -36c-56 0 -109 29 -109 91c0 72 56 121 103 149c36 21 76 36 117 36z" fill="currentColor"/>
<rect transform="translate(129.7759, 17.8537)" x="-0.0650" y="-2.8100" width="0.1300" height="2.1222" ry="0.0400" fill="currentColor"/>
<rect transform="translate(106.0319, 17.8537)" x="-0.0650" y="-2.3122" width="0.1300" height="4.3122" ry="0.0400" fill="currentColor"/>
<path transform="translate(106.0969, 19.8137) scale(0.0040, -0.0040)" d="M0 0h-16v250h16c98 58 227 148 227 259c0 57 -16 112 -41 163c-3 16 10 27 23 27c7 0 15 -3 20 -11c25 -56 40 -117 40 -179c0 -204 -269 -305 -269 -509z" fill="currentColor"/>
<path transform="translate(106.0969, 19.8137) scale(0.0040, -0.0040)" d="M0 0h-16v250h16c98 58 227 148 227 259c0 57 -16 112 -41 163c-3 16 10 27 23 27c7 0 15 -3 20 -11c25 -56 40 -117 40 -179c0 -204 -269 -305 -269 -509z" fill="currentColor"/>
<path transform="translate(108.4831, 4.6745) scale(0.0040, -0.0040)" d="M220 138c56 0 109 -29 109 -91c0 -72 -56 -121 -103 -149c-36 -21 -76 -36 -117 -36c-56 0 -109 29 -109 91c0 72 56 121 103 149c36 21 76 36 117 36z" fill="currentColor"/>
<path transform="translate(108.4071, 8.4854) scale(0.0040, -0.0040)" d="M233 243c-56 0 -102 -107 -102 -173c0 -22 8 -38 30 -38c64 0 97 126 97 178c0 18 -7 33 -25 33zM112 -146c-38 0 -78 5 -116 5c-39 0 -78 -5 -115 -5c-9 0 -14 7 -14 14c0 18 31 15 48 16c22 1 47 5 54 25l102 300c2 7 4 14 4 20c0 8 -2 14 -11 14
c-33 0 -63 -60 -79 -97c-5 -12 -15 -17 -24 -17c-8 0 -14 4 -14 12c0 2 1 5 2 8c30 68 72 143 132 143c35 0 59 -21 66 -52c29 31 67 52 103 52c69 0 107 -49 107 -114c0 -21 -4 -44 -12 -67c-20 -58 -91 -119 -147 -119c-27 0 -52 5 -73 17c-4 2 -7 3 -11 3
c-7 0 -14 -3 -16 -9l-29 -86c-1 -2 -1 -5 -1 -7c0 -20 21 -26 44 -28c9 -1 13 -8 13 -14c0 -7 -4 -14 -13 -14z" fill="currentColor"/>
<path transform="translate(108.4831, 17.8537) scale(0.0040, -0.0040)" d="M72 -250l117 326c-34 -12 -69 -22 -105 -22c-46 0 -87 33 -87 79c0 40 33 72 73 72c25 0 48 -15 56 -39c10 -28 6 -59 35 -59c16 0 54 48 61 63c6 12 23 12 28 0l-123 -420c-8 -7 -17 -10 -27 -10s-20 3 -28 10z" fill="currentColor"/>
<rect transform="translate(109.7342, 4.6745)" x="-0.0650" y="-3.1870" width="0.1300" height="2.9992" ry="0.0400" fill="currentColor"/>
<path transform="translate(105.9669, 4.6745) scale(0.0040, -0.0040)" d="M72 -250l117 326c-34 -12 -69 -22 -105 -22c-46 0 -87 33 -87 79c0 40 33 72 73 72c25 0 48 -15 56 -39c10 -28 6 -59 35 -59c16 0 54 48 61 63c6 12 23 12 28 0l-123 -420c-8 -7 -17 -10 -27 -10s-20 3 -28 10z" fill="currentColor"/>
<path transform="translate(105.9669, 14.3537) scale(0.0040, -0.0040)" d="M220 138c56 0 109 -29 109 -91c0 -72 -56 -121 -103 -149c-36 -21 -76 -36 -117 -36c-56 0 -109 29 -109 91c0 72 56 121 103 149c36 21 76 36 117 36z" fill="currentColor"/>
<path transform="translate(105.9669, 16.3537) scale(0.0040, -0.0040)" d="M220 138c56 0 109 -29 109 -91c0 -72 -56 -121 -103 -149c-36 -21 -76 -36 -117 -36c-56 0 -109 29 -109 91c0 72 56 121 103 149c36 21 76 36 117 36z" fill="currentColor"/>
<path transform="translate(105.9669, 15.3537) scale(0.0040, -0.0040)" d="M220 138c56 0 109 -29 109 -91c0 -72 -56 -121 -103 -149c-36 -21 -76 -36 -117 -36c-56 0 -109 29 -109 91c0 72 56 121 103 149c36 21 76 36 117 36z" fill="currentColor"/>
<rect transform="translate(107.2181, 17.8537)" x="-0.0650" y="-6.5000" width="0.1300" height="2.8122" ry="0.0400" fill="currentColor"/>
<path transform="translate(107.2831, 11.3937) scale(0.0040, -0.0040)" d="M0 0c0 -198 209 -335 209 -533c0 -71 -16 -141 -42 -207c-5 -8 -12 -12 -19 -12c-13 0 -26 11 -23 27c26 61 42 126 42 192c0 104 -95 208 -167 283h-16v250h16z" fill="currentColor"/>
<path transform="translate(113.7548, 6.1745) scale(0.0040, -0.0040)" d="M220 138c56 0 109 -29 109 -91c0 -72 -56 -121 -103 -149c-36 -21 -76 -36 -117 -36c-56 0 -109 29 -109 91c0 72 56 121 103 149c36 21 76 36 117 36z" fill="currentColor"/>
<path transform="translate(113.7548, 7.6745) scale(0.0040, -0.0040)" d="M220 138c56 0 109 -29 109 -91c0 -72 -56 -121 -103 -149c-36 -21 -76 -36 -117 -36c-56 0 -109 29 -109 91c0 72 56 121 103 149c36 21 76 36 117 36z" fill="currentColor"/>
<path transform="translate(113.7548, 17.8537) scale(0.0040, -0.0040)" d="M220 138c56 0 109 -29 109 -91c0 -72 -56 -121 -103 -149c-36 -21 -76 -36 -117 -36c-56 0 -109 29 -109 91c0 72 56 121 103 149c36 21 76 36 117 36z" fill="currentColor"/>
<rect transform="translate(115.0060, 4.6745)" x="-0.0650" y="-2.9417" width="0.1300" height="4.2539" ry="0.0400" fill="currentColor"/>
<text transform="translate(111.1190, 13.5529)" font-family="Lyon Text" font-style="italic" font-size="2.2001" text-anchor="start" fill="currentColor">
<tspan>
espress.</tspan>
</text>
<rect transform="translate(113.8198, 4.6745)" x="-0.0650" y="3.1878" width="0.1300" height="2.3122" ry="0.0400" fill="currentColor"/>
</svg>
