<svg xmlns="http://www.w3.org/2000/svg" xmlns:xlink="http://www.w3.org/1999/xlink" version="1.2" width="249.71mm" height="49.23mm" viewBox="6.6510 -0.0000 142.1000 28.0128">
<defs><link href="../../assets/fonts.css" type="text/css" rel="stylesheet" xmlns="http://www.w3.org/1999/xhtml" /></defs>
<rect transform="translate(148.1510, -0.0000)" x="0.0000" y="10.4423" width="0.6000" height="9.5705" ry="0.0000" fill="currentColor"/>
<rect transform="translate(147.6610, -0.0000)" x="0.0000" y="10.4423" width="0.1900" height="9.5705" ry="0.0000" fill="currentColor"/>
<path transform="translate(146.9110, 21.5128) scale(0.0040, -0.0040)" d="M0 0c0 31 25 56 56 56s56 -25 56 -56s-25 -56 -56 -56s-56 25 -56 56z" fill="currentColor"/>
<path transform="translate(146.9110, 22.5128) scale(0.0040, -0.0040)" d="M0 0c0 31 25 56 56 56s56 -25 56 -56s-25 -56 -56 -56s-56 25 -56 56z" fill="currentColor"/>
<rect transform="translate(148.1510, 22.0128)" x="0.0000" y="-2.0500" width="0.6000" height="4.0500" ry="0.0000" fill="currentColor"/>
<rect transform="translate(147.6610, 22.0128)" x="0.0000" y="-2.0500" width="0.1900" height="4.0500" ry="0.0000" fill="currentColor"/>
<path transform="translate(146.9110, 7.8923) scale(0.0040, -0.0040)" d="M0 0c0 31 25 56 56 56s56 -25 56 -56s-25 -56 -56 -56s-56 25 -56 56z" fill="currentColor"/>
<path transform="translate(146.9110, 8.8923) scale(0.0040, -0.0040)" d="M0 0c0 31 25 56 56 56s56 -25 56 -56s-25 -56 -56 -56s-56 25 -56 56z" fill="currentColor"/>
<rect transform="translate(148.1510, 8.3923)" x="0.0000" y="-2.0000" width="0.6000" height="4.0500" ry="0.0000" fill="currentColor"/>
<rect transform="translate(147.6610, 8.3923)" x="0.0000" y="-2.0000" width="0.1900" height="4.0500" ry="0.0000" fill="currentColor"/>
<rect transform="translate(82.2495, -0.0000)" x="0.0000" y="10.4423" width="0.1900" height="9.5705" ry="0.0000" fill="currentColor"/>
<rect transform="translate(82.2495, 22.0128)" x="0.0000" y="-2.0500" width="0.1900" height="4.0500" ry="0.0000" fill="currentColor"/>
<rect transform="translate(33.5633, 8.3923)" x="0.0000" y="-2.0000" width="0.1900" height="4.0500" ry="0.0000" fill="currentColor"/>
<rect transform="translate(82.2495, 8.3923)" x="0.0000" y="-2.0000" width="0.1900" height="4.0500" ry="0.0000" fill="currentColor"/>
<rect transform="translate(33.5633, 22.0128)" x="0.0000" y="-2.0500" width="0.1900" height="4.0500" ry="0.0000" fill="currentColor"/>
<rect transform="translate(33.5633, -0.0000)" x="0.0000" y="10.4423" width="0.1900" height="9.5705" ry="0.0000" fill="currentColor"/>
<rect transform="translate(131.2212, -0.0000)" x="0.0000" y="10.4423" width="0.1900" height="9.5705" ry="0.0000" fill="currentColor"/>
<rect transform="translate(131.2212, 22.0128)" x="0.0000" y="-2.0500" width="0.1900" height="4.0500" ry="0.0000" fill="currentColor"/>
<rect transform="translate(96.9861, 8.3923)" x="0.0000" y="-2.0000" width="0.1900" height="4.0500" ry="0.0000" fill="currentColor"/>
<rect transform="translate(131.2212, 8.3923)" x="0.0000" y="-2.0000" width="0.1900" height="4.0500" ry="0.0000" fill="currentColor"/>
<rect transform="translate(96.9861, 22.0128)" x="0.0000" y="-2.0500" width="0.1900" height="4.0500" ry="0.0000" fill="currentColor"/>
<rect transform="translate(96.9861, -0.0000)" x="0.0000" y="10.4423" width="0.1900" height="9.5705" ry="0.0000" fill="currentColor"/>
<rect transform="translate(47.9456, 8.3923)" x="0.0000" y="-2.0000" width="0.1900" height="4.0500" ry="0.0000" fill="currentColor"/>
<rect transform="translate(47.9456, 22.0128)" x="0.0000" y="-2.0500" width="0.1900" height="4.0500" ry="0.0000" fill="currentColor"/>
<rect transform="translate(47.9456, -0.0000)" x="0.0000" y="10.4423" width="0.1900" height="9.5705" ry="0.0000" fill="currentColor"/>
<rect transform="translate(62.3492, -0.0000)" x="0.0000" y="10.4423" width="0.1900" height="9.5705" ry="0.0000" fill="currentColor"/>
<rect transform="translate(62.3492, 22.0128)" x="0.0000" y="-2.0500" width="0.1900" height="4.0500" ry="0.0000" fill="currentColor"/>
<rect transform="translate(62.3492, 8.3923)" x="0.0000" y="-2.0000" width="0.1900" height="4.0500" ry="0.0000" fill="currentColor"/>
<rect transform="translate(112.0740, 8.3923)" x="0.0000" y="-2.0000" width="0.1900" height="4.0500" ry="0.0000" fill="currentColor"/>
<rect transform="translate(112.0740, -0.0000)" x="0.0000" y="10.4423" width="0.1900" height="9.5705" ry="0.0000" fill="currentColor"/>
<rect transform="translate(112.0740, 22.0128)" x="0.0000" y="-2.0500" width="0.1900" height="4.0500" ry="0.0000" fill="currentColor"/>
<rect transform="translate(0.0000, 11.3923)" x="58.6096" y="-0.1000" width="1.9743" height="0.2000" ry="0.1000" fill="currentColor"/>
<rect transform="translate(0.0000, 11.3923)" x="63.0204" y="-0.1000" width="1.9743" height="0.2000" ry="0.1000" fill="currentColor"/>
<rect transform="translate(0.0000, 11.3923)" x="119.8078" y="-0.1000" width="1.9743" height="0.2000" ry="0.1000" fill="currentColor"/>
<rect transform="translate(0.0000, 11.3923)" x="131.8592" y="-0.1000" width="1.9743" height="0.2000" ry="0.1000" fill="currentColor"/>
<line transform="translate(7.9668, 10.3923)" stroke-linejoin="round" stroke-linecap="round" stroke-width="0.1000" stroke="currentColor" x1="0.0500" y1="-0.0000" x2="140.7342" y2="-0.0000"/>
<line transform="translate(7.9668, 9.3923)" stroke-linejoin="round" stroke-linecap="round" stroke-width="0.1000" stroke="currentColor" x1="0.0500" y1="-0.0000" x2="140.7342" y2="-0.0000"/>
<line transform="translate(7.9668, 8.3923)" stroke-linejoin="round" stroke-linecap="round" stroke-width="0.1000" stroke="currentColor" x1="0.0500" y1="-0.0000" x2="140.7342" y2="-0.0000"/>
<line transform="translate(7.9668, 7.3923)" stroke-linejoin="round" stroke-linecap="round" stroke-width="0.1000" stroke="currentColor" x1="0.0500" y1="-0.0000" x2="140.7342" y2="-0.0000"/>
<line transform="translate(7.9668, 6.3923)" stroke-linejoin="round" stroke-linecap="round" stroke-width="0.1000" stroke="currentColor" x1="0.0500" y1="-0.0000" x2="140.7342" y2="-0.0000"/>
<rect transform="translate(0.0000, 19.0128)" x="25.2887" y="-0.1000" width="1.9743" height="0.2000" ry="0.1000" fill="currentColor"/>
<rect transform="translate(0.0000, 18.0128)" x="25.2887" y="-0.1000" width="1.9743" height="0.2000" ry="0.1000" fill="currentColor"/>
<rect transform="translate(0.0000, 19.0128)" x="28.6668" y="-0.1000" width="1.9743" height="0.2000" ry="0.1000" fill="currentColor"/>
<rect transform="translate(0.0000, 18.0128)" x="28.6668" y="-0.1000" width="1.9743" height="0.2000" ry="0.1000" fill="currentColor"/>
<rect transform="translate(0.0000, 17.0128)" x="28.6668" y="-0.1000" width="1.9743" height="0.2000" ry="0.1000" fill="currentColor"/>
<rect transform="translate(0.0000, 19.0128)" x="31.0293" y="-0.1000" width="1.9743" height="0.2000" ry="0.1000" fill="currentColor"/>
<rect transform="translate(0.0000, 18.0128)" x="31.0293" y="-0.1000" width="1.9743" height="0.2000" ry="0.1000" fill="currentColor"/>
<rect transform="translate(0.0000, 17.0128)" x="31.0293" y="-0.1000" width="1.9743" height="0.2000" ry="0.1000" fill="currentColor"/>
<rect transform="translate(0.0000, 19.0128)" x="34.3481" y="-0.1000" width="1.9743" height="0.2000" ry="0.1000" fill="currentColor"/>
<rect transform="translate(0.0000, 18.0128)" x="34.3481" y="-0.1000" width="1.9743" height="0.2000" ry="0.1000" fill="currentColor"/>
<rect transform="translate(0.0000, 17.0128)" x="34.3481" y="-0.1000" width="1.9743" height="0.2000" ry="0.1000" fill="currentColor"/>
<rect transform="translate(0.0000, 16.0128)" x="34.3481" y="-0.1000" width="1.9743" height="0.2000" ry="0.1000" fill="currentColor"/>
<rect transform="translate(0.0000, 19.0128)" x="37.4762" y="-0.1000" width="1.9743" height="0.2000" ry="0.1000" fill="currentColor"/>
<rect transform="translate(0.0000, 18.0128)" x="37.4762" y="-0.1000" width="1.9743" height="0.2000" ry="0.1000" fill="currentColor"/>
<rect transform="translate(0.0000, 17.0128)" x="37.4762" y="-0.1000" width="1.9743" height="0.2000" ry="0.1000" fill="currentColor"/>
<rect transform="translate(0.0000, 19.0128)" x="40.8543" y="-0.1000" width="1.9743" height="0.2000" ry="0.1000" fill="currentColor"/>
<rect transform="translate(0.0000, 18.0128)" x="40.8543" y="-0.1000" width="1.9743" height="0.2000" ry="0.1000" fill="currentColor"/>
<rect transform="translate(0.0000, 19.0128)" x="44.2324" y="-0.1000" width="1.9743" height="0.2000" ry="0.1000" fill="currentColor"/>
<rect transform="translate(0.0000, 18.0128)" x="44.2324" y="-0.1000" width="1.9743" height="0.2000" ry="0.1000" fill="currentColor"/>
<rect transform="translate(0.0000, 19.0128)" x="48.6732" y="-0.1000" width="1.9743" height="0.2000" ry="0.1000" fill="currentColor"/>
<rect transform="translate(0.0000, 19.0128)" x="74.8329" y="-0.1000" width="1.9743" height="0.2000" ry="0.1000" fill="currentColor"/>
<rect transform="translate(0.0000, 19.0128)" x="77.1954" y="-0.1000" width="1.9743" height="0.2000" ry="0.1000" fill="currentColor"/>
<rect transform="translate(0.0000, 19.0128)" x="79.5579" y="-0.1000" width="1.9743" height="0.2000" ry="0.1000" fill="currentColor"/>
<rect transform="translate(0.0000, 19.0128)" x="90.0512" y="-0.1000" width="1.9743" height="0.2000" ry="0.1000" fill="currentColor"/>
<rect transform="translate(0.0000, 19.0128)" x="97.7816" y="-0.1000" width="1.9743" height="0.2000" ry="0.1000" fill="currentColor"/>
<rect transform="translate(0.0000, 19.0128)" x="104.7878" y="-0.1000" width="1.9743" height="0.2000" ry="0.1000" fill="currentColor"/>
<rect transform="translate(0.0000, 25.0128)" x="119.8078" y="-0.1000" width="1.9743" height="0.2000" ry="0.1000" fill="currentColor"/>
<line transform="translate(7.9668, 24.0128)" stroke-linejoin="round" stroke-linecap="round" stroke-width="0.1000" stroke="currentColor" x1="0.0500" y1="-0.0000" x2="140.7342" y2="-0.0000"/>
<line transform="translate(7.9668, 23.0128)" stroke-linejoin="round" stroke-linecap="round" stroke-width="0.1000" stroke="currentColor" x1="0.0500" y1="-0.0000" x2="140.7342" y2="-0.0000"/>
<line transform="translate(7.9668, 22.0128)" stroke-linejoin="round" stroke-linecap="round" stroke-width="0.1000" stroke="currentColor" x1="0.0500" y1="-0.0000" x2="140.7342" y2="-0.0000"/>
<line transform="translate(7.9668, 21.0128)" stroke-linejoin="round" stroke-linecap="round" stroke-width="0.1000" stroke="currentColor" x1="0.0500" y1="-0.0000" x2="140.7342" y2="-0.0000"/>
<line transform="translate(7.9668, 20.0128)" stroke-linejoin="round" stroke-linecap="round" stroke-width="0.1000" stroke="currentColor" x1="0.0500" y1="-0.0000" x2="140.7342" y2="-0.0000"/>
<rect transform="translate(50.2534, 22.0128)" x="-0.0650" y="-6.5000" width="0.1300" height="2.8122" ry="0.0400" fill="currentColor"/>
<path transform="translate(50.3184, 15.5528) scale(0.0040, -0.0040)" d="M0 0c0 -198 209 -335 209 -533c0 -71 -16 -141 -42 -207c-5 -8 -12 -12 -19 -12c-13 0 -26 11 -23 27c26 61 42 126 42 192c0 104 -95 208 -167 283h-16v250h16z" fill="currentColor"/>
<path transform="translate(49.0023, 8.3923) scale(0.0040, -0.0040)" d="M220 138c56 0 109 -29 109 -91c0 -72 -56 -121 -103 -149c-36 -21 -76 -36 -117 -36c-56 0 -109 29 -109 91c0 72 56 121 103 149c36 21 76 36 117 36z" fill="currentColor"/>
<path transform="translate(49.0023, 8.3923) scale(0.0040, -0.0040)" d="M220 138c56 0 109 -29 109 -91c0 -72 -56 -121 -103 -149c-36 -21 -76 -36 -117 -36c-56 0 -109 29 -109 91c0 72 56 121 103 149c36 21 76 36 117 36z" fill="currentColor"/>
<path transform="translate(49.0023, 18.5128) scale(0.0040, -0.0040)" d="M220 138c56 0 109 -29 109 -91c0 -72 -56 -121 -103 -149c-36 -21 -76 -36 -117 -36c-56 0 -109 29 -109 91c0 72 56 121 103 149c36 21 76 36 117 36z" fill="currentColor"/>
<path transform="translate(49.0023, 24.0128) scale(0.0040, -0.0040)" d="M-23 -116c0 28 11 42 40 42c33 0 78 -13 119 -31l-132 158c-7 9 -10 17 -10 25c0 34 50 66 87 99c25 22 37 52 37 83c0 24 -8 49 -25 69l-35 42c-3 3 -4 7 -4 10c0 9 9 15 17 15c4 0 8 -1 11 -5l151 -180c7 -9 10 -17 10 -25c0 -34 -50 -66 -87 -99
c-25 -22 -37 -52 -37 -83c0 -24 7 -49 24 -69l84 -99c3 -3 4 -7 4 -10c0 -9 -8 -16 -16 -16c-4 0 -9 2 -12 6c-18 21 -63 38 -97 38c-41 0 -53 -26 -53 -67c0 -35 11 -74 28 -94c5 -6 0 -13 -6 -13c-2 0 -4 0 -6 2c-45 54 -92 148 -92 202z" fill="currentColor"/>
<rect transform="translate(50.2534, 8.3923)" x="-0.0650" y="-3.3333" width="0.1300" height="3.1455" ry="0.0400" fill="currentColor"/>
<rect transform="translate(49.0673, 8.3923)" x="-0.0650" y="0.1878" width="0.1300" height="3.1872" ry="0.0400" fill="currentColor"/>
<path transform="translate(49.1323, 11.7273) scale(0.0040, -0.0040)" d="M0 0h-16v250h16c98 58 227 148 227 259c0 57 -16 112 -41 163c-3 16 10 27 23 27c7 0 15 -3 20 -11c25 -56 40 -117 40 -179c0 -204 -269 -305 -269 -509z" fill="currentColor"/>
<rect transform="translate(25.6827, 22.0128)" x="-0.0650" y="-4.3122" width="0.1300" height="4.3122" ry="0.0400" fill="currentColor"/>
<path transform="translate(58.9387, 11.3923) scale(0.0040, -0.0040)" d="M220 138c56 0 109 -29 109 -91c0 -72 -56 -121 -103 -149c-36 -21 -76 -36 -117 -36c-56 0 -109 29 -109 91c0 72 56 121 103 149c36 21 76 36 117 36z" fill="currentColor"/>
<path transform="translate(58.9387, 21.5128) scale(0.0040, -0.0040)" d="M220 138c56 0 109 -29 109 -91c0 -72 -56 -121 -103 -149c-36 -21 -76 -36 -117 -36c-56 0 -109 29 -109 91c0 72 56 121 103 149c36 21 76 36 117 36z" fill="currentColor"/>
<path transform="translate(58.9387, 24.5128) scale(0.0040, -0.0040)" d="M220 138c56 0 109 -29 109 -91c0 -72 -56 -121 -103 -149c-36 -21 -76 -36 -117 -36c-56 0 -109 29 -109 91c0 72 56 121 103 149c36 21 76 36 117 36z" fill="currentColor"/>
<rect transform="translate(59.0037, 8.3923)" x="-0.0650" y="3.1878" width="0.1300" height="2.8122" ry="0.0400" fill="currentColor"/>
<path transform="translate(59.0687, 14.3523) scale(0.0040, -0.0040)" d="M0 0h-16v250h16c98 58 227 148 227 259c0 57 -16 112 -41 163c-3 16 10 27 23 27c7 0 15 -3 20 -11c25 -56 40 -117 40 -179c0 -204 -269 -305 -269 -509z" fill="currentColor"/>
<rect transform="translate(60.1898, 22.0128)" x="-0.0650" y="-3.1960" width="0.1300" height="2.5082" ry="0.0400" fill="currentColor"/>
<path transform="translate(52.3406, 10.8923) scale(0.0040, -0.0040)" d="M220 138c56 0 109 -29 109 -91c0 -72 -56 -121 -103 -149c-36 -21 -76 -36 -117 -36c-56 0 -109 29 -109 91c0 72 56 121 103 149c36 21 76 36 117 36z" fill="currentColor"/>
<path transform="translate(52.3406, 20.5128) scale(0.0040, -0.0040)" d="M220 138c56 0 109 -29 109 -91c0 -72 -56 -121 -103 -149c-36 -21 -76 -36 -117 -36c-56 0 -109 29 -109 91c0 72 56 121 103 149c36 21 76 36 117 36z" fill="currentColor"/>
<rect transform="translate(52.4056, 8.3923)" x="-0.0650" y="2.6878" width="0.1300" height="2.3122" ry="0.0400" fill="currentColor"/>
<rect transform="translate(53.5917, 22.0128)" x="-0.0650" y="-3.8040" width="0.1300" height="2.1162" ry="0.0400" fill="currentColor"/>
<path transform="translate(55.7187, 8.8923) scale(0.0040, -0.0040)" d="M220 138c56 0 109 -29 109 -91c0 -72 -56 -121 -103 -149c-36 -21 -76 -36 -117 -36c-56 0 -109 29 -109 91c0 72 56 121 103 149c36 21 76 36 117 36z" fill="currentColor"/>
<path transform="translate(55.7187, 21.0128) scale(0.0040, -0.0040)" d="M220 138c56 0 109 -29 109 -91c0 -72 -56 -121 -103 -149c-36 -21 -76 -36 -117 -36c-56 0 -109 29 -109 91c0 72 56 121 103 149c36 21 76 36 117 36z" fill="currentColor"/>
<path transform="translate(55.7187, 24.0128) scale(0.0040, -0.0040)" d="M72 -250l117 326c-34 -12 -69 -22 -105 -22c-46 0 -87 33 -87 79c0 40 33 72 73 72c25 0 48 -15 56 -39c10 -28 6 -59 35 -59c16 0 54 48 61 63c6 12 23 12 28 0l-123 -420c-8 -7 -17 -10 -27 -10s-20 3 -28 10z" fill="currentColor"/>
<rect transform="translate(56.9698, 8.3923)" x="-0.0650" y="-3.0000" width="0.1300" height="3.3122" ry="0.0400" fill="currentColor"/>
<rect transform="translate(56.9698, 22.0128)" x="-0.0650" y="-3.4927" width="0.1300" height="2.3049" ry="0.0400" fill="currentColor"/>
<path transform="translate(34.6771, 16.0128) scale(0.0040, -0.0040)" d="M220 138c56 0 109 -29 109 -91c0 -72 -56 -121 -103 -149c-36 -21 -76 -36 -117 -36c-56 0 -109 29 -109 91c0 72 56 121 103 149c36 21 76 36 117 36z" fill="currentColor"/>
<path transform="translate(36.4433, 6.8923) scale(0.0040, -0.0040)" d="M0 0c0 31 25 56 56 56s56 -25 56 -56s-25 -56 -56 -56s-56 25 -56 56z" fill="currentColor"/>
<rect transform="translate(35.9283, 8.3923)" x="-0.0650" y="-4.0000" width="0.1300" height="2.8122" ry="0.0400" fill="currentColor"/>
<rect transform="translate(34.7421, 8.3923)" x="-0.0650" y="-0.8122" width="0.1300" height="3.0146" ry="0.0400" fill="currentColor"/>
<rect transform="translate(34.7421, 22.0128)" x="-0.0650" y="-5.8122" width="0.1300" height="5.8122" ry="0.0400" fill="currentColor"/>
<rect transform="translate(29.0608, 22.0128)" x="-0.0650" y="-4.8122" width="0.1300" height="4.8122" ry="0.0400" fill="currentColor"/>
<path transform="translate(31.3583, 7.8923) scale(0.0040, -0.0040)" d="M220 138c56 0 109 -29 109 -91c0 -72 -56 -121 -103 -149c-36 -21 -76 -36 -117 -36c-56 0 -109 29 -109 91c0 72 56 121 103 149c36 21 76 36 117 36z" fill="currentColor"/>
<path transform="translate(31.3583, 16.5128) scale(0.0040, -0.0040)" d="M220 138c56 0 109 -29 109 -91c0 -72 -56 -121 -103 -149c-36 -21 -76 -36 -117 -36c-56 0 -109 29 -109 91c0 72 56 121 103 149c36 21 76 36 117 36z" fill="currentColor"/>
<rect transform="translate(31.4233, 8.3923)" x="-0.0650" y="-0.3122" width="0.1300" height="3.3122" ry="0.0400" fill="currentColor"/>
<rect transform="translate(31.4233, 22.0128)" x="-0.0650" y="-5.3122" width="0.1300" height="5.3122" ry="0.0400" fill="currentColor"/>
<rect transform="translate(29.0608, 8.3923)" x="-0.0650" y="0.1878" width="0.1300" height="2.8122" ry="0.0400" fill="currentColor"/>
<path transform="translate(34.6771, 7.3923) scale(0.0040, -0.0040)" d="M220 138c56 0 109 -29 109 -91c0 -72 -56 -121 -103 -149c-36 -21 -76 -36 -117 -36c-56 0 -109 29 -109 91c0 72 56 121 103 149c36 21 76 36 117 36z" fill="currentColor"/>
<path transform="translate(41.1833, 8.8923) scale(0.0040, -0.0040)" d="M220 138c56 0 109 -29 109 -91c0 -72 -56 -121 -103 -149c-36 -21 -76 -36 -117 -36c-56 0 -109 29 -109 91c0 72 56 121 103 149c36 21 76 36 117 36z" fill="currentColor"/>
<path transform="translate(41.1833, 17.5128) scale(0.0040, -0.0040)" d="M220 138c56 0 109 -29 109 -91c0 -72 -56 -121 -103 -149c-36 -21 -76 -36 -117 -36c-56 0 -109 29 -109 91c0 72 56 121 103 149c36 21 76 36 117 36z" fill="currentColor"/>
<path transform="translate(28.9958, 8.3923) scale(0.0040, -0.0040)" d="M220 138c56 0 109 -29 109 -91c0 -72 -56 -121 -103 -149c-36 -21 -76 -36 -117 -36c-56 0 -109 29 -109 91c0 72 56 121 103 149c36 21 76 36 117 36z" fill="currentColor"/>
<rect transform="translate(41.2483, 8.3923)" x="-0.0650" y="0.6878" width="0.1300" height="2.9789" ry="0.0400" fill="currentColor"/>
<rect transform="translate(41.2483, 22.0128)" x="-0.0650" y="-4.3122" width="0.1300" height="4.3122" ry="0.0400" fill="currentColor"/>
<path transform="translate(28.9958, 6.8923) scale(0.0040, -0.0040)" d="M220 138c56 0 109 -29 109 -91c0 -72 -56 -121 -103 -149c-36 -21 -76 -36 -117 -36c-56 0 -109 29 -109 91c0 72 56 121 103 149c36 21 76 36 117 36z" fill="currentColor"/>
<path transform="translate(44.5614, 7.8923) scale(0.0040, -0.0040)" d="M220 138c56 0 109 -29 109 -91c0 -72 -56 -121 -103 -149c-36 -21 -76 -36 -117 -36c-56 0 -109 29 -109 91c0 72 56 121 103 149c36 21 76 36 117 36z" fill="currentColor"/>
<path transform="translate(44.5614, 18.0128) scale(0.0040, -0.0040)" d="M220 138c56 0 109 -29 109 -91c0 -72 -56 -121 -103 -149c-36 -21 -76 -36 -117 -36c-56 0 -109 29 -109 91c0 72 56 121 103 149c36 21 76 36 117 36z" fill="currentColor"/>
<rect transform="translate(45.8126, 8.3923)" x="-0.0650" y="-3.7500" width="0.1300" height="3.0622" ry="0.0400" fill="currentColor"/>
<path transform="translate(45.8776, 4.6823) scale(0.0040, -0.0040)" d="M0 0c0 -198 209 -335 209 -533c0 -71 -16 -141 -42 -207c-5 -8 -12 -12 -19 -12c-13 0 -26 11 -23 27c26 61 42 126 42 192c0 104 -95 208 -167 283h-16v250h16z" fill="currentColor"/>
<rect transform="translate(44.6264, 22.0128)" x="-0.0650" y="-3.8122" width="0.1300" height="3.8122" ry="0.0400" fill="currentColor"/>
<rect transform="translate(30.2470, 8.3923)" x="-0.0650" y="-4.8100" width="0.1300" height="3.1222" ry="0.0400" fill="currentColor"/>
<path transform="translate(28.9958, 17.0128) scale(0.0040, -0.0040)" d="M220 138c56 0 109 -29 109 -91c0 -72 -56 -121 -103 -149c-36 -21 -76 -36 -117 -36c-56 0 -109 29 -109 91c0 72 56 121 103 149c36 21 76 36 117 36z" fill="currentColor"/>
<path transform="translate(37.8052, 8.3923) scale(0.0040, -0.0040)" d="M220 138c56 0 109 -29 109 -91c0 -72 -56 -121 -103 -149c-36 -21 -76 -36 -117 -36c-56 0 -109 29 -109 91c0 72 56 121 103 149c36 21 76 36 117 36z" fill="currentColor"/>
<path transform="translate(37.8052, 17.0128) scale(0.0040, -0.0040)" d="M220 138c56 0 109 -29 109 -91c0 -72 -56 -121 -103 -149c-36 -21 -76 -36 -117 -36c-56 0 -109 29 -109 91c0 72 56 121 103 149c36 21 76 36 117 36z" fill="currentColor"/>
<rect transform="translate(37.8702, 8.3923)" x="-0.0650" y="0.1878" width="0.1300" height="2.6098" ry="0.0400" fill="currentColor"/>
<rect transform="translate(37.8702, 22.0128)" x="-0.0650" y="-4.8122" width="0.1300" height="4.8122" ry="0.0400" fill="currentColor"/>
<path transform="translate(83.3740, 19.5128) scale(0.0040, -0.0040)" d="M220 138c56 0 109 -29 109 -91c0 -72 -56 -121 -103 -149c-36 -21 -76 -36 -117 -36c-56 0 -109 29 -109 91c0 72 56 121 103 149c36 21 76 36 117 36z" fill="currentColor"/>
<rect transform="translate(84.6252, 8.3923)" x="-0.0650" y="-1.8100" width="0.1300" height="4.1222" ry="0.0400" fill="currentColor"/>
<rect transform="translate(84.6252, 22.0128)" x="-0.0650" y="-5.0000" width="0.1300" height="2.3122" ry="0.0400" fill="currentColor"/>
<rect transform="translate(83.4390, 22.0128)" x="-0.0650" y="-2.3122" width="0.1300" height="3.3122" ry="0.0400" fill="currentColor"/>
<polygon transform="translate(133.3744, 5.5823)" stroke-linejoin="round" stroke-linecap="round" stroke-width="0.0800" fill="currentColor" stroke="currentColor" points="7.1775 -0.3900 7.1775 0.0100 0.0400 0.2000 0.0400 -0.2000"/>
<polygon transform="translate(133.3744, 6.3923)" stroke-linejoin="round" stroke-linecap="round" stroke-width="0.0800" fill="currentColor" stroke="currentColor" points="7.1775 -0.3900 7.1775 0.0100 0.0400 0.2000 0.0400 -0.2000"/>
<polygon transform="translate(121.3230, 6.3923)" stroke-linejoin="round" stroke-linecap="round" stroke-width="0.0800" fill="currentColor" stroke="currentColor" points="8.5753 -0.0100 8.5753 0.3900 0.0400 0.2000 0.0400 -0.2000"/>
<polygon transform="translate(121.3230, 7.2023)" stroke-linejoin="round" stroke-linecap="round" stroke-width="0.0800" fill="currentColor" stroke="currentColor" points="8.5753 -0.0100 8.5753 0.3900 0.0400 0.2000 0.0400 -0.2000"/>
<path transform="translate(77.5244, 6.3923) scale(0.0040, -0.0040)" d="M72 -250l117 326c-34 -12 -69 -22 -105 -22c-46 0 -87 33 -87 79c0 40 33 72 73 72c25 0 48 -15 56 -39c10 -28 6 -59 35 -59c16 0 54 48 61 63c6 12 23 12 28 0l-123 -420c-8 -7 -17 -10 -27 -10s-20 3 -28 10z" fill="currentColor"/>
<path transform="translate(77.5244, 18.5128) scale(0.0040, -0.0040)" d="M220 138c56 0 109 -29 109 -91c0 -72 -56 -121 -103 -149c-36 -21 -76 -36 -117 -36c-56 0 -109 29 -109 91c0 72 56 121 103 149c36 21 76 36 117 36z" fill="currentColor"/>
<path transform="translate(77.5244, 24.0128) scale(0.0040, -0.0040)" d="M72 -250l117 326c-34 -12 -69 -22 -105 -22c-46 0 -87 33 -87 79c0 40 33 72 73 72c25 0 48 -15 56 -39c10 -28 6 -59 35 -59c16 0 54 48 61 63c6 12 23 12 28 0l-123 -420c-8 -7 -17 -10 -27 -10s-20 3 -28 10z" fill="currentColor"/>
<rect transform="translate(78.7756, 22.0128)" x="-0.0650" y="-5.9361" width="0.1300" height="2.2483" ry="0.0400" fill="currentColor"/>
<path transform="translate(79.8869, 19.0128) scale(0.0040, -0.0040)" d="M220 138c56 0 109 -29 109 -91c0 -72 -56 -121 -103 -149c-36 -21 -76 -36 -117 -36c-56 0 -109 29 -109 91c0 72 56 121 103 149c36 21 76 36 117 36z" fill="currentColor"/>
<rect transform="translate(81.1381, 22.0128)" x="-0.0650" y="-5.9983" width="0.1300" height="2.8105" ry="0.0400" fill="currentColor"/>
<path transform="translate(83.3740, 10.8923) scale(0.0040, -0.0040)" d="M220 138c56 0 109 -29 109 -91c0 -72 -56 -121 -103 -149c-36 -21 -76 -36 -117 -36c-56 0 -109 29 -109 91c0 72 56 121 103 149c36 21 76 36 117 36z" fill="currentColor"/>
<path transform="translate(83.3740, 19.5128) scale(0.0040, -0.0040)" d="M220 138c56 0 109 -29 109 -91c0 -72 -56 -121 -103 -149c-36 -21 -76 -36 -117 -36c-56 0 -109 29 -109 91c0 72 56 121 103 149c36 21 76 36 117 36z" fill="currentColor"/>
<polygon transform="translate(53.5267, 18.2028)" stroke-linejoin="round" stroke-linecap="round" stroke-width="0.0800" fill="currentColor" stroke="currentColor" points="6.6881 0.4200 6.6881 0.8200 0.0400 0.2000 0.0400 -0.2000"/>
<path transform="translate(63.3494, 8.3923)" stroke-width="0.0800" stroke-linejoin="round" stroke-linecap="round" stroke="currentColor" fill="currentColor" d="M1.23235161949483 -4.24279181758592C2.63226722391761 -5.5713037053947 6.81120008349703 -5.7507932168989 8.31987188356484 -4.54720818241408C6.81634946069515 -5.63090375149651 2.63741660111573 -5.45141423999231 1.23235161949483 -4.24279181758592z"/>
<line transform="translate(63.3494, 0.9647)" stroke-linejoin="round" stroke-linecap="round" stroke-width="0.1000" stroke="currentColor" x1="0.0000" y1="0.0000" x2="3.6787" y2="0.6666"/>
<line transform="translate(63.3494, 0.9647)" stroke-linejoin="round" stroke-linecap="round" stroke-width="0.1000" stroke="currentColor" x1="0.0000" y1="-0.0000" x2="3.6787" y2="-0.6666"/>
<line transform="translate(55.7187, 16.0860)" stroke-linejoin="round" stroke-linecap="round" stroke-width="0.1000" stroke="currentColor" x1="0.0000" y1="0.0000" x2="4.5362" y2="0.6666"/>
<line transform="translate(55.7187, 16.0860)" stroke-linejoin="round" stroke-linecap="round" stroke-width="0.1000" stroke="currentColor" x1="0.0000" y1="-0.0000" x2="4.5362" y2="-0.6666"/>
<path transform="translate(52.3406, 22.0128)" stroke-width="0.0800" stroke-linejoin="round" stroke-linecap="round" stroke="currentColor" fill="currentColor" d="M1.29143631359261 -4.54401020808041C2.79107543514399 -5.63663795657678 6.61484244900769 -5.28427536023769 7.88954983422863 -3.93598979191959C6.60383102586178 -5.16478164257729 2.78006401199808 -5.51714423891639 1.29143631359261 -4.54401020808041z"/>
<polygon transform="translate(34.6771, 22.0128)" stroke-linejoin="round" stroke-linecap="round" stroke-width="0.0800" fill="currentColor" stroke="currentColor" points="9.9743 -0.2000 9.9743 0.2000 0.0400 0.2000 0.0400 -0.2000"/>
<path transform="translate(49.0023, 8.3923)" stroke-width="0.1000" stroke-linejoin="round" stroke-linecap="round" stroke="currentColor" fill="currentColor" d="M1.251178 -4.700006C3.89654812031556 -6.9102745821893 22.8209754201747 -6.9102745821893 25.4663455404903 -4.700006C22.8209754201747 -6.8002745821893 3.89654812031556 -6.8002745821893 1.251178 -4.700006z"/>
<polygon transform="translate(34.6771, 10.5823)" stroke-linejoin="round" stroke-linecap="round" stroke-width="0.0800" fill="currentColor" stroke="currentColor" points="3.2181 0.4200 3.2181 0.8200 0.0400 0.2000 0.0400 -0.2000"/>
<line transform="translate(37.8052, 12.8963)" stroke-linejoin="round" stroke-linecap="round" stroke-width="0.1000" stroke="currentColor" x1="0.0000" y1="0.6666" x2="4.6943" y2="0.0000"/>
<line transform="translate(37.8052, 12.8963)" stroke-linejoin="round" stroke-linecap="round" stroke-width="0.1000" stroke="currentColor" x1="0.0000" y1="-0.6666" x2="4.6943" y2="-0.0000"/>
<path transform="translate(34.6771, 22.0128)" stroke-width="0.0800" stroke-linejoin="round" stroke-linecap="round" stroke="currentColor" fill="currentColor" d="M0.745097972913094 -7.050006C2.79396418398232 -8.12967639139872 9.16144412873486 -6.84127407478397 10.6294017538671 -5.050006C9.13764550100463 -6.72365764175628 2.7701655562521 -8.01205995837102 0.745097972913094 -7.050006z"/>
<line transform="translate(34.6771, 25.3793)" stroke-linejoin="round" stroke-linecap="round" stroke-width="0.1000" stroke="currentColor" x1="0.0000" y1="0.6666" x2="11.2005" y2="0.0000"/>
<line transform="translate(34.6771, 25.3793)" stroke-linejoin="round" stroke-linecap="round" stroke-width="0.1000" stroke="currentColor" x1="0.0000" y1="-0.6666" x2="11.2005" y2="-0.0000"/>
<polygon transform="translate(28.9958, 21.2028)" stroke-linejoin="round" stroke-linecap="round" stroke-width="0.0800" fill="currentColor" stroke="currentColor" points="2.4525 -0.2000 2.4525 0.2000 0.0400 0.2000 0.0400 -0.2000"/>
<polygon transform="translate(25.6177, 22.0128)" stroke-linejoin="round" stroke-linecap="round" stroke-width="0.0800" fill="currentColor" stroke="currentColor" points="5.8306 -0.2000 5.8306 0.2000 0.0400 0.2000 0.0400 -0.2000"/>
<polygon transform="translate(20.0477, 3.5823)" stroke-linejoin="round" stroke-linecap="round" stroke-width="0.0800" fill="currentColor" stroke="currentColor" points="10.2243 -0.2000 10.2243 0.2000 0.0400 0.2000 0.0400 -0.2000"/>
<path transform="translate(25.6177, 22.0128)" stroke-width="0.0800" stroke-linejoin="round" stroke-linecap="round" stroke="currentColor" fill="currentColor" d="M0.582797805262153 -5.550006C1.64602013821533 -6.8979312333335 4.86702957464511 -7.4590232688825 6.32340582027018 -6.550006C4.88762316465013 -7.34080354104191 1.66661372822035 -6.7797115054929 0.582797805262153 -5.550006z"/>
<line transform="translate(25.6177, 25.3791)" stroke-linejoin="round" stroke-linecap="round" stroke-width="0.1000" stroke="currentColor" x1="0.0000" y1="0.0000" x2="7.0568" y2="0.6666"/>
<line transform="translate(25.6177, 25.3791)" stroke-linejoin="round" stroke-linecap="round" stroke-width="0.1000" stroke="currentColor" x1="0.0000" y1="-0.0000" x2="7.0568" y2="-0.6666"/>
<line transform="translate(22.2396, 12.8511)" stroke-linejoin="round" stroke-linecap="round" stroke-width="0.1000" stroke="currentColor" x1="0.0000" y1="0.0000" x2="8.0724" y2="0.6666"/>
<line transform="translate(22.2396, 12.8511)" stroke-linejoin="round" stroke-linecap="round" stroke-width="0.1000" stroke="currentColor" x1="0.0000" y1="-0.0000" x2="8.0724" y2="-0.6666"/>
<polygon transform="translate(28.9958, 10.5823)" stroke-linejoin="round" stroke-linecap="round" stroke-width="0.0800" fill="currentColor" stroke="currentColor" points="2.4525 -0.2000 2.4525 0.2000 0.0400 0.2000 0.0400 -0.2000"/>
<polygon transform="translate(18.8615, 11.3923)" stroke-linejoin="round" stroke-linecap="round" stroke-width="0.0800" fill="currentColor" stroke="currentColor" points="12.5868 -0.2000 12.5868 0.2000 0.0400 0.2000 0.0400 -0.2000"/>
<path transform="translate(18.8615, 8.3923)" stroke-width="0.0800" stroke-linejoin="round" stroke-linecap="round" stroke="currentColor" fill="currentColor" d="M1.2763333326779 -5.55C4.08967013568721 -7.20660652426328 24.7890232626239 -6.01780726340728 27.3942041260441 -4.050006C24.7821427952676 -5.89800467925752 4.08278966833094 -7.08680394011352 1.2763333326779 -5.55z"/>
<polygon transform="translate(114.3168, 7.2023)" stroke-linejoin="round" stroke-linecap="round" stroke-width="0.0800" fill="currentColor" stroke="currentColor" points="3.7181 -1.0100 3.7181 -0.6100 0.0400 0.2000 0.0400 -0.2000"/>
<line transform="translate(120.1368, 14.5508)" stroke-linejoin="round" stroke-linecap="round" stroke-width="0.1000" stroke="currentColor" x1="0.0000" y1="0.0000" x2="10.2744" y2="0.6666"/>
<line transform="translate(120.1368, 14.5508)" stroke-linejoin="round" stroke-linecap="round" stroke-width="0.1000" stroke="currentColor" x1="0.0000" y1="-0.0000" x2="10.2744" y2="-0.6666"/>
<path transform="translate(116.7587, 8.3923)" stroke-width="0.0800" stroke-linejoin="round" stroke-linecap="round" stroke="currentColor" fill="currentColor" d="M1.65117799999999 0.729360359744677C2.04639954132411 0.240313581471704 2.78287971899388 0.240313581471704 3.178101260318 0.729360359744677C2.78287971899388 0.360313581471704 2.04639954132411 0.360313581471704 1.65117799999999 0.729360359744677z"/>
<path transform="translate(113.1306, 8.3923)" stroke-width="0.0800" stroke-linejoin="round" stroke-linecap="round" stroke="currentColor" fill="currentColor" d="M1.2268567236068 -2.09400973426553C3.92170340197076 -4.08489187135123 27.2538330237872 -5.38032717408795 30.1525104904205 -3.700006C27.2604853607063 -5.26051170591495 3.92835573888989 -3.96507640317823 1.2268567236068 -2.09400973426553z"/>
<polygon transform="translate(99.2969, 5.5823)" stroke-linejoin="round" stroke-linecap="round" stroke-width="0.0800" fill="currentColor" stroke="currentColor" points="10.4743 -0.2000 10.4743 0.2000 0.0400 0.2000 0.0400 -0.2000"/>
<line transform="translate(102.7302, 2.6444)" stroke-linejoin="round" stroke-linecap="round" stroke-width="0.1000" stroke="currentColor" x1="0.0000" y1="0.6666" x2="3.7029" y2="0.0000"/>
<line transform="translate(102.7302, 2.6444)" stroke-linejoin="round" stroke-linecap="round" stroke-width="0.1000" stroke="currentColor" x1="0.0000" y1="-0.6666" x2="3.7029" y2="-0.0000"/>
<polygon transform="translate(90.3802, 23.2028)" stroke-linejoin="round" stroke-linecap="round" stroke-width="0.0800" fill="currentColor" stroke="currentColor" points="3.3014 0.4200 3.3014 0.8200 0.0400 0.2000 0.0400 -0.2000"/>
<polygon transform="translate(91.5664, 16.5128)" stroke-linejoin="round" stroke-linecap="round" stroke-width="0.0800" fill="currentColor" stroke="currentColor" points="3.3014 0.4900 3.3014 0.8900 0.0400 0.2000 0.0400 -0.2000"/>
<path transform="translate(98.1107, 8.3923)" stroke-width="0.0800" stroke-linejoin="round" stroke-linecap="round" stroke="currentColor" fill="currentColor" d="M1.251178 -3.55C3.07424073314957 -5.0294325234075 9.81241904780444 -5.0294325234075 11.635481780954 -3.55C9.81241904780444 -4.90943252340751 3.07424073314957 -4.90943252340751 1.251178 -3.55z"/>
<line transform="translate(98.1107, 2.6444)" stroke-linejoin="round" stroke-linecap="round" stroke-width="0.1000" stroke="currentColor" x1="0.0000" y1="0.0000" x2="3.9529" y2="0.6666"/>
<line transform="translate(98.1107, 2.6444)" stroke-linejoin="round" stroke-linecap="round" stroke-width="0.1000" stroke="currentColor" x1="0.0000" y1="-0.0000" x2="3.9529" y2="-0.6666"/>
<polygon transform="translate(84.5602, 6.5823)" stroke-linejoin="round" stroke-linecap="round" stroke-width="0.0800" fill="currentColor" stroke="currentColor" points="10.3076 -0.2000 10.3076 0.2000 0.0400 0.2000 0.0400 -0.2000"/>
<line transform="translate(90.3802, 11.7866)" stroke-linejoin="round" stroke-linecap="round" stroke-width="0.1000" stroke="currentColor" x1="0.0000" y1="0.6666" x2="4.5276" y2="0.0000"/>
<line transform="translate(90.3802, 11.7866)" stroke-linejoin="round" stroke-linecap="round" stroke-width="0.1000" stroke="currentColor" x1="0.0000" y1="-0.6666" x2="4.5276" y2="-0.0000"/>
<polygon transform="translate(73.9856, 16.2028)" stroke-linejoin="round" stroke-linecap="round" stroke-width="0.0800" fill="currentColor" stroke="currentColor" points="7.1775 -0.3900 7.1775 0.0100 0.0400 0.2000 0.0400 -0.2000"/>
<polygon transform="translate(73.9856, 17.0128)" stroke-linejoin="round" stroke-linecap="round" stroke-width="0.0800" fill="currentColor" stroke="currentColor" points="7.1775 -0.3900 7.1775 0.0100 0.0400 0.2000 0.0400 -0.2000"/>
<path transform="translate(83.3740, 8.3923)" stroke-width="0.0800" stroke-linejoin="round" stroke-linecap="round" stroke="currentColor" fill="currentColor" d="M1.251178 -2.55C3.05819914242215 -4.02124762486081 9.66179397186519 -4.02124762486081 11.4688151142874 -2.55C9.66179397186519 -3.90124762486081 3.05819914242215 -3.90124762486081 1.251178 -2.55z"/>
<line transform="translate(83.3740, 12.2702)" stroke-linejoin="round" stroke-linecap="round" stroke-width="0.1000" stroke="currentColor" x1="0.0000" y1="0.0000" x2="4.9443" y2="0.6666"/>
<line transform="translate(83.3740, 12.2702)" stroke-linejoin="round" stroke-linecap="round" stroke-width="0.1000" stroke="currentColor" x1="0.0000" y1="-0.0000" x2="4.9443" y2="-0.6666"/>
<polygon transform="translate(64.5356, 19.2028)" stroke-linejoin="round" stroke-linecap="round" stroke-width="0.0800" fill="currentColor" stroke="currentColor" points="4.8150 -0.8900 4.8150 -0.4900 0.0400 0.2000 0.0400 -0.2000"/>
<polygon transform="translate(64.5356, 4.8923)" stroke-linejoin="round" stroke-linecap="round" stroke-width="0.0800" fill="currentColor" stroke="currentColor" points="7.1775 -0.5100 7.1775 -0.1100 0.0400 0.2000 0.0400 -0.2000"/>
<polygon transform="translate(64.5356, 5.7023)" stroke-linejoin="round" stroke-linecap="round" stroke-width="0.0800" fill="currentColor" stroke="currentColor" points="7.1775 -0.5100 7.1775 -0.1100 0.0400 0.2000 0.0400 -0.2000"/>
<path transform="translate(72.7994, 22.0128)" stroke-width="0.0800" stroke-linejoin="round" stroke-linecap="round" stroke="currentColor" fill="currentColor" d="M1.29255226500902 -6.55171111400428C3.27044386612422 -7.86176553488137 10.1704109631364 -7.2081478686624 11.8671323058472 -5.550006C10.1590943058125 -7.08868267177639 3.25912720880033 -7.74230033799536 1.29255226500902 -6.55171111400428z"/>
<line transform="translate(68.0744, 0.9647)" stroke-linejoin="round" stroke-linecap="round" stroke-width="0.1000" stroke="currentColor" x1="0.0000" y1="0.6666" x2="3.6787" y2="0.0000"/>
<line transform="translate(68.0744, 0.9647)" stroke-linejoin="round" stroke-linecap="round" stroke-width="0.1000" stroke="currentColor" x1="0.0000" y1="-0.6666" x2="3.6787" y2="-0.0000"/>
<rect transform="translate(64.6006, 22.0128)" x="-0.0650" y="-2.8192" width="0.1300" height="2.6314" ry="0.0400" fill="currentColor"/>
<rect transform="translate(63.4144, 22.0128)" x="-0.0650" y="1.1878" width="0.1300" height="2.8122" ry="0.0400" fill="currentColor"/>
<path transform="translate(65.7119, 7.8923) scale(0.0040, -0.0040)" d="M220 138c56 0 109 -29 109 -91c0 -72 -56 -121 -103 -149c-36 -21 -76 -36 -117 -36c-56 0 -109 29 -109 91c0 72 56 121 103 149c36 21 76 36 117 36z" fill="currentColor"/>
<rect transform="translate(66.9631, 8.3923)" x="-0.0650" y="-3.6043" width="0.1300" height="2.9164" ry="0.0400" fill="currentColor"/>
<rect transform="translate(59.0037, 22.0128)" x="-0.0650" y="2.6878" width="0.1300" height="2.8122" ry="0.0400" fill="currentColor"/>
<path transform="translate(59.0687, 27.4728) scale(0.0040, -0.0040)" d="M0 0h-16v250h16c98 58 227 148 227 259c0 57 -16 112 -41 163c-3 16 10 27 23 27c7 0 15 -3 20 -11c25 -56 40 -117 40 -179c0 -204 -269 -305 -269 -509z" fill="currentColor"/>
<path transform="translate(63.3494, 8.3923) scale(0.0040, -0.0040)" d="M220 138c56 0 109 -29 109 -91c0 -72 -56 -121 -103 -149c-36 -21 -76 -36 -117 -36c-56 0 -109 29 -109 91c0 72 56 121 103 149c36 21 76 36 117 36z" fill="currentColor"/>
<path transform="translate(63.3494, 11.8923) scale(0.0040, -0.0040)" d="M220 138c56 0 109 -29 109 -91c0 -72 -56 -121 -103 -149c-36 -21 -76 -36 -117 -36c-56 0 -109 29 -109 91c0 72 56 121 103 149c36 21 76 36 117 36z" fill="currentColor"/>
<path transform="translate(63.3494, 22.0128) scale(0.0040, -0.0040)" d="M220 138c56 0 109 -29 109 -91c0 -72 -56 -121 -103 -149c-36 -21 -76 -36 -117 -36c-56 0 -109 29 -109 91c0 72 56 121 103 149c36 21 76 36 117 36z" fill="currentColor"/>
<path transform="translate(63.3494, 23.0128) scale(0.0040, -0.0040)" d="M220 138c56 0 109 -29 109 -91c0 -72 -56 -121 -103 -149c-36 -21 -76 -36 -117 -36c-56 0 -109 29 -109 91c0 72 56 121 103 149c36 21 76 36 117 36z" fill="currentColor"/>
<rect transform="translate(64.6006, 8.3923)" x="-0.0650" y="-3.5028" width="0.1300" height="3.3150" ry="0.0400" fill="currentColor"/>
<rect transform="translate(63.4144, 8.3923)" x="-0.0650" y="3.6878" width="0.1300" height="2.3122" ry="0.0400" fill="currentColor"/>
<rect transform="translate(72.8644, 8.3923)" x="-0.0650" y="2.6878" width="0.1300" height="2.8122" ry="0.0400" fill="currentColor"/>
<path transform="translate(72.9294, 13.8523) scale(0.0040, -0.0040)" d="M0 0h-16v250h16c98 58 227 148 227 259c0 57 -16 112 -41 163c-3 16 10 27 23 27c7 0 15 -3 20 -11c25 -56 40 -117 40 -179c0 -204 -269 -305 -269 -509z" fill="currentColor"/>
<rect transform="translate(74.0506, 22.0128)" x="-0.0650" y="-5.8117" width="0.1300" height="3.1239" ry="0.0400" fill="currentColor"/>
<rect transform="translate(72.8644, 22.0128)" x="-0.0650" y="-2.3122" width="0.1300" height="3.3122" ry="0.0400" fill="currentColor"/>
<path transform="translate(72.9294, 22.9728) scale(0.0040, -0.0040)" d="M0 0h-16v250h16c98 58 227 148 227 259c0 57 -16 112 -41 163c-3 16 10 27 23 27c7 0 15 -3 20 -11c25 -56 40 -117 40 -179c0 -204 -269 -305 -269 -509z" fill="currentColor"/>
<path transform="translate(75.1619, 19.0128) scale(0.0040, -0.0040)" d="M220 138c56 0 109 -29 109 -91c0 -72 -56 -121 -103 -149c-36 -21 -76 -36 -117 -36c-56 0 -109 29 -109 91c0 72 56 121 103 149c36 21 76 36 117 36z" fill="currentColor"/>
<rect transform="translate(76.4131, 22.0128)" x="-0.0650" y="-5.8739" width="0.1300" height="2.6861" ry="0.0400" fill="currentColor"/>
<path transform="translate(68.0744, 7.3923) scale(0.0040, -0.0040)" d="M220 138c56 0 109 -29 109 -91c0 -72 -56 -121 -103 -149c-36 -21 -76 -36 -117 -36c-56 0 -109 29 -109 91c0 72 56 121 103 149c36 21 76 36 117 36z" fill="currentColor"/>
<path transform="translate(68.0744, 21.0128) scale(0.0040, -0.0040)" d="M220 138c56 0 109 -29 109 -91c0 -72 -56 -121 -103 -149c-36 -21 -76 -36 -117 -36c-56 0 -109 29 -109 91c0 72 56 121 103 149c36 21 76 36 117 36z" fill="currentColor"/>
<rect transform="translate(69.3256, 8.3923)" x="-0.0650" y="-3.7057" width="0.1300" height="2.5179" ry="0.0400" fill="currentColor"/>
<rect transform="translate(69.3256, 22.0128)" x="-0.0650" y="-3.4908" width="0.1300" height="2.3029" ry="0.0400" fill="currentColor"/>
<path transform="translate(70.4369, 7.8923) scale(0.0040, -0.0040)" d="M220 138c56 0 109 -29 109 -91c0 -72 -56 -121 -103 -149c-36 -21 -76 -36 -117 -36c-56 0 -109 29 -109 91c0 72 56 121 103 149c36 21 76 36 117 36z" fill="currentColor"/>
<rect transform="translate(71.6881, 8.3923)" x="-0.0650" y="-3.8072" width="0.1300" height="3.1194" ry="0.0400" fill="currentColor"/>
<path transform="translate(72.7994, 8.3923) scale(0.0040, -0.0040)" d="M220 138c56 0 109 -29 109 -91c0 -72 -56 -121 -103 -149c-36 -21 -76 -36 -117 -36c-56 0 -109 29 -109 91c0 72 56 121 103 149c36 21 76 36 117 36z" fill="currentColor"/>
<path transform="translate(72.7994, 10.8923) scale(0.0040, -0.0040)" d="M220 138c56 0 109 -29 109 -91c0 -72 -56 -121 -103 -149c-36 -21 -76 -36 -117 -36c-56 0 -109 29 -109 91c0 72 56 121 103 149c36 21 76 36 117 36z" fill="currentColor"/>
<path transform="translate(72.7994, 19.5128) scale(0.0040, -0.0040)" d="M220 138c56 0 109 -29 109 -91c0 -72 -56 -121 -103 -149c-36 -21 -76 -36 -117 -36c-56 0 -109 29 -109 91c0 72 56 121 103 149c36 21 76 36 117 36z" fill="currentColor"/>
<path transform="translate(72.7994, 19.5128) scale(0.0040, -0.0040)" d="M220 138c56 0 109 -29 109 -91c0 -72 -56 -121 -103 -149c-36 -21 -76 -36 -117 -36c-56 0 -109 29 -109 91c0 72 56 121 103 149c36 21 76 36 117 36z" fill="currentColor"/>
<rect transform="translate(74.0506, 8.3923)" x="-0.0650" y="-3.3750" width="0.1300" height="3.1872" ry="0.0400" fill="currentColor"/>
<path transform="translate(74.1156, 5.0573) scale(0.0040, -0.0040)" d="M0 0c0 -198 209 -335 209 -533c0 -71 -16 -141 -42 -207c-5 -8 -12 -12 -19 -12c-13 0 -26 11 -23 27c26 61 42 126 42 192c0 104 -95 208 -167 283h-16v250h16z" fill="currentColor"/>
<path transform="translate(101.7388, 8.3923) scale(0.0040, -0.0040)" d="M220 138c56 0 109 -29 109 -91c0 -72 -56 -121 -103 -149c-36 -21 -76 -36 -117 -36c-56 0 -109 29 -109 91c0 72 56 121 103 149c36 21 76 36 117 36z" fill="currentColor"/>
<rect transform="translate(102.9900, 8.3923)" x="-0.0650" y="-2.8100" width="0.1300" height="2.6222" ry="0.0400" fill="currentColor"/>
<path transform="translate(105.1169, 8.8923) scale(0.0040, -0.0040)" d="M220 138c56 0 109 -29 109 -91c0 -72 -56 -121 -103 -149c-36 -21 -76 -36 -117 -36c-56 0 -109 29 -109 91c0 72 56 121 103 149c36 21 76 36 117 36z" fill="currentColor"/>
<path transform="translate(105.1169, 10.3923) scale(0.0040, -0.0040)" d="M220 138c56 0 109 -29 109 -91c0 -72 -56 -121 -103 -149c-36 -21 -76 -36 -117 -36c-56 0 -109 29 -109 91c0 72 56 121 103 149c36 21 76 36 117 36z" fill="currentColor"/>
<path transform="translate(105.1169, 19.0128) scale(0.0040, -0.0040)" d="M220 138c56 0 109 -29 109 -91c0 -72 -56 -121 -103 -149c-36 -21 -76 -36 -117 -36c-56 0 -109 29 -109 91c0 72 56 121 103 149c36 21 76 36 117 36z" fill="currentColor"/>
<path transform="translate(105.1169, 22.5128) scale(0.0040, -0.0040)" d="M220 138c56 0 109 -29 109 -91c0 -72 -56 -121 -103 -149c-36 -21 -76 -36 -117 -36c-56 0 -109 29 -109 91c0 72 56 121 103 149c36 21 76 36 117 36z" fill="currentColor"/>
<rect transform="translate(106.3681, 8.3923)" x="-0.0650" y="-2.8100" width="0.1300" height="3.1222" ry="0.0400" fill="currentColor"/>
<rect transform="translate(105.1819, 8.3923)" x="-0.0650" y="2.1878" width="0.1300" height="2.4789" ry="0.0400" fill="currentColor"/>
<rect transform="translate(98.1757, 8.3923)" x="-0.0650" y="2.6878" width="0.1300" height="2.3122" ry="0.0400" fill="currentColor"/>
<rect transform="translate(99.3619, 22.0128)" x="-0.0650" y="-6.0000" width="0.1300" height="2.3122" ry="0.0400" fill="currentColor"/>
<rect transform="translate(98.1757, 22.0128)" x="-0.0650" y="-2.3122" width="0.1300" height="3.3122" ry="0.0400" fill="currentColor"/>
<path transform="translate(97.9107, 18.5128) scale(0.0020, -0.0020)" d="M-94 0c0 -84 12 -170 60 -239c3 -4 3 -7 3 -11c0 -10 -9 -19 -19 -19c-5 0 -12 2 -16 8c-54 77 -90 167 -90 261s36 184 90 261c4 6 11 8 16 8c10 0 19 -9 19 -19c0 -4 0 -7 -3 -11c-48 -69 -60 -155 -60 -239z" fill="currentColor"/>
<path transform="translate(99.6269, 18.5128) scale(0.0020, -0.0020)" d="M94 0c0 84 -12 170 -60 239c-3 4 -3 7 -3 11c0 10 9 19 19 19c5 0 12 -2 16 -8c54 -77 90 -167 90 -261s-36 -184 -90 -261c-4 -6 -11 -8 -16 -8c-10 0 -19 9 -19 19c0 4 0 7 3 11c48 69 60 155 60 239z" fill="currentColor"/>
<rect transform="translate(113.1956, 8.3923)" x="-0.0650" y="2.6878" width="0.1300" height="2.3122" ry="0.0400" fill="currentColor"/>
<rect transform="translate(114.3818, 22.0128)" x="-0.0650" y="-5.0000" width="0.1300" height="2.3122" ry="0.0400" fill="currentColor"/>
<rect transform="translate(113.1956, 22.0128)" x="-0.0650" y="0.1878" width="0.1300" height="3.1455" ry="0.0400" fill="currentColor"/>
<rect transform="translate(106.3681, 22.0128)" x="-0.0650" y="-5.5000" width="0.1300" height="2.3122" ry="0.0400" fill="currentColor"/>
<rect transform="translate(105.1819, 22.0128)" x="-0.0650" y="0.6878" width="0.1300" height="2.9789" ry="0.0400" fill="currentColor"/>
<path transform="translate(108.4950, 9.3923) scale(0.0040, -0.0040)" d="M220 138c56 0 109 -29 109 -91c0 -72 -56 -121 -103 -149c-36 -21 -76 -36 -117 -36c-56 0 -109 29 -109 91c0 72 56 121 103 149c36 21 76 36 117 36z" fill="currentColor"/>
<rect transform="translate(109.7462, 8.3923)" x="-0.0650" y="-2.8100" width="0.1300" height="3.6222" ry="0.0400" fill="currentColor"/>
<path transform="translate(113.1306, 10.8923) scale(0.0040, -0.0040)" d="M220 138c56 0 109 -29 109 -91c0 -72 -56 -121 -103 -149c-36 -21 -76 -36 -117 -36c-56 0 -109 29 -109 91c0 72 56 121 103 149c36 21 76 36 117 36z" fill="currentColor"/>
<path transform="translate(113.1306, 10.8923) scale(0.0040, -0.0040)" d="M220 138c56 0 109 -29 109 -91c0 -72 -56 -121 -103 -149c-36 -21 -76 -36 -117 -36c-56 0 -109 29 -109 91c0 72 56 121 103 149c36 21 76 36 117 36z" fill="currentColor"/>
<path transform="translate(113.1306, 19.5128) scale(0.0040, -0.0040)" d="M220 138c56 0 109 -29 109 -91c0 -72 -56 -121 -103 -149c-36 -21 -76 -36 -117 -36c-56 0 -109 29 -109 91c0 72 56 121 103 149c36 21 76 36 117 36z" fill="currentColor"/>
<path transform="translate(113.1306, 22.0128) scale(0.0040, -0.0040)" d="M220 138c56 0 109 -29 109 -91c0 -72 -56 -121 -103 -149c-36 -21 -76 -36 -117 -36c-56 0 -109 29 -109 91c0 72 56 121 103 149c36 21 76 36 117 36z" fill="currentColor"/>
<rect transform="translate(114.3818, 8.3923)" x="-0.0650" y="-1.2040" width="0.1300" height="3.5162" ry="0.0400" fill="currentColor"/>
<rect transform="translate(18.9265, 8.3923)" x="-0.0650" y="-0.8122" width="0.1300" height="3.8122" ry="0.0400" fill="currentColor"/>
<path transform="translate(7.6068, 15.2025) scale(0.0040, -0.0040)" d="M-12 -660c0 -356 -136 -708 -136 -1048c0 -180 40 -348 160 -488c4 -4 8 -8 8 -12c0 -8 -12 -16 -20 -16c-4 0 -8 0 -12 4c-160 184 -216 420 -216 664c0 364 140 720 140 1064c0 180 -40 344 -160 484c0 4 -4 4 -4 8s4 4 4 8c120 140 160 304 160 484
c0 344 -140 700 -140 1064c0 244 56 480 216 664c4 4 8 4 12 4c8 0 20 -8 20 -16c0 -4 -4 -8 -8 -12c-120 -140 -160 -308 -160 -488c0 -340 136 -692 136 -1048c0 -244 -56 -476 -212 -660c156 -184 212 -416 212 -660z" fill="currentColor"/>
<rect transform="translate(7.9068, 15.2025)" x="0.0000" y="-8.8603" width="0.1600" height="17.7205" ry="0.0500" fill="currentColor"/>
<path transform="translate(18.8615, 7.3923) scale(0.0040, -0.0040)" d="M220 138c56 0 109 -29 109 -91c0 -72 -56 -121 -103 -149c-36 -21 -76 -36 -117 -36c-56 0 -109 29 -109 91c0 72 56 121 103 149c36 21 76 36 117 36z" fill="currentColor"/>
<path transform="translate(18.8615, 7.3923) scale(0.0040, -0.0040)" d="M220 138c56 0 109 -29 109 -91c0 -72 -56 -121 -103 -149c-36 -21 -76 -36 -117 -36c-56 0 -109 29 -109 91c0 72 56 121 103 149c36 21 76 36 117 36z" fill="currentColor"/>
<text transform="translate(17.8685, 13.3931)" font-family="Lyon Text" font-style="italic" font-size="2.2001" text-anchor="start" fill="currentColor">
<tspan>
(</tspan>
</text>
<path transform="translate(18.7855, 13.3931) scale(0.0040, -0.0040)" d="M233 243c-56 0 -102 -107 -102 -173c0 -22 8 -38 30 -38c64 0 97 126 97 178c0 18 -7 33 -25 33zM112 -146c-38 0 -78 5 -116 5c-39 0 -78 -5 -115 -5c-9 0 -14 7 -14 14c0 18 31 15 48 16c22 1 47 5 54 25l102 300c2 7 4 14 4 20c0 8 -2 14 -11 14
c-33 0 -63 -60 -79 -97c-5 -12 -15 -17 -24 -17c-8 0 -14 4 -14 12c0 2 1 5 2 8c30 68 72 143 132 143c35 0 59 -21 66 -52c29 31 67 52 103 52c69 0 107 -49 107 -114c0 -21 -4 -44 -12 -67c-20 -58 -91 -119 -147 -119c-27 0 -52 5 -73 17c-4 2 -7 3 -11 3
c-7 0 -14 -3 -16 -9l-29 -86c-1 -2 -1 -5 -1 -7c0 -20 21 -26 44 -28c9 -1 13 -8 13 -14c0 -7 -4 -14 -13 -14z" fill="currentColor"/>
<text transform="translate(20.4537, 13.3931)" font-family="Lyon Text" font-style="italic" font-size="2.2001" text-anchor="start" fill="currentColor">
<tspan>
)</tspan>
</text>
<path transform="translate(8.7668, 9.3923) scale(0.0040, -0.0040)" d="M376 262c4 0 9 1 13 1c155 0 256 -128 256 -261c0 -76 -33 -154 -107 -210c-22 -17 -47 -28 -73 -36c3 -35 5 -70 5 -105c0 -19 -1 -39 -2 -58c-7 -120 -90 -228 -208 -228c-108 0 -195 88 -195 197c0 58 53 103 112 103c54 0 95 -47 95 -103c0 -52 -43 -95 -95 -95
c-11 0 -21 2 -31 6c26 -39 68 -65 117 -65c96 0 157 92 163 191c1 18 2 37 2 55c0 31 -1 61 -4 92c-29 -5 -58 -8 -89 -8c-188 0 -333 172 -333 374c0 177 131 306 248 441c-19 62 -37 125 -45 190c-6 52 -7 104 -7 156c0 115 55 224 149 292c3 2 7 3 10 3c4 0 7 0 10 -3
c71 -84 133 -245 133 -358c0 -143 -86 -255 -180 -364c21 -68 39 -138 56 -207zM461 -203c68 24 113 95 113 164c0 90 -66 179 -173 190c24 -116 46 -231 60 -354zM74 28c0 -135 129 -247 264 -247c28 0 55 2 82 6c-14 127 -37 245 -63 364c-79 -8 -124 -61 -124 -119
c0 -44 25 -91 81 -123c5 -5 7 -10 7 -15c0 -11 -10 -22 -22 -22c-3 0 -6 1 -9 2c-80 43 -117 115 -117 185c0 88 58 174 160 197c-14 58 -29 117 -46 175c-107 -121 -213 -243 -213 -403zM408 1045c-99 -48 -162 -149 -162 -259c0 -74 18 -133 36 -194
c80 97 146 198 146 324c0 55 -4 79 -20 129z" fill="currentColor"/>
<path transform="translate(12.3868, 8.3923) scale(0.0040, -0.0040)" d="M27 41l-1 -66v-11c0 -22 1 -44 4 -66c45 38 93 80 93 139c0 33 -14 67 -43 67c-31 0 -52 -30 -53 -63zM-15 -138l-12 595c8 5 18 8 27 8s19 -3 27 -8l-7 -345c25 21 58 34 91 34c52 0 89 -48 89 -102c0 -80 -86 -117 -147 -169c-15 -13 -24 -38 -45 -38
c-13 0 -23 11 -23 25z" fill="currentColor"/>
<path transform="translate(13.3068, 6.8923) scale(0.0040, -0.0040)" d="M27 41l-1 -66v-11c0 -22 1 -44 4 -66c45 38 93 80 93 139c0 33 -14 67 -43 67c-31 0 -52 -30 -53 -63zM-15 -138l-12 595c8 5 18 8 27 8s19 -3 27 -8l-7 -345c25 21 58 34 91 34c52 0 89 -48 89 -102c0 -80 -86 -117 -147 -169c-15 -13 -24 -38 -45 -38
c-13 0 -23 11 -23 25z" fill="currentColor"/>
<path transform="translate(15.2568, 10.4067) scale(0.0040, -0.0040)" d="M204 307c22 14 44 29 60 50c11 15 19 33 27 50c2 4 5 6 9 6c6 0 13 -5 13 -14v-245h72c10 0 15 -7 15 -14s-5 -15 -15 -15h-72v-8c0 -48 27 -94 72 -94c8 0 12 -5 12 -11s-4 -12 -12 -12c-44 0 -87 13 -131 13s-87 -13 -131 -13c-8 0 -12 6 -12 12s4 11 12 11
c45 0 73 46 73 94v8h-167c-23 0 -31 14 -31 23c0 3 1 5 2 6c80 93 138 207 138 330c0 9 6 16 13 16h3c23 -7 47 -13 71 -13s48 6 71 13c2 1 3 1 5 1c11 0 18 -10 12 -17l-284 -330h167v131c0 8 1 17 8 22z" fill="currentColor"/>
<path transform="translate(15.3251, 8.3923) scale(0.0040, -0.0040)" d="M23 11c-1 -7 -6 -11 -11 -11c-6 0 -12 4 -12 11c0 175 235 165 235 344c0 60 -18 122 -70 122c-26 0 -51 -14 -51 -37c0 -27 35 -41 35 -68c0 -38 -30 -69 -68 -69s-69 31 -69 69c0 76 72 128 153 128c96 0 187 -56 187 -145c0 -153 -151 -159 -249 -220c9 2 17 3 26 3
c33 0 70 -11 105 -36c21 -15 46 -23 66 -23c21 0 39 9 44 29c2 6 6 9 11 9c6 0 12 -5 12 -12c0 -67 -90 -105 -138 -105c-36 0 -71 14 -96 44c-13 16 -31 22 -48 22c-30 0 -59 -20 -62 -55z" fill="currentColor"/>
<path transform="translate(18.8615, 22.0128) scale(0.0040, -0.0040)" d="M-23 -116c0 28 11 42 40 42c33 0 78 -13 119 -31l-132 158c-7 9 -10 17 -10 25c0 34 50 66 87 99c25 22 37 52 37 83c0 24 -8 49 -25 69l-35 42c-3 3 -4 7 -4 10c0 9 9 15 17 15c4 0 8 -1 11 -5l151 -180c7 -9 10 -17 10 -25c0 -34 -50 -66 -87 -99
c-25 -22 -37 -52 -37 -83c0 -24 7 -49 24 -69l84 -99c3 -3 4 -7 4 -10c0 -9 -8 -16 -16 -16c-4 0 -9 2 -12 6c-18 21 -63 38 -97 38c-41 0 -53 -26 -53 -67c0 -35 11 -74 28 -94c5 -6 0 -13 -6 -13c-2 0 -4 0 -6 2c-45 54 -92 148 -92 202z" fill="currentColor"/>
<text transform="translate(17.5026, 18.4796)" font-family="Lyon Text" font-style="italic" font-size="2.2001" text-anchor="start" fill="currentColor">
<tspan>
(</tspan>
</text>
<text transform="translate(18.2196, 17.5930)" font-family="Lyon Text" font-style="italic" font-size="1.7461" text-anchor="start" fill="currentColor">
<tspan>
legato</tspan>
</text>
<text transform="translate(18.2196, 19.0930)" font-family="Lyon Text" font-style="italic" font-size="1.7461" text-anchor="start" fill="currentColor">
<tspan>
sempre </tspan>
</text>
<text transform="translate(23.5801, 18.4796)" font-family="Lyon Text" font-style="italic" font-size="2.2001" text-anchor="start" fill="currentColor">
<tspan>
)</tspan>
</text>
<path transform="translate(8.7668, 21.0128) scale(0.0040, -0.0040)" d="M557 -125c0 28 23 51 51 51s51 -23 51 -51s-23 -51 -51 -51s-51 23 -51 51zM557 125c0 28 23 51 51 51s51 -23 51 -51s-23 -51 -51 -51s-51 23 -51 51zM232 263c172 0 293 -88 293 -251c0 -263 -263 -414 -516 -521c-3 -3 -6 -4 -9 -4c-7 0 -13 6 -13 13c0 3 1 6 4 9
c202 118 412 265 412 493c0 120 -63 235 -171 235c-74 0 -129 -54 -154 -126c11 5 22 8 34 8c55 0 100 -45 100 -100c0 -58 -44 -106 -100 -106c-60 0 -112 47 -112 106c0 133 102 244 232 244z" fill="currentColor"/>
<path transform="translate(12.3868, 23.0128) scale(0.0040, -0.0040)" d="M27 41l-1 -66v-11c0 -22 1 -44 4 -66c45 38 93 80 93 139c0 33 -14 67 -43 67c-31 0 -52 -30 -53 -63zM-15 -138l-12 595c8 5 18 8 27 8s19 -3 27 -8l-7 -345c25 21 58 34 91 34c52 0 89 -48 89 -102c0 -80 -86 -117 -147 -169c-15 -13 -24 -38 -45 -38
c-13 0 -23 11 -23 25z" fill="currentColor"/>
<path transform="translate(13.3068, 21.5128) scale(0.0040, -0.0040)" d="M27 41l-1 -66v-11c0 -22 1 -44 4 -66c45 38 93 80 93 139c0 33 -14 67 -43 67c-31 0 -52 -30 -53 -63zM-15 -138l-12 595c8 5 18 8 27 8s19 -3 27 -8l-7 -345c25 21 58 34 91 34c52 0 89 -48 89 -102c0 -80 -86 -117 -147 -169c-15 -13 -24 -38 -45 -38
c-13 0 -23 11 -23 25z" fill="currentColor"/>
<path transform="translate(15.2568, 24.0272) scale(0.0040, -0.0040)" d="M204 307c22 14 44 29 60 50c11 15 19 33 27 50c2 4 5 6 9 6c6 0 13 -5 13 -14v-245h72c10 0 15 -7 15 -14s-5 -15 -15 -15h-72v-8c0 -48 27 -94 72 -94c8 0 12 -5 12 -11s-4 -12 -12 -12c-44 0 -87 13 -131 13s-87 -13 -131 -13c-8 0 -12 6 -12 12s4 11 12 11
c45 0 73 46 73 94v8h-167c-23 0 -31 14 -31 23c0 3 1 5 2 6c80 93 138 207 138 330c0 9 6 16 13 16h3c23 -7 47 -13 71 -13s48 6 71 13c2 1 3 1 5 1c11 0 18 -10 12 -17l-284 -330h167v131c0 8 1 17 8 22z" fill="currentColor"/>
<path transform="translate(15.3251, 22.0128) scale(0.0040, -0.0040)" d="M23 11c-1 -7 -6 -11 -11 -11c-6 0 -12 4 -12 11c0 175 235 165 235 344c0 60 -18 122 -70 122c-26 0 -51 -14 -51 -37c0 -27 35 -41 35 -68c0 -38 -30 -69 -68 -69s-69 31 -69 69c0 76 72 128 153 128c96 0 187 -56 187 -145c0 -153 -151 -159 -249 -220c9 2 17 3 26 3
c33 0 70 -11 105 -36c21 -15 46 -23 66 -23c21 0 39 9 44 29c2 6 6 9 11 9c6 0 12 -5 12 -12c0 -67 -90 -105 -138 -105c-36 0 -71 14 -96 44c-13 16 -31 22 -48 22c-30 0 -59 -20 -62 -55z" fill="currentColor"/>
<text transform="translate(15.2568, 1.6730)" font-family="Lyon Text" font-size="2.2001" text-anchor="start" fill="currentColor">
<tspan>
Andante</tspan>
</text>
<rect transform="translate(20.1127, 8.3923)" x="-0.0650" y="-4.8100" width="0.1300" height="3.6222" ry="0.0400" fill="currentColor"/>
<path transform="translate(93.5916, 10.3923) scale(0.0040, -0.0040)" d="M220 138c56 0 109 -29 109 -91c0 -72 -56 -121 -103 -149c-36 -21 -76 -36 -117 -36c-56 0 -109 29 -109 91c0 72 56 121 103 149c36 21 76 36 117 36z" fill="currentColor"/>
<path transform="translate(93.5916, 20.0128) scale(0.0040, -0.0040)" d="M220 138c56 0 109 -29 109 -91c0 -72 -56 -121 -103 -149c-36 -21 -76 -36 -117 -36c-56 0 -109 29 -109 91c0 72 56 121 103 149c36 21 76 36 117 36z" fill="currentColor"/>
<path transform="translate(93.5916, 21.0128) scale(0.0040, -0.0040)" d="M220 138c56 0 109 -29 109 -91c0 -72 -56 -121 -103 -149c-36 -21 -76 -36 -117 -36c-56 0 -109 29 -109 91c0 72 56 121 103 149c36 21 76 36 117 36z" fill="currentColor"/>
<rect transform="translate(94.8428, 8.3923)" x="-0.0650" y="-1.8100" width="0.1300" height="3.6222" ry="0.0400" fill="currentColor"/>
<rect transform="translate(94.8428, 22.0128)" x="-0.0650" y="-4.8234" width="0.1300" height="2.6356" ry="0.0400" fill="currentColor"/>
<rect transform="translate(93.6566, 22.0128)" x="-0.0650" y="-0.8122" width="0.1300" height="2.6101" ry="0.0400" fill="currentColor"/>
<path transform="translate(98.1107, 10.8923) scale(0.0040, -0.0040)" d="M220 138c56 0 109 -29 109 -91c0 -72 -56 -121 -103 -149c-36 -21 -76 -36 -117 -36c-56 0 -109 29 -109 91c0 72 56 121 103 149c36 21 76 36 117 36z" fill="currentColor"/>
<path transform="translate(98.1107, 10.8923) scale(0.0040, -0.0040)" d="M220 138c56 0 109 -29 109 -91c0 -72 -56 -121 -103 -149c-36 -21 -76 -36 -117 -36c-56 0 -109 29 -109 91c0 72 56 121 103 149c36 21 76 36 117 36z" fill="currentColor"/>
<path transform="translate(98.1107, 18.5128) scale(0.0040, -0.0040)" d="M220 138c56 0 109 -29 109 -91c0 -72 -56 -121 -103 -149c-36 -21 -76 -36 -117 -36c-56 0 -109 29 -109 91c0 72 56 121 103 149c36 21 76 36 117 36z" fill="currentColor"/>
<path transform="translate(98.1107, 19.5128) scale(0.0040, -0.0040)" d="M220 138c56 0 109 -29 109 -91c0 -72 -56 -121 -103 -149c-36 -21 -76 -36 -117 -36c-56 0 -109 29 -109 91c0 72 56 121 103 149c36 21 76 36 117 36z" fill="currentColor"/>
<rect transform="translate(99.3619, 8.3923)" x="-0.0650" y="-2.8100" width="0.1300" height="5.1222" ry="0.0400" fill="currentColor"/>
<path transform="translate(87.0021, 9.3923) scale(0.0040, -0.0040)" d="M220 138c56 0 109 -29 109 -91c0 -72 -56 -121 -103 -149c-36 -21 -76 -36 -117 -36c-56 0 -109 29 -109 91c0 72 56 121 103 149c36 21 76 36 117 36z" fill="currentColor"/>
<rect transform="translate(88.2533, 8.3923)" x="-0.0650" y="-1.8100" width="0.1300" height="2.6222" ry="0.0400" fill="currentColor"/>
<path transform="translate(90.3802, 9.8923) scale(0.0040, -0.0040)" d="M220 138c56 0 109 -29 109 -91c0 -72 -56 -121 -103 -149c-36 -21 -76 -36 -117 -36c-56 0 -109 29 -109 91c0 72 56 121 103 149c36 21 76 36 117 36z" fill="currentColor"/>
<path transform="translate(90.3802, 19.0128) scale(0.0040, -0.0040)" d="M220 138c56 0 109 -29 109 -91c0 -72 -56 -121 -103 -149c-36 -21 -76 -36 -117 -36c-56 0 -109 29 -109 91c0 72 56 121 103 149c36 21 76 36 117 36z" fill="currentColor"/>
<path transform="translate(90.3802, 20.0128) scale(0.0040, -0.0040)" d="M220 138c56 0 109 -29 109 -91c0 -72 -56 -121 -103 -149c-36 -21 -76 -36 -117 -36c-56 0 -109 29 -109 91c0 72 56 121 103 149c36 21 76 36 117 36z" fill="currentColor"/>
<rect transform="translate(91.6314, 8.3923)" x="-0.0650" y="-1.8100" width="0.1300" height="3.1222" ry="0.0400" fill="currentColor"/>
<rect transform="translate(91.6314, 22.0128)" x="-0.0650" y="-5.4866" width="0.1300" height="2.2988" ry="0.0400" fill="currentColor"/>
<rect transform="translate(90.4452, 22.0128)" x="-0.0650" y="-1.8122" width="0.1300" height="3.0142" ry="0.0400" fill="currentColor"/>
<path transform="translate(136.9133, 8.3923) scale(0.0040, -0.0040)" d="M220 138c56 0 109 -29 109 -91c0 -72 -56 -121 -103 -149c-36 -21 -76 -36 -117 -36c-56 0 -109 29 -109 91c0 72 56 121 103 149c36 21 76 36 117 36z" fill="currentColor"/>
<rect transform="translate(138.1644, 8.3923)" x="-0.0650" y="-2.9361" width="0.1300" height="2.7483" ry="0.0400" fill="currentColor"/>
<path transform="translate(139.2758, 8.8923) scale(0.0040, -0.0040)" d="M220 138c56 0 109 -29 109 -91c0 -72 -56 -121 -103 -149c-36 -21 -76 -36 -117 -36c-56 0 -109 29 -109 91c0 72 56 121 103 149c36 21 76 36 117 36z" fill="currentColor"/>
<rect transform="translate(140.5269, 8.3923)" x="-0.0650" y="-2.9983" width="0.1300" height="3.3105" ry="0.0400" fill="currentColor"/>
<path transform="translate(141.6383, 9.3923) scale(0.0040, -0.0040)" d="M220 138c56 0 109 -29 109 -91c0 -72 -56 -121 -103 -149c-36 -21 -76 -36 -117 -36c-56 0 -109 29 -109 91c0 72 56 121 103 149c36 21 76 36 117 36z" fill="currentColor"/>
<path transform="translate(141.6383, 20.5128) scale(0.0040, -0.0040)" d="M220 138c56 0 109 -29 109 -91c0 -72 -56 -121 -103 -149c-36 -21 -76 -36 -117 -36c-56 0 -109 29 -109 91c0 72 56 121 103 149c36 21 76 36 117 36z" fill="currentColor"/>
<rect transform="translate(142.8895, 8.3923)" x="-0.0650" y="-2.5000" width="0.1300" height="3.3122" ry="0.0400" fill="currentColor"/>
<path transform="translate(142.9545, 5.9323) scale(0.0040, -0.0040)" d="M0 0c0 -198 209 -335 209 -533c0 -71 -16 -141 -42 -207c-5 -8 -12 -12 -19 -12c-13 0 -26 11 -23 27c26 61 42 126 42 192c0 104 -95 208 -167 283h-16v250h16z" fill="currentColor"/>
<rect transform="translate(141.7033, 22.0128)" x="-0.0650" y="-1.3122" width="0.1300" height="3.3122" ry="0.0400" fill="currentColor"/>
<path transform="translate(133.9544, 20.5128) scale(0.0040, -0.0040)" d="M0 0c0 31 25 56 56 56s56 -25 56 -56s-25 -56 -56 -56s-56 25 -56 56z" fill="currentColor"/>
<rect transform="translate(133.4394, 22.0128)" x="-0.0650" y="-4.3333" width="0.1300" height="2.6455" ry="0.0400" fill="currentColor"/>
<rect transform="translate(132.2532, 22.0128)" x="-0.0650" y="2.1878" width="0.1300" height="2.4789" ry="0.0400" fill="currentColor"/>
<path transform="translate(134.5508, 8.8923) scale(0.0040, -0.0040)" d="M220 138c56 0 109 -29 109 -91c0 -72 -56 -121 -103 -149c-36 -21 -76 -36 -117 -36c-56 0 -109 29 -109 91c0 72 56 121 103 149c36 21 76 36 117 36z" fill="currentColor"/>
<rect transform="translate(135.8019, 8.3923)" x="-0.0650" y="-2.8739" width="0.1300" height="3.1861" ry="0.0400" fill="currentColor"/>
<path transform="translate(22.2396, 5.8923) scale(0.0040, -0.0040)" d="M220 138c56 0 109 -29 109 -91c0 -72 -56 -121 -103 -149c-36 -21 -76 -36 -117 -36c-56 0 -109 29 -109 91c0 72 56 121 103 149c36 21 76 36 117 36z" fill="currentColor"/>
<path transform="translate(22.2396, 8.3923) scale(0.0040, -0.0040)" d="M220 138c56 0 109 -29 109 -91c0 -72 -56 -121 -103 -149c-36 -21 -76 -36 -117 -36c-56 0 -109 29 -109 91c0 72 56 121 103 149c36 21 76 36 117 36z" fill="currentColor"/>
<rect transform="translate(23.4908, 8.3923)" x="-0.0650" y="-4.8100" width="0.1300" height="2.1222" ry="0.0400" fill="currentColor"/>
<rect transform="translate(22.3046, 8.3923)" x="-0.0650" y="0.1878" width="0.1300" height="2.8122" ry="0.0400" fill="currentColor"/>
<path transform="translate(25.6177, 6.3923) scale(0.0040, -0.0040)" d="M220 138c56 0 109 -29 109 -91c0 -72 -56 -121 -103 -149c-36 -21 -76 -36 -117 -36c-56 0 -109 29 -109 91c0 72 56 121 103 149c36 21 76 36 117 36z" fill="currentColor"/>
<path transform="translate(25.6177, 8.8923) scale(0.0040, -0.0040)" d="M220 138c56 0 109 -29 109 -91c0 -72 -56 -121 -103 -149c-36 -21 -76 -36 -117 -36c-56 0 -109 29 -109 91c0 72 56 121 103 149c36 21 76 36 117 36z" fill="currentColor"/>
<path transform="translate(25.6177, 17.5128) scale(0.0040, -0.0040)" d="M220 138c56 0 109 -29 109 -91c0 -72 -56 -121 -103 -149c-36 -21 -76 -36 -117 -36c-56 0 -109 29 -109 91c0 72 56 121 103 149c36 21 76 36 117 36z" fill="currentColor"/>
<rect transform="translate(26.8689, 8.3923)" x="-0.0650" y="-4.8100" width="0.1300" height="2.6222" ry="0.0400" fill="currentColor"/>
<rect transform="translate(25.6827, 8.3923)" x="-0.0650" y="0.6878" width="0.1300" height="2.3122" ry="0.0400" fill="currentColor"/>
<path transform="translate(141.7683, 23.9728) scale(0.0040, -0.0040)" d="M0 0h-16v250h16c98 58 227 148 227 259c0 57 -16 112 -41 163c-3 16 10 27 23 27c7 0 15 -3 20 -11c25 -56 40 -117 40 -179c0 -204 -269 -305 -269 -509z" fill="currentColor"/>
<path transform="translate(144.1318, 8.3923) scale(0.0040, -0.0040)" d="M72 -250l117 326c-34 -12 -69 -22 -105 -22c-46 0 -87 33 -87 79c0 40 33 72 73 72c25 0 48 -15 56 -39c10 -28 6 -59 35 -59c16 0 54 48 61 63c6 12 23 12 28 0l-123 -420c-8 -7 -17 -10 -27 -10s-20 3 -28 10z" fill="currentColor"/>
<path transform="translate(144.1318, 22.0128) scale(0.0040, -0.0040)" d="M72 -250l117 326c-34 -12 -69 -22 -105 -22c-46 0 -87 33 -87 79c0 40 33 72 73 72c25 0 48 -15 56 -39c10 -28 6 -59 35 -59c16 0 54 48 61 63c6 12 23 12 28 0l-123 -420c-8 -7 -17 -10 -27 -10s-20 3 -28 10z" fill="currentColor"/>
<rect transform="translate(120.2018, 22.0128)" x="-0.0650" y="3.6878" width="0.1300" height="2.3122" ry="0.0400" fill="currentColor"/>
<path transform="translate(123.4030, 9.8923) scale(0.0040, -0.0040)" d="M220 138c56 0 109 -29 109 -91c0 -72 -56 -121 -103 -149c-36 -21 -76 -36 -117 -36c-56 0 -109 29 -109 91c0 72 56 121 103 149c36 21 76 36 117 36z" fill="currentColor"/>
<rect transform="translate(124.6542, 8.3923)" x="-0.0650" y="-1.9265" width="0.1300" height="3.2387" ry="0.0400" fill="currentColor"/>
<path transform="translate(121.9530, 9.8923) scale(0.0040, -0.0040)" d="M216 -312c0 -10 -8 -19 -18 -19s-19 9 -19 19v145l-83 -31v-158c0 -10 -9 -19 -19 -19s-18 9 -18 19v145l-32 -12c-2 -1 -5 -1 -7 -1c-11 0 -20 9 -20 20v60c0 8 5 16 13 19l46 16v160l-32 -11c-2 -1 -5 -1 -7 -1c-11 0 -20 9 -20 20v60c0 8 5 15 13 18l46 17v158
c0 10 8 19 18 19s19 -9 19 -19v-145l83 31v158c0 10 9 19 19 19s18 -9 18 -19v-145l32 12c2 1 5 1 7 1c11 0 20 -9 20 -20v-60c0 -8 -5 -16 -13 -19l-46 -16v-160l32 11c2 1 5 1 7 1c11 0 20 -9 20 -20v-60c0 -8 -5 -15 -13 -18l-46 -17v-158zM96 65v-160l83 30v160z" fill="currentColor"/>
<path transform="translate(126.2596, 10.3923) scale(0.0040, -0.0040)" d="M220 138c56 0 109 -29 109 -91c0 -72 -56 -121 -103 -149c-36 -21 -76 -36 -117 -36c-56 0 -109 29 -109 91c0 72 56 121 103 149c36 21 76 36 117 36z" fill="currentColor"/>
<rect transform="translate(127.5108, 8.3923)" x="-0.0650" y="-1.8635" width="0.1300" height="3.6757" ry="0.0400" fill="currentColor"/>
<path transform="translate(125.2192, 10.3923) scale(0.0040, -0.0040)" d="M-8 375c8 4 17 7 26 7s17 -3 25 -7l-3 -183l106 20h3c10 0 18 -7 18 -17l7 -570c-8 -4 -16 -7 -25 -7s-17 3 -25 7l3 183l-106 -20h-3c-10 0 -18 7 -18 17zM131 112l-92 -17l-3 -207l92 17z" fill="currentColor"/>
<path transform="translate(116.7587, 9.3923) scale(0.0040, -0.0040)" d="M220 138c56 0 109 -29 109 -91c0 -72 -56 -121 -103 -149c-36 -21 -76 -36 -117 -36c-56 0 -109 29 -109 91c0 72 56 121 103 149c36 21 76 36 117 36z" fill="currentColor"/>
<rect transform="translate(118.0099, 8.3923)" x="-0.0650" y="-1.9860" width="0.1300" height="2.7982" ry="0.0400" fill="currentColor"/>
<path transform="translate(120.1368, 9.3923) scale(0.0040, -0.0040)" d="M220 138c56 0 109 -29 109 -91c0 -72 -56 -121 -103 -149c-36 -21 -76 -36 -117 -36c-56 0 -109 29 -109 91c0 72 56 121 103 149c36 21 76 36 117 36z" fill="currentColor"/>
<path transform="translate(120.1368, 11.3923) scale(0.0040, -0.0040)" d="M220 138c56 0 109 -29 109 -91c0 -72 -56 -121 -103 -149c-36 -21 -76 -36 -117 -36c-56 0 -109 29 -109 91c0 72 56 121 103 149c36 21 76 36 117 36z" fill="currentColor"/>
<path transform="translate(120.1368, 20.0128) scale(0.0040, -0.0040)" d="M220 138c56 0 109 -29 109 -91c0 -72 -56 -121 -103 -149c-36 -21 -76 -36 -117 -36c-56 0 -109 29 -109 91c0 72 56 121 103 149c36 21 76 36 117 36z" fill="currentColor"/>
<path transform="translate(120.1368, 25.5128) scale(0.0040, -0.0040)" d="M220 138c56 0 109 -29 109 -91c0 -72 -56 -121 -103 -149c-36 -21 -76 -36 -117 -36c-56 0 -109 29 -109 91c0 72 56 121 103 149c36 21 76 36 117 36z" fill="currentColor"/>
<rect transform="translate(121.3880, 8.3923)" x="-0.0650" y="-1.9986" width="0.1300" height="2.8108" ry="0.0400" fill="currentColor"/>
<rect transform="translate(120.2018, 8.3923)" x="-0.0650" y="3.1878" width="0.1300" height="2.3122" ry="0.0400" fill="currentColor"/>
<rect transform="translate(121.3880, 22.0128)" x="-0.0650" y="-4.6667" width="0.1300" height="2.4789" ry="0.0400" fill="currentColor"/>
<path transform="translate(132.1882, 24.0128) scale(0.0040, -0.0040)" d="M220 138c56 0 109 -29 109 -91c0 -72 -56 -121 -103 -149c-36 -21 -76 -36 -117 -36c-56 0 -109 29 -109 91c0 72 56 121 103 149c36 21 76 36 117 36z" fill="currentColor"/>
<rect transform="translate(133.4394, 8.3923)" x="-0.0650" y="-2.8117" width="0.1300" height="3.6239" ry="0.0400" fill="currentColor"/>
<path transform="translate(132.1882, 20.5128) scale(0.0040, -0.0040)" d="M220 138c56 0 109 -29 109 -91c0 -72 -56 -121 -103 -149c-36 -21 -76 -36 -117 -36c-56 0 -109 29 -109 91c0 72 56 121 103 149c36 21 76 36 117 36z" fill="currentColor"/>
<path transform="translate(132.1882, 11.8923) scale(0.0040, -0.0040)" d="M220 138c56 0 109 -29 109 -91c0 -72 -56 -121 -103 -149c-36 -21 -76 -36 -117 -36c-56 0 -109 29 -109 91c0 72 56 121 103 149c36 21 76 36 117 36z" fill="currentColor"/>
<path transform="translate(132.1882, 9.3923) scale(0.0040, -0.0040)" d="M220 138c56 0 109 -29 109 -91c0 -72 -56 -121 -103 -149c-36 -21 -76 -36 -117 -36c-56 0 -109 29 -109 91c0 72 56 121 103 149c36 21 76 36 117 36z" fill="currentColor"/>
<path transform="translate(133.9544, 11.8923) scale(0.0040, -0.0040)" d="M0 0c0 31 25 56 56 56s56 -25 56 -56s-25 -56 -56 -56s-56 25 -56 56z" fill="currentColor"/>
<rect transform="translate(132.2532, 8.3923)" x="-0.0650" y="3.6878" width="0.1300" height="2.3122" ry="0.0400" fill="currentColor"/>
<path transform="translate(128.6221, 9.8923) scale(0.0040, -0.0040)" d="M220 138c56 0 109 -29 109 -91c0 -72 -56 -121 -103 -149c-36 -21 -76 -36 -117 -36c-56 0 -109 29 -109 91c0 72 56 121 103 149c36 21 76 36 117 36z" fill="currentColor"/>
<rect transform="translate(129.8733, 8.3923)" x="-0.0650" y="-1.8114" width="0.1300" height="3.1236" ry="0.0400" fill="currentColor"/>
</svg>
