<svg xmlns="http://www.w3.org/2000/svg" xmlns:xlink="http://www.w3.org/1999/xlink" version="1.2" width="249.73mm" height="55.49mm" viewBox="6.6390 -0.0000 142.1120 31.5757">
<defs><link href="../../assets/fonts.css" type="text/css" rel="stylesheet" xmlns="http://www.w3.org/1999/xhtml" /></defs>
<rect transform="translate(148.5610, 8.6259)" x="0.0000" y="-2.0000" width="0.1900" height="4.0500" ry="0.0000" fill="currentColor"/>
<rect transform="translate(61.7822, 22.5987)" x="0.0000" y="-2.0500" width="0.1900" height="4.0500" ry="0.0000" fill="currentColor"/>
<rect transform="translate(148.5610, 22.5987)" x="0.0000" y="-2.0500" width="0.1900" height="4.0500" ry="0.0000" fill="currentColor"/>
<rect transform="translate(61.7822, -0.0000)" x="0.0000" y="10.6759" width="0.1900" height="9.9228" ry="0.0000" fill="currentColor"/>
<rect transform="translate(104.6624, -0.0000)" x="0.0000" y="10.6759" width="0.1900" height="9.9228" ry="0.0000" fill="currentColor"/>
<rect transform="translate(104.6624, 22.5987)" x="0.0000" y="-2.0500" width="0.1900" height="4.0500" ry="0.0000" fill="currentColor"/>
<rect transform="translate(148.5610, -0.0000)" x="0.0000" y="10.6759" width="0.1900" height="9.9228" ry="0.0000" fill="currentColor"/>
<rect transform="translate(61.7822, 8.6259)" x="0.0000" y="-2.0000" width="0.1900" height="4.0500" ry="0.0000" fill="currentColor"/>
<rect transform="translate(104.6624, 8.6259)" x="0.0000" y="-2.0000" width="0.1900" height="4.0500" ry="0.0000" fill="currentColor"/>
<rect transform="translate(0.0000, 5.6259)" x="27.5960" y="-0.1000" width="1.9743" height="0.2000" ry="0.1000" fill="currentColor"/>
<rect transform="translate(0.0000, 11.6259)" x="105.3584" y="-0.1000" width="1.9743" height="0.2000" ry="0.1000" fill="currentColor"/>
<rect transform="translate(0.0000, 11.6259)" x="105.3584" y="-0.1000" width="1.9743" height="0.2000" ry="0.1000" fill="currentColor"/>
<line transform="translate(7.9668, 10.6259)" stroke-linejoin="round" stroke-linecap="round" stroke-width="0.1000" stroke="currentColor" x1="0.0500" y1="-0.0000" x2="140.7342" y2="-0.0000"/>
<line transform="translate(7.9668, 9.6259)" stroke-linejoin="round" stroke-linecap="round" stroke-width="0.1000" stroke="currentColor" x1="0.0500" y1="-0.0000" x2="140.7342" y2="-0.0000"/>
<line transform="translate(7.9668, 8.6259)" stroke-linejoin="round" stroke-linecap="round" stroke-width="0.1000" stroke="currentColor" x1="0.0500" y1="-0.0000" x2="140.7342" y2="-0.0000"/>
<line transform="translate(7.9668, 7.6259)" stroke-linejoin="round" stroke-linecap="round" stroke-width="0.1000" stroke="currentColor" x1="0.0500" y1="-0.0000" x2="140.7342" y2="-0.0000"/>
<line transform="translate(7.9668, 6.6259)" stroke-linejoin="round" stroke-linecap="round" stroke-width="0.1000" stroke="currentColor" x1="0.0500" y1="-0.0000" x2="140.7342" y2="-0.0000"/>
<rect transform="translate(0.0000, 19.5987)" x="21.3878" y="-0.1000" width="1.9743" height="0.2000" ry="0.1000" fill="currentColor"/>
<rect transform="translate(0.0000, 18.5987)" x="21.3878" y="-0.1000" width="1.9743" height="0.2000" ry="0.1000" fill="currentColor"/>
<rect transform="translate(0.0000, 25.5987)" x="42.1061" y="-0.1000" width="1.9743" height="0.2000" ry="0.1000" fill="currentColor"/>
<rect transform="translate(0.0000, 25.5987)" x="42.1061" y="-0.1000" width="1.9743" height="0.2000" ry="0.1000" fill="currentColor"/>
<rect transform="translate(0.0000, 19.5987)" x="51.1174" y="-0.1000" width="1.8202" height="0.2000" ry="0.1000" fill="currentColor"/>
<rect transform="translate(0.0000, 19.5987)" x="122.1906" y="-0.1000" width="1.8202" height="0.2000" ry="0.1000" fill="currentColor"/>
<rect transform="translate(0.0000, 19.5987)" x="127.4730" y="-0.1000" width="1.8349" height="0.2000" ry="0.1000" fill="currentColor"/>
<rect transform="translate(0.0000, 19.5987)" x="132.7588" y="-0.1000" width="1.8202" height="0.2000" ry="0.1000" fill="currentColor"/>
<rect transform="translate(0.0000, 19.5987)" x="137.8413" y="-0.1000" width="1.8349" height="0.2000" ry="0.1000" fill="currentColor"/>
<rect transform="translate(0.0000, 19.5987)" x="143.5656" y="-0.1000" width="1.8349" height="0.2000" ry="0.1000" fill="currentColor"/>
<rect transform="translate(0.0000, 19.5987)" x="145.8031" y="-0.1000" width="1.9743" height="0.2000" ry="0.1000" fill="currentColor"/>
<line transform="translate(7.9668, 24.5987)" stroke-linejoin="round" stroke-linecap="round" stroke-width="0.1000" stroke="currentColor" x1="0.0500" y1="-0.0000" x2="140.7342" y2="-0.0000"/>
<line transform="translate(7.9668, 23.5987)" stroke-linejoin="round" stroke-linecap="round" stroke-width="0.1000" stroke="currentColor" x1="0.0500" y1="-0.0000" x2="140.7342" y2="-0.0000"/>
<line transform="translate(7.9668, 22.5987)" stroke-linejoin="round" stroke-linecap="round" stroke-width="0.1000" stroke="currentColor" x1="0.0500" y1="-0.0000" x2="140.7342" y2="-0.0000"/>
<line transform="translate(7.9668, 21.5987)" stroke-linejoin="round" stroke-linecap="round" stroke-width="0.1000" stroke="currentColor" x1="0.0500" y1="-0.0000" x2="140.7342" y2="-0.0000"/>
<line transform="translate(7.9668, 20.5987)" stroke-linejoin="round" stroke-linecap="round" stroke-width="0.1000" stroke="currentColor" x1="0.0500" y1="-0.0000" x2="140.7342" y2="-0.0000"/>
<rect transform="translate(73.5708, 8.6259)" x="-0.0650" y="1.6878" width="0.1300" height="2.5281" ry="0.0400" fill="currentColor"/>
<rect transform="translate(77.4419, 8.6259)" x="-0.0650" y="-2.0000" width="0.1300" height="2.3122" ry="0.0400" fill="currentColor"/>
<path transform="translate(77.6468, 31.0757) scale(0.0040, -0.0040)" d="M0 35c0 19 16 35 35 35s35 -16 35 -35s-16 -35 -35 -35s-35 16 -35 35z" fill="currentColor"/>
<path transform="translate(74.4548, 31.0757) scale(0.0040, -0.0040)" d="M43 339c0 -19 13 -48 39 -48c22 0 43 28 43 59c0 8 18 8 18 0c0 -63 -41 -125 -83 -125c-41 0 -61 44 -61 78c0 82 90 197 251 197c108 0 166 -82 166 -144c0 -30 -17 -67 -52 -67s-68 49 -87 90c-3 7 13 14 16 7c8 -18 28 -32 46 -32c21 0 32 18 32 36
c0 39 -44 92 -121 92h-7c-10 -20 -39 -91 -39 -108c0 -46 100 -114 100 -164c0 -24 -28 -52 -58 -90c29 -3 83 -28 102 -44c13 -11 48 24 57 31c-4 19 -6 29 -6 48c0 60 32 132 96 132c25 0 49 -17 49 -45c0 -37 -43 -80 -79 -110l-11 -9c13 -24 33 -57 47 -69
c4 -4 13 -3 18 0c9 5 47 33 63 47c-4 14 -6 28 -6 42c0 55 45 112 97 137c-51 71 -129 126 -208 140c-8 1 -5 19 3 18c142 -25 305 -134 329 -272c1 -8 3 -16 3 -24c0 -70 -50 -142 -113 -142c-43 0 -81 37 -99 82c-24 -22 -73 -64 -85 -72c-8 -6 -19 -9 -30 -9
c-39 0 -51 46 -62 85c-27 -20 -90 -73 -106 -82c-6 -3 -12 -4 -17 0c-19 16 -28 89 -57 98c-25 -30 -47 -57 -56 -66c-12 -12 -47 -36 -64 -36c-7 0 -14 5 -14 12c0 13 21 38 30 47c18 19 67 57 95 61c18 21 30 29 30 49c0 47 -88 111 -88 150c0 24 43 134 60 162
c-113 -10 -181 -88 -181 -142zM475 254c-30 0 -43 -27 -43 -55c0 -20 6 -42 14 -60c26 22 63 54 63 83c0 19 -16 32 -34 32zM683 265c-37 -21 -55 -77 -55 -122c0 -48 18 -108 59 -108c32 0 45 39 45 81c0 61 -20 105 -49 149z" fill="currentColor"/>
<path transform="translate(76.1908, 9.1259) scale(0.0040, -0.0040)" d="M220 138c56 0 109 -29 109 -91c0 -72 -56 -121 -103 -149c-36 -21 -76 -36 -117 -36c-56 0 -109 29 -109 91c0 72 56 121 103 149c36 21 76 36 117 36z" fill="currentColor"/>
<path transform="translate(76.1908, 25.0987) scale(0.0040, -0.0040)" d="M220 138c56 0 109 -29 109 -91c0 -72 -56 -121 -103 -149c-36 -21 -76 -36 -117 -36c-56 0 -109 29 -109 91c0 72 56 121 103 149c36 21 76 36 117 36z" fill="currentColor"/>
<rect transform="translate(68.7973, 8.6259)" x="-0.0650" y="-0.3122" width="0.1300" height="3.9810" ry="0.0400" fill="currentColor"/>
<path transform="translate(67.5823, 8.1259) scale(0.0040, -0.0040)" d="M27 41l-1 -66v-11c0 -22 1 -44 4 -66c45 38 93 80 93 139c0 33 -14 67 -43 67c-31 0 -52 -30 -53 -63zM-15 -138l-12 595c8 5 18 8 27 8s19 -3 27 -8l-7 -345c25 21 58 34 91 34c52 0 89 -48 89 -102c0 -80 -86 -117 -147 -169c-15 -13 -24 -38 -45 -38
c-13 0 -23 11 -23 25z" fill="currentColor"/>
<path transform="translate(67.5823, 8.1259) scale(0.0040, -0.0040)" d="M27 41l-1 -66v-11c0 -22 1 -44 4 -66c45 38 93 80 93 139c0 33 -14 67 -43 67c-31 0 -52 -30 -53 -63zM-15 -138l-12 595c8 5 18 8 27 8s19 -3 27 -8l-7 -345c25 21 58 34 91 34c52 0 89 -48 89 -102c0 -80 -86 -117 -147 -169c-15 -13 -24 -38 -45 -38
c-13 0 -23 11 -23 25z" fill="currentColor"/>
<path transform="translate(71.4172, 7.1259) scale(0.0040, -0.0040)" d="M220 138c56 0 109 -29 109 -91c0 -72 -56 -121 -103 -149c-36 -21 -76 -36 -117 -36c-56 0 -109 29 -109 91c0 72 56 121 103 149c36 21 76 36 117 36z" fill="currentColor"/>
<rect transform="translate(72.6684, 8.6259)" x="-0.0650" y="-4.5000" width="0.1300" height="2.8122" ry="0.0400" fill="currentColor"/>
<path transform="translate(73.5058, 10.1259) scale(0.0040, -0.0040)" d="M220 138c56 0 109 -29 109 -91c0 -72 -56 -121 -103 -149c-36 -21 -76 -36 -117 -36c-56 0 -109 29 -109 91c0 72 56 121 103 149c36 21 76 36 117 36z" fill="currentColor"/>
<path transform="translate(73.5058, 10.1259) scale(0.0040, -0.0040)" d="M220 138c56 0 109 -29 109 -91c0 -72 -56 -121 -103 -149c-36 -21 -76 -36 -117 -36c-56 0 -109 29 -109 91c0 72 56 121 103 149c36 21 76 36 117 36z" fill="currentColor"/>
<path transform="translate(73.5058, 22.5987) scale(0.0040, -0.0040)" d="M66 -500l101 327c-34 -12 -70 -23 -106 -23c-46 0 -87 33 -87 79c0 40 32 72 72 72c25 0 49 -15 57 -39c10 -28 5 -59 34 -59c16 0 55 51 60 68l46 151c-34 -12 -68 -22 -104 -22c-46 0 -87 33 -87 79c0 40 33 72 73 72c25 0 48 -15 56 -39c10 -28 5 -59 34 -59
c15 0 50 49 57 63c6 12 23 12 28 0l-179 -670c-8 -7 -17 -10 -27 -10s-20 3 -28 10z" fill="currentColor"/>
<rect transform="translate(74.7570, 8.6259)" x="-0.0650" y="-2.0000" width="0.1300" height="3.3122" ry="0.0400" fill="currentColor"/>
<rect transform="translate(79.8761, 22.5987)" x="-0.0650" y="-2.8618" width="0.1300" height="2.6739" ry="0.0400" fill="currentColor"/>
<path transform="translate(81.3098, 9.6259) scale(0.0040, -0.0040)" d="M220 138c56 0 109 -29 109 -91c0 -72 -56 -121 -103 -149c-36 -21 -76 -36 -117 -36c-56 0 -109 29 -109 91c0 72 56 121 103 149c36 21 76 36 117 36z" fill="currentColor"/>
<path transform="translate(81.3098, 21.5987) scale(0.0040, -0.0040)" d="M220 138c56 0 109 -29 109 -91c0 -72 -56 -121 -103 -149c-36 -21 -76 -36 -117 -36c-56 0 -109 29 -109 91c0 72 56 121 103 149c36 21 76 36 117 36z" fill="currentColor"/>
<rect transform="translate(82.5610, 8.6259)" x="-0.0650" y="-2.0000" width="0.1300" height="2.8122" ry="0.0400" fill="currentColor"/>
<rect transform="translate(82.5610, 22.5987)" x="-0.0650" y="-3.7876" width="0.1300" height="2.5998" ry="0.0400" fill="currentColor"/>
<path transform="translate(83.6993, 11.1259) scale(0.0040, -0.0040)" d="M220 138c56 0 109 -29 109 -91c0 -72 -56 -121 -103 -149c-36 -21 -76 -36 -117 -36c-56 0 -109 29 -109 91c0 72 56 121 103 149c36 21 76 36 117 36z" fill="currentColor"/>
<path transform="translate(83.6993, 11.1259) scale(0.0040, -0.0040)" d="M220 138c56 0 109 -29 109 -91c0 -72 -56 -121 -103 -149c-36 -21 -76 -36 -117 -36c-56 0 -109 29 -109 91c0 72 56 121 103 149c36 21 76 36 117 36z" fill="currentColor"/>
<path transform="translate(83.6993, 20.0987) scale(0.0040, -0.0040)" d="M220 138c56 0 109 -29 109 -91c0 -72 -56 -121 -103 -149c-36 -21 -76 -36 -117 -36c-56 0 -109 29 -109 91c0 72 56 121 103 149c36 21 76 36 117 36z" fill="currentColor"/>
<rect transform="translate(84.9505, 8.6259)" x="-0.0650" y="-1.0187" width="0.1300" height="3.3309" ry="0.0400" fill="currentColor"/>
<rect transform="translate(77.4419, 22.5987)" x="-0.0650" y="-2.0224" width="0.1300" height="4.3346" ry="0.0400" fill="currentColor"/>
<path transform="translate(77.9569, 25.0987) scale(0.0040, -0.0040)" d="M0 0c0 31 25 56 56 56s56 -25 56 -56s-25 -56 -56 -56s-56 25 -56 56z" fill="currentColor"/>
<rect transform="translate(76.2558, 22.5987)" x="-0.0650" y="2.6878" width="0.1300" height="2.8122" ry="0.0400" fill="currentColor"/>
<path transform="translate(76.3208, 28.0587) scale(0.0040, -0.0040)" d="M0 0h-16v250h16c98 58 227 148 227 259c0 57 -16 112 -41 163c-3 16 10 27 23 27c7 0 15 -3 20 -11c25 -56 40 -117 40 -179c0 -204 -269 -305 -269 -509z" fill="currentColor"/>
<path transform="translate(78.6249, 10.6259) scale(0.0040, -0.0040)" d="M220 138c56 0 109 -29 109 -91c0 -72 -56 -121 -103 -149c-36 -21 -76 -36 -117 -36c-56 0 -109 29 -109 91c0 72 56 121 103 149c36 21 76 36 117 36z" fill="currentColor"/>
<path transform="translate(78.6249, 10.6259) scale(0.0040, -0.0040)" d="M220 138c56 0 109 -29 109 -91c0 -72 -56 -121 -103 -149c-36 -21 -76 -36 -117 -36c-56 0 -109 29 -109 91c0 72 56 121 103 149c36 21 76 36 117 36z" fill="currentColor"/>
<path transform="translate(78.6249, 22.5987) scale(0.0040, -0.0040)" d="M220 138c56 0 109 -29 109 -91c0 -72 -56 -121 -103 -149c-36 -21 -76 -36 -117 -36c-56 0 -109 29 -109 91c0 72 56 121 103 149c36 21 76 36 117 36z" fill="currentColor"/>
<rect transform="translate(79.8761, 8.6259)" x="-0.0650" y="-2.0000" width="0.1300" height="3.8122" ry="0.0400" fill="currentColor"/>
<rect transform="translate(78.6899, 8.6259)" x="-0.0650" y="2.1878" width="0.1300" height="2.6147" ry="0.0400" fill="currentColor"/>
<path transform="translate(56.6623, 7.1259) scale(0.0040, -0.0040)" d="M220 138c56 0 109 -29 109 -91c0 -72 -56 -121 -103 -149c-36 -21 -76 -36 -117 -36c-56 0 -109 29 -109 91c0 72 56 121 103 149c36 21 76 36 117 36z" fill="currentColor"/>
<path transform="translate(56.6623, 7.1259) scale(0.0040, -0.0040)" d="M220 138c56 0 109 -29 109 -91c0 -72 -56 -121 -103 -149c-36 -21 -76 -36 -117 -36c-56 0 -109 29 -109 91c0 72 56 121 103 149c36 21 76 36 117 36z" fill="currentColor"/>
<path transform="translate(56.6623, 22.5987) scale(0.0040, -0.0040)" d="M72 -250l117 326c-34 -12 -69 -22 -105 -22c-46 0 -87 33 -87 79c0 40 33 72 73 72c25 0 48 -15 56 -39c10 -28 6 -59 35 -59c16 0 54 48 61 63c6 12 23 12 28 0l-123 -420c-8 -7 -17 -10 -27 -10s-20 3 -28 10z" fill="currentColor"/>
<rect transform="translate(57.9135, 8.6259)" x="-0.0650" y="-4.5159" width="0.1300" height="2.8281" ry="0.0400" fill="currentColor"/>
<rect transform="translate(56.7273, 8.6259)" x="-0.0650" y="-1.3122" width="0.1300" height="3.3122" ry="0.0400" fill="currentColor"/>
<path transform="translate(56.7923, 10.5859) scale(0.0040, -0.0040)" d="M0 0h-16v250h16c98 58 227 148 227 259c0 57 -16 112 -41 163c-3 16 10 27 23 27c7 0 15 -3 20 -11c25 -56 40 -117 40 -179c0 -204 -269 -305 -269 -509z" fill="currentColor"/>
<path transform="translate(59.3472, 6.1259) scale(0.0040, -0.0040)" d="M220 138c56 0 109 -29 109 -91c0 -72 -56 -121 -103 -149c-36 -21 -76 -36 -117 -36c-56 0 -109 29 -109 91c0 72 56 121 103 149c36 21 76 36 117 36z" fill="currentColor"/>
<path transform="translate(51.2924, 10.6259) scale(0.0040, -0.0040)" d="M220 138c56 0 109 -29 109 -91c0 -72 -56 -121 -103 -149c-36 -21 -76 -36 -117 -36c-56 0 -109 29 -109 91c0 72 56 121 103 149c36 21 76 36 117 36z" fill="currentColor"/>
<path transform="translate(51.2924, 10.6259) scale(0.0040, -0.0040)" d="M220 138c56 0 109 -29 109 -91c0 -72 -56 -121 -103 -149c-36 -21 -76 -36 -117 -36c-56 0 -109 29 -109 91c0 72 56 121 103 149c36 21 76 36 117 36z" fill="currentColor"/>
<path transform="translate(51.2924, 19.5987) scale(0.0040, -0.0040)" d="M220 138c56 0 109 -29 109 -91c0 -72 -56 -121 -103 -149c-36 -21 -76 -36 -117 -36c-56 0 -109 29 -109 91c0 72 56 121 103 149c36 21 76 36 117 36z" fill="currentColor"/>
<rect transform="translate(52.5436, 8.6259)" x="-0.0650" y="-1.0187" width="0.1300" height="2.8309" ry="0.0400" fill="currentColor"/>
<rect transform="translate(51.3574, 8.6259)" x="-0.0650" y="2.1878" width="0.1300" height="2.3083" ry="0.0400" fill="currentColor"/>
<rect transform="translate(51.3574, 22.5987)" x="-0.0650" y="-2.8122" width="0.1300" height="3.3122" ry="0.0400" fill="currentColor"/>
<path transform="translate(51.4224, 23.0587) scale(0.0040, -0.0040)" d="M0 0h-16v250h16c98 58 227 148 227 259c0 57 -16 112 -41 163c-3 16 10 27 23 27c7 0 15 -3 20 -11c25 -56 40 -117 40 -179c0 -204 -269 -305 -269 -509z" fill="currentColor"/>
<path transform="translate(50.1424, 19.5987) scale(0.0040, -0.0040)" d="M27 41l-1 -66v-11c0 -22 1 -44 4 -66c45 38 93 80 93 139c0 33 -14 67 -43 67c-31 0 -52 -30 -53 -63zM-15 -138l-12 595c8 5 18 8 27 8s19 -3 27 -8l-7 -345c25 21 58 34 91 34c52 0 89 -48 89 -102c0 -80 -86 -117 -147 -169c-15 -13 -24 -38 -45 -38
c-13 0 -23 11 -23 25z" fill="currentColor"/>
<path transform="translate(53.9774, 9.6259) scale(0.0040, -0.0040)" d="M220 138c56 0 109 -29 109 -91c0 -72 -56 -121 -103 -149c-36 -21 -76 -36 -117 -36c-56 0 -109 29 -109 91c0 72 56 121 103 149c36 21 76 36 117 36z" fill="currentColor"/>
<rect transform="translate(55.2285, 8.6259)" x="-0.0650" y="-1.7913" width="0.1300" height="2.6035" ry="0.0400" fill="currentColor"/>
<path transform="translate(65.6461, 6.6259) scale(0.0040, -0.0040)" d="M220 138c56 0 109 -29 109 -91c0 -72 -56 -121 -103 -149c-36 -21 -76 -36 -117 -36c-56 0 -109 29 -109 91c0 72 56 121 103 149c36 21 76 36 117 36z" fill="currentColor"/>
<rect transform="translate(66.8973, 8.6259)" x="-0.0650" y="-4.5000" width="0.1300" height="2.3122" ry="0.0400" fill="currentColor"/>
<path transform="translate(68.7323, 8.1259) scale(0.0040, -0.0040)" d="M220 138c56 0 109 -29 109 -91c0 -72 -56 -121 -103 -149c-36 -21 -76 -36 -117 -36c-56 0 -109 29 -109 91c0 72 56 121 103 149c36 21 76 36 117 36z" fill="currentColor"/>
<path transform="translate(68.7323, 8.1259) scale(0.0040, -0.0040)" d="M220 138c56 0 109 -29 109 -91c0 -72 -56 -121 -103 -149c-36 -21 -76 -36 -117 -36c-56 0 -109 29 -109 91c0 72 56 121 103 149c36 21 76 36 117 36z" fill="currentColor"/>
<rect transform="translate(69.9835, 8.6259)" x="-0.0650" y="-4.5000" width="0.1300" height="3.8122" ry="0.0400" fill="currentColor"/>
<rect transform="translate(60.5984, 8.6259)" x="-0.0650" y="-5.1741" width="0.1300" height="2.4863" ry="0.0400" fill="currentColor"/>
<path transform="translate(62.9612, 7.6259) scale(0.0040, -0.0040)" d="M220 138c56 0 109 -29 109 -91c0 -72 -56 -121 -103 -149c-36 -21 -76 -36 -117 -36c-56 0 -109 29 -109 91c0 72 56 121 103 149c36 21 76 36 117 36z" fill="currentColor"/>
<path transform="translate(62.9612, 7.6259) scale(0.0040, -0.0040)" d="M220 138c56 0 109 -29 109 -91c0 -72 -56 -121 -103 -149c-36 -21 -76 -36 -117 -36c-56 0 -109 29 -109 91c0 72 56 121 103 149c36 21 76 36 117 36z" fill="currentColor"/>
<path transform="translate(62.9612, 22.5987) scale(0.0040, -0.0040)" d="M-23 -116c0 28 11 42 40 42c33 0 78 -13 119 -31l-132 158c-7 9 -10 17 -10 25c0 34 50 66 87 99c25 22 37 52 37 83c0 24 -8 49 -25 69l-35 42c-3 3 -4 7 -4 10c0 9 9 15 17 15c4 0 8 -1 11 -5l151 -180c7 -9 10 -17 10 -25c0 -34 -50 -66 -87 -99
c-25 -22 -37 -52 -37 -83c0 -24 7 -49 24 -69l84 -99c3 -3 4 -7 4 -10c0 -9 -8 -16 -16 -16c-4 0 -9 2 -12 6c-18 21 -63 38 -97 38c-41 0 -53 -26 -53 -67c0 -35 11 -74 28 -94c5 -6 0 -13 -6 -13c-2 0 -4 0 -6 2c-45 54 -92 148 -92 202z" fill="currentColor"/>
<rect transform="translate(64.2124, 8.6259)" x="-0.0650" y="-4.5000" width="0.1300" height="3.3122" ry="0.0400" fill="currentColor"/>
<rect transform="translate(63.0262, 8.6259)" x="-0.0650" y="-0.8122" width="0.1300" height="3.8196" ry="0.0400" fill="currentColor"/>
<path transform="translate(108.3724, 24.5987) scale(0.0040, -0.0040)" d="M220 138c56 0 109 -29 109 -91c0 -72 -56 -121 -103 -149c-36 -21 -76 -36 -117 -36c-56 0 -109 29 -109 91c0 72 56 121 103 149c36 21 76 36 117 36z" fill="currentColor"/>
<path transform="translate(109.8284, 30.2746) scale(0.0040, -0.0040)" d="M0 35c0 19 16 35 35 35s35 -16 35 -35s-16 -35 -35 -35s-35 16 -35 35z" fill="currentColor"/>
<path transform="translate(106.6364, 30.2746) scale(0.0040, -0.0040)" d="M43 339c0 -19 13 -48 39 -48c22 0 43 28 43 59c0 8 18 8 18 0c0 -63 -41 -125 -83 -125c-41 0 -61 44 -61 78c0 82 90 197 251 197c108 0 166 -82 166 -144c0 -30 -17 -67 -52 -67s-68 49 -87 90c-3 7 13 14 16 7c8 -18 28 -32 46 -32c21 0 32 18 32 36
c0 39 -44 92 -121 92h-7c-10 -20 -39 -91 -39 -108c0 -46 100 -114 100 -164c0 -24 -28 -52 -58 -90c29 -3 83 -28 102 -44c13 -11 48 24 57 31c-4 19 -6 29 -6 48c0 60 32 132 96 132c25 0 49 -17 49 -45c0 -37 -43 -80 -79 -110l-11 -9c13 -24 33 -57 47 -69
c4 -4 13 -3 18 0c9 5 47 33 63 47c-4 14 -6 28 -6 42c0 55 45 112 97 137c-51 71 -129 126 -208 140c-8 1 -5 19 3 18c142 -25 305 -134 329 -272c1 -8 3 -16 3 -24c0 -70 -50 -142 -113 -142c-43 0 -81 37 -99 82c-24 -22 -73 -64 -85 -72c-8 -6 -19 -9 -30 -9
c-39 0 -51 46 -62 85c-27 -20 -90 -73 -106 -82c-6 -3 -12 -4 -17 0c-19 16 -28 89 -57 98c-25 -30 -47 -57 -56 -66c-12 -12 -47 -36 -64 -36c-7 0 -14 5 -14 12c0 13 21 38 30 47c18 19 67 57 95 61c18 21 30 29 30 49c0 47 -88 111 -88 150c0 24 43 134 60 162
c-113 -10 -181 -88 -181 -142zM475 254c-30 0 -43 -27 -43 -55c0 -20 6 -42 14 -60c26 22 63 54 63 83c0 19 -16 32 -34 32zM683 265c-37 -21 -55 -77 -55 -122c0 -48 18 -108 59 -108c32 0 45 39 45 81c0 61 -20 105 -49 149z" fill="currentColor"/>
<rect transform="translate(109.6236, 8.6259)" x="-0.0650" y="-1.2552" width="0.1300" height="3.0674" ry="0.0400" fill="currentColor"/>
<path transform="translate(110.9746, 24.0987) scale(0.0040, -0.0040)" d="M0 0c0 31 25 56 56 56s56 -25 56 -56s-25 -56 -56 -56s-56 25 -56 56z" fill="currentColor"/>
<rect transform="translate(109.6236, 22.5987)" x="-0.0650" y="-1.5000" width="0.1300" height="3.3122" ry="0.0400" fill="currentColor"/>
<path transform="translate(109.6886, 21.1387) scale(0.0040, -0.0040)" d="M0 0c0 -198 209 -335 209 -533c0 -71 -16 -141 -42 -207c-5 -8 -12 -12 -19 -12c-13 0 -26 11 -23 27c26 61 42 126 42 192c0 104 -95 208 -167 283h-16v250h16z" fill="currentColor"/>
<rect transform="translate(108.4374, 22.5987)" x="-0.0650" y="2.1878" width="0.1300" height="2.2960" ry="0.0400" fill="currentColor"/>
<path transform="translate(111.7246, 11.1259) scale(0.0040, -0.0040)" d="M220 138c56 0 109 -29 109 -91c0 -72 -56 -121 -103 -149c-36 -21 -76 -36 -117 -36c-56 0 -109 29 -109 91c0 72 56 121 103 149c36 21 76 36 117 36z" fill="currentColor"/>
<path transform="translate(111.7246, 11.1259) scale(0.0040, -0.0040)" d="M220 138c56 0 109 -29 109 -91c0 -72 -56 -121 -103 -149c-36 -21 -76 -36 -117 -36c-56 0 -109 29 -109 91c0 72 56 121 103 149c36 21 76 36 117 36z" fill="currentColor"/>
<path transform="translate(111.7246, 22.5987) scale(0.0040, -0.0040)" d="M220 138c56 0 109 -29 109 -91c0 -72 -56 -121 -103 -149c-36 -21 -76 -36 -117 -36c-56 0 -109 29 -109 91c0 72 56 121 103 149c36 21 76 36 117 36z" fill="currentColor"/>
<rect transform="translate(105.7524, 8.6259)" x="-0.0650" y="3.1878" width="0.1300" height="2.3089" ry="0.0400" fill="currentColor"/>
<path transform="translate(108.3724, 10.6259) scale(0.0040, -0.0040)" d="M220 138c56 0 109 -29 109 -91c0 -72 -56 -121 -103 -149c-36 -21 -76 -36 -117 -36c-56 0 -109 29 -109 91c0 72 56 121 103 149c36 21 76 36 117 36z" fill="currentColor"/>
<polygon transform="translate(89.0692, 10.8159)" stroke-linejoin="round" stroke-linecap="round" stroke-width="0.0800" fill="currentColor" stroke="currentColor" points="10.5054 0.4200 10.5054 0.8200 0.0400 0.2000 0.0400 -0.2000"/>
<path transform="translate(105.6874, 8.6259)" stroke-width="0.0800" stroke-linejoin="round" stroke-linecap="round" stroke="currentColor" fill="currentColor" d="M1.23252330848726 -1.74603295725819C3.01980962286096 -3.31746422132648 10.00405299793 -3.6141851451696 11.9181809802254 -2.200006C10.0091465233067 -3.49429329390673 3.02490314823767 -3.19757237006362 1.23252330848726 -1.74603295725819z"/>
<polygon transform="translate(84.8855, 7.6259)" stroke-linejoin="round" stroke-linecap="round" stroke-width="0.0800" fill="currentColor" stroke="currentColor" points="2.7749 -1.0100 2.7749 -0.6100 0.0400 0.2000 0.0400 -0.2000"/>
<polygon transform="translate(84.8855, 8.4359)" stroke-linejoin="round" stroke-linecap="round" stroke-width="0.0800" fill="currentColor" stroke="currentColor" points="2.7749 -1.0100 2.7749 -0.6100 0.0400 0.2000 0.0400 -0.2000"/>
<path transform="translate(89.0692, 8.6259)" stroke-width="0.0800" stroke-linejoin="round" stroke-linecap="round" stroke="currentColor" fill="currentColor" d="M0.0392502039359783 2.93382158120727C1.77686888554356 4.52034264863933 8.54306432519645 4.91815134612994 10.454623392223 3.54617841879273C8.55010738972347 4.79835821092567 1.78391195007058 4.40054951343506 0.0392502039359783 2.93382158120727z"/>
<polygon transform="translate(90.2553, 4.1259)" stroke-linejoin="round" stroke-linecap="round" stroke-width="0.0800" fill="currentColor" stroke="currentColor" points="13.1903 -0.2000 13.1903 0.2000 0.0400 0.2000 0.0400 -0.2000"/>
<polygon transform="translate(100.6707, 4.9359)" stroke-linejoin="round" stroke-linecap="round" stroke-width="0.0800" fill="currentColor" stroke="currentColor" points="2.7749 -0.2000 2.7749 0.2000 0.0400 0.2000 0.0400 -0.2000"/>
<polygon transform="translate(95.8025, 4.9359)" stroke-linejoin="round" stroke-linecap="round" stroke-width="0.0800" fill="currentColor" stroke="currentColor" points="2.7749 -0.2000 2.7749 0.2000 0.0400 0.2000 0.0400 -0.2000"/>
<polygon transform="translate(90.2553, 4.9359)" stroke-linejoin="round" stroke-linecap="round" stroke-width="0.0800" fill="currentColor" stroke="currentColor" points="2.7749 -0.2000 2.7749 0.2000 0.0400 0.2000 0.0400 -0.2000"/>
<polygon transform="translate(77.3769, 20.5987)" stroke-linejoin="round" stroke-linecap="round" stroke-width="0.0800" fill="currentColor" stroke="currentColor" points="5.2091 -2.0100 5.2091 -1.6100 0.0400 0.2000 0.0400 -0.2000"/>
<polygon transform="translate(77.3769, 21.4087)" stroke-linejoin="round" stroke-linecap="round" stroke-width="0.0800" fill="currentColor" stroke="currentColor" points="5.2091 -2.0100 5.2091 -1.6100 0.0400 0.2000 0.0400 -0.2000"/>
<polygon transform="translate(74.6920, 6.6259)" stroke-linejoin="round" stroke-linecap="round" stroke-width="0.0800" fill="currentColor" stroke="currentColor" points="7.8940 -0.2000 7.8940 0.2000 0.0400 0.2000 0.0400 -0.2000"/>
<polygon transform="translate(79.8111, 7.4359)" stroke-linejoin="round" stroke-linecap="round" stroke-width="0.0800" fill="currentColor" stroke="currentColor" points="2.7749 -0.2000 2.7749 0.2000 0.0400 0.2000 0.0400 -0.2000"/>
<polygon transform="translate(74.6920, 7.4359)" stroke-linejoin="round" stroke-linecap="round" stroke-width="0.0800" fill="currentColor" stroke="currentColor" points="2.7749 -0.2000 2.7749 0.2000 0.0400 0.2000 0.0400 -0.2000"/>
<polygon transform="translate(62.9612, 11.6259)" stroke-linejoin="round" stroke-linecap="round" stroke-width="0.0800" fill="currentColor" stroke="currentColor" points="15.7537 1.6100 15.7537 2.0100 0.0400 0.2000 0.0400 -0.2000"/>
<path transform="translate(76.1908, 22.5987)" stroke-width="0.0800" stroke-linejoin="round" stroke-linecap="round" stroke="currentColor" fill="currentColor" d="M1.14137932078368 -2.76241347089441C2.23865398374427 -4.35917581349203 6.32319179023488 -5.41500089922039 8.05681386238203 -4.550006C6.35322384100451 -5.29881967902293 2.2686860345139 -4.24299459329457 1.14137932078368 -2.76241347089441z"/>
<polygon transform="translate(64.1474, 4.1259)" stroke-linejoin="round" stroke-linecap="round" stroke-width="0.0800" fill="currentColor" stroke="currentColor" points="8.5461 -0.2000 8.5461 0.2000 0.0400 0.2000 0.0400 -0.2000"/>
<polygon transform="translate(69.9185, 4.9359)" stroke-linejoin="round" stroke-linecap="round" stroke-width="0.0800" fill="currentColor" stroke="currentColor" points="2.7749 -0.2000 2.7749 0.2000 0.0400 0.2000 0.0400 -0.2000"/>
<polygon transform="translate(64.1474, 4.9359)" stroke-linejoin="round" stroke-linecap="round" stroke-width="0.0800" fill="currentColor" stroke="currentColor" points="2.7749 -0.2000 2.7749 0.2000 0.0400 0.2000 0.0400 -0.2000"/>
<polygon transform="translate(57.8485, 4.1259)" stroke-linejoin="round" stroke-linecap="round" stroke-width="0.0800" fill="currentColor" stroke="currentColor" points="2.7749 -0.8900 2.7749 -0.4900 0.0400 0.2000 0.0400 -0.2000"/>
<polygon transform="translate(57.8485, 4.9359)" stroke-linejoin="round" stroke-linecap="round" stroke-width="0.0800" fill="currentColor" stroke="currentColor" points="2.7749 -0.8900 2.7749 -0.4900 0.0400 0.2000 0.0400 -0.2000"/>
<path transform="translate(56.6623, 8.6259)" stroke-width="0.0800" stroke-linejoin="round" stroke-linecap="round" stroke="currentColor" fill="currentColor" d="M1.441864 1.550006C3.76957718377876 4.76654643987492 23.7214784446099 7.13283976222485 26.7369967788271 4.550006C23.7356113821796 7.01367491809853 3.78371012134841 4.64738159574859 1.441864 1.550006z"/>
<polygon transform="translate(43.6213, 19.7887)" stroke-linejoin="round" stroke-linecap="round" stroke-width="0.0800" fill="currentColor" stroke="currentColor" points="5.8611 -2.3900 5.8611 -1.9900 0.0400 0.2000 0.0400 -0.2000"/>
<polygon transform="translate(43.6213, 20.5987)" stroke-linejoin="round" stroke-linecap="round" stroke-width="0.0800" fill="currentColor" stroke="currentColor" points="5.8611 -2.3900 5.8611 -1.9900 0.0400 0.2000 0.0400 -0.2000"/>
<polygon transform="translate(40.9363, 5.8159)" stroke-linejoin="round" stroke-linecap="round" stroke-width="0.0800" fill="currentColor" stroke="currentColor" points="8.5461 -0.2000 8.5461 0.2000 0.0400 0.2000 0.0400 -0.2000"/>
<polygon transform="translate(46.7075, 6.6259)" stroke-linejoin="round" stroke-linecap="round" stroke-width="0.0800" fill="currentColor" stroke="currentColor" points="2.7749 -0.2000 2.7749 0.2000 0.0400 0.2000 0.0400 -0.2000"/>
<polygon transform="translate(40.9363, 6.6259)" stroke-linejoin="round" stroke-linecap="round" stroke-width="0.0800" fill="currentColor" stroke="currentColor" points="2.7749 -0.2000 2.7749 0.2000 0.0400 0.2000 0.0400 -0.2000"/>
<polygon transform="translate(52.4786, 7.6259)" stroke-linejoin="round" stroke-linecap="round" stroke-width="0.0800" fill="currentColor" stroke="currentColor" points="2.7749 -1.0100 2.7749 -0.6100 0.0400 0.2000 0.0400 -0.2000"/>
<polygon transform="translate(52.4786, 8.4359)" stroke-linejoin="round" stroke-linecap="round" stroke-width="0.0800" fill="currentColor" stroke="currentColor" points="2.7749 -1.0100 2.7749 -0.6100 0.0400 0.2000 0.0400 -0.2000"/>
<path transform="translate(42.4351, 22.5987)" stroke-width="0.0800" stroke-linejoin="round" stroke-linecap="round" stroke="currentColor" fill="currentColor" d="M1.19972838717359 -4.5741225081374C2.63543884032894 -6.11384218821701 7.70909784356035 -6.71296661549265 9.46395504724872 -5.550006C7.72317030231404 -6.59379461414743 2.64951129908263 -5.99467018687179 1.19972838717359 -4.5741225081374z"/>
<polygon transform="translate(25.2401, 9.8159)" stroke-linejoin="round" stroke-linecap="round" stroke-width="0.0800" fill="currentColor" stroke="currentColor" points="9.8265 0.4200 9.8265 0.8200 0.0400 0.2000 0.0400 -0.2000"/>
<polygon transform="translate(31.2946, 3.8159)" stroke-linejoin="round" stroke-linecap="round" stroke-width="0.0800" fill="currentColor" stroke="currentColor" points="7.6432 -0.2000 7.6432 0.2000 0.0400 0.2000 0.0400 -0.2000"/>
<polygon transform="translate(36.1628, 4.6259)" stroke-linejoin="round" stroke-linecap="round" stroke-width="0.0800" fill="currentColor" stroke="currentColor" points="2.7749 -0.2000 2.7749 0.2000 0.0400 0.2000 0.0400 -0.2000"/>
<polygon transform="translate(31.2946, 4.6259)" stroke-linejoin="round" stroke-linecap="round" stroke-width="0.0800" fill="currentColor" stroke="currentColor" points="2.7749 -0.2000 2.7749 0.2000 0.0400 0.2000 0.0400 -0.2000"/>
<polygon transform="translate(39.7502, 12.4359)" stroke-linejoin="round" stroke-linecap="round" stroke-width="0.0800" fill="currentColor" stroke="currentColor" points="11.6323 0.4900 11.6323 0.8900 0.0400 0.2000 0.0400 -0.2000"/>
<polygon transform="translate(26.4263, 3.4359)" stroke-linejoin="round" stroke-linecap="round" stroke-width="0.0800" fill="currentColor" stroke="currentColor" points="2.7749 -0.8200 2.7749 -0.4200 0.0400 0.2000 0.0400 -0.2000"/>
<polygon transform="translate(26.4263, 4.2459)" stroke-linejoin="round" stroke-linecap="round" stroke-width="0.0800" fill="currentColor" stroke="currentColor" points="2.7749 -0.8200 2.7749 -0.4200 0.0400 0.2000 0.0400 -0.2000"/>
<path transform="translate(25.2401, 8.6259)" stroke-width="0.0800" stroke-linejoin="round" stroke-linecap="round" stroke="currentColor" fill="currentColor" d="M0.0123027243800209 2.08408452387775C2.4909483350245 4.21315033814304 23.149701116267 6.71265867619104 26.0645852895288 5.23615755492235C23.1641148347938 6.59352746819654 2.50536205355132 4.09401913014854 0.0123027243800209 2.08408452387775z"/>
<rect transform="translate(112.9757, 8.6259)" x="-0.0650" y="-1.5664" width="0.1300" height="3.8786" ry="0.0400" fill="currentColor"/>
<rect transform="translate(111.7896, 8.6259)" x="-0.0650" y="2.6878" width="0.1300" height="2.5055" ry="0.0400" fill="currentColor"/>
<polygon transform="translate(138.0309, 22.5987)" stroke-linejoin="round" stroke-linecap="round" stroke-width="0.0800" fill="currentColor" stroke="currentColor" points="8.1912 -0.2000 8.1912 0.2000 0.0400 0.2000 0.0400 -0.2000"/>
<polygon transform="translate(138.0309, 23.4087)" stroke-linejoin="round" stroke-linecap="round" stroke-width="0.0800" fill="currentColor" stroke="currentColor" points="8.1912 -0.2000 8.1912 0.2000 0.0400 0.2000 0.0400 -0.2000"/>
<polygon transform="translate(127.6627, 22.5987)" stroke-linejoin="round" stroke-linecap="round" stroke-width="0.0800" fill="currentColor" stroke="currentColor" points="7.7961 -0.2000 7.7961 0.2000 0.0400 0.2000 0.0400 -0.2000"/>
<polygon transform="translate(127.6627, 23.4087)" stroke-linejoin="round" stroke-linecap="round" stroke-width="0.0800" fill="currentColor" stroke="currentColor" points="7.7961 -0.2000 7.7961 0.2000 0.0400 0.2000 0.0400 -0.2000"/>
<path transform="translate(129.8476, 22.5987)" stroke-width="0.0800" stroke-linejoin="round" stroke-linecap="round" stroke="currentColor" fill="currentColor" d="M0.617847395801647 -3.050006C2.72955465717592 -4.92720940983469 14.4832664275265 -6.00986816400736 16.9023577159519 -4.550006C14.4942732803317 -5.89037402527527 2.74056150998109 -4.8077152711026 0.617847395801647 -3.050006z"/>
<polygon transform="translate(116.7194, 22.5987)" stroke-linejoin="round" stroke-linecap="round" stroke-width="0.0800" fill="currentColor" stroke="currentColor" points="8.1711 -0.2000 8.1711 0.2000 0.0400 0.2000 0.0400 -0.2000"/>
<polygon transform="translate(116.7194, 23.4087)" stroke-linejoin="round" stroke-linecap="round" stroke-width="0.0800" fill="currentColor" stroke="currentColor" points="8.1711 -0.2000 8.1711 0.2000 0.0400 0.2000 0.0400 -0.2000"/>
<polygon transform="translate(117.9056, 6.8159)" stroke-linejoin="round" stroke-linecap="round" stroke-width="0.0800" fill="currentColor" stroke="currentColor" points="2.6499 -0.5800 2.6499 -0.1800 0.0400 0.2000 0.0400 -0.2000"/>
<polygon transform="translate(117.9056, 7.6259)" stroke-linejoin="round" stroke-linecap="round" stroke-width="0.0800" fill="currentColor" stroke="currentColor" points="1.1250 -0.3646 1.1250 0.0354 0.0400 0.2000 0.0400 -0.2000"/>
<path transform="translate(127.6627, 8.6259)" stroke-width="0.0800" stroke-linejoin="round" stroke-linecap="round" stroke="currentColor" fill="currentColor" d="M1.23656148604681 -2.93216673073897C3.00835636046497 -4.47098261104795 9.73446822701362 -4.69519297004748 11.6048068061971 -3.27778512834361C9.73846612473198 -4.57525958514639 3.01235425818333 -4.35104922614685 1.23656148604681 -2.93216673073897z"/>
<polygon transform="translate(128.8489, 6.4359)" stroke-linejoin="round" stroke-linecap="round" stroke-width="0.0800" fill="currentColor" stroke="currentColor" points="18.5594 -0.8200 18.5594 -0.4200 0.0400 0.2000 0.0400 -0.2000"/>
<polygon transform="translate(146.2833, 6.6647)" stroke-linejoin="round" stroke-linecap="round" stroke-width="0.0800" fill="currentColor" stroke="currentColor" points="1.1250 -0.2388 1.1250 0.1612 0.0400 0.2000 0.0400 -0.2000"/>
<path transform="translate(119.2794, 8.6259)" stroke-width="0.0800" stroke-linejoin="round" stroke-linecap="round" stroke="currentColor" fill="currentColor" d="M2.41616999999999 0.25C3.43400925958856 -0.625889700925291 7.82355540048657 -0.625889700925291 8.84139466007514 0.25C7.82355540048657 -0.505889700925291 3.43400925958856 -0.505889700925291 2.41616999999999 0.25z"/>
<polygon transform="translate(108.3724, 26.2887)" stroke-linejoin="round" stroke-linecap="round" stroke-width="0.0800" fill="currentColor" stroke="currentColor" points="6.0021 -1.7000 6.0021 -1.3000 0.0400 0.2000 0.0400 -0.2000"/>
<polygon transform="translate(108.3724, 27.0987)" stroke-linejoin="round" stroke-linecap="round" stroke-width="0.0800" fill="currentColor" stroke="currentColor" points="6.0021 -1.7000 6.0021 -1.3000 0.0400 0.2000 0.0400 -0.2000"/>
<path transform="translate(116.7194, 8.6259)" stroke-width="0.0800" stroke-linejoin="round" stroke-linecap="round" stroke="currentColor" fill="currentColor" d="M0.858089000000007 2.75C2.08066715214422 3.68673793690019 9.38566716800607 3.68673793690019 10.6082453201503 2.75C9.38566716800607 3.56673793690019 2.08066715214422 3.56673793690019 0.858089000000007 2.75z"/>
<polygon transform="translate(105.6874, 14.1259)" stroke-linejoin="round" stroke-linecap="round" stroke-width="0.0800" fill="currentColor" stroke="currentColor" points="6.1271 -0.5100 6.1271 -0.1100 0.0400 0.2000 0.0400 -0.2000"/>
<polygon transform="translate(106.8736, 7.6259)" stroke-linejoin="round" stroke-linecap="round" stroke-width="0.0800" fill="currentColor" stroke="currentColor" points="8.6871 -1.0100 8.6871 -0.6100 0.0400 0.2000 0.0400 -0.2000"/>
<polygon transform="translate(112.9107, 7.8756)" stroke-linejoin="round" stroke-linecap="round" stroke-width="0.0800" fill="currentColor" stroke="currentColor" points="2.6499 -0.4497 2.6499 -0.0497 0.0400 0.2000 0.0400 -0.2000"/>
<polygon transform="translate(106.8736, 8.4359)" stroke-linejoin="round" stroke-linecap="round" stroke-width="0.0800" fill="currentColor" stroke="currentColor" points="2.7749 -0.4613 2.7749 -0.0613 0.0400 0.2000 0.0400 -0.2000"/>
<path transform="translate(108.3724, 22.5987)" stroke-width="0.1000" stroke-linejoin="round" stroke-linecap="round" stroke="currentColor" fill="currentColor" d="M0.551113128374183 0.799994C1.78257303200073 -4.40709985622189 16.2937148532453 -8.05551415302598 19.8414217686747 -4.050006C16.3205364819585 -7.94883425692006 1.80939466071396 -4.30041996011597 0.551113128374183 0.799994z"/>
<rect transform="translate(89.1342, 8.6259)" x="-0.0650" y="-0.8122" width="0.1300" height="3.0060" ry="0.0400" fill="currentColor"/>
<path transform="translate(91.7541, 6.6259) scale(0.0040, -0.0040)" d="M220 138c56 0 109 -29 109 -91c0 -72 -56 -121 -103 -149c-36 -21 -76 -36 -117 -36c-56 0 -109 29 -109 91c0 72 56 121 103 149c36 21 76 36 117 36z" fill="currentColor"/>
<rect transform="translate(93.0053, 8.6259)" x="-0.0650" y="-4.5000" width="0.1300" height="2.3122" ry="0.0400" fill="currentColor"/>
<path transform="translate(94.6163, 8.1259) scale(0.0040, -0.0040)" d="M220 138c56 0 109 -29 109 -91c0 -72 -56 -121 -103 -149c-36 -21 -76 -36 -117 -36c-56 0 -109 29 -109 91c0 72 56 121 103 149c36 21 76 36 117 36z" fill="currentColor"/>
<path transform="translate(94.6163, 8.1259) scale(0.0040, -0.0040)" d="M220 138c56 0 109 -29 109 -91c0 -72 -56 -121 -103 -149c-36 -21 -76 -36 -117 -36c-56 0 -109 29 -109 91c0 72 56 121 103 149c36 21 76 36 117 36z" fill="currentColor"/>
<path transform="translate(94.6163, 22.5987) scale(0.0040, -0.0040)" d="M-23 -116c0 28 11 42 40 42c33 0 78 -13 119 -31l-132 158c-7 9 -10 17 -10 25c0 34 50 66 87 99c25 22 37 52 37 83c0 24 -8 49 -25 69l-35 42c-3 3 -4 7 -4 10c0 9 9 15 17 15c4 0 8 -1 11 -5l151 -180c7 -9 10 -17 10 -25c0 -34 -50 -66 -87 -99
c-25 -22 -37 -52 -37 -83c0 -24 7 -49 24 -69l84 -99c3 -3 4 -7 4 -10c0 -9 -8 -16 -16 -16c-4 0 -9 2 -12 6c-18 21 -63 38 -97 38c-41 0 -53 -26 -53 -67c0 -35 11 -74 28 -94c5 -6 0 -13 -6 -13c-2 0 -4 0 -6 2c-45 54 -92 148 -92 202z" fill="currentColor"/>
<rect transform="translate(95.8675, 8.6259)" x="-0.0650" y="-4.5000" width="0.1300" height="3.8122" ry="0.0400" fill="currentColor"/>
<rect transform="translate(83.7643, 8.6259)" x="-0.0650" y="2.6878" width="0.1300" height="2.8122" ry="0.0400" fill="currentColor"/>
<path transform="translate(83.8293, 14.0859) scale(0.0040, -0.0040)" d="M0 0h-16v250h16c98 58 227 148 227 259c0 57 -16 112 -41 163c-3 16 10 27 23 27c7 0 15 -3 20 -11c25 -56 40 -117 40 -179c0 -204 -269 -305 -269 -509z" fill="currentColor"/>
<rect transform="translate(83.7643, 22.5987)" x="-0.0650" y="-2.3122" width="0.1300" height="3.3122" ry="0.0400" fill="currentColor"/>
<path transform="translate(83.8293, 23.5587) scale(0.0040, -0.0040)" d="M0 0h-16v250h16c98 58 227 148 227 259c0 57 -16 112 -41 163c-3 16 10 27 23 27c7 0 15 -3 20 -11c25 -56 40 -117 40 -179c0 -204 -269 -305 -269 -509z" fill="currentColor"/>
<path transform="translate(86.3842, 10.1259) scale(0.0040, -0.0040)" d="M220 138c56 0 109 -29 109 -91c0 -72 -56 -121 -103 -149c-36 -21 -76 -36 -117 -36c-56 0 -109 29 -109 91c0 72 56 121 103 149c36 21 76 36 117 36z" fill="currentColor"/>
<rect transform="translate(87.6354, 8.6259)" x="-0.0650" y="-1.7913" width="0.1300" height="3.1035" ry="0.0400" fill="currentColor"/>
<path transform="translate(89.0692, 7.6259) scale(0.0040, -0.0040)" d="M220 138c56 0 109 -29 109 -91c0 -72 -56 -121 -103 -149c-36 -21 -76 -36 -117 -36c-56 0 -109 29 -109 91c0 72 56 121 103 149c36 21 76 36 117 36z" fill="currentColor"/>
<path transform="translate(89.0692, 7.6259) scale(0.0040, -0.0040)" d="M220 138c56 0 109 -29 109 -91c0 -72 -56 -121 -103 -149c-36 -21 -76 -36 -117 -36c-56 0 -109 29 -109 91c0 72 56 121 103 149c36 21 76 36 117 36z" fill="currentColor"/>
<path transform="translate(89.0692, 22.5987) scale(0.0040, -0.0040)" d="M72 -250l117 326c-34 -12 -69 -22 -105 -22c-46 0 -87 33 -87 79c0 40 33 72 73 72c25 0 48 -15 56 -39c10 -28 6 -59 35 -59c16 0 54 48 61 63c6 12 23 12 28 0l-123 -420c-8 -7 -17 -10 -27 -10s-20 3 -28 10z" fill="currentColor"/>
<rect transform="translate(90.3203, 8.6259)" x="-0.0650" y="-4.5000" width="0.1300" height="3.3122" ry="0.0400" fill="currentColor"/>
<rect transform="translate(99.5495, 8.6259)" x="-0.0650" y="0.1878" width="0.1300" height="2.6184" ry="0.0400" fill="currentColor"/>
<path transform="translate(102.1695, 7.6259) scale(0.0040, -0.0040)" d="M220 138c56 0 109 -29 109 -91c0 -72 -56 -121 -103 -149c-36 -21 -76 -36 -117 -36c-56 0 -109 29 -109 91c0 72 56 121 103 149c36 21 76 36 117 36z" fill="currentColor"/>
<rect transform="translate(103.4207, 8.6259)" x="-0.0650" y="-4.5000" width="0.1300" height="3.3122" ry="0.0400" fill="currentColor"/>
<path transform="translate(105.6874, 11.6259) scale(0.0040, -0.0040)" d="M220 138c56 0 109 -29 109 -91c0 -72 -56 -121 -103 -149c-36 -21 -76 -36 -117 -36c-56 0 -109 29 -109 91c0 72 56 121 103 149c36 21 76 36 117 36z" fill="currentColor"/>
<path transform="translate(105.6874, 11.6259) scale(0.0040, -0.0040)" d="M220 138c56 0 109 -29 109 -91c0 -72 -56 -121 -103 -149c-36 -21 -76 -36 -117 -36c-56 0 -109 29 -109 91c0 72 56 121 103 149c36 21 76 36 117 36z" fill="currentColor"/>
<path transform="translate(105.6114, 16.1235) scale(0.0040, -0.0040)" d="M233 243c-56 0 -102 -107 -102 -173c0 -22 8 -38 30 -38c64 0 97 126 97 178c0 18 -7 33 -25 33zM112 -146c-38 0 -78 5 -116 5c-39 0 -78 -5 -115 -5c-9 0 -14 7 -14 14c0 18 31 15 48 16c22 1 47 5 54 25l102 300c2 7 4 14 4 20c0 8 -2 14 -11 14
c-33 0 -63 -60 -79 -97c-5 -12 -15 -17 -24 -17c-8 0 -14 4 -14 12c0 2 1 5 2 8c30 68 72 143 132 143c35 0 59 -21 66 -52c29 31 67 52 103 52c69 0 107 -49 107 -114c0 -21 -4 -44 -12 -67c-20 -58 -91 -119 -147 -119c-27 0 -52 5 -73 17c-4 2 -7 3 -11 3
c-7 0 -14 -3 -16 -9l-29 -86c-1 -2 -1 -5 -1 -7c0 -20 21 -26 44 -28c9 -1 13 -8 13 -14c0 -7 -4 -14 -13 -14z" fill="currentColor"/>
<path transform="translate(105.6874, 22.5987) scale(0.0040, -0.0040)" d="M66 -500l101 327c-34 -12 -70 -23 -106 -23c-46 0 -87 33 -87 79c0 40 32 72 72 72c25 0 49 -15 57 -39c10 -28 5 -59 34 -59c16 0 55 51 60 68l46 151c-34 -12 -68 -22 -104 -22c-46 0 -87 33 -87 79c0 40 33 72 73 72c25 0 48 -15 56 -39c10 -28 5 -59 34 -59
c15 0 50 49 57 63c6 12 23 12 28 0l-179 -670c-8 -7 -17 -10 -27 -10s-20 3 -28 10z" fill="currentColor"/>
<rect transform="translate(106.9386, 8.6259)" x="-0.0650" y="-1.0060" width="0.1300" height="3.8182" ry="0.0400" fill="currentColor"/>
<rect transform="translate(94.6813, 8.6259)" x="-0.0650" y="-0.3122" width="0.1300" height="2.8321" ry="0.0400" fill="currentColor"/>
<path transform="translate(93.5703, 8.1259) scale(0.0040, -0.0040)" d="M-8 375c8 4 17 7 26 7s17 -3 25 -7l-3 -183l106 20h3c10 0 18 -7 18 -17l7 -570c-8 -4 -16 -7 -25 -7s-17 3 -25 7l3 183l-106 -20h-3c-10 0 -18 7 -18 17zM131 112l-92 -17l-3 -207l92 17z" fill="currentColor"/>
<path transform="translate(93.5703, 8.1259) scale(0.0040, -0.0040)" d="M-8 375c8 4 17 7 26 7s17 -3 25 -7l-3 -183l106 20h3c10 0 18 -7 18 -17l7 -570c-8 -4 -16 -7 -25 -7s-17 3 -25 7l3 183l-106 -20h-3c-10 0 -18 7 -18 17zM131 112l-92 -17l-3 -207l92 17z" fill="currentColor"/>
<path transform="translate(97.3012, 7.1259) scale(0.0040, -0.0040)" d="M220 138c56 0 109 -29 109 -91c0 -72 -56 -121 -103 -149c-36 -21 -76 -36 -117 -36c-56 0 -109 29 -109 91c0 72 56 121 103 149c36 21 76 36 117 36z" fill="currentColor"/>
<rect transform="translate(98.5524, 8.6259)" x="-0.0650" y="-4.5000" width="0.1300" height="2.8122" ry="0.0400" fill="currentColor"/>
<path transform="translate(99.4845, 8.6259) scale(0.0040, -0.0040)" d="M220 138c56 0 109 -29 109 -91c0 -72 -56 -121 -103 -149c-36 -21 -76 -36 -117 -36c-56 0 -109 29 -109 91c0 72 56 121 103 149c36 21 76 36 117 36z" fill="currentColor"/>
<path transform="translate(99.4845, 8.6259) scale(0.0040, -0.0040)" d="M220 138c56 0 109 -29 109 -91c0 -72 -56 -121 -103 -149c-36 -21 -76 -36 -117 -36c-56 0 -109 29 -109 91c0 72 56 121 103 149c36 21 76 36 117 36z" fill="currentColor"/>
<rect transform="translate(100.7357, 8.6259)" x="-0.0650" y="-4.5000" width="0.1300" height="4.3122" ry="0.0400" fill="currentColor"/>
<rect transform="translate(127.7277, 22.5987)" x="-0.0650" y="-2.8122" width="0.1300" height="3.6222" ry="0.0400" fill="currentColor"/>
<path transform="translate(126.6167, 19.5987) scale(0.0040, -0.0040)" d="M-8 375c8 4 17 7 26 7s17 -3 25 -7l-3 -183l106 20h3c10 0 18 -7 18 -17l7 -570c-8 -4 -16 -7 -25 -7s-17 3 -25 7l3 183l-106 -20h-3c-10 0 -18 7 -18 17zM131 112l-92 -17l-3 -207l92 17z" fill="currentColor"/>
<path transform="translate(129.8476, 20.5987) scale(0.0040, -0.0040)" d="M220 138c56 0 109 -29 109 -91c0 -72 -56 -121 -103 -149c-36 -21 -76 -36 -117 -36c-56 0 -109 29 -109 91c0 72 56 121 103 149c36 21 76 36 117 36z" fill="currentColor"/>
<rect transform="translate(129.9126, 22.5987)" x="-0.0650" y="-1.8122" width="0.1300" height="2.6222" ry="0.0400" fill="currentColor"/>
<path transform="translate(132.9338, 11.1259) scale(0.0040, -0.0040)" d="M220 138c56 0 109 -29 109 -91c0 -72 -56 -121 -103 -149c-36 -21 -76 -36 -117 -36c-56 0 -109 29 -109 91c0 72 56 121 103 149c36 21 76 36 117 36z" fill="currentColor"/>
<path transform="translate(132.9338, 10.1259) scale(0.0040, -0.0040)" d="M220 138c56 0 109 -29 109 -91c0 -72 -56 -121 -103 -149c-36 -21 -76 -36 -117 -36c-56 0 -109 29 -109 91c0 72 56 121 103 149c36 21 76 36 117 36z" fill="currentColor"/>
<path transform="translate(132.9338, 19.5987) scale(0.0040, -0.0040)" d="M220 138c56 0 109 -29 109 -91c0 -72 -56 -121 -103 -149c-36 -21 -76 -36 -117 -36c-56 0 -109 29 -109 91c0 72 56 121 103 149c36 21 76 36 117 36z" fill="currentColor"/>
<rect transform="translate(134.1850, 8.6259)" x="-0.0650" y="-2.3679" width="0.1300" height="4.6801" ry="0.0400" fill="currentColor"/>
<path transform="translate(131.8934, 11.1259) scale(0.0040, -0.0040)" d="M-8 375c8 4 17 7 26 7s17 -3 25 -7l-3 -183l106 20h3c10 0 18 -7 18 -17l7 -570c-8 -4 -16 -7 -25 -7s-17 3 -25 7l3 183l-106 -20h-3c-10 0 -18 7 -18 17zM131 112l-92 -17l-3 -207l92 17z" fill="currentColor"/>
<path transform="translate(121.2156, 19.5987) scale(0.0040, -0.0040)" d="M27 41l-1 -66v-11c0 -22 1 -44 4 -66c45 38 93 80 93 139c0 33 -14 67 -43 67c-31 0 -52 -30 -53 -63zM-15 -138l-12 595c8 5 18 8 27 8s19 -3 27 -8l-7 -345c25 21 58 34 91 34c52 0 89 -48 89 -102c0 -80 -86 -117 -147 -169c-15 -13 -24 -38 -45 -38
c-13 0 -23 11 -23 25z" fill="currentColor"/>
<path transform="translate(124.8005, 20.0987) scale(0.0040, -0.0040)" d="M220 138c56 0 109 -29 109 -91c0 -72 -56 -121 -103 -149c-36 -21 -76 -36 -117 -36c-56 0 -109 29 -109 91c0 72 56 121 103 149c36 21 76 36 117 36z" fill="currentColor"/>
<rect transform="translate(124.8655, 22.5987)" x="-0.0650" y="-2.3122" width="0.1300" height="3.1222" ry="0.0400" fill="currentColor"/>
<path transform="translate(127.6627, 10.6259) scale(0.0040, -0.0040)" d="M220 138c56 0 109 -29 109 -91c0 -72 -56 -121 -103 -149c-36 -21 -76 -36 -117 -36c-56 0 -109 29 -109 91c0 72 56 121 103 149c36 21 76 36 117 36z" fill="currentColor"/>
<path transform="translate(127.6627, 9.6259) scale(0.0040, -0.0040)" d="M220 138c56 0 109 -29 109 -91c0 -72 -56 -121 -103 -149c-36 -21 -76 -36 -117 -36c-56 0 -109 29 -109 91c0 72 56 121 103 149c36 21 76 36 117 36z" fill="currentColor"/>
<path transform="translate(127.6627, 19.5987) scale(0.0040, -0.0040)" d="M220 138c56 0 109 -29 109 -91c0 -72 -56 -121 -103 -149c-36 -21 -76 -36 -117 -36c-56 0 -109 29 -109 91c0 72 56 121 103 149c36 21 76 36 117 36z" fill="currentColor"/>
<rect transform="translate(128.9139, 8.6259)" x="-0.0650" y="-2.1922" width="0.1300" height="4.0044" ry="0.0400" fill="currentColor"/>
<path transform="translate(136.9849, 19.5987) scale(0.0040, -0.0040)" d="M-8 375c8 4 17 7 26 7s17 -3 25 -7l-3 -183l106 20h3c10 0 18 -7 18 -17l7 -570c-8 -4 -16 -7 -25 -7s-17 3 -25 7l3 183l-106 -20h-3c-10 0 -18 7 -18 17zM131 112l-92 -17l-3 -207l92 17z" fill="currentColor"/>
<path transform="translate(140.8931, 20.0987) scale(0.0040, -0.0040)" d="M220 138c56 0 109 -29 109 -91c0 -72 -56 -121 -103 -149c-36 -21 -76 -36 -117 -36c-56 0 -109 29 -109 91c0 72 56 121 103 149c36 21 76 36 117 36z" fill="currentColor"/>
<rect transform="translate(140.9581, 22.5987)" x="-0.0650" y="-2.3122" width="0.1300" height="3.1222" ry="0.0400" fill="currentColor"/>
<path transform="translate(139.8471, 20.0987) scale(0.0040, -0.0040)" d="M-8 375c8 4 17 7 26 7s17 -3 25 -7l-3 -183l106 20h3c10 0 18 -7 18 -17l7 -570c-8 -4 -16 -7 -25 -7s-17 3 -25 7l3 183l-106 -20h-3c-10 0 -18 7 -18 17zM131 112l-92 -17l-3 -207l92 17z" fill="currentColor"/>
<path transform="translate(143.7553, 7.6259) scale(0.0040, -0.0040)" d="M66 -500l101 327c-34 -12 -70 -23 -106 -23c-46 0 -87 33 -87 79c0 40 32 72 72 72c25 0 49 -15 57 -39c10 -28 5 -59 34 -59c16 0 55 51 60 68l46 151c-34 -12 -68 -22 -104 -22c-46 0 -87 33 -87 79c0 40 33 72 73 72c25 0 48 -15 56 -39c10 -28 5 -59 34 -59
c15 0 50 49 57 63c6 12 23 12 28 0l-179 -670c-8 -7 -17 -10 -27 -10s-20 3 -28 10z" fill="currentColor"/>
<path transform="translate(143.7553, 19.0987) scale(0.0040, -0.0040)" d="M220 138c56 0 109 -29 109 -91c0 -72 -56 -121 -103 -149c-36 -21 -76 -36 -117 -36c-56 0 -109 29 -109 91c0 72 56 121 103 149c36 21 76 36 117 36z" fill="currentColor"/>
<rect transform="translate(143.8203, 22.5987)" x="-0.0650" y="-3.3122" width="0.1300" height="4.1222" ry="0.0400" fill="currentColor"/>
<rect transform="translate(132.9988, 22.5987)" x="-0.0650" y="-2.8122" width="0.1300" height="3.6222" ry="0.0400" fill="currentColor"/>
<path transform="translate(131.7838, 19.5987) scale(0.0040, -0.0040)" d="M27 41l-1 -66v-11c0 -22 1 -44 4 -66c45 38 93 80 93 139c0 33 -14 67 -43 67c-31 0 -52 -30 -53 -63zM-15 -138l-12 595c8 5 18 8 27 8s19 -3 27 -8l-7 -345c25 21 58 34 91 34c52 0 89 -48 89 -102c0 -80 -86 -117 -147 -169c-15 -13 -24 -38 -45 -38
c-13 0 -23 11 -23 25z" fill="currentColor"/>
<path transform="translate(135.3688, 20.0987) scale(0.0040, -0.0040)" d="M220 138c56 0 109 -29 109 -91c0 -72 -56 -121 -103 -149c-36 -21 -76 -36 -117 -36c-56 0 -109 29 -109 91c0 72 56 121 103 149c36 21 76 36 117 36z" fill="currentColor"/>
<rect transform="translate(135.4338, 22.5987)" x="-0.0650" y="-2.3122" width="0.1300" height="3.1222" ry="0.0400" fill="currentColor"/>
<path transform="translate(138.0309, 10.6259) scale(0.0040, -0.0040)" d="M220 138c56 0 109 -29 109 -91c0 -72 -56 -121 -103 -149c-36 -21 -76 -36 -117 -36c-56 0 -109 29 -109 91c0 72 56 121 103 149c36 21 76 36 117 36z" fill="currentColor"/>
<path transform="translate(138.0309, 9.6259) scale(0.0040, -0.0040)" d="M220 138c56 0 109 -29 109 -91c0 -72 -56 -121 -103 -149c-36 -21 -76 -36 -117 -36c-56 0 -109 29 -109 91c0 72 56 121 103 149c36 21 76 36 117 36z" fill="currentColor"/>
<path transform="translate(138.0309, 19.5987) scale(0.0040, -0.0040)" d="M220 138c56 0 109 -29 109 -91c0 -72 -56 -121 -103 -149c-36 -21 -76 -36 -117 -36c-56 0 -109 29 -109 91c0 72 56 121 103 149c36 21 76 36 117 36z" fill="currentColor"/>
<rect transform="translate(139.2821, 8.6259)" x="-0.0650" y="-2.5378" width="0.1300" height="4.3500" ry="0.0400" fill="currentColor"/>
<rect transform="translate(138.0959, 22.5987)" x="-0.0650" y="-2.8122" width="0.1300" height="3.6222" ry="0.0400" fill="currentColor"/>
<rect transform="translate(21.7818, 22.5987)" x="-0.0650" y="-3.8122" width="0.1300" height="3.8122" ry="0.0400" fill="currentColor"/>
<path transform="translate(21.8468, 22.5587) scale(0.0040, -0.0040)" d="M0 0h-16v250h16c98 58 227 148 227 259c0 57 -16 112 -41 163c-3 16 10 27 23 27c7 0 15 -3 20 -11c25 -56 40 -117 40 -179c0 -204 -269 -305 -269 -509z" fill="currentColor"/>
<rect transform="translate(111.7896, 22.5987)" x="-0.0650" y="0.1878" width="0.1300" height="3.4638" ry="0.0400" fill="currentColor"/>
<path transform="translate(114.2845, 10.1259) scale(0.0040, -0.0040)" d="M220 138c56 0 109 -29 109 -91c0 -72 -56 -121 -103 -149c-36 -21 -76 -36 -117 -36c-56 0 -109 29 -109 91c0 72 56 121 103 149c36 21 76 36 117 36z" fill="currentColor"/>
<path transform="translate(114.2845, 22.0987) scale(0.0040, -0.0040)" d="M220 138c56 0 109 -29 109 -91c0 -72 -56 -121 -103 -149c-36 -21 -76 -36 -117 -36c-56 0 -109 29 -109 91c0 72 56 121 103 149c36 21 76 36 117 36z" fill="currentColor"/>
<rect transform="translate(115.5357, 8.6259)" x="-0.0650" y="-1.8040" width="0.1300" height="3.1162" ry="0.0400" fill="currentColor"/>
<path transform="translate(7.6068, 15.6123) scale(0.0040, -0.0040)" d="M-12 -676c0 -364 -136 -720 -136 -1068c0 -184 36 -356 160 -500c4 -4 8 -8 8 -12c0 -8 -12 -16 -20 -16c-4 0 -8 0 -12 4c-164 188 -220 428 -220 676c0 372 144 736 144 1088c0 184 -44 352 -164 496c0 4 -4 4 -4 8s4 4 4 8c120 144 164 312 164 496
c0 352 -144 716 -144 1088c0 248 56 488 220 676c4 4 8 4 12 4c8 0 20 -8 20 -16c0 -4 -4 -8 -8 -12c-124 -144 -160 -316 -160 -500c0 -348 136 -704 136 -1068c0 -248 -56 -484 -216 -676c160 -192 216 -428 216 -676z" fill="currentColor"/>
<rect transform="translate(7.9068, 15.6123)" x="0.0000" y="-9.0364" width="0.1600" height="18.0728" ry="0.0500" fill="currentColor"/>
<path transform="translate(21.7168, 8.6259) scale(0.0040, -0.0040)" d="M220 138c56 0 109 -29 109 -91c0 -72 -56 -121 -103 -149c-36 -21 -76 -36 -117 -36c-56 0 -109 29 -109 91c0 72 56 121 103 149c36 21 76 36 117 36z" fill="currentColor"/>
<path transform="translate(8.7668, 9.6259) scale(0.0040, -0.0040)" d="M376 262c4 0 9 1 13 1c155 0 256 -128 256 -261c0 -76 -33 -154 -107 -210c-22 -17 -47 -28 -73 -36c3 -35 5 -70 5 -105c0 -19 -1 -39 -2 -58c-7 -120 -90 -228 -208 -228c-108 0 -195 88 -195 197c0 58 53 103 112 103c54 0 95 -47 95 -103c0 -52 -43 -95 -95 -95
c-11 0 -21 2 -31 6c26 -39 68 -65 117 -65c96 0 157 92 163 191c1 18 2 37 2 55c0 31 -1 61 -4 92c-29 -5 -58 -8 -89 -8c-188 0 -333 172 -333 374c0 177 131 306 248 441c-19 62 -37 125 -45 190c-6 52 -7 104 -7 156c0 115 55 224 149 292c3 2 7 3 10 3c4 0 7 0 10 -3
c71 -84 133 -245 133 -358c0 -143 -86 -255 -180 -364c21 -68 39 -138 56 -207zM461 -203c68 24 113 95 113 164c0 90 -66 179 -173 190c24 -116 46 -231 60 -354zM74 28c0 -135 129 -247 264 -247c28 0 55 2 82 6c-14 127 -37 245 -63 364c-79 -8 -124 -61 -124 -119
c0 -44 25 -91 81 -123c5 -5 7 -10 7 -15c0 -11 -10 -22 -22 -22c-3 0 -6 1 -9 2c-80 43 -117 115 -117 185c0 88 58 174 160 197c-14 58 -29 117 -46 175c-107 -121 -213 -243 -213 -403zM408 1045c-99 -48 -162 -149 -162 -259c0 -74 18 -133 36 -194
c80 97 146 198 146 324c0 55 -4 79 -20 129z" fill="currentColor"/>
<path transform="translate(12.3868, 8.6259) scale(0.0040, -0.0040)" d="M27 41l-1 -66v-11c0 -22 1 -44 4 -66c45 38 93 80 93 139c0 33 -14 67 -43 67c-31 0 -52 -30 -53 -63zM-15 -138l-12 595c8 5 18 8 27 8s19 -3 27 -8l-7 -345c25 21 58 34 91 34c52 0 89 -48 89 -102c0 -80 -86 -117 -147 -169c-15 -13 -24 -38 -45 -38
c-13 0 -23 11 -23 25z" fill="currentColor"/>
<path transform="translate(13.3068, 7.1259) scale(0.0040, -0.0040)" d="M27 41l-1 -66v-11c0 -22 1 -44 4 -66c45 38 93 80 93 139c0 33 -14 67 -43 67c-31 0 -52 -30 -53 -63zM-15 -138l-12 595c8 5 18 8 27 8s19 -3 27 -8l-7 -345c25 21 58 34 91 34c52 0 89 -48 89 -102c0 -80 -86 -117 -147 -169c-15 -13 -24 -38 -45 -38
c-13 0 -23 11 -23 25z" fill="currentColor"/>
<path transform="translate(14.2268, 9.1259) scale(0.0040, -0.0040)" d="M27 41l-1 -66v-11c0 -22 1 -44 4 -66c45 38 93 80 93 139c0 33 -14 67 -43 67c-31 0 -52 -30 -53 -63zM-15 -138l-12 595c8 5 18 8 27 8s19 -3 27 -8l-7 -345c25 21 58 34 91 34c52 0 89 -48 89 -102c0 -80 -86 -117 -147 -169c-15 -13 -24 -38 -45 -38
c-13 0 -23 11 -23 25z" fill="currentColor"/>
<path transform="translate(15.1468, 7.6259) scale(0.0040, -0.0040)" d="M27 41l-1 -66v-11c0 -22 1 -44 4 -66c45 38 93 80 93 139c0 33 -14 67 -43 67c-31 0 -52 -30 -53 -63zM-15 -138l-12 595c8 5 18 8 27 8s19 -3 27 -8l-7 -345c25 21 58 34 91 34c52 0 89 -48 89 -102c0 -80 -86 -117 -147 -169c-15 -13 -24 -38 -45 -38
c-13 0 -23 11 -23 25z" fill="currentColor"/>
<path transform="translate(16.0668, 9.6259) scale(0.0040, -0.0040)" d="M27 41l-1 -66v-11c0 -22 1 -44 4 -66c45 38 93 80 93 139c0 33 -14 67 -43 67c-31 0 -52 -30 -53 -63zM-15 -138l-12 595c8 5 18 8 27 8s19 -3 27 -8l-7 -345c25 21 58 34 91 34c52 0 89 -48 89 -102c0 -80 -86 -117 -147 -169c-15 -13 -24 -38 -45 -38
c-13 0 -23 11 -23 25z" fill="currentColor"/>
<path transform="translate(18.0168, 8.6259) scale(0.0040, -0.0040)" d="M359 27c-49 0 -75 42 -75 75c0 38 27 77 72 77c4 0 9 0 14 -1c-28 37 -72 59 -120 59c-106 0 -113 -73 -113 -186v-51v-51c0 -113 7 -187 113 -187c80 0 139 70 158 151c2 7 7 10 12 10c6 0 13 -4 13 -12c0 -94 -105 -174 -183 -174c-68 0 -137 21 -184 70
c-49 51 -66 122 -66 193s17 142 66 193c47 49 116 69 184 69c87 0 160 -64 175 -150c1 -5 1 -9 1 -13c0 -40 -30 -72 -67 -72z" fill="currentColor"/>
<path transform="translate(21.7168, 18.5987) scale(0.0040, -0.0040)" d="M220 138c56 0 109 -29 109 -91c0 -72 -56 -121 -103 -149c-36 -21 -76 -36 -117 -36c-56 0 -109 29 -109 91c0 72 56 121 103 149c36 21 76 36 117 36z" fill="currentColor"/>
<g transform="translate(20.9068, 26.4096)" >
<path transform="scale(0.0040, -0.0040)" d="M233 243c-56 0 -102 -107 -102 -173c0 -22 8 -38 30 -38c64 0 97 126 97 178c0 18 -7 33 -25 33zM112 -146c-38 0 -78 5 -116 5c-39 0 -78 -5 -115 -5c-9 0 -14 7 -14 14c0 18 31 15 48 16c22 1 47 5 54 25l102 300c2 7 4 14 4 20c0 8 -2 14 -11 14
c-33 0 -63 -60 -79 -97c-5 -12 -15 -17 -24 -17c-8 0 -14 4 -14 12c0 2 1 5 2 8c30 68 72 143 132 143c35 0 59 -21 66 -52c29 31 67 52 103 52c69 0 107 -49 107 -114c0 -21 -4 -44 -12 -67c-20 -58 -91 -119 -147 -119c-27 0 -52 5 -73 17c-4 2 -7 3 -11 3
c-7 0 -14 -3 -16 -9l-29 -86c-1 -2 -1 -5 -1 -7c0 -20 21 -26 44 -28c9 -1 13 -8 13 -14c0 -7 -4 -14 -13 -14z" fill="currentColor"/>

<path transform="translate(1.4682, 0.0000) scale(0.0040, -0.0040)" d="M233 243c-56 0 -102 -107 -102 -173c0 -22 8 -38 30 -38c64 0 97 126 97 178c0 18 -7 33 -25 33zM112 -146c-38 0 -78 5 -116 5c-39 0 -78 -5 -115 -5c-9 0 -14 7 -14 14c0 18 31 15 48 16c22 1 47 5 54 25l102 300c2 7 4 14 4 20c0 8 -2 14 -11 14
c-33 0 -63 -60 -79 -97c-5 -12 -15 -17 -24 -17c-8 0 -14 4 -14 12c0 2 1 5 2 8c30 68 72 143 132 143c35 0 59 -21 66 -52c29 31 67 52 103 52c69 0 107 -49 107 -114c0 -21 -4 -44 -12 -67c-20 -58 -91 -119 -147 -119c-27 0 -52 5 -73 17c-4 2 -7 3 -11 3
c-7 0 -14 -3 -16 -9l-29 -86c-1 -2 -1 -5 -1 -7c0 -20 21 -26 44 -28c9 -1 13 -8 13 -14c0 -7 -4 -14 -13 -14z" fill="currentColor"/>
</g>
<path transform="translate(8.7668, 21.5987) scale(0.0040, -0.0040)" d="M557 -125c0 28 23 51 51 51s51 -23 51 -51s-23 -51 -51 -51s-51 23 -51 51zM557 125c0 28 23 51 51 51s51 -23 51 -51s-23 -51 -51 -51s-51 23 -51 51zM232 263c172 0 293 -88 293 -251c0 -263 -263 -414 -516 -521c-3 -3 -6 -4 -9 -4c-7 0 -13 6 -13 13c0 3 1 6 4 9
c202 118 412 265 412 493c0 120 -63 235 -171 235c-74 0 -129 -54 -154 -126c11 5 22 8 34 8c55 0 100 -45 100 -100c0 -58 -44 -106 -100 -106c-60 0 -112 47 -112 106c0 133 102 244 232 244z" fill="currentColor"/>
<path transform="translate(12.3868, 23.5987) scale(0.0040, -0.0040)" d="M27 41l-1 -66v-11c0 -22 1 -44 4 -66c45 38 93 80 93 139c0 33 -14 67 -43 67c-31 0 -52 -30 -53 -63zM-15 -138l-12 595c8 5 18 8 27 8s19 -3 27 -8l-7 -345c25 21 58 34 91 34c52 0 89 -48 89 -102c0 -80 -86 -117 -147 -169c-15 -13 -24 -38 -45 -38
c-13 0 -23 11 -23 25z" fill="currentColor"/>
<path transform="translate(13.3068, 22.0987) scale(0.0040, -0.0040)" d="M27 41l-1 -66v-11c0 -22 1 -44 4 -66c45 38 93 80 93 139c0 33 -14 67 -43 67c-31 0 -52 -30 -53 -63zM-15 -138l-12 595c8 5 18 8 27 8s19 -3 27 -8l-7 -345c25 21 58 34 91 34c52 0 89 -48 89 -102c0 -80 -86 -117 -147 -169c-15 -13 -24 -38 -45 -38
c-13 0 -23 11 -23 25z" fill="currentColor"/>
<path transform="translate(14.2268, 24.0987) scale(0.0040, -0.0040)" d="M27 41l-1 -66v-11c0 -22 1 -44 4 -66c45 38 93 80 93 139c0 33 -14 67 -43 67c-31 0 -52 -30 -53 -63zM-15 -138l-12 595c8 5 18 8 27 8s19 -3 27 -8l-7 -345c25 21 58 34 91 34c52 0 89 -48 89 -102c0 -80 -86 -117 -147 -169c-15 -13 -24 -38 -45 -38
c-13 0 -23 11 -23 25z" fill="currentColor"/>
<path transform="translate(15.1468, 22.5987) scale(0.0040, -0.0040)" d="M27 41l-1 -66v-11c0 -22 1 -44 4 -66c45 38 93 80 93 139c0 33 -14 67 -43 67c-31 0 -52 -30 -53 -63zM-15 -138l-12 595c8 5 18 8 27 8s19 -3 27 -8l-7 -345c25 21 58 34 91 34c52 0 89 -48 89 -102c0 -80 -86 -117 -147 -169c-15 -13 -24 -38 -45 -38
c-13 0 -23 11 -23 25z" fill="currentColor"/>
<path transform="translate(16.0668, 24.5987) scale(0.0040, -0.0040)" d="M27 41l-1 -66v-11c0 -22 1 -44 4 -66c45 38 93 80 93 139c0 33 -14 67 -43 67c-31 0 -52 -30 -53 -63zM-15 -138l-12 595c8 5 18 8 27 8s19 -3 27 -8l-7 -345c25 21 58 34 91 34c52 0 89 -48 89 -102c0 -80 -86 -117 -147 -169c-15 -13 -24 -38 -45 -38
c-13 0 -23 11 -23 25z" fill="currentColor"/>
<path transform="translate(18.0168, 22.5987) scale(0.0040, -0.0040)" d="M359 27c-49 0 -75 42 -75 75c0 38 27 77 72 77c4 0 9 0 14 -1c-28 37 -72 59 -120 59c-106 0 -113 -73 -113 -186v-51v-51c0 -113 7 -187 113 -187c80 0 139 70 158 151c2 7 7 10 12 10c6 0 13 -4 13 -12c0 -94 -105 -174 -183 -174c-68 0 -137 21 -184 70
c-49 51 -66 122 -66 193s17 142 66 193c47 49 116 69 184 69c87 0 160 -64 175 -150c1 -5 1 -9 1 -13c0 -40 -30 -72 -67 -72z" fill="currentColor"/>
<rect transform="translate(21.7818, 8.6259)" x="-0.0650" y="0.1878" width="0.1300" height="3.1872" ry="0.0400" fill="currentColor"/>
<path transform="translate(21.8468, 11.9609) scale(0.0040, -0.0040)" d="M0 0h-16v250h16c98 58 227 148 227 259c0 57 -16 112 -41 163c-3 16 10 27 23 27c7 0 15 -3 20 -11c25 -56 40 -117 40 -179c0 -204 -269 -305 -269 -509z" fill="currentColor"/>
<path transform="translate(114.9214, 20.0987) scale(0.0040, -0.0040)" d="M190 41l-1 -66c0 -4 -1 -7 -1 -11c0 -22 1 -44 4 -66c44 37 87 82 87 139c0 33 -11 67 -40 67c-30 0 -48 -30 -49 -63zM147 -138l-2 106c-27 -34 -66 -62 -98 -93c-13 -13 -19 -38 -39 -38c-13 0 -23 11 -23 25l-12 595c8 5 18 8 27 8s19 -3 27 -8l-7 -345
c17 21 43 34 70 34c20 0 38 -8 52 -21l-7 332c8 5 18 8 27 8s19 -3 27 -8l-6 -345c24 21 55 34 87 34c53 0 92 -47 92 -101c0 -80 -86 -118 -147 -170c-15 -13 -23 -38 -44 -38c-13 0 -24 11 -24 25zM17 -26v-10c0 -23 1 -45 4 -68c39 38 71 86 71 141c0 32 -6 67 -33 67
c-28 0 -39 -32 -40 -63z" fill="currentColor"/>
<path transform="translate(119.2794, 9.6259) scale(0.0040, -0.0040)" d="M220 138c56 0 109 -29 109 -91c0 -72 -56 -121 -103 -149c-36 -21 -76 -36 -117 -36c-56 0 -109 29 -109 91c0 72 56 121 103 149c36 21 76 36 117 36z" fill="currentColor"/>
<path transform="translate(119.2794, 20.5987) scale(0.0040, -0.0040)" d="M220 138c56 0 109 -29 109 -91c0 -72 -56 -121 -103 -149c-36 -21 -76 -36 -117 -36c-56 0 -109 29 -109 91c0 72 56 121 103 149c36 21 76 36 117 36z" fill="currentColor"/>
<path transform="translate(121.0456, 9.1259) scale(0.0040, -0.0040)" d="M0 0c0 31 25 56 56 56s56 -25 56 -56s-25 -56 -56 -56s-56 25 -56 56z" fill="currentColor"/>
<rect transform="translate(120.5306, 8.6259)" x="-0.0650" y="-2.1808" width="0.1300" height="2.9930" ry="0.0400" fill="currentColor"/>
<rect transform="translate(119.3444, 22.5987)" x="-0.0650" y="-1.8122" width="0.1300" height="2.6222" ry="0.0400" fill="currentColor"/>
<text transform="translate(122.3656, 15.7989)" font-family="Lyon Text" font-style="italic" font-size="2.2001" text-anchor="start" fill="currentColor">
<tspan>
poco crescendo e pi agitato</tspan>
</text>
<path transform="translate(122.3656, 19.5987) scale(0.0040, -0.0040)" d="M220 138c56 0 109 -29 109 -91c0 -72 -56 -121 -103 -149c-36 -21 -76 -36 -117 -36c-56 0 -109 29 -109 91c0 72 56 121 103 149c36 21 76 36 117 36z" fill="currentColor"/>
<rect transform="translate(122.4306, 22.5987)" x="-0.0650" y="-2.8122" width="0.1300" height="3.6222" ry="0.0400" fill="currentColor"/>
<rect transform="translate(114.3495, 22.5987)" x="-0.0650" y="-0.3122" width="0.1300" height="3.3283" ry="0.0400" fill="currentColor"/>
<path transform="translate(116.7194, 10.6259) scale(0.0040, -0.0040)" d="M220 138c56 0 109 -29 109 -91c0 -72 -56 -121 -103 -149c-36 -21 -76 -36 -117 -36c-56 0 -109 29 -109 91c0 72 56 121 103 149c36 21 76 36 117 36z" fill="currentColor"/>
<path transform="translate(116.7194, 10.6259) scale(0.0040, -0.0040)" d="M220 138c56 0 109 -29 109 -91c0 -72 -56 -121 -103 -149c-36 -21 -76 -36 -117 -36c-56 0 -109 29 -109 91c0 72 56 121 103 149c36 21 76 36 117 36z" fill="currentColor"/>
<path transform="translate(116.7194, 20.0987) scale(0.0040, -0.0040)" d="M220 138c56 0 109 -29 109 -91c0 -72 -56 -121 -103 -149c-36 -21 -76 -36 -117 -36c-56 0 -109 29 -109 91c0 72 56 121 103 149c36 21 76 36 117 36z" fill="currentColor"/>
<rect transform="translate(117.9706, 8.6259)" x="-0.0650" y="-1.8192" width="0.1300" height="3.6314" ry="0.0400" fill="currentColor"/>
<rect transform="translate(116.7844, 8.6259)" x="-0.0650" y="2.1878" width="0.1300" height="2.4789" ry="0.0400" fill="currentColor"/>
<rect transform="translate(116.7844, 22.5987)" x="-0.0650" y="-2.3122" width="0.1300" height="3.1222" ry="0.0400" fill="currentColor"/>
<path transform="translate(39.7502, 9.6259) scale(0.0040, -0.0040)" d="M220 138c56 0 109 -29 109 -91c0 -72 -56 -121 -103 -149c-36 -21 -76 -36 -117 -36c-56 0 -109 29 -109 91c0 72 56 121 103 149c36 21 76 36 117 36z" fill="currentColor"/>
<path transform="translate(39.7502, 9.6259) scale(0.0040, -0.0040)" d="M220 138c56 0 109 -29 109 -91c0 -72 -56 -121 -103 -149c-36 -21 -76 -36 -117 -36c-56 0 -109 29 -109 91c0 72 56 121 103 149c36 21 76 36 117 36z" fill="currentColor"/>
<path transform="translate(39.7502, 22.5987) scale(0.0040, -0.0040)" d="M66 -500l101 327c-34 -12 -70 -23 -106 -23c-46 0 -87 33 -87 79c0 40 32 72 72 72c25 0 49 -15 57 -39c10 -28 5 -59 34 -59c16 0 55 51 60 68l46 151c-34 -12 -68 -22 -104 -22c-46 0 -87 33 -87 79c0 40 33 72 73 72c25 0 48 -15 56 -39c10 -28 5 -59 34 -59
c15 0 50 49 57 63c6 12 23 12 28 0l-179 -670c-8 -7 -17 -10 -27 -10s-20 3 -28 10z" fill="currentColor"/>
<rect transform="translate(41.0013, 8.6259)" x="-0.0650" y="-2.8100" width="0.1300" height="3.6222" ry="0.0400" fill="currentColor"/>
<rect transform="translate(39.8152, 8.6259)" x="-0.0650" y="1.1878" width="0.1300" height="2.6260" ry="0.0400" fill="currentColor"/>
<path transform="translate(42.4351, 8.6259) scale(0.0040, -0.0040)" d="M220 138c56 0 109 -29 109 -91c0 -72 -56 -121 -103 -149c-36 -21 -76 -36 -117 -36c-56 0 -109 29 -109 91c0 72 56 121 103 149c36 21 76 36 117 36z" fill="currentColor"/>
<path transform="translate(42.4351, 25.5987) scale(0.0040, -0.0040)" d="M220 138c56 0 109 -29 109 -91c0 -72 -56 -121 -103 -149c-36 -21 -76 -36 -117 -36c-56 0 -109 29 -109 91c0 72 56 121 103 149c36 21 76 36 117 36z" fill="currentColor"/>
<path transform="translate(43.8911, 31.5757) scale(0.0040, -0.0040)" d="M0 35c0 19 16 35 35 35s35 -16 35 -35s-16 -35 -35 -35s-35 16 -35 35z" fill="currentColor"/>
<path transform="translate(40.6991, 31.5757) scale(0.0040, -0.0040)" d="M43 339c0 -19 13 -48 39 -48c22 0 43 28 43 59c0 8 18 8 18 0c0 -63 -41 -125 -83 -125c-41 0 -61 44 -61 78c0 82 90 197 251 197c108 0 166 -82 166 -144c0 -30 -17 -67 -52 -67s-68 49 -87 90c-3 7 13 14 16 7c8 -18 28 -32 46 -32c21 0 32 18 32 36
c0 39 -44 92 -121 92h-7c-10 -20 -39 -91 -39 -108c0 -46 100 -114 100 -164c0 -24 -28 -52 -58 -90c29 -3 83 -28 102 -44c13 -11 48 24 57 31c-4 19 -6 29 -6 48c0 60 32 132 96 132c25 0 49 -17 49 -45c0 -37 -43 -80 -79 -110l-11 -9c13 -24 33 -57 47 -69
c4 -4 13 -3 18 0c9 5 47 33 63 47c-4 14 -6 28 -6 42c0 55 45 112 97 137c-51 71 -129 126 -208 140c-8 1 -5 19 3 18c142 -25 305 -134 329 -272c1 -8 3 -16 3 -24c0 -70 -50 -142 -113 -142c-43 0 -81 37 -99 82c-24 -22 -73 -64 -85 -72c-8 -6 -19 -9 -30 -9
c-39 0 -51 46 -62 85c-27 -20 -90 -73 -106 -82c-6 -3 -12 -4 -17 0c-19 16 -28 89 -57 98c-25 -30 -47 -57 -56 -66c-12 -12 -47 -36 -64 -36c-7 0 -14 5 -14 12c0 13 21 38 30 47c18 19 67 57 95 61c18 21 30 29 30 49c0 47 -88 111 -88 150c0 24 43 134 60 162
c-113 -10 -181 -88 -181 -142zM475 254c-30 0 -43 -27 -43 -55c0 -20 6 -42 14 -60c26 22 63 54 63 83c0 19 -16 32 -34 32zM683 265c-37 -21 -55 -77 -55 -122c0 -48 18 -108 59 -108c32 0 45 39 45 81c0 61 -20 105 -49 149z" fill="currentColor"/>
<rect transform="translate(43.6863, 8.6259)" x="-0.0650" y="-2.8100" width="0.1300" height="2.6222" ry="0.0400" fill="currentColor"/>
<path transform="translate(32.7933, 6.1259) scale(0.0040, -0.0040)" d="M220 138c56 0 109 -29 109 -91c0 -72 -56 -121 -103 -149c-36 -21 -76 -36 -117 -36c-56 0 -109 29 -109 91c0 72 56 121 103 149c36 21 76 36 117 36z" fill="currentColor"/>
<rect transform="translate(34.0445, 8.6259)" x="-0.0650" y="-4.8100" width="0.1300" height="2.1222" ry="0.0400" fill="currentColor"/>
<path transform="translate(34.9766, 7.6259) scale(0.0040, -0.0040)" d="M220 138c56 0 109 -29 109 -91c0 -72 -56 -121 -103 -149c-36 -21 -76 -36 -117 -36c-56 0 -109 29 -109 91c0 72 56 121 103 149c36 21 76 36 117 36z" fill="currentColor"/>
<path transform="translate(34.9766, 7.6259) scale(0.0040, -0.0040)" d="M220 138c56 0 109 -29 109 -91c0 -72 -56 -121 -103 -149c-36 -21 -76 -36 -117 -36c-56 0 -109 29 -109 91c0 72 56 121 103 149c36 21 76 36 117 36z" fill="currentColor"/>
<rect transform="translate(36.2278, 8.6259)" x="-0.0650" y="-4.8100" width="0.1300" height="3.6222" ry="0.0400" fill="currentColor"/>
<rect transform="translate(35.0416, 8.6259)" x="-0.0650" y="-0.8122" width="0.1300" height="2.6181" ry="0.0400" fill="currentColor"/>
<path transform="translate(37.6616, 6.6259) scale(0.0040, -0.0040)" d="M220 138c56 0 109 -29 109 -91c0 -72 -56 -121 -103 -149c-36 -21 -76 -36 -117 -36c-56 0 -109 29 -109 91c0 72 56 121 103 149c36 21 76 36 117 36z" fill="currentColor"/>
<rect transform="translate(38.9128, 8.6259)" x="-0.0650" y="-4.8100" width="0.1300" height="2.6222" ry="0.0400" fill="currentColor"/>
<rect transform="translate(45.5863, 8.6259)" x="-0.0650" y="1.6878" width="0.1300" height="2.4672" ry="0.0400" fill="currentColor"/>
<rect transform="translate(46.7725, 22.5987)" x="-0.0650" y="-3.9795" width="0.1300" height="4.2916" ry="0.0400" fill="currentColor"/>
<path transform="translate(44.3713, 23.0987) scale(0.0040, -0.0040)" d="M27 41l-1 -66v-11c0 -22 1 -44 4 -66c45 38 93 80 93 139c0 33 -14 67 -43 67c-31 0 -52 -30 -53 -63zM-15 -138l-12 595c8 5 18 8 27 8s19 -3 27 -8l-7 -345c25 21 58 34 91 34c52 0 89 -48 89 -102c0 -80 -86 -117 -147 -169c-15 -13 -24 -38 -45 -38
c-13 0 -23 11 -23 25z" fill="currentColor"/>
<path transform="translate(48.2062, 9.1259) scale(0.0040, -0.0040)" d="M220 138c56 0 109 -29 109 -91c0 -72 -56 -121 -103 -149c-36 -21 -76 -36 -117 -36c-56 0 -109 29 -109 91c0 72 56 121 103 149c36 21 76 36 117 36z" fill="currentColor"/>
<path transform="translate(48.2062, 21.0987) scale(0.0040, -0.0040)" d="M220 138c56 0 109 -29 109 -91c0 -72 -56 -121 -103 -149c-36 -21 -76 -36 -117 -36c-56 0 -109 29 -109 91c0 72 56 121 103 149c36 21 76 36 117 36z" fill="currentColor"/>
<rect transform="translate(49.4574, 8.6259)" x="-0.0650" y="-2.8100" width="0.1300" height="3.1222" ry="0.0400" fill="currentColor"/>
<rect transform="translate(49.4574, 22.5987)" x="-0.0650" y="-4.9759" width="0.1300" height="3.2881" ry="0.0400" fill="currentColor"/>
<rect transform="translate(43.6863, 22.5987)" x="-0.0650" y="-2.8341" width="0.1300" height="5.6463" ry="0.0400" fill="currentColor"/>
<path transform="translate(44.2013, 26.0987) scale(0.0040, -0.0040)" d="M0 0c0 31 25 56 56 56s56 -25 56 -56s-25 -56 -56 -56s-56 25 -56 56z" fill="currentColor"/>
<rect transform="translate(42.5001, 22.5987)" x="-0.0650" y="3.1878" width="0.1300" height="2.8122" ry="0.0400" fill="currentColor"/>
<path transform="translate(42.5651, 28.5587) scale(0.0040, -0.0040)" d="M0 0h-16v250h16c98 58 227 148 227 259c0 57 -16 112 -41 163c-3 16 10 27 23 27c7 0 15 -3 20 -11c25 -56 40 -117 40 -179c0 -204 -269 -305 -269 -509z" fill="currentColor"/>
<path transform="translate(45.5213, 10.1259) scale(0.0040, -0.0040)" d="M220 138c56 0 109 -29 109 -91c0 -72 -56 -121 -103 -149c-36 -21 -76 -36 -117 -36c-56 0 -109 29 -109 91c0 72 56 121 103 149c36 21 76 36 117 36z" fill="currentColor"/>
<path transform="translate(45.5213, 10.1259) scale(0.0040, -0.0040)" d="M220 138c56 0 109 -29 109 -91c0 -72 -56 -121 -103 -149c-36 -21 -76 -36 -117 -36c-56 0 -109 29 -109 91c0 72 56 121 103 149c36 21 76 36 117 36z" fill="currentColor"/>
<path transform="translate(45.5213, 23.0987) scale(0.0040, -0.0040)" d="M220 138c56 0 109 -29 109 -91c0 -72 -56 -121 -103 -149c-36 -21 -76 -36 -117 -36c-56 0 -109 29 -109 91c0 72 56 121 103 149c36 21 76 36 117 36z" fill="currentColor"/>
<rect transform="translate(46.7725, 8.6259)" x="-0.0650" y="-2.8100" width="0.1300" height="4.1222" ry="0.0400" fill="currentColor"/>
<rect transform="translate(25.3051, 8.6259)" x="-0.0650" y="-1.8122" width="0.1300" height="3.0063" ry="0.0400" fill="currentColor"/>
<path transform="translate(27.9251, 5.6259) scale(0.0040, -0.0040)" d="M220 138c56 0 109 -29 109 -91c0 -72 -56 -121 -103 -149c-36 -21 -76 -36 -117 -36c-56 0 -109 29 -109 91c0 72 56 121 103 149c36 21 76 36 117 36z" fill="currentColor"/>
<rect transform="translate(29.1762, 8.6259)" x="-0.0650" y="-5.7957" width="0.1300" height="2.6079" ry="0.0400" fill="currentColor"/>
<path transform="translate(25.2401, 6.6259) scale(0.0040, -0.0040)" d="M220 138c56 0 109 -29 109 -91c0 -72 -56 -121 -103 -149c-36 -21 -76 -36 -117 -36c-56 0 -109 29 -109 91c0 72 56 121 103 149c36 21 76 36 117 36z" fill="currentColor"/>
<text transform="translate(25.2401, 1.6047)" font-family="Lyon Text" font-style="italic" font-size="2.2001" text-anchor="start" fill="currentColor">
<tspan>
espressivo</tspan>
</text>
<path transform="translate(25.2401, 6.6259) scale(0.0040, -0.0040)" d="M220 138c56 0 109 -29 109 -91c0 -72 -56 -121 -103 -149c-36 -21 -76 -36 -117 -36c-56 0 -109 29 -109 91c0 72 56 121 103 149c36 21 76 36 117 36z" fill="currentColor"/>
<path transform="translate(25.2401, 22.5987) scale(0.0040, -0.0040)" d="M72 -250l117 326c-34 -12 -69 -22 -105 -22c-46 0 -87 33 -87 79c0 40 33 72 73 72c25 0 48 -15 56 -39c10 -28 6 -59 35 -59c16 0 54 48 61 63c6 12 23 12 28 0l-123 -420c-8 -7 -17 -10 -27 -10s-20 3 -28 10z" fill="currentColor"/>
<rect transform="translate(26.4913, 8.6259)" x="-0.0650" y="-5.2043" width="0.1300" height="3.0165" ry="0.0400" fill="currentColor"/>
<rect transform="translate(30.1734, 8.6259)" x="-0.0650" y="-1.3122" width="0.1300" height="2.8122" ry="0.0400" fill="currentColor"/>
<rect transform="translate(147.3833, 8.6259)" x="-0.0650" y="-2.8078" width="0.1300" height="4.1200" ry="0.0400" fill="currentColor"/>
<path transform="translate(146.1321, 19.5987) scale(0.0040, -0.0040)" d="M220 138c56 0 109 -29 109 -91c0 -72 -56 -121 -103 -149c-36 -21 -76 -36 -117 -36c-56 0 -109 29 -109 91c0 72 56 121 103 149c36 21 76 36 117 36z" fill="currentColor"/>
<path transform="translate(146.1321, 9.1259) scale(0.0040, -0.0040)" d="M220 138c56 0 109 -29 109 -91c0 -72 -56 -121 -103 -149c-36 -21 -76 -36 -117 -36c-56 0 -109 29 -109 91c0 72 56 121 103 149c36 21 76 36 117 36z" fill="currentColor"/>
<path transform="translate(146.1321, 10.1259) scale(0.0040, -0.0040)" d="M220 138c56 0 109 -29 109 -91c0 -72 -56 -121 -103 -149c-36 -21 -76 -36 -117 -36c-56 0 -109 29 -109 91c0 72 56 121 103 149c36 21 76 36 117 36z" fill="currentColor"/>
<path transform="translate(142.7093, 19.0987) scale(0.0040, -0.0040)" d="M-8 375c8 4 17 7 26 7s17 -3 25 -7l-3 -183l106 20h3c10 0 18 -7 18 -17l7 -570c-8 -4 -16 -7 -25 -7s-17 3 -25 7l3 183l-106 -20h-3c-10 0 -18 7 -18 17zM131 112l-92 -17l-3 -207l92 17z" fill="currentColor"/>
<path transform="translate(30.1084, 7.1259) scale(0.0040, -0.0040)" d="M220 138c56 0 109 -29 109 -91c0 -72 -56 -121 -103 -149c-36 -21 -76 -36 -117 -36c-56 0 -109 29 -109 91c0 72 56 121 103 149c36 21 76 36 117 36z" fill="currentColor"/>
<path transform="translate(30.1084, 7.1259) scale(0.0040, -0.0040)" d="M220 138c56 0 109 -29 109 -91c0 -72 -56 -121 -103 -149c-36 -21 -76 -36 -117 -36c-56 0 -109 29 -109 91c0 72 56 121 103 149c36 21 76 36 117 36z" fill="currentColor"/>
<path transform="translate(30.1084, 22.5987) scale(0.0040, -0.0040)" d="M-23 -116c0 28 11 42 40 42c33 0 78 -13 119 -31l-132 158c-7 9 -10 17 -10 25c0 34 50 66 87 99c25 22 37 52 37 83c0 24 -8 49 -25 69l-35 42c-3 3 -4 7 -4 10c0 9 9 15 17 15c4 0 8 -1 11 -5l151 -180c7 -9 10 -17 10 -25c0 -34 -50 -66 -87 -99
c-25 -22 -37 -52 -37 -83c0 -24 7 -49 24 -69l84 -99c3 -3 4 -7 4 -10c0 -9 -8 -16 -16 -16c-4 0 -9 2 -12 6c-18 21 -63 38 -97 38c-41 0 -53 -26 -53 -67c0 -35 11 -74 28 -94c5 -6 0 -13 -6 -13c-2 0 -4 0 -6 2c-45 54 -92 148 -92 202z" fill="currentColor"/>
<rect transform="translate(31.3596, 8.6259)" x="-0.0650" y="-4.8100" width="0.1300" height="3.1222" ry="0.0400" fill="currentColor"/>
<rect transform="translate(146.1971, 22.5987)" x="-0.0650" y="-2.8122" width="0.1300" height="3.6222" ry="0.0400" fill="currentColor"/>
</svg>
